<svg id="svg" version="1.1" xmlns="http://www.w3.org/2000/svg" xmlns:xlink="http://www.w3.org/1999/xlink" width="400" height="400" viewBox="0, 0, 400,400"><g id="svgg"><path id="path0" d="M179.097 90.811 C 178.379 91.252,176.800 94.006,176.800 94.817 C 176.800 95.064,176.233 96.556,175.539 98.133 C 173.671 102.383,171.733 110.260,167.799 129.600 C 166.613 135.430,165.002 142.900,164.219 146.200 C 163.437 149.500,162.421 153.820,161.963 155.800 C 159.336 167.153,153.561 184.605,151.463 187.529 C 150.318 189.125,150.203 189.588,149.972 193.529 C 149.834 195.878,149.427 199.060,149.067 200.600 C 148.201 204.309,144.368 225.061,142.802 234.518 C 140.824 246.467,140.467 250.237,140.009 264.021 C 139.772 271.159,139.342 279.970,139.055 283.600 L 138.531 290.200 136.292 295.600 C 132.351 305.099,129.200 313.950,129.204 315.506 C 129.217 320.452,136.506 327.672,142.106 328.285 C 145.280 328.633,146.757 326.976,149.314 320.200 C 153.871 308.125,153.501 308.847,156.828 305.550 C 159.833 302.571,161.600 299.495,161.600 297.241 C 161.600 296.449,164.129 280.778,164.834 277.200 C 165.073 275.990,165.614 273.290,166.037 271.200 C 167.586 263.539,168.439 256.328,168.987 246.268 C 169.229 241.817,169.130 242.410,170.829 235.200 C 175.167 216.795,173.370 217.938,198.800 217.407 C 203.970 217.299,209.627 217.028,211.371 216.806 C 215.125 216.327,215.793 216.616,217.623 219.501 C 221.293 225.288,225.028 238.199,228.009 255.400 C 229.585 264.494,230.447 268.379,232.002 273.400 C 232.684 275.600,233.955 280.270,234.827 283.779 C 235.699 287.287,237.062 291.607,237.854 293.379 C 242.333 303.388,244.272 309.438,245.422 316.997 C 246.629 324.929,251.874 331.389,258.287 332.841 C 264.051 334.147,265.355 329.136,262.411 317.000 C 261.189 311.961,260.563 308.891,259.396 302.200 C 258.753 298.515,256.639 288.578,254.587 279.600 C 252.134 268.867,251.282 264.367,250.611 258.600 C 249.658 250.418,249.492 249.757,244.982 236.200 C 239.921 220.989,239.532 219.118,239.567 210.153 C 239.598 202.258,239.466 201.704,235.864 194.525 C 233.702 190.216,233.251 188.826,231.019 179.600 C 230.023 175.478,228.305 169.949,226.174 164.000 C 224.908 160.466,224.495 159.033,222.366 150.800 C 217.963 133.777,210.630 118.949,201.197 108.000 C 199.965 106.570,197.436 103.523,195.578 101.229 C 189.315 93.496,182.124 88.950,179.097 90.811 M193.261 138.300 C 194.056 139.679,194.696 141.693,199.145 156.800 C 201.121 163.510,203.848 172.761,205.206 177.359 C 208.614 188.895,209.183 188.241,196.038 187.881 C 181.171 187.474,180.880 187.243,183.330 177.800 C 184.243 174.282,186.648 163.157,187.395 159.000 C 187.751 157.020,188.382 153.780,188.798 151.800 C 189.516 148.377,190.408 143.684,191.000 140.207 C 191.522 137.142,192.244 136.534,193.261 138.300 " stroke="none" fill="#EC791A" fill-rule="evenodd"></path><path id="path1" d="M0.000 200.000 L 0.000 400.000 200.000 400.000 L 400.000 400.000 400.000 200.000 L 400.000 0.000 200.000 0.000 L 0.000 0.000 0.000 200.000 M185.240 91.861 C 188.478 93.623,192.010 96.824,195.578 101.229 C 197.436 103.523,199.965 106.570,201.197 108.000 C 210.630 118.949,217.963 133.777,222.366 150.800 C 224.495 159.033,224.908 160.466,226.174 164.000 C 228.305 169.949,230.023 175.478,231.019 179.600 C 233.251 188.826,233.702 190.216,235.864 194.525 C 239.466 201.704,239.598 202.258,239.567 210.153 C 239.532 219.118,239.921 220.989,244.982 236.200 C 249.492 249.757,249.658 250.418,250.611 258.600 C 251.282 264.367,252.134 268.867,254.587 279.600 C 256.639 288.578,258.753 298.515,259.396 302.200 C 260.563 308.891,261.189 311.961,262.411 317.000 C 265.355 329.136,264.051 334.147,258.287 332.841 C 251.874 331.389,246.629 324.929,245.422 316.997 C 244.272 309.438,242.333 303.388,237.854 293.379 C 237.062 291.607,235.699 287.287,234.827 283.779 C 233.955 280.270,232.684 275.600,232.002 273.400 C 230.447 268.379,229.585 264.494,228.009 255.400 C 225.028 238.199,221.293 225.288,217.623 219.501 C 215.793 216.616,215.125 216.327,211.371 216.806 C 209.627 217.028,203.970 217.299,198.800 217.407 C 181.564 217.767,177.698 218.289,175.346 220.574 C 173.944 221.935,173.992 221.781,170.829 235.200 C 169.130 242.410,169.229 241.817,168.987 246.268 C 168.439 256.328,167.586 263.539,166.037 271.200 C 165.614 273.290,165.073 275.990,164.834 277.200 C 164.129 280.778,161.600 296.449,161.600 297.241 C 161.600 299.495,159.833 302.571,156.828 305.550 C 153.501 308.847,153.871 308.125,149.314 320.200 C 146.757 326.976,145.280 328.633,142.106 328.285 C 136.506 327.672,129.217 320.452,129.204 315.506 C 129.200 313.950,132.351 305.099,136.292 295.600 L 138.531 290.200 139.055 283.600 C 139.342 279.970,139.772 271.159,140.009 264.021 C 140.467 250.237,140.824 246.467,142.802 234.518 C 144.368 225.061,148.201 204.309,149.067 200.600 C 149.427 199.060,149.834 195.878,149.972 193.529 C 150.203 189.588,150.318 189.125,151.463 187.529 C 153.561 184.605,159.336 167.153,161.963 155.800 C 162.421 153.820,163.437 149.500,164.219 146.200 C 165.002 142.900,166.613 135.430,167.799 129.600 C 171.733 110.260,173.671 102.383,175.539 98.133 C 176.233 96.556,176.800 95.064,176.800 94.817 C 176.800 90.923,180.887 89.491,185.240 91.861 M191.650 137.907 C 191.441 138.296,191.149 139.331,191.000 140.207 C 190.408 143.684,189.516 148.377,188.798 151.800 C 188.382 153.780,187.751 157.020,187.395 159.000 C 186.648 163.157,184.243 174.282,183.330 177.800 C 180.880 187.243,181.171 187.474,196.038 187.881 C 209.183 188.241,208.614 188.895,205.206 177.359 C 203.848 172.761,201.121 163.510,199.145 156.800 C 193.274 136.865,192.820 135.720,191.650 137.907 " stroke="none" fill="transparent" fill-rule="evenodd"></path></g></svg>