<svg id="svg" version="1.1" xmlns="http://www.w3.org/2000/svg" xmlns:xlink="http://www.w3.org/1999/xlink" width="400" height="400" viewBox="0, 0, 400,400"><g id="svgg"><path id="path0" d="M118.290 70.301 C 116.829 71.915,116.800 72.685,116.808 109.126 C 116.815 137.456,116.943 146.556,117.418 152.400 C 117.749 156.470,118.186 162.140,118.389 165.000 C 118.593 167.860,119.115 172.090,119.550 174.400 C 119.985 176.710,120.811 181.707,121.386 185.505 C 121.961 189.303,123.132 195.603,123.988 199.505 C 129.546 224.846,130.254 232.088,130.582 267.000 C 130.930 303.905,131.088 309.906,131.781 312.512 C 134.836 323.994,149.855 332.371,153.918 324.859 C 155.247 322.402,158.192 319.125,159.785 318.332 C 165.585 315.445,164.980 315.526,183.400 315.184 C 192.776 315.010,201.084 314.679,202.200 314.434 C 204.657 313.897,211.432 311.697,212.816 310.987 C 213.793 310.486,221.167 309.381,230.000 308.411 C 240.275 307.282,254.311 302.479,261.000 297.803 C 265.946 294.345,267.132 293.465,269.156 291.755 C 280.816 281.902,283.667 266.579,277.981 244.328 C 276.992 240.458,276.368 236.707,275.213 227.680 C 273.067 210.903,269.111 203.198,254.571 187.472 C 243.891 175.921,243.984 176.183,249.447 172.988 C 252.555 171.170,260.842 163.052,263.318 159.400 C 264.212 158.080,265.090 156.941,265.267 156.868 C 265.632 156.720,269.600 148.692,269.600 148.104 C 269.600 147.894,269.869 147.183,270.199 146.523 C 277.498 131.892,261.786 110.439,226.200 86.447 C 207.568 73.886,202.618 72.843,160.400 72.586 C 129.841 72.400,130.046 72.411,125.236 70.757 C 121.359 69.423,119.211 69.283,118.290 70.301 M202.238 95.785 C 212.898 96.794,220.507 100.413,234.200 110.986 C 243.387 118.080,245.389 119.903,247.060 122.700 C 252.474 131.760,240.690 149.365,224.752 156.025 C 210.148 162.128,202.566 163.428,179.400 163.802 C 172.800 163.908,164.430 164.197,160.800 164.443 C 150.602 165.135,142.783 164.420,140.994 162.630 C 139.648 161.285,139.530 158.483,139.559 128.507 L 139.585 101.202 140.583 99.233 C 141.783 96.866,144.170 95.765,148.391 95.633 C 149.816 95.588,151.076 95.454,151.191 95.334 C 151.458 95.057,198.982 95.477,202.238 95.785 M231.921 191.042 C 237.473 192.308,242.542 195.703,246.636 200.896 C 250.062 205.240,251.153 208.666,252.784 220.200 C 253.860 227.807,254.563 231.671,255.985 237.800 C 258.584 248.998,258.567 259.813,255.942 265.200 C 250.643 276.078,232.526 284.741,211.200 286.595 C 204.594 287.170,200.437 288.066,194.646 290.163 C 188.181 292.504,178.009 293.224,163.753 292.348 C 152.778 291.673,153.275 292.628,153.233 272.116 C 153.177 244.767,152.022 233.382,147.013 210.800 C 142.957 192.512,142.866 192.597,167.200 192.174 C 173.030 192.073,178.250 191.901,178.800 191.792 C 179.350 191.683,188.080 191.493,198.200 191.371 C 208.320 191.249,218.220 191.006,220.200 190.831 C 223.926 190.501,230.035 190.611,231.921 191.042 " stroke="none" fill="#EC791A" fill-rule="evenodd"></path><path id="path1" d="M0.000 200.000 L 0.000 400.000 200.000 400.000 L 400.000 400.000 400.000 200.000 L 400.000 0.000 200.000 0.000 L 0.000 0.000 0.000 200.000 M125.236 70.757 C 130.046 72.411,129.841 72.400,160.400 72.586 C 195.585 72.800,198.981 73.143,210.266 77.626 C 224.713 83.365,254.771 106.587,264.079 119.200 C 271.514 129.274,273.772 139.359,270.199 146.523 C 269.869 147.183,269.600 147.894,269.600 148.104 C 269.600 148.692,265.632 156.720,265.267 156.868 C 265.090 156.941,264.212 158.080,263.318 159.400 C 260.842 163.052,252.555 171.170,249.447 172.988 C 243.984 176.183,243.891 175.921,254.571 187.472 C 269.111 203.198,273.067 210.903,275.213 227.680 C 276.368 236.707,276.992 240.458,277.981 244.328 C 283.667 266.579,280.816 281.902,269.156 291.755 C 267.132 293.465,265.946 294.345,261.000 297.803 C 254.311 302.479,240.275 307.282,230.000 308.411 C 221.167 309.381,213.793 310.486,212.816 310.987 C 211.432 311.697,204.657 313.897,202.200 314.434 C 201.084 314.679,192.776 315.010,183.400 315.184 C 164.980 315.526,165.585 315.445,159.785 318.332 C 158.192 319.125,155.247 322.402,153.918 324.859 C 149.855 332.371,134.836 323.994,131.781 312.512 C 131.088 309.906,130.930 303.905,130.582 267.000 C 130.254 232.088,129.546 224.846,123.988 199.505 C 123.132 195.603,121.961 189.303,121.386 185.505 C 120.811 181.707,119.985 176.710,119.550 174.400 C 119.115 172.090,118.593 167.860,118.389 165.000 C 118.186 162.140,117.749 156.470,117.418 152.400 C 116.670 143.200,116.506 74.025,117.228 72.127 C 118.328 69.233,119.982 68.950,125.236 70.757 M151.191 95.334 C 151.076 95.454,149.816 95.588,148.391 95.633 C 144.170 95.765,141.783 96.866,140.583 99.233 L 139.585 101.202 139.559 128.507 C 139.530 158.483,139.648 161.285,140.994 162.630 C 142.783 164.420,150.602 165.135,160.800 164.443 C 164.430 164.197,172.800 163.908,179.400 163.802 C 202.566 163.428,210.148 162.128,224.752 156.025 C 240.690 149.365,252.474 131.760,247.060 122.700 C 245.389 119.903,243.387 118.080,234.200 110.986 C 220.507 100.413,212.898 96.794,202.238 95.785 C 198.982 95.477,151.458 95.057,151.191 95.334 M220.200 190.831 C 218.220 191.006,208.320 191.249,198.200 191.371 C 188.080 191.493,179.350 191.683,178.800 191.792 C 178.250 191.901,173.030 192.073,167.200 192.174 C 142.866 192.597,142.957 192.512,147.013 210.800 C 152.022 233.382,153.177 244.767,153.233 272.116 C 153.275 292.628,152.778 291.673,163.753 292.348 C 178.009 293.224,188.181 292.504,194.646 290.163 C 200.437 288.066,204.594 287.170,211.200 286.595 C 232.526 284.741,250.643 276.078,255.942 265.200 C 258.567 259.813,258.584 248.998,255.985 237.800 C 254.563 231.671,253.860 227.807,252.784 220.200 C 250.821 206.323,249.105 202.364,242.552 196.600 C 236.663 191.419,230.765 189.897,220.200 190.831 " stroke="none" fill="transparent" fill-rule="evenodd"></path></g></svg>