<svg id="svg" version="1.1" xmlns="http://www.w3.org/2000/svg" xmlns:xlink="http://www.w3.org/1999/xlink" width="400" height="608.4142394822006" viewBox="0, 0, 400,608.4142394822006"><g id="svgg"><path id="path0" d="M122.080 23.680 C 121.816 23.944,121.600 24.503,121.600 24.922 C 121.600 25.575,121.386 25.652,120.100 25.463 C 116.626 24.951,116.607 24.953,116.472 25.900 C 116.288 27.194,113.600 25.808,113.600 24.419 C 113.600 23.471,112.762 24.089,112.540 25.200 C 112.277 26.514,111.821 26.752,111.445 25.772 C 111.038 24.711,109.465 25.249,109.024 26.600 C 108.508 28.179,108.577 28.123,107.713 27.660 C 106.814 27.179,106.202 27.497,105.850 28.628 C 105.375 30.151,101.559 31.399,100.527 30.367 C 100.290 30.130,98.966 29.940,97.585 29.947 C 96.205 29.953,94.495 29.716,93.784 29.419 C 92.664 28.951,92.409 28.962,91.866 29.505 C 91.384 29.988,91.112 30.025,90.683 29.669 C 90.239 29.301,89.845 29.519,88.751 30.738 C 87.731 31.874,86.947 32.338,85.715 32.535 C 84.588 32.715,83.977 33.043,83.814 33.555 C 83.595 34.247,83.439 34.267,81.888 33.795 C 80.050 33.235,79.937 32.760,81.298 31.302 C 82.379 30.143,82.045 29.854,80.022 30.196 C 78.309 30.486,77.343 31.553,77.774 32.677 C 78.072 33.452,74.559 33.048,73.600 32.197 C 72.792 31.480,70.781 32.941,71.536 33.696 C 72.203 34.363,72.108 34.800,71.296 34.800 C 70.909 34.800,70.372 34.448,70.104 34.017 C 69.645 33.283,69.525 33.272,68.172 33.837 C 66.983 34.334,66.620 34.349,66.101 33.920 C 65.755 33.634,64.646 33.372,63.636 33.337 C 62.626 33.303,61.371 33.213,60.847 33.137 C 60.091 33.028,59.734 33.307,59.113 34.491 C 58.567 35.532,57.942 36.089,57.039 36.338 C 56.329 36.534,54.626 37.548,53.255 38.590 C 51.278 40.093,50.520 40.450,49.586 40.313 C 48.723 40.186,48.174 40.389,47.534 41.070 C 47.054 41.581,46.259 42.000,45.768 42.000 C 45.085 42.000,44.922 42.180,45.075 42.766 C 45.212 43.288,44.977 43.689,44.338 44.026 C 43.122 44.666,42.814 45.160,42.806 46.482 C 42.798 47.903,40.565 48.462,38.998 47.436 L 38.000 46.782 38.000 48.191 C 38.000 48.966,37.989 49.735,37.976 49.900 C 37.963 50.065,38.355 50.295,38.847 50.411 C 40.195 50.729,40.196 51.493,38.849 51.789 C 37.079 52.178,36.652 52.916,36.949 55.077 C 37.162 56.637,37.067 57.090,36.368 57.834 C 35.692 58.554,35.615 58.881,35.967 59.538 C 36.744 60.990,34.915 62.658,33.202 62.061 C 32.470 61.805,31.779 61.687,31.668 61.798 C 31.557 61.909,31.677 62.000,31.933 62.000 C 32.190 62.000,32.400 62.258,32.400 62.573 C 32.400 62.888,32.760 63.260,33.200 63.400 C 34.273 63.741,34.208 64.177,33.000 64.727 C 31.715 65.313,31.708 66.590,32.984 67.427 C 33.526 67.781,34.072 68.396,34.198 68.793 C 34.324 69.189,34.781 69.606,35.213 69.719 C 36.189 69.974,36.239 70.750,35.300 71.046 C 32.971 71.781,32.987 71.705,34.735 73.725 C 36.406 75.655,36.498 76.277,35.315 77.658 C 34.822 78.234,34.879 78.442,35.776 79.340 C 37.130 80.693,37.070 81.299,35.400 83.147 C 33.731 84.995,33.722 85.043,35.000 85.364 C 36.131 85.648,36.283 86.593,35.387 87.776 C 34.575 88.850,34.645 89.161,35.800 89.600 C 36.966 90.043,37.147 91.200,36.051 91.200 C 35.486 91.200,35.239 91.595,35.044 92.813 C 34.783 94.444,35.272 96.000,36.045 96.000 C 36.286 96.000,36.410 96.702,36.341 97.670 C 36.232 99.179,36.325 99.375,37.310 99.703 C 38.724 100.175,38.717 101.036,37.300 101.016 C 35.795 100.994,35.790 102.393,37.292 103.113 C 38.350 103.620,38.376 103.711,38.133 106.039 C 37.907 108.198,37.969 108.503,38.741 109.044 C 39.213 109.375,39.600 109.904,39.600 110.219 C 39.600 110.535,39.960 111.018,40.400 111.293 C 42.104 112.357,40.535 114.400,38.014 114.400 C 36.710 114.400,36.386 114.955,37.451 115.364 C 37.809 115.501,38.358 115.401,38.671 115.141 C 39.802 114.203,40.683 115.727,39.762 117.029 C 37.978 119.551,37.950 119.704,39.068 120.871 C 40.061 121.907,40.141 123.200,39.213 123.200 C 38.986 123.200,38.800 123.729,38.800 124.376 C 38.800 125.023,38.608 125.671,38.374 125.816 C 37.581 126.306,39.207 127.614,40.276 127.345 C 41.153 127.125,41.216 127.198,40.975 128.157 C 40.823 128.761,40.908 129.448,41.174 129.769 C 41.474 130.130,41.544 131.026,41.374 132.310 C 41.170 133.847,41.268 134.532,41.810 135.359 C 42.194 135.945,42.369 136.554,42.199 136.712 C 42.030 136.871,41.810 136.775,41.712 136.500 C 41.614 136.225,41.282 136.000,40.974 136.000 C 40.351 136.000,39.780 137.720,40.186 138.377 C 40.329 138.609,40.166 139.199,39.823 139.688 C 39.480 140.178,39.200 140.969,39.200 141.446 C 39.200 141.924,38.930 142.418,38.600 142.545 C 37.330 143.032,37.895 144.696,39.456 145.065 C 42.181 145.709,42.030 147.140,39.004 149.349 C 38.243 149.904,38.284 149.960,39.921 150.615 L 41.634 151.300 41.369 153.066 C 41.165 154.428,41.258 155.001,41.778 155.575 C 42.411 156.275,42.403 156.353,41.637 156.889 C 40.832 157.453,40.836 157.473,41.996 158.829 C 42.640 159.583,43.175 160.506,43.184 160.879 C 43.193 161.253,43.650 162.044,44.200 162.638 C 45.318 163.844,45.402 164.320,44.750 165.750 C 44.432 166.447,44.421 167.085,44.711 167.918 C 45.045 168.876,44.980 169.315,44.364 170.249 C 43.947 170.882,43.604 171.826,43.603 172.347 C 43.601 173.095,43.433 173.250,42.802 173.085 C 41.797 172.822,42.077 174.527,43.252 175.826 C 43.664 176.280,44.000 177.009,44.000 177.446 C 44.000 177.883,44.218 178.458,44.485 178.725 C 44.751 178.991,44.921 179.882,44.863 180.705 C 44.793 181.682,45.089 182.823,45.717 184.000 C 46.621 185.693,46.642 185.877,46.069 187.091 C 45.508 188.281,45.518 188.446,46.192 189.191 C 46.874 189.945,46.879 190.049,46.262 190.731 C 45.898 191.134,45.600 191.969,45.600 192.587 C 45.600 193.206,45.285 193.943,44.900 194.226 C 44.258 194.698,44.295 194.777,45.348 195.179 C 46.319 195.549,46.464 195.785,46.283 196.708 C 46.165 197.309,46.298 198.340,46.578 199.000 C 47.137 200.318,46.474 202.394,45.490 202.406 C 45.148 202.410,45.133 202.501,45.440 202.706 C 45.682 202.868,46.094 203.405,46.354 203.900 C 46.615 204.395,47.171 204.800,47.590 204.800 C 48.790 204.800,48.885 205.436,47.868 206.666 C 47.120 207.572,46.943 208.230,46.990 209.942 C 47.034 211.559,46.896 212.137,46.424 212.301 C 44.287 213.048,43.558 215.200,45.443 215.200 C 46.133 215.200,46.400 215.423,46.400 216.000 C 46.400 216.516,46.667 216.800,47.151 216.800 C 48.262 216.800,49.124 217.948,48.374 218.430 C 47.483 219.003,46.613 218.680,46.476 217.725 C 46.280 216.358,45.361 215.798,44.188 216.333 C 42.917 216.912,42.922 218.126,44.200 218.963 C 45.361 219.724,45.614 222.481,44.644 223.807 C 44.010 224.674,44.198 225.480,45.281 226.531 C 45.780 227.016,45.945 227.542,45.771 228.090 C 45.549 228.789,45.643 228.882,46.379 228.690 C 47.592 228.372,47.864 229.357,47.041 231.083 C 46.406 232.414,46.409 232.549,47.084 233.499 C 48.794 235.904,48.842 236.133,47.814 236.997 C 46.349 238.227,45.855 244.518,47.003 247.315 C 47.187 247.762,47.056 248.296,46.654 248.740 C 45.995 249.469,46.403 250.400,47.380 250.400 C 48.368 250.399,47.754 253.386,46.655 253.926 C 45.629 254.429,45.541 255.200,46.510 255.200 C 47.935 255.200,48.672 256.937,48.090 258.923 C 47.637 260.469,47.621 261.084,48.008 262.019 C 48.282 262.680,48.380 263.779,48.235 264.552 C 48.063 265.472,48.229 266.552,48.745 267.860 L 49.510 269.802 48.341 271.201 C 47.403 272.322,47.194 272.918,47.285 274.200 C 47.399 275.788,47.389 275.801,45.875 275.926 C 44.134 276.069,44.031 276.925,45.731 277.127 C 47.128 277.292,47.149 278.479,45.770 279.383 C 44.479 280.229,44.994 281.231,47.414 282.581 C 49.537 283.765,49.762 285.249,48.057 286.807 C 46.434 288.290,45.825 292.348,47.091 293.245 C 48.321 294.117,48.910 295.569,48.659 297.111 C 48.534 297.882,48.618 298.859,48.844 299.283 C 49.158 299.868,49.082 300.312,48.528 301.127 C 47.785 302.222,47.717 302.660,47.592 307.194 C 47.512 310.081,46.535 312.000,45.145 312.000 C 44.544 312.000,44.376 312.224,44.472 312.900 C 44.563 313.543,44.832 313.768,45.412 313.690 C 45.910 313.622,46.741 314.114,47.566 314.965 L 48.908 316.350 48.222 318.449 C 47.547 320.514,47.549 320.558,48.378 321.183 C 49.497 322.027,48.740 323.150,46.783 323.550 C 45.261 323.861,44.677 325.076,45.759 325.681 C 46.669 326.191,46.558 326.791,45.312 328.092 C 44.382 329.063,44.295 329.340,44.712 330.008 C 45.300 330.950,45.358 333.455,44.800 333.800 C 44.249 334.141,44.299 335.446,44.900 336.423 C 45.332 337.126,45.274 337.331,44.469 337.943 C 43.401 338.754,44.170 339.927,45.448 339.437 C 46.014 339.220,46.078 339.432,45.905 340.965 C 45.795 341.944,45.876 342.916,46.085 343.125 C 46.326 343.366,46.325 343.780,46.082 344.253 C 45.599 345.194,44.800 347.714,44.800 348.298 C 44.800 348.540,45.263 349.289,45.829 349.962 C 46.542 350.809,46.778 351.439,46.596 352.012 C 46.441 352.501,46.593 353.234,46.967 353.806 C 47.721 354.956,47.779 356.061,47.121 356.719 C 46.351 357.489,46.023 361.659,46.660 362.589 C 47.438 363.726,47.332 364.386,46.200 365.435 C 44.769 366.761,44.860 368.323,46.400 368.860 C 47.790 369.345,47.938 369.839,46.801 370.200 C 45.211 370.704,45.105 378.656,46.684 379.055 C 48.115 379.417,48.440 380.101,47.783 381.367 C 46.985 382.907,47.038 386.834,47.882 388.604 C 48.545 389.994,48.538 390.082,47.632 391.742 C 46.710 393.430,46.707 393.475,47.374 395.771 C 47.746 397.049,47.953 398.347,47.834 398.656 C 47.452 399.651,48.505 403.368,49.467 404.422 C 50.540 405.597,50.614 406.283,49.787 407.376 C 48.942 408.494,49.059 409.257,50.218 410.185 L 51.236 411.000 50.239 412.966 C 49.536 414.352,49.349 415.132,49.606 415.610 C 49.850 416.067,49.782 416.537,49.397 417.045 C 49.083 417.460,48.820 418.374,48.813 419.076 C 48.806 419.778,48.620 420.464,48.400 420.600 C 47.572 421.112,48.032 422.026,49.238 422.268 C 50.391 422.498,50.456 422.602,50.184 423.758 C 50.022 424.441,49.894 425.383,49.900 425.851 C 49.907 426.489,49.721 426.652,49.155 426.504 C 48.740 426.395,48.400 426.508,48.400 426.753 C 48.400 426.999,48.567 427.200,48.771 427.200 C 48.982 427.200,49.044 428.151,48.915 429.400 C 48.729 431.203,48.798 431.600,49.297 431.600 C 50.009 431.600,50.512 433.083,49.924 433.447 C 49.704 433.583,49.091 433.463,48.562 433.180 C 47.370 432.542,46.878 432.935,47.762 433.819 C 49.036 435.093,49.659 436.742,49.195 437.610 C 48.858 438.240,48.898 438.463,49.383 438.649 C 50.669 439.142,50.127 440.680,48.739 440.476 C 47.138 440.241,47.322 442.351,49.019 443.686 C 50.000 444.458,50.013 444.523,49.342 445.264 C 48.941 445.707,48.659 446.616,48.681 447.393 C 48.705 448.255,48.442 449.000,47.960 449.436 C 46.808 450.479,47.033 450.920,48.569 450.632 C 50.107 450.344,50.848 450.974,49.856 451.727 C 49.188 452.234,49.358 455.600,50.053 455.600 C 50.929 455.600,50.378 458.027,49.400 458.473 C 48.172 459.032,48.125 459.720,49.264 460.476 C 50.042 460.993,50.119 461.363,50.040 464.225 C 49.925 468.431,49.718 469.119,48.353 469.824 C 47.016 470.516,46.753 472.000,47.967 472.000 C 49.159 472.000,50.000 472.431,50.000 473.043 C 50.000 473.349,49.685 473.603,49.300 473.606 C 47.796 473.619,47.323 474.351,48.292 475.166 C 49.405 476.101,48.619 477.011,46.971 476.697 C 46.302 476.569,45.860 476.699,45.719 477.067 C 45.384 477.940,45.796 478.094,47.336 477.669 C 49.197 477.155,50.437 478.191,49.310 479.318 C 48.679 479.950,48.692 480.106,49.518 481.807 C 50.003 482.805,50.400 483.979,50.400 484.416 C 50.400 484.853,50.610 485.548,50.868 485.960 C 51.563 487.073,50.629 489.042,49.162 489.553 C 47.847 490.012,47.756 490.267,48.580 491.177 C 49.269 491.939,49.848 496.838,49.372 497.874 C 49.062 498.548,48.830 501.258,48.882 503.600 C 48.937 506.058,48.500 511.114,48.190 511.616 C 48.051 511.841,48.296 512.636,48.736 513.381 C 49.523 514.715,49.523 514.745,48.767 515.430 C 47.772 516.330,47.792 517.363,48.817 518.051 C 49.545 518.540,49.583 518.745,49.168 519.930 C 48.822 520.915,48.817 521.377,49.150 521.710 C 49.919 522.479,49.686 525.383,48.761 526.558 C 48.179 527.299,48.044 527.774,48.320 528.112 C 49.302 529.319,49.591 531.692,48.898 532.865 C 48.250 533.962,48.258 534.025,49.110 534.622 C 49.949 535.210,49.964 535.312,49.402 536.657 C 48.628 538.510,49.172 539.723,50.616 539.360 C 51.935 539.029,52.051 541.718,50.787 543.325 C 49.799 544.582,50.352 545.044,53.334 545.453 C 54.795 545.653,55.067 545.822,54.908 546.429 C 54.764 546.982,54.998 547.224,55.858 547.406 C 56.486 547.539,57.313 547.817,57.695 548.024 C 58.077 548.231,58.743 548.400,59.176 548.400 C 60.391 548.400,61.960 549.244,62.210 550.033 C 62.390 550.598,62.722 550.697,63.827 550.518 C 64.768 550.365,65.442 550.489,65.909 550.899 C 66.289 551.232,66.996 551.626,67.480 551.773 C 67.963 551.920,68.470 552.392,68.606 552.820 C 68.871 553.654,69.600 553.837,70.220 553.225 C 71.351 552.107,74.753 552.268,75.009 553.451 C 75.577 556.077,75.710 556.180,76.947 554.944 C 77.916 553.974,80.688 552.874,82.304 552.818 C 82.581 552.808,83.116 553.160,83.493 553.600 C 84.313 554.558,85.009 554.599,86.577 553.781 C 87.546 553.276,87.963 553.253,88.930 553.654 C 90.028 554.108,90.175 554.056,91.153 552.867 C 91.860 552.007,92.550 551.594,93.276 551.596 C 93.868 551.598,94.466 551.417,94.604 551.193 C 94.948 550.636,95.578 551.091,96.000 552.200 C 96.405 553.266,98.853 552.763,99.841 551.411 C 100.171 550.960,100.620 550.816,101.160 550.987 C 101.637 551.139,102.738 550.911,103.801 550.441 L 105.623 549.635 107.629 550.817 C 109.980 552.203,110.656 552.284,110.994 551.219 C 111.442 549.806,113.240 549.225,114.998 549.926 C 116.302 550.447,116.577 550.452,116.957 549.966 C 117.418 549.377,117.940 549.264,121.600 548.958 C 124.987 548.674,125.600 548.469,125.600 547.616 C 125.600 546.483,126.196 546.311,127.009 547.209 C 127.857 548.147,129.022 548.242,129.345 547.400 C 129.479 547.049,130.079 546.800,130.787 546.800 C 131.454 546.800,132.000 546.596,132.000 546.346 C 132.000 544.722,134.365 543.743,135.717 544.806 C 136.708 545.586,136.750 545.588,136.980 544.863 C 137.314 543.809,139.918 542.739,141.868 542.854 C 142.880 542.914,143.905 542.692,144.541 542.276 C 146.166 541.210,147.538 541.388,147.827 542.700 C 148.212 544.446,148.335 544.666,148.368 543.674 C 148.415 542.312,149.127 541.200,149.952 541.200 C 150.350 541.200,150.997 540.846,151.388 540.413 C 151.908 539.839,152.287 539.725,152.789 539.994 C 153.775 540.522,155.312 539.384,154.989 538.366 C 154.807 537.792,154.940 537.600,155.519 537.600 C 155.944 537.600,156.768 537.226,157.350 536.768 L 158.408 535.936 159.635 536.968 C 160.926 538.054,161.788 538.267,162.200 537.600 C 162.336 537.380,162.757 537.200,163.136 537.200 C 163.525 537.200,164.011 536.706,164.253 536.066 C 164.901 534.349,167.336 532.630,168.350 533.173 C 169.278 533.670,169.400 533.526,169.766 531.500 C 170.062 529.857,170.603 529.550,171.000 530.800 C 171.382 532.002,171.880 531.765,172.165 530.244 C 172.354 529.237,172.725 528.762,173.610 528.396 C 174.458 528.044,174.800 527.630,174.800 526.951 C 174.800 525.639,175.788 525.731,177.461 527.200 C 179.069 528.612,179.458 528.678,179.800 527.600 C 179.983 527.022,180.408 526.799,181.327 526.795 C 182.340 526.791,182.785 526.504,183.510 525.386 C 184.229 524.276,184.564 524.058,185.110 524.344 C 186.002 524.811,187.155 524.352,188.370 523.044 C 188.903 522.470,189.739 522.000,190.226 522.000 C 190.838 522.000,191.191 521.691,191.363 521.005 C 191.690 519.703,193.459 518.499,194.101 519.141 C 194.838 519.878,196.318 519.688,196.594 518.820 C 196.730 518.392,197.176 517.935,197.585 517.805 C 199.296 517.262,199.766 515.631,198.381 515.049 C 197.150 514.531,197.180 514.517,200.064 514.258 C 202.358 514.052,203.120 513.820,203.549 513.197 C 203.851 512.759,204.346 512.400,204.649 512.400 C 204.959 512.400,205.200 511.993,205.200 511.470 C 205.200 509.373,208.380 508.055,210.437 509.300 C 211.168 509.742,211.388 509.653,212.345 508.519 C 213.105 507.619,213.908 507.160,215.041 506.979 C 216.322 506.774,216.649 506.554,216.628 505.913 C 216.585 504.658,217.786 504.083,218.708 504.917 C 219.123 505.293,219.762 505.600,220.128 505.600 C 220.494 505.600,221.018 505.960,221.293 506.400 C 221.978 507.498,222.800 507.405,222.800 506.231 C 222.800 505.306,225.613 502.400,226.509 502.400 C 226.710 502.400,227.331 502.040,227.891 501.600 C 228.450 501.160,229.396 500.800,229.992 500.800 C 230.588 500.800,231.378 500.466,231.748 500.057 C 232.416 499.319,234.169 499.303,234.619 500.031 C 234.847 500.400,237.200 498.104,237.200 497.512 C 237.200 497.309,237.605 497.187,238.100 497.242 C 240.464 497.503,242.591 496.718,244.293 494.954 C 245.225 493.989,246.232 493.200,246.532 493.200 C 246.832 493.200,247.510 492.823,248.039 492.363 C 248.758 491.736,249.362 491.574,250.441 491.717 C 251.921 491.913,253.200 490.694,253.200 489.087 C 253.200 487.824,254.430 487.350,255.210 488.313 C 256.259 489.609,257.083 489.404,257.938 487.633 C 258.584 486.296,258.614 485.985,258.139 485.511 C 257.282 484.654,259.186 482.950,260.321 483.558 C 260.981 483.911,261.227 483.819,261.747 483.025 C 262.211 482.317,262.931 481.974,264.488 481.719 L 266.600 481.374 266.529 479.739 C 266.471 478.387,266.624 478.015,267.411 477.594 C 268.551 476.984,268.773 476.185,268.221 474.682 C 267.678 473.201,268.416 472.728,270.800 473.029 C 271.912 473.170,272.405 473.120,272.089 472.898 C 270.845 472.024,271.727 467.548,273.213 467.196 C 274.067 466.994,274.206 466.727,274.243 465.218 C 274.278 463.773,274.502 463.295,275.546 462.436 C 276.240 461.866,276.806 461.197,276.804 460.949 C 276.798 460.191,277.894 459.535,279.282 459.466 C 280.320 459.414,280.627 459.209,280.728 458.500 C 280.841 457.703,281.086 457.600,282.871 457.600 C 284.451 457.600,284.838 457.477,284.667 457.030 C 284.191 455.789,285.181 453.600,286.219 453.600 C 286.758 453.600,287.200 453.780,287.200 454.000 C 287.200 454.709,288.192 454.425,288.731 453.562 C 289.239 452.748,289.276 452.745,290.063 453.457 C 291.218 454.502,292.414 453.120,291.361 451.957 C 290.328 450.815,293.507 447.673,295.237 448.125 C 297.164 448.630,298.437 445.898,296.600 445.200 C 295.341 444.721,295.321 444.086,296.550 443.619 C 297.201 443.372,297.581 442.826,297.757 441.890 C 297.934 440.945,298.336 440.375,299.056 440.047 C 300.039 439.599,300.061 439.530,299.432 438.835 C 298.311 437.597,301.032 437.044,302.559 438.200 C 303.616 439.000,304.208 438.496,303.184 437.668 C 301.810 436.555,302.521 435.546,304.462 435.856 C 306.347 436.158,307.617 435.150,307.353 433.563 C 307.113 432.118,308.688 430.359,309.378 431.302 C 309.979 432.124,310.400 431.809,310.400 430.540 C 310.400 430.030,310.916 429.035,311.547 428.329 L 312.694 427.046 313.316 428.223 C 313.873 429.276,313.969 429.321,314.232 428.647 C 314.394 428.232,314.318 427.561,314.063 427.152 C 313.166 425.716,314.413 422.304,316.021 421.793 C 316.798 421.547,316.808 421.494,316.163 421.022 C 314.991 420.166,315.746 419.200,317.587 419.200 C 319.291 419.200,319.870 418.030,318.729 416.889 C 318.369 416.529,318.428 416.232,318.985 415.617 C 319.529 415.015,319.600 414.682,319.269 414.283 C 318.932 413.877,319.178 413.314,320.314 411.894 C 321.131 410.872,322.302 409.228,322.916 408.241 C 323.872 406.704,324.246 406.429,325.516 406.323 C 326.840 406.213,327.013 406.070,327.116 405.000 C 327.301 403.095,327.975 401.749,329.027 401.186 C 329.900 400.718,329.939 400.596,329.406 400.007 C 328.947 399.500,328.920 399.240,329.285 398.875 C 329.546 398.614,329.949 397.815,330.180 397.100 C 330.479 396.175,330.857 395.787,331.490 395.755 C 333.403 395.659,335.957 392.915,334.800 392.200 C 333.575 391.443,334.390 389.600,335.951 389.600 C 337.946 389.600,338.551 388.877,338.216 386.895 C 337.902 385.037,339.088 383.200,340.602 383.200 C 341.667 383.200,342.209 382.088,341.789 380.766 C 341.613 380.211,341.789 379.642,342.314 379.066 C 342.747 378.590,343.327 377.210,343.601 376.000 C 344.458 372.217,344.756 371.709,346.638 370.824 C 347.607 370.369,348.400 369.740,348.400 369.426 C 348.400 369.113,349.030 368.189,349.800 367.373 C 350.585 366.540,351.200 365.474,351.200 364.944 C 351.200 364.287,351.428 364.000,351.951 364.000 C 352.982 364.000,353.650 363.125,353.183 362.387 C 352.097 360.669,353.372 358.400,355.422 358.400 C 356.668 358.400,356.802 358.068,356.071 356.794 C 355.443 355.700,355.453 355.608,356.307 354.699 C 356.798 354.176,357.200 353.606,357.200 353.432 C 357.200 353.258,357.735 352.439,358.389 351.614 C 359.997 349.583,359.081 348.878,356.546 350.195 C 355.835 350.564,355.348 350.635,355.262 350.382 C 355.035 349.709,355.939 348.912,357.218 348.656 C 358.738 348.352,359.119 347.382,358.287 345.933 C 357.930 345.310,357.809 344.800,358.019 344.800 C 358.794 344.800,360.000 343.166,360.013 342.100 C 360.020 341.495,360.290 340.651,360.613 340.224 C 360.936 339.796,361.200 339.105,361.200 338.686 C 361.200 338.262,361.554 337.833,362.000 337.716 C 362.965 337.464,362.964 337.477,362.147 335.898 C 361.767 335.163,361.660 334.580,361.890 334.503 C 363.559 333.947,363.763 333.327,362.645 332.209 C 361.564 331.128,361.485 330.000,362.490 330.000 C 363.433 330.000,365.039 323.963,364.568 322.188 C 364.339 321.323,365.642 317.868,366.367 317.420 C 366.605 317.273,366.800 316.649,366.800 316.034 C 366.800 315.314,367.514 313.959,368.800 312.239 C 370.048 310.570,370.800 309.156,370.800 308.482 C 370.800 307.081,372.457 302.292,373.081 301.891 C 373.629 301.538,373.463 295.457,372.847 293.345 C 372.568 292.388,372.625 291.946,373.087 291.484 C 373.663 290.909,374.114 287.600,373.617 287.600 C 373.426 287.600,372.618 286.210,371.699 284.302 C 371.620 284.138,372.018 283.793,372.583 283.535 C 373.747 283.005,373.659 281.933,372.350 280.684 C 371.440 279.816,371.409 279.129,372.211 277.578 C 372.797 276.445,373.097 273.078,372.760 271.400 C 372.643 270.814,372.841 270.566,373.500 270.472 C 374.791 270.289,374.609 269.622,373.192 269.338 C 371.567 269.013,371.412 268.615,372.603 267.835 C 373.736 267.092,373.875 266.218,373.000 265.343 C 372.670 265.013,372.392 264.261,372.382 263.671 C 372.373 263.082,372.091 261.880,371.756 261.000 C 370.653 258.101,370.645 258.000,371.504 258.000 C 372.954 258.000,373.306 257.042,372.317 255.786 C 371.775 255.097,371.405 254.026,371.365 253.029 C 371.279 250.912,370.672 248.504,369.845 247.000 C 369.398 246.188,369.262 245.324,369.423 244.330 C 369.553 243.521,369.470 242.505,369.239 242.072 C 368.916 241.469,368.961 241.164,369.432 240.774 C 369.770 240.493,370.281 239.702,370.568 239.016 C 370.854 238.330,371.381 237.476,371.738 237.119 C 372.329 236.528,372.332 236.335,371.774 235.000 C 371.276 233.809,371.256 233.415,371.665 232.922 C 372.079 232.423,372.046 232.223,371.485 231.813 C 370.712 231.247,370.609 230.304,371.201 229.198 C 371.469 228.697,371.469 228.366,371.201 228.201 C 370.506 227.771,370.766 226.800,371.576 226.800 C 372.003 226.800,372.438 226.661,372.543 226.492 C 372.904 225.908,371.233 219.886,370.476 219.044 C 369.304 217.737,369.176 216.946,370.014 216.187 C 370.599 215.658,370.681 215.326,370.371 214.745 C 370.149 214.330,369.996 213.768,370.031 213.495 C 370.186 212.292,369.971 211.992,369.100 212.196 C 367.457 212.583,367.052 211.896,367.987 210.311 L 368.821 208.899 367.910 208.590 C 365.437 207.751,365.318 207.684,366.236 207.640 C 366.715 207.617,367.266 207.173,367.527 206.600 C 367.778 206.050,368.187 205.600,368.437 205.600 C 368.942 205.600,367.869 203.693,366.949 202.953 C 366.475 202.573,366.481 202.335,366.991 201.353 C 367.580 200.217,367.570 200.194,366.294 199.757 C 365.091 199.345,365.008 199.202,365.121 197.713 C 365.215 196.468,365.014 195.841,364.221 194.898 C 363.014 193.464,362.965 193.202,363.900 193.194 C 365.698 193.178,365.823 192.478,364.271 191.121 C 362.753 189.793,362.690 189.606,362.454 185.696 C 362.425 185.199,362.040 184.484,361.600 184.107 C 361.134 183.708,360.800 182.927,360.800 182.237 C 360.800 181.041,359.441 177.796,358.765 177.379 C 358.564 177.254,358.400 176.643,358.400 176.019 C 358.400 175.381,358.138 174.785,357.800 174.655 C 357.421 174.510,357.200 173.896,357.200 172.986 C 357.200 171.325,356.602 170.000,355.852 170.000 C 355.230 170.000,352.400 166.003,352.400 165.125 C 352.400 164.785,352.012 164.015,351.538 163.412 C 350.706 162.355,350.701 162.276,351.368 161.147 C 352.245 159.662,351.901 157.886,350.544 156.898 C 349.856 156.396,349.478 155.656,349.324 154.506 C 349.131 153.069,348.942 152.807,347.940 152.587 C 346.383 152.245,343.788 148.441,344.645 147.756 C 344.950 147.512,345.200 146.927,345.200 146.456 C 345.200 145.251,343.700 145.287,343.528 146.496 C 343.378 147.544,342.000 148.004,342.000 147.007 C 342.000 146.648,341.475 145.870,340.834 145.277 C 339.072 143.649,339.006 142.023,340.700 141.957 L 341.800 141.915 340.700 141.480 C 340.095 141.241,339.600 140.895,339.600 140.711 C 339.600 140.526,338.965 139.818,338.189 139.137 C 337.237 138.301,336.851 137.670,337.001 137.196 C 337.176 136.644,336.923 136.437,335.817 136.230 C 335.029 136.082,334.225 135.621,333.991 135.183 C 333.760 134.752,333.258 134.400,332.875 134.400 C 332.115 134.400,329.600 132.288,329.600 131.650 C 329.600 131.432,329.230 131.136,328.777 130.993 C 328.324 130.849,327.784 130.285,327.577 129.739 C 327.305 129.025,326.995 128.811,326.470 128.978 C 325.296 129.350,323.200 128.092,323.200 127.014 C 323.200 126.358,322.907 126.013,322.200 125.836 C 321.463 125.651,321.200 125.319,321.200 124.572 C 321.200 123.796,320.878 123.425,319.822 122.983 C 319.064 122.667,318.285 122.123,318.090 121.774 C 317.895 121.426,317.300 120.922,316.768 120.654 C 316.112 120.323,315.839 119.889,315.922 119.305 C 316.010 118.678,315.698 118.264,314.781 117.790 C 313.673 117.217,313.539 116.971,313.679 115.770 C 313.839 114.404,312.472 113.184,312.084 114.347 C 312.001 114.596,311.633 114.794,311.267 114.787 C 310.675 114.776,310.682 114.713,311.332 114.220 C 312.760 113.138,312.049 111.795,310.123 111.935 C 308.547 112.051,308.385 111.961,307.418 110.429 C 306.595 109.124,306.155 108.800,305.211 108.800 C 304.110 108.800,302.400 107.529,302.400 106.711 C 302.400 106.524,302.053 106.558,301.629 106.784 C 300.540 107.367,299.600 106.885,299.600 105.745 C 299.600 105.188,299.302 104.663,298.900 104.512 C 298.001 104.175,297.229 103.182,297.213 102.343 C 297.198 101.572,296.397 101.200,294.754 101.200 C 291.973 101.200,288.741 99.006,288.082 96.670 C 287.791 95.642,287.429 94.800,287.277 94.799 C 287.125 94.799,286.387 94.274,285.638 93.634 C 284.415 92.589,284.068 92.492,282.224 92.682 C 280.306 92.880,280.140 92.826,279.694 91.847 C 279.432 91.271,279.013 90.800,278.763 90.800 C 278.486 90.800,278.378 90.332,278.485 89.600 C 278.617 88.701,278.503 88.399,278.031 88.394 C 277.684 88.391,276.950 88.129,276.400 87.811 C 275.850 87.494,274.998 87.052,274.507 86.830 C 273.755 86.489,273.656 86.219,273.875 85.113 C 274.092 84.015,274.042 83.874,273.567 84.251 C 272.764 84.889,268.400 85.377,268.400 84.829 C 268.400 84.593,268.940 84.400,269.600 84.400 C 270.897 84.400,271.133 83.808,270.293 82.660 C 269.760 81.931,268.000 82.992,268.000 84.043 C 268.000 84.741,266.301 83.985,264.424 82.451 C 263.447 81.653,262.384 80.802,262.062 80.560 C 261.739 80.318,261.428 79.688,261.371 79.160 C 261.314 78.632,261.252 78.085,261.233 77.945 C 261.215 77.804,260.570 77.571,259.800 77.426 C 258.718 77.223,258.393 76.964,258.368 76.282 C 258.351 75.797,258.246 75.625,258.135 75.900 C 257.606 77.211,256.000 75.822,256.000 74.053 C 256.000 73.614,255.672 73.150,255.272 73.023 C 254.872 72.896,254.255 72.186,253.902 71.446 C 253.222 70.020,251.410 69.787,250.920 71.063 C 250.659 71.745,249.600 71.020,249.600 70.159 C 249.600 69.861,248.878 69.248,247.996 68.798 C 247.114 68.348,245.899 67.542,245.296 67.006 C 242.698 64.699,241.574 63.954,240.872 64.073 C 240.460 64.143,239.827 63.955,239.466 63.655 C 238.905 63.190,238.773 63.204,238.562 63.755 C 238.131 64.878,237.247 64.457,236.974 63.000 C 236.700 61.540,236.295 61.356,234.693 61.965 C 234.165 62.165,233.517 62.196,233.253 62.033 C 232.726 61.707,233.057 60.400,233.666 60.400 C 233.876 60.400,233.928 60.208,233.783 59.973 C 233.638 59.738,232.950 59.595,232.254 59.655 C 230.700 59.789,230.152 59.469,229.169 57.856 C 228.708 57.100,228.402 56.859,228.401 57.251 C 228.401 57.609,228.164 58.098,227.876 58.337 C 227.106 58.976,224.400 58.076,224.400 57.182 C 224.400 56.251,223.525 55.595,222.579 55.815 C 221.415 56.087,219.904 54.585,219.628 52.883 C 219.424 51.621,219.210 51.370,218.194 51.200 C 216.678 50.946,214.800 49.686,214.800 48.922 C 214.800 48.477,214.489 48.396,213.500 48.587 C 212.258 48.827,212.236 48.809,212.998 48.203 C 213.800 47.566,213.374 46.824,212.196 46.806 C 211.974 46.803,211.560 46.428,211.277 45.974 C 210.976 45.493,210.392 45.177,209.880 45.218 C 208.294 45.345,208.028 45.214,207.400 44.000 C 206.717 42.680,205.253 42.373,204.420 43.375 C 204.015 43.864,203.670 43.743,202.141 42.575 C 200.806 41.556,199.938 41.200,198.793 41.200 C 197.943 41.200,197.149 41.040,197.028 40.845 C 196.907 40.650,196.206 40.378,195.468 40.239 C 194.731 40.101,193.721 39.555,193.224 39.026 C 192.499 38.254,192.051 38.107,190.960 38.284 C 189.378 38.541,189.309 38.361,190.417 36.862 C 191.844 34.933,189.344 33.082,187.503 34.705 C 186.911 35.226,186.402 35.252,184.136 34.877 C 182.669 34.634,181.306 34.534,181.109 34.657 C 180.911 34.779,180.446 34.613,180.075 34.288 C 179.418 33.713,178.637 33.505,174.692 32.856 C 173.384 32.640,172.378 32.152,171.492 31.303 C 170.364 30.222,170.132 30.140,169.660 30.658 C 169.184 31.182,169.034 31.174,168.393 30.594 C 167.828 30.082,167.487 30.032,166.860 30.368 C 165.574 31.056,165.032 30.883,164.466 29.603 C 163.996 28.543,163.868 28.475,163.339 29.003 C 162.566 29.777,160.418 29.768,159.304 28.988 C 158.591 28.488,158.282 28.467,157.637 28.870 C 156.988 29.275,156.715 29.251,156.122 28.734 C 154.615 27.417,153.585 27.092,152.867 27.707 C 151.876 28.556,150.890 28.812,150.683 28.275 C 150.583 28.014,149.681 27.559,148.680 27.265 C 147.679 26.970,146.549 26.385,146.168 25.965 C 145.787 25.544,145.150 25.200,144.752 25.200 C 144.354 25.200,143.816 24.804,143.557 24.320 C 143.089 23.446,143.076 23.450,141.843 24.865 C 140.335 26.594,139.512 26.923,138.539 26.185 C 137.615 25.486,135.727 25.433,135.485 26.100 C 135.220 26.828,133.928 25.987,133.278 24.663 C 132.512 23.102,129.200 23.738,129.200 25.446 C 129.200 26.111,128.557 26.178,128.172 25.554 C 128.007 25.287,127.272 25.192,126.339 25.317 C 124.931 25.506,124.725 25.415,124.181 24.363 C 123.540 23.123,122.858 22.902,122.080 23.680 M187.750 80.390 C 187.997 81.154,188.586 81.971,189.057 82.205 C 189.529 82.440,190.204 82.871,190.557 83.165 C 191.076 83.595,191.317 83.601,191.808 83.194 C 192.303 82.783,192.549 82.811,193.139 83.345 C 193.537 83.705,194.232 84.000,194.683 84.000 C 195.858 84.000,196.539 85.006,196.271 86.346 C 196.028 87.562,197.067 88.400,198.819 88.400 C 199.248 88.400,199.600 88.574,199.600 88.786 C 199.600 89.736,201.162 89.975,204.338 89.512 C 207.536 89.047,207.570 89.051,208.487 90.040 C 208.995 90.588,210.308 91.453,211.405 91.961 C 217.123 94.609,218.373 95.368,218.830 96.472 C 219.334 97.690,219.966 97.860,221.309 97.142 C 222.064 96.737,222.333 96.871,223.583 98.276 C 225.230 100.128,226.344 100.800,227.766 100.800 C 228.956 100.800,229.607 102.456,228.877 103.625 C 228.275 104.589,229.462 105.049,230.389 104.210 C 231.330 103.358,232.540 103.450,233.437 104.441 C 234.523 105.641,236.525 106.625,236.716 106.053 C 237.093 104.922,238.059 105.631,237.945 106.955 C 237.807 108.553,238.606 109.748,239.483 109.258 C 240.702 108.575,242.000 109.205,242.000 110.478 C 242.000 111.587,242.078 111.647,243.198 111.400 C 244.246 111.170,244.448 111.275,244.813 112.234 C 245.130 113.067,245.341 113.219,245.695 112.865 C 246.977 111.583,248.806 112.721,247.838 114.198 C 247.019 115.449,247.248 116.400,248.369 116.400 C 248.805 116.400,249.621 116.609,250.181 116.864 C 250.946 117.213,251.449 117.215,252.200 116.873 C 253.007 116.505,253.200 116.525,253.200 116.975 C 253.200 117.282,252.992 117.603,252.737 117.688 C 251.734 118.022,252.750 120.103,253.816 119.899 C 255.014 119.670,255.968 120.592,255.263 121.297 C 254.254 122.306,254.731 122.882,256.350 122.608 C 257.711 122.378,258.002 122.476,258.737 123.411 C 259.198 123.996,259.805 124.393,260.087 124.292 C 260.810 124.033,262.000 124.719,262.000 125.395 C 262.000 125.707,262.810 126.321,263.800 126.759 C 264.790 127.197,265.600 127.733,265.600 127.951 C 265.600 128.169,266.095 128.404,266.700 128.473 C 267.561 128.573,267.827 128.837,267.926 129.691 C 268.001 130.345,268.539 131.145,269.272 131.691 C 269.943 132.191,271.069 133.185,271.774 133.900 C 272.480 134.615,273.247 135.200,273.479 135.200 C 274.842 135.200,276.794 140.604,275.549 140.929 C 274.750 141.138,274.129 142.262,274.569 142.702 C 274.716 142.849,275.202 142.741,275.650 142.462 C 276.616 141.859,277.319 142.296,278.237 144.071 C 278.564 144.704,279.152 145.200,279.575 145.200 C 280.647 145.200,282.400 147.439,282.400 148.808 C 282.400 150.043,283.620 151.200,284.921 151.200 C 285.534 151.200,285.619 151.404,285.406 152.372 C 285.209 153.268,285.320 153.636,285.876 153.933 C 286.275 154.147,286.847 155.150,287.145 156.161 C 287.621 157.772,287.825 158.000,288.795 158.000 C 290.240 158.000,290.981 158.943,290.867 160.637 C 290.782 161.891,290.866 162.000,291.918 162.000 C 292.591 162.000,293.413 162.376,293.919 162.913 L 294.777 163.827 293.988 165.123 C 292.969 166.799,292.969 166.800,294.522 166.800 C 295.305 166.800,296.398 167.208,297.200 167.800 C 297.945 168.350,298.794 168.800,299.086 168.800 C 299.378 168.800,299.835 169.295,300.101 169.900 C 300.368 170.505,301.126 171.485,301.786 172.077 C 303.056 173.216,303.098 173.127,300.970 173.799 C 300.128 174.065,300.415 175.354,301.357 175.535 C 301.769 175.614,302.519 175.457,303.026 175.186 C 304.969 174.146,306.039 175.832,304.200 177.037 C 302.924 177.873,302.932 178.809,304.225 180.023 C 305.897 181.594,306.824 183.400,306.707 184.858 C 306.617 185.984,306.745 186.220,307.500 186.328 C 307.995 186.398,308.400 186.263,308.400 186.028 C 308.400 185.793,308.580 185.600,308.800 185.600 C 309.020 185.600,309.200 186.298,309.200 187.151 C 309.200 188.004,309.470 189.349,309.800 190.138 C 310.130 190.928,310.400 192.450,310.400 193.520 C 310.400 194.591,310.521 195.587,310.668 195.735 C 310.816 195.882,310.966 196.947,311.003 198.101 C 311.060 199.878,311.188 200.200,311.835 200.200 C 312.491 200.200,312.584 199.944,312.490 198.400 L 312.380 196.600 313.253 197.741 C 314.271 199.071,314.724 202.553,313.941 203.036 C 313.666 203.206,313.378 203.133,313.290 202.871 C 313.204 202.612,312.766 202.400,312.318 202.400 C 311.610 202.400,311.574 202.486,312.042 203.050 C 312.338 203.408,312.527 204.213,312.461 204.841 C 312.395 205.468,312.625 206.386,312.971 206.880 C 313.317 207.374,313.600 208.207,313.600 208.732 C 313.600 209.486,313.747 209.624,314.300 209.391 C 316.970 208.269,318.385 209.542,316.820 211.659 L 315.960 212.822 317.180 214.042 C 318.621 215.483,318.643 215.614,317.600 216.507 C 316.627 217.340,316.583 218.126,317.460 219.003 C 318.021 219.564,318.055 219.945,317.688 221.532 C 317.177 223.742,317.485 224.218,318.983 223.535 C 320.620 222.789,321.234 223.822,321.005 226.932 C 320.834 229.257,320.419 229.981,319.253 229.994 C 318.859 229.998,318.782 230.307,318.975 231.100 C 319.388 232.796,319.299 233.628,318.621 234.376 C 317.873 235.203,317.830 236.138,318.491 237.197 C 318.858 237.785,318.872 238.274,318.546 239.139 C 318.255 239.908,318.240 240.529,318.501 240.995 C 318.717 241.380,318.950 242.867,319.021 244.299 C 319.129 246.499,319.319 247.080,320.251 248.053 L 321.353 249.204 320.076 250.521 C 319.053 251.577,318.899 251.939,319.300 252.341 C 319.700 252.743,319.601 252.998,318.800 253.622 L 317.800 254.400 318.765 255.151 C 319.719 255.893,320.031 258.769,319.383 260.845 C 319.272 261.199,319.516 262.279,319.926 263.245 C 320.460 264.504,320.579 265.336,320.346 266.190 C 320.104 267.076,320.171 267.464,320.611 267.710 C 321.316 268.105,321.367 269.196,320.743 270.565 C 320.375 271.373,320.414 271.761,320.943 272.570 C 321.767 273.827,321.791 273.677,320.558 275.008 L 319.515 276.133 320.395 276.796 C 321.507 277.635,321.348 279.247,320.100 279.795 C 319.053 280.254,318.957 280.621,319.800 280.945 C 320.192 281.095,320.400 281.718,320.400 282.739 C 320.400 283.914,320.623 284.453,321.300 284.908 L 322.200 285.513 321.000 286.032 C 318.297 287.201,317.030 289.029,318.231 290.026 C 318.798 290.496,318.772 290.618,317.978 291.216 C 317.306 291.723,317.187 292.047,317.479 292.569 C 317.729 293.016,317.713 293.735,317.434 294.628 C 317.033 295.908,316.400 296.503,316.400 295.600 C 316.400 295.077,315.320 295.082,314.995 295.607 C 314.857 295.831,315.112 296.610,315.561 297.338 C 316.432 298.746,316.138 299.600,314.782 299.600 C 313.935 299.600,312.642 301.020,312.984 301.575 C 313.129 301.809,313.732 302.005,314.324 302.012 C 315.200 302.022,315.278 302.095,314.746 302.406 C 314.386 302.617,313.846 303.625,313.546 304.647 C 313.191 305.854,312.684 306.650,312.100 306.917 C 310.750 307.534,310.868 308.907,312.226 308.390 C 312.790 308.176,313.510 308.000,313.826 308.000 C 314.639 308.000,314.540 309.172,313.700 309.490 C 313.315 309.636,312.762 309.990,312.471 310.278 C 311.800 310.941,310.519 310.954,310.298 310.300 C 310.206 310.025,309.998 310.497,309.838 311.348 C 309.570 312.766,309.655 312.987,310.840 313.977 C 312.334 315.224,312.136 316.087,310.434 315.747 C 309.012 315.462,307.602 317.572,308.639 318.432 C 309.508 319.153,309.303 320.370,308.231 320.859 C 307.698 321.102,307.146 321.762,307.004 322.325 C 306.863 322.889,306.444 323.574,306.073 323.847 C 305.452 324.304,305.462 324.366,306.200 324.642 C 308.088 325.349,308.126 327.627,306.286 329.828 C 303.677 332.948,302.084 336.631,302.766 337.964 C 303.173 338.758,302.922 339.553,301.915 340.662 C 301.423 341.204,301.182 341.943,301.266 342.654 C 301.369 343.527,301.217 343.820,300.600 343.936 C 299.388 344.164,298.756 344.832,299.007 345.622 C 299.149 346.070,298.927 346.546,298.405 346.911 C 297.448 347.582,297.815 349.290,299.014 349.750 C 300.046 350.146,298.926 351.318,297.789 351.033 C 296.599 350.734,296.314 351.142,297.014 352.142 C 298.047 353.615,297.642 356.591,296.363 356.925 C 295.944 357.035,295.500 356.962,295.377 356.762 C 294.596 355.498,293.280 357.456,294.003 358.806 C 294.281 359.324,294.135 359.607,293.383 360.009 C 292.842 360.298,292.400 360.693,292.400 360.887 C 292.400 361.080,291.942 361.662,291.383 362.181 C 290.172 363.303,290.352 364.957,291.734 365.406 C 292.696 365.718,292.582 365.772,289.265 366.586 C 288.465 366.783,287.807 367.251,287.621 367.757 C 286.752 370.118,286.501 371.215,286.788 371.392 C 287.496 371.830,287.471 373.626,286.745 374.463 C 286.335 374.936,285.999 375.430,285.997 375.561 C 285.996 375.693,285.484 376.091,284.859 376.446 C 283.911 376.985,283.753 377.296,283.903 378.322 C 284.041 379.259,283.840 379.797,283.060 380.576 C 281.791 381.846,279.600 382.017,279.600 380.847 C 279.600 380.071,278.590 379.615,276.847 379.605 C 275.966 379.600,275.911 379.720,276.109 381.200 C 276.227 382.080,276.159 382.800,275.958 382.800 C 275.757 382.800,275.033 383.335,274.349 383.988 C 273.053 385.227,273.069 385.104,273.682 389.000 C 273.717 389.220,272.497 389.883,270.972 390.473 C 268.790 391.317,268.229 391.700,268.338 392.273 C 268.538 393.328,268.682 393.382,269.859 392.846 C 270.600 392.508,271.049 392.489,271.341 392.781 C 271.633 393.073,271.433 393.200,270.680 393.200 C 269.998 393.200,269.600 393.416,269.600 393.786 C 269.600 394.602,268.323 395.200,266.580 395.200 C 265.245 395.200,265.130 395.284,265.356 396.100 C 266.101 398.784,266.106 398.747,264.932 399.482 C 261.786 401.453,261.200 402.105,261.200 403.636 C 261.200 404.881,261.022 405.195,260.100 405.573 C 257.700 406.558,257.186 407.012,257.772 407.629 C 259.227 409.161,258.849 410.537,257.248 409.537 C 256.302 408.947,254.934 409.395,255.516 410.105 C 255.902 410.576,256.146 411.725,256.046 412.609 C 256.021 412.834,255.325 413.020,254.500 413.023 C 252.359 413.029,251.600 413.427,251.600 414.544 C 251.600 415.230,251.323 415.583,250.652 415.751 C 249.678 415.996,248.922 418.409,249.416 419.697 C 249.546 420.037,249.229 420.441,248.607 420.724 C 247.734 421.122,247.627 421.354,247.883 422.295 C 248.569 424.822,247.650 427.200,245.987 427.200 C 245.608 427.200,245.080 427.462,244.814 427.783 C 244.507 428.153,243.933 428.287,243.243 428.149 C 242.010 427.902,241.348 428.484,241.138 430.000 C 241.028 430.800,240.740 431.025,239.700 431.125 C 238.264 431.264,238.027 431.750,239.100 432.355 C 239.901 432.807,239.469 433.438,238.203 433.666 C 237.765 433.745,237.165 434.313,236.870 434.929 C 236.575 435.544,235.896 436.247,235.361 436.491 C 234.753 436.767,234.460 437.171,234.578 437.567 C 234.929 438.739,233.770 439.734,232.379 439.456 C 230.669 439.114,229.366 440.531,230.242 441.781 C 231.236 443.201,230.945 445.028,229.551 446.119 C 228.548 446.904,228.381 447.237,228.700 447.808 C 229.031 448.398,228.702 448.849,226.764 450.462 C 225.008 451.923,224.323 452.800,223.999 454.002 C 223.591 455.519,223.490 455.600,222.008 455.600 C 221.150 455.600,220.329 455.791,220.185 456.025 C 220.040 456.258,219.487 456.615,218.954 456.818 C 218.421 457.020,217.825 457.594,217.629 458.093 C 217.433 458.592,216.897 459.313,216.437 459.696 C 215.976 460.079,215.600 460.721,215.600 461.122 C 215.600 462.287,211.644 463.757,209.410 463.422 C 207.824 463.185,207.580 463.259,206.992 464.157 C 206.527 464.865,205.911 465.191,204.869 465.278 C 203.712 465.374,203.374 465.585,203.276 466.270 C 203.087 467.595,201.421 468.564,200.653 467.796 C 200.044 467.187,198.279 466.400,197.523 466.400 C 197.257 466.400,197.184 466.963,197.328 467.900 C 197.621 469.805,196.730 470.974,194.692 471.356 C 193.666 471.549,192.893 472.056,192.160 473.017 C 191.279 474.172,190.851 474.400,189.567 474.400 C 188.418 474.400,187.915 474.611,187.583 475.231 C 187.339 475.688,186.896 475.969,186.599 475.855 C 185.384 475.389,183.200 476.393,183.200 477.419 C 183.200 478.516,182.464 478.691,181.173 477.900 C 180.451 477.458,180.232 477.551,179.279 478.704 C 178.435 479.723,177.895 480.007,176.800 480.004 C 174.352 479.999,170.000 482.795,170.000 484.373 C 170.000 484.974,169.870 485.596,169.712 485.755 C 169.553 485.913,169.479 486.689,169.547 487.479 C 169.669 488.893,169.652 488.910,168.414 488.663 C 167.315 488.443,167.071 488.562,166.478 489.603 C 165.927 490.571,165.535 490.795,164.389 490.797 C 163.613 490.799,162.597 491.067,162.132 491.393 C 161.384 491.916,161.228 491.916,160.794 491.393 C 159.632 489.993,158.088 491.036,158.925 492.654 C 159.442 493.655,159.447 493.921,158.962 494.584 C 158.653 495.007,158.400 495.659,158.400 496.034 C 158.400 497.030,157.205 497.328,156.342 496.548 C 155.637 495.909,155.600 495.929,155.600 496.938 C 155.600 498.182,154.334 499.600,153.224 499.600 C 152.175 499.600,151.826 498.939,152.748 498.698 C 154.334 498.283,154.072 496.343,152.449 496.479 C 151.087 496.593,150.987 496.697,150.786 498.200 C 150.482 500.475,150.145 500.906,149.107 500.350 C 148.285 499.910,147.200 500.667,147.200 501.680 C 147.200 501.860,146.864 501.797,146.453 501.540 C 145.447 500.912,144.400 501.376,144.400 502.449 C 144.400 503.289,144.369 503.296,143.625 502.623 C 143.029 502.084,142.483 501.983,141.266 502.189 C 140.264 502.358,139.582 502.294,139.409 502.015 C 139.235 501.733,138.850 501.937,138.347 502.577 C 137.199 504.036,134.827 504.655,132.758 504.035 C 131.249 503.583,131.068 503.610,130.535 504.371 C 129.889 505.293,128.809 505.449,128.085 504.725 C 127.719 504.359,127.402 504.447,126.697 505.109 C 125.321 506.401,120.492 508.118,118.471 508.033 C 116.957 507.969,116.759 508.058,116.871 508.746 C 117.028 509.703,115.339 511.600,114.330 511.600 C 113.929 511.600,113.600 511.330,113.600 511.000 C 113.600 509.985,110.779 510.195,110.508 511.231 C 109.911 513.512,106.035 513.377,104.412 511.018 L 103.186 509.236 104.085 508.755 L 104.984 508.274 104.060 507.861 C 103.348 507.544,103.180 507.214,103.331 506.429 C 103.438 505.868,103.356 505.092,103.149 504.704 C 102.876 504.194,102.920 504.000,103.309 504.000 C 103.605 504.000,104.190 503.749,104.608 503.443 C 105.627 502.699,104.816 501.631,103.433 501.896 C 101.747 502.218,101.253 500.561,102.775 499.692 C 104.151 498.907,104.619 498.059,104.013 497.453 C 103.786 497.226,103.600 496.639,103.600 496.149 C 103.600 495.658,103.330 494.987,103.000 494.657 C 102.229 493.886,102.252 493.613,103.194 492.400 C 103.965 491.405,103.965 491.397,103.095 490.731 C 102.281 490.107,102.266 490.011,102.873 489.331 C 103.439 488.697,103.449 488.530,102.950 488.073 C 102.295 487.471,102.528 481.086,103.277 479.107 C 103.505 478.505,103.584 477.425,103.452 476.707 C 103.312 475.942,103.430 474.986,103.737 474.400 C 104.209 473.498,104.150 473.257,103.133 471.946 C 102.153 470.682,102.084 470.428,102.603 469.997 C 102.931 469.725,103.200 469.230,103.200 468.897 C 103.200 468.564,103.605 467.880,104.100 467.377 C 106.528 464.907,107.523 462.494,106.400 461.800 C 105.873 461.474,105.887 459.873,106.422 459.338 C 106.719 459.041,106.480 458.765,105.622 458.409 C 104.282 457.854,104.159 457.601,104.880 456.880 C 105.253 456.507,105.253 456.293,104.880 455.920 C 104.213 455.253,104.273 454.950,105.249 454.040 C 105.875 453.457,106.050 452.919,105.913 451.990 C 105.761 450.953,105.892 450.669,106.657 450.378 C 107.706 449.980,107.560 448.965,106.326 448.077 C 105.518 447.496,105.354 445.606,106.050 444.910 C 106.798 444.162,106.104 441.630,105.016 441.134 C 104.015 440.678,104.248 438.772,105.424 437.800 C 105.690 437.580,105.995 436.950,106.102 436.400 C 106.209 435.850,106.413 435.129,106.554 434.797 C 106.722 434.403,106.498 434.057,105.905 433.797 C 104.710 433.273,104.539 431.584,105.420 428.994 L 106.110 426.964 104.692 425.417 C 102.992 423.561,102.711 418.005,104.264 416.935 C 106.252 415.564,106.403 415.137,105.250 414.150 C 104.837 413.796,104.583 413.188,104.684 412.799 C 104.786 412.409,104.674 411.969,104.435 411.822 C 103.807 411.433,103.901 409.752,104.629 408.344 C 105.174 407.290,105.182 407.039,104.690 406.464 C 103.574 405.160,103.559 404.426,104.643 404.153 C 106.490 403.690,106.741 400.800,104.934 400.800 C 103.418 400.800,102.680 399.320,103.972 398.870 C 105.122 398.469,105.390 397.200,104.325 397.200 C 104.111 397.200,104.040 396.705,104.168 396.100 C 104.433 394.835,104.163 394.311,102.900 393.646 C 101.869 393.103,101.764 392.146,102.613 391.024 C 102.936 390.596,103.200 389.477,103.200 388.536 C 103.200 387.098,103.392 386.682,104.400 385.937 C 105.965 384.780,105.957 383.683,104.380 383.133 C 103.232 382.733,103.199 382.665,103.816 381.982 C 104.227 381.528,104.374 380.948,104.209 380.429 C 104.001 379.773,104.119 379.600,104.773 379.600 C 105.976 379.600,105.794 378.468,104.500 377.900 C 103.019 377.249,102.773 376.820,103.041 375.356 C 103.208 374.441,103.100 374.047,102.634 373.868 C 101.897 373.586,101.796 372.364,102.454 371.706 C 102.792 371.368,102.744 370.843,102.263 369.642 C 101.708 368.253,101.694 367.878,102.166 366.916 C 103.607 363.977,104.071 361.841,103.378 361.334 C 102.893 360.980,102.795 360.533,103.000 359.601 C 103.199 358.694,103.090 358.142,102.606 357.606 C 102.065 357.009,102.025 356.701,102.397 356.006 C 102.790 355.271,102.707 355.006,101.829 354.192 C 100.568 353.023,100.568 353.066,101.817 350.935 C 102.526 349.725,103.101 349.198,103.717 349.194 C 104.568 349.188,104.564 349.170,103.600 348.674 C 102.361 348.037,102.373 345.258,103.623 343.516 C 104.080 342.878,104.400 341.779,104.400 340.843 C 104.400 339.605,104.577 339.198,105.200 339.000 C 106.173 338.691,106.212 338.081,105.338 336.833 C 104.974 336.313,104.522 335.063,104.333 334.055 C 104.145 333.047,103.491 331.587,102.879 330.811 C 101.668 329.274,101.902 327.255,103.496 325.494 C 104.106 324.820,104.105 324.685,103.477 323.622 C 102.364 321.738,103.205 318.714,105.280 317.143 C 106.423 316.277,105.446 314.527,103.709 314.327 C 102.299 314.165,101.911 312.609,103.181 312.206 C 103.769 312.019,103.992 311.634,103.951 310.872 C 103.919 310.282,104.018 309.506,104.171 309.148 C 104.378 308.662,104.136 308.386,103.225 308.068 C 101.995 307.640,101.662 307.056,102.392 306.605 C 102.642 306.450,102.625 306.108,102.343 305.657 C 102.006 305.118,102.058 304.647,102.563 303.672 C 103.087 302.658,103.129 302.215,102.766 301.536 C 102.500 301.040,102.407 299.957,102.543 298.960 C 102.721 297.667,102.527 296.569,101.761 294.535 C 100.784 291.940,100.773 291.809,101.472 291.287 C 101.872 290.988,102.131 290.531,102.047 290.272 C 101.584 288.842,101.823 286.566,102.488 286.077 C 103.369 285.430,103.398 284.662,102.566 283.972 C 102.087 283.574,101.994 283.037,102.183 281.774 C 102.402 280.315,102.330 280.075,101.617 279.889 C 101.065 279.744,100.800 279.345,100.800 278.661 C 100.800 277.481,101.474 276.914,102.115 277.555 C 102.360 277.800,102.777 278.000,103.043 278.000 C 103.684 278.000,103.259 276.398,102.544 276.123 C 101.812 275.842,101.851 274.543,102.600 274.255 C 102.930 274.129,103.200 273.666,103.200 273.227 C 103.200 272.787,103.589 272.220,104.065 271.965 L 104.931 271.502 104.112 270.851 C 102.511 269.578,102.180 268.344,103.476 268.481 C 104.988 268.641,105.098 267.153,103.600 266.801 C 102.202 266.472,100.556 263.054,101.158 261.732 C 101.645 260.663,101.348 259.612,100.355 258.897 C 99.557 258.323,99.887 256.430,100.999 255.201 C 101.783 254.335,101.289 252.812,99.936 251.926 C 99.080 251.365,98.991 250.993,98.892 247.556 C 98.832 245.490,98.684 243.484,98.564 243.097 C 98.423 242.646,98.785 241.954,99.572 241.166 C 101.096 239.642,101.099 239.375,99.600 238.600 C 98.318 237.937,98.174 237.446,98.787 235.833 C 99.228 234.673,98.446 234.000,96.656 234.000 C 95.489 234.000,95.193 233.157,95.745 231.400 C 95.952 230.740,96.178 229.975,96.248 229.700 C 96.318 229.425,96.728 229.200,97.160 229.200 C 97.595 229.200,98.060 228.842,98.200 228.400 C 98.509 227.428,98.105 226.000,97.522 226.000 C 97.255 226.000,97.187 225.439,97.339 224.490 C 97.518 223.374,97.375 222.641,96.790 221.680 C 95.840 220.117,95.812 219.671,96.610 218.789 C 97.157 218.185,97.157 218.062,96.610 217.608 C 95.700 216.853,95.840 215.305,96.847 214.985 C 97.624 214.738,97.672 214.525,97.431 212.392 C 97.266 210.930,97.322 209.972,97.584 209.810 C 98.306 209.364,98.035 208.400,97.187 208.400 C 96.741 208.400,96.276 208.085,96.156 207.700 C 96.036 207.315,95.681 206.522,95.369 205.938 C 94.601 204.505,94.652 203.858,95.600 203.000 C 96.549 202.141,96.681 200.400,95.797 200.400 C 95.308 200.400,95.282 200.258,95.660 199.653 C 95.938 199.208,95.995 198.602,95.802 198.153 C 95.623 197.739,95.514 197.100,95.558 196.733 C 95.603 196.366,95.271 195.949,94.820 195.806 C 93.753 195.468,93.785 194.988,95.043 192.465 C 96.272 189.997,95.995 188.734,93.728 186.481 C 91.972 184.736,92.096 184.229,95.043 181.128 C 95.831 180.298,95.474 179.603,94.404 179.883 C 92.931 180.268,92.958 178.861,94.447 177.613 L 95.800 176.480 94.654 175.954 C 93.512 175.431,93.508 175.417,93.684 172.370 C 93.847 169.559,93.802 169.327,93.131 169.502 C 92.523 169.661,92.400 169.451,92.400 168.247 C 92.400 167.451,92.580 166.800,92.800 166.800 C 93.758 166.800,93.225 163.740,92.185 163.266 C 91.293 162.860,91.227 162.697,91.638 161.929 C 92.037 161.184,91.974 160.946,91.216 160.333 L 90.326 159.612 91.591 158.348 C 92.791 157.148,92.852 156.938,92.788 154.241 C 92.751 152.679,92.746 150.635,92.776 149.700 C 92.824 148.260,92.712 148.000,92.049 148.000 C 91.103 148.000,90.774 147.260,91.282 146.274 C 91.526 145.800,91.501 145.363,91.209 145.011 C 90.580 144.252,90.594 138.332,91.228 137.147 C 91.558 136.531,91.445 136.312,90.600 135.927 C 89.889 135.603,89.651 135.262,89.834 134.829 C 89.979 134.483,90.283 133.660,90.509 133.000 C 90.735 132.340,91.091 131.314,91.300 130.720 C 91.509 130.126,92.125 129.492,92.669 129.310 L 93.657 128.981 92.328 127.591 C 91.047 126.249,91.007 126.110,91.202 123.654 C 91.371 121.535,91.288 121.027,90.705 120.618 C 89.008 119.430,87.933 116.431,88.225 113.700 C 88.417 111.914,88.345 110.845,87.990 110.181 C 87.584 109.422,87.581 109.105,87.974 108.631 C 88.630 107.840,88.184 107.200,86.976 107.200 C 86.439 107.200,86.000 107.020,86.000 106.800 C 86.000 106.580,86.349 106.400,86.776 106.400 C 88.310 106.400,87.958 103.693,86.247 102.322 C 85.569 101.779,85.500 101.543,85.900 101.142 C 86.175 100.866,86.400 100.172,86.400 99.600 C 86.400 99.028,86.566 98.389,86.768 98.180 C 87.517 97.407,86.779 94.119,85.753 93.651 C 84.501 93.081,84.532 91.810,85.828 90.609 C 86.821 89.689,86.833 89.622,86.184 88.631 C 85.358 87.371,85.633 86.543,87.089 85.908 C 87.700 85.642,88.586 85.025,89.057 84.538 C 89.631 83.944,90.198 83.727,90.776 83.878 C 91.344 84.026,91.958 83.804,92.573 83.225 C 93.332 82.512,93.782 82.398,94.959 82.619 C 95.869 82.789,96.620 82.715,96.977 82.419 C 97.289 82.160,98.142 81.944,98.872 81.938 C 99.603 81.933,100.757 81.679,101.437 81.375 C 102.425 80.934,102.928 80.918,103.931 81.296 C 105.028 81.710,105.257 81.675,105.740 81.014 C 106.631 79.796,109.200 81.151,109.200 82.839 L 109.200 84.041 110.575 82.992 L 111.950 81.943 112.600 83.200 C 113.150 84.263,113.344 84.378,113.863 83.948 C 114.374 83.524,114.594 83.597,115.195 84.393 L 115.914 85.347 117.201 84.061 C 118.092 83.169,118.721 82.848,119.247 83.015 C 119.664 83.147,120.589 82.964,121.303 82.607 C 122.541 81.987,122.625 81.995,123.149 82.779 C 123.679 83.572,125.178 83.888,125.741 83.326 C 126.577 82.490,128.987 82.045,129.613 82.612 C 130.377 83.303,131.200 82.705,131.200 81.458 C 131.200 80.732,131.252 80.723,131.915 81.323 C 132.308 81.679,132.985 81.877,133.419 81.763 C 133.952 81.624,134.587 81.951,135.372 82.771 C 136.546 83.996,137.600 83.899,137.600 82.565 C 137.600 81.794,138.920 81.178,139.622 81.621 C 140.312 82.058,142.707 81.688,143.726 80.987 C 144.679 80.332,145.816 80.660,146.568 81.807 C 147.462 83.172,149.344 83.459,150.651 82.431 C 152.038 81.340,152.244 81.376,152.740 82.800 C 152.970 83.460,153.438 84.000,153.779 84.000 C 154.121 84.000,154.401 84.225,154.401 84.500 C 154.402 84.775,154.760 84.415,155.196 83.700 C 156.007 82.369,156.563 82.092,157.000 82.800 C 157.443 83.517,159.543 83.255,159.986 82.427 C 160.533 81.404,161.768 81.048,162.818 81.610 C 163.492 81.970,163.810 81.934,164.365 81.432 C 165.292 80.593,166.126 80.634,166.964 81.560 C 167.828 82.515,170.261 83.013,171.013 82.389 C 171.316 82.137,171.796 82.074,172.078 82.248 C 172.360 82.422,173.853 82.590,175.395 82.621 C 176.938 82.652,178.491 82.805,178.847 82.961 C 179.308 83.163,179.560 82.996,179.721 82.381 C 179.927 81.591,180.118 81.541,181.957 81.794 C 183.924 82.065,183.973 82.046,184.232 80.935 C 184.807 78.465,187.015 78.122,187.750 80.390 M192.000 84.600 C 192.000 84.967,192.194 85.202,192.430 85.123 C 192.667 85.044,192.860 84.809,192.860 84.600 C 192.860 84.391,192.667 84.156,192.430 84.077 C 192.194 83.998,192.000 84.233,192.000 84.600 M95.120 122.480 C 95.493 122.853,95.707 122.853,96.080 122.480 C 96.453 122.107,96.347 122.000,95.600 122.000 C 94.853 122.000,94.747 122.107,95.120 122.480 M37.800 135.200 C 37.657 135.431,38.028 135.597,38.676 135.594 C 39.549 135.589,39.666 135.501,39.200 135.200 C 38.431 134.703,38.107 134.703,37.800 135.200 M42.493 142.154 C 42.978 142.890,42.602 143.392,41.467 143.527 C 40.315 143.663,39.730 142.880,40.155 141.772 C 40.418 141.087,41.956 141.337,42.493 142.154 M48.174 213.958 C 48.296 214.155,48.132 214.417,47.811 214.541 C 47.185 214.780,46.652 214.282,47.078 213.856 C 47.439 213.494,47.915 213.539,48.174 213.958 M97.600 232.372 C 97.600 232.995,97.855 233.200,98.629 233.200 C 99.942 233.200,99.825 231.862,98.496 231.672 C 97.815 231.575,97.600 231.743,97.600 232.372 M104.800 449.533 C 104.800 450.054,104.324 450.401,103.938 450.161 C 103.524 449.906,103.881 449.200,104.424 449.200 C 104.631 449.200,104.800 449.350,104.800 449.533 M212.616 506.827 C 213.006 507.456,212.574 507.709,211.624 507.408 C 211.165 507.262,210.892 506.975,211.018 506.771 C 211.329 506.268,212.292 506.302,212.616 506.827 M187.200 521.853 C 187.200 522.769,186.094 523.454,185.528 522.888 C 185.342 522.702,185.303 521.987,185.440 521.300 C 185.735 519.823,187.200 520.284,187.200 521.853 " stroke="none" fill="#EC791A" fill-rule="evenodd"></path></g></svg>