<svg id="svg" version="1.1" xmlns="http://www.w3.org/2000/svg" xmlns:xlink="http://www.w3.org/1999/xlink" width="400" height="814.4796380090497" viewBox="0, 0, 400,814.4796380090497"><g id="svgg"><path id="path0" d="M110.800 61.000 C 110.800 61.330,110.980 61.600,111.200 61.600 C 111.420 61.600,111.600 61.330,111.600 61.000 C 111.600 60.670,111.420 60.400,111.200 60.400 C 110.980 60.400,110.800 60.670,110.800 61.000 M116.160 61.760 C 116.014 62.142,116.092 62.652,116.334 62.894 C 116.654 63.214,116.846 63.145,117.040 62.640 C 117.186 62.258,117.108 61.748,116.866 61.506 C 116.546 61.186,116.354 61.255,116.160 61.760 M87.502 62.100 C 87.156 63.040,87.619 63.459,88.810 63.284 C 90.272 63.069,90.343 62.511,88.974 61.990 C 87.690 61.502,87.722 61.500,87.502 62.100 M107.387 62.200 C 107.284 62.530,107.121 63.056,107.024 63.369 C 106.928 63.682,106.440 63.997,105.941 64.069 C 105.361 64.153,104.944 64.562,104.788 65.200 C 104.429 66.669,102.651 66.408,100.816 64.615 C 98.555 62.408,96.000 62.760,96.000 65.280 C 96.000 66.696,94.915 66.799,94.568 65.416 C 94.190 63.909,93.335 63.361,92.492 64.084 C 92.112 64.411,91.476 64.793,91.081 64.934 C 90.686 65.074,90.173 65.733,89.941 66.398 L 89.520 67.606 88.060 66.842 C 84.820 65.148,83.971 64.981,83.253 65.899 C 82.730 66.568,82.124 66.743,80.200 66.780 C 78.880 66.806,76.900 66.900,75.800 66.991 C 73.168 67.206,73.189 67.206,71.800 67.095 C 70.682 67.007,70.592 67.103,70.476 68.498 C 70.371 69.761,70.183 70.031,69.276 70.214 C 68.684 70.334,67.664 70.710,67.009 71.050 C 65.873 71.639,65.778 71.623,64.994 70.710 C 64.120 69.695,63.040 69.830,61.451 71.155 C 60.876 71.634,60.675 71.611,59.980 70.982 C 59.338 70.401,58.957 70.334,58.088 70.649 C 56.797 71.118,54.715 70.005,54.015 68.472 C 53.554 67.463,52.068 67.419,52.377 68.424 C 52.983 70.390,52.601 72.200,51.600 72.117 C 48.252 71.837,47.000 71.397,46.866 70.454 C 46.792 69.933,46.404 69.422,46.003 69.317 C 45.602 69.212,45.184 68.783,45.074 68.363 C 44.782 67.246,44.000 67.432,44.000 68.618 C 44.000 69.178,44.433 70.069,44.961 70.598 L 45.922 71.559 45.051 72.130 C 44.572 72.444,43.828 73.353,43.399 74.150 C 42.646 75.547,42.000 76.032,42.000 75.200 C 42.000 74.980,41.730 74.800,41.400 74.800 C 41.070 74.800,40.800 74.980,40.800 75.200 C 40.800 75.420,41.070 75.600,41.400 75.600 C 42.293 75.600,42.156 77.489,41.226 77.986 C 40.801 78.214,39.631 78.400,38.626 78.400 C 36.280 78.400,36.178 79.349,38.362 80.858 C 39.820 81.866,39.895 82.024,39.914 84.128 C 39.937 86.671,39.280 87.282,38.001 85.909 C 37.357 85.218,37.096 85.145,36.698 85.544 C 36.301 85.942,36.377 86.180,37.078 86.722 C 38.294 87.662,37.844 89.971,36.300 90.714 C 35.515 91.092,35.169 91.624,35.000 92.714 C 34.872 93.531,34.508 95.345,34.189 96.744 C 33.871 98.144,33.745 99.531,33.911 99.827 C 34.689 101.218,33.850 104.994,32.735 105.123 C 30.687 105.360,29.613 109.392,31.303 110.500 C 32.913 111.554,34.491 117.600,33.157 117.600 C 32.961 117.600,32.800 118.236,32.800 119.013 C 32.800 120.603,31.951 121.212,30.766 120.471 C 29.900 119.930,29.248 120.608,29.955 121.315 C 30.601 121.961,30.500 123.557,29.767 124.290 C 29.305 124.752,29.206 125.308,29.402 126.350 C 29.656 127.705,27.231 130.800,25.914 130.800 C 25.742 130.800,25.600 130.962,25.600 131.160 C 25.600 131.722,28.339 133.200,29.380 133.200 C 30.411 133.200,30.800 133.867,30.800 135.633 C 30.800 136.275,30.956 136.800,31.146 136.800 C 32.391 136.800,33.541 138.450,33.126 139.640 C 32.819 140.522,32.825 140.985,33.150 141.310 C 33.926 142.086,33.646 142.671,32.314 143.053 C 30.867 143.468,30.112 145.453,30.960 146.612 C 31.445 147.277,34.001 146.570,34.596 145.606 C 34.977 144.990,35.600 145.121,35.600 145.817 C 35.600 147.050,34.110 148.112,32.317 148.157 C 30.330 148.207,29.669 150.225,30.983 152.231 C 31.333 152.764,31.441 153.200,31.223 153.200 C 30.403 153.200,29.911 154.819,30.383 155.960 C 31.137 157.780,31.078 161.829,30.285 162.706 C 29.908 163.122,29.600 163.680,29.600 163.946 C 29.600 164.759,28.340 166.406,27.300 166.951 L 26.314 167.467 27.604 168.002 C 29.073 168.610,30.113 167.733,30.557 165.513 C 30.751 164.546,30.967 164.400,32.203 164.400 C 34.096 164.400,34.458 165.353,33.057 166.653 C 32.466 167.200,32.000 168.067,32.000 168.616 C 32.000 169.673,30.631 170.060,30.288 169.100 C 30.184 168.809,29.961 168.748,29.755 168.955 C 29.548 169.161,29.609 169.384,29.900 169.488 C 30.496 169.701,30.558 171.357,30.008 172.384 C 29.528 173.281,30.067 173.794,31.900 174.186 C 33.599 174.549,33.788 176.404,32.200 177.127 C 31.069 177.643,30.911 178.569,31.804 179.461 C 32.646 180.303,32.118 180.924,30.788 180.658 C 29.385 180.377,29.182 180.861,29.481 183.766 C 29.647 185.372,29.879 186.000,30.306 186.000 C 30.749 186.000,30.841 185.703,30.667 184.836 C 30.422 183.609,31.058 183.017,32.166 183.442 C 33.322 183.886,31.282 187.632,29.503 188.331 C 28.355 188.782,28.035 189.095,28.240 189.567 C 28.390 189.915,28.598 190.697,28.703 191.305 C 28.807 191.913,29.051 192.508,29.246 192.629 C 29.441 192.749,29.600 193.199,29.600 193.629 C 29.600 194.059,29.820 194.764,30.090 195.195 C 30.797 196.327,30.014 197.050,28.791 196.395 C 28.007 195.976,27.780 196.053,26.949 197.021 C 25.543 198.656,25.696 200.054,27.379 200.961 C 28.137 201.369,29.146 202.117,29.621 202.623 L 30.485 203.542 29.638 204.452 C 28.512 205.660,29.222 206.411,31.759 206.697 C 33.963 206.945,34.012 207.126,32.195 208.304 C 30.347 209.501,30.214 211.318,31.930 211.916 C 33.223 212.366,33.593 218.456,32.343 218.711 C 32.044 218.771,31.509 219.329,31.153 219.950 C 30.737 220.677,30.025 221.188,29.153 221.385 L 27.800 221.692 29.680 222.512 C 31.436 223.278,31.568 223.439,31.680 224.966 L 31.800 226.600 33.600 226.600 C 36.201 226.600,36.310 226.752,35.940 229.881 C 35.680 232.082,35.421 232.773,34.578 233.508 L 33.536 234.417 34.288 235.705 C 34.855 236.675,35.407 237.053,36.525 237.234 C 38.837 237.610,38.581 239.149,36.199 239.187 C 35.759 239.194,34.331 240.202,33.026 241.426 L 30.653 243.653 31.692 244.526 C 32.263 245.007,32.854 245.823,33.005 246.339 C 33.156 246.856,33.630 247.666,34.058 248.139 C 34.487 248.613,35.076 249.270,35.368 249.600 C 36.289 250.642,36.510 252.056,35.994 253.618 C 35.310 255.691,35.789 258.820,36.831 259.092 C 37.254 259.203,37.600 259.442,37.600 259.623 C 37.600 260.217,36.820 260.451,36.129 260.064 C 35.639 259.790,35.146 259.912,34.342 260.506 C 33.123 261.408,33.182 262.000,34.492 262.000 C 36.279 262.000,36.763 262.989,36.011 265.109 C 34.406 269.637,33.883 270.456,32.700 270.292 C 32.095 270.207,31.600 270.273,31.600 270.437 C 31.600 270.602,32.815 270.851,34.300 270.991 C 37.780 271.319,38.969 271.794,38.600 272.709 C 38.447 273.089,38.225 274.075,38.108 274.900 C 37.869 276.580,36.922 276.928,36.113 275.632 C 35.522 274.686,32.802 275.307,32.501 276.458 C 32.402 276.836,32.024 277.259,31.661 277.399 C 30.860 277.707,34.811 279.167,36.500 279.187 C 37.338 279.197,37.600 279.395,37.600 280.019 C 37.600 280.931,35.502 283.107,35.276 282.429 C 35.089 281.867,33.895 281.883,32.619 282.464 C 31.388 283.025,31.297 283.850,32.428 284.209 C 34.836 284.973,34.980 288.800,32.601 288.800 C 30.861 288.800,31.021 291.853,32.815 292.883 C 34.319 293.746,34.309 294.175,32.766 294.814 C 32.088 295.095,31.366 295.764,31.162 296.301 C 30.957 296.838,30.433 297.371,29.995 297.485 C 28.906 297.770,28.997 298.961,30.200 300.164 C 31.457 301.421,31.458 301.900,30.204 302.471 C 28.994 303.022,29.108 306.912,30.365 307.984 C 31.003 308.529,30.980 308.628,30.025 309.455 L 29.000 310.342 29.900 311.187 C 30.395 311.651,30.800 312.220,30.800 312.451 C 30.800 312.683,30.395 313.210,29.900 313.623 L 29.000 314.373 29.857 314.387 C 30.329 314.394,30.817 314.133,30.942 313.807 C 31.271 312.948,32.251 313.474,32.802 314.805 C 33.357 316.146,33.105 316.704,31.703 317.237 L 30.684 317.624 31.523 318.518 C 32.583 319.646,32.691 324.929,31.678 326.102 C 31.344 326.489,31.145 326.849,31.236 326.902 C 31.326 326.956,31.750 327.194,32.178 327.430 C 32.673 327.703,33.300 328.988,33.899 330.957 L 34.840 334.053 33.835 334.844 C 33.271 335.288,32.715 336.244,32.569 337.023 C 32.426 337.787,32.043 338.560,31.718 338.742 C 30.723 339.299,30.397 347.164,31.239 350.282 C 31.626 351.712,31.596 352.062,31.036 352.621 C 30.562 353.095,30.449 353.653,30.630 354.617 C 30.862 355.857,30.779 355.998,29.495 356.534 C 28.544 356.932,28.048 357.437,27.912 358.147 C 27.652 359.506,27.897 359.686,29.013 358.955 C 29.927 358.356,31.600 358.835,31.600 359.696 C 31.600 359.863,32.014 360.000,32.520 360.000 C 33.725 360.000,34.400 360.715,34.400 361.991 C 34.400 362.558,34.667 363.404,34.994 363.870 C 35.558 364.675,35.509 364.750,34.028 365.342 C 30.739 366.658,30.994 369.874,34.573 372.219 C 35.577 372.877,35.981 374.000,35.214 374.000 C 35.002 374.000,34.230 374.525,33.500 375.166 C 32.770 375.807,31.459 376.464,30.586 376.626 C 28.891 376.941,27.600 378.070,27.600 379.238 C 27.600 380.386,28.452 380.592,29.185 379.620 L 29.859 378.726 30.539 379.763 C 30.913 380.333,31.476 380.800,31.791 380.800 C 32.177 380.800,32.043 381.121,31.382 381.782 C 29.983 383.181,29.992 386.201,31.400 387.838 C 32.770 389.431,32.764 391.630,31.385 392.908 L 30.371 393.849 31.385 394.392 C 32.581 395.032,32.719 396.461,31.800 398.662 C 30.936 400.731,31.036 401.135,32.600 401.881 C 34.818 402.938,34.651 405.158,32.224 406.868 L 30.448 408.120 31.423 410.045 L 32.398 411.970 30.699 412.424 C 28.559 412.996,28.000 413.456,28.000 414.641 C 28.000 416.006,29.827 416.425,30.650 415.250 C 31.361 414.235,32.107 414.166,32.839 415.047 C 33.303 415.606,33.227 415.814,32.285 416.565 C 31.475 417.211,31.311 417.551,31.646 417.886 C 32.051 418.291,32.116 419.261,32.021 423.454 C 32.005 424.144,31.724 424.931,31.396 425.203 C 30.567 425.891,30.646 426.436,31.800 428.000 C 33.038 429.678,33.037 429.748,31.761 430.931 L 30.722 431.895 31.987 432.336 C 35.194 433.454,35.743 436.800,32.720 436.800 C 31.447 436.800,31.211 437.405,32.366 437.707 C 32.788 437.817,33.192 438.332,33.266 438.851 C 33.363 439.536,33.720 439.850,34.567 439.997 C 36.058 440.256,36.270 440.917,35.185 441.928 C 34.475 442.590,34.320 443.213,34.284 445.556 C 34.241 448.347,34.223 448.393,32.920 449.011 C 32.018 449.439,31.599 449.916,31.598 450.519 C 31.596 451.003,31.333 451.903,31.012 452.518 C 30.572 453.361,30.548 453.670,30.914 453.772 C 31.181 453.847,32.165 454.116,33.100 454.370 C 34.035 454.624,34.800 454.917,34.800 455.021 C 34.800 455.366,33.812 456.986,33.069 457.859 C 32.149 458.940,34.472 462.873,36.577 463.797 L 37.800 464.335 36.589 464.367 C 33.786 464.443,31.717 467.405,33.386 468.952 C 34.672 470.143,34.660 470.294,33.160 471.841 C 31.813 473.231,31.817 474.561,33.169 474.990 C 35.324 475.674,34.318 479.544,31.743 480.475 C 30.064 481.082,29.985 482.150,31.438 484.629 C 32.009 485.603,32.285 486.400,32.052 486.400 C 31.275 486.400,30.740 487.891,31.422 488.153 C 31.787 488.293,32.133 488.109,32.286 487.693 C 32.792 486.322,35.070 485.879,35.979 486.974 C 36.624 487.751,35.847 489.200,34.786 489.200 C 33.896 489.200,33.754 489.979,34.500 490.770 C 34.901 491.196,34.887 491.341,34.427 491.508 C 32.407 492.240,30.215 495.888,30.591 497.891 C 30.808 499.047,30.689 499.280,29.517 499.994 C 28.793 500.436,28.425 500.798,28.700 500.799 C 29.021 500.799,29.201 501.409,29.202 502.500 C 29.204 503.435,29.454 504.678,29.760 505.263 C 30.152 506.015,30.189 506.451,29.888 506.752 C 29.484 507.156,29.439 511.573,29.835 511.969 C 29.938 512.071,30.393 511.784,30.847 511.331 L 31.671 510.506 33.122 511.835 L 34.573 513.164 33.673 514.122 C 32.876 514.971,32.843 515.138,33.387 515.589 C 34.893 516.839,33.396 519.909,30.700 521.098 C 29.241 521.741,29.310 522.302,30.899 522.714 C 32.662 523.171,33.256 524.779,32.287 526.468 C 31.432 527.957,31.629 528.302,33.514 528.619 C 36.288 529.087,36.389 529.154,36.147 530.367 C 35.913 531.534,36.689 533.478,37.733 534.344 C 38.738 535.179,37.733 536.870,35.346 538.361 C 32.086 540.398,33.127 542.303,37.206 541.761 C 38.421 541.600,39.200 541.650,39.200 541.889 C 39.200 543.031,38.240 544.745,37.380 545.136 C 36.841 545.382,36.400 545.824,36.400 546.119 C 36.400 546.414,35.952 547.045,35.405 547.521 C 34.494 548.313,34.431 548.580,34.653 550.704 C 34.941 553.459,34.280 554.438,32.637 553.690 C 31.960 553.381,31.573 553.387,31.249 553.711 C 30.549 554.411,30.720 555.200,31.571 555.200 C 33.143 555.200,33.761 556.377,32.752 557.451 L 31.861 558.400 32.661 559.300 C 33.338 560.060,33.406 560.448,33.103 561.800 C 32.905 562.680,32.754 563.965,32.768 564.656 C 32.786 565.571,32.521 566.091,31.796 566.566 C 30.454 567.445,30.645 571.200,32.033 571.200 C 32.282 571.200,32.376 570.916,32.243 570.568 C 31.556 568.776,32.873 567.343,34.603 568.001 C 35.809 568.460,35.857 569.160,34.801 570.890 C 34.362 571.611,34.002 572.839,34.001 573.620 C 34.001 574.401,33.796 575.244,33.547 575.493 C 32.723 576.317,33.504 577.137,35.382 577.418 C 37.549 577.743,38.013 578.272,36.906 579.155 C 36.089 579.806,33.200 583.775,33.200 584.246 C 33.200 584.386,33.736 584.393,34.391 584.262 C 36.817 583.777,37.800 585.312,37.800 589.588 C 37.800 592.872,37.888 593.309,38.676 593.920 C 40.210 595.111,40.281 596.634,38.836 597.381 C 37.495 598.075,37.348 598.726,38.055 600.840 C 38.707 602.792,39.005 602.976,39.923 601.991 C 40.904 600.938,41.761 601.305,41.427 602.637 C 41.254 603.324,41.410 603.725,41.994 604.089 C 42.788 604.585,43.129 606.000,42.455 606.000 C 41.754 606.000,40.043 608.094,39.924 609.098 C 39.830 609.879,39.455 610.248,38.400 610.600 C 37.228 610.990,36.979 611.280,36.871 612.378 C 36.785 613.262,36.495 613.755,35.985 613.888 C 35.568 613.997,35.121 614.418,34.993 614.823 C 34.864 615.228,34.406 615.671,33.974 615.808 C 32.972 616.126,33.287 616.647,34.636 616.905 C 35.501 617.070,35.822 616.870,36.481 615.752 C 37.481 614.057,38.983 613.883,39.368 615.417 C 39.535 616.081,39.411 616.646,39.012 617.045 C 38.675 617.382,38.400 618.162,38.400 618.780 C 38.400 619.648,38.130 620.015,37.213 620.394 C 35.734 621.007,35.339 622.143,36.167 623.406 C 36.515 623.937,36.800 624.737,36.800 625.183 C 36.800 625.628,37.160 626.218,37.600 626.493 C 38.520 627.067,38.646 627.600,37.862 627.600 C 37.566 627.600,36.998 627.960,36.600 628.400 C 35.998 629.065,35.979 629.200,36.484 629.200 C 36.819 629.200,38.021 629.955,39.155 630.878 L 41.218 632.556 40.153 633.405 C 39.065 634.272,39.007 634.961,39.807 637.493 C 40.094 638.400,40.068 638.420,37.246 639.420 C 36.791 639.581,36.809 639.747,37.346 640.340 C 38.264 641.355,38.170 641.700,36.754 642.506 C 35.248 643.364,35.691 644.231,37.840 644.634 C 39.584 644.961,39.773 646.692,38.200 647.929 C 36.852 648.989,36.915 649.108,39.000 649.421 C 41.245 649.758,41.402 650.741,39.521 652.682 C 38.067 654.182,38.415 655.483,40.005 654.490 C 40.436 654.220,40.891 654.000,41.016 654.000 C 41.141 654.000,41.163 656.162,41.064 658.805 C 40.893 663.406,40.923 663.639,41.778 664.311 C 43.662 665.793,43.332 667.013,40.835 667.796 C 39.606 668.182,38.510 668.617,38.400 668.764 C 38.290 668.911,37.596 669.405,36.857 669.863 L 35.515 670.695 36.953 670.965 C 37.830 671.129,38.571 671.572,38.854 672.101 C 39.109 672.577,39.684 673.264,40.133 673.627 C 41.010 674.338,40.306 675.429,38.195 676.632 C 37.568 676.989,37.433 677.545,37.418 679.832 L 37.400 682.600 36.000 682.800 L 34.600 683.000 34.543 686.070 C 34.494 688.713,34.341 689.331,33.443 690.508 C 32.869 691.260,32.400 692.149,32.400 692.484 C 32.400 692.818,32.067 693.521,31.661 694.046 C 31.254 694.571,30.803 695.900,30.658 697.000 C 30.513 698.100,30.035 699.488,29.597 700.084 C 29.159 700.680,28.800 701.721,28.800 702.397 C 28.800 703.372,28.518 703.794,27.439 704.430 C 26.288 705.109,26.056 705.493,25.939 706.917 C 25.718 709.599,25.934 710.145,27.601 711.104 C 28.955 711.883,29.125 712.131,28.832 712.904 C 28.600 713.516,28.690 714.140,29.117 714.874 C 29.931 716.273,29.243 717.200,27.390 717.200 C 24.802 717.200,24.728 719.938,27.300 720.552 C 28.344 720.802,28.867 721.600,27.986 721.600 C 27.758 721.600,27.130 721.889,26.591 722.243 L 25.609 722.886 26.905 723.776 L 28.200 724.666 28.879 723.143 L 29.558 721.621 30.879 722.182 C 32.285 722.780,32.438 723.361,31.846 725.879 C 31.562 727.089,31.604 727.154,32.636 727.079 C 33.592 727.010,33.805 727.222,34.363 728.802 C 35.366 731.639,36.729 733.715,37.410 733.439 C 37.734 733.308,38.230 733.106,38.511 732.991 C 39.890 732.428,40.655 733.949,39.508 734.973 L 38.416 735.948 39.618 737.074 C 41.866 739.182,42.920 741.029,42.413 741.975 C 41.936 742.866,42.153 743.600,42.892 743.600 C 43.137 743.600,43.641 743.875,44.013 744.211 C 44.538 744.687,44.929 744.731,45.770 744.411 C 48.492 743.376,50.692 744.212,49.259 745.737 C 48.204 746.861,48.405 747.075,50.838 747.421 C 53.781 747.840,55.298 748.455,56.289 749.633 C 56.810 750.251,57.632 750.881,58.118 751.033 C 59.318 751.407,59.597 751.956,59.165 753.093 C 58.964 753.620,58.827 754.895,58.860 755.926 C 58.901 757.198,58.975 757.431,59.091 756.652 C 59.255 755.551,59.335 755.511,61.010 755.700 C 62.470 755.864,62.901 755.744,63.630 754.968 C 64.420 754.127,64.740 754.062,67.034 754.276 C 69.784 754.533,75.032 752.498,76.123 750.752 C 76.747 749.752,77.324 749.803,77.805 750.900 C 78.354 752.151,78.869 752.039,81.025 750.200 C 82.058 749.320,83.554 748.235,84.351 747.790 C 85.373 747.219,85.837 746.659,85.926 745.891 C 86.092 744.469,87.649 744.020,89.213 744.944 C 90.817 745.891,91.474 745.770,93.323 744.187 C 94.580 743.112,95.215 742.827,95.987 742.996 C 97.143 743.250,98.262 741.457,97.820 740.061 C 97.490 739.023,98.244 737.200,99.003 737.200 C 99.919 737.200,100.137 738.174,99.591 739.827 C 99.062 741.432,99.653 742.435,101.442 742.967 C 102.248 743.206,102.269 743.130,101.958 741.162 C 101.610 738.957,102.237 737.464,103.677 737.071 C 104.574 736.827,104.800 737.108,104.800 738.467 C 104.800 739.333,104.988 739.600,105.600 739.600 C 106.215 739.600,106.400 739.333,106.400 738.449 C 106.400 737.114,106.921 736.595,108.622 736.231 C 109.375 736.071,110.107 735.527,110.527 734.816 C 111.374 733.382,113.496 732.770,114.215 733.753 C 114.475 734.109,114.957 734.400,115.286 734.400 C 115.614 734.400,116.378 734.859,116.983 735.419 C 118.377 736.711,119.026 736.488,118.907 734.757 C 118.701 731.774,119.807 730.648,121.267 732.353 C 121.972 733.176,123.655 733.097,124.395 732.206 C 124.704 731.833,124.550 731.528,123.807 731.041 C 123.253 730.678,122.800 730.119,122.800 729.798 C 122.800 729.478,122.312 729.093,121.715 728.943 C 120.796 728.712,120.743 728.631,121.366 728.412 C 122.922 727.866,124.263 728.422,124.971 729.909 L 125.656 731.344 126.528 730.292 C 127.034 729.681,127.898 729.189,128.587 729.120 C 129.564 729.021,129.843 728.751,130.163 727.600 C 130.615 725.970,131.019 725.615,132.430 725.606 C 133.491 725.600,134.957 724.332,135.773 722.715 C 136.146 721.975,136.507 721.824,137.655 721.924 C 138.813 722.025,139.201 721.859,139.747 721.024 C 140.662 719.629,141.856 719.734,143.944 721.394 C 146.494 723.421,147.741 722.510,147.493 718.800 C 147.355 716.722,149.024 716.599,150.304 718.592 C 151.344 720.213,152.975 720.539,153.397 719.210 C 153.957 717.446,158.000 715.856,158.000 717.400 C 158.000 717.730,158.180 718.000,158.400 718.000 C 158.620 718.000,158.800 717.741,158.800 717.424 C 158.800 717.107,158.620 716.736,158.400 716.600 C 157.561 716.082,158.025 715.505,159.107 715.721 C 159.943 715.889,160.446 715.702,161.163 714.957 L 162.112 713.971 161.245 713.048 C 160.291 712.033,160.457 710.800,161.547 710.800 C 161.910 710.800,162.445 710.420,162.735 709.956 C 163.150 709.291,163.516 709.163,164.464 709.353 C 166.169 709.694,167.338 709.006,166.791 707.983 C 166.560 707.552,166.093 707.200,165.753 707.200 C 165.412 707.200,165.209 706.975,165.302 706.700 C 165.396 706.421,165.936 706.256,166.527 706.328 C 167.704 706.470,170.000 705.293,170.000 704.546 C 170.000 704.282,170.094 703.819,170.210 703.519 C 170.348 703.158,169.800 702.717,168.594 702.219 C 167.341 701.702,166.930 701.364,167.284 701.139 C 168.224 700.543,170.338 700.762,170.768 701.500 C 171.114 702.094,171.178 702.028,171.188 701.062 C 171.217 698.377,172.806 697.010,173.849 698.775 C 175.045 700.800,177.827 700.719,176.741 698.690 C 176.161 697.606,176.615 696.800,177.808 696.800 C 179.028 696.800,180.170 698.984,179.774 700.560 C 179.441 701.888,180.311 702.286,180.791 701.024 C 181.005 700.461,181.455 700.000,181.790 700.000 C 182.827 700.000,182.563 697.725,181.440 696.990 C 179.619 695.796,179.023 692.649,180.798 693.599 C 182.142 694.318,183.499 694.055,184.405 692.900 C 185.490 691.516,186.695 690.832,188.080 690.814 C 188.674 690.806,189.304 690.546,189.480 690.236 C 189.979 689.354,192.368 688.904,194.252 689.335 C 196.702 689.895,197.266 689.552,196.966 687.679 C 196.574 685.225,197.876 684.006,201.205 683.712 C 203.113 683.543,204.099 683.234,204.931 682.541 C 205.553 682.024,206.228 681.600,206.431 681.600 C 206.634 681.600,206.800 681.082,206.800 680.449 C 206.800 679.816,207.070 679.074,207.400 678.800 C 207.730 678.526,208.001 678.099,208.002 677.851 C 208.012 675.931,208.885 674.400,209.970 674.400 C 210.593 674.400,211.326 674.130,211.600 673.800 C 212.316 672.938,214.397 673.058,215.422 674.021 C 216.557 675.087,218.399 674.738,218.401 673.457 C 218.404 672.095,219.877 670.000,220.832 670.000 C 221.297 670.000,222.208 669.622,222.857 669.160 C 223.686 668.569,224.482 668.362,225.535 668.462 C 226.934 668.596,227.024 668.539,226.893 667.603 C 226.631 665.718,228.666 663.328,232.277 661.279 C 232.782 660.993,233.293 660.273,233.412 659.679 C 234.093 656.296,235.126 655.603,237.202 657.138 L 238.296 657.947 238.730 656.994 C 239.105 656.171,239.025 655.939,238.146 655.299 C 236.887 654.382,237.362 651.564,238.914 650.747 C 240.112 650.116,240.387 649.627,240.394 648.114 C 240.401 646.518,241.610 645.667,242.544 646.601 C 243.463 647.520,244.117 647.318,245.091 645.815 C 245.762 644.779,246.353 644.378,247.491 644.189 C 249.854 643.796,249.878 643.775,250.387 641.654 C 250.883 639.587,252.026 638.400,253.519 638.400 C 254.644 638.400,254.823 638.006,254.157 636.991 C 253.707 636.303,253.675 636.001,254.031 635.781 C 254.300 635.615,254.664 635.772,254.873 636.144 C 255.075 636.505,255.607 636.800,256.057 636.800 C 256.506 636.800,257.331 637.160,257.891 637.600 C 258.450 638.040,259.154 638.400,259.454 638.400 C 260.304 638.400,260.096 637.318,259.200 637.084 C 258.606 636.929,258.400 636.538,258.400 635.569 C 258.400 634.851,258.101 633.933,257.737 633.530 C 256.840 632.539,257.558 630.759,258.730 631.066 C 261.118 631.690,262.396 629.827,262.275 625.900 C 262.208 623.738,262.312 623.191,262.796 623.153 C 263.941 623.063,264.601 623.257,265.031 623.810 C 265.385 624.266,265.722 624.149,266.931 623.153 C 268.625 621.756,268.756 621.095,267.511 620.223 C 266.646 619.617,266.668 619.600,268.311 619.600 C 269.956 619.600,270.308 619.388,271.916 617.429 C 272.199 617.083,272.864 616.800,273.392 616.800 C 275.042 616.800,274.959 615.998,273.240 615.323 L 271.610 614.683 272.605 613.760 C 273.152 613.253,273.600 612.626,273.600 612.367 C 273.600 612.055,274.055 611.969,274.941 612.113 C 276.151 612.309,276.361 612.193,277.087 610.923 L 277.891 609.516 278.715 610.401 C 280.414 612.224,281.046 609.857,279.500 607.461 C 279.005 606.694,278.285 605.978,277.900 605.871 C 276.907 605.593,277.059 602.800,278.067 602.800 C 278.276 602.800,279.273 602.170,280.282 601.400 C 281.334 600.596,282.576 600.000,283.198 600.000 C 285.756 600.000,287.583 598.904,287.594 597.362 C 287.602 596.252,288.717 595.298,290.200 595.133 C 291.336 595.007,291.400 594.904,291.400 593.200 L 291.400 591.400 293.041 591.280 C 294.557 591.169,294.667 591.083,294.488 590.150 C 294.329 589.317,294.129 589.181,293.348 589.377 C 292.255 589.652,292.148 589.395,293.000 588.543 C 293.330 588.213,293.600 587.596,293.600 587.171 C 293.600 586.747,293.766 586.400,293.969 586.400 C 294.493 586.400,295.319 583.698,295.077 582.773 C 294.787 581.663,295.927 581.134,297.040 581.863 C 297.638 582.255,298.011 582.306,298.188 582.019 C 298.333 581.785,298.169 581.486,297.825 581.354 C 297.026 581.048,297.012 579.647,297.805 579.343 C 298.138 579.215,298.683 579.337,299.017 579.614 C 299.484 580.002,299.855 580.012,300.631 579.659 C 301.185 579.406,302.001 579.200,302.445 579.200 C 302.889 579.200,303.612 579.007,304.052 578.772 C 305.183 578.167,304.301 577.200,302.618 577.200 C 300.910 577.200,300.716 576.922,301.444 575.515 C 301.910 574.614,302.550 570.715,302.793 567.300 C 302.822 566.888,303.798 567.355,304.361 568.051 C 305.338 569.258,306.409 568.769,307.564 566.588 C 308.645 564.548,309.114 564.657,309.818 567.117 C 310.277 568.716,310.633 568.796,312.998 567.831 L 314.196 567.343 312.998 566.227 C 312.339 565.613,311.395 564.956,310.900 564.766 C 309.757 564.326,309.728 562.974,310.849 562.374 C 311.586 561.980,311.665 561.683,311.452 560.127 C 311.161 558.005,311.690 556.800,312.914 556.799 C 314.468 556.798,317.887 552.951,317.246 551.925 C 316.960 551.467,316.884 550.982,317.077 550.846 C 318.114 550.117,319.200 548.139,319.200 546.977 C 319.200 544.157,321.722 542.538,324.146 543.802 C 325.460 544.488,327.200 544.595,327.200 543.990 C 327.200 543.765,326.735 543.404,326.167 543.188 C 324.835 542.681,325.090 541.978,326.824 541.382 C 328.099 540.943,328.193 540.796,328.103 539.376 C 328.049 538.533,328.177 537.222,328.387 536.464 C 328.698 535.337,328.631 534.911,328.019 534.133 C 327.338 533.268,327.324 533.075,327.858 532.004 L 328.446 530.826 330.406 531.913 L 332.366 533.000 333.283 532.087 C 333.878 531.494,334.049 531.073,333.769 530.887 C 333.258 530.547,331.995 528.067,332.013 527.439 C 332.026 526.991,333.804 524.800,334.155 524.800 C 335.605 524.800,336.390 525.644,335.791 526.558 C 335.062 527.670,335.785 528.579,336.561 527.526 C 336.802 527.199,337.394 526.721,337.875 526.465 C 338.984 525.874,338.766 523.662,337.402 521.669 C 336.335 520.109,336.502 518.893,337.855 518.379 C 338.463 518.148,338.802 517.695,338.806 517.110 C 338.814 515.969,339.159 515.447,340.301 514.845 C 340.796 514.585,341.459 513.793,341.774 513.086 C 342.744 510.906,343.005 510.667,343.894 511.143 C 345.521 512.014,346.668 510.017,345.819 507.793 C 345.145 506.029,345.143 504.541,345.810 501.925 C 345.981 501.253,345.854 500.391,345.472 499.625 C 345.136 498.951,345.031 498.400,345.239 498.400 C 345.447 498.400,345.818 497.960,346.063 497.421 C 346.373 496.742,346.890 496.405,347.755 496.321 C 348.782 496.221,349.080 495.954,349.454 494.800 C 349.793 493.757,350.150 493.385,350.854 493.339 C 351.374 493.306,351.969 493.261,352.176 493.239 C 352.384 493.218,352.276 492.975,351.938 492.700 C 350.007 491.129,350.263 488.646,352.430 487.923 C 352.878 487.774,352.693 487.267,351.000 484.000 L 350.067 482.200 351.486 482.073 L 352.905 481.945 352.650 480.073 C 352.510 479.043,352.293 477.744,352.167 477.186 C 351.961 476.265,352.144 476.087,354.171 475.247 C 357.943 473.684,358.955 471.672,356.559 470.503 C 354.330 469.416,354.095 464.000,356.276 464.000 C 357.135 464.000,357.219 464.095,356.804 464.595 C 355.605 466.040,357.044 467.748,358.519 466.629 C 359.202 466.111,359.186 466.026,358.219 464.983 C 356.599 463.234,357.378 460.105,359.610 459.397 C 361.429 458.819,358.495 456.889,356.543 457.379 C 355.261 457.700,355.289 456.675,356.597 455.366 C 357.403 454.561,357.745 454.449,358.376 454.787 C 359.006 455.124,359.346 455.018,360.123 454.241 L 361.088 453.276 359.744 451.765 C 357.990 449.794,358.025 448.779,359.900 447.273 L 361.400 446.068 360.537 445.134 L 359.674 444.200 360.693 441.735 C 361.822 439.005,361.701 436.954,360.514 438.700 C 359.738 439.842,358.930 439.842,357.977 438.700 C 357.107 437.656,356.982 436.801,357.700 436.798 C 361.100 436.783,362.047 435.084,359.802 433.027 C 358.572 431.901,358.468 431.660,358.934 431.023 C 359.433 430.340,359.510 430.360,360.306 431.371 C 361.202 432.511,362.000 431.960,362.000 430.201 C 362.000 429.634,363.702 425.622,364.860 423.461 C 365.384 422.481,364.953 422.112,363.987 422.715 C 362.886 423.403,362.432 423.324,361.577 422.300 C 360.467 420.969,360.620 420.557,362.500 419.825 C 365.474 418.667,366.712 415.709,364.771 414.399 C 364.016 413.889,363.947 411.372,364.672 410.748 C 366.378 409.280,366.753 409.479,366.881 411.920 C 367.029 414.746,368.716 415.295,370.080 412.960 C 371.178 411.080,370.715 409.395,369.102 409.398 C 367.849 409.400,367.632 409.150,365.569 405.329 C 364.486 403.326,366.194 401.600,369.260 401.600 C 370.260 401.600,370.400 401.453,370.400 400.400 C 370.400 398.716,367.361 398.603,365.737 400.227 L 364.710 401.254 363.939 400.427 C 363.516 399.972,362.981 399.600,362.751 399.600 C 361.757 399.600,362.781 398.621,364.187 398.227 C 365.814 397.770,365.721 397.932,367.214 393.000 C 367.480 392.120,367.989 391.069,368.344 390.664 C 368.946 389.977,368.916 389.874,367.895 389.131 C 366.764 388.307,366.324 385.942,367.200 385.400 C 368.690 384.479,366.700 382.400,364.330 382.400 C 362.951 382.400,362.807 382.288,362.431 380.927 C 362.003 379.377,362.386 378.400,363.421 378.400 C 363.709 378.400,364.359 377.568,364.867 376.551 C 365.375 375.534,365.973 374.649,366.195 374.584 C 366.418 374.520,367.140 374.341,367.800 374.188 C 368.997 373.910,368.998 373.908,368.068 373.479 C 367.391 373.167,366.794 373.178,365.888 373.520 C 364.443 374.065,363.926 373.633,364.096 372.023 C 364.174 371.293,364.529 370.962,365.500 370.712 C 366.215 370.528,366.800 370.200,366.800 369.983 C 366.800 369.766,367.355 369.251,368.033 368.838 C 368.712 368.426,369.096 367.983,368.888 367.854 C 368.680 367.726,368.279 366.761,367.996 365.710 C 367.713 364.660,367.321 363.621,367.124 363.403 C 366.903 363.158,367.251 362.612,368.034 361.972 C 369.130 361.078,369.241 360.823,368.852 360.097 C 368.471 359.385,368.555 359.136,369.401 358.471 C 370.862 357.322,369.700 355.398,367.386 355.135 C 364.839 354.845,365.735 352.601,368.400 352.596 C 369.610 352.594,370.555 352.459,370.500 352.296 C 370.445 352.133,370.400 351.799,370.400 351.553 C 370.400 351.294,369.986 351.186,369.412 351.296 C 368.565 351.457,368.358 351.278,367.964 350.042 C 367.711 349.249,367.069 348.133,366.538 347.563 C 365.187 346.114,365.816 343.946,367.288 344.977 C 368.957 346.146,369.707 345.815,369.407 344.041 C 369.108 342.273,369.241 342.131,371.532 341.764 C 373.023 341.526,373.227 341.595,373.569 342.450 C 373.877 343.220,373.954 342.958,373.975 341.071 C 373.998 338.955,373.943 338.800,373.371 339.371 C 372.565 340.178,372.040 340.168,371.722 339.342 C 371.567 338.937,371.763 338.467,372.235 338.117 C 372.934 337.599,372.862 337.561,371.400 337.675 C 369.864 337.795,369.783 337.872,369.366 339.600 C 368.934 341.394,368.240 341.931,366.979 341.447 C 366.515 341.269,366.493 341.032,366.866 340.215 C 367.247 339.379,367.205 339.069,366.628 338.430 C 365.954 337.686,365.975 337.634,367.181 337.010 C 368.576 336.289,369.200 335.038,369.200 332.965 C 369.200 331.875,369.414 331.486,370.210 331.122 C 370.766 330.869,371.156 330.468,371.077 330.231 C 370.836 329.505,369.736 329.521,368.996 330.261 C 368.327 330.930,368.250 330.907,367.339 329.781 C 366.092 328.241,366.218 326.652,367.600 326.464 C 369.108 326.258,370.059 325.258,369.587 324.376 C 369.013 323.303,369.118 322.006,369.800 321.745 C 370.645 321.420,370.545 320.256,369.600 319.400 C 369.160 319.002,368.800 318.403,368.800 318.070 C 368.800 317.736,368.494 317.125,368.119 316.711 C 367.473 315.997,367.492 315.914,368.482 315.079 C 371.088 312.882,371.390 309.408,368.999 309.136 C 366.408 308.842,367.282 306.417,370.282 305.577 L 372.148 305.055 370.447 304.332 C 368.652 303.570,368.594 303.011,370.244 302.383 C 371.827 301.782,372.273 300.273,371.251 298.974 C 370.783 298.379,370.400 297.577,370.400 297.193 C 370.400 296.808,370.015 296.393,369.544 296.269 C 368.466 295.988,368.699 293.763,369.976 292.140 C 371.101 290.709,371.037 290.408,369.200 288.496 C 368.320 287.580,367.600 286.455,367.600 285.996 C 367.600 285.537,367.150 284.745,366.600 284.235 C 366.050 283.725,365.600 283.199,365.600 283.064 C 365.600 282.462,368.189 281.544,369.349 281.736 C 371.301 282.058,372.606 281.402,370.800 281.006 C 369.023 280.617,368.672 280.054,369.459 278.854 C 369.944 278.113,369.987 277.690,369.651 276.952 C 369.393 276.386,369.353 275.640,369.552 275.102 C 369.997 273.898,369.704 273.200,368.754 273.200 C 367.813 273.200,367.314 272.126,367.957 271.483 C 368.308 271.132,368.623 271.147,369.257 271.543 C 369.823 271.897,370.226 271.934,370.500 271.660 C 371.164 270.996,370.503 270.000,369.400 270.000 C 367.502 270.000,368.154 267.436,370.500 265.679 C 372.051 264.517,371.134 262.141,369.400 262.827 C 367.520 263.571,366.338 263.279,366.473 262.103 C 366.557 261.379,366.871 260.958,367.400 260.863 C 367.840 260.785,368.560 260.399,369.000 260.007 C 369.440 259.615,370.379 259.001,371.086 258.644 C 372.469 257.945,372.521 256.800,371.171 256.800 C 368.764 256.800,366.817 254.882,367.800 253.478 C 368.982 251.791,368.601 250.800,366.771 250.800 C 365.291 250.800,365.200 250.743,365.771 250.171 C 366.117 249.826,366.400 248.959,366.400 248.246 C 366.400 247.151,366.624 246.841,367.831 246.266 C 369.713 245.368,369.431 244.791,366.739 244.027 C 364.769 243.469,362.015 241.817,362.439 241.449 C 363.096 240.876,364.560 240.399,365.674 240.394 C 367.565 240.385,368.386 239.784,366.987 239.432 C 364.893 238.907,363.655 237.187,363.887 235.127 C 364.053 233.655,363.948 233.204,363.335 232.755 C 360.824 230.915,360.357 229.278,361.996 228.066 C 363.545 226.921,364.995 227.235,365.553 228.837 C 366.134 230.504,366.800 230.271,366.800 228.400 C 366.800 227.082,366.663 226.800,366.023 226.800 C 365.595 226.800,365.010 226.485,364.723 226.100 C 364.053 225.203,361.460 224.000,360.197 224.000 C 358.895 224.000,357.841 222.071,358.375 220.665 C 358.899 219.286,358.469 218.032,356.929 216.446 C 355.401 214.873,355.369 214.724,356.258 213.368 C 357.141 212.020,356.374 208.949,355.274 209.428 C 352.795 210.509,350.360 209.595,351.714 208.092 C 353.104 206.550,353.006 205.285,351.440 204.539 C 349.842 203.777,349.722 203.528,350.600 202.800 C 352.063 201.586,351.045 199.559,349.485 200.581 C 347.483 201.893,346.746 200.425,348.300 198.221 C 349.015 197.206,349.600 196.267,349.600 196.132 C 349.600 195.998,349.915 195.655,350.300 195.371 C 350.870 194.950,350.905 194.757,350.487 194.334 C 350.067 193.908,349.931 193.976,349.740 194.707 C 349.443 195.845,348.242 195.867,346.436 194.765 C 345.298 194.072,344.923 194.013,344.179 194.411 C 343.424 194.816,343.097 194.748,342.044 193.969 C 340.393 192.748,340.463 192.077,342.259 191.924 C 343.209 191.843,343.873 191.524,344.159 191.009 C 344.402 190.574,344.870 190.002,345.200 189.738 C 345.906 189.172,345.458 188.918,343.400 188.717 C 342.116 188.592,341.681 185.657,342.508 182.700 C 342.793 181.678,342.731 181.600,341.629 181.600 C 340.730 181.600,340.317 181.335,339.919 180.500 C 339.473 179.566,339.112 179.382,337.529 179.279 C 335.187 179.128,333.223 177.052,334.017 175.568 C 334.710 174.273,334.176 172.800,333.015 172.800 C 331.604 172.800,329.232 171.268,328.959 170.179 C 328.761 169.391,328.609 169.313,328.004 169.690 C 325.964 170.965,322.501 167.562,322.980 164.755 C 323.306 162.843,321.385 162.440,320.346 164.202 C 318.761 166.887,316.998 165.921,318.071 162.955 C 318.598 161.497,318.023 160.319,316.839 160.431 C 314.892 160.617,314.667 160.463,315.354 159.414 C 316.196 158.130,316.173 158.001,315.100 157.994 C 314.437 157.990,313.911 157.464,313.100 155.994 C 312.387 154.700,311.736 154.000,311.249 154.000 C 310.294 154.000,309.505 153.063,309.665 152.118 C 309.733 151.717,309.369 150.969,308.856 150.456 L 307.924 149.524 308.883 148.462 C 310.395 146.788,309.955 145.713,307.272 144.527 C 305.516 143.750,304.854 143.624,304.311 143.963 C 303.281 144.606,302.979 144.511,302.464 143.381 C 301.757 141.830,301.900 140.924,302.900 140.620 C 303.467 140.447,303.610 140.268,303.287 140.135 C 303.004 140.019,302.554 140.105,302.287 140.327 C 302.019 140.548,301.326 140.638,300.746 140.527 L 299.692 140.324 300.221 138.322 C 300.511 137.221,301.055 135.981,301.430 135.567 C 302.265 134.644,301.733 133.811,300.091 133.469 C 298.980 133.237,297.035 131.666,296.690 130.721 C 296.534 130.294,296.401 130.295,295.950 130.727 C 295.485 131.172,295.522 131.344,296.185 131.833 C 296.883 132.349,296.916 132.557,296.479 133.706 C 296.019 134.918,296.061 135.063,297.149 136.000 C 299.074 137.659,299.659 140.000,298.148 140.000 C 297.841 140.000,297.236 140.220,296.805 140.490 C 295.501 141.304,294.983 140.355,295.109 137.380 C 295.226 134.595,295.082 134.446,293.277 135.482 C 290.720 136.949,288.015 133.299,290.400 131.600 C 292.834 129.867,290.724 126.733,287.862 127.832 C 286.743 128.261,286.298 127.615,286.987 126.563 C 287.335 126.033,287.433 125.600,287.207 125.600 C 286.980 125.600,286.403 125.150,285.925 124.600 C 285.447 124.050,284.812 123.600,284.515 123.600 C 282.616 123.600,281.100 122.412,281.744 121.429 C 282.367 120.478,282.351 120.446,281.048 120.016 C 279.465 119.493,277.200 116.837,277.200 115.503 C 277.200 114.203,276.478 113.600,274.920 113.600 C 273.437 113.600,273.196 113.044,274.400 112.400 C 274.840 112.165,275.200 111.718,275.200 111.409 C 275.200 111.099,275.598 110.567,276.084 110.226 C 277.598 109.166,276.439 108.803,273.775 109.505 C 271.230 110.175,271.152 110.162,268.600 108.641 C 267.577 108.031,266.956 107.347,266.877 106.743 C 266.809 106.225,266.137 105.350,265.385 104.800 C 264.632 104.250,263.908 103.475,263.774 103.077 C 263.506 102.279,262.056 101.600,260.620 101.600 C 260.072 101.600,259.424 101.191,259.037 100.600 C 258.408 99.641,256.400 99.148,256.400 99.953 C 256.400 100.148,256.085 100.418,255.700 100.554 C 255.315 100.689,254.748 100.915,254.439 101.054 C 253.993 101.255,253.926 101.009,254.114 99.853 L 254.350 98.399 252.802 98.646 C 251.597 98.839,250.992 98.706,250.066 98.047 C 249.412 97.581,248.679 97.200,248.438 97.200 C 247.812 97.200,247.897 96.445,248.604 95.738 C 249.675 94.668,247.360 91.020,246.260 92.044 C 245.310 92.930,244.400 92.419,244.400 91.001 C 244.400 89.244,243.892 87.600,243.350 87.600 C 243.048 87.600,242.799 87.825,242.799 88.100 C 242.794 89.653,239.939 91.989,238.779 91.389 C 238.152 91.065,237.187 90.800,236.634 90.800 C 235.542 90.800,234.800 89.812,234.800 88.357 L 234.800 87.461 233.874 88.330 C 232.691 89.442,231.691 89.443,231.528 88.331 C 231.458 87.854,231.148 87.379,230.839 87.278 C 230.402 87.134,230.328 87.404,230.506 88.497 C 230.788 90.234,229.364 91.345,227.970 90.474 C 227.541 90.206,226.774 90.092,226.265 90.219 C 225.681 90.366,225.150 90.221,224.821 89.826 C 224.233 89.116,222.579 88.987,222.188 89.619 C 221.761 90.311,220.849 89.265,220.566 87.760 C 220.271 86.189,219.600 85.929,219.600 87.386 C 219.600 88.951,218.308 89.379,217.186 88.185 C 216.327 87.271,216.211 87.247,215.546 87.849 C 214.472 88.821,213.478 88.265,213.786 86.864 C 214.128 85.306,213.182 84.498,211.769 85.141 C 209.006 86.400,208.250 85.128,210.225 82.540 C 211.854 80.406,211.769 80.039,209.854 80.948 C 209.098 81.306,208.281 81.600,208.040 81.600 C 207.798 81.600,207.600 81.849,207.600 82.154 C 207.600 82.727,205.949 84.000,205.205 84.000 C 204.973 84.000,204.572 83.537,204.314 82.970 C 203.452 81.079,202.016 80.700,200.018 81.835 L 198.291 82.815 196.807 81.208 C 195.100 79.358,194.915 79.321,192.800 80.400 C 190.833 81.404,191.011 81.436,190.062 79.900 C 189.276 78.630,189.193 78.600,186.443 78.614 C 183.713 78.628,183.635 78.601,183.856 77.720 C 184.228 76.237,178.626 75.583,178.111 77.049 C 177.322 79.296,175.185 80.616,174.453 79.308 C 174.023 78.540,174.333 77.206,174.947 77.182 C 175.196 77.173,174.698 76.915,173.840 76.609 C 172.982 76.303,172.135 75.818,171.957 75.530 C 171.699 75.112,171.386 75.154,170.400 75.736 C 168.800 76.682,166.000 76.335,166.000 75.192 C 166.000 74.786,166.315 74.351,166.700 74.225 C 167.085 74.099,167.795 73.386,168.277 72.639 L 169.154 71.281 168.286 71.054 C 167.808 70.929,166.995 71.105,166.476 71.445 C 165.487 72.093,164.446 71.415,164.413 70.100 C 164.390 69.200,163.633 69.575,163.000 70.800 C 162.659 71.460,162.150 72.000,161.869 72.000 C 161.142 72.000,159.207 72.943,159.203 73.300 C 159.197 73.886,156.490 73.611,156.255 73.000 C 155.961 72.233,155.023 72.235,153.847 73.006 C 152.911 73.619,152.424 73.425,150.263 71.574 C 150.078 71.416,150.129 70.907,150.377 70.443 C 150.780 69.690,150.721 69.600,149.826 69.600 C 148.933 69.600,148.830 69.756,148.878 71.036 C 148.939 72.653,148.385 73.185,146.631 73.194 C 145.021 73.202,143.894 72.146,144.435 71.135 C 144.985 70.107,144.521 68.800,143.606 68.800 C 142.567 68.800,142.395 69.607,143.153 70.930 C 143.760 71.990,143.754 72.093,143.049 72.611 C 142.024 73.364,140.641 71.844,141.275 70.660 C 141.543 70.160,141.539 69.779,141.264 69.504 C 140.647 68.887,139.679 69.430,139.531 70.476 C 139.444 71.090,139.131 71.400,138.600 71.400 C 137.561 71.400,137.192 68.931,138.174 68.554 C 138.519 68.422,138.800 68.044,138.800 67.714 C 138.800 67.340,138.575 67.206,138.200 67.357 C 137.870 67.491,137.375 67.690,137.100 67.801 C 136.825 67.911,136.278 67.434,135.884 66.741 L 135.169 65.480 134.062 66.540 C 132.592 67.949,130.138 68.041,129.644 66.707 L 129.313 65.813 129.030 66.707 C 128.715 67.699,127.975 67.841,126.834 67.128 C 126.229 66.751,125.874 66.791,125.055 67.327 C 124.012 68.010,121.679 67.014,120.721 65.476 C 120.493 65.110,120.238 65.116,119.618 65.500 C 116.669 67.327,106.421 65.566,108.249 63.546 C 108.914 62.811,108.759 61.600,108.000 61.600 C 107.766 61.600,107.491 61.870,107.387 62.200 M81.649 63.741 C 81.163 64.327,81.439 64.800,82.267 64.800 C 82.863 64.800,82.997 63.769,82.445 63.428 C 82.250 63.307,81.892 63.448,81.649 63.741 M78.656 63.878 C 78.205 64.328,78.381 64.800,79.000 64.800 C 79.330 64.800,79.600 64.631,79.600 64.424 C 79.600 63.919,78.975 63.558,78.656 63.878 M135.076 73.100 C 134.975 73.485,134.893 73.170,134.893 72.400 C 134.893 71.630,134.975 71.315,135.076 71.700 C 135.176 72.085,135.176 72.715,135.076 73.100 M46.400 76.336 C 46.400 78.255,44.896 79.287,44.057 77.943 C 43.465 76.995,43.775 76.400,44.861 76.400 C 45.338 76.400,45.761 76.069,45.884 75.600 C 46.206 74.369,46.400 74.645,46.400 76.336 M267.759 105.800 C 267.040 106.344,267.058 106.375,268.100 106.387 C 268.705 106.394,269.200 106.231,269.200 106.024 C 269.200 105.327,268.523 105.222,267.759 105.800 M28.475 114.900 C 28.582 116.013,28.773 116.219,29.800 116.335 C 30.460 116.410,31.229 116.661,31.510 116.892 C 31.790 117.124,32.131 117.203,32.267 117.066 C 32.403 116.930,32.219 116.705,31.857 116.567 C 31.496 116.428,31.200 115.920,31.200 115.437 C 31.200 114.297,30.477 113.600,29.295 113.600 C 28.469 113.600,28.365 113.765,28.475 114.900 M25.026 118.358 C 24.758 118.791,25.921 119.296,26.443 118.974 C 26.646 118.848,26.709 118.577,26.583 118.372 C 26.290 117.898,25.316 117.889,25.026 118.358 M33.654 126.106 C 33.443 126.317,33.074 126.369,32.835 126.222 C 32.289 125.884,32.266 124.530,32.800 124.200 C 33.020 124.064,33.220 123.468,33.245 122.876 C 33.273 122.203,33.430 122.535,33.664 123.761 C 33.902 125.004,33.898 125.862,33.654 126.106 M108.796 132.300 C 109.602 133.517,109.889 133.435,110.198 131.900 C 110.666 129.575,110.844 129.200,111.483 129.200 C 111.829 129.200,112.330 129.499,112.597 129.864 C 113.038 130.467,113.163 130.471,113.967 129.908 C 115.177 129.061,117.135 129.779,117.471 131.194 C 118.039 133.583,118.869 133.734,119.707 131.600 L 120.336 130.000 123.092 130.000 C 125.329 130.000,126.017 130.156,126.740 130.830 C 127.230 131.286,128.901 131.958,130.453 132.322 C 132.800 132.873,133.371 133.171,133.848 134.092 C 134.299 134.965,134.702 135.200,135.748 135.200 C 136.568 135.200,137.353 135.506,137.800 136.000 C 138.938 137.257,140.559 137.086,140.222 135.744 C 139.828 134.173,142.548 134.648,143.909 136.388 C 144.623 137.300,145.184 137.600,146.175 137.600 C 146.899 137.600,147.959 137.967,148.530 138.416 L 149.568 139.232 150.404 138.396 C 151.374 137.426,152.313 137.592,154.262 139.076 C 155.353 139.907,155.795 140.002,157.511 139.774 C 159.924 139.454,160.663 140.127,159.127 141.246 L 158.132 141.971 160.053 144.017 C 161.874 145.956,162.019 146.032,162.836 145.460 C 163.491 145.001,163.948 144.954,164.749 145.262 C 165.327 145.485,166.642 145.557,167.670 145.424 C 169.786 145.148,170.326 145.543,169.180 146.525 C 167.566 147.906,168.528 151.332,170.219 150.224 C 171.156 149.610,171.201 149.633,171.962 151.125 L 172.742 152.655 175.234 152.475 C 177.553 152.307,177.704 152.347,177.409 153.047 C 176.218 155.873,180.692 157.141,182.817 154.580 C 183.496 153.761,184.302 153.861,184.600 154.800 C 184.880 155.682,186.557 155.916,187.037 155.140 C 187.213 154.855,187.606 155.236,188.070 156.140 C 188.845 157.650,189.854 158.047,190.255 157.000 C 190.638 156.004,191.520 156.325,191.791 157.559 C 191.931 158.196,192.416 159.051,192.869 159.459 C 193.321 159.866,193.844 160.598,194.030 161.085 C 194.323 161.851,194.518 161.918,195.484 161.587 C 196.695 161.171,198.772 161.555,198.806 162.200 C 198.817 162.420,198.146 162.690,197.313 162.800 C 196.324 162.931,195.800 163.208,195.800 163.600 C 195.800 164.252,199.467 164.948,201.054 164.597 C 202.465 164.285,203.084 165.442,201.983 166.333 C 200.965 167.157,201.172 167.857,202.593 168.397 C 203.245 168.645,203.712 169.392,204.216 170.996 C 204.813 172.892,205.161 173.368,206.425 174.013 C 207.650 174.638,207.973 175.058,208.183 176.297 C 208.604 178.791,208.990 179.137,210.141 178.055 C 211.111 177.144,211.128 177.143,211.383 177.945 C 211.525 178.393,211.992 178.870,212.420 179.006 C 212.849 179.143,213.200 179.396,213.200 179.569 C 213.200 180.752,216.166 183.667,217.166 183.467 C 217.996 183.301,218.318 183.447,218.617 184.125 C 218.827 184.604,219.495 185.232,220.100 185.520 C 220.910 185.906,221.200 186.336,221.200 187.155 C 221.200 188.714,221.412 188.793,223.212 187.902 C 225.219 186.909,225.826 187.147,226.185 189.068 C 226.528 190.904,227.041 191.600,228.049 191.600 C 228.462 191.600,228.805 191.375,228.812 191.100 C 228.819 190.823,229.006 190.912,229.232 191.300 C 229.456 191.685,229.879 192.000,230.171 192.000 C 230.463 192.000,230.949 192.339,231.251 192.754 C 232.075 193.887,234.684 194.164,235.214 193.175 C 235.674 192.314,236.801 192.118,236.798 192.900 C 236.796 193.175,236.526 193.916,236.198 194.546 C 235.198 196.462,236.282 197.600,239.105 197.600 C 240.152 197.600,240.428 198.007,240.137 199.121 C 239.952 199.827,239.775 199.908,239.148 199.572 C 237.973 198.943,237.657 199.419,237.657 201.819 L 237.657 204.026 238.986 203.776 C 239.718 203.639,240.682 203.723,241.130 203.963 C 241.759 204.299,242.081 204.262,242.544 203.799 C 243.380 202.963,243.931 203.043,245.678 204.254 C 247.434 205.471,247.660 206.400,246.200 206.400 C 245.345 206.400,245.200 206.583,245.200 207.662 C 245.200 208.859,245.238 208.890,245.931 208.262 C 247.032 207.266,248.560 207.455,249.958 208.760 C 251.185 209.907,251.577 211.320,250.800 211.800 C 250.282 212.120,250.282 212.800,250.800 212.800 C 251.020 212.800,251.200 212.530,251.200 212.200 C 251.200 211.474,251.473 211.462,253.794 212.083 C 255.609 212.568,256.223 213.200,254.880 213.200 C 253.958 213.200,253.200 213.958,253.200 214.880 C 253.200 215.276,253.020 215.600,252.800 215.600 C 252.580 215.600,252.400 215.870,252.400 216.200 C 252.400 216.530,252.518 216.800,252.662 216.800 C 253.262 216.800,255.600 214.714,255.600 214.180 C 255.600 213.330,255.877 213.454,257.206 214.900 C 257.930 215.687,258.332 216.496,258.225 216.949 C 258.128 217.362,258.395 218.172,258.818 218.749 C 259.569 219.777,259.282 222.051,258.274 223.059 C 257.654 223.680,258.071 224.048,259.131 223.815 C 262.278 223.124,264.032 227.033,261.067 228.129 C 260.134 228.474,260.404 229.362,261.492 229.523 C 261.983 229.595,262.915 229.123,263.781 228.363 C 265.795 226.595,266.164 227.108,266.184 231.704 L 266.200 235.400 267.600 235.529 C 270.067 235.756,271.921 238.107,270.535 239.251 C 269.876 239.794,271.882 240.139,278.000 240.535 C 279.932 240.659,280.215 240.912,280.812 243.043 C 281.428 245.244,283.275 247.239,285.217 247.800 C 286.526 248.179,286.614 248.317,286.867 250.391 C 287.200 253.114,287.143 253.200,285.025 253.200 C 283.185 253.200,282.143 253.953,282.543 254.995 C 282.688 255.373,283.292 255.600,284.155 255.600 C 287.256 255.600,288.754 257.327,287.958 259.984 C 287.180 262.579,288.734 264.706,290.280 263.160 C 290.599 262.841,290.793 263.057,290.989 263.951 C 291.439 265.997,290.959 266.798,289.273 266.816 L 287.800 266.832 288.900 267.429 C 289.744 267.887,290.002 268.325,290.009 269.313 C 290.014 270.021,290.370 271.050,290.800 271.600 C 291.230 272.150,291.586 272.825,291.591 273.100 C 291.606 273.948,292.673 273.653,293.355 272.613 C 294.118 271.448,294.794 271.604,295.711 273.156 C 296.461 274.427,296.288 274.800,294.947 274.800 C 293.984 274.800,293.181 275.845,293.487 276.700 C 293.586 276.975,294.157 277.200,294.757 277.200 C 297.486 277.200,298.028 279.576,295.600 280.898 C 292.731 282.461,292.227 284.817,294.594 285.598 C 296.382 286.188,296.581 286.552,295.782 287.771 C 295.424 288.318,295.247 288.953,295.389 289.182 C 295.721 289.719,298.673 289.728,299.004 289.193 C 299.403 288.548,300.000 289.157,300.000 290.210 C 300.000 290.801,299.653 291.354,299.100 291.644 C 298.605 291.904,298.050 292.370,297.868 292.681 C 297.685 292.991,297.100 293.410,296.568 293.612 C 296.035 293.815,295.600 294.165,295.600 294.390 C 295.600 294.994,296.930 294.888,297.824 294.213 C 299.440 292.990,300.000 293.404,300.000 295.819 C 300.000 297.864,299.907 298.090,298.803 298.719 C 297.289 299.580,297.251 300.400,298.725 300.400 C 301.100 300.400,303.441 304.353,301.836 305.653 C 299.601 307.462,301.704 315.494,303.992 313.891 C 304.822 313.309,304.975 313.385,307.132 315.449 C 308.982 317.218,309.289 317.689,308.800 318.003 C 307.802 318.643,306.477 318.449,305.628 317.538 L 304.826 316.677 303.213 317.744 C 301.335 318.987,301.356 318.911,302.424 320.638 C 303.120 321.764,303.419 321.936,304.358 321.748 C 306.712 321.278,307.339 324.455,305.126 325.639 C 304.692 325.872,304.150 326.599,303.921 327.255 C 303.613 328.139,303.335 328.377,302.852 328.173 C 300.401 327.136,298.942 327.848,300.380 329.379 C 301.280 330.337,301.399 330.362,302.281 329.784 C 304.178 328.541,305.240 331.519,303.449 333.059 C 302.579 333.808,302.400 334.301,302.400 335.947 C 302.400 337.649,302.244 338.047,301.308 338.729 L 300.216 339.524 300.957 341.062 C 302.297 343.840,302.407 344.669,301.566 345.639 C 300.739 346.593,300.507 349.718,301.185 350.789 C 301.629 351.491,301.888 350.981,302.083 349.023 C 302.178 348.070,302.448 347.782,303.500 347.512 C 304.215 347.328,304.800 347.002,304.800 346.789 C 304.800 346.575,304.949 346.400,305.131 346.400 C 305.648 346.400,305.178 348.720,304.556 349.236 C 303.778 349.882,303.862 351.480,304.700 351.968 C 305.298 352.317,305.240 352.377,304.300 352.388 C 303.498 352.397,303.200 352.602,303.200 353.146 C 303.200 353.556,302.837 354.353,302.394 354.917 L 301.587 355.943 302.492 356.071 C 303.721 356.246,304.965 358.890,304.610 360.568 C 304.466 361.246,304.251 362.578,304.132 363.528 C 303.958 364.911,303.704 365.346,302.858 365.709 C 301.325 366.366,301.327 366.352,302.578 367.350 C 304.590 368.954,305.715 374.499,304.076 374.731 C 303.567 374.803,303.050 375.125,302.927 375.446 C 302.804 375.767,302.095 376.284,301.351 376.594 C 299.121 377.526,300.415 379.644,303.518 380.140 C 306.172 380.565,305.787 381.600,302.974 381.600 C 299.414 381.600,297.790 383.080,300.497 383.856 C 301.305 384.088,301.844 384.525,301.926 385.014 C 301.998 385.446,302.520 386.187,303.086 386.661 C 304.361 387.728,304.080 388.724,302.409 389.058 C 301.111 389.318,300.905 389.939,301.696 391.205 C 302.091 391.838,302.091 392.162,301.696 392.795 C 300.939 394.007,301.084 395.245,302.011 395.487 C 303.050 395.759,302.743 397.029,301.330 398.313 C 300.388 399.169,300.364 399.285,300.943 400.169 C 301.510 401.035,301.499 401.167,300.803 401.797 C 300.018 402.507,300.019 402.515,301.341 405.148 C 302.107 406.674,301.803 407.362,300.184 407.768 C 298.851 408.103,298.864 409.957,300.217 412.265 C 301.321 414.148,301.641 414.315,302.400 413.400 C 303.049 412.618,303.600 412.635,303.600 413.437 C 303.600 413.788,303.250 414.166,302.822 414.278 C 302.395 414.390,301.990 414.862,301.922 415.327 C 301.841 415.892,301.364 416.298,300.487 416.548 C 298.971 416.981,298.981 417.743,300.506 417.924 C 301.137 417.999,301.995 418.619,302.675 419.492 C 303.294 420.286,304.205 421.297,304.700 421.740 C 305.913 422.824,305.840 423.141,304.217 423.819 C 303.110 424.281,302.736 424.737,302.349 426.098 C 302.082 427.034,301.576 428.160,301.225 428.600 C 300.873 429.040,300.179 429.985,299.681 430.700 L 298.776 431.999 299.554 433.696 C 300.288 435.296,300.294 435.456,299.666 436.523 C 299.043 437.582,299.044 437.678,299.684 438.038 C 300.060 438.249,300.488 439.092,300.635 439.911 C 300.782 440.730,301.048 441.670,301.227 442.000 C 301.486 442.479,301.135 442.682,299.479 443.008 C 296.270 443.640,296.426 446.000,299.678 446.000 C 301.114 446.000,301.200 446.057,300.629 446.629 C 300.283 446.974,300.000 447.524,300.000 447.849 C 300.000 448.175,299.470 448.626,298.823 448.852 C 297.491 449.316,297.160 450.649,297.709 453.345 C 298.311 456.295,296.182 456.955,293.787 454.560 C 292.995 453.768,292.240 453.227,292.109 453.358 C 291.675 453.792,292.897 456.740,293.856 457.574 C 295.056 458.617,295.042 458.950,293.759 459.790 L 292.719 460.472 293.680 461.536 C 294.602 462.555,294.800 464.400,293.988 464.400 C 293.379 464.400,292.080 466.026,291.801 467.137 C 291.389 468.780,290.873 469.208,289.800 468.800 C 289.130 468.545,288.729 468.604,288.397 469.004 C 287.811 469.710,288.212 470.400,289.208 470.400 C 290.654 470.400,291.158 473.403,289.880 474.409 C 288.735 475.309,288.815 476.282,290.050 476.477 C 291.035 476.632,291.223 477.346,290.325 477.519 C 289.953 477.591,289.278 477.278,288.825 476.825 C 287.883 475.883,286.701 475.756,286.060 476.527 C 285.576 477.110,286.318 478.459,287.788 479.669 C 288.598 480.336,288.598 480.340,287.546 481.469 C 286.966 482.091,286.183 483.210,285.807 483.956 L 285.122 485.312 284.380 483.656 C 283.525 481.746,283.140 481.622,282.255 482.973 C 281.904 483.508,281.119 484.021,280.509 484.113 L 279.400 484.280 280.600 484.353 C 282.546 484.471,283.456 485.388,282.951 486.724 C 282.640 487.547,282.673 488.242,283.075 489.405 C 283.702 491.216,283.528 492.000,282.500 492.000 C 282.095 492.000,281.558 492.486,281.283 493.100 C 281.013 493.705,280.518 494.650,280.184 495.200 C 279.850 495.750,279.636 496.785,279.708 497.500 C 279.795 498.363,279.666 498.800,279.323 498.800 C 279.039 498.800,278.593 499.143,278.331 499.562 C 277.965 500.148,277.646 500.246,276.958 499.984 C 275.495 499.428,274.872 500.567,276.173 501.419 C 276.738 501.789,277.200 502.341,277.200 502.646 C 277.200 502.951,277.400 503.200,277.645 503.200 C 277.928 503.200,278.001 503.638,277.845 504.400 C 277.710 505.060,277.489 506.143,277.354 506.806 C 277.216 507.478,276.608 508.367,275.977 508.816 C 275.356 509.259,274.735 509.976,274.597 510.410 C 274.438 510.911,273.991 511.200,273.373 511.200 C 272.579 511.200,272.400 511.402,272.399 512.300 C 272.396 514.135,270.982 516.061,269.846 515.776 C 269.136 515.598,268.409 515.904,267.015 516.968 C 265.983 517.756,264.838 518.405,264.469 518.412 C 263.863 518.423,263.865 518.462,264.500 518.832 C 265.551 519.444,265.378 520.673,264.209 520.896 C 262.987 521.130,262.800 520.955,262.800 519.576 C 262.800 518.100,261.890 517.856,260.169 518.871 C 258.002 520.150,257.198 522.800,258.976 522.800 C 260.303 522.800,260.517 523.297,260.196 525.628 C 259.823 528.341,258.524 529.104,255.835 528.191 C 253.237 527.309,250.767 527.961,250.008 529.728 C 249.708 530.428,249.400 531.099,249.324 531.220 C 249.249 531.341,249.841 532.205,250.642 533.141 C 252.427 535.227,250.498 537.337,248.018 536.010 C 246.946 535.436,246.800 535.487,246.800 536.432 C 246.800 537.140,246.971 537.226,247.948 537.011 C 248.913 536.799,249.136 536.906,249.348 537.680 C 249.719 539.030,247.528 541.004,246.355 540.376 C 245.136 539.723,244.325 540.207,244.473 541.498 C 244.571 542.349,244.896 542.687,245.900 542.983 C 247.591 543.481,247.536 544.323,245.721 545.700 C 244.142 546.898,243.554 547.018,242.368 546.383 C 241.301 545.812,240.721 547.146,241.763 547.774 C 243.760 548.978,243.778 549.010,243.064 550.030 C 242.699 550.552,242.400 551.478,242.400 552.089 C 242.400 553.195,241.520 553.642,241.000 552.800 C 240.696 552.308,237.330 552.266,237.030 552.751 C 236.911 552.944,237.440 553.767,238.207 554.580 C 239.753 556.219,239.692 556.094,239.357 556.967 C 239.024 557.836,236.949 557.788,236.432 556.900 C 236.092 556.317,236.022 556.410,236.012 557.457 C 236.005 558.185,236.240 558.806,236.570 558.933 C 237.852 559.425,239.013 563.556,238.186 564.687 C 237.736 565.302,237.608 565.208,236.963 563.787 L 236.242 562.200 236.089 563.589 C 235.994 564.456,236.122 565.041,236.431 565.144 C 236.703 565.234,236.402 565.530,235.763 565.802 C 234.745 566.233,234.489 566.194,233.712 565.489 C 232.778 564.641,231.600 565.041,231.600 566.206 C 231.600 567.056,230.336 567.266,229.542 566.548 C 228.837 565.909,228.800 565.929,228.800 566.938 C 228.800 567.853,228.967 568.000,230.010 568.000 C 230.919 568.000,231.311 568.239,231.585 568.961 C 232.107 570.334,232.695 570.561,233.818 569.825 C 234.786 569.191,234.800 569.199,234.800 570.391 C 234.800 571.476,234.673 571.600,233.562 571.600 C 231.654 571.600,230.072 572.962,229.544 575.058 C 229.142 576.652,228.985 576.833,228.177 576.630 C 226.739 576.269,226.000 576.757,226.000 578.069 C 226.000 580.178,225.350 580.869,223.471 580.757 C 222.552 580.702,221.407 580.869,220.926 581.129 C 220.446 581.388,219.585 581.600,219.013 581.600 C 217.988 581.600,217.100 582.859,217.459 583.805 C 217.620 584.230,220.356 585.200,221.394 585.200 C 221.727 585.200,222.000 585.380,222.000 585.600 C 222.000 585.820,221.662 586.000,221.249 586.000 C 220.836 586.000,220.280 586.263,220.014 586.584 C 219.747 586.905,218.286 587.760,216.767 588.484 C 215.248 589.208,213.903 590.111,213.778 590.492 C 213.653 590.872,213.022 591.496,212.376 591.878 C 211.506 592.392,211.200 592.873,211.200 593.729 C 211.200 594.673,211.071 594.833,210.500 594.598 C 209.026 593.994,208.648 594.212,208.047 596.013 L 207.442 597.826 205.460 597.813 C 203.115 597.798,202.520 598.583,204.583 598.970 C 208.056 599.622,205.128 607.106,201.584 606.636 C 198.303 606.200,197.796 607.167,200.344 608.998 C 203.143 611.009,202.879 611.359,198.368 611.609 C 194.615 611.817,194.596 611.814,193.655 610.688 C 192.027 608.743,191.014 610.109,192.054 612.846 C 192.930 615.149,192.855 615.409,191.223 615.735 C 190.291 615.922,189.956 616.262,189.694 617.287 C 189.331 618.706,186.276 620.772,184.514 620.791 C 183.605 620.800,182.700 621.476,180.074 624.107 C 178.760 625.423,178.405 625.581,177.270 625.354 C 176.085 625.117,175.929 625.204,175.498 626.347 C 174.907 627.910,174.629 627.919,173.996 626.391 C 173.329 624.779,172.904 624.582,171.952 625.443 C 171.298 626.035,171.017 626.078,170.383 625.682 C 169.337 625.029,169.302 625.042,168.639 626.324 C 168.012 627.537,168.189 628.106,169.322 628.525 C 170.344 628.903,167.986 632.400,166.709 632.400 C 164.364 632.400,162.400 630.842,162.400 628.981 C 162.400 628.662,162.211 628.400,161.979 628.400 C 161.724 628.400,161.591 629.304,161.641 630.700 C 161.697 632.261,161.495 633.443,161.010 634.380 L 160.297 635.760 159.548 634.836 C 159.137 634.327,158.800 633.571,158.800 633.156 C 158.800 632.740,158.620 632.400,158.400 632.400 C 158.180 632.400,158.000 632.878,158.000 633.462 C 158.000 634.046,157.557 635.105,157.016 635.815 C 156.474 636.525,155.745 637.820,155.396 638.694 C 154.741 640.331,152.800 640.791,152.800 639.308 C 152.800 638.845,152.505 638.769,151.500 638.974 C 150.785 639.119,149.570 639.339,148.800 639.463 C 146.371 639.852,144.129 642.891,145.600 643.800 C 146.426 644.310,146.050 645.997,145.100 646.047 C 143.667 646.123,143.044 645.967,142.369 645.364 C 141.677 644.746,138.180 644.584,137.829 645.154 C 137.709 645.348,138.114 645.716,138.729 645.971 C 140.352 646.643,141.377 648.521,140.756 649.683 C 140.303 650.528,140.249 650.538,139.838 649.856 C 138.607 647.816,138.674 647.814,136.479 649.997 C 134.346 652.119,134.137 652.564,134.789 653.596 C 135.855 655.282,131.577 657.227,129.980 655.782 C 129.409 655.265,129.003 655.238,127.497 655.617 L 125.697 656.071 126.279 657.238 C 126.599 657.879,127.207 658.590,127.630 658.816 C 128.054 659.043,128.400 659.492,128.400 659.814 C 128.400 660.685,126.894 660.523,126.400 659.600 C 126.143 659.121,125.562 658.800,124.950 658.800 C 124.386 658.800,123.615 658.413,123.229 657.936 C 122.433 656.954,121.735 657.194,121.185 658.639 C 120.880 659.441,120.545 659.600,119.159 659.600 L 117.498 659.600 117.690 661.592 C 118.004 664.862,116.127 666.947,113.500 666.247 C 111.497 665.713,111.373 665.382,112.526 663.639 C 113.932 661.515,113.833 660.073,112.400 661.800 C 111.833 662.483,110.569 662.598,110.200 662.000 C 109.773 661.310,109.200 661.564,109.200 662.442 C 109.200 662.906,109.650 663.639,110.200 664.071 C 112.033 665.513,110.821 666.360,108.009 665.603 C 106.548 665.209,106.442 665.100,106.990 664.553 C 107.751 663.792,107.750 663.592,106.977 662.488 C 106.418 661.691,106.128 661.625,104.177 661.854 C 102.667 662.032,102.000 661.971,102.000 661.655 C 102.000 661.405,102.276 661.200,102.613 661.200 C 102.949 661.200,103.341 660.885,103.483 660.500 C 103.625 660.115,104.342 659.089,105.077 658.220 C 106.571 656.454,106.589 655.927,105.170 655.595 C 103.888 655.294,103.682 653.868,104.807 653.080 C 105.338 652.709,105.497 652.383,105.229 652.218 C 104.602 651.830,104.705 650.152,105.400 649.457 C 105.933 648.924,105.857 648.746,104.721 647.857 L 103.443 646.857 105.121 646.185 C 106.455 645.651,106.800 645.311,106.800 644.531 C 106.800 643.930,107.266 643.156,108.000 642.539 C 110.169 640.714,109.169 638.614,106.827 640.076 C 106.229 640.449,105.928 640.439,105.432 640.027 C 104.131 638.947,105.082 636.400,106.786 636.400 C 107.280 636.400,108.190 635.975,108.807 635.456 L 109.929 634.511 108.897 633.478 C 108.028 632.610,107.946 632.347,108.381 631.823 C 109.121 630.931,109.510 631.030,111.418 632.593 L 113.118 633.987 113.735 632.445 C 114.742 629.930,114.031 628.245,111.786 627.824 C 109.524 627.399,110.349 625.912,112.640 626.284 C 113.688 626.454,114.046 626.345,114.258 625.793 C 114.582 624.948,113.406 623.938,112.202 624.028 C 109.668 624.218,109.200 624.033,109.200 622.843 C 109.200 622.160,109.458 621.587,109.828 621.445 C 110.897 621.034,110.339 619.461,108.900 618.828 C 107.365 618.152,107.338 618.032,108.452 616.836 C 109.111 616.129,109.576 615.975,110.497 616.159 C 112.034 616.467,111.810 613.941,110.180 612.585 C 108.160 610.905,109.940 607.600,112.866 607.600 C 114.564 607.600,114.706 607.401,113.756 606.351 C 113.192 605.728,113.006 605.708,112.256 606.194 C 111.524 606.668,111.288 606.666,110.629 606.178 C 109.599 605.416,110.110 605.006,112.026 605.056 C 113.427 605.093,113.600 604.993,113.600 604.149 C 113.600 603.627,113.465 603.196,113.300 603.191 C 113.135 603.186,112.550 602.836,112.000 602.413 L 111.000 601.644 112.500 601.017 C 114.155 600.324,114.334 599.832,113.329 598.722 C 112.815 598.154,112.769 597.871,113.129 597.511 C 114.028 596.612,113.679 595.898,112.431 596.081 C 111.006 596.290,110.116 594.941,110.938 593.818 C 111.345 593.260,111.702 593.219,113.201 593.556 C 115.016 593.964,115.579 593.712,115.594 592.486 C 115.603 591.742,114.387 590.001,113.854 589.994 C 113.604 589.991,113.146 589.827,112.836 589.631 C 111.924 589.053,113.026 586.800,114.222 586.800 C 115.271 586.800,115.948 585.388,115.240 584.680 C 114.998 584.438,114.800 583.918,114.800 583.525 C 114.800 583.087,114.259 582.585,113.400 582.226 C 111.183 581.299,111.705 578.081,113.998 578.540 C 114.969 578.734,115.159 578.617,115.391 577.682 C 115.538 577.087,116.025 576.208,116.472 575.730 C 117.436 574.696,117.142 574.000,115.738 574.000 C 114.477 574.000,112.400 572.568,112.400 571.699 C 112.400 571.343,112.014 570.640,111.541 570.138 C 110.591 569.126,110.929 568.267,112.470 567.778 C 113.088 567.582,113.211 567.300,113.018 566.528 C 112.619 564.941,113.102 563.960,114.152 564.224 C 114.843 564.397,115.157 564.214,115.516 563.424 C 115.773 562.861,116.167 562.400,116.391 562.400 C 116.616 562.400,116.800 562.220,116.800 562.000 C 116.800 561.250,115.597 561.598,114.725 562.600 C 113.689 563.792,112.941 563.845,111.609 562.821 C 109.719 561.368,111.620 557.963,114.739 557.215 C 119.353 556.108,118.651 549.600,113.917 549.600 C 112.400 549.600,113.647 548.869,115.629 548.596 C 117.958 548.276,118.112 548.052,117.691 545.600 C 117.408 543.951,117.276 543.790,116.121 543.677 C 115.427 543.609,114.644 543.294,114.381 542.977 C 114.117 542.660,113.626 542.400,113.289 542.400 C 112.756 542.400,112.763 542.304,113.338 541.669 C 114.161 540.759,114.184 539.850,113.400 539.200 C 112.495 538.449,112.652 538.179,114.400 537.493 C 115.375 537.110,115.935 536.657,115.833 536.332 C 115.742 536.040,115.558 535.305,115.426 534.700 C 115.229 533.800,114.968 533.600,113.992 533.600 C 113.337 533.600,112.800 533.420,112.800 533.200 C 112.800 532.980,113.295 532.794,113.900 532.786 C 115.618 532.764,116.751 531.916,118.011 529.711 C 119.280 527.487,119.232 527.343,116.904 526.420 C 115.176 525.735,115.696 522.811,117.549 522.794 C 118.773 522.782,119.322 522.141,119.047 521.043 C 118.841 520.223,118.540 520.000,117.639 520.000 C 116.133 520.000,115.698 518.657,116.926 517.797 C 117.394 517.469,118.008 517.200,118.289 517.200 C 118.570 517.200,118.800 517.020,118.800 516.800 C 118.800 516.580,118.514 516.400,118.165 516.400 C 117.816 516.400,117.324 515.853,117.072 515.184 C 116.810 514.491,116.234 513.873,115.730 513.747 C 114.969 513.556,114.901 513.386,115.235 512.507 C 115.715 511.245,115.653 511.185,113.598 510.909 C 111.473 510.624,111.101 509.762,112.592 508.574 C 113.682 507.705,113.709 507.590,113.450 505.062 C 113.140 502.037,113.925 500.807,116.175 500.791 L 117.400 500.782 116.502 500.091 C 115.807 499.556,115.619 499.036,115.673 497.800 C 115.711 496.920,115.603 495.470,115.433 494.578 C 115.125 492.969,115.135 492.951,116.761 492.217 C 117.663 491.811,118.400 491.399,118.400 491.301 C 118.400 490.658,116.611 488.800,115.992 488.800 C 114.539 488.800,113.243 487.907,112.984 486.728 C 112.692 485.399,113.321 484.400,114.449 484.400 C 114.862 484.400,115.200 484.242,115.200 484.049 C 115.200 483.855,115.747 483.471,116.415 483.194 C 118.112 482.491,117.671 481.800,115.527 481.800 C 113.366 481.800,112.400 481.105,112.400 479.551 C 112.400 478.274,113.116 478.088,115.449 478.757 C 116.817 479.149,117.327 478.956,117.717 477.900 C 118.152 476.720,117.601 476.000,116.257 475.994 C 113.645 475.981,113.198 474.350,115.666 473.835 L 117.000 473.556 115.899 472.965 C 115.042 472.504,114.609 472.474,113.948 472.828 C 112.667 473.514,111.598 470.943,112.845 470.172 C 113.119 470.003,112.811 469.595,112.045 469.110 C 110.508 468.137,110.505 467.971,112.003 467.119 C 113.830 466.079,112.826 464.800,110.181 464.800 C 109.462 464.800,109.200 464.583,109.200 463.987 C 109.200 463.163,109.379 463.045,111.246 462.639 C 112.085 462.457,112.256 462.227,112.112 461.474 C 111.981 460.790,112.212 460.353,112.966 459.859 C 114.318 458.973,114.270 458.560,112.721 457.759 L 111.443 457.098 112.921 456.339 C 114.753 455.400,114.764 455.094,113.000 454.053 C 112.230 453.599,111.600 452.951,111.600 452.613 C 111.600 452.199,111.212 452.000,110.400 452.000 C 109.002 452.000,108.881 451.519,110.000 450.400 C 110.900 449.500,111.071 447.166,110.373 445.330 C 110.002 444.354,110.070 444.102,110.895 443.404 C 113.759 440.976,113.221 437.497,110.194 438.876 C 109.026 439.408,108.479 439.069,109.167 438.240 C 109.468 437.877,109.549 437.133,109.383 436.248 C 109.136 434.934,109.197 434.819,110.259 434.594 C 113.279 433.954,113.320 433.032,110.400 431.398 C 108.708 430.451,108.190 429.940,108.155 429.183 C 108.131 428.642,107.906 427.693,107.655 427.074 C 107.405 426.455,107.200 425.709,107.200 425.417 C 107.200 425.125,106.930 424.782,106.600 424.655 C 104.171 423.723,107.548 418.995,110.332 419.430 C 111.139 419.557,112.250 419.478,112.800 419.255 C 113.435 418.998,113.558 418.841,113.138 418.825 C 112.548 418.803,110.098 417.045,108.366 415.401 C 108.018 415.071,107.275 414.800,106.715 414.800 C 106.156 414.800,105.496 414.557,105.249 414.259 C 104.589 413.464,105.454 411.200,106.419 411.200 C 108.284 411.200,109.690 407.940,108.236 406.986 C 107.339 406.399,107.311 406.279,107.833 405.277 C 108.467 404.062,108.588 401.763,108.035 401.422 C 107.821 401.290,107.852 400.715,108.111 400.031 C 108.465 399.092,108.413 398.559,107.843 397.295 C 107.022 395.476,107.106 393.400,108.000 393.400 C 108.380 393.400,108.673 393.911,108.800 394.795 C 109.007 396.242,109.739 396.695,110.784 396.024 C 111.286 395.702,111.266 395.536,110.647 394.852 C 110.005 394.143,109.970 393.732,110.326 391.127 C 110.716 388.281,110.700 388.177,109.746 387.371 C 108.592 386.396,108.842 385.226,110.542 383.645 C 111.621 382.641,111.515 381.857,110.108 380.451 C 109.588 379.931,109.617 379.062,110.207 377.526 C 110.601 376.498,109.448 375.439,108.493 375.950 C 107.934 376.250,107.564 376.266,107.399 375.998 C 107.262 375.776,107.431 375.486,107.775 375.354 C 108.900 374.923,108.636 369.659,107.397 367.834 C 106.564 366.606,106.472 366.213,106.851 365.505 C 107.232 364.793,107.167 364.541,106.453 363.963 C 105.503 363.193,105.366 362.394,106.063 361.697 C 106.614 361.146,105.855 360.000,104.938 360.000 C 104.149 360.000,103.815 358.905,104.393 358.209 C 104.777 357.745,104.706 357.391,104.037 356.452 C 103.162 355.223,102.913 353.025,103.600 352.600 C 103.820 352.464,104.000 352.023,104.000 351.619 C 104.000 350.674,104.960 350.319,106.654 350.636 C 107.526 350.800,108.000 350.733,108.000 350.445 C 108.000 350.200,107.475 350.000,106.833 350.000 C 104.066 350.000,103.674 348.994,105.808 347.367 C 108.183 345.555,109.603 343.120,108.960 341.960 C 108.668 341.432,108.422 340.685,108.414 340.300 C 108.406 339.915,108.232 339.600,108.027 339.600 C 107.822 339.600,108.454 338.766,109.431 337.746 C 111.474 335.614,111.299 334.607,108.934 334.884 C 107.259 335.079,106.849 334.191,108.144 333.173 C 108.821 332.640,109.154 331.885,109.306 330.537 C 109.442 329.328,109.785 328.465,110.259 328.138 C 112.478 326.608,112.374 325.682,109.990 325.745 C 107.772 325.803,107.160 325.061,108.534 323.980 C 110.789 322.207,110.922 320.000,108.773 320.000 C 108.128 320.000,107.600 319.820,107.600 319.600 C 107.600 319.380,108.044 319.200,108.586 319.200 C 109.626 319.200,110.635 317.904,110.175 317.159 C 110.031 316.926,109.467 316.847,108.922 316.984 C 107.427 317.359,106.513 316.901,106.038 315.538 C 105.490 313.966,105.781 313.517,106.989 314.068 C 108.271 314.652,109.200 314.238,109.200 313.082 C 109.200 312.035,107.883 310.638,106.500 310.219 C 105.159 309.812,105.358 308.231,107.000 306.226 C 108.468 304.435,108.827 302.650,107.800 302.255 C 107.405 302.104,107.200 301.479,107.200 300.427 C 107.200 299.238,106.995 298.718,106.400 298.400 C 105.473 297.904,105.339 297.200,106.171 297.200 C 107.109 297.200,108.051 295.992,107.780 295.138 C 107.305 293.640,108.653 292.305,110.352 292.592 C 111.626 292.807,112.006 292.685,112.925 291.766 C 114.014 290.677,113.853 289.600,112.600 289.600 C 111.606 289.600,111.184 288.601,111.804 287.716 C 112.529 286.681,111.708 285.774,110.364 286.125 C 109.228 286.422,108.400 286.055,108.402 285.257 C 108.411 282.613,110.571 279.200,112.236 279.200 C 112.926 279.200,113.200 278.978,113.200 278.419 C 113.200 277.693,111.296 276.810,109.716 276.802 C 109.450 276.801,109.028 276.035,108.779 275.100 C 108.529 274.165,108.162 273.087,107.963 272.705 C 107.763 272.323,107.619 271.513,107.643 270.905 L 107.685 269.800 108.120 270.900 C 108.588 272.085,109.158 272.282,109.920 271.520 C 110.625 270.815,110.511 270.415,109.500 270.041 C 108.665 269.732,108.600 269.465,108.596 266.354 C 108.592 262.874,108.790 262.416,110.300 262.406 C 111.375 262.399,111.506 261.388,110.500 260.862 C 110.115 260.661,109.206 260.586,108.480 260.696 L 107.159 260.897 107.280 258.348 C 107.386 256.107,107.496 255.800,108.200 255.800 C 108.854 255.800,108.982 256.034,108.902 257.077 C 108.782 258.631,109.214 258.959,110.570 258.341 C 111.597 257.873,112.157 255.200,111.229 255.200 C 111.024 255.200,110.547 254.885,110.168 254.500 C 109.788 254.115,108.501 253.620,107.307 253.400 C 104.724 252.924,104.558 252.472,106.577 251.409 C 109.536 249.850,110.882 245.137,108.536 244.548 C 107.314 244.241,107.440 243.052,108.714 242.871 C 109.212 242.800,109.917 242.288,110.280 241.734 C 110.643 241.180,111.358 240.568,111.870 240.373 C 113.135 239.892,113.038 239.361,111.594 238.858 C 110.708 238.549,110.322 238.110,110.141 237.204 C 110.005 236.526,109.558 235.792,109.147 235.572 C 108.361 235.151,108.092 232.903,108.741 232.180 C 108.929 231.971,109.311 230.948,109.591 229.908 C 109.871 228.867,110.343 227.813,110.641 227.566 C 111.598 226.772,110.586 225.608,108.886 225.546 C 107.876 225.509,107.702 225.434,108.342 225.312 C 109.238 225.142,109.270 225.026,109.007 222.914 C 108.674 220.255,109.736 215.359,110.866 214.336 C 111.942 213.362,111.808 212.067,110.601 211.764 C 109.259 211.428,108.400 211.809,108.400 212.741 C 108.400 213.476,106.870 214.800,106.021 214.800 C 104.597 214.800,108.381 210.544,110.467 209.800 C 112.247 209.165,111.971 208.633,109.628 208.184 C 107.003 207.680,106.563 206.945,108.674 206.588 C 111.263 206.151,111.520 206.006,111.962 204.736 C 112.425 203.408,112.190 201.761,111.399 200.800 C 110.504 199.713,110.427 198.014,111.253 197.572 C 112.263 197.031,112.192 196.390,111.016 195.415 C 109.665 194.295,110.449 192.229,112.386 191.803 C 114.005 191.447,113.922 190.200,112.280 190.200 C 111.503 190.200,111.030 189.905,110.679 189.200 C 110.318 188.473,109.802 188.165,108.791 188.071 C 107.059 187.911,106.280 187.261,107.453 186.954 C 107.941 186.827,108.608 186.037,109.046 185.067 C 109.697 183.628,110.033 183.348,111.500 183.023 C 113.563 182.566,113.712 181.732,111.796 181.373 C 111.023 181.228,110.293 180.950,110.172 180.755 C 110.051 180.560,109.452 180.400,108.841 180.400 C 108.037 180.400,107.600 180.117,107.264 179.381 C 106.683 178.105,106.685 178.003,107.300 177.987 C 109.426 177.933,110.662 173.636,108.995 172.090 C 107.815 170.997,107.915 170.694,109.691 169.972 C 110.411 169.680,111.235 169.116,111.523 168.720 C 111.810 168.324,112.305 168.000,112.623 168.000 C 112.940 168.000,113.200 167.841,113.200 167.647 C 113.200 167.180,111.433 166.724,111.286 167.153 C 110.490 169.471,108.568 169.094,108.646 166.637 C 108.672 165.836,108.987 164.857,109.346 164.460 C 109.955 163.787,109.931 163.675,108.999 162.799 C 108.126 161.979,108.000 161.522,108.000 159.179 C 108.000 156.583,107.962 156.481,106.813 156.005 C 104.028 154.852,104.526 154.265,108.597 153.906 C 110.379 153.748,110.395 152.592,108.622 152.007 C 107.205 151.540,106.538 149.656,107.565 149.021 C 108.088 148.698,109.600 145.473,109.600 144.681 C 109.600 143.843,107.932 143.394,106.890 143.952 C 105.854 144.506,105.553 144.140,106.086 142.972 C 106.593 141.859,105.953 140.800,104.775 140.800 C 103.465 140.800,103.563 140.074,104.934 139.622 C 106.767 139.017,107.502 137.591,106.875 135.857 C 106.301 134.269,106.246 131.200,106.792 131.200 C 107.008 131.200,107.318 130.705,107.480 130.100 L 107.776 129.000 107.988 130.200 C 108.104 130.860,108.468 131.805,108.796 132.300 M130.880 134.080 C 130.227 134.733,130.277 135.200,131.000 135.200 C 131.333 135.200,131.600 134.844,131.600 134.400 C 131.600 133.468,131.526 133.434,130.880 134.080 M109.475 137.122 C 108.223 138.429,108.176 138.628,109.044 138.962 C 109.821 139.260,112.218 137.076,111.820 136.432 C 111.376 135.714,110.607 135.940,109.475 137.122 M26.241 138.333 C 26.112 138.542,26.478 139.021,27.054 139.398 C 28.113 140.093,28.991 139.657,28.663 138.600 C 28.497 138.067,26.539 137.852,26.241 138.333 M29.003 141.595 C 28.663 142.145,29.501 143.200,30.277 143.200 C 31.090 143.200,30.779 141.442,29.937 141.282 C 29.573 141.213,29.152 141.354,29.003 141.595 M313.200 151.000 C 313.200 151.330,313.470 151.600,313.800 151.600 C 314.130 151.600,314.400 151.330,314.400 151.000 C 314.400 150.670,314.130 150.400,313.800 150.400 C 313.470 150.400,313.200 150.670,313.200 151.000 M106.800 161.957 C 106.800 162.448,105.673 162.842,105.424 162.438 C 105.313 162.259,105.337 161.996,105.478 161.856 C 105.859 161.475,106.800 161.547,106.800 161.957 M104.618 163.972 C 104.224 164.608,103.591 164.090,103.871 163.360 C 104.024 162.959,104.242 162.882,104.498 163.138 C 104.714 163.354,104.768 163.729,104.618 163.972 M328.800 172.880 C 328.800 173.526,328.682 173.642,328.355 173.315 C 328.110 173.070,328.031 172.674,328.178 172.435 C 328.592 171.765,328.800 171.914,328.800 172.880 M339.111 182.623 C 340.297 183.453,340.232 183.841,338.825 184.331 C 337.318 184.857,336.501 184.106,337.186 182.826 C 337.716 181.836,337.952 181.811,339.111 182.623 M223.850 185.387 C 224.273 186.487,223.825 186.833,222.857 186.155 C 222.122 185.640,222.036 185.423,222.459 185.155 C 223.238 184.661,223.595 184.721,223.850 185.387 M111.600 187.353 C 111.600 187.708,113.218 187.894,113.423 187.562 C 113.546 187.363,113.187 187.200,112.624 187.200 C 112.061 187.200,111.600 187.269,111.600 187.353 M347.200 192.800 C 347.200 193.020,347.560 193.200,348.000 193.200 C 348.440 193.200,348.800 193.020,348.800 192.800 C 348.800 192.580,348.440 192.400,348.000 192.400 C 347.560 192.400,347.200 192.580,347.200 192.800 M229.800 194.400 C 229.664 194.620,229.923 194.800,230.376 194.800 C 230.829 194.800,231.200 194.620,231.200 194.400 C 231.200 194.180,230.941 194.000,230.624 194.000 C 230.307 194.000,229.936 194.180,229.800 194.400 M222.100 194.676 C 222.485 194.776,223.115 194.776,223.500 194.676 C 223.885 194.575,223.570 194.493,222.800 194.493 C 222.030 194.493,221.715 194.575,222.100 194.676 M233.478 199.856 C 233.104 200.229,233.555 200.800,234.224 200.800 C 234.541 200.800,234.800 200.530,234.800 200.200 C 234.800 199.598,233.956 199.378,233.478 199.856 M362.643 213.433 C 362.210 214.559,362.379 214.800,363.600 214.800 C 364.976 214.800,365.113 214.408,364.069 213.462 C 363.160 212.640,362.949 212.635,362.643 213.433 M28.500 218.276 C 28.885 218.376,29.515 218.376,29.900 218.276 C 30.285 218.175,29.970 218.093,29.200 218.093 C 28.430 218.093,28.115 218.175,28.500 218.276 M32.934 229.027 C 32.548 230.034,33.450 230.628,33.949 229.696 C 34.366 228.916,34.196 228.400,33.521 228.400 C 33.331 228.400,33.067 228.682,32.934 229.027 M364.400 230.833 C 364.400 231.808,365.335 231.670,365.529 230.667 C 365.606 230.272,365.402 230.000,365.029 230.000 C 364.658 230.000,364.400 230.342,364.400 230.833 M30.827 235.976 C 29.595 236.910,28.628 239.848,29.449 240.164 C 30.637 240.620,31.164 240.015,30.710 238.715 C 30.335 237.638,30.393 237.408,31.195 236.804 C 31.696 236.426,32.037 235.919,31.953 235.678 C 31.857 235.402,31.440 235.512,30.827 235.976 M108.572 237.471 C 108.962 238.488,107.819 239.479,107.020 238.817 C 106.679 238.534,106.400 237.964,106.400 237.551 C 106.400 236.582,108.205 236.516,108.572 237.471 M283.079 248.157 C 282.915 248.574,282.875 249.009,282.991 249.124 C 283.355 249.489,283.676 248.891,283.524 248.131 C 283.383 247.435,283.362 247.436,283.079 248.157 M284.622 259.564 C 284.347 260.010,284.767 261.200,285.200 261.200 C 285.633 261.200,286.053 260.010,285.778 259.564 C 285.654 259.364,285.394 259.200,285.200 259.200 C 285.006 259.200,284.746 259.364,284.622 259.564 M111.200 264.855 C 111.200 265.045,111.476 265.200,111.813 265.200 C 112.150 265.200,112.589 265.605,112.788 266.100 C 113.141 266.979,113.150 266.975,113.175 265.947 C 113.194 265.131,112.974 264.850,112.200 264.702 C 111.650 264.597,111.200 264.666,111.200 264.855 M369.108 265.125 C 369.195 265.386,368.982 265.600,368.633 265.600 C 368.285 265.600,368.000 265.315,368.000 264.967 C 368.000 264.260,368.861 264.383,369.108 265.125 M292.000 278.400 C 292.000 278.840,291.987 279.330,291.970 279.490 C 291.954 279.650,292.134 279.845,292.370 279.923 C 292.615 280.005,292.800 279.535,292.800 278.833 C 292.800 278.155,292.620 277.600,292.400 277.600 C 292.180 277.600,292.000 277.960,292.000 278.400 M114.900 279.876 C 115.285 279.976,115.915 279.976,116.300 279.876 C 116.685 279.775,116.370 279.693,115.600 279.693 C 114.830 279.693,114.515 279.775,114.900 279.876 M289.211 284.776 C 288.703 285.105,288.714 285.192,289.288 285.412 C 290.136 285.738,291.219 285.518,291.321 285.000 C 291.428 284.460,289.944 284.302,289.211 284.776 M37.200 290.353 C 37.200 290.797,35.245 291.196,35.001 290.802 C 34.903 290.642,34.937 290.396,35.078 290.256 C 35.464 289.869,37.200 289.949,37.200 290.353 M373.798 294.003 C 373.439 294.583,374.622 294.932,375.880 294.616 C 376.726 294.403,376.833 294.266,376.379 293.979 C 375.604 293.488,374.108 293.502,373.798 294.003 M110.312 299.974 C 109.387 301.386,109.369 301.513,110.025 301.923 C 110.412 302.164,110.849 302.910,110.996 303.581 C 111.204 304.527,111.479 304.800,112.224 304.800 C 113.522 304.800,113.901 303.243,113.044 301.436 C 112.690 300.690,112.400 299.811,112.400 299.482 C 112.400 298.225,111.285 298.487,110.312 299.974 M297.387 303.400 C 297.284 303.730,297.127 304.241,297.037 304.536 C 296.710 305.613,297.453 306.117,298.956 305.835 C 300.660 305.515,300.915 304.406,299.511 303.423 C 298.390 302.637,297.628 302.629,297.387 303.400 M373.028 306.355 C 372.756 306.795,373.775 307.692,374.137 307.330 C 374.282 307.185,374.400 306.827,374.400 306.533 C 374.400 305.937,373.369 305.803,373.028 306.355 M34.000 309.600 C 34.000 310.260,33.838 310.800,33.639 310.800 C 33.441 310.800,33.090 310.260,32.860 309.600 C 32.488 308.534,32.529 308.400,33.221 308.400 C 33.820 308.400,34.000 308.677,34.000 309.600 M26.600 315.584 C 25.857 315.889,25.880 315.943,26.926 316.356 C 28.395 316.935,28.400 316.934,28.400 316.000 C 28.400 315.156,27.917 315.044,26.600 315.584 M299.400 332.000 C 299.256 332.233,299.663 332.400,300.376 332.400 C 301.049 332.400,301.600 332.220,301.600 332.000 C 301.600 331.780,301.161 331.600,300.624 331.600 C 300.087 331.600,299.536 331.780,299.400 332.000 M108.811 346.393 C 108.107 346.828,109.196 347.162,110.179 346.812 C 110.931 346.544,110.930 346.527,110.123 346.316 C 109.664 346.196,109.074 346.231,108.811 346.393 M367.670 359.690 C 367.078 360.282,365.964 359.759,366.247 359.022 C 366.429 358.547,366.654 358.508,367.283 358.844 C 367.839 359.142,367.958 359.402,367.670 359.690 M299.200 367.258 L 299.200 368.517 300.200 367.438 C 300.750 366.844,301.200 366.278,301.200 366.179 C 301.200 366.081,300.750 366.000,300.200 366.000 C 299.345 366.000,299.200 366.183,299.200 367.258 M104.400 368.000 C 104.400 369.780,103.777 370.116,103.215 368.639 C 103.014 368.110,102.658 367.560,102.425 367.415 C 101.614 366.914,102.007 366.400,103.200 366.400 C 104.333 366.400,104.400 366.489,104.400 368.000 M26.658 375.507 C 26.554 375.675,26.903 376.018,27.434 376.269 C 28.412 376.730,29.066 376.355,28.600 375.600 C 28.309 375.130,26.932 375.063,26.658 375.507 M306.400 377.447 C 306.400 377.531,305.939 377.600,305.376 377.600 C 304.813 377.600,304.454 377.437,304.577 377.238 C 304.782 376.906,306.400 377.092,306.400 377.447 M367.806 377.190 C 367.491 377.700,368.146 378.004,368.753 377.629 C 369.154 377.381,369.131 377.259,368.646 377.073 C 368.305 376.942,367.927 376.995,367.806 377.190 M112.587 400.928 C 112.406 401.895,112.086 402.409,111.655 402.425 C 111.223 402.442,111.319 402.579,111.937 402.826 C 113.154 403.314,113.601 403.003,113.594 401.676 C 113.583 399.775,112.899 399.266,112.587 400.928 M305.200 404.187 C 305.200 404.887,305.030 405.110,304.619 404.952 C 304.151 404.772,304.131 404.580,304.515 403.964 C 305.132 402.977,305.200 403.000,305.200 404.187 M26.800 420.692 C 25.990 421.000,25.613 421.625,25.606 422.676 C 25.598 423.824,26.178 424.146,27.155 423.535 C 27.828 423.115,28.218 422.552,29.120 420.700 C 29.288 420.356,27.696 420.350,26.800 420.692 M361.994 423.700 C 361.981 424.730,361.309 425.289,360.421 425.007 C 359.582 424.740,359.574 424.692,360.233 423.964 C 361.016 423.098,362.003 422.950,361.994 423.700 M28.462 445.953 C 28.064 446.205,28.195 446.362,28.962 446.555 C 30.198 446.865,32.087 446.464,31.774 445.957 C 31.494 445.505,29.174 445.502,28.462 445.953 M112.657 449.395 C 112.367 450.151,114.765 450.862,115.456 450.225 C 115.990 449.733,115.633 449.458,113.942 449.057 C 113.203 448.882,112.815 448.984,112.657 449.395 M362.612 450.917 C 362.441 451.312,362.413 451.747,362.551 451.884 C 362.957 452.290,363.284 451.720,363.097 450.931 C 362.932 450.233,362.910 450.232,362.612 450.917 M31.200 462.800 C 31.200 463.710,32.203 463.890,32.530 463.039 C 32.781 462.385,32.486 462.000,31.733 462.000 C 31.440 462.000,31.200 462.360,31.200 462.800 M362.000 462.357 C 362.000 462.554,362.225 462.797,362.500 462.898 C 363.203 463.157,364.050 462.804,363.779 462.366 C 363.488 461.895,362.000 461.887,362.000 462.357 M294.736 468.219 C 295.397 469.669,295.311 470.400,294.480 470.400 C 293.266 470.400,292.824 469.650,293.275 468.356 C 293.772 466.933,294.134 466.898,294.736 468.219 M360.656 469.078 C 360.205 469.528,360.381 470.000,361.000 470.000 C 361.330 470.000,361.600 469.831,361.600 469.624 C 361.600 469.119,360.975 468.758,360.656 469.078 M110.000 471.400 C 110.000 471.730,109.820 472.000,109.600 472.000 C 109.380 472.000,109.200 471.730,109.200 471.400 C 109.200 471.070,109.380 470.800,109.600 470.800 C 109.820 470.800,110.000 471.070,110.000 471.400 M278.759 490.753 L 277.848 491.490 278.745 491.970 C 280.690 493.012,282.300 491.929,280.621 490.708 C 279.716 490.049,279.626 490.051,278.759 490.753 M113.934 493.150 C 114.359 493.420,114.331 493.541,113.797 493.746 C 113.005 494.050,112.290 493.702,112.617 493.172 C 112.899 492.715,113.238 492.710,113.934 493.150 M116.199 505.602 C 115.768 506.299,116.350 508.000,117.020 508.000 C 117.353 508.000,117.738 507.706,117.876 507.346 C 118.320 506.190,116.807 504.617,116.199 505.602 M32.657 507.405 C 32.785 507.738,32.670 508.274,32.403 508.597 C 31.761 509.370,30.400 508.683,30.400 507.586 C 30.400 506.621,32.298 506.469,32.657 507.405 M346.000 513.613 C 346.000 514.072,345.608 514.598,345.100 514.822 C 344.323 515.164,344.363 515.185,345.399 514.977 C 346.796 514.695,346.630 514.829,346.977 513.700 C 347.183 513.032,347.092 512.800,346.627 512.800 C 346.263 512.800,346.000 513.141,346.000 513.613 M27.848 514.722 C 27.739 514.899,28.178 515.243,28.823 515.486 C 29.998 515.930,30.686 515.587,30.200 514.800 C 29.905 514.323,28.131 514.264,27.848 514.722 M115.927 516.500 C 116.044 517.518,115.947 517.600,114.627 517.600 C 113.399 517.600,113.200 517.470,113.200 516.667 C 113.200 514.733,115.706 514.580,115.927 516.500 M253.842 519.834 C 253.578 520.523,254.672 521.088,255.217 520.543 C 255.434 520.326,255.277 519.991,254.826 519.709 C 254.220 519.330,254.026 519.355,253.842 519.834 M27.777 520.038 C 27.428 520.602,27.967 521.200,28.824 521.200 C 29.251 521.200,29.600 520.951,29.600 520.647 C 29.600 520.002,28.107 519.503,27.777 520.038 M254.884 525.295 C 253.210 526.101,253.962 526.988,256.203 526.851 C 258.537 526.708,259.443 526.175,258.756 525.347 C 258.219 524.700,256.177 524.673,254.884 525.295 M254.368 532.100 C 254.347 532.701,254.261 532.801,254.108 532.400 C 253.983 532.070,253.682 531.668,253.440 531.506 C 253.169 531.325,253.268 531.210,253.700 531.206 C 254.170 531.202,254.390 531.495,254.368 532.100 M119.352 534.181 C 119.071 534.914,119.480 535.600,120.200 535.600 C 121.023 535.600,121.335 534.845,120.785 534.182 C 120.170 533.441,119.636 533.440,119.352 534.181 M34.400 534.800 C 33.915 535.114,33.972 535.189,34.700 535.194 C 35.195 535.197,35.600 535.020,35.600 534.800 C 35.600 534.299,35.176 534.299,34.400 534.800 M117.601 539.599 C 116.800 540.203,116.777 540.306,117.384 540.538 C 119.575 541.379,121.469 540.298,119.446 539.361 C 118.691 539.011,118.317 539.059,117.601 539.599 M234.400 561.800 C 234.400 562.130,234.692 562.400,235.049 562.400 C 235.580 562.400,235.608 562.291,235.200 561.800 C 234.926 561.470,234.634 561.200,234.551 561.200 C 234.468 561.200,234.400 561.470,234.400 561.800 M117.600 569.200 C 117.600 569.420,118.140 569.600,118.800 569.600 C 119.460 569.600,120.000 569.420,120.000 569.200 C 120.000 568.980,119.460 568.800,118.800 568.800 C 118.140 568.800,117.600 568.980,117.600 569.200 M306.400 570.600 C 306.400 571.323,306.615 571.600,307.176 571.600 C 308.298 571.600,308.644 570.768,307.785 570.139 C 306.721 569.362,306.400 569.468,306.400 570.600 M117.824 579.813 C 117.065 580.387,117.067 580.400,117.924 580.400 C 118.436 580.400,118.800 580.151,118.800 579.800 C 118.800 579.076,118.797 579.076,117.824 579.813 M213.100 584.920 C 211.667 585.486,211.709 585.872,213.240 586.209 C 214.625 586.513,215.435 585.989,215.066 585.027 C 214.794 584.319,214.641 584.311,213.100 584.920 M33.400 598.000 C 33.061 598.548,33.517 599.198,34.113 599.016 C 34.381 598.934,35.131 598.749,35.779 598.606 C 36.690 598.404,36.826 598.262,36.379 597.979 C 35.603 597.488,33.708 597.501,33.400 598.000 M281.200 603.600 C 281.200 603.820,281.571 604.000,282.024 604.000 C 282.477 604.000,282.736 603.820,282.600 603.600 C 282.464 603.380,282.093 603.200,281.776 603.200 C 281.459 603.200,281.200 603.380,281.200 603.600 M112.000 612.768 C 112.000 612.971,112.557 613.259,113.237 613.408 C 114.395 613.663,114.458 613.767,114.218 615.045 C 114.045 615.968,114.157 616.689,114.565 617.272 L 115.169 618.134 115.585 616.967 C 115.813 616.325,116.193 615.467,116.428 615.061 C 116.663 614.655,116.798 614.294,116.728 614.260 C 116.657 614.225,116.022 613.793,115.316 613.299 C 114.032 612.400,112.000 612.075,112.000 612.768 M186.481 615.936 C 186.066 616.204,186.085 616.372,186.576 616.780 C 187.294 617.376,188.543 617.028,188.300 616.300 C 188.093 615.677,187.169 615.492,186.481 615.936 M41.108 617.925 C 41.195 618.186,40.982 618.400,40.633 618.400 C 40.285 618.400,40.000 618.115,40.000 617.767 C 40.000 617.060,40.861 617.183,41.108 617.925 M39.600 623.624 C 39.600 623.831,39.330 624.000,39.000 624.000 C 38.381 624.000,38.205 623.528,38.656 623.078 C 38.975 622.758,39.600 623.119,39.600 623.624 M264.492 626.068 C 263.231 627.329,264.464 629.200,266.556 629.200 L 268.023 629.200 267.078 627.500 C 266.075 625.697,265.295 625.265,264.492 626.068 M32.695 626.701 C 32.307 626.789,32.093 627.027,32.219 627.230 C 32.518 627.715,34.000 627.710,34.000 627.224 C 34.000 626.701,33.527 626.512,32.695 626.701 M165.200 627.000 C 165.200 627.330,165.459 627.600,165.776 627.600 C 166.623 627.600,166.897 626.923,166.165 626.642 C 165.273 626.300,165.200 626.327,165.200 627.000 M154.477 632.430 C 154.556 632.667,154.791 632.860,155.000 632.860 C 155.209 632.860,155.445 632.667,155.523 632.430 C 155.602 632.194,155.367 632.000,155.000 632.000 C 154.633 632.000,154.398 632.194,154.477 632.430 M148.664 633.529 C 147.917 634.355,148.430 635.200,149.680 635.200 C 150.523 635.200,150.593 634.487,149.846 633.504 C 149.345 632.843,149.284 632.845,148.664 633.529 M150.800 635.951 C 150.800 636.418,150.969 636.800,151.176 636.800 C 151.869 636.800,151.998 636.096,151.396 635.596 C 150.900 635.185,150.800 635.245,150.800 635.951 M106.800 648.800 C 106.315 649.114,106.372 649.189,107.100 649.194 C 107.595 649.197,108.000 649.020,108.000 648.800 C 108.000 648.299,107.576 648.299,106.800 648.800 M239.078 651.856 C 238.704 652.229,239.155 652.800,239.824 652.800 C 240.141 652.800,240.400 652.530,240.400 652.200 C 240.400 651.598,239.556 651.378,239.078 651.856 M32.918 657.379 C 32.536 657.814,32.565 657.978,33.054 658.165 C 33.887 658.485,34.416 658.106,34.140 657.387 C 33.863 656.666,33.546 656.664,32.918 657.379 M38.486 658.970 C 38.223 659.549,37.735 660.127,37.403 660.254 C 36.196 660.717,36.719 661.948,38.244 662.235 C 40.395 662.638,41.211 660.691,39.683 658.803 L 38.966 657.918 38.486 658.970 M229.600 659.800 C 229.600 660.562,229.097 660.803,228.069 660.534 C 226.955 660.243,226.966 659.829,228.100 659.311 C 229.124 658.843,229.600 658.998,229.600 659.800 M36.800 667.167 C 36.800 667.658,37.058 668.000,37.429 668.000 C 37.802 668.000,38.006 667.728,37.929 667.333 C 37.735 666.330,36.800 666.192,36.800 667.167 M172.060 704.001 C 172.549 705.404,172.855 705.661,173.535 705.240 C 174.302 704.766,173.413 702.800,172.431 702.800 C 171.728 702.800,171.687 702.931,172.060 704.001 M29.100 707.852 C 30.505 708.229,30.288 709.600,28.824 709.600 C 27.538 709.600,27.005 709.085,27.352 708.181 C 27.599 707.537,27.790 707.501,29.100 707.852 M148.446 722.763 C 148.000 723.045,148.051 723.199,148.704 723.549 C 149.321 723.879,149.625 723.852,149.968 723.438 C 150.315 723.021,150.270 722.836,149.777 722.647 C 149.000 722.348,149.117 722.338,148.446 722.763 M137.756 727.834 C 137.407 729.223,138.398 730.335,139.052 729.289 C 139.531 728.521,139.094 726.800,138.421 726.800 C 138.198 726.800,137.898 727.265,137.756 727.834 M106.460 732.200 C 106.460 732.409,106.267 732.645,106.030 732.723 C 105.793 732.802,105.600 732.567,105.600 732.200 C 105.600 731.833,105.793 731.598,106.030 731.677 C 106.267 731.755,106.460 731.991,106.460 732.200 M117.315 732.445 C 116.999 732.761,116.540 732.770,115.735 732.477 C 114.613 732.068,114.618 732.063,116.180 732.032 C 117.340 732.008,117.642 732.118,117.315 732.445 M103.638 740.555 C 103.310 740.949,103.293 741.211,103.583 741.390 C 103.816 741.533,104.117 741.362,104.252 741.008 C 104.590 740.128,104.219 739.854,103.638 740.555 M48.308 741.125 C 48.408 741.423,48.008 741.600,47.233 741.600 C 45.909 741.600,45.547 740.975,46.700 740.678 C 47.655 740.432,48.121 740.562,48.308 741.125 M89.067 748.267 C 88.606 748.727,88.775 749.200,89.400 749.200 C 89.730 749.200,90.000 748.930,90.000 748.600 C 90.000 747.975,89.527 747.806,89.067 748.267 M73.000 755.200 C 72.840 755.458,72.890 755.850,73.110 756.070 C 73.376 756.336,73.606 756.313,73.800 756.000 C 73.960 755.742,73.910 755.350,73.690 755.130 C 73.424 754.864,73.194 754.887,73.000 755.200 " stroke="none" fill="#EC791A" fill-rule="evenodd"></path></g></svg>