<svg id="svg" version="1.1" xmlns="http://www.w3.org/2000/svg" xmlns:xlink="http://www.w3.org/1999/xlink" width="400" height="400" viewBox="0, 0, 400,400"><g id="svgg"><path id="path0" d="M252.484 65.276 C 252.128 65.632,244.386 65.785,221.504 65.886 C 204.727 65.961,190.190 66.081,189.200 66.154 C 188.210 66.227,185.715 66.407,183.654 66.554 C 181.594 66.701,179.545 67.015,179.101 67.253 C 178.645 67.497,177.600 67.574,176.702 67.431 C 175.783 67.284,174.896 67.354,174.603 67.597 C 174.199 67.933,165.716 68.157,158.000 68.035 C 155.847 68.001,126.600 68.313,126.600 68.370 C 126.600 68.409,125.520 68.526,124.200 68.631 C 117.188 69.188,109.510 71.428,107.168 73.600 C 104.700 75.889,103.126 81.681,103.364 87.600 C 103.438 89.447,103.303 89.942,102.526 90.681 C 101.355 91.795,101.344 92.418,102.498 92.295 C 103.534 92.185,103.573 92.571,103.045 97.738 C 102.816 99.980,102.507 101.093,101.962 101.638 C 100.758 102.842,100.961 103.716,102.372 103.406 C 103.520 103.154,103.548 103.188,103.772 105.074 C 103.897 106.133,104.200 107.990,104.444 109.200 C 104.689 110.410,105.056 112.660,105.260 114.200 C 105.465 115.740,105.725 117.630,105.838 118.400 C 105.950 119.170,106.051 120.475,106.061 121.300 C 106.072 122.125,106.222 122.800,106.395 122.800 C 107.053 122.800,107.552 127.885,108.170 140.873 C 108.325 144.139,108.266 146.036,108.004 146.197 C 107.746 146.357,107.733 146.701,107.968 147.141 C 108.710 148.527,108.313 198.541,107.553 199.457 C 107.321 199.736,107.236 200.134,107.364 200.341 C 107.492 200.548,107.335 202.214,107.016 204.043 C 106.697 205.872,106.510 207.444,106.602 207.535 C 106.693 207.627,106.496 208.228,106.163 208.872 C 105.830 209.516,105.595 210.349,105.642 210.722 C 105.689 211.095,105.615 211.850,105.478 212.400 C 105.341 212.950,105.138 214.030,105.027 214.800 C 104.630 217.555,104.049 219.819,103.440 220.991 C 103.063 221.715,102.965 222.325,103.189 222.549 C 103.609 222.969,103.285 225.149,102.690 225.906 C 102.287 226.419,101.966 228.522,101.993 230.472 C 102.004 231.202,101.752 231.625,101.204 231.799 C 100.221 232.111,100.173 232.633,101.081 233.141 C 101.587 233.425,101.652 233.661,101.334 234.061 C 101.099 234.358,100.792 235.590,100.651 236.800 C 100.511 238.010,100.218 240.080,100.001 241.400 C 99.784 242.720,99.502 244.835,99.374 246.100 C 99.177 248.054,99.022 248.400,98.344 248.400 C 97.690 248.400,97.603 248.563,97.859 249.300 C 98.577 251.362,97.792 255.473,96.464 256.616 C 95.610 257.350,95.433 257.887,95.331 260.043 C 95.265 261.449,95.033 263.590,94.816 264.800 C 94.599 266.010,94.333 267.720,94.224 268.600 C 93.969 270.670,92.680 276.062,91.929 278.200 C 90.434 282.458,90.469 286.372,92.029 289.295 C 92.233 289.677,92.404 290.397,92.409 290.895 C 92.414 291.393,92.770 292.250,93.200 292.800 C 93.630 293.350,93.986 294.183,93.991 294.651 C 93.996 295.119,94.270 295.726,94.600 296.000 C 94.930 296.274,95.200 296.725,95.200 297.003 C 95.200 297.281,95.645 297.800,96.189 298.156 C 96.733 298.512,97.788 299.748,98.532 300.902 C 100.160 303.422,105.173 308.350,108.100 310.304 C 108.925 310.855,109.600 311.443,109.600 311.610 C 109.600 311.777,110.056 312.028,110.614 312.168 C 111.172 312.308,112.722 313.227,114.058 314.211 C 115.395 315.195,116.682 316.000,116.918 316.000 C 117.155 316.000,117.720 316.329,118.174 316.732 C 119.027 317.488,121.704 318.400,123.071 318.400 C 123.499 318.400,124.227 318.752,124.688 319.181 C 125.713 320.136,129.344 320.710,130.147 320.044 C 130.708 319.578,131.997 319.840,132.449 320.512 C 132.598 320.734,133.029 320.705,133.523 320.441 C 133.976 320.199,134.799 320.000,135.350 320.000 C 135.902 320.000,136.464 319.820,136.600 319.600 C 136.736 319.380,137.341 319.200,137.944 319.200 C 138.547 319.200,139.221 319.019,139.441 318.799 C 139.662 318.578,140.576 318.349,141.472 318.289 C 142.368 318.229,143.377 317.951,143.713 317.673 C 144.077 317.370,144.743 317.271,145.362 317.426 C 145.946 317.573,146.400 317.517,146.400 317.298 C 146.400 316.783,149.660 316.781,150.300 317.296 C 150.575 317.517,150.800 318.126,150.800 318.649 C 150.800 319.172,150.958 319.600,151.151 319.600 C 151.961 319.600,153.385 328.196,153.172 331.800 C 153.051 333.859,154.557 339.548,155.274 339.735 C 156.039 339.935,156.333 342.147,155.651 342.569 C 155.459 342.687,155.285 343.612,155.265 344.623 C 155.245 345.634,154.952 347.015,154.614 347.692 C 154.265 348.392,153.999 349.975,153.998 351.361 C 153.996 352.742,153.736 354.297,153.398 354.946 C 152.466 356.731,152.579 362.439,153.569 363.656 L 154.338 364.600 154.769 363.474 C 155.006 362.855,155.200 361.213,155.200 359.826 C 155.200 358.406,155.549 356.211,156.000 354.800 C 156.440 353.423,156.800 351.801,156.800 351.197 C 156.800 349.742,157.762 348.904,158.617 349.614 C 159.805 350.600,160.319 348.924,160.955 342.000 C 161.137 340.007,161.343 338.043,161.791 334.000 C 161.876 333.230,161.958 332.479,161.973 332.331 C 161.988 332.183,162.493 331.475,163.096 330.758 C 164.426 329.179,165.291 326.903,164.701 326.539 C 164.439 326.377,164.402 325.271,164.597 323.443 C 164.764 321.880,164.959 319.880,165.032 319.000 C 165.218 316.732,166.467 313.200,167.082 313.200 C 167.367 313.200,167.600 312.840,167.600 312.400 C 167.600 311.960,167.780 311.600,168.000 311.600 C 168.856 311.600,169.029 311.542,169.927 310.954 C 170.636 310.489,170.984 310.455,171.409 310.808 C 172.056 311.345,172.800 311.007,172.800 310.176 C 172.800 309.765,173.288 309.599,174.500 309.598 C 175.435 309.596,176.662 309.354,177.227 309.059 C 179.099 308.082,180.400 307.908,180.400 308.635 C 180.400 309.064,180.616 309.203,181.033 309.043 C 181.381 308.909,181.741 308.800,181.833 308.800 C 181.925 308.800,182.000 308.530,182.000 308.200 C 182.000 307.870,182.225 307.572,182.500 307.537 C 182.775 307.503,183.540 307.401,184.200 307.310 C 184.860 307.219,185.940 307.108,186.600 307.063 C 187.260 307.018,187.980 306.875,188.200 306.746 C 189.496 305.984,190.861 305.979,190.620 306.737 C 190.253 307.893,191.644 308.286,192.349 307.226 C 192.651 306.772,193.139 306.400,193.435 306.400 C 193.730 306.400,194.180 306.011,194.435 305.535 C 194.889 304.686,194.907 304.693,195.410 305.888 C 195.905 307.066,195.968 307.091,197.361 306.655 C 198.841 306.191,199.055 305.823,198.423 304.824 C 198.138 304.372,198.507 304.092,200.129 303.527 C 201.268 303.131,202.593 302.602,203.073 302.351 C 203.553 302.099,204.235 302.005,204.589 302.140 C 204.942 302.276,205.585 302.166,206.017 301.896 C 206.639 301.508,206.948 301.510,207.501 301.905 C 208.833 302.858,209.133 302.852,210.725 301.847 C 212.315 300.843,214.868 300.738,215.433 301.654 C 215.781 302.217,217.200 302.048,217.200 301.445 C 217.200 301.126,217.798 300.777,218.600 300.626 C 219.370 300.482,220.001 300.147,220.003 299.882 C 220.009 299.033,222.082 298.400,224.861 298.400 C 227.541 298.400,229.600 298.972,229.600 299.715 C 229.600 299.943,230.260 299.997,231.200 299.846 C 232.621 299.619,232.800 299.680,232.800 300.395 C 232.800 301.255,233.575 301.465,234.251 300.789 C 234.707 300.333,238.639 301.004,239.482 301.681 C 239.748 301.894,240.195 301.927,240.477 301.753 C 241.633 301.038,246.400 302.218,246.400 303.219 C 246.400 303.428,246.670 303.600,247.000 303.600 C 247.330 303.600,247.600 303.420,247.600 303.200 C 247.600 302.562,250.533 302.738,251.530 303.436 C 252.029 303.785,252.684 303.977,252.985 303.861 C 253.659 303.602,258.702 304.268,259.800 304.760 C 261.058 305.325,262.830 305.883,265.000 306.399 C 266.100 306.660,267.399 307.065,267.886 307.297 C 268.531 307.605,268.930 307.590,269.351 307.241 C 269.744 306.914,270.012 306.895,270.188 307.181 C 270.331 307.411,270.797 307.600,271.224 307.600 C 271.651 307.600,272.000 307.769,272.000 307.975 C 272.000 308.412,274.173 308.754,278.400 308.982 C 280.050 309.071,281.940 309.257,282.600 309.395 C 284.280 309.746,288.574 308.287,289.970 306.892 C 291.679 305.182,292.053 299.103,290.582 296.935 C 290.042 296.139,289.600 295.070,289.600 294.558 C 289.600 294.047,289.261 293.447,288.846 293.225 C 288.431 293.003,287.988 292.407,287.861 291.900 C 287.734 291.393,287.010 290.282,286.253 289.432 C 284.193 287.116,283.780 284.111,285.300 282.494 C 285.914 281.840,286.213 281.006,286.242 279.868 C 286.265 278.951,286.400 277.348,286.542 276.306 C 286.867 273.927,286.009 273.460,280.600 273.070 C 278.620 272.928,275.724 272.542,274.163 272.213 C 272.603 271.885,269.592 271.553,267.471 271.477 C 264.733 271.378,263.410 271.159,262.908 270.722 C 262.518 270.383,261.930 270.102,261.600 270.098 C 261.270 270.093,259.920 269.719,258.600 269.267 C 257.280 268.815,254.407 267.885,252.216 267.201 C 250.025 266.517,247.685 265.719,247.016 265.428 C 245.851 264.920,240.767 263.316,237.400 262.395 C 236.520 262.154,234.820 261.690,233.623 261.363 C 232.426 261.037,231.235 260.595,230.977 260.381 C 230.719 260.167,229.719 259.886,228.754 259.756 C 227.789 259.627,226.829 259.359,226.620 259.160 C 226.411 258.962,225.778 258.800,225.214 258.800 C 224.650 258.800,223.220 258.446,222.035 258.013 C 220.851 257.580,219.725 257.323,219.533 257.441 C 219.226 257.631,217.382 257.194,215.600 256.509 C 214.926 256.250,212.998 256.135,206.600 255.974 C 204.180 255.913,201.983 255.698,201.718 255.497 C 201.452 255.296,201.002 255.280,200.718 255.463 C 200.433 255.645,199.840 255.825,199.400 255.863 C 197.565 256.018,192.800 256.781,190.037 257.361 C 188.408 257.704,186.685 257.886,186.208 257.766 C 185.685 257.635,185.135 257.797,184.821 258.174 C 184.536 258.518,183.962 258.800,183.546 258.800 C 183.130 258.800,182.427 259.025,181.985 259.300 C 181.325 259.711,180.981 259.685,180.060 259.159 C 178.994 258.548,178.921 258.558,178.570 259.359 C 178.364 259.827,177.822 260.206,177.346 260.213 C 176.876 260.220,176.203 260.465,175.851 260.758 C 175.499 261.050,174.918 261.177,174.560 261.040 C 174.201 260.902,173.293 261.172,172.534 261.641 C 171.547 262.251,170.808 262.422,169.921 262.244 C 169.242 262.108,168.475 262.172,168.217 262.386 C 167.959 262.600,166.725 262.808,165.474 262.849 C 164.223 262.890,163.200 263.076,163.200 263.262 C 163.200 263.448,162.861 263.600,162.446 263.600 C 162.031 263.600,161.191 263.860,160.580 264.177 C 159.923 264.517,158.983 264.657,158.283 264.517 C 157.429 264.346,156.998 264.460,156.737 264.927 C 156.480 265.386,156.042 265.508,155.236 265.347 C 154.609 265.222,153.985 265.301,153.848 265.522 C 153.711 265.744,153.238 265.831,152.797 265.715 C 152.357 265.600,151.739 265.719,151.424 265.980 C 150.538 266.716,142.602 266.704,142.593 265.967 C 142.586 265.371,141.486 265.286,140.300 265.789 C 139.747 266.023,139.600 265.887,139.600 265.138 C 139.600 264.538,139.269 264.045,138.700 263.795 C 137.661 263.339,137.476 262.526,137.476 258.421 C 137.477 256.525,137.645 255.385,137.938 255.287 C 138.602 255.066,138.507 254.366,137.735 253.802 C 136.492 252.893,137.377 252.000,139.521 252.000 C 141.940 252.000,142.134 251.809,141.301 250.249 C 140.319 248.412,140.170 246.400,141.016 246.400 C 141.399 246.400,141.601 246.179,141.487 245.883 C 141.378 245.599,141.539 245.025,141.844 244.607 C 142.632 243.530,142.533 242.800,141.600 242.800 C 140.661 242.800,140.589 242.113,141.413 241.024 C 142.173 240.019,142.166 238.549,141.400 238.255 C 140.651 237.968,140.619 236.524,141.346 235.797 C 141.659 235.483,142.014 233.851,142.179 231.968 C 142.454 228.817,142.814 227.668,143.900 226.487 C 144.175 226.188,144.400 224.960,144.400 223.759 C 144.400 222.187,144.568 221.510,145.000 221.345 C 145.370 221.203,145.600 220.595,145.600 219.757 C 145.600 218.817,145.785 218.400,146.200 218.400 C 146.530 218.400,146.800 218.150,146.800 217.845 C 146.800 217.540,147.338 216.865,147.996 216.345 C 148.654 215.825,149.194 215.171,149.196 214.891 C 149.198 214.612,149.695 214.187,150.300 213.948 C 150.905 213.709,151.707 213.357,152.083 213.164 C 152.458 212.972,153.493 212.699,154.383 212.556 C 155.272 212.414,156.000 212.141,156.000 211.949 C 156.000 211.757,156.366 211.600,156.813 211.600 C 157.259 211.600,157.731 211.325,157.860 210.989 C 157.989 210.653,158.440 210.193,158.862 209.967 C 159.774 209.479,161.327 209.870,160.943 210.492 C 160.764 210.782,160.995 210.840,161.637 210.668 C 162.167 210.527,162.723 210.408,162.873 210.405 C 163.023 210.402,163.254 210.058,163.387 209.641 C 163.553 209.119,163.877 208.947,164.427 209.091 C 164.879 209.209,165.556 209.002,165.984 208.614 C 166.458 208.185,167.047 208.025,167.554 208.185 C 168.719 208.555,171.200 208.006,171.200 207.379 C 171.200 206.513,172.008 206.269,173.043 206.823 C 173.860 207.260,174.086 207.244,174.505 206.720 C 175.215 205.830,177.600 205.437,177.600 206.210 C 177.600 206.998,177.868 206.954,178.892 206.000 C 179.990 204.977,180.822 204.988,181.952 206.041 L 182.855 206.882 183.963 205.641 C 185.106 204.361,185.941 204.101,186.645 204.805 C 187.144 205.304,189.679 204.851,189.352 204.322 C 189.222 204.112,189.495 204.178,189.958 204.467 C 190.619 204.879,190.965 204.890,191.566 204.514 C 192.059 204.206,192.737 204.153,193.475 204.364 C 194.116 204.548,195.728 204.513,197.144 204.285 C 198.965 203.992,200.236 204.010,201.705 204.349 C 203.260 204.707,203.810 204.708,204.031 204.350 C 204.214 204.054,204.859 203.970,205.787 204.120 C 206.594 204.251,207.704 204.153,208.255 203.902 C 209.010 203.558,209.328 203.560,209.544 203.910 C 209.887 204.464,212.013 204.687,212.729 204.244 C 213.009 204.071,213.509 204.159,213.848 204.440 C 214.292 204.808,214.537 204.825,214.738 204.500 C 215.030 204.029,217.281 204.095,218.540 204.612 C 218.996 204.800,219.398 204.726,219.587 204.421 C 219.829 204.030,220.066 204.035,220.722 204.444 C 221.373 204.851,221.748 204.860,222.475 204.484 C 223.556 203.927,224.676 203.927,227.323 204.485 C 228.991 204.837,229.314 204.797,229.763 204.183 C 230.180 203.612,230.581 203.534,231.840 203.776 C 232.698 203.941,234.627 204.046,236.126 204.010 C 237.776 203.970,239.083 204.137,239.439 204.433 C 239.901 204.816,240.222 204.816,240.936 204.434 C 241.436 204.167,242.014 203.994,242.222 204.050 C 242.430 204.106,243.197 204.011,243.927 203.839 C 244.954 203.595,245.434 203.688,246.051 204.246 C 246.539 204.687,246.956 204.814,247.124 204.571 C 247.419 204.146,250.572 204.038,250.972 204.439 C 251.189 204.655,254.676 204.539,257.200 204.231 C 257.750 204.164,258.423 204.285,258.695 204.499 C 258.967 204.714,259.507 204.751,259.895 204.581 C 261.157 204.029,264.348 204.087,264.570 204.666 C 264.856 205.410,266.400 205.344,266.400 204.587 C 266.400 203.786,267.591 203.338,267.993 203.988 C 268.238 204.386,268.607 204.394,269.724 204.025 C 270.837 203.658,271.318 203.667,271.961 204.069 C 272.568 204.448,272.897 204.463,273.230 204.130 C 273.522 203.838,274.089 203.796,274.840 204.012 C 275.478 204.195,276.000 204.222,276.000 204.072 C 276.000 203.922,276.900 203.800,278.000 203.800 C 279.100 203.800,280.000 203.920,280.000 204.068 C 280.000 204.417,282.447 203.737,283.880 202.989 C 284.496 202.668,285.630 202.398,286.400 202.390 C 288.186 202.371,289.938 200.876,290.240 199.113 C 290.364 198.391,290.616 197.440,290.801 197.000 C 291.474 195.403,291.593 191.600,290.971 191.600 C 290.609 191.600,290.400 191.180,290.400 190.449 C 290.400 189.816,290.130 189.074,289.800 188.800 C 289.470 188.526,289.200 187.992,289.200 187.612 C 289.200 186.761,288.052 184.400,287.638 184.400 C 287.472 184.400,287.088 183.905,286.786 183.300 C 286.484 182.695,285.925 181.840,285.545 181.400 C 285.164 180.960,284.614 180.137,284.321 179.571 C 283.828 178.619,280.314 175.389,276.000 171.924 C 275.010 171.129,273.443 170.276,272.517 170.028 C 271.591 169.781,270.745 169.434,270.636 169.257 C 270.526 169.081,269.394 168.694,268.119 168.397 C 266.843 168.101,265.473 167.640,265.074 167.373 C 264.675 167.107,264.020 166.974,263.619 167.079 C 263.218 167.184,262.794 167.114,262.676 166.923 C 262.318 166.343,167.140 166.726,166.557 167.309 C 166.474 167.393,165.069 167.396,163.435 167.317 C 161.663 167.231,160.361 167.340,160.208 167.587 C 159.881 168.117,156.926 168.128,156.600 167.600 C 156.464 167.380,155.564 167.200,154.600 167.200 C 153.636 167.200,152.749 167.040,152.628 166.845 C 152.507 166.650,151.738 166.365,150.918 166.211 C 148.902 165.833,147.200 164.907,147.200 164.190 C 147.200 163.865,147.020 163.600,146.800 163.600 C 146.580 163.600,146.400 163.150,146.400 162.600 C 146.400 162.050,146.245 161.600,146.055 161.600 C 145.865 161.600,145.709 160.848,145.709 159.928 C 145.709 158.690,145.482 158.071,144.833 157.546 C 143.834 156.737,143.997 154.000,145.045 154.000 C 145.881 154.000,145.712 152.771,144.732 151.727 C 143.612 150.535,143.890 150.291,145.486 151.064 C 147.350 151.966,150.000 150.809,150.000 149.092 C 150.000 147.517,148.137 145.741,145.840 145.126 C 144.828 144.856,143.977 144.446,143.949 144.217 C 143.921 143.988,143.824 143.440,143.733 143.000 C 143.396 141.360,142.839 132.575,143.032 131.934 C 143.142 131.567,143.079 131.173,142.892 131.057 C 142.546 130.843,142.628 119.188,142.991 117.000 C 143.101 116.340,143.296 114.900,143.425 113.800 C 143.553 112.700,143.815 111.440,144.007 111.000 C 146.197 105.980,145.910 106.347,147.421 106.630 C 148.267 106.789,149.029 106.708,149.372 106.423 C 149.812 106.058,150.014 106.096,150.293 106.594 C 150.714 107.346,152.152 106.974,151.852 106.191 C 151.704 105.806,152.586 105.673,155.529 105.635 C 157.658 105.609,160.433 105.545,161.696 105.493 C 163.329 105.427,164.051 105.557,164.200 105.943 C 164.374 106.398,164.554 106.394,165.304 105.922 C 166.236 105.334,167.600 105.392,167.600 106.019 C 167.600 106.228,168.028 106.217,168.611 105.996 C 169.168 105.784,171.553 105.616,173.911 105.621 C 176.270 105.627,178.470 105.631,178.800 105.631 C 179.130 105.631,180.175 105.567,181.123 105.491 C 182.071 105.414,182.944 105.510,183.064 105.704 C 183.319 106.116,186.424 105.684,186.980 105.159 C 187.606 104.568,187.999 104.745,188.400 105.800 C 188.821 106.908,190.000 107.169,190.000 106.155 C 190.000 105.666,190.290 105.552,191.195 105.685 C 192.097 105.817,192.447 105.681,192.622 105.130 C 192.888 104.294,195.821 104.063,196.086 104.857 C 196.195 105.186,196.459 105.197,197.023 104.895 C 197.455 104.663,198.268 104.562,198.829 104.669 C 199.466 104.791,200.045 104.628,200.371 104.235 C 200.933 103.558,203.716 103.728,204.695 104.499 C 205.346 105.013,206.400 104.588,206.400 103.813 C 206.400 103.186,207.250 103.002,209.363 103.174 C 210.002 103.226,210.949 103.041,211.467 102.764 C 212.275 102.332,212.484 102.363,212.935 102.979 C 213.327 103.514,213.708 103.618,214.430 103.385 C 214.964 103.213,216.909 103.104,218.753 103.141 C 220.597 103.179,222.307 103.049,222.553 102.851 C 223.487 102.101,225.534 101.945,226.678 102.537 C 227.577 103.002,228.267 103.042,229.976 102.732 C 231.526 102.450,232.383 102.470,233.002 102.801 C 233.557 103.098,234.711 103.168,236.232 102.997 C 238.754 102.714,247.673 102.691,251.000 102.960 C 252.100 103.048,253.180 102.982,253.400 102.813 C 254.082 102.289,264.756 102.366,265.614 102.902 C 266.195 103.264,266.492 103.268,266.844 102.916 C 267.196 102.564,267.537 102.602,268.256 103.073 C 269.024 103.577,269.319 103.599,269.809 103.192 C 270.207 102.862,272.161 102.651,275.507 102.576 C 278.514 102.509,281.537 102.207,282.888 101.839 C 284.147 101.497,285.408 101.305,285.691 101.414 C 286.171 101.598,286.806 100.753,287.429 99.100 C 287.574 98.715,287.914 98.400,288.183 98.400 C 289.519 98.400,290.215 92.501,289.116 90.488 C 288.722 89.766,288.387 88.776,288.371 88.288 C 288.355 87.800,287.997 86.860,287.577 86.200 C 287.156 85.540,286.632 84.640,286.413 84.200 C 286.193 83.760,285.563 82.680,285.011 81.800 C 284.460 80.920,283.833 79.840,283.618 79.400 C 283.025 78.186,282.161 77.200,281.690 77.200 C 281.458 77.200,280.565 76.402,279.706 75.426 C 277.901 73.374,272.704 69.764,269.341 68.224 C 268.065 67.640,266.709 66.879,266.326 66.533 C 265.943 66.186,265.350 66.010,265.008 66.141 C 264.166 66.465,254.000 65.521,254.000 65.119 C 254.000 64.636,253.023 64.737,252.484 65.276 " stroke="none" fill="#EC791A" fill-rule="evenodd"></path><path id="path1" d="M0.000 200.000 L 0.000 400.000 200.000 400.000 L 400.000 400.000 400.000 200.000 L 400.000 0.000 200.000 0.000 L 0.000 0.000 0.000 200.000 M254.000 65.119 C 254.000 65.521,264.166 66.465,265.008 66.141 C 265.350 66.010,265.943 66.186,266.326 66.533 C 266.709 66.879,268.065 67.640,269.341 68.224 C 272.704 69.764,277.901 73.374,279.706 75.426 C 280.565 76.402,281.458 77.200,281.690 77.200 C 282.161 77.200,283.025 78.186,283.618 79.400 C 283.833 79.840,284.460 80.920,285.011 81.800 C 285.563 82.680,286.193 83.760,286.413 84.200 C 286.632 84.640,287.156 85.540,287.577 86.200 C 287.997 86.860,288.355 87.800,288.371 88.288 C 288.387 88.776,288.722 89.766,289.116 90.488 C 290.215 92.501,289.519 98.400,288.183 98.400 C 287.914 98.400,287.574 98.715,287.429 99.100 C 286.806 100.753,286.171 101.598,285.691 101.414 C 285.408 101.305,284.147 101.497,282.888 101.839 C 281.537 102.207,278.514 102.509,275.507 102.576 C 272.161 102.651,270.207 102.862,269.809 103.192 C 269.319 103.599,269.024 103.577,268.256 103.073 C 267.537 102.602,267.196 102.564,266.844 102.916 C 266.492 103.268,266.195 103.264,265.614 102.902 C 264.756 102.366,254.082 102.289,253.400 102.813 C 253.180 102.982,252.100 103.048,251.000 102.960 C 247.673 102.691,238.754 102.714,236.232 102.997 C 234.711 103.168,233.557 103.098,233.002 102.801 C 232.383 102.470,231.526 102.450,229.976 102.732 C 228.267 103.042,227.577 103.002,226.678 102.537 C 225.534 101.945,223.487 102.101,222.553 102.851 C 222.307 103.049,220.597 103.179,218.753 103.141 C 216.909 103.104,214.964 103.213,214.430 103.385 C 213.708 103.618,213.327 103.514,212.935 102.979 C 212.484 102.363,212.275 102.332,211.467 102.764 C 210.949 103.041,210.002 103.226,209.363 103.174 C 207.250 103.002,206.400 103.186,206.400 103.813 C 206.400 104.588,205.346 105.013,204.695 104.499 C 203.716 103.728,200.933 103.558,200.371 104.235 C 200.045 104.628,199.466 104.791,198.829 104.669 C 198.268 104.562,197.455 104.663,197.023 104.895 C 196.459 105.197,196.195 105.186,196.086 104.857 C 195.821 104.063,192.888 104.294,192.622 105.130 C 192.447 105.681,192.097 105.817,191.195 105.685 C 190.290 105.552,190.000 105.666,190.000 106.155 C 190.000 107.169,188.821 106.908,188.400 105.800 C 187.999 104.745,187.606 104.568,186.980 105.159 C 186.424 105.684,183.319 106.116,183.064 105.704 C 182.944 105.510,182.071 105.414,181.123 105.491 C 180.175 105.567,179.130 105.631,178.800 105.631 C 178.470 105.631,176.270 105.627,173.911 105.621 C 171.553 105.616,169.168 105.784,168.611 105.996 C 168.028 106.217,167.600 106.228,167.600 106.019 C 167.600 105.392,166.236 105.334,165.304 105.922 C 164.554 106.394,164.374 106.398,164.200 105.943 C 164.051 105.557,163.329 105.427,161.696 105.493 C 160.433 105.545,157.658 105.609,155.529 105.635 C 152.586 105.673,151.704 105.806,151.852 106.191 C 152.152 106.974,150.714 107.346,150.293 106.594 C 150.014 106.096,149.812 106.058,149.372 106.423 C 149.029 106.708,148.267 106.789,147.421 106.630 C 145.910 106.347,146.197 105.980,144.007 111.000 C 143.815 111.440,143.553 112.700,143.425 113.800 C 143.296 114.900,143.101 116.340,142.991 117.000 C 142.628 119.188,142.546 130.843,142.892 131.057 C 143.079 131.173,143.142 131.567,143.032 131.934 C 142.839 132.575,143.396 141.360,143.733 143.000 C 143.824 143.440,143.921 143.988,143.949 144.217 C 143.977 144.446,144.828 144.856,145.840 145.126 C 148.137 145.741,150.000 147.517,150.000 149.092 C 150.000 150.809,147.350 151.966,145.486 151.064 C 143.890 150.291,143.612 150.535,144.732 151.727 C 145.712 152.771,145.881 154.000,145.045 154.000 C 143.997 154.000,143.834 156.737,144.833 157.546 C 145.482 158.071,145.709 158.690,145.709 159.928 C 145.709 160.848,145.865 161.600,146.055 161.600 C 146.245 161.600,146.400 162.050,146.400 162.600 C 146.400 163.150,146.580 163.600,146.800 163.600 C 147.020 163.600,147.200 163.865,147.200 164.190 C 147.200 164.907,148.902 165.833,150.918 166.211 C 151.738 166.365,152.507 166.650,152.628 166.845 C 152.749 167.040,153.636 167.200,154.600 167.200 C 155.564 167.200,156.464 167.380,156.600 167.600 C 156.926 168.128,159.881 168.117,160.208 167.587 C 160.361 167.340,161.663 167.231,163.435 167.317 C 165.069 167.396,166.474 167.393,166.557 167.309 C 167.140 166.726,262.318 166.343,262.676 166.923 C 262.794 167.114,263.218 167.184,263.619 167.079 C 264.020 166.974,264.675 167.107,265.074 167.373 C 265.473 167.640,266.843 168.101,268.119 168.397 C 269.394 168.694,270.526 169.081,270.636 169.257 C 270.745 169.434,271.591 169.781,272.517 170.028 C 273.443 170.276,275.010 171.129,276.000 171.924 C 280.314 175.389,283.828 178.619,284.321 179.571 C 284.614 180.137,285.164 180.960,285.545 181.400 C 285.925 181.840,286.484 182.695,286.786 183.300 C 287.088 183.905,287.472 184.400,287.638 184.400 C 288.052 184.400,289.200 186.761,289.200 187.612 C 289.200 187.992,289.470 188.526,289.800 188.800 C 290.130 189.074,290.400 189.816,290.400 190.449 C 290.400 191.180,290.609 191.600,290.971 191.600 C 291.593 191.600,291.474 195.403,290.801 197.000 C 290.616 197.440,290.364 198.391,290.240 199.113 C 289.938 200.876,288.186 202.371,286.400 202.390 C 285.630 202.398,284.496 202.668,283.880 202.989 C 282.447 203.737,280.000 204.417,280.000 204.068 C 280.000 203.920,279.100 203.800,278.000 203.800 C 276.900 203.800,276.000 203.922,276.000 204.072 C 276.000 204.222,275.478 204.195,274.840 204.012 C 274.089 203.796,273.522 203.838,273.230 204.130 C 272.897 204.463,272.568 204.448,271.961 204.069 C 271.318 203.667,270.837 203.658,269.724 204.025 C 268.607 204.394,268.238 204.386,267.993 203.988 C 267.591 203.338,266.400 203.786,266.400 204.587 C 266.400 205.344,264.856 205.410,264.570 204.666 C 264.348 204.087,261.157 204.029,259.895 204.581 C 259.507 204.751,258.967 204.714,258.695 204.499 C 258.423 204.285,257.750 204.164,257.200 204.231 C 254.676 204.539,251.189 204.655,250.972 204.439 C 250.572 204.038,247.419 204.146,247.124 204.571 C 246.956 204.814,246.539 204.687,246.051 204.246 C 245.434 203.688,244.954 203.595,243.927 203.839 C 243.197 204.011,242.430 204.106,242.222 204.050 C 242.014 203.994,241.436 204.167,240.936 204.434 C 240.222 204.816,239.901 204.816,239.439 204.433 C 239.083 204.137,237.776 203.970,236.126 204.010 C 234.627 204.046,232.698 203.941,231.840 203.776 C 230.581 203.534,230.180 203.612,229.763 204.183 C 229.314 204.797,228.991 204.837,227.323 204.485 C 224.676 203.927,223.556 203.927,222.475 204.484 C 221.748 204.860,221.373 204.851,220.722 204.444 C 220.066 204.035,219.829 204.030,219.587 204.421 C 219.398 204.726,218.996 204.800,218.540 204.612 C 217.281 204.095,215.030 204.029,214.738 204.500 C 214.537 204.825,214.292 204.808,213.848 204.440 C 213.509 204.159,213.009 204.071,212.729 204.244 C 212.013 204.687,209.887 204.464,209.544 203.910 C 209.328 203.560,209.010 203.558,208.255 203.902 C 207.704 204.153,206.594 204.251,205.787 204.120 C 204.859 203.970,204.214 204.054,204.031 204.350 C 203.810 204.708,203.260 204.707,201.705 204.349 C 200.236 204.010,198.965 203.992,197.144 204.285 C 195.728 204.513,194.116 204.548,193.475 204.364 C 192.737 204.153,192.059 204.206,191.566 204.514 C 190.965 204.890,190.619 204.879,189.958 204.467 C 189.495 204.178,189.222 204.112,189.352 204.322 C 189.679 204.851,187.144 205.304,186.645 204.805 C 185.941 204.101,185.106 204.361,183.963 205.641 L 182.855 206.882 181.952 206.041 C 180.822 204.988,179.990 204.977,178.892 206.000 C 177.868 206.954,177.600 206.998,177.600 206.210 C 177.600 205.437,175.215 205.830,174.505 206.720 C 174.086 207.244,173.860 207.260,173.043 206.823 C 172.008 206.269,171.200 206.513,171.200 207.379 C 171.200 208.006,168.719 208.555,167.554 208.185 C 167.047 208.025,166.458 208.185,165.984 208.614 C 165.556 209.002,164.879 209.209,164.427 209.091 C 163.877 208.947,163.553 209.119,163.387 209.641 C 163.254 210.058,163.023 210.402,162.873 210.405 C 162.723 210.408,162.167 210.527,161.637 210.668 C 160.995 210.840,160.764 210.782,160.943 210.492 C 161.327 209.870,159.774 209.479,158.862 209.967 C 158.440 210.193,157.989 210.653,157.860 210.989 C 157.731 211.325,157.259 211.600,156.813 211.600 C 156.366 211.600,156.000 211.757,156.000 211.949 C 156.000 212.141,155.272 212.414,154.383 212.556 C 153.493 212.699,152.458 212.972,152.083 213.164 C 151.707 213.357,150.905 213.709,150.300 213.948 C 149.695 214.187,149.198 214.612,149.196 214.891 C 149.194 215.171,148.654 215.825,147.996 216.345 C 147.338 216.865,146.800 217.540,146.800 217.845 C 146.800 218.150,146.530 218.400,146.200 218.400 C 145.785 218.400,145.600 218.817,145.600 219.757 C 145.600 220.595,145.370 221.203,145.000 221.345 C 144.568 221.510,144.400 222.187,144.400 223.759 C 144.400 224.960,144.175 226.188,143.900 226.487 C 142.814 227.668,142.454 228.817,142.179 231.968 C 142.014 233.851,141.659 235.483,141.346 235.797 C 140.619 236.524,140.651 237.968,141.400 238.255 C 142.166 238.549,142.173 240.019,141.413 241.024 C 140.589 242.113,140.661 242.800,141.600 242.800 C 142.533 242.800,142.632 243.530,141.844 244.607 C 141.539 245.025,141.378 245.599,141.487 245.883 C 141.601 246.179,141.399 246.400,141.016 246.400 C 140.170 246.400,140.319 248.412,141.301 250.249 C 142.134 251.809,141.940 252.000,139.521 252.000 C 137.377 252.000,136.492 252.893,137.735 253.802 C 138.507 254.366,138.602 255.066,137.938 255.287 C 137.645 255.385,137.477 256.525,137.476 258.421 C 137.476 262.526,137.661 263.339,138.700 263.795 C 139.269 264.045,139.600 264.538,139.600 265.138 C 139.600 265.887,139.747 266.023,140.300 265.789 C 141.486 265.286,142.586 265.371,142.593 265.967 C 142.602 266.704,150.538 266.716,151.424 265.980 C 151.739 265.719,152.357 265.600,152.797 265.715 C 153.238 265.831,153.711 265.744,153.848 265.522 C 153.985 265.301,154.609 265.222,155.236 265.347 C 156.042 265.508,156.480 265.386,156.737 264.927 C 156.998 264.460,157.429 264.346,158.283 264.517 C 158.983 264.657,159.923 264.517,160.580 264.177 C 161.191 263.860,162.031 263.600,162.446 263.600 C 162.861 263.600,163.200 263.448,163.200 263.262 C 163.200 263.076,164.223 262.890,165.474 262.849 C 166.725 262.808,167.959 262.600,168.217 262.386 C 168.475 262.172,169.242 262.108,169.921 262.244 C 170.808 262.422,171.547 262.251,172.534 261.641 C 173.293 261.172,174.201 260.902,174.560 261.040 C 174.918 261.177,175.499 261.050,175.851 260.758 C 176.203 260.465,176.876 260.220,177.346 260.213 C 177.822 260.206,178.364 259.827,178.570 259.359 C 178.921 258.558,178.994 258.548,180.060 259.159 C 180.981 259.685,181.325 259.711,181.985 259.300 C 182.427 259.025,183.130 258.800,183.546 258.800 C 183.962 258.800,184.536 258.518,184.821 258.174 C 185.135 257.797,185.685 257.635,186.208 257.766 C 186.685 257.886,188.408 257.704,190.037 257.361 C 192.800 256.781,197.565 256.018,199.400 255.863 C 199.840 255.825,200.433 255.645,200.718 255.463 C 201.002 255.280,201.452 255.296,201.718 255.497 C 201.983 255.698,204.180 255.913,206.600 255.974 C 212.998 256.135,214.926 256.250,215.600 256.509 C 217.382 257.194,219.226 257.631,219.533 257.441 C 219.725 257.323,220.851 257.580,222.035 258.013 C 223.220 258.446,224.650 258.800,225.214 258.800 C 225.778 258.800,226.411 258.962,226.620 259.160 C 226.829 259.359,227.789 259.627,228.754 259.756 C 229.719 259.886,230.719 260.167,230.977 260.381 C 231.235 260.595,232.426 261.037,233.623 261.363 C 234.820 261.690,236.520 262.154,237.400 262.395 C 240.767 263.316,245.851 264.920,247.016 265.428 C 247.685 265.719,250.025 266.517,252.216 267.201 C 254.407 267.885,257.280 268.815,258.600 269.267 C 259.920 269.719,261.270 270.093,261.600 270.098 C 261.930 270.102,262.518 270.383,262.908 270.722 C 263.410 271.159,264.733 271.378,267.471 271.477 C 269.592 271.553,272.603 271.885,274.163 272.213 C 275.724 272.542,278.620 272.928,280.600 273.070 C 286.009 273.460,286.867 273.927,286.542 276.306 C 286.400 277.348,286.265 278.951,286.242 279.868 C 286.213 281.006,285.914 281.840,285.300 282.494 C 283.780 284.111,284.193 287.116,286.253 289.432 C 287.010 290.282,287.734 291.393,287.861 291.900 C 287.988 292.407,288.431 293.003,288.846 293.225 C 289.261 293.447,289.600 294.047,289.600 294.558 C 289.600 295.070,290.042 296.139,290.582 296.935 C 292.053 299.103,291.679 305.182,289.970 306.892 C 288.574 308.287,284.280 309.746,282.600 309.395 C 281.940 309.257,280.050 309.071,278.400 308.982 C 274.173 308.754,272.000 308.412,272.000 307.975 C 272.000 307.769,271.651 307.600,271.224 307.600 C 270.797 307.600,270.331 307.411,270.188 307.181 C 270.012 306.895,269.744 306.914,269.351 307.241 C 268.930 307.590,268.531 307.605,267.886 307.297 C 267.399 307.065,266.100 306.660,265.000 306.399 C 262.830 305.883,261.058 305.325,259.800 304.760 C 258.702 304.268,253.659 303.602,252.985 303.861 C 252.684 303.977,252.029 303.785,251.530 303.436 C 250.533 302.738,247.600 302.562,247.600 303.200 C 247.600 303.420,247.330 303.600,247.000 303.600 C 246.670 303.600,246.400 303.428,246.400 303.219 C 246.400 302.218,241.633 301.038,240.477 301.753 C 240.195 301.927,239.748 301.894,239.482 301.681 C 238.639 301.004,234.707 300.333,234.251 300.789 C 233.575 301.465,232.800 301.255,232.800 300.395 C 232.800 299.680,232.621 299.619,231.200 299.846 C 230.260 299.997,229.600 299.943,229.600 299.715 C 229.600 298.972,227.541 298.400,224.861 298.400 C 222.082 298.400,220.009 299.033,220.003 299.882 C 220.001 300.147,219.370 300.482,218.600 300.626 C 217.798 300.777,217.200 301.126,217.200 301.445 C 217.200 302.048,215.781 302.217,215.433 301.654 C 214.868 300.738,212.315 300.843,210.725 301.847 C 209.133 302.852,208.833 302.858,207.501 301.905 C 206.948 301.510,206.639 301.508,206.017 301.896 C 205.585 302.166,204.942 302.276,204.589 302.140 C 204.235 302.005,203.553 302.099,203.073 302.351 C 202.593 302.602,201.268 303.131,200.129 303.527 C 198.507 304.092,198.138 304.372,198.423 304.824 C 199.055 305.823,198.841 306.191,197.361 306.655 C 195.968 307.091,195.905 307.066,195.410 305.888 C 194.907 304.693,194.889 304.686,194.435 305.535 C 194.180 306.011,193.730 306.400,193.435 306.400 C 193.139 306.400,192.651 306.772,192.349 307.226 C 191.644 308.286,190.253 307.893,190.620 306.737 C 190.861 305.979,189.496 305.984,188.200 306.746 C 187.980 306.875,187.260 307.018,186.600 307.063 C 185.940 307.108,184.860 307.219,184.200 307.310 C 183.540 307.401,182.775 307.503,182.500 307.537 C 182.225 307.572,182.000 307.870,182.000 308.200 C 182.000 308.530,181.925 308.800,181.833 308.800 C 181.741 308.800,181.381 308.909,181.033 309.043 C 180.616 309.203,180.400 309.064,180.400 308.635 C 180.400 307.908,179.099 308.082,177.227 309.059 C 176.662 309.354,175.435 309.596,174.500 309.598 C 173.288 309.599,172.800 309.765,172.800 310.176 C 172.800 311.007,172.056 311.345,171.409 310.808 C 170.984 310.455,170.636 310.489,169.927 310.954 C 169.029 311.542,168.856 311.600,168.000 311.600 C 167.780 311.600,167.600 311.960,167.600 312.400 C 167.600 312.840,167.367 313.200,167.082 313.200 C 166.467 313.200,165.218 316.732,165.032 319.000 C 164.959 319.880,164.764 321.880,164.597 323.443 C 164.402 325.271,164.439 326.377,164.701 326.539 C 165.291 326.903,164.426 329.179,163.096 330.758 C 162.493 331.475,161.988 332.183,161.973 332.331 C 161.958 332.479,161.876 333.230,161.791 334.000 C 161.343 338.043,161.137 340.007,160.955 342.000 C 160.319 348.924,159.805 350.600,158.617 349.614 C 157.762 348.904,156.800 349.742,156.800 351.197 C 156.800 351.801,156.440 353.423,156.000 354.800 C 155.549 356.211,155.200 358.406,155.200 359.826 C 155.200 361.213,155.006 362.855,154.769 363.474 L 154.338 364.600 153.569 363.656 C 152.579 362.439,152.466 356.731,153.398 354.946 C 153.736 354.297,153.996 352.742,153.998 351.361 C 153.999 349.975,154.265 348.392,154.614 347.692 C 154.952 347.015,155.245 345.634,155.265 344.623 C 155.285 343.612,155.459 342.687,155.651 342.569 C 156.333 342.147,156.039 339.935,155.274 339.735 C 154.557 339.548,153.051 333.859,153.172 331.800 C 153.385 328.196,151.961 319.600,151.151 319.600 C 150.958 319.600,150.800 319.172,150.800 318.649 C 150.800 318.126,150.575 317.517,150.300 317.296 C 149.660 316.781,146.400 316.783,146.400 317.298 C 146.400 317.517,145.946 317.573,145.362 317.426 C 144.743 317.271,144.077 317.370,143.713 317.673 C 143.377 317.951,142.368 318.229,141.472 318.289 C 140.576 318.349,139.662 318.578,139.441 318.799 C 139.221 319.019,138.547 319.200,137.944 319.200 C 137.341 319.200,136.736 319.380,136.600 319.600 C 136.464 319.820,135.902 320.000,135.350 320.000 C 134.799 320.000,133.976 320.199,133.523 320.441 C 133.029 320.705,132.598 320.734,132.449 320.512 C 131.997 319.840,130.708 319.578,130.147 320.044 C 129.344 320.710,125.713 320.136,124.688 319.181 C 124.227 318.752,123.499 318.400,123.071 318.400 C 121.704 318.400,119.027 317.488,118.174 316.732 C 117.720 316.329,117.155 316.000,116.918 316.000 C 116.682 316.000,115.395 315.195,114.058 314.211 C 112.722 313.227,111.172 312.308,110.614 312.168 C 110.056 312.028,109.600 311.777,109.600 311.610 C 109.600 311.443,108.925 310.855,108.100 310.304 C 105.173 308.350,100.160 303.422,98.532 300.902 C 97.788 299.748,96.733 298.512,96.189 298.156 C 95.645 297.800,95.200 297.281,95.200 297.003 C 95.200 296.725,94.930 296.274,94.600 296.000 C 94.270 295.726,93.996 295.119,93.991 294.651 C 93.986 294.183,93.630 293.350,93.200 292.800 C 92.770 292.250,92.414 291.393,92.409 290.895 C 92.404 290.397,92.233 289.677,92.029 289.295 C 90.469 286.372,90.434 282.458,91.929 278.200 C 92.680 276.062,93.969 270.670,94.224 268.600 C 94.333 267.720,94.599 266.010,94.816 264.800 C 95.033 263.590,95.265 261.449,95.331 260.043 C 95.433 257.887,95.610 257.350,96.464 256.616 C 97.792 255.473,98.577 251.362,97.859 249.300 C 97.603 248.563,97.690 248.400,98.344 248.400 C 99.022 248.400,99.177 248.054,99.374 246.100 C 99.502 244.835,99.784 242.720,100.001 241.400 C 100.218 240.080,100.511 238.010,100.651 236.800 C 100.792 235.590,101.099 234.358,101.334 234.061 C 101.652 233.661,101.587 233.425,101.081 233.141 C 100.173 232.633,100.221 232.111,101.204 231.799 C 101.752 231.625,102.004 231.202,101.993 230.472 C 101.966 228.522,102.287 226.419,102.690 225.906 C 103.285 225.149,103.609 222.969,103.189 222.549 C 102.965 222.325,103.063 221.715,103.440 220.991 C 104.049 219.819,104.630 217.555,105.027 214.800 C 105.138 214.030,105.341 212.950,105.478 212.400 C 105.615 211.850,105.689 211.095,105.642 210.722 C 105.595 210.349,105.830 209.516,106.163 208.872 C 106.496 208.228,106.693 207.627,106.602 207.535 C 106.510 207.444,106.697 205.872,107.016 204.043 C 107.335 202.214,107.492 200.548,107.364 200.341 C 107.236 200.134,107.321 199.736,107.553 199.457 C 108.313 198.541,108.710 148.527,107.968 147.141 C 107.733 146.701,107.746 146.357,108.004 146.197 C 108.266 146.036,108.325 144.139,108.170 140.873 C 107.552 127.885,107.053 122.800,106.395 122.800 C 106.222 122.800,106.072 122.125,106.061 121.300 C 106.051 120.475,105.950 119.170,105.838 118.400 C 105.725 117.630,105.465 115.740,105.260 114.200 C 105.056 112.660,104.689 110.410,104.444 109.200 C 104.200 107.990,103.897 106.133,103.772 105.074 C 103.548 103.188,103.520 103.154,102.372 103.406 C 100.961 103.716,100.758 102.842,101.962 101.638 C 102.507 101.093,102.816 99.980,103.045 97.738 C 103.573 92.571,103.534 92.185,102.498 92.295 C 101.344 92.418,101.355 91.795,102.526 90.681 C 103.303 89.942,103.438 89.447,103.364 87.600 C 103.126 81.681,104.700 75.889,107.168 73.600 C 109.510 71.428,117.188 69.188,124.200 68.631 C 125.520 68.526,126.600 68.409,126.600 68.370 C 126.600 68.313,155.847 68.001,158.000 68.035 C 165.716 68.157,174.199 67.933,174.603 67.597 C 174.896 67.354,175.783 67.284,176.702 67.431 C 177.600 67.574,178.645 67.497,179.101 67.253 C 179.545 67.015,181.594 66.701,183.654 66.554 C 185.715 66.407,188.210 66.227,189.200 66.154 C 190.190 66.081,204.727 65.961,221.504 65.886 C 244.386 65.785,252.128 65.632,252.484 65.276 C 253.023 64.737,254.000 64.636,254.000 65.119 " stroke="none" fill="transparent" fill-rule="evenodd"></path></g></svg>