<svg id="svg" version="1.1" xmlns="http://www.w3.org/2000/svg" xmlns:xlink="http://www.w3.org/1999/xlink" width="400" height="548.4444444444445" viewBox="0, 0, 400,548.4444444444445"><g id="svgg"><path id="path0" d="M181.581 58.800 C 181.442 59.569,181.192 59.771,180.497 59.674 C 179.948 59.598,179.497 59.802,179.346 60.196 C 179.127 60.768,178.995 60.747,178.219 60.018 C 177.162 59.024,176.800 59.292,176.800 61.067 C 176.800 62.348,176.307 62.820,175.809 62.015 C 175.670 61.789,175.206 61.768,174.686 61.964 C 174.199 62.148,173.370 62.137,172.844 61.941 C 172.319 61.745,171.299 61.695,170.579 61.830 C 169.468 62.039,169.165 61.918,168.588 61.038 C 167.904 59.994,166.000 59.556,166.000 60.443 C 166.000 60.686,165.752 60.790,165.449 60.674 C 165.146 60.558,164.698 60.662,164.454 60.906 C 164.129 61.231,163.762 61.116,163.082 60.478 C 162.353 59.792,162.050 59.710,161.667 60.093 C 161.284 60.476,161.002 60.469,160.348 60.060 C 159.638 59.617,159.389 59.648,158.658 60.270 C 156.949 61.724,156.163 61.991,155.510 61.338 C 154.670 60.498,151.769 60.175,150.615 60.792 C 149.834 61.210,149.454 61.186,148.377 60.649 C 147.429 60.175,146.940 60.118,146.558 60.435 C 146.270 60.674,145.868 60.765,145.663 60.639 C 145.458 60.512,145.178 60.812,145.039 61.304 L 144.788 62.200 143.826 61.115 C 142.898 60.068,142.820 60.051,141.635 60.643 C 140.959 60.980,140.060 61.146,139.637 61.012 C 139.213 60.877,138.768 60.928,138.647 61.123 C 138.219 61.817,132.867 61.649,132.464 60.929 C 132.249 60.545,131.837 60.377,131.462 60.521 C 131.112 60.655,130.717 60.590,130.585 60.376 C 130.453 60.162,130.191 60.082,130.002 60.199 C 129.814 60.315,129.212 60.206,128.665 59.957 C 127.833 59.578,127.532 59.633,126.822 60.294 C 125.903 61.150,124.401 61.096,123.033 60.157 C 122.397 59.721,122.192 59.723,121.833 60.167 C 121.126 61.044,119.200 61.342,119.200 60.574 C 119.200 60.222,119.065 60.003,118.900 60.088 C 116.164 61.496,112.800 62.284,112.800 61.516 C 112.800 61.277,112.395 61.682,111.900 62.416 C 110.837 63.992,108.697 64.751,107.657 63.923 C 105.918 62.539,105.081 62.274,104.585 62.952 C 103.916 63.868,103.510 63.763,102.625 62.440 C 101.716 61.084,100.634 61.220,100.909 62.657 C 101.046 63.375,100.911 63.600,100.345 63.600 C 99.935 63.600,99.600 63.461,99.600 63.291 C 99.600 63.121,98.867 62.982,97.971 62.982 C 96.482 62.982,96.357 63.062,96.519 63.910 C 96.690 64.805,96.608 64.837,94.248 64.772 C 92.902 64.736,91.620 64.748,91.400 64.800 C 89.867 65.163,88.089 64.731,87.688 63.900 L 87.254 63.000 87.227 63.900 C 87.195 64.955,85.976 65.136,85.200 64.200 C 84.562 63.431,83.438 63.431,82.800 64.200 C 82.146 64.988,81.449 64.971,81.754 64.175 C 82.084 63.316,80.925 61.177,80.267 61.430 C 79.977 61.541,79.741 61.940,79.741 62.316 C 79.746 64.755,79.566 65.766,79.224 65.226 C 78.954 64.798,78.725 64.764,78.329 65.093 C 77.936 65.419,77.596 65.386,77.022 64.967 C 75.903 64.148,75.551 64.266,75.827 65.367 C 76.009 66.092,75.861 66.446,75.235 66.781 C 74.776 67.027,74.400 67.473,74.400 67.771 C 74.400 68.604,73.297 68.840,72.612 68.154 C 72.275 67.818,72.000 67.376,72.000 67.171 C 72.000 66.584,71.132 66.738,70.325 67.468 C 69.919 67.836,69.004 68.168,68.293 68.206 C 67.582 68.244,66.736 68.348,66.413 68.437 C 66.008 68.550,65.745 68.166,65.565 67.200 C 65.422 66.430,65.282 66.094,65.253 66.454 C 65.093 68.439,64.077 69.377,62.061 69.399 C 60.981 69.411,59.834 69.640,59.510 69.909 C 59.142 70.214,58.101 70.335,56.733 70.231 C 53.748 70.004,53.122 70.434,54.410 71.829 C 55.361 72.858,55.366 72.889,54.534 72.633 C 53.447 72.300,52.840 73.147,53.710 73.784 C 54.483 74.349,52.526 75.263,51.254 74.930 C 50.465 74.724,50.227 77.550,50.937 78.697 C 51.293 79.273,50.397 80.800,49.704 80.800 C 49.427 80.800,49.200 81.078,49.200 81.418 C 49.200 81.757,49.458 81.982,49.774 81.918 C 50.402 81.789,50.411 81.816,50.375 83.700 C 50.350 84.944,50.333 84.958,49.962 84.032 C 49.673 83.307,49.461 83.179,49.119 83.521 C 48.777 83.863,48.847 84.321,49.400 85.348 C 50.100 86.648,50.102 86.755,49.446 87.411 C 49.027 87.830,48.864 88.359,49.034 88.752 C 49.377 89.547,49.669 91.337,49.758 93.200 C 49.795 93.970,49.986 94.859,50.183 95.176 C 50.414 95.548,50.374 95.809,50.071 95.910 C 49.812 95.996,49.600 96.502,49.600 97.033 C 49.600 97.683,49.370 98.004,48.900 98.012 C 48.257 98.023,48.254 98.056,48.865 98.412 C 49.861 98.994,50.233 101.824,49.421 102.637 C 49.055 103.002,48.874 103.602,49.004 104.012 C 49.146 104.460,48.980 104.883,48.574 105.111 C 48.019 105.421,48.006 105.517,48.494 105.704 C 49.168 105.963,49.338 108.194,48.766 109.263 C 48.508 109.746,48.536 110.229,48.852 110.735 C 49.393 111.601,48.366 113.389,47.077 113.824 C 46.082 114.160,46.402 115.371,47.529 115.531 C 48.315 115.643,48.414 115.828,48.201 116.798 C 48.015 117.643,48.131 118.034,48.657 118.328 C 49.243 118.656,49.275 118.827,48.848 119.342 C 48.560 119.689,48.449 120.323,48.595 120.783 C 48.791 121.402,48.635 121.687,47.964 121.935 C 47.158 122.233,47.141 122.292,47.790 122.541 C 48.438 122.790,48.449 122.884,47.899 123.508 C 47.564 123.889,47.165 124.784,47.013 125.498 C 46.862 126.211,46.437 126.966,46.069 127.175 C 45.458 127.521,45.469 127.607,46.200 128.174 C 46.984 128.782,46.973 128.818,45.600 130.000 C 44.304 131.117,44.252 131.246,44.900 131.747 C 45.285 132.045,45.600 132.568,45.600 132.911 C 45.600 133.253,45.804 133.601,46.054 133.685 C 46.342 133.781,46.243 134.099,45.783 134.559 C 45.211 135.132,45.153 135.434,45.508 136.001 C 45.875 136.589,45.816 136.755,45.180 136.921 C 44.243 137.166,43.639 138.480,44.354 138.718 C 45.221 139.007,45.581 140.636,45.135 142.252 C 44.833 143.346,44.839 143.813,45.157 143.919 C 45.790 144.130,45.705 144.947,44.900 146.389 C 44.215 147.615,44.220 147.659,45.100 148.385 C 46.344 149.412,45.602 153.158,44.149 153.190 C 43.901 153.196,43.452 153.496,43.152 153.858 C 42.670 154.439,42.703 154.485,43.436 154.252 C 44.844 153.805,45.428 155.697,44.236 156.844 C 43.261 157.782,43.268 159.200,44.247 159.200 C 45.116 159.200,44.898 160.054,43.711 161.292 L 42.623 162.429 43.511 162.661 C 44.613 162.949,44.632 163.353,43.589 164.324 C 42.293 165.532,41.878 167.507,42.856 167.818 C 43.290 167.956,43.811 168.503,44.013 169.034 C 44.215 169.565,44.587 170.000,44.839 170.000 C 45.173 170.000,45.166 170.159,44.814 170.583 C 44.495 170.968,43.934 171.087,43.165 170.933 C 42.115 170.723,42.000 170.804,42.000 171.750 C 42.000 172.511,42.207 172.800,42.751 172.800 C 44.118 172.800,44.625 173.922,43.325 174.071 C 42.512 174.164,42.165 174.450,42.072 175.100 C 42.002 175.595,41.777 176.000,41.572 176.000 C 40.779 176.000,41.252 176.726,42.200 176.964 C 42.901 177.140,43.200 177.488,43.200 178.128 C 43.200 178.629,43.382 179.222,43.605 179.445 C 44.066 179.906,43.682 182.400,43.150 182.400 C 42.958 182.400,42.800 182.760,42.800 183.200 C 42.800 183.640,42.980 184.000,43.200 184.000 C 43.420 184.000,43.600 183.820,43.600 183.600 C 43.600 183.380,43.780 183.200,44.000 183.200 C 44.609 183.200,44.478 184.051,43.746 184.860 C 43.140 185.530,43.140 185.602,43.746 185.834 C 44.689 186.196,44.554 186.903,43.600 186.600 C 42.699 186.314,42.448 187.488,43.240 188.280 C 43.560 188.600,43.451 188.949,42.840 189.560 C 42.378 190.022,42.000 190.546,42.000 190.725 C 42.000 190.903,41.643 191.433,41.206 191.902 C 40.550 192.605,40.503 192.846,40.936 193.279 C 41.683 194.026,42.077 196.305,41.519 196.650 C 41.230 196.829,41.396 197.055,41.973 197.268 C 42.512 197.468,42.798 197.829,42.673 198.154 C 42.557 198.456,42.649 198.889,42.876 199.116 C 43.116 199.356,43.147 199.756,42.952 200.065 C 42.204 201.247,42.407 204.400,43.232 204.400 C 44.164 204.400,44.300 205.910,43.400 206.255 C 43.017 206.402,42.800 207.019,42.800 207.963 C 42.800 208.775,42.575 209.682,42.300 209.979 C 41.892 210.419,41.929 210.472,42.500 210.271 C 43.620 209.877,43.348 211.150,42.200 211.673 C 41.155 212.149,40.853 213.493,41.619 214.259 C 41.911 214.551,41.882 215.020,41.524 215.807 C 41.118 216.698,41.114 216.971,41.504 217.101 C 41.882 217.227,41.862 217.461,41.419 218.094 C 40.914 218.815,40.914 219.098,41.417 220.302 C 42.092 221.917,41.819 223.455,40.758 224.022 C 40.121 224.363,40.083 224.546,40.504 225.236 C 40.919 225.917,40.886 226.133,40.300 226.568 C 39.486 227.173,39.379 228.235,40.100 228.555 C 40.477 228.721,40.449 228.888,39.986 229.232 C 39.453 229.627,39.536 229.867,40.616 231.046 C 41.831 232.372,42.167 234.800,41.135 234.800 C 40.913 234.800,40.872 235.785,41.033 237.210 C 41.259 239.207,41.185 239.754,40.600 240.400 C 40.035 241.024,39.947 241.575,40.157 243.160 C 40.327 244.440,40.264 245.237,39.980 245.413 C 39.691 245.591,39.825 245.950,40.370 246.458 C 41.417 247.434,41.428 248.000,40.400 248.000 C 39.956 248.000,39.600 248.267,39.600 248.600 C 39.600 248.930,39.883 249.200,40.229 249.200 C 41.300 249.200,40.684 250.461,39.234 251.238 L 37.869 251.970 38.934 252.375 C 40.471 252.959,40.367 254.145,38.800 253.915 C 37.448 253.716,37.088 254.584,38.356 254.986 C 38.772 255.118,39.207 255.625,39.324 256.113 C 39.440 256.601,39.661 257.405,39.814 257.900 C 40.043 258.638,39.941 258.800,39.247 258.800 C 38.405 258.800,38.405 258.805,39.186 259.586 C 40.113 260.513,40.089 265.227,39.150 266.731 C 38.599 267.614,38.601 267.623,40.402 271.226 C 40.787 271.998,40.165 273.200,39.380 273.200 C 38.598 273.200,38.642 274.272,39.441 274.719 C 40.496 275.309,39.323 276.846,38.061 276.529 C 37.344 276.349,37.146 276.430,37.291 276.844 C 37.398 277.150,37.783 277.375,38.146 277.344 C 38.558 277.309,38.893 277.685,39.037 278.344 C 39.163 278.925,39.337 279.627,39.422 279.903 C 39.508 280.180,39.414 280.838,39.214 281.364 C 38.931 282.106,39.019 282.474,39.605 283.005 C 40.303 283.636,40.313 283.761,39.733 284.646 C 39.206 285.451,39.191 285.707,39.640 286.248 C 40.097 286.798,40.043 286.998,39.273 287.621 C 38.308 288.403,38.372 290.150,39.381 290.537 C 40.141 290.829,40.403 292.340,39.798 292.945 C 39.267 293.476,39.199 297.827,39.708 298.652 C 39.840 298.864,39.789 299.294,39.596 299.606 C 39.389 299.942,39.407 300.368,39.642 300.651 C 39.888 300.947,39.895 301.217,39.661 301.362 C 39.437 301.501,39.417 302.188,39.612 303.051 C 39.922 304.427,39.549 305.793,38.689 306.430 C 38.519 306.557,38.380 307.187,38.382 307.830 C 38.385 308.474,38.382 309.693,38.378 310.541 C 38.373 311.388,38.581 312.336,38.840 312.648 C 39.207 313.091,39.166 313.374,38.652 313.942 C 37.869 314.808,38.153 317.020,39.095 317.381 C 39.555 317.558,39.641 317.985,39.453 319.161 C 39.241 320.484,39.321 320.738,40.003 320.917 C 40.816 321.129,41.156 322.933,40.463 323.361 C 40.278 323.475,40.115 324.916,40.101 326.563 C 40.086 328.209,39.961 329.739,39.823 329.963 C 39.684 330.188,39.965 330.765,40.446 331.246 C 41.209 332.009,41.244 332.179,40.716 332.564 C 40.290 332.876,40.208 333.269,40.438 333.891 C 40.627 334.403,40.603 334.874,40.381 335.012 C 40.138 335.162,40.141 335.515,40.390 335.981 C 40.849 336.839,39.951 338.963,38.873 339.568 C 38.247 339.920,38.249 339.965,38.900 340.216 C 39.841 340.578,39.783 341.088,38.766 341.411 L 37.932 341.676 38.766 342.564 C 39.842 343.709,39.823 344.313,38.704 344.472 C 37.640 344.624,37.253 345.974,38.133 346.466 C 38.575 346.714,38.686 347.191,38.528 348.164 C 38.343 349.305,38.446 349.561,39.183 349.795 C 39.953 350.039,40.026 350.261,39.794 351.636 C 39.579 352.909,39.648 353.200,40.165 353.200 C 40.960 353.200,40.991 354.143,40.217 354.786 C 39.832 355.105,39.713 355.666,39.867 356.434 C 39.995 357.074,39.894 357.846,39.643 358.148 C 39.392 358.451,39.299 358.991,39.436 359.349 C 39.603 359.784,39.472 360.000,39.043 360.000 C 38.689 360.000,38.400 360.180,38.400 360.400 C 38.400 360.620,38.580 360.800,38.800 360.800 C 39.541 360.800,39.208 361.623,38.336 361.945 C 37.596 362.219,37.567 362.302,38.136 362.520 C 38.501 362.660,38.800 362.986,38.800 363.243 C 38.800 363.501,39.108 363.937,39.485 364.213 C 40.008 364.595,40.063 364.842,39.718 365.258 C 39.379 365.667,39.404 366.052,39.819 366.801 C 40.564 368.147,40.535 368.504,39.604 369.503 C 38.702 370.471,38.885 371.424,40.029 371.724 C 40.910 371.954,40.680 373.200,39.757 373.200 C 39.442 373.200,39.200 373.600,39.200 374.120 C 39.200 374.626,38.988 375.252,38.728 375.512 C 38.366 375.874,38.379 376.214,38.788 376.978 C 39.194 377.736,39.210 378.106,38.858 378.530 C 38.498 378.963,38.583 379.325,39.241 380.162 L 40.087 381.237 38.870 381.696 C 36.822 382.469,37.050 384.550,39.263 385.288 C 39.570 385.390,39.480 385.932,38.980 386.985 C 38.252 388.519,38.253 388.538,39.104 389.103 C 39.950 389.664,39.951 389.686,39.202 390.490 C 38.683 391.047,38.510 391.651,38.658 392.390 C 38.838 393.290,38.655 393.613,37.581 394.293 C 36.314 395.095,36.305 395.121,37.144 395.570 C 38.306 396.192,38.215 397.583,36.932 398.800 C 36.063 399.624,35.994 399.823,36.539 399.929 C 37.467 400.111,37.361 401.042,36.331 401.763 C 35.598 402.276,35.561 402.410,36.091 402.613 C 36.888 402.919,36.809 406.170,35.972 407.524 C 35.444 408.378,35.481 408.508,36.461 409.229 C 37.193 409.768,37.458 410.257,37.315 410.805 C 37.166 411.373,37.305 411.600,37.800 411.600 C 38.296 411.600,38.434 411.827,38.284 412.400 C 38.169 412.839,38.265 413.317,38.498 413.461 C 38.766 413.626,38.669 413.906,38.233 414.225 C 37.594 414.693,37.603 414.747,38.372 414.991 C 39.398 415.317,39.423 416.006,38.456 417.246 C 37.983 417.851,37.812 418.483,37.986 418.973 C 38.335 419.953,38.033 421.600,37.504 421.600 C 37.239 421.600,37.236 421.771,37.496 422.100 C 38.582 423.480,38.317 426.856,37.059 427.674 C 36.769 427.862,36.793 428.240,37.136 428.881 C 37.567 429.685,37.495 430.078,36.618 431.728 C 35.402 434.016,35.341 434.807,36.363 435.074 C 38.013 435.506,37.783 437.573,36.076 437.646 C 35.399 437.676,35.260 437.761,35.700 437.876 C 36.085 437.976,36.400 438.231,36.400 438.442 C 36.400 438.653,36.805 438.989,37.300 439.188 C 37.990 439.465,38.036 439.555,37.500 439.575 C 37.115 439.589,36.800 439.842,36.800 440.139 C 36.800 440.435,36.431 440.842,35.981 441.043 C 35.164 441.408,35.164 441.411,35.955 442.260 C 36.450 442.791,36.666 443.426,36.529 443.948 C 36.363 444.587,36.559 444.880,37.355 445.183 C 37.930 445.401,38.400 445.855,38.400 446.190 C 38.400 446.526,38.670 446.800,39.000 446.800 C 39.792 446.800,39.762 447.558,38.934 448.472 C 38.258 449.220,38.697 450.896,39.774 451.670 C 39.996 451.829,39.936 452.195,39.627 452.567 C 39.340 452.913,39.200 453.557,39.315 453.997 C 39.431 454.438,39.373 454.893,39.188 455.008 C 38.173 455.635,37.715 457.480,38.460 457.945 C 39.418 458.543,39.396 459.239,38.384 460.325 C 37.936 460.806,37.756 461.200,37.984 461.200 C 38.213 461.200,38.400 461.470,38.400 461.800 C 38.400 462.130,38.130 462.400,37.800 462.400 C 37.470 462.400,37.200 462.220,37.200 462.000 C 37.200 461.780,36.885 461.603,36.500 461.606 C 35.955 461.611,35.920 461.688,36.343 461.956 C 36.683 462.172,36.785 462.617,36.616 463.150 C 36.456 463.654,36.520 464.000,36.773 464.000 C 37.378 464.000,37.306 465.197,36.700 465.212 C 36.421 465.219,36.509 465.404,36.897 465.630 C 37.548 466.010,37.551 466.103,36.937 467.040 C 36.309 467.999,36.318 468.053,37.140 468.268 C 38.151 468.533,38.256 469.016,37.375 469.354 C 36.564 469.666,37.020 470.400,38.024 470.400 C 38.942 470.400,39.057 471.016,38.200 471.345 C 37.870 471.471,37.600 472.011,37.600 472.545 C 37.600 473.078,37.336 473.616,37.014 473.739 C 36.501 473.936,36.499 474.203,37.001 475.870 C 37.526 477.614,37.514 477.844,36.864 478.588 C 35.565 480.071,35.042 481.713,36.037 481.180 C 37.141 480.589,37.550 481.053,36.571 481.785 C 35.839 482.333,35.865 482.376,37.108 482.633 C 38.672 482.956,38.991 483.343,38.221 483.982 C 37.799 484.333,37.437 484.341,36.826 484.014 C 36.274 483.719,36.000 483.709,36.000 483.986 C 36.000 484.214,36.194 484.400,36.432 484.400 C 36.700 484.400,36.767 484.839,36.608 485.562 C 36.290 487.013,36.982 487.521,38.010 486.591 C 38.479 486.166,39.044 486.009,39.485 486.180 C 40.157 486.441,40.152 486.492,39.406 487.041 C 38.622 487.618,38.623 487.629,39.506 487.860 C 40.463 488.110,40.662 488.591,39.981 489.012 C 39.155 489.522,40.429 490.364,41.857 490.252 C 42.869 490.172,43.354 490.341,43.638 490.871 C 43.853 491.272,44.297 491.600,44.627 491.600 C 44.956 491.600,45.329 491.870,45.455 492.200 C 45.582 492.530,46.071 492.806,46.543 492.813 C 47.643 492.829,48.959 493.819,48.616 494.373 C 48.471 494.608,48.574 494.800,48.845 494.800 C 49.116 494.800,49.668 495.099,50.072 495.466 C 50.709 496.041,50.943 496.058,51.812 495.594 C 52.543 495.202,52.936 495.176,53.257 495.497 C 53.499 495.739,53.946 495.842,54.249 495.726 C 54.611 495.587,54.800 495.807,54.800 496.370 C 54.800 497.542,55.907 497.868,57.258 497.092 C 57.903 496.722,58.481 496.607,58.614 496.822 C 58.749 497.040,59.329 496.947,60.003 496.599 C 61.396 495.878,62.400 495.827,62.400 496.476 C 62.400 496.739,62.653 496.607,62.962 496.184 C 63.501 495.447,63.583 495.444,64.949 496.095 C 66.293 496.736,66.398 496.735,66.780 496.087 C 67.107 495.533,67.254 495.504,67.539 495.937 C 67.831 496.381,68.038 496.383,68.729 495.951 C 69.460 495.495,69.691 495.546,70.547 496.351 C 71.905 497.626,72.993 497.342,73.024 495.702 C 73.055 494.022,73.600 493.484,73.600 495.133 C 73.600 496.358,74.102 496.805,74.591 496.015 C 74.742 495.771,75.223 495.781,75.909 496.042 C 76.798 496.380,77.098 496.320,77.595 495.707 C 77.928 495.297,78.535 494.833,78.945 494.676 C 79.446 494.484,79.622 494.129,79.483 493.595 C 79.237 492.654,80.068 492.518,80.785 493.382 C 81.199 493.881,81.395 493.818,82.146 492.945 C 82.993 491.960,83.070 491.946,84.411 492.530 C 85.175 492.863,85.575 493.149,85.300 493.167 C 85.025 493.185,84.814 493.605,84.832 494.100 C 84.849 494.595,84.954 494.775,85.065 494.500 C 85.306 493.903,86.650 493.834,87.000 494.400 C 87.377 495.010,88.115 494.877,87.872 494.243 C 87.754 493.936,88.071 493.297,88.577 492.822 C 89.495 491.959,89.496 491.959,89.710 492.779 C 89.962 493.739,92.755 493.965,93.673 493.100 C 95.189 491.670,95.517 491.541,96.335 492.052 C 96.945 492.433,97.581 492.448,99.035 492.115 C 100.203 491.848,101.220 491.819,101.669 492.040 C 102.071 492.238,102.758 492.580,103.195 492.800 C 104.266 493.339,105.336 493.304,105.930 492.710 C 106.317 492.323,106.585 492.323,107.205 492.710 C 108.267 493.374,108.671 493.329,109.547 492.453 C 110.175 491.825,110.825 491.722,113.647 491.802 C 116.047 491.871,117.270 491.730,117.950 491.307 C 118.677 490.855,118.971 490.829,119.199 491.199 C 119.422 491.560,119.707 491.571,120.320 491.243 C 120.772 491.001,121.396 490.900,121.707 491.020 C 122.018 491.139,122.503 490.958,122.785 490.618 C 123.506 489.750,124.667 489.849,124.916 490.800 C 125.040 491.273,125.462 491.600,125.948 491.600 C 126.401 491.600,126.965 491.240,127.200 490.800 C 127.778 489.720,128.218 489.789,129.722 491.195 C 130.432 491.859,131.276 492.303,131.621 492.193 C 131.963 492.085,132.575 492.240,132.982 492.537 C 133.619 493.003,133.825 492.975,134.461 492.339 C 135.404 491.396,135.844 491.408,136.693 492.400 C 137.600 493.459,138.000 493.410,138.000 492.237 C 138.000 491.472,138.164 491.318,138.800 491.484 C 139.243 491.600,139.600 492.030,139.600 492.447 C 139.600 492.861,139.858 493.200,140.173 493.200 C 140.488 493.200,141.144 493.760,141.632 494.445 C 142.414 495.543,142.563 495.609,142.901 495.006 C 143.154 494.554,143.134 494.174,142.841 493.881 C 142.599 493.639,142.406 493.251,142.414 493.020 C 142.422 492.789,142.827 493.072,143.314 493.649 C 144.101 494.580,145.585 495.600,146.153 495.600 C 146.266 495.600,146.169 495.058,145.938 494.395 C 145.486 493.097,145.705 492.000,146.416 492.000 C 146.659 492.000,146.800 492.478,146.729 493.065 C 146.656 493.663,146.819 494.204,147.100 494.298 C 147.394 494.397,147.600 494.123,147.600 493.633 C 147.600 492.589,148.974 492.497,149.591 493.500 C 149.965 494.107,150.009 494.067,149.924 493.200 C 149.788 491.833,150.264 491.200,151.424 491.200 C 152.128 491.200,152.400 491.419,152.400 491.986 C 152.400 493.138,153.989 493.903,154.612 493.051 C 155.261 492.164,156.000 492.231,156.000 493.176 C 156.000 494.234,156.820 494.665,157.277 493.848 C 157.770 492.967,158.400 493.402,158.400 494.624 C 158.400 495.161,158.580 495.600,158.800 495.600 C 159.020 495.600,159.200 495.240,159.200 494.800 C 159.200 493.887,160.026 493.765,161.230 494.500 C 161.918 494.920,162.131 494.889,162.568 494.300 C 163.287 493.333,163.600 493.424,163.600 494.600 C 163.600 495.150,163.780 495.600,164.000 495.600 C 164.220 495.600,164.400 495.420,164.400 495.200 C 164.400 494.464,165.405 494.789,165.805 495.655 C 166.364 496.864,166.978 496.792,167.127 495.500 C 167.196 494.895,167.497 494.400,167.794 494.400 C 168.417 494.400,170.880 493.162,171.244 492.667 C 171.510 492.305,175.044 492.709,175.977 493.209 C 176.310 493.387,176.943 493.263,177.477 492.913 C 178.444 492.279,178.746 492.694,177.920 493.520 C 177.547 493.893,177.584 494.000,178.087 494.000 C 178.442 494.000,178.797 493.810,178.874 493.577 C 179.037 493.090,180.400 493.506,180.400 494.043 C 180.400 494.239,180.040 494.400,179.600 494.400 C 178.756 494.400,178.524 494.982,179.200 495.400 C 179.420 495.536,179.600 495.444,179.600 495.197 C 179.600 494.928,179.923 494.849,180.400 495.000 C 180.971 495.181,181.200 495.072,181.200 494.617 C 181.200 494.267,181.695 493.803,182.300 493.587 C 182.905 493.371,183.878 492.926,184.462 492.597 C 185.896 491.790,186.119 491.829,187.393 493.100 C 188.282 493.988,188.890 494.212,190.547 494.263 C 193.449 494.353,195.496 494.792,196.035 495.442 C 196.290 495.749,196.802 496.000,197.174 496.000 C 197.545 496.000,198.236 496.360,198.708 496.800 C 199.732 497.754,200.173 497.828,199.852 496.991 C 199.659 496.489,199.762 496.458,200.435 496.819 C 201.027 497.136,201.398 497.134,201.787 496.811 C 202.202 496.467,202.529 496.657,203.242 497.658 L 204.161 498.950 204.586 497.911 C 204.970 496.971,205.084 496.926,205.782 497.436 C 206.784 498.169,207.026 498.149,207.884 497.257 C 208.773 496.334,211.528 496.533,211.902 497.547 C 212.251 498.497,212.899 498.816,213.487 498.328 C 213.853 498.024,214.000 498.031,214.000 498.351 C 214.000 499.030,215.080 498.889,215.354 498.175 C 215.486 497.831,215.759 497.651,215.961 497.776 C 216.647 498.200,217.632 497.532,217.400 496.800 C 217.153 496.021,218.210 495.369,218.627 496.043 C 218.766 496.268,219.357 496.402,219.940 496.341 C 220.523 496.280,221.210 496.359,221.467 496.518 C 221.723 496.676,222.436 496.614,223.051 496.381 C 224.467 495.842,225.686 496.147,227.005 497.370 C 228.114 498.397,231.305 498.742,232.272 497.940 C 232.597 497.671,232.976 497.776,233.473 498.273 C 233.873 498.673,234.582 498.945,235.050 498.879 C 235.517 498.812,236.558 499.127,237.362 499.579 C 239.106 500.558,239.359 500.591,239.055 499.800 C 238.697 498.867,239.202 498.000,240.105 498.000 C 240.873 498.000,240.883 498.045,240.262 498.731 C 239.898 499.134,239.600 499.674,239.600 499.931 C 239.600 500.474,241.446 500.572,241.771 500.047 C 242.026 499.634,243.986 499.679,244.672 500.114 C 244.932 500.278,245.256 500.234,245.391 500.015 C 245.550 499.757,245.902 499.782,246.386 500.084 C 246.962 500.444,247.272 500.438,247.727 500.060 C 248.205 499.664,248.605 499.729,249.790 500.394 C 251.207 501.190,251.252 501.192,251.017 500.453 C 250.747 499.601,253.077 500.117,254.093 501.133 C 254.350 501.390,255.005 501.600,255.549 501.600 C 256.092 501.600,256.886 501.915,257.313 502.300 C 257.740 502.685,258.564 503.000,259.144 503.000 C 259.935 503.000,260.232 503.226,260.328 503.900 C 260.483 504.989,261.017 505.028,262.600 504.066 C 263.586 503.467,264.078 503.408,265.359 503.732 C 266.681 504.067,266.997 504.019,267.440 503.413 C 268.081 502.536,269.087 502.854,269.584 504.091 C 269.785 504.591,269.961 504.781,269.975 504.514 C 270.033 503.404,271.629 503.088,272.596 503.996 C 273.197 504.561,273.609 504.709,273.785 504.424 C 274.168 503.804,274.800 504.302,274.800 505.224 C 274.800 505.719,275.074 506.000,275.557 506.000 C 275.974 506.000,276.423 506.283,276.556 506.630 C 276.776 507.203,276.854 507.203,277.427 506.630 C 278.179 505.878,278.969 505.796,278.681 506.500 C 278.569 506.775,278.350 507.315,278.196 507.700 C 278.040 508.087,278.093 508.400,278.314 508.400 C 278.534 508.400,278.826 508.110,278.961 507.757 C 279.187 507.168,279.293 507.169,280.215 507.773 C 281.289 508.477,282.000 508.319,282.000 507.376 C 282.000 506.602,282.250 506.650,283.206 507.606 C 283.764 508.164,284.309 508.338,284.973 508.171 C 285.702 507.988,286.048 508.143,286.406 508.811 C 286.794 509.536,287.118 509.653,288.239 509.471 C 289.382 509.286,289.600 509.370,289.600 510.002 C 289.600 511.181,290.349 511.343,290.630 510.224 C 290.846 509.363,290.998 509.278,291.676 509.641 C 292.260 509.953,292.406 510.320,292.229 511.025 C 292.009 511.904,292.071 511.953,292.960 511.615 C 293.701 511.333,293.987 511.389,294.163 511.848 C 294.547 512.849,295.289 511.988,295.108 510.753 C 294.915 509.441,295.665 509.221,296.967 510.206 C 297.617 510.698,297.664 510.941,297.276 511.793 C 296.835 512.760,297.278 513.245,297.812 512.381 C 297.989 512.093,298.248 512.108,298.632 512.426 C 299.079 512.797,299.263 512.700,299.544 511.946 C 299.841 511.149,300.173 511.000,301.648 511.000 C 303.095 511.000,303.380 510.878,303.282 510.300 C 303.129 509.384,304.239 509.384,304.755 510.300 C 305.072 510.861,305.251 510.900,305.655 510.500 C 306.316 509.845,306.612 509.869,307.383 510.640 C 307.894 511.151,308.140 511.182,308.611 510.791 C 309.008 510.461,309.200 510.445,309.200 510.741 C 309.200 511.301,311.307 512.400,312.380 512.400 C 312.831 512.400,313.205 512.625,313.212 512.900 C 313.219 513.195,313.383 513.128,313.611 512.737 C 314.151 511.812,318.400 513.059,318.400 514.144 C 318.400 514.343,319.085 514.413,319.922 514.301 C 321.527 514.086,322.795 514.676,322.806 515.644 C 322.811 516.100,322.879 516.095,323.181 515.618 C 323.815 514.614,329.475 514.679,329.740 515.692 C 329.965 516.554,330.800 516.305,330.800 515.376 C 330.800 515.059,331.160 514.800,331.600 514.800 C 332.044 514.800,332.400 515.067,332.400 515.400 C 332.400 516.303,333.075 516.120,333.329 515.148 C 333.488 514.544,333.750 514.372,334.234 514.558 C 334.629 514.709,335.221 514.543,335.641 514.162 C 336.041 513.801,336.959 513.385,337.681 513.237 C 338.535 513.062,339.047 512.697,339.144 512.194 C 339.226 511.768,339.582 511.209,339.936 510.950 C 340.503 510.535,340.512 510.356,340.008 509.416 C 339.549 508.557,339.534 508.197,339.933 507.559 C 340.205 507.124,340.335 506.619,340.223 506.437 C 340.111 506.256,340.370 505.789,340.800 505.400 C 341.692 504.593,341.512 504.000,340.376 504.000 C 339.368 504.000,339.397 503.742,340.577 502.195 C 341.585 500.873,341.375 500.000,340.050 500.000 C 339.622 500.000,339.715 499.729,340.390 499.010 C 341.274 498.070,341.282 498.009,340.560 497.782 C 338.950 497.275,338.601 496.903,338.731 495.834 C 338.804 495.242,338.647 494.497,338.382 494.179 C 337.768 493.438,338.532 492.400,339.692 492.400 C 340.169 492.400,340.404 492.201,340.281 491.900 C 339.499 489.987,339.500 489.951,340.348 489.729 C 341.355 489.466,341.408 489.244,340.607 488.644 C 340.211 488.347,340.135 488.010,340.377 487.626 C 340.658 487.180,340.865 487.156,341.305 487.521 C 341.758 487.897,341.980 487.785,342.424 486.955 C 342.901 486.063,342.897 485.856,342.389 485.460 C 342.053 485.198,341.854 484.527,341.927 483.900 C 341.996 483.295,341.861 482.800,341.627 482.800 C 341.392 482.800,341.200 482.068,341.200 481.174 C 341.200 478.960,340.587 477.887,339.517 478.226 C 338.816 478.449,338.718 478.357,338.904 477.646 C 339.025 477.181,338.962 476.700,338.762 476.577 C 338.563 476.454,338.400 475.984,338.400 475.534 C 338.400 474.978,338.211 474.787,337.813 474.940 C 337.490 475.064,337.119 474.993,336.989 474.783 C 336.859 474.572,336.349 474.400,335.856 474.400 C 334.559 474.400,333.941 473.657,334.450 472.707 C 334.909 471.849,334.657 470.800,333.992 470.800 C 333.754 470.800,333.286 471.454,332.952 472.253 C 332.493 473.352,332.233 473.593,331.883 473.243 C 331.532 472.892,331.539 472.589,331.910 471.995 C 332.647 470.815,332.534 469.536,331.700 469.621 C 331.315 469.660,330.820 469.651,330.600 469.600 C 330.380 469.549,329.930 469.483,329.600 469.454 C 329.017 469.402,328.922 468.833,329.290 467.600 C 329.388 467.270,329.393 467.135,329.301 467.300 C 329.209 467.465,328.799 467.600,328.390 467.600 C 327.982 467.600,327.536 467.780,327.400 468.000 C 326.872 468.855,325.600 468.431,325.600 467.400 C 325.600 466.281,325.478 466.223,324.374 466.814 C 323.796 467.123,323.597 467.098,323.587 466.714 C 323.555 465.400,322.393 464.542,321.775 465.376 C 321.292 466.029,321.200 466.048,321.200 465.498 C 321.200 464.972,320.842 464.864,319.380 464.950 C 318.066 465.028,317.457 464.883,317.187 464.429 C 316.858 463.873,316.767 463.870,316.407 464.400 C 316.066 464.903,315.960 464.855,315.753 464.100 C 315.413 462.857,313.989 462.857,314.300 464.100 C 314.524 464.994,314.520 464.995,313.658 464.233 C 313.180 463.812,312.255 463.467,311.600 463.467 C 310.553 463.467,310.379 463.296,310.141 462.033 L 309.870 460.600 309.502 461.700 C 309.081 462.958,308.468 463.062,306.744 462.171 C 305.398 461.475,304.298 462.041,303.578 463.800 C 303.265 464.565,303.250 464.561,303.225 463.714 C 303.192 462.559,301.787 461.735,301.432 462.662 C 301.206 463.249,301.112 463.244,300.407 462.607 C 299.893 462.141,299.216 461.966,298.398 462.086 C 297.720 462.185,297.099 462.160,297.018 462.029 C 296.937 461.898,295.685 461.822,294.236 461.860 C 292.738 461.899,291.600 461.760,291.600 461.537 C 291.600 461.322,291.960 461.260,292.400 461.400 C 293.026 461.599,293.200 461.472,293.200 460.818 C 293.200 460.031,293.144 460.018,292.256 460.600 C 291.161 461.318,290.134 461.053,289.788 459.963 C 289.655 459.543,289.391 459.200,289.202 459.200 C 289.013 459.200,288.776 458.885,288.676 458.500 C 288.534 457.959,288.482 458.000,288.446 458.676 C 288.391 459.722,287.692 460.252,287.121 459.681 C 286.842 459.402,286.331 459.707,285.515 460.636 C 284.258 462.068,283.343 462.446,283.759 461.363 C 284.813 458.616,283.988 457.509,282.269 459.363 C 281.127 460.595,280.000 460.725,280.000 459.624 C 280.000 458.601,279.352 458.227,279.031 459.064 C 278.801 459.663,278.730 459.658,278.251 459.002 C 277.829 458.425,277.354 458.324,275.862 458.492 C 273.993 458.703,273.075 457.900,274.700 457.476 C 275.085 457.375,274.455 457.272,273.300 457.246 C 271.721 457.212,271.200 457.051,271.200 456.600 C 271.200 455.725,270.496 455.866,270.200 456.800 C 269.938 457.626,269.697 457.718,268.000 457.637 C 266.501 457.566,265.588 458.290,266.500 458.827 C 267.260 459.275,267.461 460.400,266.781 460.400 C 266.550 460.400,265.965 459.968,265.481 459.440 C 264.996 458.911,264.060 458.379,263.400 458.256 C 262.740 458.132,262.425 458.130,262.700 458.249 C 263.303 458.512,263.371 459.600,262.784 459.600 C 262.307 459.600,259.868 457.954,259.665 457.495 C 259.591 457.328,259.186 457.007,258.765 456.781 C 257.373 456.036,257.799 458.083,259.203 458.881 C 260.577 459.664,260.770 460.400,259.600 460.400 C 259.160 460.400,258.800 460.198,258.800 459.950 C 258.800 459.666,258.370 459.586,257.636 459.733 C 256.823 459.895,256.405 459.790,256.249 459.383 C 256.126 459.062,256.199 458.800,256.413 458.800 C 256.626 458.800,256.800 458.530,256.800 458.200 C 256.800 457.870,256.561 457.600,256.269 457.600 C 255.907 457.600,255.794 457.219,255.915 456.400 C 256.119 455.010,255.631 454.861,254.600 456.000 C 254.196 456.447,253.368 456.800,252.725 456.800 C 251.911 456.800,251.481 457.053,251.255 457.664 C 250.967 458.441,250.907 458.457,250.664 457.823 C 250.509 457.419,250.147 457.212,249.817 457.338 C 249.444 457.481,249.315 457.366,249.451 457.010 C 249.632 456.539,248.125 455.294,247.825 455.668 C 247.350 456.259,246.914 458.423,247.230 458.619 C 247.818 458.982,247.251 459.600,246.331 459.600 C 245.519 459.600,245.446 458.909,246.040 456.845 C 246.251 456.113,244.121 455.507,243.154 456.024 C 242.756 456.238,242.523 456.655,242.637 456.952 C 242.771 457.300,242.447 457.571,241.722 457.718 C 241.105 457.842,240.254 458.078,239.831 458.241 C 239.224 458.476,239.114 458.401,239.311 457.887 C 239.527 457.326,239.425 457.297,238.584 457.680 C 237.972 457.959,237.731 458.289,237.939 458.563 C 238.446 459.229,236.977 460.495,236.444 459.852 C 235.943 459.249,236.300 457.564,237.058 456.951 C 237.364 456.704,237.512 456.235,237.387 455.909 C 237.207 455.441,236.904 455.555,235.937 456.459 C 234.415 457.880,234.086 457.887,233.927 456.500 C 233.704 454.568,230.400 454.882,230.400 456.835 C 230.400 457.695,228.809 458.759,228.787 457.914 C 228.753 456.614,227.225 455.453,226.460 456.145 C 226.062 456.505,225.495 456.800,225.200 456.800 C 224.905 456.800,224.327 457.104,223.915 457.477 C 223.219 458.106,223.090 458.108,222.054 457.496 C 221.436 457.130,220.553 456.939,220.068 457.066 C 219.588 457.192,218.897 457.048,218.532 456.747 C 217.935 456.256,217.894 456.308,218.131 457.258 C 218.448 458.531,217.863 458.857,215.851 458.531 C 214.560 458.321,214.484 458.231,214.831 457.319 C 215.406 455.806,214.601 455.105,213.263 455.953 C 212.814 456.237,212.814 456.436,213.263 457.171 C 213.734 457.941,213.705 458.119,213.024 458.624 C 212.009 459.377,211.600 459.352,211.600 458.538 C 211.600 458.174,211.178 457.319,210.662 456.638 C 210.146 455.957,209.621 455.130,209.494 454.800 C 209.352 454.430,209.251 454.593,209.232 455.224 C 209.176 457.037,208.276 457.854,206.983 457.265 C 206.213 456.914,205.751 456.889,205.459 457.181 C 204.862 457.778,204.531 457.707,203.687 456.801 C 202.879 455.934,201.520 455.690,200.100 456.158 C 199.444 456.374,199.200 456.297,199.200 455.874 C 199.200 455.127,197.918 454.790,197.009 455.299 C 196.451 455.611,196.114 455.455,195.388 454.547 C 194.870 453.898,194.326 453.554,194.136 453.755 C 193.951 453.950,194.026 454.190,194.302 454.289 C 194.951 454.520,194.537 455.200,193.748 455.200 C 192.832 455.200,192.000 454.178,192.000 453.052 C 192.000 451.629,191.273 451.356,190.800 452.601 C 190.557 453.239,190.126 453.622,189.700 453.579 C 188.463 453.453,188.291 453.586,188.838 454.246 C 189.302 454.805,189.273 454.872,188.626 454.746 C 188.214 454.666,187.523 453.917,187.090 453.082 C 186.367 451.688,186.247 451.614,185.620 452.182 C 185.244 452.522,184.672 452.800,184.349 452.800 C 184.025 452.800,183.550 453.010,183.293 453.267 C 182.936 453.624,182.572 453.481,181.758 452.667 C 180.419 451.328,179.855 451.323,179.253 452.644 C 178.781 453.679,178.455 453.725,176.700 453.003 C 176.204 452.798,176.000 452.902,176.000 453.357 C 176.000 453.869,175.557 454.000,173.833 454.000 C 171.286 454.000,170.400 453.727,170.400 452.943 C 170.400 452.466,170.252 452.456,169.500 452.884 C 168.632 453.378,168.383 453.454,167.300 453.554 C 167.025 453.579,166.800 453.870,166.800 454.200 C 166.800 454.530,166.485 454.797,166.100 454.794 C 165.585 454.789,165.536 454.702,165.914 454.462 C 166.504 454.087,166.149 452.774,165.322 452.275 C 165.026 452.097,164.877 451.799,164.992 451.613 C 165.107 451.427,164.817 451.375,164.347 451.498 C 163.878 451.621,163.406 452.054,163.300 452.461 C 163.194 452.867,162.948 453.200,162.753 453.200 C 162.559 453.200,162.400 453.560,162.400 454.000 C 162.400 455.224,161.611 454.952,161.126 453.561 C 160.759 452.506,160.538 452.352,159.647 452.530 C 159.056 452.647,158.262 452.490,157.824 452.169 C 156.766 451.394,156.478 451.451,156.328 452.467 C 156.162 453.591,154.000 453.833,154.000 452.727 C 154.000 451.460,152.463 451.010,152.166 452.191 C 152.016 452.789,151.605 453.224,151.157 453.260 C 150.740 453.293,150.183 453.338,149.918 453.360 C 149.653 453.382,149.311 452.950,149.158 452.400 C 149.003 451.842,148.862 451.694,148.840 452.064 C 148.739 453.740,145.210 455.450,144.115 454.355 C 143.869 454.109,143.439 454.052,143.155 454.228 C 141.520 455.238,139.966 454.358,140.762 452.871 C 141.299 451.868,140.308 451.346,139.566 452.242 C 139.233 452.642,138.702 452.754,137.936 452.586 C 137.138 452.411,136.792 452.495,136.775 452.868 C 136.761 453.161,136.587 452.995,136.388 452.500 C 135.850 451.163,135.200 451.410,135.200 452.951 C 135.200 454.876,134.281 455.538,132.812 454.671 C 132.188 454.302,131.389 454.000,131.038 454.000 C 130.687 454.000,130.399 453.865,130.397 453.700 C 130.394 453.388,128.496 452.400,127.901 452.400 C 127.715 452.400,127.165 451.977,126.681 451.461 C 125.478 450.179,124.950 450.500,125.132 452.403 C 125.314 454.315,125.072 454.384,123.739 452.800 C 122.678 451.539,121.781 451.259,121.499 452.100 C 121.367 452.494,121.114 452.485,120.312 452.057 C 119.751 451.759,118.714 451.469,118.008 451.413 C 117.301 451.358,116.379 451.017,115.957 450.656 C 114.917 449.765,114.445 449.831,114.029 450.923 C 113.702 451.783,113.470 451.842,110.627 451.791 C 108.534 451.753,107.705 451.865,107.988 452.148 C 108.675 452.835,108.461 453.059,107.100 453.076 C 105.425 453.096,103.898 453.369,103.266 453.759 C 102.990 453.930,102.519 453.865,102.218 453.615 C 101.842 453.303,101.590 453.292,101.412 453.581 C 100.972 454.293,100.427 454.046,100.168 453.016 C 99.824 451.644,98.889 450.904,98.565 451.748 C 98.380 452.229,98.140 452.289,97.586 451.993 C 96.504 451.413,96.400 451.484,96.400 452.800 C 96.400 453.912,96.294 454.000,94.957 454.000 C 93.872 454.000,93.569 453.859,93.733 453.429 C 93.973 452.805,93.088 451.846,92.663 452.270 C 92.518 452.415,92.400 453.007,92.400 453.587 C 92.400 454.637,91.767 455.600,91.076 455.600 C 90.876 455.600,90.786 454.970,90.876 454.200 C 91.027 452.908,90.957 452.800,89.969 452.800 C 87.998 452.800,86.980 450.059,88.440 448.684 C 88.858 448.291,89.200 447.597,89.200 447.142 C 89.200 446.565,89.385 446.385,89.809 446.548 C 90.526 446.823,90.039 445.696,88.986 444.643 C 88.426 444.084,88.434 443.920,89.061 442.963 L 89.756 441.902 88.378 442.146 C 87.620 442.281,87.225 442.288,87.500 442.162 C 87.775 442.036,88.000 441.676,88.000 441.361 C 88.000 441.046,88.542 440.459,89.204 440.056 L 90.407 439.324 89.404 438.242 C 88.253 437.000,88.162 436.577,88.980 436.263 C 89.334 436.127,89.659 436.355,89.816 436.851 C 90.184 438.010,90.600 437.381,90.600 435.666 C 90.600 434.713,90.345 434.010,89.871 433.657 C 88.845 432.893,88.426 431.547,88.952 430.705 C 89.537 429.768,90.286 429.811,90.600 430.800 C 90.740 431.240,91.034 431.600,91.254 431.600 C 91.691 431.600,91.334 430.040,90.755 429.420 C 90.103 428.722,90.363 427.600,91.176 427.600 C 91.603 427.600,92.064 427.780,92.200 428.000 C 92.336 428.220,92.797 428.400,93.224 428.400 C 93.651 428.400,94.000 428.220,94.000 428.000 C 94.000 427.780,93.812 427.600,93.583 427.600 C 92.614 427.600,89.200 423.806,89.200 422.729 C 89.200 422.134,89.020 421.536,88.800 421.400 C 88.095 420.965,88.368 420.437,89.636 419.781 C 90.808 419.175,90.837 419.104,90.200 418.400 C 89.765 417.919,89.624 417.356,89.800 416.801 C 90.010 416.137,89.879 415.893,89.215 415.720 C 88.676 415.579,88.274 415.071,88.130 414.348 C 88.003 413.717,87.706 413.200,87.470 413.200 C 86.237 413.200,88.060 412.393,89.607 412.254 C 91.505 412.083,91.870 411.594,91.960 409.100 C 91.995 408.136,91.852 408.000,90.800 408.000 C 89.536 408.000,89.183 408.555,90.200 408.945 C 91.156 409.311,90.895 410.000,89.800 410.000 C 89.250 410.000,88.802 409.775,88.805 409.500 C 88.819 408.257,89.339 407.257,90.072 407.065 C 91.286 406.748,90.838 405.428,89.461 405.270 C 88.400 405.148,88.375 405.105,89.065 404.575 C 89.768 404.034,89.757 403.977,88.813 403.237 C 88.009 402.608,87.847 402.168,87.941 400.868 C 88.028 399.664,87.877 399.167,87.328 398.848 C 86.928 398.615,86.820 398.419,87.090 398.412 C 88.156 398.386,89.603 393.862,88.684 393.426 C 88.418 393.300,88.695 393.262,89.300 393.343 C 90.701 393.529,90.749 392.732,89.400 391.671 C 88.191 390.721,88.167 390.554,89.200 390.284 C 90.258 390.007,90.215 389.340,89.100 388.760 C 88.605 388.502,88.153 388.254,88.095 388.207 C 88.037 388.161,88.279 387.430,88.633 386.584 C 89.231 385.151,89.228 385.010,88.588 384.542 C 88.172 384.238,88.001 383.775,88.155 383.374 C 88.341 382.888,88.546 382.823,88.918 383.132 C 89.244 383.403,89.637 383.419,90.013 383.177 C 90.399 382.929,90.457 382.697,90.182 382.500 C 88.207 381.082,87.878 378.422,89.676 378.406 C 90.779 378.396,90.879 377.724,90.027 376.052 C 89.198 374.428,89.679 373.439,90.768 374.528 C 91.122 374.882,91.323 374.850,91.606 374.397 C 91.889 373.944,91.768 373.766,91.105 373.661 C 90.181 373.514,89.234 372.534,89.213 371.702 C 89.206 371.428,90.009 370.824,90.997 370.359 C 92.793 369.515,93.053 368.800,91.564 368.800 C 90.451 368.800,90.099 367.610,91.013 366.941 C 91.568 366.535,91.731 365.971,91.657 364.711 C 91.535 362.650,91.680 362.776,89.889 363.180 C 88.593 363.472,88.400 363.421,88.400 362.789 C 88.400 361.716,91.166 360.839,91.676 361.750 C 92.147 362.592,93.600 362.601,93.600 361.763 C 93.600 361.412,93.235 361.030,92.789 360.913 C 92.244 360.771,92.049 360.476,92.194 360.018 C 92.320 359.622,92.075 359.030,91.615 358.614 C 90.701 357.786,90.884 357.200,92.057 357.200 C 92.533 357.200,92.793 356.994,92.689 356.700 C 92.592 356.425,92.144 356.240,91.695 356.288 C 91.246 356.337,90.663 356.117,90.400 355.799 C 89.755 355.023,90.762 354.000,92.171 354.000 C 93.239 354.000,93.625 353.030,92.700 352.675 C 92.250 352.502,92.797 351.926,94.536 350.740 C 94.752 350.593,94.775 350.161,94.589 349.740 C 94.409 349.333,94.213 348.580,94.152 348.067 C 94.092 347.554,93.849 346.900,93.611 346.613 C 93.292 346.229,93.339 346.032,93.790 345.859 C 94.661 345.525,94.544 344.500,93.600 344.200 C 92.670 343.905,92.584 343.477,93.330 342.858 C 93.686 342.563,93.991 342.551,94.263 342.823 C 94.868 343.428,96.131 342.840,95.600 342.200 C 95.295 341.833,95.348 341.629,95.790 341.459 C 96.645 341.131,96.555 340.684,95.378 339.414 C 94.445 338.408,94.410 338.251,94.978 337.624 C 95.825 336.688,95.760 336.000,94.824 336.000 C 94.397 336.000,93.936 335.820,93.800 335.600 C 93.664 335.380,93.923 335.200,94.376 335.200 C 95.240 335.200,95.484 334.623,94.800 334.200 C 94.095 333.764,94.372 332.901,95.293 332.660 C 96.293 332.398,95.908 331.769,94.605 331.534 C 94.167 331.455,93.752 331.092,93.681 330.727 C 93.583 330.218,93.761 330.117,94.444 330.296 C 95.156 330.482,95.284 330.395,95.080 329.864 C 94.918 329.442,95.027 329.200,95.379 329.200 C 95.684 329.200,95.997 329.390,96.074 329.623 C 96.312 330.337,97.600 329.565,97.600 328.708 C 97.600 328.085,97.480 328.002,97.070 328.342 C 96.684 328.662,96.414 328.654,96.070 328.310 C 95.347 327.587,95.508 327.200,96.533 327.200 C 97.883 327.200,98.038 326.865,97.398 325.332 C 96.353 322.832,97.375 320.623,99.140 321.568 C 100.003 322.030,101.334 321.741,100.981 321.169 C 100.863 320.978,100.134 320.522,99.362 320.155 C 98.503 319.748,98.037 319.281,98.162 318.955 C 98.275 318.661,98.059 318.239,97.683 318.015 C 97.054 317.642,97.068 317.554,97.855 316.905 C 98.406 316.451,98.808 315.515,98.983 314.277 C 99.138 313.185,99.503 312.258,99.828 312.134 C 100.571 311.849,100.558 311.029,99.800 310.400 C 99.470 310.126,99.200 309.480,99.200 308.964 C 99.200 308.294,99.028 308.091,98.600 308.255 C 98.218 308.402,98.000 308.249,98.000 307.833 C 98.000 307.474,98.479 306.998,99.065 306.775 C 99.875 306.467,100.019 306.259,99.665 305.905 C 98.916 305.156,99.126 304.408,100.200 304.000 C 100.750 303.791,101.200 303.435,101.200 303.210 C 101.200 302.984,101.492 302.800,101.849 302.800 C 102.397 302.800,102.416 302.701,101.970 302.163 C 101.679 301.813,101.414 300.705,101.380 299.701 C 101.340 298.523,101.084 297.705,100.659 297.394 C 99.844 296.798,99.800 296.000,100.581 296.000 C 102.296 296.000,103.191 295.105,103.065 293.514 L 102.941 291.951 104.366 292.074 C 105.875 292.204,106.575 291.215,105.638 290.278 C 104.882 289.522,105.157 288.800,106.200 288.800 C 106.881 288.800,107.204 288.576,107.213 288.100 C 107.238 286.804,109.200 284.927,109.200 286.200 C 109.200 287.120,110.283 286.918,112.128 285.655 C 114.505 284.027,115.501 283.786,116.420 284.618 C 117.144 285.273,117.198 285.272,117.456 284.598 C 117.716 283.922,117.754 283.923,118.264 284.620 C 118.778 285.323,118.845 285.317,119.983 284.476 C 121.443 283.396,121.644 283.392,122.530 284.427 C 123.294 285.318,124.200 285.286,124.200 284.367 C 124.200 283.333,127.485 283.438,128.048 284.490 L 128.519 285.370 128.856 284.459 C 129.208 283.510,130.000 283.623,130.000 284.624 C 130.000 285.372,130.593 285.354,131.792 284.568 C 132.527 284.087,133.272 284.001,134.931 284.209 C 136.600 284.417,137.333 284.331,138.085 283.839 C 139.240 283.081,139.600 283.325,139.600 284.867 C 139.600 286.276,140.225 286.351,140.568 284.984 C 140.729 284.344,140.997 284.074,141.292 284.257 C 142.140 284.781,143.792 284.657,144.260 284.034 C 144.665 283.494,144.848 283.490,145.804 284.002 C 146.400 284.321,147.393 284.529,148.009 284.465 C 148.697 284.392,149.263 284.583,149.472 284.957 C 149.770 285.490,149.938 285.495,150.807 284.999 C 153.253 283.602,153.372 283.601,153.800 284.983 L 154.200 286.275 155.600 285.504 C 156.370 285.080,157.333 284.411,157.739 284.016 C 158.577 283.204,161.083 283.652,161.747 284.731 C 162.037 285.203,162.149 285.207,162.429 284.753 C 163.140 283.602,168.517 284.116,168.365 285.321 C 168.223 286.452,168.457 286.800,169.358 286.800 C 170.246 286.800,170.293 286.698,170.000 285.398 C 169.826 284.627,169.824 283.909,169.996 283.802 C 170.480 283.503,171.317 284.719,171.070 285.362 C 170.800 286.064,171.977 286.583,172.547 286.013 C 173.179 285.381,173.600 285.519,173.600 286.357 C 173.600 286.774,173.870 287.218,174.200 287.345 C 174.530 287.471,174.800 287.367,174.800 287.113 C 174.800 286.340,176.449 284.844,177.048 285.074 C 177.357 285.192,177.903 285.047,178.260 284.750 C 178.819 284.286,178.993 284.336,179.504 285.105 C 180.286 286.284,181.141 286.272,180.914 285.087 C 180.665 283.779,183.868 284.016,184.404 285.345 C 184.594 285.815,184.761 285.975,184.775 285.700 C 184.805 285.105,186.246 285.027,186.600 285.600 C 186.909 286.099,188.400 286.130,188.400 285.637 C 188.400 285.437,190.155 285.308,192.300 285.351 C 195.162 285.407,196.309 285.285,196.611 284.892 C 197.025 284.352,198.400 284.596,198.400 285.211 C 198.400 285.389,199.047 285.357,199.838 285.139 C 200.628 284.920,201.378 284.845,201.504 284.971 C 201.630 285.097,201.433 285.200,201.067 285.200 C 200.700 285.200,200.400 285.371,200.400 285.581 C 200.400 285.799,201.974 285.937,204.075 285.905 C 206.605 285.865,207.799 285.996,207.908 286.324 C 208.162 287.087,208.686 286.875,208.953 285.900 C 209.134 285.240,209.289 285.138,209.534 285.517 C 209.789 285.911,210.279 285.941,211.605 285.643 C 212.922 285.347,213.600 285.386,214.410 285.805 C 215.523 286.381,217.200 286.200,217.200 285.504 C 217.200 285.283,217.484 285.338,217.830 285.625 C 218.322 286.033,218.528 286.041,218.762 285.661 C 218.928 285.392,219.351 285.283,219.701 285.417 C 220.063 285.556,220.658 285.342,221.080 284.920 C 221.803 284.197,221.841 284.218,222.559 285.720 C 223.477 287.642,224.190 287.936,225.331 286.865 C 226.218 286.031,227.578 286.032,228.651 286.866 C 228.947 287.096,229.178 286.927,229.321 286.379 L 229.541 285.541 230.370 286.370 C 231.319 287.319,231.842 287.417,232.143 286.700 C 232.296 286.338,232.471 286.385,232.781 286.872 C 233.286 287.666,235.101 287.596,235.638 286.762 C 235.945 286.286,236.054 286.284,236.355 286.751 C 236.790 287.426,237.591 287.001,237.625 286.076 C 237.643 285.606,237.766 285.687,238.028 286.342 C 238.259 286.919,238.625 287.199,238.973 287.066 C 239.286 286.946,239.757 287.107,240.020 287.424 C 240.701 288.245,241.600 288.136,241.600 287.233 C 241.600 285.934,242.046 285.141,242.547 285.551 C 244.993 287.557,248.437 288.364,247.560 286.726 C 247.068 285.806,247.405 285.245,248.057 285.897 C 248.341 286.181,248.830 286.217,249.410 285.996 C 250.448 285.602,250.800 285.822,250.800 286.867 C 250.800 287.830,251.386 287.796,252.334 286.779 C 253.020 286.042,253.125 286.026,253.354 286.624 C 253.558 287.155,253.727 287.193,254.187 286.811 C 254.853 286.258,255.600 286.582,255.600 287.424 C 255.600 288.225,256.510 288.143,257.659 287.239 C 258.511 286.569,258.743 286.544,259.613 287.025 C 260.156 287.326,260.896 287.578,261.257 287.586 C 261.619 287.594,262.013 287.856,262.133 288.169 C 262.266 288.517,262.671 288.654,263.176 288.522 C 263.645 288.400,264.000 288.499,264.000 288.753 C 264.000 289.423,265.109 289.291,265.511 288.574 C 266.128 287.471,269.311 287.955,269.601 289.196 C 269.743 289.804,269.944 290.014,270.117 289.734 C 270.273 289.481,270.736 289.363,271.145 289.470 C 271.659 289.604,271.958 289.405,272.108 288.830 C 272.286 288.151,272.596 288.014,273.767 288.097 C 275.197 288.199,275.963 289.089,275.402 289.996 C 274.971 290.694,275.536 290.436,276.348 289.564 L 277.127 288.727 277.964 289.564 C 278.602 290.202,278.800 290.258,278.800 289.800 C 278.800 288.984,279.995 289.040,280.613 289.885 C 281.030 290.455,281.218 290.483,281.739 290.050 C 282.083 289.765,282.540 289.640,282.755 289.772 C 282.969 289.905,283.258 289.830,283.396 289.607 C 283.773 288.997,284.400 289.117,284.400 289.800 C 284.400 290.576,285.047 290.576,285.345 289.800 C 285.471 289.470,285.845 289.200,286.175 289.200 C 286.544 289.200,286.686 289.431,286.545 289.800 C 286.243 290.587,287.530 290.579,288.576 289.787 C 289.494 289.094,290.248 289.820,289.520 290.696 C 288.981 291.345,289.357 291.779,290.183 291.462 C 290.522 291.332,290.800 290.873,290.800 290.443 C 290.800 289.400,294.919 289.457,295.123 290.502 C 295.353 291.683,296.542 291.717,297.458 290.568 C 298.066 289.806,298.566 289.550,299.150 289.703 C 299.606 289.822,300.725 289.752,301.636 289.547 C 302.985 289.244,303.380 289.293,303.757 289.809 C 304.317 290.575,305.473 290.231,305.800 289.200 C 306.070 288.351,307.069 287.865,307.411 288.417 C 307.541 288.628,307.457 288.800,307.224 288.800 C 306.991 288.800,306.800 289.070,306.800 289.400 C 306.800 289.733,307.156 290.000,307.600 290.000 C 308.040 290.000,308.400 289.820,308.400 289.600 C 308.400 289.085,310.676 289.076,310.994 289.590 C 311.762 290.833,315.476 289.525,316.161 287.769 C 316.444 287.046,316.514 287.063,317.331 288.053 C 318.322 289.254,319.802 289.844,320.202 289.197 C 320.394 288.886,320.634 288.896,321.036 289.230 C 321.506 289.620,321.600 289.423,321.600 288.049 C 321.600 286.658,321.727 286.400,322.413 286.400 C 322.859 286.400,323.329 286.130,323.455 285.800 C 323.766 284.990,324.795 285.042,325.430 285.900 C 325.900 286.535,326.007 286.460,326.579 285.100 C 327.274 283.451,327.753 283.235,328.359 284.300 C 328.814 285.099,330.163 284.566,330.237 283.558 C 330.260 283.251,330.306 282.595,330.339 282.100 C 330.384 281.436,330.650 281.200,331.350 281.200 C 333.184 281.200,334.871 280.680,335.102 280.043 C 335.472 279.023,337.348 277.000,337.925 277.000 C 338.214 277.000,338.754 276.460,339.125 275.800 C 339.496 275.140,339.954 274.488,340.143 274.350 C 340.331 274.213,340.274 273.970,340.017 273.810 C 339.676 273.599,339.728 273.321,340.210 272.789 C 340.641 272.312,340.776 271.755,340.596 271.188 C 340.342 270.387,340.420 270.341,341.586 270.597 C 342.535 270.805,342.830 270.740,342.763 270.338 C 342.714 270.042,342.805 269.501,342.966 269.136 C 343.126 268.771,343.065 267.781,342.830 266.936 C 342.468 265.636,342.506 265.323,343.078 264.900 C 343.681 264.453,343.646 264.400,342.753 264.400 C 340.918 264.400,340.102 263.455,341.242 262.652 C 342.579 261.711,341.498 260.986,340.112 261.894 C 339.034 262.601,338.534 262.293,338.334 260.800 C 338.233 260.048,337.927 259.769,337.100 259.673 C 336.323 259.584,336.000 259.320,336.000 258.773 C 336.000 257.911,335.581 257.779,334.926 258.434 C 334.441 258.919,332.521 258.110,331.642 257.050 C 331.367 256.719,330.874 256.550,330.547 256.676 C 330.164 256.823,329.873 256.601,329.729 256.052 C 329.607 255.583,329.348 255.200,329.153 255.200 C 328.681 255.200,328.707 255.878,329.214 256.826 C 329.582 257.514,329.490 257.600,328.382 257.600 C 327.206 257.600,327.151 257.533,327.400 256.400 C 327.714 254.969,327.167 254.833,325.958 256.042 C 325.068 256.932,322.940 256.873,322.364 255.941 C 322.189 255.659,321.829 255.889,321.386 256.565 C 320.655 257.681,319.400 257.826,319.400 256.795 C 319.400 256.468,318.995 256.142,318.500 256.072 C 317.937 255.992,317.600 255.667,317.600 255.205 C 317.600 253.182,315.881 252.417,314.893 254.000 C 314.242 255.042,313.184 255.024,312.907 253.966 C 312.619 252.864,312.015 253.758,312.006 255.300 C 311.996 257.160,311.051 256.401,310.242 253.883 C 310.052 253.291,309.866 253.243,309.178 253.612 C 308.603 253.919,307.991 253.936,307.211 253.664 C 306.357 253.366,305.873 253.414,305.240 253.857 C 304.754 254.197,304.400 254.267,304.400 254.023 C 304.400 253.790,303.953 253.600,303.406 253.600 L 302.413 253.600 303.078 254.995 C 303.444 255.762,303.622 256.511,303.473 256.660 C 303.010 257.123,301.201 256.054,301.187 255.309 C 301.176 254.653,301.132 254.657,300.600 255.359 C 300.050 256.085,300.005 256.068,299.565 254.959 C 299.311 254.320,299.021 254.024,298.919 254.300 C 298.817 254.575,298.298 254.800,297.767 254.800 C 297.174 254.800,296.800 255.032,296.800 255.400 C 296.800 255.730,296.599 256.000,296.353 256.000 C 296.104 256.000,295.999 255.647,296.116 255.200 C 296.366 254.245,295.532 254.118,294.800 255.000 C 294.151 255.782,293.207 255.760,292.030 254.936 C 291.222 254.370,291.018 254.355,290.641 254.836 C 290.183 255.422,287.488 255.620,286.973 255.106 C 286.811 254.945,286.466 255.103,286.206 255.459 C 285.585 256.309,283.713 255.201,283.524 253.870 C 283.436 253.257,283.163 253.035,282.600 253.119 C 282.160 253.184,281.033 253.274,280.095 253.319 C 278.850 253.378,278.329 253.594,278.162 254.121 C 278.004 254.618,277.787 254.721,277.465 254.454 C 277.155 254.197,276.737 254.257,276.222 254.633 C 275.100 255.454,274.022 255.329,273.655 254.336 C 273.381 253.596,273.298 253.567,273.080 254.136 C 272.755 254.983,270.800 255.038,270.800 254.200 C 270.800 253.870,270.601 253.600,270.357 253.600 C 270.114 253.600,270.024 253.886,270.159 254.236 C 270.508 255.146,270.044 255.735,269.400 255.200 C 269.034 254.896,268.791 254.890,268.612 255.181 C 268.228 255.801,267.600 255.689,267.600 255.000 C 267.600 254.670,267.949 254.400,268.376 254.400 C 268.803 254.400,269.264 254.220,269.400 254.000 C 269.536 253.780,269.367 253.600,269.024 253.600 C 268.681 253.600,268.394 253.375,268.387 253.100 C 268.380 252.813,268.129 252.924,267.800 253.359 C 267.341 253.965,267.108 254.022,266.648 253.640 C 266.214 253.280,266.000 253.276,265.786 253.623 C 265.576 253.963,265.414 253.945,265.174 253.559 C 264.916 253.140,264.679 253.185,264.024 253.778 C 263.451 254.297,263.200 254.363,263.200 253.996 C 263.200 253.705,262.885 253.164,262.500 252.794 C 261.685 252.011,259.600 252.474,259.600 253.439 C 259.600 253.748,259.319 254.000,258.976 254.000 C 258.633 254.000,258.467 253.816,258.606 253.590 C 258.745 253.365,258.735 252.615,258.583 251.923 C 258.355 250.883,258.243 250.781,257.934 251.333 C 257.728 251.700,257.164 252.006,256.680 252.014 C 256.196 252.022,255.350 252.286,254.800 252.600 C 252.808 253.739,251.755 251.977,253.639 250.658 C 254.472 250.074,254.472 250.067,253.681 249.643 C 252.829 249.187,252.371 249.511,251.864 250.928 C 251.694 251.402,251.290 251.611,250.706 251.528 C 249.459 251.350,249.304 250.091,250.470 249.623 C 251.385 249.257,251.382 249.250,250.300 249.225 C 249.578 249.209,249.200 249.406,249.200 249.800 C 249.200 250.130,248.930 250.400,248.600 250.400 C 248.153 250.400,248.000 249.929,248.000 248.557 C 248.000 247.041,247.888 246.757,247.367 246.957 C 247.019 247.091,246.661 247.200,246.572 247.200 C 246.483 247.200,246.293 247.931,246.150 248.825 C 245.966 249.972,245.765 250.325,245.465 250.025 C 245.231 249.791,244.671 249.597,244.220 249.594 C 243.625 249.589,243.545 249.496,243.928 249.253 C 244.258 249.044,244.408 248.336,244.328 247.359 L 244.200 245.800 243.313 247.300 C 242.096 249.360,241.208 249.311,241.491 247.200 C 241.683 245.767,241.617 245.600,240.853 245.600 C 240.384 245.600,240.000 245.420,240.000 245.200 C 240.000 244.980,239.730 244.800,239.400 244.800 C 239.070 244.800,238.800 244.980,238.800 245.200 C 238.800 245.420,238.543 245.600,238.229 245.600 C 237.915 245.600,237.309 246.044,236.882 246.586 C 236.019 247.684,235.600 247.536,235.600 246.133 C 235.600 245.088,235.009 244.879,234.655 245.800 C 234.296 246.736,233.600 246.505,233.600 245.449 C 233.600 244.559,232.454 243.090,232.354 243.851 C 232.328 244.043,232.283 244.470,232.254 244.800 C 232.220 245.178,231.756 245.415,231.000 245.439 C 230.340 245.461,229.530 245.551,229.200 245.639 C 228.784 245.751,228.600 245.494,228.600 244.800 C 228.600 244.250,228.465 243.755,228.300 243.700 C 227.582 243.461,227.200 243.644,227.200 244.227 C 227.200 245.306,225.027 244.793,224.869 243.676 C 224.718 242.607,223.749 242.091,223.104 242.736 C 222.782 243.058,222.546 242.946,222.231 242.320 C 221.533 240.932,220.912 241.017,221.125 242.473 L 221.315 243.768 220.259 243.076 C 218.853 242.154,217.063 242.538,217.426 243.683 C 217.622 244.300,217.515 244.443,216.939 244.333 C 216.532 244.255,216.142 243.788,216.072 243.295 C 215.968 242.563,215.766 242.444,214.967 242.644 C 214.429 242.779,213.733 242.677,213.420 242.417 C 212.991 242.060,212.642 242.056,211.999 242.401 C 211.330 242.759,210.949 242.728,210.231 242.257 C 209.413 241.721,209.248 241.724,208.691 242.280 C 208.240 242.732,207.755 242.817,206.934 242.588 C 206.310 242.415,205.440 242.310,205.000 242.354 C 204.343 242.421,204.307 242.364,204.797 242.035 C 205.261 241.723,205.287 241.527,204.914 241.154 C 204.541 240.781,204.301 240.784,203.836 241.170 C 202.933 241.919,201.600 241.325,201.600 240.173 C 201.600 239.503,201.376 239.200,200.880 239.200 C 200.484 239.200,199.950 238.990,199.693 238.733 C 199.337 238.377,199.170 238.413,198.990 238.881 C 198.808 239.355,198.336 239.449,196.936 239.292 C 195.699 239.152,195.016 239.251,194.801 239.599 C 194.207 240.559,192.135 240.399,191.573 239.350 C 191.022 238.319,190.596 238.159,190.184 238.826 C 190.012 239.105,189.658 239.014,189.160 238.564 C 188.742 238.186,188.400 238.016,188.400 238.187 C 188.400 238.358,188.138 238.280,187.817 238.014 C 187.355 237.631,187.044 237.664,186.317 238.175 L 185.400 238.820 186.300 239.056 C 187.401 239.346,187.490 240.000,186.428 240.000 C 185.945 240.000,185.591 240.337,185.482 240.900 C 185.372 241.471,185.289 241.264,185.254 240.333 C 185.179 238.293,184.843 237.600,183.930 237.600 C 183.348 237.600,183.207 237.791,183.382 238.344 C 183.512 238.753,183.505 239.383,183.366 239.744 C 183.083 240.481,182.000 240.645,182.000 239.951 C 182.000 239.621,181.858 239.620,181.463 239.948 C 181.168 240.193,180.816 240.282,180.680 240.147 C 180.545 240.012,180.112 240.040,179.717 240.210 C 179.323 240.380,178.611 240.481,178.135 240.435 C 177.596 240.383,177.181 240.630,177.035 241.089 C 176.772 241.919,174.651 243.318,174.256 242.923 C 173.765 242.432,174.007 242.085,175.016 241.832 C 176.027 241.578,176.028 241.571,175.330 240.388 C 174.356 238.741,172.800 239.043,172.800 240.880 C 172.800 241.947,171.102 241.976,169.931 240.930 C 169.330 240.393,169.195 240.436,168.585 241.366 C 167.906 242.403,166.658 242.740,166.206 242.010 C 166.073 241.795,165.253 241.688,164.382 241.772 C 163.117 241.893,162.799 241.791,162.794 241.262 C 162.780 239.712,162.067 239.431,161.686 240.826 L 161.311 242.200 161.011 240.700 C 160.846 239.875,160.532 239.200,160.313 239.200 C 160.094 239.200,160.018 239.470,160.145 239.800 C 160.706 241.262,159.609 242.067,158.529 240.986 C 158.086 240.543,157.773 240.490,157.404 240.796 C 156.713 241.370,156.264 240.202,156.794 239.211 C 157.271 238.319,156.203 237.733,155.367 238.428 C 155.074 238.670,154.647 238.753,154.418 238.611 C 153.859 238.266,153.882 239.322,154.445 239.885 C 154.690 240.130,154.762 240.538,154.605 240.791 C 154.166 241.502,152.800 240.064,152.800 238.891 C 152.800 238.065,152.655 237.946,151.900 238.148 C 151.405 238.281,150.831 238.392,150.624 238.395 C 150.416 238.398,150.580 238.644,150.987 238.941 C 151.668 239.439,151.677 239.554,151.103 240.375 L 150.478 241.266 150.201 240.006 C 149.919 238.722,149.823 238.647,147.900 238.226 C 147.092 238.049,146.800 238.140,146.800 238.569 C 146.800 239.461,146.134 239.677,145.461 239.004 C 144.630 238.173,144.133 238.248,143.873 239.242 C 143.749 239.716,143.423 240.002,143.126 239.896 C 142.383 239.631,141.200 240.317,141.200 241.014 C 141.200 241.338,140.834 241.600,140.381 241.600 C 139.930 241.600,138.876 241.931,138.038 242.336 C 136.526 243.067,135.200 242.790,135.200 241.745 C 135.200 241.543,134.854 241.082,134.431 240.719 C 133.588 239.998,133.200 240.408,133.200 242.019 C 133.200 242.989,131.694 243.854,131.077 243.237 C 130.340 242.500,128.471 242.721,128.000 243.600 C 127.439 244.648,126.551 244.621,126.271 243.548 C 126.124 242.988,125.839 242.776,125.437 242.931 C 125.101 243.060,124.719 242.993,124.589 242.783 C 124.225 242.193,123.600 242.330,123.600 243.000 C 123.600 243.330,123.420 243.600,123.200 243.600 C 122.980 243.600,122.800 243.420,122.800 243.200 C 122.800 242.980,122.530 242.800,122.200 242.800 C 121.867 242.800,121.600 243.156,121.600 243.600 C 121.600 244.040,121.338 244.400,121.019 244.400 C 119.815 244.400,118.452 245.337,118.181 246.350 C 118.027 246.928,117.819 247.175,117.717 246.900 C 117.446 246.163,115.978 246.294,114.515 247.187 C 113.698 247.685,113.136 247.820,112.974 247.558 C 112.834 247.331,112.467 247.242,112.160 247.360 C 111.852 247.478,111.600 247.415,111.600 247.220 C 111.600 247.025,111.491 246.581,111.358 246.234 C 111.158 245.714,111.334 245.647,112.358 245.852 C 113.565 246.093,113.600 246.059,113.600 244.650 C 113.600 243.853,113.751 243.200,113.936 243.200 C 114.120 243.200,114.477 242.750,114.727 242.200 C 115.091 241.401,115.074 241.200,114.640 241.200 C 113.932 241.200,113.141 242.168,113.286 242.858 C 113.381 243.309,110.397 243.534,108.451 243.224 C 108.369 243.211,108.513 242.946,108.770 242.636 C 109.038 242.313,109.082 241.974,108.873 241.845 C 108.419 241.565,108.770 239.497,109.334 239.131 C 109.613 238.949,109.569 238.318,109.197 237.190 C 108.700 235.685,108.712 235.481,109.323 235.139 C 110.265 234.612,110.168 234.079,109.100 233.928 C 108.031 233.776,108.022 231.505,109.085 230.315 C 109.708 229.617,109.547 228.400,108.831 228.400 C 107.976 228.400,107.953 225.822,108.794 224.200 L 109.623 222.600 108.788 222.469 C 107.686 222.296,108.000 221.438,109.231 221.260 C 111.027 221.000,110.952 219.431,109.074 217.938 C 108.250 217.284,108.257 217.270,109.721 216.659 C 110.534 216.319,111.200 215.864,111.200 215.647 C 111.200 215.431,111.580 215.133,112.044 214.986 C 112.947 214.700,112.275 214.074,110.300 213.360 C 109.395 213.033,109.417 212.884,110.500 211.964 C 111.325 211.264,111.345 211.157,110.737 210.684 C 110.229 210.287,110.172 209.993,110.493 209.419 C 110.815 208.844,110.760 208.560,110.256 208.191 C 109.328 207.513,109.426 207.336,110.900 207.031 L 112.200 206.762 111.101 205.948 C 110.239 205.310,110.055 204.921,110.249 204.147 C 110.426 203.443,110.282 203.000,109.748 202.606 C 108.789 201.898,109.973 200.673,112.500 199.760 C 113.266 199.483,113.435 198.593,112.796 198.198 C 112.192 197.824,110.800 198.377,110.800 198.990 C 110.800 199.328,110.506 199.448,110.000 199.316 C 109.107 199.083,108.947 199.587,109.680 200.320 C 110.053 200.693,109.876 200.800,108.880 200.800 C 107.559 200.800,107.141 200.151,108.200 199.745 C 109.037 199.423,108.948 198.685,108.000 198.093 C 106.895 197.403,106.993 197.141,108.761 196.051 C 110.268 195.122,110.285 195.085,109.551 194.351 C 108.728 193.528,108.575 192.586,109.200 192.200 C 109.956 191.733,109.598 191.158,108.183 190.567 L 106.767 189.975 108.231 188.188 L 109.696 186.401 108.348 186.635 C 107.607 186.764,106.775 186.938,106.500 187.022 C 105.606 187.295,105.943 185.416,106.864 184.995 C 107.806 184.564,108.304 182.400,107.462 182.400 C 107.196 182.400,106.669 182.039,106.292 181.599 C 105.625 180.820,105.641 180.801,106.903 180.899 C 107.959 180.981,108.222 180.842,108.321 180.151 C 108.423 179.438,108.280 179.334,107.426 179.497 C 106.212 179.729,105.518 178.553,106.450 177.842 C 107.038 177.394,107.012 176.000,106.416 176.000 C 106.237 176.000,105.946 175.145,105.769 174.100 C 105.593 173.055,105.385 171.840,105.307 171.400 C 105.230 170.960,105.129 170.232,105.083 169.782 C 105.038 169.332,104.671 168.463,104.270 167.850 C 103.382 166.495,103.655 165.437,104.798 165.799 C 105.482 166.016,105.600 165.873,105.600 164.827 C 105.600 164.152,105.420 163.600,105.200 163.600 C 104.980 163.600,104.800 163.780,104.800 164.000 C 104.800 164.655,103.706 164.454,103.436 163.749 C 103.104 162.885,104.397 161.900,105.099 162.482 C 105.451 162.774,105.600 162.761,105.600 162.436 C 105.600 162.182,105.987 161.831,106.459 161.656 C 107.289 161.350,107.275 161.308,106.059 160.442 C 105.367 159.949,104.800 159.288,104.800 158.973 C 104.800 158.658,104.536 158.400,104.214 158.400 C 103.562 158.400,102.685 157.048,103.081 156.653 C 103.220 156.514,103.668 156.400,104.077 156.400 C 104.512 156.400,104.986 155.962,105.221 155.345 C 105.639 154.246,105.374 153.470,104.864 154.297 C 104.415 155.023,103.055 154.477,102.527 153.357 C 101.963 152.163,102.642 151.673,103.916 152.355 C 104.744 152.798,105.200 152.588,105.200 151.761 C 105.200 151.483,104.799 151.198,104.309 151.128 C 102.661 150.891,102.920 148.756,104.713 147.796 C 106.299 146.947,106.896 145.476,105.821 145.063 C 105.441 144.917,105.200 145.044,105.200 145.389 C 105.200 146.259,104.608 146.431,103.246 145.956 C 102.459 145.682,102.000 145.250,102.000 144.784 C 102.000 143.684,102.749 143.430,103.635 144.231 C 104.126 144.676,104.560 144.800,104.796 144.564 C 105.381 143.979,104.818 142.498,103.923 142.264 C 102.777 141.964,103.425 141.200,104.824 141.200 C 105.757 141.200,106.000 141.024,106.000 140.348 C 106.000 139.597,105.833 139.522,104.600 139.723 C 102.786 140.017,102.549 138.628,104.300 137.962 C 105.276 137.591,105.321 137.500,104.700 137.152 C 104.315 136.937,104.000 136.409,104.000 135.980 C 104.000 135.475,103.727 135.200,103.224 135.200 C 102.797 135.200,102.336 135.020,102.200 134.800 C 102.064 134.580,102.160 134.400,102.413 134.400 C 103.503 134.400,104.823 132.917,104.196 132.397 C 103.598 131.901,102.727 132.282,101.906 133.400 C 101.744 133.620,101.609 133.125,101.606 132.300 C 101.600 130.905,101.683 130.800,102.776 130.800 C 104.234 130.800,104.703 130.132,103.847 129.276 C 103.428 128.857,103.200 128.800,103.200 129.114 C 103.200 129.381,102.930 129.600,102.600 129.600 C 101.819 129.600,101.819 128.431,102.600 128.187 C 104.462 127.606,104.621 127.463,103.600 127.289 C 102.111 127.036,101.258 125.200,102.629 125.200 C 103.147 125.200,103.109 125.011,102.413 124.125 C 101.659 123.167,101.637 123.011,102.206 122.693 C 102.704 122.414,102.742 122.212,102.377 121.772 C 102.015 121.336,102.035 121.161,102.466 120.996 C 103.405 120.636,103.161 117.333,102.109 116.152 C 100.785 114.666,100.647 114.342,101.195 114.003 C 101.653 113.720,102.004 111.651,102.011 109.200 C 102.015 107.697,102.675 106.821,103.217 107.600 C 103.532 108.054,103.607 107.831,103.525 106.680 C 103.465 105.844,103.617 105.034,103.862 104.880 C 104.107 104.726,104.397 104.240,104.507 103.800 C 104.689 103.074,104.711 103.083,104.754 103.900 C 104.815 105.083,105.354 105.038,106.354 103.767 C 107.333 102.523,108.461 102.629,108.843 104.002 C 109.018 104.633,109.135 104.743,109.160 104.300 C 109.182 103.915,109.370 103.600,109.578 103.600 C 109.786 103.600,110.194 103.105,110.484 102.500 C 110.797 101.846,111.333 101.400,111.805 101.400 C 112.375 101.400,112.636 101.712,112.727 102.500 C 112.875 103.787,113.437 103.944,113.800 102.800 C 114.089 101.890,115.407 101.720,115.726 102.551 C 116.020 103.316,121.198 104.068,121.958 103.455 C 122.413 103.088,122.463 103.170,122.231 103.903 C 121.797 105.269,122.982 105.049,124.407 103.500 L 125.603 102.200 126.619 103.343 C 127.379 104.197,127.892 104.437,128.649 104.293 C 129.265 104.175,129.741 104.303,129.862 104.619 C 130.010 105.003,130.270 104.930,130.862 104.338 C 131.302 103.898,131.564 103.282,131.443 102.969 C 131.321 102.649,131.463 102.400,131.770 102.400 C 132.069 102.400,132.426 102.691,132.563 103.047 C 132.864 103.831,134.400 102.131,134.400 101.013 C 134.400 100.647,134.590 100.470,134.827 100.617 C 135.062 100.762,135.224 101.448,135.187 102.140 C 135.063 104.434,135.175 104.800,136.000 104.800 C 136.529 104.800,136.800 104.533,136.800 104.014 C 136.800 102.865,138.240 102.185,138.749 103.094 C 138.964 103.479,139.272 103.661,139.433 103.500 C 139.594 103.339,139.925 103.372,140.168 103.573 C 141.318 104.528,143.000 104.244,143.000 103.095 C 143.000 102.311,143.348 101.761,144.200 101.198 L 145.400 100.405 145.600 101.903 C 145.769 103.168,145.939 103.385,146.700 103.305 C 147.408 103.230,147.600 103.413,147.600 104.162 C 147.600 104.950,148.248 105.600,149.033 105.600 C 149.383 105.600,149.181 104.035,148.800 103.800 C 148.580 103.664,148.400 103.314,148.400 103.023 C 148.400 102.281,149.898 101.958,150.162 102.644 C 150.279 102.950,150.746 103.200,151.200 103.200 C 151.654 103.200,152.124 103.459,152.246 103.776 C 152.567 104.612,154.720 104.978,155.829 104.384 C 156.976 103.771,158.932 104.791,158.544 105.801 C 158.418 106.130,158.437 106.400,158.586 106.400 C 158.995 106.400,159.811 105.490,160.110 104.700 C 160.478 103.727,161.490 103.824,161.821 104.865 C 162.085 105.699,162.110 105.703,162.519 104.965 C 163.098 103.918,164.065 103.250,164.666 103.481 C 164.966 103.596,165.267 103.218,165.418 102.536 C 165.837 100.645,165.935 100.540,165.968 101.947 C 165.997 103.156,166.092 103.264,166.900 103.009 C 169.246 102.269,170.000 102.286,170.000 103.079 C 170.000 103.893,171.365 105.600,172.016 105.600 C 172.227 105.600,172.400 105.240,172.400 104.800 C 172.400 104.360,172.568 104.000,172.773 104.000 C 172.978 104.000,173.270 103.611,173.421 103.135 C 173.664 102.368,173.738 102.346,174.068 102.935 C 174.636 103.950,175.563 103.731,176.319 102.403 C 177.097 101.034,178.375 100.817,178.684 102.000 C 178.917 102.889,180.203 103.090,180.512 102.285 C 180.718 101.749,182.313 101.652,183.084 102.128 C 183.708 102.514,184.800 102.023,184.800 101.357 C 184.800 100.721,186.227 100.596,186.600 101.200 C 186.974 101.805,188.636 101.679,189.196 101.004 C 189.789 100.291,190.326 100.554,190.795 101.787 C 191.229 102.929,193.195 103.416,193.864 102.548 C 194.267 102.025,194.363 102.054,194.588 102.761 C 194.919 103.805,196.233 103.119,196.585 101.718 C 196.860 100.623,197.511 100.538,198.248 101.500 C 198.667 102.047,198.859 102.088,199.124 101.686 C 199.311 101.404,199.748 101.282,200.096 101.415 C 200.511 101.575,200.816 101.380,200.984 100.849 C 201.125 100.405,201.637 99.917,202.120 99.767 C 202.604 99.616,203.123 99.300,203.274 99.065 C 203.468 98.762,203.820 98.768,204.474 99.082 C 204.983 99.327,205.712 99.627,206.093 99.749 C 206.490 99.875,206.693 100.214,206.568 100.539 C 206.407 100.960,206.644 101.085,207.475 101.019 C 209.211 100.880,209.999 100.395,210.013 99.457 C 210.025 98.659,210.062 98.648,210.557 99.300 C 210.850 99.686,211.013 100.496,210.920 101.100 C 210.780 102.012,210.825 102.084,211.184 101.520 C 211.534 100.970,212.000 100.885,213.609 101.076 C 215.557 101.306,215.600 101.288,215.600 100.248 C 215.600 99.300,215.486 99.213,214.548 99.449 C 213.773 99.643,213.542 99.574,213.672 99.185 C 214.005 98.186,215.075 97.809,216.069 98.341 C 216.581 98.615,217.525 99.125,218.167 99.474 C 219.100 99.980,219.489 100.012,220.099 99.631 C 220.694 99.259,220.995 99.264,221.462 99.651 C 221.944 100.052,222.132 100.037,222.424 99.574 C 222.699 99.140,222.791 99.244,222.800 100.000 C 222.818 101.492,223.481 102.384,223.988 101.600 C 224.307 101.106,224.517 101.088,225.182 101.500 C 225.626 101.775,226.307 101.995,226.695 101.988 C 227.365 101.976,227.365 101.955,226.700 101.568 C 226.315 101.344,226.000 100.899,226.000 100.580 C 226.000 99.771,227.078 99.854,227.555 100.700 C 227.862 101.244,228.058 101.293,228.433 100.922 C 228.705 100.653,229.405 100.541,230.029 100.666 C 230.670 100.794,231.674 100.622,232.401 100.260 C 233.669 99.627,234.899 99.900,235.678 100.988 C 235.831 101.202,236.023 101.292,236.104 101.188 C 236.185 101.085,236.645 100.481,237.126 99.846 C 237.894 98.832,238.000 98.791,238.000 99.507 C 238.000 100.432,240.212 101.439,240.959 100.855 C 242.649 99.533,243.761 99.927,245.982 102.633 C 246.526 103.295,246.600 103.256,247.091 102.053 C 247.380 101.344,247.788 100.869,247.997 100.998 C 248.206 101.128,248.801 100.956,249.319 100.616 C 250.271 99.993,252.209 101.194,251.948 102.245 C 251.709 103.208,252.949 104.890,253.266 104.033 C 253.436 103.575,253.821 103.200,254.123 103.200 C 254.425 103.200,254.877 102.750,255.127 102.200 C 255.688 100.969,257.141 100.872,258.107 102.000 C 258.484 102.440,258.955 102.800,259.153 102.800 C 259.684 102.800,260.029 101.665,259.583 101.389 C 259.372 101.259,259.200 100.983,259.200 100.776 C 259.200 100.180,260.396 100.339,261.083 101.026 C 261.525 101.468,261.833 101.527,262.134 101.226 C 262.736 100.624,263.600 100.697,263.600 101.351 C 263.600 101.654,263.330 102.126,263.000 102.400 C 262.670 102.674,262.400 103.151,262.400 103.461 C 262.400 104.387,264.791 102.380,265.075 101.215 C 265.212 100.657,265.516 100.074,265.752 99.920 C 266.342 99.536,267.597 100.743,267.330 101.438 C 266.947 102.437,267.856 102.033,268.330 100.994 C 268.582 100.441,269.241 99.782,269.794 99.530 C 270.347 99.278,270.800 98.830,270.800 98.536 C 270.800 97.286,271.811 98.357,272.620 100.463 C 272.759 100.828,273.217 101.216,273.637 101.326 C 274.514 101.555,274.624 101.188,273.900 100.452 C 273.499 100.045,273.622 99.752,274.522 98.972 C 275.803 97.863,276.599 97.704,276.244 98.628 C 276.066 99.095,276.235 99.238,276.902 99.184 C 279.406 98.982,279.796 99.164,280.557 100.900 C 281.170 102.298,281.351 102.466,281.575 101.847 C 281.753 101.356,282.299 101.058,283.143 100.992 C 283.855 100.936,284.789 100.572,285.219 100.183 C 286.049 99.432,286.061 99.450,286.157 101.563 C 286.219 102.941,287.035 103.033,287.532 101.718 C 288.174 100.018,289.420 98.639,290.049 98.932 C 290.352 99.073,290.994 99.476,291.476 99.827 C 292.292 100.422,292.400 100.409,293.065 99.633 C 293.877 98.684,296.316 98.486,297.155 99.300 C 297.570 99.704,297.643 99.638,297.535 98.961 C 297.381 98.007,298.227 96.800,299.049 96.800 C 299.777 96.800,299.747 97.204,298.978 97.766 C 298.053 98.443,298.635 99.400,299.971 99.400 C 301.433 99.400,302.046 98.842,300.910 98.545 C 299.589 98.199,300.265 97.200,301.819 97.200 C 302.553 97.200,303.264 97.020,303.400 96.800 C 303.707 96.303,306.000 96.267,306.000 96.758 C 306.000 96.955,306.708 97.081,307.574 97.036 C 308.796 96.974,309.190 97.117,309.336 97.678 C 309.604 98.702,311.469 98.643,311.800 97.600 C 312.121 96.589,312.429 96.595,313.544 97.633 C 314.383 98.415,314.500 98.427,315.419 97.824 C 315.959 97.471,316.400 97.366,316.400 97.591 C 316.400 98.131,317.879 98.119,318.215 97.576 C 318.381 97.307,318.663 97.406,318.986 97.848 C 319.461 98.498,319.526 98.485,319.967 97.661 C 320.520 96.628,321.184 96.870,321.236 98.124 C 321.261 98.736,321.393 98.579,321.672 97.605 C 322.020 96.390,322.134 96.295,322.553 96.868 C 322.900 97.343,323.221 97.420,323.711 97.146 C 324.145 96.903,324.661 96.911,325.142 97.169 C 326.054 97.657,326.400 97.372,326.400 96.133 C 326.400 94.833,327.007 94.968,327.600 96.400 C 327.873 97.060,328.243 97.600,328.421 97.600 C 328.599 97.600,328.802 98.005,328.872 98.500 C 329.028 99.596,329.733 99.689,329.936 98.639 C 330.016 98.221,330.250 97.681,330.455 97.439 C 330.660 97.198,331.075 96.642,331.378 96.205 C 331.901 95.449,331.964 95.444,332.695 96.105 C 333.628 96.950,334.000 96.985,334.000 96.229 C 334.000 94.881,335.281 94.247,336.021 95.228 C 336.645 96.055,336.815 96.091,337.929 95.629 C 339.502 94.978,340.115 95.365,339.798 96.810 C 339.602 97.700,339.726 98.039,340.374 98.386 C 341.042 98.744,341.200 98.711,341.200 98.214 C 341.200 97.534,342.608 97.366,343.000 98.000 C 343.436 98.705,343.932 98.427,343.716 97.600 C 343.600 97.157,343.170 96.800,342.753 96.800 C 341.966 96.800,341.786 96.156,342.333 95.294 C 342.587 94.895,342.924 94.923,343.942 95.431 C 344.912 95.915,345.364 95.962,345.773 95.623 C 346.071 95.375,346.555 95.223,346.848 95.286 C 347.141 95.349,347.439 95.021,347.511 94.557 C 347.582 94.093,348.082 93.477,348.620 93.189 C 349.252 92.851,349.611 92.298,349.632 91.632 C 349.649 91.065,349.754 90.825,349.865 91.100 C 349.976 91.375,350.502 91.600,351.033 91.600 C 351.565 91.600,352.000 91.780,352.000 92.000 C 352.000 92.220,352.201 92.400,352.447 92.400 C 352.696 92.400,352.801 92.047,352.684 91.600 C 352.569 91.161,352.641 90.698,352.844 90.573 C 353.047 90.447,353.109 90.177,352.983 89.972 C 352.553 89.277,353.202 88.794,353.943 89.257 C 354.844 89.820,357.200 88.700,357.200 87.710 C 357.200 87.189,357.093 87.147,356.720 87.520 C 356.456 87.784,355.886 88.000,355.453 88.000 C 354.758 88.000,354.802 87.865,355.833 86.831 C 356.988 85.675,357.003 85.672,357.324 86.530 L 357.647 87.398 358.373 86.436 C 358.837 85.820,359.330 85.564,359.746 85.724 C 360.190 85.894,360.976 85.350,362.252 83.986 C 363.273 82.894,364.310 81.993,364.555 81.985 C 365.189 81.965,367.200 79.208,367.200 78.359 C 367.200 77.968,367.380 77.536,367.600 77.400 C 367.820 77.264,368.000 76.473,368.000 75.643 C 368.000 74.469,368.267 73.894,369.200 73.063 C 370.729 71.701,370.729 71.154,369.200 71.460 C 367.935 71.713,367.540 71.020,368.438 70.122 C 368.756 69.804,368.431 69.210,367.256 67.962 C 366.089 66.723,365.748 66.104,366.039 65.753 C 366.325 65.408,366.246 65.154,365.771 64.888 C 365.313 64.632,365.242 64.421,365.549 64.232 C 366.464 63.666,365.951 63.379,364.100 63.419 C 363.055 63.442,361.786 63.213,361.281 62.909 C 360.437 62.402,360.268 62.456,359.220 63.578 C 357.705 65.200,355.600 64.788,355.600 62.869 C 355.600 62.302,355.366 62.283,354.448 62.775 C 354.027 62.999,353.124 63.008,352.188 62.797 C 351.223 62.580,350.449 62.593,350.160 62.833 C 349.843 63.096,349.616 63.019,349.453 62.593 C 349.266 62.106,349.038 62.059,348.432 62.383 C 347.257 63.012,345.600 62.905,345.600 62.200 C 345.600 61.870,345.426 61.600,345.213 61.600 C 344.999 61.600,344.922 61.852,345.040 62.160 C 345.323 62.897,344.454 63.414,343.885 62.845 C 343.640 62.600,343.175 62.400,342.851 62.400 C 342.528 62.400,341.979 62.150,341.631 61.845 C 340.705 61.030,338.400 60.604,338.400 61.248 C 338.400 61.628,338.284 61.644,337.949 61.309 C 337.614 60.974,337.298 60.979,336.724 61.329 C 336.083 61.720,335.849 61.664,335.351 61.000 C 334.775 60.233,334.728 60.230,334.214 60.924 C 333.868 61.391,333.582 61.495,333.410 61.217 C 333.234 60.932,332.759 61.060,332.010 61.593 C 330.321 62.796,329.923 62.642,330.216 60.900 L 330.468 59.400 329.637 60.600 C 329.179 61.260,328.804 62.050,328.803 62.355 C 328.801 62.706,328.423 62.532,327.773 61.882 C 326.770 60.879,326.701 60.868,324.873 61.423 C 323.178 61.937,322.953 61.927,322.500 61.319 C 322.223 60.946,322.000 60.859,322.000 61.124 C 322.000 62.074,318.356 61.716,318.100 60.741 C 317.882 59.907,317.860 59.904,317.321 60.641 C 316.621 61.597,313.699 61.619,312.265 60.679 C 311.256 60.018,309.200 61.159,309.200 62.381 C 309.200 63.166,308.530 62.803,308.055 61.760 C 307.600 60.763,307.541 60.747,306.605 61.360 C 305.342 62.187,303.290 62.256,303.959 61.449 C 304.321 61.013,304.227 60.847,303.508 60.654 C 302.120 60.282,302.008 60.326,301.600 61.400 C 301.312 62.156,300.931 62.400,300.034 62.400 C 299.381 62.400,298.734 62.583,298.596 62.807 C 298.127 63.565,297.600 62.759,297.594 61.276 C 297.589 60.176,297.489 59.953,297.200 60.400 C 296.987 60.730,296.809 61.405,296.806 61.900 C 296.798 63.034,296.643 63.026,295.040 61.803 L 293.733 60.807 292.797 61.803 C 291.766 62.901,290.101 63.128,289.752 62.219 C 289.572 61.751,289.380 61.731,288.764 62.115 C 288.163 62.490,287.817 62.478,287.142 62.057 C 286.391 61.587,286.315 61.600,286.529 62.160 C 286.703 62.613,286.545 62.800,285.987 62.800 C 285.554 62.800,285.200 62.530,285.200 62.200 C 285.200 61.870,285.020 61.600,284.800 61.600 C 284.580 61.600,284.400 61.780,284.400 62.000 C 284.400 62.755,280.515 62.476,280.214 61.700 C 279.962 61.050,279.901 61.056,279.362 61.790 C 278.872 62.455,278.656 62.503,277.996 62.090 C 276.946 61.435,276.400 61.472,276.400 62.200 C 276.400 62.909,276.356 62.916,275.026 62.410 C 274.405 62.174,274.000 61.709,274.000 61.234 C 274.000 60.114,273.189 59.756,272.926 60.760 C 272.806 61.222,272.562 61.600,272.386 61.600 C 272.210 61.600,271.749 61.721,271.363 61.869 C 270.822 62.077,270.720 61.986,270.918 61.469 C 271.212 60.702,269.838 60.491,269.380 61.232 C 269.233 61.470,268.681 61.556,268.153 61.424 C 267.605 61.286,266.671 61.453,265.976 61.813 C 265.232 62.197,264.027 62.395,262.879 62.321 C 261.608 62.239,260.856 62.385,260.553 62.771 C 260.172 63.259,259.904 63.223,258.721 62.524 C 257.594 61.859,256.979 61.760,255.432 61.995 C 254.109 62.196,253.475 62.141,253.350 61.813 C 253.067 61.077,250.902 61.568,250.679 62.420 C 250.510 63.065,250.302 63.108,249.040 62.760 C 247.739 62.401,247.506 62.462,246.698 63.372 L 245.800 64.382 245.033 63.327 C 244.266 62.272,244.266 62.272,245.133 62.498 C 245.719 62.652,246.000 62.543,246.000 62.163 C 246.000 61.319,244.664 61.485,244.093 62.400 C 243.581 63.220,242.400 63.508,242.400 62.813 C 242.400 62.599,242.130 62.529,241.800 62.655 C 241.470 62.782,241.200 62.686,241.200 62.443 C 241.200 62.199,240.765 62.000,240.233 62.000 C 239.702 62.000,239.162 61.775,239.033 61.500 C 238.848 61.102,238.752 61.104,238.564 61.507 C 238.056 62.601,237.085 63.200,235.820 63.200 C 235.093 63.200,234.274 63.470,234.000 63.800 C 233.299 64.645,232.363 64.545,232.116 63.600 C 231.862 62.628,231.375 62.566,231.032 63.461 C 230.800 64.064,230.731 64.059,230.250 63.401 C 229.883 62.899,229.635 62.819,229.437 63.139 C 229.073 63.730,227.200 63.743,227.200 63.155 C 227.200 62.867,226.726 62.800,225.854 62.964 C 224.268 63.261,223.200 62.936,223.200 62.157 C 223.200 61.851,223.020 61.600,222.800 61.600 C 222.580 61.600,222.400 61.954,222.400 62.386 C 222.400 63.818,220.864 64.219,220.367 62.916 L 219.942 61.800 219.061 63.260 C 218.256 64.591,218.111 64.671,217.413 64.160 C 216.992 63.852,216.378 63.600,216.049 63.600 C 215.721 63.600,215.052 63.225,214.564 62.766 C 213.683 61.939,213.673 61.938,213.423 62.729 C 213.101 63.741,212.155 64.111,211.197 63.599 C 210.017 62.967,207.679 63.102,207.529 63.811 C 207.339 64.712,205.600 63.420,205.600 62.377 C 205.600 61.865,205.325 61.600,204.795 61.600 C 204.352 61.600,203.639 61.381,203.212 61.114 C 202.558 60.706,202.283 60.770,201.494 61.512 C 200.786 62.177,200.441 62.281,200.094 61.934 C 199.747 61.587,199.492 61.591,199.059 61.951 C 198.743 62.213,198.330 62.384,198.142 62.329 C 197.954 62.275,197.440 62.431,197.000 62.676 C 196.279 63.077,194.295 63.347,192.853 63.241 C 192.510 63.215,192.384 62.903,192.516 62.400 C 192.763 61.455,192.302 61.354,191.600 62.200 C 190.564 63.449,187.487 62.076,187.273 60.270 C 187.120 58.975,186.650 58.907,185.840 60.064 C 185.189 60.994,184.000 60.534,184.000 59.351 C 184.000 58.614,183.344 58.648,183.055 59.400 C 182.686 60.363,182.065 60.093,181.907 58.900 L 181.762 57.800 181.581 58.800 M47.200 88.400 C 47.200 88.620,47.470 88.800,47.800 88.800 C 48.130 88.800,48.400 88.620,48.400 88.400 C 48.400 88.180,48.130 88.000,47.800 88.000 C 47.470 88.000,47.200 88.180,47.200 88.400 M46.800 94.000 C 46.800 94.220,47.070 94.400,47.400 94.400 C 47.730 94.400,48.000 94.220,48.000 94.000 C 48.000 93.780,47.730 93.600,47.400 93.600 C 47.070 93.600,46.800 93.780,46.800 94.000 M336.822 97.558 C 336.521 98.121,336.569 98.442,337.008 98.807 C 337.509 99.222,337.600 99.106,337.600 98.049 C 337.600 96.613,337.397 96.485,336.822 97.558 M306.800 98.518 C 306.800 98.839,307.087 99.340,307.438 99.632 C 307.996 100.094,308.059 100.041,307.938 99.212 C 307.787 98.174,306.800 97.572,306.800 98.518 M277.984 101.570 C 278.441 102.423,279.200 102.701,279.200 102.014 C 279.200 101.802,278.826 101.428,278.370 101.184 C 277.610 100.777,277.577 100.810,277.984 101.570 M130.800 102.176 C 130.800 102.493,130.620 102.864,130.400 103.000 C 130.180 103.136,130.000 102.877,130.000 102.424 C 130.000 101.971,130.180 101.600,130.400 101.600 C 130.620 101.600,130.800 101.859,130.800 102.176 M236.400 102.200 C 236.400 102.530,236.580 102.800,236.800 102.800 C 237.020 102.800,237.200 102.530,237.200 102.200 C 237.200 101.870,237.020 101.600,236.800 101.600 C 236.580 101.600,236.400 101.870,236.400 102.200 M248.987 102.440 C 248.841 102.902,248.918 103.478,249.160 103.720 C 249.480 104.040,249.600 103.810,249.600 102.880 C 249.600 101.403,249.369 101.237,248.987 102.440 M270.036 102.500 C 269.605 103.646,270.331 103.983,271.065 102.979 C 271.765 102.021,271.741 101.600,270.987 101.600 C 270.650 101.600,270.222 102.005,270.036 102.500 M201.628 102.566 C 200.996 103.328,201.185 103.704,201.960 103.225 C 202.256 103.042,202.424 102.672,202.334 102.402 C 202.218 102.054,202.014 102.101,201.628 102.566 M231.749 102.588 C 231.613 102.943,231.622 103.355,231.770 103.503 C 232.108 103.841,233.427 103.036,233.321 102.556 C 233.177 101.906,232.002 101.930,231.749 102.588 M272.000 103.376 C 272.000 103.693,272.180 104.064,272.400 104.200 C 272.620 104.336,272.800 104.077,272.800 103.624 C 272.800 103.171,272.620 102.800,272.400 102.800 C 272.180 102.800,272.000 103.059,272.000 103.376 M187.855 104.200 C 188.098 104.833,190.000 105.052,190.000 104.447 C 190.000 104.252,189.595 103.985,189.100 103.852 C 187.766 103.494,187.602 103.540,187.855 104.200 M104.800 108.133 C 104.800 108.964,105.273 109.237,105.863 108.748 C 106.639 108.104,106.523 107.600,105.600 107.600 C 105.160 107.600,104.800 107.840,104.800 108.133 M100.060 116.200 C 100.060 116.409,99.867 116.644,99.630 116.723 C 99.394 116.802,99.200 116.567,99.200 116.200 C 99.200 115.833,99.394 115.598,99.630 115.677 C 99.867 115.756,100.060 115.991,100.060 116.200 M102.222 119.235 C 102.639 119.911,101.775 120.510,100.819 120.206 C 100.130 119.987,100.052 119.820,100.428 119.366 C 100.987 118.692,101.847 118.629,102.222 119.235 M100.800 121.176 C 100.800 121.717,100.071 122.091,99.593 121.796 C 99.370 121.658,99.291 121.377,99.417 121.172 C 99.717 120.687,100.800 120.690,100.800 121.176 M105.800 143.200 C 105.640 143.458,105.690 143.850,105.910 144.070 C 106.176 144.336,106.406 144.313,106.600 144.000 C 106.760 143.742,106.710 143.350,106.490 143.130 C 106.224 142.864,105.994 142.887,105.800 143.200 M106.800 175.357 C 106.800 175.961,107.772 176.495,108.161 176.106 C 108.688 175.579,108.353 174.800,107.600 174.800 C 107.160 174.800,106.800 175.051,106.800 175.357 M110.100 188.688 C 109.825 188.786,109.600 189.135,109.600 189.462 C 109.600 189.967,109.698 189.959,110.248 189.410 C 110.952 188.706,110.890 188.406,110.100 188.688 M111.200 209.000 C 111.200 209.330,111.358 209.600,111.551 209.600 C 111.744 209.600,112.126 209.330,112.400 209.000 C 112.816 208.499,112.758 208.400,112.049 208.400 C 111.561 208.400,111.200 208.655,111.200 209.000 M109.384 232.025 C 109.240 232.259,109.443 232.806,109.836 233.240 C 110.474 233.945,110.590 233.961,110.909 233.391 C 111.609 232.141,110.131 230.817,109.384 232.025 M206.538 241.017 C 206.408 241.357,206.388 241.721,206.493 241.827 C 206.850 242.183,208.000 241.519,208.000 240.957 C 208.000 240.200,206.833 240.248,206.538 241.017 M215.200 240.951 C 215.200 241.537,216.300 242.633,216.594 242.340 C 216.690 242.244,216.664 241.768,216.537 241.283 C 216.287 240.323,215.200 240.054,215.200 240.951 M230.400 243.111 C 230.400 244.994,230.569 245.180,231.204 243.993 C 231.534 243.376,231.490 242.979,231.018 242.304 C 230.419 241.449,230.400 241.474,230.400 243.111 M233.200 242.891 C 233.200 243.506,233.975 244.400,234.508 244.400 C 234.699 244.400,234.798 243.997,234.728 243.504 C 234.590 242.537,233.200 241.979,233.200 242.891 M110.400 246.375 C 110.400 247.256,109.395 248.168,108.818 247.811 C 108.225 247.445,108.298 246.928,109.071 246.025 C 109.829 245.140,110.400 245.291,110.400 246.375 M245.206 245.900 C 245.224 246.777,245.988 247.359,245.994 246.500 C 245.997 246.005,245.820 245.600,245.600 245.600 C 245.380 245.600,245.203 245.735,245.206 245.900 M240.195 247.057 C 240.922 246.778,240.933 246.870,240.336 248.181 C 239.567 249.868,237.954 249.223,238.308 247.371 C 238.457 246.588,238.610 246.477,239.043 246.836 C 239.344 247.085,239.862 247.185,240.195 247.057 M275.680 251.934 C 275.862 253.447,278.000 253.489,278.000 251.980 C 278.000 251.080,277.829 250.933,276.780 250.933 C 275.713 250.933,275.575 251.059,275.680 251.934 M328.884 253.415 C 328.460 253.896,328.470 254.000,328.941 254.000 C 329.257 254.000,329.618 253.730,329.745 253.400 C 330.036 252.641,329.560 252.649,328.884 253.415 M306.642 256.730 C 305.988 256.803,305.338 256.629,305.148 256.330 C 304.605 255.473,304.748 255.093,305.537 255.300 C 305.998 255.420,306.482 255.174,306.827 254.646 C 307.359 253.830,307.386 253.850,307.589 255.200 C 307.786 256.506,307.722 256.609,306.642 256.730 M151.200 285.576 C 151.200 286.134,151.935 286.487,152.443 286.174 C 152.751 285.983,152.721 285.796,152.343 285.556 C 151.629 285.104,151.200 285.111,151.200 285.576 M219.352 286.581 C 219.229 286.900,219.246 287.350,219.388 287.581 C 219.854 288.335,220.400 288.021,220.400 287.000 C 220.400 285.916,219.713 285.641,219.352 286.581 M321.108 286.725 C 321.293 287.278,319.757 287.378,319.421 286.834 C 319.182 286.448,319.941 286.003,320.575 286.158 C 320.781 286.209,321.021 286.464,321.108 286.725 M324.400 288.600 C 324.400 288.930,324.580 289.200,324.800 289.200 C 325.020 289.200,325.200 288.930,325.200 288.600 C 325.200 288.270,325.020 288.000,324.800 288.000 C 324.580 288.000,324.400 288.270,324.400 288.600 M103.733 296.500 C 103.733 297.215,103.808 297.575,103.900 297.300 C 103.992 297.025,104.392 296.800,104.791 296.800 C 105.390 296.800,106.000 296.078,106.000 295.367 C 106.000 295.275,105.490 295.200,104.867 295.200 C 103.855 295.200,103.733 295.339,103.733 296.500 M101.382 310.428 C 101.232 310.671,101.286 311.046,101.502 311.262 C 101.758 311.518,101.976 311.441,102.129 311.040 C 102.409 310.310,101.776 309.792,101.382 310.428 M99.900 314.231 C 99.735 314.397,99.600 314.899,99.600 315.347 C 99.600 315.935,99.721 316.039,100.038 315.722 C 100.278 315.482,100.413 314.980,100.338 314.607 C 100.262 314.233,100.065 314.064,99.900 314.231 M95.612 344.784 C 95.288 344.989,95.144 345.278,95.293 345.426 C 95.441 345.574,95.853 345.404,96.210 345.048 C 96.913 344.344,96.557 344.187,95.612 344.784 M92.602 347.604 C 92.952 348.169,92.422 349.661,91.971 349.382 C 91.485 349.082,91.489 347.200,91.976 347.200 C 92.183 347.200,92.465 347.382,92.602 347.604 M91.120 402.480 C 91.493 402.853,91.707 402.853,92.080 402.480 C 92.453 402.107,92.347 402.000,91.600 402.000 C 90.853 402.000,90.747 402.107,91.120 402.480 M92.246 422.300 C 92.111 422.685,91.895 423.225,91.766 423.500 C 91.620 423.815,91.842 424.000,92.367 424.000 C 93.026 424.000,93.200 423.749,93.200 422.800 C 93.200 421.486,92.638 421.191,92.246 422.300 M88.400 445.600 C 88.854 445.893,88.678 445.989,87.676 445.994 C 86.895 445.997,86.454 445.836,86.600 445.600 C 86.911 445.097,87.622 445.097,88.400 445.600 M171.600 449.776 C 171.600 450.093,171.780 450.464,172.000 450.600 C 172.220 450.736,172.400 450.477,172.400 450.024 C 172.400 449.571,172.220 449.200,172.000 449.200 C 171.780 449.200,171.600 449.459,171.600 449.776 M88.800 450.828 C 88.800 451.457,89.015 451.625,89.696 451.528 C 91.025 451.338,91.142 450.000,89.829 450.000 C 89.055 450.000,88.800 450.205,88.800 450.828 M132.500 451.083 C 131.832 451.328,131.866 452.191,132.566 452.772 C 133.020 453.148,133.187 453.070,133.406 452.381 C 133.709 451.427,133.271 450.801,132.500 451.083 M174.178 452.435 C 174.031 452.674,174.070 453.030,174.265 453.225 C 174.472 453.432,174.826 453.250,175.113 452.790 C 175.519 452.140,175.504 452.000,175.027 452.000 C 174.708 452.000,174.326 452.196,174.178 452.435 M200.113 453.883 C 199.803 454.691,200.076 454.802,201.721 454.535 C 202.570 454.398,203.200 454.067,203.200 453.760 C 203.200 453.033,200.396 453.145,200.113 453.883 M205.357 454.801 C 205.334 455.460,205.469 456.000,205.657 456.000 C 205.846 456.000,206.000 455.460,206.000 454.800 C 206.000 453.235,205.413 453.236,205.357 454.801 M104.800 454.600 C 104.800 454.930,104.620 455.200,104.400 455.200 C 104.180 455.200,104.000 454.930,104.000 454.600 C 104.000 454.270,104.180 454.000,104.400 454.000 C 104.620 454.000,104.800 454.270,104.800 454.600 M229.200 454.776 C 229.200 455.469,229.904 455.598,230.404 454.996 C 230.815 454.500,230.755 454.400,230.049 454.400 C 229.582 454.400,229.200 454.569,229.200 454.776 M238.259 455.789 C 238.136 456.111,238.188 456.469,238.376 456.585 C 238.563 456.701,238.817 456.532,238.941 456.211 C 239.064 455.889,239.012 455.531,238.824 455.415 C 238.637 455.299,238.383 455.468,238.259 455.789 M232.000 457.376 C 232.000 457.693,231.839 458.052,231.642 458.174 C 231.230 458.429,230.734 457.400,231.094 457.039 C 231.523 456.610,232.000 456.787,232.000 457.376 M203.745 457.800 C 203.901 458.208,203.723 458.400,203.187 458.400 C 202.401 458.400,202.162 457.971,202.667 457.467 C 203.099 457.035,203.498 457.158,203.745 457.800 M281.005 457.592 C 280.843 457.855,280.890 458.250,281.110 458.470 C 281.631 458.991,282.045 458.321,281.624 457.638 C 281.378 457.240,281.229 457.229,281.005 457.592 M220.400 458.400 C 220.400 458.844,220.133 459.200,219.800 459.200 C 219.191 459.200,218.979 458.354,219.467 457.867 C 219.974 457.360,220.400 457.603,220.400 458.400 M249.108 458.475 C 248.861 459.217,248.000 459.340,248.000 458.633 C 248.000 458.285,248.285 458.000,248.633 458.000 C 248.982 458.000,249.195 458.214,249.108 458.475 M270.240 459.840 C 270.046 460.345,269.854 460.414,269.534 460.094 C 269.292 459.852,269.214 459.342,269.360 458.960 C 269.554 458.455,269.746 458.386,270.066 458.706 C 270.308 458.948,270.386 459.458,270.240 459.840 M252.400 459.800 C 252.400 460.130,252.220 460.400,252.000 460.400 C 251.780 460.400,251.600 460.130,251.600 459.800 C 251.600 459.470,251.780 459.200,252.000 459.200 C 252.220 459.200,252.400 459.470,252.400 459.800 M35.000 472.400 C 35.136 472.620,35.507 472.800,35.824 472.800 C 36.141 472.800,36.400 472.620,36.400 472.400 C 36.400 472.180,36.029 472.000,35.576 472.000 C 35.123 472.000,34.864 472.180,35.000 472.400 M141.508 491.925 C 141.595 492.186,141.382 492.400,141.033 492.400 C 140.685 492.400,140.400 492.115,140.400 491.767 C 140.400 491.060,141.261 491.183,141.508 491.925 M135.067 493.867 C 134.562 494.371,134.801 494.800,135.587 494.800 C 136.123 494.800,136.301 494.608,136.145 494.200 C 135.898 493.558,135.499 493.435,135.067 493.867 M340.720 495.680 C 341.093 496.053,341.307 496.053,341.680 495.680 C 342.053 495.307,341.947 495.200,341.200 495.200 C 340.453 495.200,340.347 495.307,340.720 495.680 M315.867 514.267 C 315.484 514.649,315.538 515.200,315.957 515.200 C 316.154 515.200,316.418 514.930,316.545 514.600 C 316.779 513.990,316.353 513.781,315.867 514.267 " stroke="none" fill="#EC791A" fill-rule="evenodd"></path></g></svg>