<svg id="svg" version="1.1" xmlns="http://www.w3.org/2000/svg" xmlns:xlink="http://www.w3.org/1999/xlink" width="400" height="400" viewBox="0, 0, 400,400"><g id="svgg"><path id="path0" d="M271.892 43.702 C 271.787 43.976,270.373 44.537,268.750 44.949 C 267.128 45.361,265.588 45.867,265.330 46.073 C 265.071 46.280,264.621 46.402,264.330 46.344 C 264.038 46.287,262.990 46.672,262.000 47.200 C 261.010 47.728,259.975 48.116,259.700 48.062 C 259.425 48.009,259.200 48.153,259.200 48.382 C 259.200 48.612,258.952 48.800,258.649 48.800 C 258.346 48.800,257.875 49.069,257.602 49.398 C 257.328 49.727,256.406 50.206,255.553 50.461 C 254.699 50.717,254.000 51.078,254.000 51.263 C 254.000 51.448,253.752 51.600,253.449 51.600 C 253.146 51.600,252.674 51.870,252.400 52.200 C 252.126 52.530,251.583 52.800,251.194 52.800 C 250.804 52.800,250.382 53.070,250.255 53.400 C 250.129 53.730,249.794 53.997,249.513 53.994 C 248.963 53.987,244.733 56.027,244.400 56.460 C 243.875 57.140,238.446 59.367,237.272 59.382 C 236.437 59.393,235.799 59.660,235.552 60.100 C 235.337 60.485,234.764 60.803,234.280 60.807 C 233.796 60.811,232.140 61.090,230.600 61.428 C 226.418 62.346,219.030 62.584,216.733 61.874 C 215.705 61.557,214.043 61.353,213.038 61.420 C 212.034 61.487,211.108 61.375,210.982 61.171 C 210.856 60.967,210.234 60.800,209.600 60.800 C 208.966 60.800,208.348 60.640,208.227 60.444 C 208.106 60.249,207.421 59.997,206.704 59.885 C 205.987 59.773,204.320 59.389,203.000 59.031 C 201.680 58.674,200.240 58.324,199.800 58.253 C 198.066 57.975,196.912 57.564,193.574 56.036 C 192.569 55.576,191.547 55.200,191.302 55.200 C 191.057 55.200,190.619 54.969,190.329 54.686 C 190.038 54.403,188.990 53.939,188.000 53.656 C 185.766 53.016,181.269 51.325,180.209 50.726 C 179.077 50.087,172.000 49.759,172.000 50.345 C 172.000 50.595,171.736 50.800,171.414 50.800 C 169.483 50.800,169.160 54.089,169.196 73.400 C 169.239 96.701,169.367 101.162,170.189 107.800 C 170.570 110.880,170.927 113.940,170.982 114.600 C 171.037 115.260,171.213 116.214,171.374 116.719 C 171.549 117.269,171.472 117.872,171.184 118.219 C 170.854 118.617,170.830 118.957,171.107 119.300 C 171.330 119.575,171.540 121.060,171.572 122.600 C 171.643 125.947,171.856 128.636,172.413 133.200 C 172.642 135.070,172.742 137.069,172.636 137.642 C 172.530 138.215,172.606 138.846,172.804 139.044 C 173.003 139.243,173.355 141.564,173.587 144.203 C 174.395 153.412,174.843 157.409,175.200 158.600 C 175.398 159.260,175.752 161.690,175.987 164.000 C 176.222 166.310,176.695 169.750,177.038 171.644 C 177.526 174.338,177.565 175.445,177.218 176.732 C 176.713 178.610,176.998 182.896,177.810 185.600 C 178.308 187.261,178.893 199.081,178.971 209.066 C 178.987 211.082,179.135 212.867,179.300 213.033 C 179.763 213.497,179.660 218.000,179.186 218.000 C 178.916 218.000,178.902 218.243,179.146 218.700 C 179.569 219.491,179.512 263.172,179.087 263.859 C 178.941 264.095,178.952 264.419,179.111 264.578 C 179.518 264.985,179.495 278.000,179.087 278.000 C 178.903 278.000,178.876 278.200,179.027 278.444 C 179.306 278.895,179.347 286.024,179.092 289.984 C 179.015 291.185,179.072 292.956,179.218 293.919 C 179.364 294.882,179.341 296.431,179.168 297.362 C 178.994 298.293,178.992 299.678,179.164 300.440 C 179.386 301.423,179.320 301.972,178.938 302.329 C 178.239 302.982,178.247 304.575,178.953 305.161 C 179.591 305.691,179.530 307.830,178.857 308.503 C 178.301 309.059,178.255 310.000,178.785 310.000 C 179.114 310.000,179.385 317.595,179.262 323.400 C 179.206 326.095,180.819 333.550,181.682 334.580 C 181.857 334.789,182.000 335.212,182.000 335.519 C 182.000 336.244,186.222 342.321,187.566 343.531 C 192.633 348.094,194.160 349.604,195.018 350.900 C 195.564 351.725,196.196 352.400,196.423 352.400 C 196.649 352.400,197.051 352.577,197.317 352.794 C 199.729 354.761,200.422 355.200,201.115 355.200 C 202.362 355.200,202.961 358.597,202.016 360.305 C 201.805 360.687,201.062 362.350,200.366 364.000 C 199.670 365.650,198.290 368.166,197.300 369.592 C 195.713 371.875,194.385 374.800,193.736 377.443 C 193.470 378.522,194.438 378.929,195.501 378.185 C 196.020 377.821,196.382 376.961,196.550 375.690 C 196.739 374.267,197.298 373.076,198.645 371.224 C 199.656 369.836,201.241 367.115,202.168 365.179 C 203.095 363.243,204.072 361.396,204.339 361.074 C 204.606 360.752,205.012 359.344,205.242 357.944 C 205.472 356.545,205.771 355.130,205.907 354.800 C 206.043 354.470,206.169 354.020,206.187 353.800 C 206.204 353.580,206.800 352.558,207.509 351.528 C 208.219 350.498,208.800 349.398,208.800 349.082 C 208.800 348.766,209.134 348.079,209.542 347.554 C 210.101 346.835,210.250 346.087,210.147 344.520 C 210.072 343.377,210.182 342.335,210.392 342.205 C 210.602 342.075,210.667 341.436,210.537 340.785 C 210.403 340.115,210.504 339.357,210.770 339.037 C 211.059 338.688,211.091 338.380,210.853 338.233 C 210.531 338.034,210.320 336.103,210.380 333.900 C 210.388 333.625,210.435 331.780,210.486 329.800 C 210.536 327.820,210.763 326.065,210.989 325.900 C 211.257 325.704,211.207 325.476,210.846 325.243 C 210.403 324.957,210.382 324.628,210.741 323.597 C 210.988 322.888,211.060 322.104,210.902 321.854 C 210.328 320.952,210.495 301.551,211.074 301.773 C 211.365 301.885,211.600 301.706,211.600 301.375 C 211.600 301.045,211.334 300.673,211.009 300.548 C 210.171 300.226,210.350 292.932,211.213 292.258 C 211.618 291.942,211.762 291.212,211.678 289.900 C 211.605 288.757,211.724 288.000,211.978 288.000 C 212.210 288.000,212.400 287.651,212.400 287.224 C 212.400 286.797,212.556 286.351,212.746 286.233 C 212.937 286.115,213.010 285.586,212.909 285.056 C 212.807 284.527,212.922 283.972,213.162 283.823 C 213.403 283.675,213.600 283.203,213.600 282.776 C 213.600 282.349,213.776 282.000,213.991 282.000 C 214.231 282.000,214.208 281.616,213.933 281.012 C 213.587 280.253,213.602 279.879,213.998 279.402 C 214.282 279.060,214.406 278.672,214.273 278.540 C 214.140 278.407,214.294 277.792,214.614 277.172 C 215.203 276.035,214.844 275.279,213.972 275.818 C 213.736 275.963,212.747 275.963,211.774 275.817 L 210.004 275.552 210.659 274.276 C 211.019 273.574,211.648 272.571,212.057 272.046 C 212.465 271.521,212.800 270.688,212.800 270.195 C 212.800 269.702,213.073 269.072,213.406 268.795 C 213.767 268.496,213.989 267.708,213.956 266.846 C 213.926 266.051,214.029 262.250,214.186 258.400 C 214.791 243.526,214.530 230.921,213.593 229.792 C 213.036 229.120,213.676 228.000,214.617 228.000 C 215.335 228.000,215.788 223.407,215.271 221.383 C 215.048 220.512,214.857 218.914,214.846 217.832 C 214.835 216.749,214.667 215.759,214.471 215.632 C 214.276 215.504,214.101 214.779,214.083 214.020 C 214.044 212.418,212.930 209.738,211.856 208.659 C 211.277 208.078,211.167 207.566,211.361 206.356 C 211.512 205.409,211.451 204.800,211.205 204.800 C 210.982 204.800,210.800 204.296,210.800 203.680 C 210.800 203.064,210.604 202.364,210.365 202.125 C 210.052 201.812,210.052 201.615,210.365 201.422 C 210.922 201.078,210.937 198.400,210.382 198.400 C 210.153 198.400,210.001 198.175,210.046 197.900 C 210.090 197.625,209.988 197.083,209.818 196.695 C 209.647 196.302,209.700 195.761,209.939 195.474 C 210.388 194.933,210.117 193.164,209.523 192.769 C 209.333 192.642,209.090 191.472,208.983 190.169 C 208.337 182.259,208.203 178.051,208.562 176.921 C 208.888 175.893,214.703 176.109,216.912 177.231 C 217.744 177.654,218.739 178.000,219.123 178.000 C 219.508 178.000,220.236 178.290,220.742 178.645 C 221.430 179.126,222.312 179.248,224.231 179.126 C 225.644 179.036,226.800 179.075,226.800 179.213 C 226.800 179.901,228.782 180.513,229.386 180.011 C 229.724 179.731,230.000 179.668,230.000 179.872 C 230.000 180.075,230.630 180.259,231.400 180.281 C 232.176 180.303,232.800 180.125,232.800 179.880 C 232.800 179.565,232.927 179.567,233.249 179.889 C 233.496 180.136,233.948 180.241,234.254 180.124 C 234.560 180.007,235.078 180.133,235.405 180.404 C 235.818 180.747,236.000 180.761,236.000 180.449 C 236.000 179.853,237.810 179.875,238.783 180.482 C 239.414 180.876,239.694 180.839,240.313 180.279 C 240.947 179.705,241.459 179.647,243.457 179.920 C 244.769 180.099,246.324 180.117,246.912 179.960 C 247.500 179.803,248.976 179.703,250.191 179.737 C 251.406 179.772,252.401 179.665,252.400 179.500 C 252.400 179.335,253.210 179.200,254.200 179.200 C 255.190 179.200,256.000 179.351,256.000 179.536 C 256.000 179.720,256.540 179.839,257.200 179.800 C 257.860 179.761,258.400 179.880,258.400 180.064 C 258.400 180.249,258.670 180.400,259.000 180.400 C 259.330 180.400,259.600 180.220,259.600 180.000 C 259.600 179.460,261.884 179.488,262.220 180.032 C 262.384 180.298,262.895 180.347,263.544 180.160 C 264.125 179.993,266.729 179.831,269.331 179.801 C 272.715 179.762,274.153 179.600,274.381 179.231 C 274.567 178.930,275.030 178.819,275.489 178.965 C 276.926 179.421,280.000 177.226,280.000 175.744 C 280.000 175.262,280.152 174.807,280.338 174.733 C 280.862 174.526,281.223 171.600,280.725 171.600 C 280.478 171.600,280.386 171.139,280.506 170.500 C 280.744 169.227,280.344 167.882,279.784 168.070 C 279.573 168.142,279.337 167.750,279.260 167.200 C 279.182 166.650,279.002 166.110,278.860 166.000 C 278.717 165.890,278.276 165.170,277.880 164.400 C 277.484 163.630,276.909 162.550,276.604 162.000 C 275.766 160.495,269.326 154.000,268.670 154.000 C 268.355 154.000,267.871 153.726,267.593 153.392 C 266.669 152.278,260.630 149.680,258.200 149.351 C 253.519 148.716,251.472 148.567,249.418 148.712 C 248.088 148.806,246.640 148.845,246.200 148.800 C 245.760 148.754,243.580 148.695,241.356 148.668 C 237.705 148.624,237.277 148.541,236.956 147.810 C 236.492 146.754,235.832 146.775,235.679 147.850 C 235.541 148.814,232.617 149.478,231.735 148.746 C 231.409 148.476,230.982 148.489,230.426 148.786 C 229.972 149.029,229.600 149.087,229.600 148.914 C 229.599 148.639,227.707 148.533,217.600 148.243 C 216.376 148.208,214.819 147.867,214.091 147.475 C 213.372 147.088,211.955 146.754,210.944 146.734 C 209.451 146.704,205.335 145.580,205.020 145.116 C 204.976 145.052,204.568 144.459,204.113 143.798 C 203.080 142.298,202.607 138.940,202.397 131.600 C 202.338 129.510,202.185 127.620,202.059 127.401 C 201.671 126.724,201.655 124.013,202.038 123.777 C 202.611 123.422,202.459 122.800,201.800 122.800 C 201.202 122.800,201.180 122.662,200.960 117.400 C 200.923 116.520,200.852 115.710,200.803 115.600 C 200.753 115.490,200.648 114.230,200.569 112.800 C 200.491 111.370,200.244 109.120,200.022 107.800 C 198.987 101.664,200.419 96.015,203.605 93.660 C 204.371 93.093,204.800 92.421,204.800 91.788 C 204.800 91.001,205.003 90.800,205.800 90.800 C 206.350 90.800,206.800 91.000,206.800 91.243 C 206.800 91.517,207.184 91.590,207.800 91.436 C 208.538 91.251,208.800 91.344,208.800 91.792 C 208.800 92.236,209.238 92.400,210.426 92.400 C 211.321 92.400,212.399 92.585,212.822 92.812 C 214.605 93.766,224.385 93.560,227.400 92.505 C 231.085 91.215,231.329 91.116,234.600 89.599 C 236.140 88.885,238.120 87.972,239.000 87.571 C 241.778 86.305,251.984 82.737,255.155 81.924 C 256.830 81.495,260.270 80.606,262.800 79.948 C 265.330 79.291,268.570 78.478,270.000 78.141 C 271.430 77.804,273.363 77.184,274.296 76.764 C 275.228 76.344,276.281 76.000,276.635 76.000 C 276.989 76.000,277.846 75.734,278.540 75.409 C 282.296 73.647,284.990 73.105,290.746 72.950 C 297.253 72.775,300.824 71.489,303.105 68.498 C 305.210 65.738,304.810 56.000,302.591 56.000 C 302.266 56.000,302.000 55.831,302.000 55.623 C 302.000 55.416,300.920 54.671,299.600 53.968 C 298.280 53.264,297.200 52.444,297.200 52.144 C 297.200 51.845,296.904 51.600,296.541 51.600 C 295.970 51.600,293.473 49.800,291.910 48.261 C 291.186 47.548,285.767 45.147,282.456 44.072 C 281.716 43.832,279.281 43.663,277.045 43.697 C 274.808 43.730,272.777 43.633,272.531 43.481 C 272.285 43.329,271.998 43.429,271.892 43.702 " stroke="none" fill="#EC791A" fill-rule="evenodd"></path><path id="path1" d="M0.000 200.000 L 0.000 400.000 200.000 400.000 L 400.000 400.000 400.000 200.000 L 400.000 0.000 200.000 0.000 L 0.000 0.000 0.000 200.000 M277.045 43.697 C 279.281 43.663,281.716 43.832,282.456 44.072 C 285.767 45.147,291.186 47.548,291.910 48.261 C 293.473 49.800,295.970 51.600,296.541 51.600 C 296.904 51.600,297.200 51.845,297.200 52.144 C 297.200 52.444,298.280 53.264,299.600 53.968 C 300.920 54.671,302.000 55.416,302.000 55.623 C 302.000 55.831,302.266 56.000,302.591 56.000 C 304.810 56.000,305.210 65.738,303.105 68.498 C 300.824 71.489,297.253 72.775,290.746 72.950 C 284.990 73.105,282.296 73.647,278.540 75.409 C 277.846 75.734,276.989 76.000,276.635 76.000 C 276.281 76.000,275.228 76.344,274.296 76.764 C 273.363 77.184,271.430 77.804,270.000 78.141 C 268.570 78.478,265.330 79.291,262.800 79.948 C 260.270 80.606,256.830 81.495,255.155 81.924 C 251.984 82.737,241.778 86.305,239.000 87.571 C 238.120 87.972,236.140 88.885,234.600 89.599 C 231.329 91.116,231.085 91.215,227.400 92.505 C 224.385 93.560,214.605 93.766,212.822 92.812 C 212.399 92.585,211.321 92.400,210.426 92.400 C 209.238 92.400,208.800 92.236,208.800 91.792 C 208.800 91.344,208.538 91.251,207.800 91.436 C 207.184 91.590,206.800 91.517,206.800 91.243 C 206.800 91.000,206.350 90.800,205.800 90.800 C 205.003 90.800,204.800 91.001,204.800 91.788 C 204.800 92.421,204.371 93.093,203.605 93.660 C 200.419 96.015,198.987 101.664,200.022 107.800 C 200.244 109.120,200.491 111.370,200.569 112.800 C 200.648 114.230,200.753 115.490,200.803 115.600 C 200.852 115.710,200.923 116.520,200.960 117.400 C 201.180 122.662,201.202 122.800,201.800 122.800 C 202.459 122.800,202.611 123.422,202.038 123.777 C 201.655 124.013,201.671 126.724,202.059 127.401 C 202.185 127.620,202.338 129.510,202.397 131.600 C 202.607 138.940,203.080 142.298,204.113 143.798 C 204.568 144.459,204.976 145.052,205.020 145.116 C 205.335 145.580,209.451 146.704,210.944 146.734 C 211.955 146.754,213.372 147.088,214.091 147.475 C 214.819 147.867,216.376 148.208,217.600 148.243 C 227.707 148.533,229.599 148.639,229.600 148.914 C 229.600 149.087,229.972 149.029,230.426 148.786 C 230.982 148.489,231.409 148.476,231.735 148.746 C 232.617 149.478,235.541 148.814,235.679 147.850 C 235.832 146.775,236.492 146.754,236.956 147.810 C 237.277 148.541,237.705 148.624,241.356 148.668 C 243.580 148.695,245.760 148.754,246.200 148.800 C 246.640 148.845,248.088 148.806,249.418 148.712 C 251.472 148.567,253.519 148.716,258.200 149.351 C 260.630 149.680,266.669 152.278,267.593 153.392 C 267.871 153.726,268.355 154.000,268.670 154.000 C 269.326 154.000,275.766 160.495,276.604 162.000 C 276.909 162.550,277.484 163.630,277.880 164.400 C 278.276 165.170,278.717 165.890,278.860 166.000 C 279.002 166.110,279.182 166.650,279.260 167.200 C 279.337 167.750,279.573 168.142,279.784 168.070 C 280.344 167.882,280.744 169.227,280.506 170.500 C 280.386 171.139,280.478 171.600,280.725 171.600 C 281.223 171.600,280.862 174.526,280.338 174.733 C 280.152 174.807,280.000 175.262,280.000 175.744 C 280.000 177.226,276.926 179.421,275.489 178.965 C 275.030 178.819,274.567 178.930,274.381 179.231 C 274.153 179.600,272.715 179.762,269.331 179.801 C 266.729 179.831,264.125 179.993,263.544 180.160 C 262.895 180.347,262.384 180.298,262.220 180.032 C 261.884 179.488,259.600 179.460,259.600 180.000 C 259.600 180.220,259.330 180.400,259.000 180.400 C 258.670 180.400,258.400 180.249,258.400 180.064 C 258.400 179.880,257.860 179.761,257.200 179.800 C 256.540 179.839,256.000 179.720,256.000 179.536 C 256.000 179.351,255.190 179.200,254.200 179.200 C 253.210 179.200,252.400 179.335,252.400 179.500 C 252.401 179.665,251.406 179.772,250.191 179.737 C 248.976 179.703,247.500 179.803,246.912 179.960 C 246.324 180.117,244.769 180.099,243.457 179.920 C 241.459 179.647,240.947 179.705,240.313 180.279 C 239.694 180.839,239.414 180.876,238.783 180.482 C 237.810 179.875,236.000 179.853,236.000 180.449 C 236.000 180.761,235.818 180.747,235.405 180.404 C 235.078 180.133,234.560 180.007,234.254 180.124 C 233.948 180.241,233.496 180.136,233.249 179.889 C 232.927 179.567,232.800 179.565,232.800 179.880 C 232.800 180.125,232.176 180.303,231.400 180.281 C 230.630 180.259,230.000 180.075,230.000 179.872 C 230.000 179.668,229.724 179.731,229.386 180.011 C 228.782 180.513,226.800 179.901,226.800 179.213 C 226.800 179.075,225.644 179.036,224.231 179.126 C 222.312 179.248,221.430 179.126,220.742 178.645 C 220.236 178.290,219.508 178.000,219.123 178.000 C 218.739 178.000,217.744 177.654,216.912 177.231 C 214.703 176.109,208.888 175.893,208.562 176.921 C 208.203 178.051,208.337 182.259,208.983 190.169 C 209.090 191.472,209.333 192.642,209.523 192.769 C 210.117 193.164,210.388 194.933,209.939 195.474 C 209.700 195.761,209.647 196.302,209.818 196.695 C 209.988 197.083,210.090 197.625,210.046 197.900 C 210.001 198.175,210.153 198.400,210.382 198.400 C 210.937 198.400,210.922 201.078,210.365 201.422 C 210.052 201.615,210.052 201.812,210.365 202.125 C 210.604 202.364,210.800 203.064,210.800 203.680 C 210.800 204.296,210.982 204.800,211.205 204.800 C 211.451 204.800,211.512 205.409,211.361 206.356 C 211.167 207.566,211.277 208.078,211.856 208.659 C 212.930 209.738,214.044 212.418,214.083 214.020 C 214.101 214.779,214.276 215.504,214.471 215.632 C 214.667 215.759,214.835 216.749,214.846 217.832 C 214.857 218.914,215.048 220.512,215.271 221.383 C 215.788 223.407,215.335 228.000,214.617 228.000 C 213.676 228.000,213.036 229.120,213.593 229.792 C 214.530 230.921,214.791 243.526,214.186 258.400 C 214.029 262.250,213.926 266.051,213.956 266.846 C 213.989 267.708,213.767 268.496,213.406 268.795 C 213.073 269.072,212.800 269.702,212.800 270.195 C 212.800 270.688,212.465 271.521,212.057 272.046 C 211.648 272.571,211.019 273.574,210.659 274.276 L 210.004 275.552 211.774 275.817 C 212.747 275.963,213.736 275.963,213.972 275.818 C 214.844 275.279,215.203 276.035,214.614 277.172 C 214.294 277.792,214.140 278.407,214.273 278.540 C 214.406 278.672,214.282 279.060,213.998 279.402 C 213.602 279.879,213.587 280.253,213.933 281.012 C 214.208 281.616,214.231 282.000,213.991 282.000 C 213.776 282.000,213.600 282.349,213.600 282.776 C 213.600 283.203,213.403 283.675,213.162 283.823 C 212.922 283.972,212.807 284.527,212.909 285.056 C 213.010 285.586,212.937 286.115,212.746 286.233 C 212.556 286.351,212.400 286.797,212.400 287.224 C 212.400 287.651,212.210 288.000,211.978 288.000 C 211.724 288.000,211.605 288.757,211.678 289.900 C 211.762 291.212,211.618 291.942,211.213 292.258 C 210.350 292.932,210.171 300.226,211.009 300.548 C 211.334 300.673,211.600 301.045,211.600 301.375 C 211.600 301.706,211.365 301.885,211.074 301.773 C 210.495 301.551,210.328 320.952,210.902 321.854 C 211.060 322.104,210.988 322.888,210.741 323.597 C 210.382 324.628,210.403 324.957,210.846 325.243 C 211.207 325.476,211.257 325.704,210.989 325.900 C 210.763 326.065,210.536 327.820,210.486 329.800 C 210.435 331.780,210.388 333.625,210.380 333.900 C 210.320 336.103,210.531 338.034,210.853 338.233 C 211.091 338.380,211.059 338.688,210.770 339.037 C 210.504 339.357,210.403 340.115,210.537 340.785 C 210.667 341.436,210.602 342.075,210.392 342.205 C 210.182 342.335,210.072 343.377,210.147 344.520 C 210.250 346.087,210.101 346.835,209.542 347.554 C 209.134 348.079,208.800 348.766,208.800 349.082 C 208.800 349.398,208.219 350.498,207.509 351.528 C 206.800 352.558,206.204 353.580,206.187 353.800 C 206.169 354.020,206.043 354.470,205.907 354.800 C 205.771 355.130,205.472 356.545,205.242 357.944 C 205.012 359.344,204.606 360.752,204.339 361.074 C 204.072 361.396,203.095 363.243,202.168 365.179 C 201.241 367.115,199.656 369.836,198.645 371.224 C 197.298 373.076,196.739 374.267,196.550 375.690 C 196.382 376.961,196.020 377.821,195.501 378.185 C 194.438 378.929,193.470 378.522,193.736 377.443 C 194.385 374.800,195.713 371.875,197.300 369.592 C 198.290 368.166,199.670 365.650,200.366 364.000 C 201.062 362.350,201.805 360.687,202.016 360.305 C 202.961 358.597,202.362 355.200,201.115 355.200 C 200.422 355.200,199.729 354.761,197.317 352.794 C 197.051 352.577,196.649 352.400,196.423 352.400 C 196.196 352.400,195.564 351.725,195.018 350.900 C 194.160 349.604,192.633 348.094,187.566 343.531 C 186.222 342.321,182.000 336.244,182.000 335.519 C 182.000 335.212,181.857 334.789,181.682 334.580 C 180.819 333.550,179.206 326.095,179.262 323.400 C 179.385 317.595,179.114 310.000,178.785 310.000 C 178.255 310.000,178.301 309.059,178.857 308.503 C 179.530 307.830,179.591 305.691,178.953 305.161 C 178.247 304.575,178.239 302.982,178.938 302.329 C 179.320 301.972,179.386 301.423,179.164 300.440 C 178.992 299.678,178.994 298.293,179.168 297.362 C 179.341 296.431,179.364 294.882,179.218 293.919 C 179.072 292.956,179.015 291.185,179.092 289.984 C 179.347 286.024,179.306 278.895,179.027 278.444 C 178.876 278.200,178.903 278.000,179.087 278.000 C 179.495 278.000,179.518 264.985,179.111 264.578 C 178.952 264.419,178.941 264.095,179.087 263.859 C 179.512 263.172,179.569 219.491,179.146 218.700 C 178.902 218.243,178.916 218.000,179.186 218.000 C 179.660 218.000,179.763 213.497,179.300 213.033 C 179.135 212.867,178.987 211.082,178.971 209.066 C 178.893 199.081,178.308 187.261,177.810 185.600 C 176.998 182.896,176.713 178.610,177.218 176.732 C 177.565 175.445,177.526 174.338,177.038 171.644 C 176.695 169.750,176.222 166.310,175.987 164.000 C 175.752 161.690,175.398 159.260,175.200 158.600 C 174.843 157.409,174.395 153.412,173.587 144.203 C 173.355 141.564,173.003 139.243,172.804 139.044 C 172.606 138.846,172.530 138.215,172.636 137.642 C 172.742 137.069,172.642 135.070,172.413 133.200 C 171.856 128.636,171.643 125.947,171.572 122.600 C 171.540 121.060,171.330 119.575,171.107 119.300 C 170.830 118.957,170.854 118.617,171.184 118.219 C 171.472 117.872,171.549 117.269,171.374 116.719 C 171.213 116.214,171.037 115.260,170.982 114.600 C 170.927 113.940,170.570 110.880,170.189 107.800 C 169.367 101.162,169.239 96.701,169.196 73.400 C 169.160 54.089,169.483 50.800,171.414 50.800 C 171.736 50.800,172.000 50.595,172.000 50.345 C 172.000 49.759,179.077 50.087,180.209 50.726 C 181.269 51.325,185.766 53.016,188.000 53.656 C 188.990 53.939,190.038 54.403,190.329 54.686 C 190.619 54.969,191.057 55.200,191.302 55.200 C 191.547 55.200,192.569 55.576,193.574 56.036 C 196.912 57.564,198.066 57.975,199.800 58.253 C 200.240 58.324,201.680 58.674,203.000 59.031 C 204.320 59.389,205.987 59.773,206.704 59.885 C 207.421 59.997,208.106 60.249,208.227 60.444 C 208.348 60.640,208.966 60.800,209.600 60.800 C 210.234 60.800,210.856 60.967,210.982 61.171 C 211.108 61.375,212.034 61.487,213.038 61.420 C 214.043 61.353,215.705 61.557,216.733 61.874 C 219.030 62.584,226.418 62.346,230.600 61.428 C 232.140 61.090,233.796 60.811,234.280 60.807 C 234.764 60.803,235.337 60.485,235.552 60.100 C 235.799 59.660,236.437 59.393,237.272 59.382 C 238.446 59.367,243.875 57.140,244.400 56.460 C 244.733 56.027,248.963 53.987,249.513 53.994 C 249.794 53.997,250.129 53.730,250.255 53.400 C 250.382 53.070,250.804 52.800,251.194 52.800 C 251.583 52.800,252.126 52.530,252.400 52.200 C 252.674 51.870,253.146 51.600,253.449 51.600 C 253.752 51.600,254.000 51.448,254.000 51.263 C 254.000 51.078,254.699 50.717,255.553 50.461 C 256.406 50.206,257.328 49.727,257.602 49.398 C 257.875 49.069,258.346 48.800,258.649 48.800 C 258.952 48.800,259.200 48.612,259.200 48.382 C 259.200 48.153,259.425 48.009,259.700 48.062 C 259.975 48.116,261.010 47.728,262.000 47.200 C 262.990 46.672,264.038 46.287,264.330 46.344 C 264.621 46.402,265.071 46.280,265.330 46.073 C 265.588 45.867,267.128 45.361,268.750 44.949 C 270.373 44.537,271.787 43.976,271.892 43.702 C 271.998 43.429,272.285 43.329,272.531 43.481 C 272.777 43.633,274.808 43.730,277.045 43.697 " stroke="none" fill="transparent" fill-rule="evenodd"></path></g></svg>