<svg id="svg" version="1.1" xmlns="http://www.w3.org/2000/svg" xmlns:xlink="http://www.w3.org/1999/xlink" width="400" height="400" viewBox="0, 0, 400,400"><g id="svgg"><path id="path0" d="M0.000 200.000 L 0.000 400.000 200.000 400.000 L 400.000 400.000 400.000 200.000 L 400.000 0.000 200.000 0.000 L 0.000 0.000 0.000 200.000 M216.137 63.931 C 219.661 65.490,220.947 68.643,219.216 71.481 C 217.835 73.745,216.576 74.101,208.600 74.479 C 189.736 75.374,156.249 87.252,147.729 96.070 C 145.919 97.943,138.858 110.504,136.755 115.591 C 136.071 117.246,134.477 120.850,133.214 123.600 C 131.950 126.350,130.597 129.590,130.206 130.800 C 129.816 132.010,128.185 135.790,126.583 139.200 C 120.643 151.843,114.282 171.629,112.420 183.250 C 106.435 220.617,115.926 264.779,133.777 282.621 C 140.604 289.444,155.444 295.076,170.600 296.596 C 183.659 297.906,189.130 296.695,198.312 290.460 C 207.288 284.364,213.275 270.766,211.974 259.432 C 211.450 254.865,202.297 250.771,188.226 248.811 C 181.570 247.883,179.662 247.129,178.080 244.800 C 175.422 240.888,179.036 236.013,184.601 236.002 C 185.262 236.001,187.061 235.640,188.600 235.200 C 192.335 234.132,235.954 233.994,244.200 235.025 C 246.840 235.355,251.880 235.726,255.400 235.851 C 264.857 236.184,267.000 237.135,267.000 240.994 C 267.000 245.272,264.309 246.206,253.094 245.823 C 242.608 245.464,244.339 245.465,231.100 245.821 C 218.105 246.170,218.266 246.116,220.739 249.320 C 226.086 256.251,225.592 266.522,219.119 283.000 C 213.666 296.882,203.295 306.673,191.827 308.767 C 180.880 310.765,154.219 306.761,141.921 301.271 C 140.975 300.848,138.419 299.729,136.243 298.783 C 128.381 295.366,126.259 293.379,119.385 283.000 C 111.094 270.481,105.809 257.414,101.664 239.186 C 99.054 227.707,98.030 199.104,99.801 187.126 C 102.168 171.122,107.213 154.752,116.174 134.000 C 117.551 130.810,119.271 126.670,119.996 124.800 C 120.720 122.930,122.100 119.824,123.061 117.899 C 124.023 115.973,125.330 113.085,125.968 111.482 C 129.149 103.472,135.719 91.993,139.310 88.171 C 151.954 74.711,203.641 58.403,216.137 63.931 " stroke="none" fill="transparent" fill-rule="evenodd"></path><path id="path1" d="M204.000 63.047 C 187.856 64.504,156.658 75.193,144.910 83.293 C 138.300 87.851,131.096 98.572,125.968 111.482 C 125.330 113.085,124.023 115.973,123.061 117.899 C 122.100 119.824,120.720 122.930,119.996 124.800 C 119.271 126.670,117.551 130.810,116.174 134.000 C 107.213 154.752,102.168 171.122,99.801 187.126 C 98.030 199.104,99.054 227.707,101.664 239.186 C 105.809 257.414,111.094 270.481,119.385 283.000 C 126.259 293.379,128.381 295.366,136.243 298.783 C 138.419 299.729,140.975 300.848,141.921 301.271 C 154.219 306.761,180.880 310.765,191.827 308.767 C 203.295 306.673,213.666 296.882,219.119 283.000 C 225.592 266.522,226.086 256.251,220.739 249.320 C 218.266 246.116,218.105 246.170,231.100 245.821 C 244.339 245.465,242.608 245.464,253.094 245.823 C 264.309 246.206,267.000 245.272,267.000 240.994 C 267.000 237.135,264.857 236.184,255.400 235.851 C 251.880 235.726,246.840 235.355,244.200 235.025 C 235.954 233.994,192.335 234.132,188.600 235.200 C 187.061 235.640,185.262 236.001,184.601 236.002 C 179.036 236.013,175.422 240.888,178.080 244.800 C 179.662 247.129,181.570 247.883,188.226 248.811 C 202.297 250.771,211.450 254.865,211.974 259.432 C 213.275 270.766,207.288 284.364,198.312 290.460 C 189.130 296.695,183.659 297.906,170.600 296.596 C 155.444 295.076,140.604 289.444,133.777 282.621 C 115.926 264.779,106.435 220.617,112.420 183.250 C 114.282 171.629,120.643 151.843,126.583 139.200 C 128.185 135.790,129.816 132.010,130.206 130.800 C 130.597 129.590,131.950 126.350,133.214 123.600 C 134.477 120.850,136.071 117.246,136.755 115.591 C 138.858 110.504,145.919 97.943,147.729 96.070 C 156.249 87.252,189.736 75.374,208.600 74.479 C 216.576 74.101,217.835 73.745,219.216 71.481 C 222.669 65.817,215.757 61.986,204.000 63.047 " stroke="none" fill="#EC791A" fill-rule="evenodd"></path></g></svg>