<svg id="svg" version="1.1" xmlns="http://www.w3.org/2000/svg" xmlns:xlink="http://www.w3.org/1999/xlink" width="400" height="400" viewBox="0, 0, 400,400"><g id="svgg"><path id="path0" d="M200.771 62.902 C 198.861 64.569,197.059 69.218,198.078 69.848 C 198.285 69.976,198.332 70.378,198.183 70.740 C 198.034 71.103,197.840 74.550,197.752 78.400 C 197.617 84.346,197.464 87.736,197.195 90.800 C 197.166 91.130,197.269 101.660,197.424 114.200 C 197.768 141.991,197.790 225.659,197.458 237.800 C 197.213 246.713,197.061 249.073,196.569 251.600 C 196.151 253.750,196.018 254.842,195.936 256.800 C 195.894 257.790,195.722 258.785,195.554 259.012 C 195.386 259.238,195.265 259.997,195.285 260.698 C 195.305 261.399,195.140 262.204,194.918 262.486 C 194.329 263.238,194.022 264.767,194.413 265.008 C 194.851 265.278,194.848 270.015,194.408 272.368 C 194.218 273.386,194.219 274.382,194.410 274.612 C 194.599 274.840,194.630 275.229,194.477 275.476 C 194.325 275.723,194.200 279.857,194.200 284.663 C 194.200 289.468,194.039 293.517,193.842 293.660 C 193.645 293.802,193.624 294.252,193.795 294.660 C 194.233 295.700,194.016 303.298,193.531 303.882 C 193.311 304.148,193.252 304.561,193.400 304.800 C 193.548 305.039,193.498 305.452,193.288 305.718 C 192.549 306.655,191.804 317.432,192.452 317.832 C 192.624 317.938,192.671 318.272,192.555 318.572 C 192.440 318.873,192.538 319.238,192.773 319.383 C 193.008 319.528,193.200 320.087,193.200 320.624 C 193.200 321.184,193.434 321.600,193.748 321.600 C 194.065 321.600,194.508 322.402,194.798 323.500 C 195.074 324.545,195.673 325.728,196.129 326.128 C 196.805 326.722,196.873 326.991,196.498 327.592 C 196.139 328.167,196.157 328.375,196.581 328.537 C 197.035 328.712,197.039 328.999,196.602 330.273 C 196.315 331.113,195.980 332.700,195.858 333.800 C 195.549 336.596,195.033 338.473,194.240 339.682 C 193.867 340.252,193.481 341.165,193.382 341.712 C 193.283 342.258,192.932 343.222,192.603 343.853 C 191.652 345.676,191.764 351.846,192.758 352.378 C 193.951 353.016,194.299 352.167,194.474 348.192 C 194.621 344.849,194.771 344.305,196.516 340.789 C 197.984 337.831,198.400 336.564,198.400 335.044 C 198.400 333.767,198.687 332.630,199.233 331.747 C 200.006 330.496,200.800 329.975,200.800 330.720 C 200.800 330.896,201.428 331.040,202.195 331.040 C 204.099 331.040,206.000 332.842,206.000 334.649 C 206.000 337.049,206.656 338.127,207.906 337.782 C 209.175 337.432,209.588 337.436,211.930 337.826 C 213.533 338.092,213.745 338.019,214.831 336.830 C 215.625 335.962,216.237 335.621,216.727 335.777 C 217.125 335.903,218.325 335.743,219.394 335.422 C 220.462 335.100,221.471 334.920,221.636 335.022 C 221.800 335.124,222.051 334.680,222.192 334.035 C 222.334 333.391,222.888 332.391,223.423 331.813 C 224.179 330.997,224.368 330.412,224.270 329.182 C 224.202 328.312,224.293 327.600,224.473 327.600 C 224.653 327.600,224.800 327.088,224.800 326.462 C 224.800 325.828,225.158 325.000,225.609 324.591 C 226.197 324.059,226.287 323.777,225.935 323.560 C 225.579 323.340,225.568 323.120,225.893 322.729 C 226.601 321.876,226.679 319.462,226.015 318.943 C 225.544 318.575,225.527 318.370,225.928 317.887 C 226.492 317.207,226.541 316.289,226.247 311.900 C 226.124 310.062,226.194 308.800,226.420 308.800 C 226.982 308.800,226.881 308.024,226.236 307.378 C 225.657 306.800,225.817 305.208,226.499 304.755 C 226.722 304.608,226.701 303.905,226.446 302.982 C 226.137 301.864,226.148 301.304,226.486 300.896 C 226.835 300.476,226.835 300.269,226.488 300.054 C 225.815 299.639,225.775 290.925,226.439 289.471 C 226.818 288.642,226.834 288.268,226.502 288.063 C 225.677 287.553,225.756 283.266,226.601 282.649 C 227.211 282.202,227.336 281.576,227.320 279.042 C 227.303 276.440,227.414 275.913,228.050 275.573 C 228.963 275.085,229.010 274.442,228.178 273.834 C 227.659 273.454,227.626 273.071,227.975 271.513 C 228.205 270.487,228.278 269.348,228.138 268.983 C 227.996 268.612,228.119 268.174,228.416 267.990 C 228.803 267.751,228.831 267.516,228.520 267.130 C 227.819 266.264,228.128 261.588,228.925 261.006 C 229.762 260.394,229.790 260.000,228.996 260.000 C 228.315 260.000,228.218 244.960,228.896 244.541 C 229.085 244.424,229.041 244.091,228.800 243.800 C 228.501 243.439,228.493 243.190,228.776 243.015 C 229.003 242.874,229.111 242.143,229.015 241.391 C 228.918 240.638,228.983 239.934,229.158 239.826 C 229.334 239.717,229.219 238.245,228.904 236.553 C 228.492 234.341,228.448 233.241,228.749 232.638 C 229.086 231.962,229.116 228.012,228.790 227.200 C 228.546 226.591,228.649 216.785,228.901 216.700 C 229.066 216.645,229.048 216.060,228.861 215.400 C 228.674 214.740,228.584 213.300,228.663 212.200 C 228.939 208.307,228.926 204.128,228.637 203.659 C 228.475 203.398,228.530 202.603,228.759 201.892 C 229.234 200.418,229.223 198.725,228.711 194.259 C 228.399 191.537,228.441 191.017,229.030 190.366 C 229.498 189.850,229.588 189.456,229.320 189.108 C 229.105 188.828,228.961 187.250,229.001 185.600 C 229.041 183.950,228.983 182.435,228.872 182.233 C 228.383 181.344,228.597 165.600,229.098 165.600 C 229.643 165.600,229.764 165.098,229.325 164.659 C 228.568 163.901,228.612 154.475,229.379 153.234 C 229.528 152.992,229.414 152.703,229.125 152.592 C 228.520 152.359,228.362 134.250,228.948 132.323 C 229.128 131.730,229.128 131.010,228.948 130.723 C 228.505 130.017,228.339 127.285,228.724 127.047 C 229.093 126.819,229.016 109.872,228.643 109.269 C 228.500 109.038,228.644 108.703,228.963 108.525 C 229.445 108.255,229.464 107.907,229.080 106.467 C 228.669 104.927,228.697 104.689,229.338 104.331 C 230.004 103.958,230.010 103.874,229.409 103.210 C 228.779 102.514,228.488 100.762,228.179 95.800 C 228.097 94.480,227.855 92.680,227.641 91.800 C 226.736 88.068,226.459 87.151,226.095 86.689 C 225.883 86.420,225.394 85.175,225.007 83.923 C 224.621 82.670,223.702 80.780,222.966 79.723 C 222.230 78.665,221.419 77.350,221.164 76.800 C 220.909 76.250,220.498 75.361,220.250 74.825 C 220.003 74.288,219.440 73.460,219.000 72.984 C 217.497 71.357,214.207 67.502,213.680 66.750 C 213.391 66.338,212.936 66.000,212.668 66.000 C 212.401 66.000,211.286 65.414,210.191 64.698 C 206.327 62.170,202.455 61.432,200.771 62.902 " stroke="none" fill="#EC791A" fill-rule="evenodd"></path><path id="path1" d="M0.000 200.000 L 0.000 400.000 200.000 400.000 L 400.000 400.000 400.000 200.000 L 400.000 0.000 200.000 0.000 L 0.000 0.000 0.000 200.000 M205.965 62.698 C 207.194 63.082,209.096 63.982,210.191 64.698 C 211.286 65.414,212.401 66.000,212.668 66.000 C 212.936 66.000,213.391 66.338,213.680 66.750 C 214.207 67.502,217.497 71.357,219.000 72.984 C 219.440 73.460,220.003 74.288,220.250 74.825 C 220.498 75.361,220.909 76.250,221.164 76.800 C 221.419 77.350,222.230 78.665,222.966 79.723 C 223.702 80.780,224.621 82.670,225.007 83.923 C 225.394 85.175,225.883 86.420,226.095 86.689 C 226.459 87.151,226.736 88.068,227.641 91.800 C 227.855 92.680,228.097 94.480,228.179 95.800 C 228.488 100.762,228.779 102.514,229.409 103.210 C 230.010 103.874,230.004 103.958,229.338 104.331 C 228.697 104.689,228.669 104.927,229.080 106.467 C 229.464 107.907,229.445 108.255,228.963 108.525 C 228.644 108.703,228.500 109.038,228.643 109.269 C 229.016 109.872,229.093 126.819,228.724 127.047 C 228.339 127.285,228.505 130.017,228.948 130.723 C 229.128 131.010,229.128 131.730,228.948 132.323 C 228.362 134.250,228.520 152.359,229.125 152.592 C 229.414 152.703,229.528 152.992,229.379 153.234 C 228.612 154.475,228.568 163.901,229.325 164.659 C 229.764 165.098,229.643 165.600,229.098 165.600 C 228.597 165.600,228.383 181.344,228.872 182.233 C 228.983 182.435,229.041 183.950,229.001 185.600 C 228.961 187.250,229.105 188.828,229.320 189.108 C 229.588 189.456,229.498 189.850,229.030 190.366 C 228.441 191.017,228.399 191.537,228.711 194.259 C 229.223 198.725,229.234 200.418,228.759 201.892 C 228.530 202.603,228.475 203.398,228.637 203.659 C 228.926 204.128,228.939 208.307,228.663 212.200 C 228.584 213.300,228.674 214.740,228.861 215.400 C 229.048 216.060,229.066 216.645,228.901 216.700 C 228.649 216.785,228.546 226.591,228.790 227.200 C 229.116 228.012,229.086 231.962,228.749 232.638 C 228.448 233.241,228.492 234.341,228.904 236.553 C 229.219 238.245,229.334 239.717,229.158 239.826 C 228.983 239.934,228.918 240.638,229.015 241.391 C 229.111 242.143,229.003 242.874,228.776 243.015 C 228.493 243.190,228.501 243.439,228.800 243.800 C 229.041 244.091,229.085 244.424,228.896 244.541 C 228.218 244.960,228.315 260.000,228.996 260.000 C 229.790 260.000,229.762 260.394,228.925 261.006 C 228.128 261.588,227.819 266.264,228.520 267.130 C 228.831 267.516,228.803 267.751,228.416 267.990 C 228.119 268.174,227.996 268.612,228.138 268.983 C 228.278 269.348,228.205 270.487,227.975 271.513 C 227.626 273.071,227.659 273.454,228.178 273.834 C 229.010 274.442,228.963 275.085,228.050 275.573 C 227.414 275.913,227.303 276.440,227.320 279.042 C 227.336 281.576,227.211 282.202,226.601 282.649 C 225.756 283.266,225.677 287.553,226.502 288.063 C 226.834 288.268,226.818 288.642,226.439 289.471 C 225.775 290.925,225.815 299.639,226.488 300.054 C 226.835 300.269,226.835 300.476,226.486 300.896 C 226.148 301.304,226.137 301.864,226.446 302.982 C 226.701 303.905,226.722 304.608,226.499 304.755 C 225.817 305.208,225.657 306.800,226.236 307.378 C 226.881 308.024,226.982 308.800,226.420 308.800 C 226.194 308.800,226.124 310.062,226.247 311.900 C 226.541 316.289,226.492 317.207,225.928 317.887 C 225.527 318.370,225.544 318.575,226.015 318.943 C 226.679 319.462,226.601 321.876,225.893 322.729 C 225.568 323.120,225.579 323.340,225.935 323.560 C 226.287 323.777,226.197 324.059,225.609 324.591 C 225.158 325.000,224.800 325.828,224.800 326.462 C 224.800 327.088,224.653 327.600,224.473 327.600 C 224.293 327.600,224.202 328.312,224.270 329.182 C 224.368 330.412,224.179 330.997,223.423 331.813 C 222.888 332.391,222.334 333.391,222.192 334.035 C 222.051 334.680,221.800 335.124,221.636 335.022 C 221.471 334.920,220.462 335.100,219.394 335.422 C 218.325 335.743,217.125 335.903,216.727 335.777 C 216.237 335.621,215.625 335.962,214.831 336.830 C 213.745 338.019,213.533 338.092,211.930 337.826 C 209.588 337.436,209.175 337.432,207.906 337.782 C 206.656 338.127,206.000 337.049,206.000 334.649 C 206.000 332.842,204.099 331.040,202.195 331.040 C 201.428 331.040,200.800 330.896,200.800 330.720 C 200.800 329.975,200.006 330.496,199.233 331.747 C 198.687 332.630,198.400 333.767,198.400 335.044 C 198.400 336.564,197.984 337.831,196.516 340.789 C 194.771 344.305,194.621 344.849,194.474 348.192 C 194.299 352.167,193.951 353.016,192.758 352.378 C 191.764 351.846,191.652 345.676,192.603 343.853 C 192.932 343.222,193.283 342.258,193.382 341.712 C 193.481 341.165,193.867 340.252,194.240 339.682 C 195.033 338.473,195.549 336.596,195.858 333.800 C 195.980 332.700,196.315 331.113,196.602 330.273 C 197.039 328.999,197.035 328.712,196.581 328.537 C 196.157 328.375,196.139 328.167,196.498 327.592 C 196.873 326.991,196.805 326.722,196.129 326.128 C 195.673 325.728,195.074 324.545,194.798 323.500 C 194.508 322.402,194.065 321.600,193.748 321.600 C 193.434 321.600,193.200 321.184,193.200 320.624 C 193.200 320.087,193.008 319.528,192.773 319.383 C 192.538 319.238,192.440 318.873,192.555 318.572 C 192.671 318.272,192.624 317.938,192.452 317.832 C 191.804 317.432,192.549 306.655,193.288 305.718 C 193.498 305.452,193.548 305.039,193.400 304.800 C 193.252 304.561,193.311 304.148,193.531 303.882 C 194.016 303.298,194.233 295.700,193.795 294.660 C 193.624 294.252,193.645 293.802,193.842 293.660 C 194.039 293.517,194.200 289.468,194.200 284.663 C 194.200 279.857,194.325 275.723,194.477 275.476 C 194.630 275.229,194.599 274.840,194.410 274.612 C 194.219 274.382,194.218 273.386,194.408 272.368 C 194.848 270.015,194.851 265.278,194.413 265.008 C 194.022 264.767,194.329 263.238,194.918 262.486 C 195.140 262.204,195.305 261.399,195.285 260.698 C 195.265 259.997,195.386 259.238,195.554 259.012 C 195.722 258.785,195.894 257.790,195.936 256.800 C 196.018 254.842,196.151 253.750,196.569 251.600 C 197.061 249.073,197.213 246.713,197.458 237.800 C 197.790 225.659,197.768 141.991,197.424 114.200 C 197.269 101.660,197.166 91.130,197.195 90.800 C 197.464 87.736,197.617 84.346,197.752 78.400 C 197.840 74.550,198.034 71.103,198.183 70.740 C 198.332 70.378,198.285 69.976,198.078 69.848 C 197.622 69.567,198.510 65.465,199.240 64.478 C 201.119 61.939,202.425 61.593,205.965 62.698 " stroke="none" fill="transparent" fill-rule="evenodd"></path></g></svg>