<svg id="svg" version="1.1" xmlns="http://www.w3.org/2000/svg" xmlns:xlink="http://www.w3.org/1999/xlink" width="400" height="400" viewBox="0, 0, 400,400"><g id="svgg"><path id="path0" d="M244.200 75.625 C 229.864 75.809,225.970 75.978,223.200 76.534 C 221.121 76.952,216.224 77.360,210.600 77.584 C 199.085 78.043,197.594 78.462,194.703 82.055 C 190.546 87.222,196.113 98.021,204.000 100.092 C 204.770 100.294,208.280 100.592,211.800 100.753 C 221.641 101.205,221.770 101.344,223.178 113.000 C 224.820 126.592,225.859 131.744,228.986 141.800 C 234.115 158.293,235.035 162.573,237.363 180.800 C 238.841 192.374,239.145 195.590,239.384 202.200 C 239.503 205.500,239.787 213.420,240.015 219.800 C 240.243 226.180,240.607 234.280,240.824 237.800 C 241.490 248.608,241.764 281.799,241.248 289.298 C 240.021 307.154,236.761 312.786,223.785 319.461 C 211.450 325.806,205.243 325.831,186.800 319.610 C 178.128 316.685,175.800 315.292,169.529 309.273 C 156.911 297.162,153.121 286.922,152.404 263.000 C 151.975 248.708,151.607 247.187,147.691 243.524 C 140.042 236.369,131.561 238.502,130.037 247.964 C 129.256 252.811,131.108 273.405,133.241 283.600 C 137.952 306.115,152.987 327.325,169.647 334.955 C 174.170 337.027,191.139 343.069,195.637 344.209 C 213.002 348.611,227.837 344.242,245.467 329.532 C 255.788 320.921,257.262 318.251,260.386 302.501 C 263.760 285.491,263.731 285.751,263.766 272.800 C 263.798 260.851,263.656 258.644,261.771 241.600 C 260.798 232.803,260.418 225.768,259.603 201.400 C 259.305 192.489,258.943 187.598,258.199 182.400 C 257.648 178.550,256.920 173.060,256.581 170.200 C 255.612 162.029,254.566 156.640,251.612 144.600 C 250.101 138.440,248.230 130.520,247.455 127.000 C 246.680 123.480,245.404 117.810,244.620 114.400 C 240.757 97.609,240.941 97.431,263.200 96.390 C 275.207 95.829,277.613 95.488,280.800 93.898 C 288.435 90.087,287.542 80.917,279.178 77.243 C 275.160 75.478,270.938 75.283,244.200 75.625 " stroke="none" fill="#EC791A" fill-rule="evenodd"></path><path id="path1" d="M0.000 200.000 L 0.000 400.000 200.000 400.000 L 400.000 400.000 400.000 200.000 L 400.000 0.000 200.000 0.000 L 0.000 0.000 0.000 200.000 M275.000 76.048 C 289.578 78.560,289.733 93.707,275.200 95.582 C 273.550 95.795,268.150 96.159,263.200 96.390 C 240.941 97.431,240.757 97.609,244.620 114.400 C 245.404 117.810,246.680 123.480,247.455 127.000 C 248.230 130.520,250.101 138.440,251.612 144.600 C 254.566 156.640,255.612 162.029,256.581 170.200 C 256.920 173.060,257.648 178.550,258.199 182.400 C 258.943 187.598,259.305 192.489,259.603 201.400 C 260.418 225.768,260.798 232.803,261.771 241.600 C 263.656 258.644,263.798 260.851,263.766 272.800 C 263.731 285.751,263.760 285.491,260.386 302.501 C 257.262 318.251,255.788 320.921,245.467 329.532 C 227.837 344.242,213.002 348.611,195.637 344.209 C 191.139 343.069,174.170 337.027,169.647 334.955 C 152.987 327.325,137.952 306.115,133.241 283.600 C 131.108 273.405,129.256 252.811,130.037 247.964 C 131.561 238.502,140.042 236.369,147.691 243.524 C 151.607 247.187,151.975 248.708,152.404 263.000 C 153.121 286.922,156.911 297.162,169.529 309.273 C 175.800 315.292,178.128 316.685,186.800 319.610 C 205.243 325.831,211.450 325.806,223.785 319.461 C 236.761 312.786,240.021 307.154,241.248 289.298 C 241.764 281.799,241.490 248.608,240.824 237.800 C 240.607 234.280,240.243 226.180,240.015 219.800 C 239.787 213.420,239.503 205.500,239.384 202.200 C 239.145 195.590,238.841 192.374,237.363 180.800 C 235.035 162.573,234.115 158.293,228.986 141.800 C 225.859 131.744,224.820 126.592,223.178 113.000 C 221.770 101.344,221.641 101.205,211.800 100.753 C 208.280 100.592,204.770 100.294,204.000 100.092 C 196.113 98.021,190.546 87.222,194.703 82.055 C 197.594 78.462,199.085 78.043,210.600 77.584 C 216.224 77.360,221.121 76.952,223.200 76.534 C 228.675 75.434,269.225 75.053,275.000 76.048 " stroke="none" fill="transparent" fill-rule="evenodd"></path></g></svg>