<svg id="svg" version="1.1" xmlns="http://www.w3.org/2000/svg" xmlns:xlink="http://www.w3.org/1999/xlink" width="400" height="400" viewBox="0, 0, 400,400"><g id="svgg"><path id="path0" d="M237.683 39.867 C 235.892 41.435,235.537 44.152,235.651 55.400 C 235.757 65.803,235.431 74.241,234.817 76.947 C 234.574 78.017,234.486 79.241,234.621 79.666 C 234.756 80.091,234.691 80.655,234.477 80.919 C 234.132 81.346,233.903 82.992,233.361 88.921 C 233.277 89.844,233.107 93.480,232.984 97.000 C 232.812 101.923,232.627 103.503,232.180 103.844 C 231.408 104.435,231.440 105.964,232.230 106.267 C 232.851 106.505,233.032 113.894,232.444 114.997 C 232.328 115.215,232.178 116.475,232.110 117.797 C 231.846 122.957,229.994 132.177,229.056 133.000 C 228.805 133.220,228.591 134.030,228.579 134.800 C 228.568 135.570,228.227 137.640,227.821 139.400 C 227.415 141.160,227.004 144.129,226.909 145.997 C 226.813 147.865,226.595 149.485,226.425 149.597 C 226.254 149.709,226.001 150.970,225.861 152.400 C 225.721 153.830,225.437 155.810,225.229 156.800 C 225.021 157.790,224.588 159.976,224.266 161.658 C 223.944 163.339,223.369 165.769,222.988 167.058 C 222.607 168.346,222.233 169.850,222.157 170.400 C 222.082 170.950,221.728 172.660,221.372 174.200 C 221.016 175.740,220.551 177.900,220.339 179.000 C 220.128 180.100,219.776 181.720,219.558 182.600 C 219.339 183.480,219.003 185.640,218.811 187.400 C 218.392 191.230,217.717 194.422,216.926 196.315 L 216.346 197.704 215.029 196.428 L 213.712 195.152 213.467 196.662 C 213.181 198.424,214.376 200.103,215.781 199.912 C 216.231 199.850,216.563 200.001,216.518 200.246 C 216.473 200.492,216.255 202.022,216.035 203.646 C 215.473 207.794,215.306 208.680,214.574 211.400 C 214.218 212.720,213.835 214.475,213.722 215.300 C 213.609 216.125,213.375 216.800,213.203 216.800 C 213.030 216.800,212.764 217.469,212.610 218.286 C 212.211 220.414,211.312 221.966,210.181 222.482 C 209.641 222.727,209.200 223.137,209.200 223.392 C 209.200 223.985,207.351 225.605,206.697 225.585 C 206.096 225.568,204.000 222.887,204.000 222.136 C 204.000 221.841,203.640 221.240,203.200 220.800 C 202.760 220.360,202.400 219.544,202.400 218.987 C 202.400 218.431,202.130 217.871,201.800 217.745 C 201.343 217.569,201.200 216.824,201.200 214.619 C 201.200 212.232,201.060 211.597,200.400 211.000 C 199.960 210.602,199.600 209.865,199.600 209.362 C 199.600 208.859,199.420 208.336,199.200 208.200 C 198.980 208.064,198.800 207.686,198.800 207.360 C 198.800 207.034,198.417 206.250,197.949 205.617 C 197.298 204.736,197.159 204.145,197.356 203.092 C 197.525 202.195,197.404 201.316,197.010 200.559 C 196.677 199.922,196.293 198.556,196.154 197.524 C 196.016 196.493,195.655 195.553,195.352 195.437 C 195.048 195.320,194.800 194.690,194.800 194.036 C 194.800 193.382,194.611 192.731,194.381 192.588 C 194.123 192.429,194.064 191.649,194.226 190.565 C 194.448 189.089,194.384 188.800,193.836 188.800 C 193.213 188.800,192.334 187.303,192.186 185.995 C 192.149 185.661,191.845 184.851,191.510 184.195 C 191.176 183.538,190.774 181.951,190.618 180.668 C 190.431 179.126,190.074 178.113,189.567 177.679 C 189.145 177.318,188.800 176.533,188.800 175.935 C 188.800 175.337,188.637 174.746,188.438 174.623 C 188.238 174.500,188.172 174.028,188.291 173.573 C 188.486 172.829,188.244 172.049,187.153 169.905 C 186.959 169.523,186.800 168.794,186.800 168.285 C 186.800 167.776,186.647 167.189,186.460 166.980 C 186.273 166.771,185.728 165.250,185.247 163.600 C 184.767 161.950,184.123 159.790,183.816 158.800 C 183.508 157.810,183.130 156.280,182.976 155.400 C 182.822 154.520,182.501 153.556,182.264 153.257 C 182.026 152.959,181.861 151.654,181.897 150.357 C 181.955 148.263,181.875 148.000,181.181 148.000 C 180.751 148.000,180.399 147.865,180.397 147.700 C 180.384 146.398,179.459 141.959,178.992 140.952 C 178.673 140.266,178.332 138.826,178.234 137.752 C 178.135 136.678,177.766 134.180,177.413 132.200 C 176.463 126.871,175.939 123.223,175.835 121.200 C 175.785 120.210,175.596 117.105,175.417 114.300 C 175.179 110.570,175.214 109.200,175.546 109.200 C 176.197 109.200,176.106 108.049,175.398 107.341 C 174.976 106.919,174.802 105.938,174.819 104.069 C 174.873 97.886,174.817 96.858,174.419 96.612 C 173.848 96.259,173.889 94.271,174.480 93.680 C 174.853 93.307,174.853 93.093,174.480 92.720 C 174.216 92.456,173.997 91.691,173.994 91.020 C 173.991 90.349,173.703 88.990,173.354 88.000 C 173.006 87.010,172.677 85.840,172.625 85.400 C 172.443 83.886,171.454 80.199,171.127 79.820 C 170.947 79.611,170.800 79.037,170.800 78.544 C 170.800 78.051,170.631 77.543,170.425 77.416 C 170.219 77.288,169.789 76.693,169.470 76.092 C 169.150 75.491,168.547 74.370,168.129 73.600 C 167.711 72.830,166.476 71.295,165.385 70.189 C 164.293 69.083,162.682 67.283,161.804 66.189 C 157.891 61.313,153.200 57.137,150.133 55.801 C 149.290 55.433,148.278 54.962,147.884 54.753 C 145.295 53.380,140.212 53.501,139.753 54.948 C 139.605 55.415,139.264 55.978,138.997 56.198 C 138.461 56.640,137.213 60.305,136.953 62.200 C 136.262 67.236,135.992 70.002,135.801 74.000 C 135.681 76.530,135.485 79.410,135.365 80.400 C 135.246 81.390,135.063 82.920,134.959 83.800 C 134.389 88.615,132.965 95.221,132.140 96.877 C 131.795 97.569,131.746 98.043,132.003 98.202 C 132.223 98.338,132.311 98.843,132.199 99.325 C 132.088 99.806,131.839 103.305,131.647 107.100 C 131.455 110.895,131.128 114.225,130.920 114.500 C 130.712 114.775,130.520 115.423,130.493 115.940 C 130.466 116.457,130.119 117.126,129.722 117.427 C 129.322 117.731,129.215 117.980,129.483 117.987 C 129.900 117.998,129.995 123.998,129.591 124.800 C 129.536 124.910,129.454 127.340,129.409 130.200 C 129.291 137.702,128.847 143.458,128.181 146.132 C 127.861 147.415,127.600 149.068,127.600 149.806 C 127.600 150.544,127.415 151.636,127.188 152.232 C 126.961 152.828,126.596 154.685,126.375 156.358 C 125.987 159.303,125.143 163.704,124.333 167.000 C 123.289 171.251,121.953 179.182,121.891 181.500 C 121.861 182.655,121.687 183.600,121.505 183.600 C 121.324 183.600,121.190 184.185,121.210 184.900 C 121.229 185.615,120.991 187.544,120.682 189.188 C 120.373 190.831,120.205 192.496,120.307 192.888 C 120.409 193.279,120.319 193.600,120.107 193.600 C 119.894 193.600,119.697 194.892,119.668 196.472 C 119.638 198.051,119.470 199.446,119.294 199.572 C 119.118 199.697,118.943 200.250,118.906 200.800 C 118.762 202.947,117.850 207.200,117.534 207.200 C 117.350 207.200,117.200 207.538,117.200 207.951 C 117.200 208.364,116.930 208.926,116.600 209.200 C 116.270 209.474,116.000 210.025,116.000 210.425 C 116.000 210.825,115.817 211.266,115.593 211.404 C 115.370 211.542,115.295 211.831,115.428 212.045 C 115.560 212.260,115.498 212.652,115.289 212.918 C 114.833 213.497,114.434 215.941,114.133 220.000 C 114.010 221.650,113.757 223.291,113.569 223.647 C 113.382 224.003,113.357 224.424,113.514 224.581 C 113.928 224.995,113.874 234.400,113.457 234.400 C 113.264 234.400,113.226 234.805,113.372 235.300 C 113.850 236.927,113.912 238.138,113.624 240.259 C 113.464 241.444,113.508 242.649,113.726 243.040 C 113.987 243.505,113.953 243.983,113.623 244.512 C 113.273 245.073,113.257 245.417,113.567 245.727 C 114.123 246.283,114.129 247.890,113.575 248.075 C 113.282 248.173,113.275 248.545,113.550 249.269 C 114.179 250.924,113.879 276.182,113.221 276.975 C 112.795 277.489,112.799 277.717,113.249 278.259 C 113.785 278.905,113.854 285.131,113.482 299.200 C 113.421 301.510,113.500 303.680,113.658 304.022 C 113.815 304.363,113.787 304.897,113.595 305.208 C 113.390 305.539,113.406 305.966,113.631 306.238 C 113.877 306.533,113.879 307.067,113.638 307.701 C 113.420 308.273,113.408 308.848,113.610 309.050 C 113.807 309.247,113.813 310.056,113.622 310.900 C 113.436 311.725,113.425 312.400,113.596 312.400 C 113.767 312.400,113.938 313.975,113.975 315.900 C 114.110 322.922,114.988 326.328,117.235 328.546 C 118.096 329.396,118.800 330.268,118.800 330.483 C 118.800 331.354,122.971 336.019,125.200 337.641 C 126.849 338.840,127.565 339.176,129.800 339.800 C 130.460 339.985,131.866 340.570,132.925 341.101 C 133.983 341.632,135.086 341.976,135.376 341.865 C 135.665 341.753,136.062 341.822,136.257 342.017 C 137.507 343.267,143.200 339.352,143.200 337.242 C 143.200 336.536,143.583 335.716,144.180 335.142 C 145.061 334.294,145.103 334.114,144.601 333.346 C 144.293 332.876,144.154 332.379,144.291 332.242 C 144.642 331.891,144.735 327.207,144.395 326.997 C 144.241 326.902,144.200 325.945,144.303 324.870 C 144.413 323.724,144.287 322.536,143.998 321.996 C 143.567 321.191,143.619 320.989,144.412 320.391 C 145.286 319.731,145.292 319.691,144.560 319.275 C 143.912 318.908,143.874 318.724,144.300 318.028 C 144.901 317.047,144.956 315.344,144.399 314.999 C 144.133 314.835,144.139 314.488,144.417 313.967 C 144.648 313.536,144.707 312.974,144.549 312.717 C 144.390 312.461,144.212 309.346,144.154 305.795 C 144.095 302.244,144.015 299.173,143.976 298.970 C 143.937 298.766,143.948 298.510,144.000 298.400 C 144.052 298.290,144.154 296.940,144.226 295.400 C 144.443 290.755,144.707 289.166,145.387 288.415 C 145.984 287.754,145.983 287.679,145.373 287.445 C 144.866 287.250,144.769 286.887,144.960 285.895 C 145.098 285.183,145.286 284.060,145.380 283.400 C 145.473 282.740,145.741 281.230,145.975 280.045 C 146.209 278.860,146.400 276.968,146.400 275.839 C 146.400 274.611,146.697 273.229,147.141 272.394 C 147.892 270.980,148.930 261.794,148.752 258.128 C 148.703 257.110,148.936 256.053,149.348 255.423 C 149.795 254.742,150.165 252.860,150.436 249.895 C 151.029 243.399,151.029 243.400,151.287 242.982 C 152.576 240.895,153.857 235.168,154.334 229.361 C 154.596 226.167,155.170 224.800,156.249 224.800 C 156.889 224.800,156.985 224.161,156.399 223.799 C 156.178 223.663,156.078 223.157,156.177 222.675 C 156.275 222.194,156.467 220.945,156.603 219.900 C 157.082 216.200,162.360 218.727,163.606 223.253 C 163.826 224.053,164.266 224.922,164.583 225.186 C 165.281 225.765,167.368 229.411,167.796 230.800 C 167.966 231.350,168.441 232.278,168.852 232.862 C 169.264 233.446,169.600 234.412,169.600 235.009 C 169.600 235.645,170.097 236.661,170.800 237.461 C 171.460 238.213,172.000 239.154,172.000 239.552 C 172.000 239.950,172.360 240.602,172.800 241.000 C 173.240 241.398,173.600 241.931,173.600 242.184 C 173.600 242.437,174.050 243.255,174.600 244.000 C 175.150 244.745,175.600 245.763,175.600 246.262 C 175.600 246.761,175.946 247.491,176.369 247.886 C 176.793 248.280,177.357 249.502,177.625 250.601 C 177.892 251.701,178.446 252.972,178.855 253.426 C 179.265 253.880,179.600 254.545,179.600 254.903 C 179.600 255.261,179.989 255.827,180.464 256.160 C 181.026 256.554,181.345 257.224,181.376 258.082 C 181.408 258.939,181.805 259.778,182.512 260.482 C 183.358 261.323,183.601 261.946,183.603 263.282 C 183.604 264.323,183.918 265.473,184.400 266.200 C 184.837 266.860,185.196 267.812,185.197 268.316 C 185.199 268.820,185.568 269.952,186.017 270.833 C 186.466 271.713,187.020 273.444,187.249 274.679 C 187.477 275.915,187.936 277.340,188.268 277.847 C 188.838 278.718,189.506 280.900,191.191 287.400 C 192.353 291.884,195.601 298.947,197.387 300.872 C 197.889 301.414,198.752 302.564,199.306 303.428 C 199.860 304.293,200.843 305.540,201.492 306.200 C 202.140 306.860,202.998 307.905,203.397 308.523 C 203.796 309.141,204.850 310.018,205.741 310.472 C 206.631 310.926,207.877 311.815,208.510 312.449 C 209.143 313.082,209.830 313.600,210.035 313.600 C 210.240 313.600,211.305 314.230,212.400 315.000 C 213.495 315.770,214.754 316.400,215.196 316.400 C 215.638 316.400,216.000 316.541,216.000 316.713 C 216.000 317.034,218.848 317.915,220.100 317.982 C 221.859 318.075,222.400 318.194,222.400 318.486 C 222.400 318.990,224.107 318.844,225.261 318.241 C 225.845 317.937,227.015 317.464,227.861 317.191 C 230.389 316.376,231.001 315.974,230.354 315.557 C 229.965 315.306,229.932 315.111,230.243 314.900 C 230.487 314.735,230.914 313.610,231.193 312.400 C 231.472 311.190,231.791 309.930,231.902 309.600 C 232.149 308.861,232.359 306.179,232.559 301.200 C 232.741 296.657,233.118 294.760,233.962 294.136 C 234.528 293.718,234.522 293.597,233.895 292.905 C 233.145 292.076,232.976 291.200,233.566 291.200 C 234.074 291.200,236.043 287.593,235.773 287.156 C 235.652 286.960,235.293 286.800,234.976 286.800 C 234.659 286.800,234.400 286.511,234.400 286.157 C 234.400 285.770,234.623 285.600,234.961 285.730 C 235.836 286.065,236.014 285.593,235.378 284.623 C 234.730 283.633,234.851 280.600,235.594 279.211 C 235.842 278.748,235.929 278.008,235.789 277.566 C 235.649 277.123,235.752 276.499,236.018 276.179 C 236.319 275.815,236.429 274.842,236.309 273.594 C 236.144 271.877,236.251 271.458,237.062 270.647 C 237.697 270.012,238.000 269.258,237.986 268.351 C 237.951 266.124,238.079 265.431,238.649 264.773 C 238.947 264.429,239.364 262.476,239.575 260.434 C 239.787 258.392,240.204 256.334,240.503 255.861 C 240.801 255.387,241.261 254.256,241.525 253.347 C 241.788 252.439,242.264 251.479,242.582 251.215 C 242.900 250.951,243.276 249.894,243.416 248.867 C 243.557 247.840,243.994 246.100,244.389 245.000 C 244.783 243.900,245.235 241.875,245.392 240.500 C 245.587 238.803,245.853 238.000,246.221 238.000 C 246.533 238.000,246.879 237.363,247.035 236.500 C 247.358 234.719,248.108 233.140,248.974 232.422 C 249.318 232.136,249.600 231.570,249.600 231.165 C 249.600 230.442,251.669 228.002,252.287 227.998 C 252.459 227.996,252.621 227.213,252.647 226.257 C 252.744 222.634,253.241 220.000,253.829 220.000 C 254.143 220.000,254.400 219.651,254.400 219.224 C 254.400 218.797,254.594 218.327,254.832 218.180 C 255.108 218.010,255.166 217.205,254.992 215.945 C 254.840 214.837,254.890 213.763,255.107 213.488 C 255.661 212.785,255.974 207.744,255.608 205.400 C 255.185 202.690,255.619 201.746,257.552 201.167 C 259.893 200.466,260.561 200.857,260.176 202.704 C 259.701 204.979,259.838 205.976,260.760 206.957 C 261.946 208.220,261.870 210.131,260.600 210.963 C 259.361 211.775,259.331 212.317,260.500 212.764 C 262.755 213.626,264.540 217.668,264.146 221.018 C 263.936 222.803,264.021 223.189,264.780 223.896 C 265.443 224.513,265.739 225.429,265.998 227.656 C 266.185 229.275,266.798 231.860,267.359 233.400 C 267.920 234.940,268.384 236.714,268.390 237.342 C 268.396 238.089,268.762 238.769,269.445 239.307 C 270.374 240.037,270.469 240.342,270.304 242.057 C 270.145 243.710,270.243 244.067,270.988 244.555 C 271.882 245.141,272.622 248.108,272.996 252.606 C 273.176 254.778,274.107 257.381,275.106 258.505 C 275.565 259.021,275.759 260.232,275.828 263.015 C 275.939 267.449,275.612 268.082,273.397 267.722 C 271.843 267.470,271.604 267.917,272.743 268.948 C 273.206 269.367,273.418 269.973,273.306 270.557 C 273.172 271.257,273.433 271.711,274.339 272.357 C 275.546 273.216,275.549 273.225,274.876 274.459 C 274.362 275.402,274.320 275.743,274.700 275.883 C 274.975 275.984,275.200 276.694,275.200 277.460 C 275.200 278.226,275.391 279.210,275.625 279.647 C 275.859 280.083,276.119 281.286,276.203 282.320 C 276.287 283.354,276.557 285.190,276.802 286.400 C 277.234 288.528,278.032 295.961,278.047 298.000 C 278.098 304.650,277.924 308.800,277.594 308.800 C 276.875 308.800,277.186 309.503,278.000 309.716 C 278.560 309.862,278.803 310.266,278.809 311.063 C 278.814 311.688,279.165 312.965,279.589 313.900 C 280.014 314.835,280.280 315.600,280.180 315.600 C 279.274 315.600,285.264 320.938,290.200 324.530 C 292.180 325.970,294.365 327.610,295.055 328.174 C 295.745 328.738,296.735 329.203,297.255 329.207 C 298.755 329.219,304.000 332.814,304.000 333.830 C 304.000 334.144,304.289 334.400,304.642 334.400 C 305.993 334.400,310.565 341.567,311.250 344.759 C 311.515 345.992,312.008 347.540,312.346 348.200 C 313.102 349.677,313.578 352.894,313.855 358.400 C 313.971 360.710,314.241 362.780,314.456 363.000 C 314.709 363.260,314.769 361.581,314.626 358.200 C 314.343 351.519,314.343 349.853,314.625 345.034 C 314.969 339.172,312.752 334.710,310.890 337.515 C 310.293 338.414,310.276 338.403,308.919 336.111 C 308.166 334.840,307.201 333.312,306.775 332.716 C 305.812 331.369,305.780 330.402,306.700 330.392 C 307.711 330.381,310.009 326.242,310.281 323.943 C 310.405 322.899,310.746 321.953,311.039 321.841 C 311.557 321.642,313.200 323.526,313.200 324.319 C 313.200 324.536,313.452 324.811,313.760 324.929 C 314.068 325.048,314.449 325.922,314.607 326.872 C 314.935 328.855,315.345 329.745,316.430 330.830 C 316.854 331.254,317.200 332.014,317.200 332.520 C 317.200 334.311,318.004 334.453,319.453 332.917 C 320.969 331.309,321.375 327.454,320.260 325.262 C 319.962 324.678,319.304 322.940,318.797 321.400 C 318.290 319.860,317.649 318.465,317.372 318.300 C 317.096 318.135,316.744 317.235,316.590 316.300 C 316.436 315.365,316.168 314.420,315.996 314.200 C 315.687 313.806,315.266 310.928,315.059 307.800 C 315.001 306.920,314.763 305.840,314.530 305.400 C 314.296 304.960,313.883 303.340,313.611 301.800 C 313.339 300.260,312.886 298.190,312.603 297.200 C 311.768 294.274,311.218 291.470,311.270 290.400 C 311.371 288.297,311.016 286.184,310.496 285.789 C 310.163 285.536,309.823 283.978,309.614 281.751 C 309.427 279.756,308.994 277.299,308.651 276.290 C 308.308 275.280,308.020 273.677,308.009 272.727 C 307.982 270.183,307.766 268.910,306.835 265.800 C 306.375 264.260,306.030 262.190,306.069 261.200 C 306.209 257.682,306.030 256.400,305.400 256.400 C 305.018 256.400,304.792 256.001,304.777 255.300 C 304.755 254.246,304.531 252.131,304.215 250.000 C 304.134 249.450,303.892 247.560,303.679 245.800 C 303.465 244.040,303.066 242.060,302.791 241.400 C 302.516 240.740,302.319 239.705,302.352 239.100 C 302.385 238.495,302.206 238.000,301.954 238.000 C 301.649 238.000,301.567 237.462,301.709 236.400 C 301.827 235.520,301.780 234.800,301.604 234.800 C 301.428 234.800,301.177 234.035,301.047 233.100 C 300.916 232.165,300.718 230.860,300.607 230.200 C 300.496 229.540,300.316 227.740,300.208 226.200 C 300.099 224.660,299.839 223.040,299.629 222.600 C 299.182 221.661,297.974 216.153,297.967 215.018 C 297.965 214.588,297.596 212.428,297.149 210.218 C 296.701 208.008,296.334 205.930,296.334 205.600 C 296.333 205.270,296.231 204.730,296.106 204.400 C 295.708 203.347,295.626 203.039,295.210 201.043 C 294.986 199.966,294.609 198.852,294.372 198.566 C 294.135 198.281,293.978 197.722,294.023 197.324 C 294.135 196.323,293.571 194.029,293.148 193.768 C 292.957 193.650,292.800 192.933,292.800 192.176 C 292.800 191.419,292.637 190.800,292.438 190.800 C 292.091 190.800,291.366 187.084,291.531 186.153 C 291.575 185.908,291.338 185.481,291.005 185.204 C 290.672 184.928,290.400 184.394,290.400 184.018 C 290.400 183.641,290.277 183.210,290.126 183.059 C 289.679 182.612,288.813 179.873,288.806 178.886 C 288.803 178.383,288.546 177.573,288.237 177.086 C 287.683 176.215,286.569 171.727,286.740 171.058 C 286.789 170.870,286.620 170.465,286.365 170.158 C 286.110 169.851,286.042 169.600,286.213 169.600 C 286.384 169.600,286.246 169.285,285.906 168.900 C 285.565 168.515,285.156 167.390,284.996 166.400 C 284.836 165.410,284.622 164.240,284.519 163.800 C 284.416 163.360,284.266 162.550,284.185 162.000 C 283.971 160.553,283.054 157.492,282.639 156.844 C 282.444 156.539,282.254 155.040,282.217 153.515 C 282.174 151.713,281.966 150.626,281.624 150.415 C 281.335 150.236,281.205 149.915,281.337 149.702 C 281.469 149.488,281.404 148.712,281.194 147.977 C 280.983 147.242,280.960 146.542,281.144 146.420 C 282.004 145.851,282.041 143.936,281.196 143.715 C 280.519 143.538,280.405 143.286,280.601 142.398 C 280.752 141.708,280.635 141.092,280.288 140.745 C 279.983 140.440,279.717 139.923,279.696 139.595 C 279.676 139.268,279.543 136.844,279.402 134.208 C 279.261 131.573,278.973 129.208,278.761 128.953 C 278.511 128.652,278.548 128.113,278.865 127.416 C 279.195 126.694,279.220 126.254,278.943 126.071 C 278.070 125.495,277.745 124.278,278.007 122.557 C 278.156 121.575,278.124 120.677,277.936 120.561 C 277.749 120.445,277.618 119.596,277.645 118.675 C 277.672 117.754,277.519 115.560,277.305 113.800 C 277.091 112.040,276.900 109.970,276.881 109.200 C 276.862 108.430,276.791 106.405,276.723 104.700 C 276.655 102.995,276.729 101.600,276.886 101.600 C 277.043 101.600,277.365 101.240,277.600 100.800 C 278.114 99.840,277.426 98.228,276.633 98.532 C 276.008 98.772,275.852 96.441,276.397 95.008 C 276.682 94.259,276.609 93.866,276.089 93.346 C 275.575 92.832,275.534 92.622,275.923 92.492 C 276.338 92.354,276.329 92.150,275.880 91.460 C 275.160 90.352,274.780 86.980,275.315 86.445 C 275.595 86.165,275.596 85.869,275.318 85.517 C 275.093 85.233,274.778 83.920,274.617 82.600 C 274.206 79.225,274.180 79.082,273.829 78.300 C 273.656 77.915,273.622 77.321,273.753 76.979 C 273.884 76.638,273.719 75.943,273.386 75.435 C 273.054 74.928,272.893 74.224,273.028 73.871 C 273.167 73.510,272.895 72.695,272.410 72.014 C 271.842 71.217,271.637 70.514,271.811 69.965 C 272.000 69.370,271.835 68.960,271.238 68.542 C 270.777 68.219,270.400 67.537,270.400 67.027 C 270.400 64.987,269.905 63.600,269.177 63.600 C 268.776 63.600,268.331 63.200,268.178 62.700 C 267.519 60.553,261.641 52.000,260.824 52.000 C 260.654 52.000,260.004 51.190,259.378 50.200 C 258.752 49.210,258.106 48.400,257.942 48.400 C 257.778 48.400,256.893 47.599,255.975 46.619 C 255.057 45.640,253.697 44.425,252.953 43.919 C 252.208 43.414,251.497 42.685,251.372 42.300 C 251.248 41.915,250.843 41.597,250.473 41.593 C 250.103 41.589,248.810 41.025,247.600 40.341 C 244.250 38.445,239.563 38.221,237.683 39.867 M240.362 224.645 C 239.781 225.346,239.410 225.072,239.748 224.192 C 239.883 223.838,240.184 223.667,240.417 223.810 C 240.707 223.989,240.690 224.251,240.362 224.645 " stroke="none" fill="#EC791A" fill-rule="evenodd"></path><path id="path1" d="M0.000 200.000 L 0.000 400.000 200.000 400.000 L 400.000 400.000 400.000 200.000 L 400.000 0.000 200.000 0.000 L 0.000 0.000 0.000 200.000 M247.600 40.341 C 248.810 41.025,250.103 41.589,250.473 41.593 C 250.843 41.597,251.248 41.915,251.372 42.300 C 251.497 42.685,252.208 43.414,252.953 43.919 C 253.697 44.425,255.057 45.640,255.975 46.619 C 256.893 47.599,257.778 48.400,257.942 48.400 C 258.106 48.400,258.752 49.210,259.378 50.200 C 260.004 51.190,260.654 52.000,260.824 52.000 C 261.641 52.000,267.519 60.553,268.178 62.700 C 268.331 63.200,268.776 63.600,269.177 63.600 C 269.905 63.600,270.400 64.987,270.400 67.027 C 270.400 67.537,270.777 68.219,271.238 68.542 C 271.835 68.960,272.000 69.370,271.811 69.965 C 271.637 70.514,271.842 71.217,272.410 72.014 C 272.895 72.695,273.167 73.510,273.028 73.871 C 272.893 74.224,273.054 74.928,273.386 75.435 C 273.719 75.943,273.884 76.638,273.753 76.979 C 273.622 77.321,273.656 77.915,273.829 78.300 C 274.180 79.082,274.206 79.225,274.617 82.600 C 274.778 83.920,275.093 85.233,275.318 85.517 C 275.596 85.869,275.595 86.165,275.315 86.445 C 274.780 86.980,275.160 90.352,275.880 91.460 C 276.329 92.150,276.338 92.354,275.923 92.492 C 275.534 92.622,275.575 92.832,276.089 93.346 C 276.609 93.866,276.682 94.259,276.397 95.008 C 275.852 96.441,276.008 98.772,276.633 98.532 C 277.426 98.228,278.114 99.840,277.600 100.800 C 277.365 101.240,277.043 101.600,276.886 101.600 C 276.729 101.600,276.655 102.995,276.723 104.700 C 276.791 106.405,276.862 108.430,276.881 109.200 C 276.900 109.970,277.091 112.040,277.305 113.800 C 277.519 115.560,277.672 117.754,277.645 118.675 C 277.618 119.596,277.749 120.445,277.936 120.561 C 278.124 120.677,278.156 121.575,278.007 122.557 C 277.745 124.278,278.070 125.495,278.943 126.071 C 279.220 126.254,279.195 126.694,278.865 127.416 C 278.548 128.113,278.511 128.652,278.761 128.953 C 278.973 129.208,279.261 131.573,279.402 134.208 C 279.543 136.844,279.676 139.268,279.696 139.595 C 279.717 139.923,279.983 140.440,280.288 140.745 C 280.635 141.092,280.752 141.708,280.601 142.398 C 280.405 143.286,280.519 143.538,281.196 143.715 C 282.041 143.936,282.004 145.851,281.144 146.420 C 280.960 146.542,280.983 147.242,281.194 147.977 C 281.404 148.712,281.469 149.488,281.337 149.702 C 281.205 149.915,281.335 150.236,281.624 150.415 C 281.966 150.626,282.174 151.713,282.217 153.515 C 282.254 155.040,282.444 156.539,282.639 156.844 C 283.054 157.492,283.971 160.553,284.185 162.000 C 284.266 162.550,284.416 163.360,284.519 163.800 C 284.622 164.240,284.836 165.410,284.996 166.400 C 285.156 167.390,285.565 168.515,285.906 168.900 C 286.246 169.285,286.384 169.600,286.213 169.600 C 286.042 169.600,286.110 169.851,286.365 170.158 C 286.620 170.465,286.789 170.870,286.740 171.058 C 286.569 171.727,287.683 176.215,288.237 177.086 C 288.546 177.573,288.803 178.383,288.806 178.886 C 288.813 179.873,289.679 182.612,290.126 183.059 C 290.277 183.210,290.400 183.641,290.400 184.018 C 290.400 184.394,290.672 184.928,291.005 185.204 C 291.338 185.481,291.575 185.908,291.531 186.153 C 291.366 187.084,292.091 190.800,292.438 190.800 C 292.637 190.800,292.800 191.419,292.800 192.176 C 292.800 192.933,292.957 193.650,293.148 193.768 C 293.571 194.029,294.135 196.323,294.023 197.324 C 293.978 197.722,294.135 198.281,294.372 198.566 C 294.609 198.852,294.986 199.966,295.210 201.043 C 295.626 203.039,295.708 203.347,296.106 204.400 C 296.231 204.730,296.333 205.270,296.334 205.600 C 296.334 205.930,296.701 208.008,297.149 210.218 C 297.596 212.428,297.965 214.588,297.967 215.018 C 297.974 216.153,299.182 221.661,299.629 222.600 C 299.839 223.040,300.099 224.660,300.208 226.200 C 300.316 227.740,300.496 229.540,300.607 230.200 C 300.718 230.860,300.916 232.165,301.047 233.100 C 301.177 234.035,301.428 234.800,301.604 234.800 C 301.780 234.800,301.827 235.520,301.709 236.400 C 301.567 237.462,301.649 238.000,301.954 238.000 C 302.206 238.000,302.385 238.495,302.352 239.100 C 302.319 239.705,302.516 240.740,302.791 241.400 C 303.066 242.060,303.465 244.040,303.679 245.800 C 303.892 247.560,304.134 249.450,304.215 250.000 C 304.531 252.131,304.755 254.246,304.777 255.300 C 304.792 256.001,305.018 256.400,305.400 256.400 C 306.030 256.400,306.209 257.682,306.069 261.200 C 306.030 262.190,306.375 264.260,306.835 265.800 C 307.766 268.910,307.982 270.183,308.009 272.727 C 308.020 273.677,308.308 275.280,308.651 276.290 C 308.994 277.299,309.427 279.756,309.614 281.751 C 309.823 283.978,310.163 285.536,310.496 285.789 C 311.016 286.184,311.371 288.297,311.270 290.400 C 311.218 291.470,311.768 294.274,312.603 297.200 C 312.886 298.190,313.339 300.260,313.611 301.800 C 313.883 303.340,314.296 304.960,314.530 305.400 C 314.763 305.840,315.001 306.920,315.059 307.800 C 315.266 310.928,315.687 313.806,315.996 314.200 C 316.168 314.420,316.436 315.365,316.590 316.300 C 316.744 317.235,317.096 318.135,317.372 318.300 C 317.649 318.465,318.290 319.860,318.797 321.400 C 319.304 322.940,319.962 324.678,320.260 325.262 C 321.375 327.454,320.969 331.309,319.453 332.917 C 318.004 334.453,317.200 334.311,317.200 332.520 C 317.200 332.014,316.854 331.254,316.430 330.830 C 315.345 329.745,314.935 328.855,314.607 326.872 C 314.449 325.922,314.068 325.048,313.760 324.929 C 313.452 324.811,313.200 324.536,313.200 324.319 C 313.200 323.526,311.557 321.642,311.039 321.841 C 310.746 321.953,310.405 322.899,310.281 323.943 C 310.009 326.242,307.711 330.381,306.700 330.392 C 305.780 330.402,305.812 331.369,306.775 332.716 C 307.201 333.312,308.166 334.840,308.919 336.111 C 310.276 338.403,310.293 338.414,310.890 337.515 C 312.752 334.710,314.969 339.172,314.625 345.034 C 314.343 349.853,314.343 351.519,314.626 358.200 C 314.769 361.581,314.709 363.260,314.456 363.000 C 314.241 362.780,313.971 360.710,313.855 358.400 C 313.578 352.894,313.102 349.677,312.346 348.200 C 312.008 347.540,311.515 345.992,311.250 344.759 C 310.565 341.567,305.993 334.400,304.642 334.400 C 304.289 334.400,304.000 334.144,304.000 333.830 C 304.000 332.814,298.755 329.219,297.255 329.207 C 296.735 329.203,295.745 328.738,295.055 328.174 C 294.365 327.610,292.180 325.970,290.200 324.530 C 285.264 320.938,279.274 315.600,280.180 315.600 C 280.280 315.600,280.014 314.835,279.589 313.900 C 279.165 312.965,278.814 311.688,278.809 311.063 C 278.803 310.266,278.560 309.862,278.000 309.716 C 277.186 309.503,276.875 308.800,277.594 308.800 C 277.924 308.800,278.098 304.650,278.047 298.000 C 278.032 295.961,277.234 288.528,276.802 286.400 C 276.557 285.190,276.287 283.354,276.203 282.320 C 276.119 281.286,275.859 280.083,275.625 279.647 C 275.391 279.210,275.200 278.226,275.200 277.460 C 275.200 276.694,274.975 275.984,274.700 275.883 C 274.320 275.743,274.362 275.402,274.876 274.459 C 275.549 273.225,275.546 273.216,274.339 272.357 C 273.433 271.711,273.172 271.257,273.306 270.557 C 273.418 269.973,273.206 269.367,272.743 268.948 C 271.604 267.917,271.843 267.470,273.397 267.722 C 275.612 268.082,275.939 267.449,275.828 263.015 C 275.759 260.232,275.565 259.021,275.106 258.505 C 274.107 257.381,273.176 254.778,272.996 252.606 C 272.622 248.108,271.882 245.141,270.988 244.555 C 270.243 244.067,270.145 243.710,270.304 242.057 C 270.469 240.342,270.374 240.037,269.445 239.307 C 268.762 238.769,268.396 238.089,268.390 237.342 C 268.384 236.714,267.920 234.940,267.359 233.400 C 266.798 231.860,266.185 229.275,265.998 227.656 C 265.739 225.429,265.443 224.513,264.780 223.896 C 264.021 223.189,263.936 222.803,264.146 221.018 C 264.540 217.668,262.755 213.626,260.500 212.764 C 259.331 212.317,259.361 211.775,260.600 210.963 C 261.870 210.131,261.946 208.220,260.760 206.957 C 259.838 205.976,259.701 204.979,260.176 202.704 C 260.561 200.857,259.893 200.466,257.552 201.167 C 255.619 201.746,255.185 202.690,255.608 205.400 C 255.974 207.744,255.661 212.785,255.107 213.488 C 254.890 213.763,254.840 214.837,254.992 215.945 C 255.166 217.205,255.108 218.010,254.832 218.180 C 254.594 218.327,254.400 218.797,254.400 219.224 C 254.400 219.651,254.143 220.000,253.829 220.000 C 253.241 220.000,252.744 222.634,252.647 226.257 C 252.621 227.213,252.459 227.996,252.287 227.998 C 251.669 228.002,249.600 230.442,249.600 231.165 C 249.600 231.570,249.318 232.136,248.974 232.422 C 248.108 233.140,247.358 234.719,247.035 236.500 C 246.879 237.363,246.533 238.000,246.221 238.000 C 245.853 238.000,245.587 238.803,245.392 240.500 C 245.235 241.875,244.783 243.900,244.389 245.000 C 243.994 246.100,243.557 247.840,243.416 248.867 C 243.276 249.894,242.900 250.951,242.582 251.215 C 242.264 251.479,241.788 252.439,241.525 253.347 C 241.261 254.256,240.801 255.387,240.503 255.861 C 240.204 256.334,239.787 258.392,239.575 260.434 C 239.364 262.476,238.947 264.429,238.649 264.773 C 238.079 265.431,237.951 266.124,237.986 268.351 C 238.000 269.258,237.697 270.012,237.062 270.647 C 236.251 271.458,236.144 271.877,236.309 273.594 C 236.429 274.842,236.319 275.815,236.018 276.179 C 235.752 276.499,235.649 277.123,235.789 277.566 C 235.929 278.008,235.842 278.748,235.594 279.211 C 234.851 280.600,234.730 283.633,235.378 284.623 C 236.014 285.593,235.836 286.065,234.961 285.730 C 234.623 285.600,234.400 285.770,234.400 286.157 C 234.400 286.511,234.659 286.800,234.976 286.800 C 235.293 286.800,235.652 286.960,235.773 287.156 C 236.043 287.593,234.074 291.200,233.566 291.200 C 232.976 291.200,233.145 292.076,233.895 292.905 C 234.522 293.597,234.528 293.718,233.962 294.136 C 233.118 294.760,232.741 296.657,232.559 301.200 C 232.359 306.179,232.149 308.861,231.902 309.600 C 231.791 309.930,231.472 311.190,231.193 312.400 C 230.914 313.610,230.487 314.735,230.243 314.900 C 229.932 315.111,229.965 315.306,230.354 315.557 C 231.001 315.974,230.389 316.376,227.861 317.191 C 227.015 317.464,225.845 317.937,225.261 318.241 C 224.107 318.844,222.400 318.990,222.400 318.486 C 222.400 318.194,221.859 318.075,220.100 317.982 C 218.848 317.915,216.000 317.034,216.000 316.713 C 216.000 316.541,215.638 316.400,215.196 316.400 C 214.754 316.400,213.495 315.770,212.400 315.000 C 211.305 314.230,210.240 313.600,210.035 313.600 C 209.830 313.600,209.143 313.082,208.510 312.449 C 207.877 311.815,206.631 310.926,205.741 310.472 C 204.850 310.018,203.796 309.141,203.397 308.523 C 202.998 307.905,202.140 306.860,201.492 306.200 C 200.843 305.540,199.860 304.293,199.306 303.428 C 198.752 302.564,197.889 301.414,197.387 300.872 C 195.601 298.947,192.353 291.884,191.191 287.400 C 189.506 280.900,188.838 278.718,188.268 277.847 C 187.936 277.340,187.477 275.915,187.249 274.679 C 187.020 273.444,186.466 271.713,186.017 270.833 C 185.568 269.952,185.199 268.820,185.197 268.316 C 185.196 267.812,184.837 266.860,184.400 266.200 C 183.918 265.473,183.604 264.323,183.603 263.282 C 183.601 261.946,183.358 261.323,182.512 260.482 C 181.805 259.778,181.408 258.939,181.376 258.082 C 181.345 257.224,181.026 256.554,180.464 256.160 C 179.989 255.827,179.600 255.261,179.600 254.903 C 179.600 254.545,179.265 253.880,178.855 253.426 C 178.446 252.972,177.892 251.701,177.625 250.601 C 177.357 249.502,176.793 248.280,176.369 247.886 C 175.946 247.491,175.600 246.761,175.600 246.262 C 175.600 245.763,175.150 244.745,174.600 244.000 C 174.050 243.255,173.600 242.437,173.600 242.184 C 173.600 241.931,173.240 241.398,172.800 241.000 C 172.360 240.602,172.000 239.950,172.000 239.552 C 172.000 239.154,171.460 238.213,170.800 237.461 C 170.097 236.661,169.600 235.645,169.600 235.009 C 169.600 234.412,169.264 233.446,168.852 232.862 C 168.441 232.278,167.966 231.350,167.796 230.800 C 167.368 229.411,165.281 225.765,164.583 225.186 C 164.266 224.922,163.826 224.053,163.606 223.253 C 162.360 218.727,157.082 216.200,156.603 219.900 C 156.467 220.945,156.275 222.194,156.177 222.675 C 156.078 223.157,156.178 223.663,156.399 223.799 C 156.985 224.161,156.889 224.800,156.249 224.800 C 155.170 224.800,154.596 226.167,154.334 229.361 C 153.857 235.168,152.576 240.895,151.287 242.982 C 151.029 243.400,151.029 243.399,150.436 249.895 C 150.165 252.860,149.795 254.742,149.348 255.423 C 148.936 256.053,148.703 257.110,148.752 258.128 C 148.930 261.794,147.892 270.980,147.141 272.394 C 146.697 273.229,146.400 274.611,146.400 275.839 C 146.400 276.968,146.209 278.860,145.975 280.045 C 145.741 281.230,145.473 282.740,145.380 283.400 C 145.286 284.060,145.098 285.183,144.960 285.895 C 144.769 286.887,144.866 287.250,145.373 287.445 C 145.983 287.679,145.984 287.754,145.387 288.415 C 144.707 289.166,144.443 290.755,144.226 295.400 C 144.154 296.940,144.052 298.290,144.000 298.400 C 143.948 298.510,143.937 298.766,143.976 298.970 C 144.015 299.173,144.095 302.244,144.154 305.795 C 144.212 309.346,144.390 312.461,144.549 312.717 C 144.707 312.974,144.648 313.536,144.417 313.967 C 144.139 314.488,144.133 314.835,144.399 314.999 C 144.956 315.344,144.901 317.047,144.300 318.028 C 143.874 318.724,143.912 318.908,144.560 319.275 C 145.292 319.691,145.286 319.731,144.412 320.391 C 143.619 320.989,143.567 321.191,143.998 321.996 C 144.287 322.536,144.413 323.724,144.303 324.870 C 144.200 325.945,144.241 326.902,144.395 326.997 C 144.735 327.207,144.642 331.891,144.291 332.242 C 144.154 332.379,144.293 332.876,144.601 333.346 C 145.103 334.114,145.061 334.294,144.180 335.142 C 143.583 335.716,143.200 336.536,143.200 337.242 C 143.200 339.352,137.507 343.267,136.257 342.017 C 136.062 341.822,135.665 341.753,135.376 341.865 C 135.086 341.976,133.983 341.632,132.925 341.101 C 131.866 340.570,130.460 339.985,129.800 339.800 C 127.565 339.176,126.849 338.840,125.200 337.641 C 122.971 336.019,118.800 331.354,118.800 330.483 C 118.800 330.268,118.096 329.396,117.235 328.546 C 114.988 326.328,114.110 322.922,113.975 315.900 C 113.938 313.975,113.767 312.400,113.596 312.400 C 113.425 312.400,113.436 311.725,113.622 310.900 C 113.813 310.056,113.807 309.247,113.610 309.050 C 113.408 308.848,113.420 308.273,113.638 307.701 C 113.879 307.067,113.877 306.533,113.631 306.238 C 113.406 305.966,113.390 305.539,113.595 305.208 C 113.787 304.897,113.815 304.363,113.658 304.022 C 113.500 303.680,113.421 301.510,113.482 299.200 C 113.854 285.131,113.785 278.905,113.249 278.259 C 112.799 277.717,112.795 277.489,113.221 276.975 C 113.879 276.182,114.179 250.924,113.550 249.269 C 113.275 248.545,113.282 248.173,113.575 248.075 C 114.129 247.890,114.123 246.283,113.567 245.727 C 113.257 245.417,113.273 245.073,113.623 244.512 C 113.953 243.983,113.987 243.505,113.726 243.040 C 113.508 242.649,113.464 241.444,113.624 240.259 C 113.912 238.138,113.850 236.927,113.372 235.300 C 113.226 234.805,113.264 234.400,113.457 234.400 C 113.874 234.400,113.928 224.995,113.514 224.581 C 113.357 224.424,113.382 224.003,113.569 223.647 C 113.757 223.291,114.010 221.650,114.133 220.000 C 114.434 215.941,114.833 213.497,115.289 212.918 C 115.498 212.652,115.560 212.260,115.428 212.045 C 115.295 211.831,115.370 211.542,115.593 211.404 C 115.817 211.266,116.000 210.825,116.000 210.425 C 116.000 210.025,116.270 209.474,116.600 209.200 C 116.930 208.926,117.200 208.364,117.200 207.951 C 117.200 207.538,117.350 207.200,117.534 207.200 C 117.850 207.200,118.762 202.947,118.906 200.800 C 118.943 200.250,119.118 199.697,119.294 199.572 C 119.470 199.446,119.638 198.051,119.668 196.472 C 119.697 194.892,119.894 193.600,120.107 193.600 C 120.319 193.600,120.409 193.279,120.307 192.888 C 120.205 192.496,120.373 190.831,120.682 189.188 C 120.991 187.544,121.229 185.615,121.210 184.900 C 121.190 184.185,121.324 183.600,121.505 183.600 C 121.687 183.600,121.861 182.655,121.891 181.500 C 121.953 179.182,123.289 171.251,124.333 167.000 C 125.143 163.704,125.987 159.303,126.375 156.358 C 126.596 154.685,126.961 152.828,127.188 152.232 C 127.415 151.636,127.600 150.544,127.600 149.806 C 127.600 149.068,127.861 147.415,128.181 146.132 C 128.847 143.458,129.291 137.702,129.409 130.200 C 129.454 127.340,129.536 124.910,129.591 124.800 C 129.995 123.998,129.900 117.998,129.483 117.987 C 129.215 117.980,129.322 117.731,129.722 117.427 C 130.119 117.126,130.466 116.457,130.493 115.940 C 130.520 115.423,130.712 114.775,130.920 114.500 C 131.128 114.225,131.455 110.895,131.647 107.100 C 131.839 103.305,132.088 99.806,132.199 99.325 C 132.311 98.843,132.223 98.338,132.003 98.202 C 131.746 98.043,131.795 97.569,132.140 96.877 C 132.965 95.221,134.389 88.615,134.959 83.800 C 135.063 82.920,135.246 81.390,135.365 80.400 C 135.485 79.410,135.681 76.530,135.801 74.000 C 135.992 70.002,136.262 67.236,136.953 62.200 C 137.213 60.305,138.461 56.640,138.997 56.198 C 139.264 55.978,139.605 55.415,139.753 54.948 C 140.212 53.501,145.295 53.380,147.884 54.753 C 148.278 54.962,149.290 55.433,150.133 55.801 C 153.200 57.137,157.891 61.313,161.804 66.189 C 162.682 67.283,164.293 69.083,165.385 70.189 C 166.476 71.295,167.711 72.830,168.129 73.600 C 168.547 74.370,169.150 75.491,169.470 76.092 C 169.789 76.693,170.219 77.288,170.425 77.416 C 170.631 77.543,170.800 78.051,170.800 78.544 C 170.800 79.037,170.947 79.611,171.127 79.820 C 171.454 80.199,172.443 83.886,172.625 85.400 C 172.677 85.840,173.006 87.010,173.354 88.000 C 173.703 88.990,173.991 90.349,173.994 91.020 C 173.997 91.691,174.216 92.456,174.480 92.720 C 174.853 93.093,174.853 93.307,174.480 93.680 C 173.889 94.271,173.848 96.259,174.419 96.612 C 174.817 96.858,174.873 97.886,174.819 104.069 C 174.802 105.938,174.976 106.919,175.398 107.341 C 176.106 108.049,176.197 109.200,175.546 109.200 C 175.214 109.200,175.179 110.570,175.417 114.300 C 175.596 117.105,175.785 120.210,175.835 121.200 C 175.939 123.223,176.463 126.871,177.413 132.200 C 177.766 134.180,178.135 136.678,178.234 137.752 C 178.332 138.826,178.673 140.266,178.992 140.952 C 179.459 141.959,180.384 146.398,180.397 147.700 C 180.399 147.865,180.751 148.000,181.181 148.000 C 181.875 148.000,181.955 148.263,181.897 150.357 C 181.861 151.654,182.026 152.959,182.264 153.257 C 182.501 153.556,182.822 154.520,182.976 155.400 C 183.130 156.280,183.508 157.810,183.816 158.800 C 184.123 159.790,184.767 161.950,185.247 163.600 C 185.728 165.250,186.273 166.771,186.460 166.980 C 186.647 167.189,186.800 167.776,186.800 168.285 C 186.800 168.794,186.959 169.523,187.153 169.905 C 188.244 172.049,188.486 172.829,188.291 173.573 C 188.172 174.028,188.238 174.500,188.438 174.623 C 188.637 174.746,188.800 175.337,188.800 175.935 C 188.800 176.533,189.145 177.318,189.567 177.679 C 190.074 178.113,190.431 179.126,190.618 180.668 C 190.774 181.951,191.176 183.538,191.510 184.195 C 191.845 184.851,192.149 185.661,192.186 185.995 C 192.334 187.303,193.213 188.800,193.836 188.800 C 194.384 188.800,194.448 189.089,194.226 190.565 C 194.064 191.649,194.123 192.429,194.381 192.588 C 194.611 192.731,194.800 193.382,194.800 194.036 C 194.800 194.690,195.048 195.320,195.352 195.437 C 195.655 195.553,196.016 196.493,196.154 197.524 C 196.293 198.556,196.677 199.922,197.010 200.559 C 197.404 201.316,197.525 202.195,197.356 203.092 C 197.159 204.145,197.298 204.736,197.949 205.617 C 198.417 206.250,198.800 207.034,198.800 207.360 C 198.800 207.686,198.980 208.064,199.200 208.200 C 199.420 208.336,199.600 208.859,199.600 209.362 C 199.600 209.865,199.960 210.602,200.400 211.000 C 201.060 211.597,201.200 212.232,201.200 214.619 C 201.200 216.824,201.343 217.569,201.800 217.745 C 202.130 217.871,202.400 218.431,202.400 218.987 C 202.400 219.544,202.760 220.360,203.200 220.800 C 203.640 221.240,204.000 221.841,204.000 222.136 C 204.000 222.887,206.096 225.568,206.697 225.585 C 207.351 225.605,209.200 223.985,209.200 223.392 C 209.200 223.137,209.641 222.727,210.181 222.482 C 211.312 221.966,212.211 220.414,212.610 218.286 C 212.764 217.469,213.030 216.800,213.203 216.800 C 213.375 216.800,213.609 216.125,213.722 215.300 C 213.835 214.475,214.218 212.720,214.574 211.400 C 215.306 208.680,215.473 207.794,216.035 203.646 C 216.255 202.022,216.473 200.492,216.518 200.246 C 216.563 200.001,216.231 199.850,215.781 199.912 C 214.376 200.103,213.181 198.424,213.467 196.662 L 213.712 195.152 215.029 196.428 L 216.346 197.704 216.926 196.315 C 217.717 194.422,218.392 191.230,218.811 187.400 C 219.003 185.640,219.339 183.480,219.558 182.600 C 219.776 181.720,220.128 180.100,220.339 179.000 C 220.551 177.900,221.016 175.740,221.372 174.200 C 221.728 172.660,222.082 170.950,222.157 170.400 C 222.233 169.850,222.607 168.346,222.988 167.058 C 223.369 165.769,223.944 163.339,224.266 161.658 C 224.588 159.976,225.021 157.790,225.229 156.800 C 225.437 155.810,225.721 153.830,225.861 152.400 C 226.001 150.970,226.254 149.709,226.425 149.597 C 226.595 149.485,226.813 147.865,226.909 145.997 C 227.004 144.129,227.415 141.160,227.821 139.400 C 228.227 137.640,228.568 135.570,228.579 134.800 C 228.591 134.030,228.805 133.220,229.056 133.000 C 229.994 132.177,231.846 122.957,232.110 117.797 C 232.178 116.475,232.328 115.215,232.444 114.997 C 233.032 113.894,232.851 106.505,232.230 106.267 C 231.440 105.964,231.408 104.435,232.180 103.844 C 232.627 103.503,232.812 101.923,232.984 97.000 C 233.107 93.480,233.277 89.844,233.361 88.921 C 233.903 82.992,234.132 81.346,234.477 80.919 C 234.691 80.655,234.756 80.091,234.621 79.666 C 234.486 79.241,234.574 78.017,234.817 76.947 C 235.431 74.241,235.757 65.803,235.651 55.400 C 235.496 40.162,236.139 38.543,242.200 38.905 C 244.829 39.062,245.792 39.318,247.600 40.341 M239.748 224.192 C 239.410 225.072,239.781 225.346,240.362 224.645 C 240.690 224.251,240.707 223.989,240.417 223.810 C 240.184 223.667,239.883 223.838,239.748 224.192 " stroke="none" fill="transparent" fill-rule="evenodd"></path></g></svg>