<svg id="svg" version="1.1" xmlns="http://www.w3.org/2000/svg" xmlns:xlink="http://www.w3.org/1999/xlink" width="400" height="400" viewBox="0, 0, 400,400"><g id="svgg"><path id="path0" d="M149.316 104.320 C 148.594 104.778,147.600 107.396,147.600 108.837 C 147.600 109.531,146.963 111.509,146.185 113.232 C 144.889 116.104,144.690 117.074,143.794 124.883 C 142.856 133.065,141.579 142.749,139.981 153.800 C 139.567 156.660,138.964 160.980,138.640 163.400 C 138.316 165.820,137.672 169.420,137.210 171.400 C 136.080 176.242,133.146 191.050,131.226 201.600 C 129.286 212.260,127.443 220.792,126.158 225.061 C 122.754 236.363,120.872 251.116,119.991 273.400 C 119.765 279.120,119.424 284.700,119.233 285.800 C 118.060 292.558,117.042 312.270,117.767 314.170 C 119.210 317.947,125.258 323.159,129.236 324.053 C 131.811 324.631,133.041 323.985,136.479 320.251 C 141.829 314.438,141.440 316.451,142.371 289.800 C 143.163 267.124,143.769 262.490,148.597 242.200 C 149.545 238.217,151.694 226.700,153.337 216.800 C 153.684 214.710,154.251 211.740,154.599 210.200 C 156.110 203.495,159.388 187.875,160.223 183.400 C 161.099 178.701,161.429 178.051,162.426 179.048 C 163.422 180.044,166.915 189.750,170.254 200.800 C 171.683 205.530,173.645 211.830,174.613 214.800 C 175.581 217.770,176.743 221.764,177.196 223.676 C 178.196 227.902,178.589 229.034,181.181 235.155 C 182.298 237.794,183.932 242.708,184.811 246.076 C 189.654 264.633,197.702 281.103,208.639 294.842 C 210.985 297.789,214.265 302.165,215.928 304.567 C 224.991 317.653,236.622 324.141,240.635 318.349 C 241.749 316.741,241.765 316.636,241.689 311.458 C 241.611 306.207,242.090 300.177,243.663 286.600 C 244.941 275.568,245.028 272.404,245.119 233.949 C 245.187 204.862,245.320 196.938,245.826 191.949 C 248.590 164.669,248.745 135.755,246.169 128.064 C 242.886 118.261,231.668 108.314,227.549 111.554 C 225.781 112.945,225.600 114.731,225.598 130.877 C 225.596 146.634,224.574 168.343,223.371 178.200 C 222.844 182.522,222.707 190.123,222.558 223.200 C 222.356 268.219,221.909 275.600,219.385 275.600 C 218.326 275.600,211.470 261.163,207.322 250.200 C 205.906 246.460,204.057 241.600,203.212 239.400 C 199.526 229.807,193.487 213.307,192.768 210.864 C 191.240 205.673,189.845 200.416,186.756 188.200 C 185.866 184.680,184.972 181.170,184.770 180.400 C 184.568 179.630,183.866 176.734,183.209 173.964 C 182.553 171.195,181.217 166.245,180.242 162.964 C 179.267 159.684,177.896 154.840,177.197 152.200 C 174.169 140.767,173.111 136.716,171.973 132.200 C 169.434 122.117,167.944 118.552,164.107 113.377 C 159.200 106.758,152.212 102.480,149.316 104.320 " stroke="none" fill="#EC791A" fill-rule="evenodd"></path><path id="path1" d="M0.000 200.000 L 0.000 400.000 200.000 400.000 L 400.000 400.000 400.000 200.000 L 400.000 0.000 200.000 0.000 L 0.000 0.000 0.000 200.000 M155.169 105.216 C 163.303 109.551,168.284 117.550,171.973 132.200 C 173.111 136.716,174.169 140.767,177.197 152.200 C 177.896 154.840,179.267 159.684,180.242 162.964 C 181.217 166.245,182.553 171.195,183.209 173.964 C 183.866 176.734,184.568 179.630,184.770 180.400 C 184.972 181.170,185.866 184.680,186.756 188.200 C 189.845 200.416,191.240 205.673,192.768 210.864 C 193.487 213.307,199.526 229.807,203.212 239.400 C 204.057 241.600,205.906 246.460,207.322 250.200 C 211.470 261.163,218.326 275.600,219.385 275.600 C 221.909 275.600,222.356 268.219,222.558 223.200 C 222.707 190.123,222.844 182.522,223.371 178.200 C 224.574 168.343,225.596 146.634,225.598 130.877 C 225.600 114.731,225.781 112.945,227.549 111.554 C 231.668 108.314,242.886 118.261,246.169 128.064 C 248.745 135.755,248.590 164.669,245.826 191.949 C 245.320 196.938,245.187 204.862,245.119 233.949 C 245.028 272.404,244.941 275.568,243.663 286.600 C 242.090 300.177,241.611 306.207,241.689 311.458 C 241.765 316.636,241.749 316.741,240.635 318.349 C 236.622 324.141,224.991 317.653,215.928 304.567 C 214.265 302.165,210.985 297.789,208.639 294.842 C 197.702 281.103,189.654 264.633,184.811 246.076 C 183.932 242.708,182.298 237.794,181.181 235.155 C 178.589 229.034,178.196 227.902,177.196 223.676 C 176.743 221.764,175.581 217.770,174.613 214.800 C 173.645 211.830,171.683 205.530,170.254 200.800 C 166.915 189.750,163.422 180.044,162.426 179.048 C 161.429 178.051,161.099 178.701,160.223 183.400 C 159.388 187.875,156.110 203.495,154.599 210.200 C 154.251 211.740,153.684 214.710,153.337 216.800 C 151.694 226.700,149.545 238.217,148.597 242.200 C 143.769 262.490,143.163 267.124,142.371 289.800 C 141.440 316.451,141.829 314.438,136.479 320.251 C 133.041 323.985,131.811 324.631,129.236 324.053 C 125.258 323.159,119.210 317.947,117.767 314.170 C 117.042 312.270,118.060 292.558,119.233 285.800 C 119.424 284.700,119.765 279.120,119.991 273.400 C 120.872 251.116,122.754 236.363,126.158 225.061 C 127.443 220.792,129.286 212.260,131.226 201.600 C 133.146 191.050,136.080 176.242,137.210 171.400 C 137.672 169.420,138.316 165.820,138.640 163.400 C 138.964 160.980,139.567 156.660,139.981 153.800 C 141.579 142.749,142.856 133.065,143.794 124.883 C 144.690 117.074,144.889 116.104,146.185 113.232 C 146.963 111.509,147.600 109.531,147.600 108.837 C 147.600 104.199,150.583 102.772,155.169 105.216 " stroke="none" fill="transparent" fill-rule="evenodd"></path></g></svg>