<svg id="svg" version="1.1" xmlns="http://www.w3.org/2000/svg" xmlns:xlink="http://www.w3.org/1999/xlink" width="400" height="400" viewBox="0, 0, 400,400"><g id="svgg"><path id="path0" d="M182.000 18.809 C 179.081 19.104,177.650 19.387,172.528 20.680 C 171.168 21.023,169.607 21.218,169.058 21.113 C 168.327 20.973,168.010 21.119,167.868 21.661 C 167.760 22.074,167.316 22.400,166.861 22.400 C 166.413 22.400,165.948 22.561,165.826 22.758 C 165.550 23.204,158.077 26.164,157.032 26.241 C 156.610 26.272,156.050 26.590,155.788 26.949 C 155.526 27.307,155.053 27.600,154.736 27.600 C 154.419 27.600,153.989 27.751,153.780 27.935 C 153.571 28.119,152.410 28.679,151.200 29.179 C 147.097 30.876,138.512 35.277,136.530 36.700 C 135.841 37.195,135.017 37.600,134.700 37.600 C 134.383 37.600,133.793 37.966,133.388 38.413 C 132.984 38.860,132.011 39.622,131.226 40.105 C 129.695 41.049,128.403 42.064,126.903 43.500 C 126.387 43.995,125.792 44.400,125.582 44.400 C 125.372 44.400,125.200 44.760,125.200 45.200 C 125.200 45.640,125.061 46.000,124.891 46.000 C 124.721 46.000,124.262 46.594,123.871 47.321 C 123.479 48.047,122.629 49.262,121.981 50.021 C 121.332 50.779,120.798 51.580,120.794 51.800 C 120.790 52.020,120.331 52.632,119.775 53.159 C 119.219 53.687,118.284 54.947,117.696 55.959 C 117.108 56.972,116.396 58.038,116.114 58.329 C 115.831 58.619,115.600 59.024,115.600 59.229 C 115.600 59.433,115.330 59.600,115.000 59.600 C 114.670 59.600,114.399 59.915,114.399 60.300 C 114.398 60.685,114.006 61.630,113.528 62.400 C 113.050 63.170,111.774 65.510,110.693 67.600 C 109.612 69.690,108.549 71.616,108.331 71.881 C 108.112 72.145,107.878 72.775,107.810 73.281 C 107.742 73.786,107.372 75.010,106.988 76.000 C 106.604 76.990,106.242 78.340,106.183 79.000 C 106.125 79.660,105.873 81.221,105.624 82.470 C 105.068 85.252,104.130 95.319,103.822 101.800 C 103.697 104.440,103.390 107.375,103.139 108.322 C 102.862 109.370,102.828 110.188,103.052 110.412 C 103.254 110.614,103.314 111.999,103.185 113.490 C 102.941 116.296,102.822 124.274,102.626 150.720 C 102.563 159.234,102.486 166.470,102.455 166.800 C 102.423 167.130,102.473 168.120,102.565 169.000 C 102.657 169.880,102.851 173.570,102.997 177.200 C 103.340 185.706,103.462 187.314,103.976 190.100 C 104.209 191.365,104.607 193.525,104.860 194.900 C 105.113 196.275,105.452 197.580,105.614 197.800 C 105.775 198.020,106.039 198.830,106.200 199.600 C 106.361 200.370,106.722 201.450,107.002 202.000 C 107.282 202.550,108.619 205.250,109.971 208.000 C 112.789 213.727,112.851 213.834,115.000 216.719 C 115.880 217.901,116.898 219.404,117.263 220.061 C 117.628 220.718,118.213 221.572,118.563 221.959 C 118.913 222.346,119.200 222.754,119.200 222.865 C 119.200 222.976,119.875 223.799,120.700 224.694 C 121.525 225.589,122.740 226.966,123.400 227.755 C 124.841 229.477,131.550 236.400,131.778 236.400 C 131.866 236.400,132.457 236.895,133.090 237.500 C 136.486 240.742,139.358 243.200,139.753 243.202 C 140.279 243.204,142.281 245.065,143.350 246.545 C 143.788 247.152,144.452 247.561,144.950 247.531 C 145.417 247.502,146.970 248.199,148.400 249.080 C 149.830 249.960,151.675 250.924,152.500 251.221 C 153.325 251.518,154.000 251.896,154.000 252.062 C 154.000 252.228,154.618 252.480,155.372 252.621 C 156.127 252.763,156.831 253.103,156.936 253.377 C 157.041 253.651,157.999 254.111,159.064 254.399 C 160.129 254.686,161.289 255.169,161.642 255.470 C 161.995 255.772,162.578 255.906,162.938 255.769 C 163.758 255.454,167.702 256.365,168.086 256.958 C 168.243 257.201,168.963 257.431,169.686 257.469 C 172.326 257.608,178.985 259.230,179.311 259.813 C 179.492 260.136,180.011 260.400,180.465 260.400 C 181.405 260.400,184.400 261.979,184.400 262.474 C 184.400 262.653,184.636 262.800,184.924 262.800 C 185.213 262.800,186.198 263.610,187.114 264.600 C 188.031 265.590,188.970 266.400,189.203 266.400 C 189.435 266.400,189.727 266.665,189.851 266.989 C 189.976 267.313,190.675 267.690,191.405 267.827 C 193.030 268.132,194.102 269.225,195.192 271.688 C 195.649 272.722,196.198 273.675,196.411 273.807 C 196.625 273.939,196.800 274.487,196.800 275.024 C 196.800 275.561,196.960 276.000,197.157 276.000 C 197.471 276.000,197.906 277.105,198.232 278.735 C 198.291 279.029,198.641 279.603,199.009 280.010 C 199.377 280.417,199.562 280.937,199.421 281.167 C 199.279 281.396,199.376 281.982,199.637 282.470 C 199.898 282.957,200.137 283.996,200.169 284.778 C 200.200 285.560,200.372 286.435,200.550 286.723 C 200.729 287.010,200.768 287.674,200.636 288.198 C 200.505 288.722,200.564 289.254,200.769 289.381 C 200.984 289.514,201.003 290.092,200.814 290.752 C 200.634 291.379,200.643 292.142,200.834 292.446 C 201.025 292.751,201.097 293.274,200.993 293.609 C 200.889 293.944,200.979 294.830,201.194 295.578 C 201.459 296.503,201.447 297.102,201.157 297.451 C 200.923 297.734,200.876 298.198,201.053 298.482 C 201.230 298.767,201.338 301.970,201.294 305.600 C 201.250 309.230,201.192 314.212,201.165 316.671 C 201.139 319.130,201.229 321.323,201.365 321.544 C 201.501 321.764,201.436 322.054,201.220 322.188 C 201.003 322.322,200.932 322.961,201.062 323.609 C 201.236 324.478,201.127 324.853,200.649 325.037 C 199.771 325.374,199.826 326.000,200.734 326.000 C 201.393 326.000,201.476 326.422,201.554 330.127 C 201.720 338.119,202.288 340.034,205.631 343.883 C 207.123 345.601,207.243 346.699,207.338 359.570 C 207.399 367.813,207.542 370.581,207.910 370.703 C 208.261 370.820,208.400 370.176,208.400 368.433 C 208.400 367.010,208.573 366.000,208.818 366.000 C 209.047 366.000,209.182 366.291,209.118 366.647 C 209.053 367.003,209.320 367.498,209.711 367.747 C 210.752 368.410,211.187 367.479,211.194 364.575 C 211.200 362.348,211.298 362.078,212.400 361.263 L 213.600 360.376 213.600 353.640 C 213.600 349.487,213.827 345.602,214.193 343.507 C 214.723 340.463,214.718 339.612,214.144 335.354 C 213.791 332.739,213.447 328.890,213.378 326.800 C 213.310 324.710,213.158 322.512,213.040 321.916 C 212.775 320.571,213.210 320.272,214.638 320.814 C 215.565 321.167,215.876 321.101,216.570 320.408 L 217.397 319.581 215.999 319.824 C 215.225 319.959,214.792 319.918,215.029 319.734 C 215.923 319.038,216.057 317.941,215.191 318.405 C 214.756 318.638,214.400 319.002,214.400 319.214 C 214.400 319.426,214.151 319.600,213.847 319.600 C 213.011 319.600,212.780 318.077,213.506 317.351 C 214.030 316.827,214.053 316.577,213.641 315.917 C 213.318 315.400,213.301 315.215,213.591 315.395 C 213.864 315.563,214.226 315.186,214.508 314.439 C 214.938 313.298,217.097 312.040,218.130 312.328 C 218.311 312.378,218.345 312.235,218.206 312.010 C 218.067 311.784,217.535 311.600,217.025 311.600 C 216.515 311.600,215.872 311.328,215.596 310.995 C 215.209 310.529,214.966 310.496,214.537 310.852 C 213.291 311.886,213.083 310.808,212.949 302.600 C 212.734 289.446,212.300 283.874,211.034 278.000 C 209.833 272.426,209.600 271.091,209.600 269.769 C 209.600 269.016,209.776 268.400,209.990 268.400 C 210.208 268.400,210.277 267.884,210.147 267.233 C 209.732 265.161,214.103 260.798,215.992 261.398 C 216.493 261.556,217.210 261.423,217.747 261.071 C 218.246 260.744,220.038 260.244,221.728 259.960 C 223.417 259.676,224.800 259.287,224.800 259.095 C 224.800 258.903,225.169 258.863,225.619 259.006 C 226.070 259.149,226.655 259.096,226.919 258.888 C 227.184 258.680,228.157 258.394,229.082 258.253 C 230.649 258.014,234.114 256.443,234.980 255.579 C 235.649 254.912,236.409 255.171,236.800 256.200 C 237.009 256.750,237.356 257.200,237.572 257.200 C 237.787 257.200,238.073 257.875,238.206 258.700 C 238.339 259.525,238.616 261.010,238.821 262.000 C 239.027 262.990,239.294 265.420,239.416 267.400 C 239.851 274.493,240.198 275.781,242.599 279.200 C 247.913 286.770,251.200 293.432,251.200 296.634 C 251.200 297.882,252.330 302.327,253.048 303.904 C 254.413 306.903,254.753 313.581,254.191 326.349 C 253.922 332.447,254.170 333.601,255.468 332.304 C 255.935 331.836,256.185 330.691,256.317 328.412 C 256.504 325.185,256.877 324.317,257.715 325.155 C 259.418 326.858,259.938 325.556,260.090 319.200 C 260.196 314.782,260.248 314.538,261.400 313.031 C 263.090 310.821,263.140 305.801,261.520 301.000 C 260.926 299.240,260.079 296.133,259.637 294.096 C 259.195 292.059,258.576 289.809,258.261 289.096 C 257.945 288.383,257.382 286.990,257.008 286.000 C 256.634 285.010,256.120 283.951,255.864 283.646 C 255.068 282.695,251.249 276.308,250.098 274.000 C 248.706 271.210,248.660 256.525,250.032 252.916 C 250.238 252.375,250.319 251.792,250.212 251.619 C 249.611 250.647,251.966 242.400,252.846 242.400 C 253.041 242.400,253.200 241.839,253.200 241.153 C 253.200 240.039,253.306 239.927,254.200 240.098 C 255.128 240.275,255.200 240.177,255.200 238.735 C 255.200 237.445,255.370 237.116,256.200 236.800 C 256.799 236.572,257.200 236.104,257.200 235.634 C 257.200 235.201,257.380 234.736,257.600 234.600 C 257.820 234.464,258.000 234.010,258.000 233.590 C 258.000 233.171,258.540 232.275,259.200 231.600 C 259.860 230.925,260.400 230.019,260.400 229.586 C 260.400 229.154,260.580 228.800,260.800 228.800 C 261.020 228.800,261.200 228.513,261.200 228.162 C 261.200 227.562,262.326 225.239,262.829 224.800 C 262.955 224.690,263.182 224.265,263.334 223.855 C 263.711 222.835,264.798 223.720,264.512 224.815 C 264.359 225.402,264.509 225.600,265.106 225.600 C 265.947 225.600,266.108 222.941,265.423 220.370 C 265.234 219.660,265.343 219.179,265.774 218.821 C 266.118 218.536,266.400 217.798,266.400 217.182 C 266.400 215.210,267.310 212.000,267.869 212.000 C 268.510 212.000,268.567 211.127,267.965 210.525 C 267.652 210.212,267.652 210.015,267.965 209.822 C 268.204 209.674,268.400 209.234,268.400 208.844 C 268.400 208.454,268.849 207.250,269.398 206.168 C 269.947 205.086,270.397 204.491,270.398 204.846 C 270.400 205.540,272.706 207.295,274.500 207.968 C 275.181 208.223,275.600 208.676,275.600 209.157 C 275.600 210.175,276.003 211.200,276.403 211.200 C 277.400 211.200,276.567 208.456,275.309 207.594 C 273.781 206.547,273.797 205.765,275.344 205.875 C 276.516 205.959,276.761 205.198,275.816 204.413 C 275.388 204.058,274.744 204.032,273.410 204.317 C 271.291 204.769,271.282 204.760,271.422 202.400 C 271.481 201.410,271.356 200.391,271.146 200.137 C 270.441 199.284,271.199 195.693,272.225 195.021 C 273.095 194.451,273.146 194.182,273.090 190.507 C 273.057 188.357,273.198 186.329,273.403 185.999 C 273.608 185.670,273.799 184.950,273.827 184.400 C 273.855 183.850,274.085 182.893,274.339 182.274 C 274.592 181.655,274.800 180.450,274.800 179.598 C 274.800 178.745,274.980 177.936,275.201 177.799 C 275.432 177.657,275.495 176.883,275.350 175.976 C 275.185 174.946,275.250 174.400,275.536 174.400 C 275.778 174.400,275.871 174.130,275.745 173.800 C 275.304 172.650,275.959 173.216,277.832 175.600 C 281.739 180.572,281.212 177.124,277.151 171.136 C 276.654 170.404,276.498 169.654,276.649 168.736 C 276.770 168.001,277.011 166.392,277.184 165.159 C 277.357 163.927,277.697 162.307,277.939 161.559 C 278.182 160.812,278.385 159.840,278.391 159.400 C 278.414 157.752,278.903 154.984,279.246 154.557 C 279.442 154.314,279.490 153.549,279.352 152.858 C 279.198 152.089,279.294 151.368,279.601 150.999 C 279.927 150.606,280.031 149.663,279.899 148.298 C 279.788 147.144,279.886 145.750,280.117 145.200 C 280.348 144.650,280.578 142.490,280.630 140.400 C 280.681 138.310,280.934 135.610,281.191 134.400 C 281.713 131.947,281.714 131.920,281.361 130.100 C 281.199 129.261,281.267 128.800,281.555 128.800 C 281.800 128.800,282.000 128.519,282.000 128.176 C 282.000 127.833,281.848 127.647,281.662 127.762 C 281.259 128.011,281.312 124.790,281.721 124.127 C 281.877 123.875,281.798 123.599,281.545 123.515 C 281.201 123.400,281.199 123.149,281.539 122.513 C 281.886 121.865,281.877 121.626,281.502 121.501 C 281.115 121.372,281.119 121.096,281.522 120.213 C 281.923 119.332,281.935 118.613,281.577 116.891 C 281.223 115.183,281.232 114.487,281.621 113.761 C 282.010 113.034,282.015 112.699,281.641 112.249 C 281.283 111.818,281.278 111.599,281.619 111.388 C 281.918 111.204,282.039 109.974,281.968 107.853 C 281.907 106.064,282.000 103.923,282.174 103.096 C 282.377 102.131,282.332 101.400,282.049 101.059 C 281.806 100.766,281.734 100.399,281.890 100.243 C 282.330 99.803,282.017 94.517,281.359 91.297 C 281.033 89.700,280.793 88.170,280.827 87.897 C 280.921 87.117,280.344 85.600,279.953 85.600 C 279.759 85.600,279.600 85.246,279.600 84.814 C 279.600 84.115,278.915 82.230,277.977 80.346 C 277.797 79.986,277.756 79.289,277.885 78.796 C 278.042 78.196,277.901 77.776,277.460 77.530 C 277.097 77.326,276.800 76.899,276.800 76.580 C 276.800 76.261,276.644 76.000,276.453 76.000 C 276.023 76.000,274.215 73.308,273.830 72.095 C 273.498 71.048,271.286 67.545,269.821 65.745 C 269.260 65.055,268.800 64.317,268.800 64.106 C 268.800 63.895,267.585 62.152,266.100 60.233 C 264.615 58.313,263.003 56.171,262.517 55.472 C 262.032 54.772,261.042 53.548,260.317 52.751 C 258.996 51.297,256.898 48.900,253.361 44.800 C 252.317 43.590,251.089 42.338,250.632 42.017 C 250.174 41.697,248.360 39.997,246.600 38.240 C 242.946 34.593,238.758 30.900,237.000 29.775 C 236.340 29.353,235.350 28.589,234.800 28.078 C 234.250 27.567,232.990 26.674,232.000 26.093 C 231.010 25.513,230.110 24.925,230.000 24.786 C 229.768 24.493,224.461 22.012,222.400 21.233 C 220.660 20.575,215.871 19.285,214.000 18.969 C 211.821 18.601,185.361 18.469,182.000 18.809 M230.536 53.200 C 231.576 53.860,232.557 54.405,232.714 54.411 C 233.176 54.428,236.000 57.174,236.000 57.605 C 236.000 57.822,236.215 58.000,236.477 58.000 C 236.996 58.000,240.542 61.591,242.302 63.899 C 242.906 64.690,243.895 65.833,244.500 66.438 C 245.105 67.043,245.600 67.822,245.600 68.169 C 245.600 68.516,245.800 68.800,246.043 68.800 C 246.314 68.800,246.391 69.181,246.242 69.776 C 246.067 70.473,246.213 70.904,246.754 71.283 C 248.045 72.187,249.504 75.292,250.200 78.617 C 251.116 82.990,251.375 108.157,250.512 108.873 C 250.113 109.204,250.088 109.407,250.420 109.612 C 250.917 109.920,250.923 109.998,250.815 115.600 C 250.710 121.039,249.707 132.424,249.018 136.000 C 248.912 136.550,248.729 137.630,248.610 138.400 C 248.492 139.170,248.207 140.847,247.976 142.126 C 247.745 143.405,247.489 144.935,247.408 145.526 C 247.326 146.117,246.969 148.310,246.614 150.400 C 246.259 152.490,245.879 154.920,245.770 155.800 C 245.384 158.913,244.727 162.188,244.345 162.902 C 244.133 163.300,243.885 164.967,243.796 166.608 C 243.706 168.249,243.452 169.930,243.230 170.344 C 242.786 171.173,242.144 174.378,241.610 178.428 C 241.266 181.043,240.272 185.074,239.596 186.600 C 239.401 187.040,239.041 188.480,238.797 189.800 C 238.271 192.638,236.916 197.511,236.379 198.495 C 236.171 198.877,236.000 199.374,236.000 199.599 C 236.000 200.083,234.676 203.187,233.577 205.279 C 233.150 206.093,232.800 207.010,232.800 207.317 C 232.800 207.625,232.440 208.202,232.000 208.600 C 231.560 208.998,231.200 209.566,231.200 209.862 C 231.200 210.158,231.027 210.400,230.816 210.400 C 230.605 210.400,230.210 211.142,229.938 212.048 C 229.667 212.955,228.780 214.388,227.967 215.234 C 227.155 216.079,225.975 217.470,225.345 218.323 C 223.867 220.327,220.651 223.099,218.829 223.940 C 218.043 224.303,217.190 224.870,216.932 225.200 C 216.675 225.530,216.315 225.808,216.132 225.817 C 215.950 225.826,215.234 226.136,214.542 226.505 C 213.850 226.875,212.500 227.300,211.542 227.449 C 210.584 227.599,209.671 227.919,209.514 228.161 C 209.325 228.451,206.743 228.614,201.914 228.641 C 197.891 228.663,193.800 228.877,192.822 229.116 C 191.843 229.355,190.918 229.473,190.764 229.378 C 190.611 229.283,189.779 229.454,188.917 229.759 C 187.939 230.104,186.229 230.260,184.374 230.174 C 181.198 230.026,175.790 229.559,174.800 229.346 C 174.470 229.275,172.670 228.937,170.800 228.595 C 168.930 228.254,167.040 227.804,166.600 227.596 C 166.160 227.388,165.530 227.258,165.200 227.305 C 164.342 227.430,160.312 226.382,159.600 225.849 C 158.110 224.733,157.305 224.455,156.859 224.901 C 156.535 225.225,156.173 225.225,155.508 224.900 C 155.009 224.656,153.880 224.239,153.000 223.973 C 150.699 223.279,147.922 221.821,147.038 220.843 C 146.619 220.379,146.111 220.000,145.909 220.000 C 145.708 220.000,145.306 219.763,145.015 219.473 C 144.725 219.183,143.973 218.508,143.344 217.973 C 141.909 216.753,139.200 213.450,139.200 212.921 C 139.200 212.703,138.840 212.198,138.400 211.800 C 137.960 211.402,137.600 210.654,137.600 210.138 C 137.600 209.622,137.423 209.200,137.208 209.200 C 136.992 209.200,136.697 208.705,136.552 208.100 C 136.408 207.495,136.144 206.813,135.965 206.584 C 135.455 205.929,134.760 202.432,134.616 199.800 C 134.544 198.480,134.282 196.883,134.034 196.251 C 133.731 195.480,133.714 194.944,133.983 194.620 C 134.248 194.302,134.251 193.674,133.992 192.772 C 133.510 191.092,133.499 190.691,133.944 190.965 C 134.133 191.082,134.724 190.972,135.257 190.720 L 136.226 190.263 135.295 189.331 C 134.783 188.819,134.206 188.400,134.014 188.400 C 133.587 188.400,133.054 186.160,133.362 185.662 C 133.620 185.243,134.141 180.967,134.075 179.800 C 133.603 171.372,133.687 169.555,134.547 169.622 C 135.016 169.659,135.611 169.669,135.868 169.644 C 136.644 169.571,136.894 167.339,136.445 164.489 C 135.696 159.740,135.639 159.426,135.226 157.800 C 135.002 156.920,134.815 154.474,134.810 152.364 C 134.804 150.139,134.550 147.702,134.204 146.564 C 133.877 145.484,133.607 143.556,133.604 142.280 C 133.602 140.896,133.330 139.444,132.931 138.680 C 132.529 137.913,132.225 136.279,132.171 134.600 C 132.122 133.060,131.969 130.316,131.832 128.502 C 131.615 125.646,131.693 124.986,132.411 123.579 C 133.373 121.692,133.208 120.791,131.546 118.886 C 130.274 117.427,130.100 116.601,130.993 116.258 C 131.454 116.081,131.576 115.333,131.537 112.915 C 131.499 110.574,131.709 109.204,132.384 107.400 C 133.395 104.698,133.837 99.991,133.194 98.789 C 132.880 98.202,132.929 97.525,133.385 96.184 C 133.723 95.187,134.000 93.646,134.000 92.760 C 134.000 91.873,134.210 90.754,134.468 90.274 C 134.725 89.793,134.980 88.529,135.034 87.465 C 135.107 86.036,135.493 84.988,136.511 83.455 C 137.269 82.313,138.024 80.934,138.190 80.390 C 138.355 79.845,138.899 78.950,139.399 78.400 C 139.899 77.850,140.627 76.770,141.016 76.000 C 142.818 72.435,144.172 71.114,145.740 71.393 C 146.510 71.530,147.208 71.337,147.894 70.798 C 148.451 70.359,149.054 70.000,149.233 70.000 C 149.412 70.000,150.001 69.595,150.541 69.100 C 151.082 68.605,152.396 67.766,153.462 67.235 C 158.848 64.554,158.604 64.633,164.000 63.787 C 165.870 63.494,168.210 63.047,169.200 62.794 C 170.190 62.542,171.720 62.239,172.600 62.122 C 173.480 62.006,174.380 61.767,174.600 61.593 C 174.984 61.289,179.118 60.000,180.237 59.836 C 180.534 59.792,180.902 59.631,181.055 59.478 C 181.208 59.325,181.750 59.200,182.259 59.200 C 183.194 59.200,185.945 58.296,187.382 57.515 C 189.206 56.525,193.429 55.891,199.800 55.651 C 203.540 55.509,206.794 55.269,207.031 55.116 C 207.459 54.840,214.695 55.712,216.208 56.222 C 216.644 56.368,217.915 56.949,219.034 57.512 C 220.181 58.090,221.358 58.425,221.734 58.281 C 222.625 57.939,222.620 55.763,221.728 55.264 C 221.098 54.911,221.098 54.845,221.728 54.215 C 222.097 53.845,222.400 53.376,222.400 53.171 C 222.400 52.967,223.379 52.800,224.576 52.800 C 225.773 52.800,226.864 52.620,227.000 52.400 C 227.431 51.702,228.586 51.963,230.536 53.200 M208.862 361.000 C 208.862 363.349,208.758 365.376,208.631 365.503 C 208.504 365.629,208.400 363.603,208.400 361.000 C 208.400 358.397,208.504 356.371,208.631 356.497 C 208.758 356.624,208.862 358.651,208.862 361.000 " stroke="none" fill="#EC791A" fill-rule="evenodd"></path><path id="path1" d="M0.000 200.000 L 0.000 400.000 200.000 400.000 L 400.000 400.000 400.000 200.000 L 400.000 0.000 200.000 0.000 L 0.000 0.000 0.000 200.000 M214.000 18.969 C 215.871 19.285,220.660 20.575,222.400 21.233 C 224.461 22.012,229.768 24.493,230.000 24.786 C 230.110 24.925,231.010 25.513,232.000 26.093 C 232.990 26.674,234.250 27.567,234.800 28.078 C 235.350 28.589,236.340 29.353,237.000 29.775 C 238.758 30.900,242.946 34.593,246.600 38.240 C 248.360 39.997,250.174 41.697,250.632 42.017 C 251.089 42.338,252.317 43.590,253.361 44.800 C 256.898 48.900,258.996 51.297,260.317 52.751 C 261.042 53.548,262.032 54.772,262.517 55.472 C 263.003 56.171,264.615 58.313,266.100 60.233 C 267.585 62.152,268.800 63.895,268.800 64.106 C 268.800 64.317,269.260 65.055,269.821 65.745 C 271.286 67.545,273.498 71.048,273.830 72.095 C 274.215 73.308,276.023 76.000,276.453 76.000 C 276.644 76.000,276.800 76.261,276.800 76.580 C 276.800 76.899,277.097 77.326,277.460 77.530 C 277.901 77.776,278.042 78.196,277.885 78.796 C 277.756 79.289,277.797 79.986,277.977 80.346 C 278.915 82.230,279.600 84.115,279.600 84.814 C 279.600 85.246,279.759 85.600,279.953 85.600 C 280.344 85.600,280.921 87.117,280.827 87.897 C 280.793 88.170,281.033 89.700,281.359 91.297 C 282.017 94.517,282.330 99.803,281.890 100.243 C 281.734 100.399,281.806 100.766,282.049 101.059 C 282.332 101.400,282.377 102.131,282.174 103.096 C 282.000 103.923,281.907 106.064,281.968 107.853 C 282.039 109.974,281.918 111.204,281.619 111.388 C 281.278 111.599,281.283 111.818,281.641 112.249 C 282.015 112.699,282.010 113.034,281.621 113.761 C 281.232 114.487,281.223 115.183,281.577 116.891 C 281.935 118.613,281.923 119.332,281.522 120.213 C 281.119 121.096,281.115 121.372,281.502 121.501 C 281.877 121.626,281.886 121.865,281.539 122.513 C 281.199 123.149,281.201 123.400,281.545 123.515 C 281.798 123.599,281.877 123.875,281.721 124.127 C 281.312 124.790,281.259 128.011,281.662 127.762 C 281.848 127.647,282.000 127.833,282.000 128.176 C 282.000 128.519,281.800 128.800,281.555 128.800 C 281.267 128.800,281.199 129.261,281.361 130.100 C 281.714 131.920,281.713 131.947,281.191 134.400 C 280.934 135.610,280.681 138.310,280.630 140.400 C 280.578 142.490,280.348 144.650,280.117 145.200 C 279.886 145.750,279.788 147.144,279.899 148.298 C 280.031 149.663,279.927 150.606,279.601 150.999 C 279.294 151.368,279.198 152.089,279.352 152.858 C 279.490 153.549,279.442 154.314,279.246 154.557 C 278.903 154.984,278.414 157.752,278.391 159.400 C 278.385 159.840,278.182 160.812,277.939 161.559 C 277.697 162.307,277.357 163.927,277.184 165.159 C 277.011 166.392,276.770 168.001,276.649 168.736 C 276.498 169.654,276.654 170.404,277.151 171.136 C 281.212 177.124,281.739 180.572,277.832 175.600 C 275.959 173.216,275.304 172.650,275.745 173.800 C 275.871 174.130,275.778 174.400,275.536 174.400 C 275.250 174.400,275.185 174.946,275.350 175.976 C 275.495 176.883,275.432 177.657,275.201 177.799 C 274.980 177.936,274.800 178.745,274.800 179.598 C 274.800 180.450,274.592 181.655,274.339 182.274 C 274.085 182.893,273.855 183.850,273.827 184.400 C 273.799 184.950,273.608 185.670,273.403 185.999 C 273.198 186.329,273.057 188.357,273.090 190.507 C 273.146 194.182,273.095 194.451,272.225 195.021 C 271.199 195.693,270.441 199.284,271.146 200.137 C 271.356 200.391,271.481 201.410,271.422 202.400 C 271.282 204.760,271.291 204.769,273.410 204.317 C 274.744 204.032,275.388 204.058,275.816 204.413 C 276.761 205.198,276.516 205.959,275.344 205.875 C 273.797 205.765,273.781 206.547,275.309 207.594 C 276.567 208.456,277.400 211.200,276.403 211.200 C 276.003 211.200,275.600 210.175,275.600 209.157 C 275.600 208.676,275.181 208.223,274.500 207.968 C 272.706 207.295,270.400 205.540,270.398 204.846 C 270.397 204.491,269.947 205.086,269.398 206.168 C 268.849 207.250,268.400 208.454,268.400 208.844 C 268.400 209.234,268.204 209.674,267.965 209.822 C 267.652 210.015,267.652 210.212,267.965 210.525 C 268.567 211.127,268.510 212.000,267.869 212.000 C 267.310 212.000,266.400 215.210,266.400 217.182 C 266.400 217.798,266.118 218.536,265.774 218.821 C 265.343 219.179,265.234 219.660,265.423 220.370 C 266.108 222.941,265.947 225.600,265.106 225.600 C 264.509 225.600,264.359 225.402,264.512 224.815 C 264.798 223.720,263.711 222.835,263.334 223.855 C 263.182 224.265,262.955 224.690,262.829 224.800 C 262.326 225.239,261.200 227.562,261.200 228.162 C 261.200 228.513,261.020 228.800,260.800 228.800 C 260.580 228.800,260.400 229.154,260.400 229.586 C 260.400 230.019,259.860 230.925,259.200 231.600 C 258.540 232.275,258.000 233.171,258.000 233.590 C 258.000 234.010,257.820 234.464,257.600 234.600 C 257.380 234.736,257.200 235.201,257.200 235.634 C 257.200 236.104,256.799 236.572,256.200 236.800 C 255.370 237.116,255.200 237.445,255.200 238.735 C 255.200 240.177,255.128 240.275,254.200 240.098 C 253.306 239.927,253.200 240.039,253.200 241.153 C 253.200 241.839,253.041 242.400,252.846 242.400 C 251.966 242.400,249.611 250.647,250.212 251.619 C 250.319 251.792,250.238 252.375,250.032 252.916 C 248.660 256.525,248.706 271.210,250.098 274.000 C 251.249 276.308,255.068 282.695,255.864 283.646 C 256.120 283.951,256.634 285.010,257.008 286.000 C 257.382 286.990,257.945 288.383,258.261 289.096 C 258.576 289.809,259.195 292.059,259.637 294.096 C 260.079 296.133,260.926 299.240,261.520 301.000 C 263.140 305.801,263.090 310.821,261.400 313.031 C 260.248 314.538,260.196 314.782,260.090 319.200 C 259.938 325.556,259.418 326.858,257.715 325.155 C 256.877 324.317,256.504 325.185,256.317 328.412 C 256.185 330.691,255.935 331.836,255.468 332.304 C 254.170 333.601,253.922 332.447,254.191 326.349 C 254.753 313.581,254.413 306.903,253.048 303.904 C 252.330 302.327,251.200 297.882,251.200 296.634 C 251.200 293.432,247.913 286.770,242.599 279.200 C 240.198 275.781,239.851 274.493,239.416 267.400 C 239.294 265.420,239.027 262.990,238.821 262.000 C 238.616 261.010,238.339 259.525,238.206 258.700 C 238.073 257.875,237.787 257.200,237.572 257.200 C 237.356 257.200,237.009 256.750,236.800 256.200 C 236.409 255.171,235.649 254.912,234.980 255.579 C 234.114 256.443,230.649 258.014,229.082 258.253 C 228.157 258.394,227.184 258.680,226.919 258.888 C 226.655 259.096,226.070 259.149,225.619 259.006 C 225.169 258.863,224.800 258.903,224.800 259.095 C 224.800 259.287,223.417 259.676,221.728 259.960 C 220.038 260.244,218.246 260.744,217.747 261.071 C 217.210 261.423,216.493 261.556,215.992 261.398 C 214.103 260.798,209.732 265.161,210.147 267.233 C 210.277 267.884,210.208 268.400,209.990 268.400 C 209.776 268.400,209.600 269.016,209.600 269.769 C 209.600 271.091,209.833 272.426,211.034 278.000 C 212.300 283.874,212.734 289.446,212.949 302.600 C 213.083 310.808,213.291 311.886,214.537 310.852 C 214.966 310.496,215.209 310.529,215.596 310.995 C 215.872 311.328,216.515 311.600,217.025 311.600 C 217.535 311.600,218.067 311.784,218.206 312.010 C 218.345 312.235,218.311 312.378,218.130 312.328 C 217.097 312.040,214.938 313.298,214.508 314.439 C 214.226 315.186,213.864 315.563,213.591 315.395 C 213.301 315.215,213.318 315.400,213.641 315.917 C 214.053 316.577,214.030 316.827,213.506 317.351 C 212.780 318.077,213.011 319.600,213.847 319.600 C 214.151 319.600,214.400 319.426,214.400 319.214 C 214.400 319.002,214.756 318.638,215.191 318.405 C 216.057 317.941,215.923 319.038,215.029 319.734 C 214.792 319.918,215.225 319.959,215.999 319.824 L 217.397 319.581 216.570 320.408 C 215.876 321.101,215.565 321.167,214.638 320.814 C 213.210 320.272,212.775 320.571,213.040 321.916 C 213.158 322.512,213.310 324.710,213.378 326.800 C 213.447 328.890,213.791 332.739,214.144 335.354 C 214.718 339.612,214.723 340.463,214.193 343.507 C 213.827 345.602,213.600 349.487,213.600 353.640 L 213.600 360.376 212.400 361.263 C 211.298 362.078,211.200 362.348,211.194 364.575 C 211.187 367.479,210.752 368.410,209.711 367.747 C 209.320 367.498,209.053 367.003,209.118 366.647 C 209.182 366.291,209.047 366.000,208.818 366.000 C 208.573 366.000,208.400 367.010,208.400 368.433 C 208.400 370.176,208.261 370.820,207.910 370.703 C 207.542 370.581,207.399 367.813,207.338 359.570 C 207.243 346.699,207.123 345.601,205.631 343.883 C 202.288 340.034,201.720 338.119,201.554 330.127 C 201.476 326.422,201.393 326.000,200.734 326.000 C 199.826 326.000,199.771 325.374,200.649 325.037 C 201.127 324.853,201.236 324.478,201.062 323.609 C 200.932 322.961,201.003 322.322,201.220 322.188 C 201.436 322.054,201.501 321.764,201.365 321.544 C 201.229 321.323,201.139 319.130,201.165 316.671 C 201.192 314.212,201.250 309.230,201.294 305.600 C 201.338 301.970,201.230 298.767,201.053 298.482 C 200.876 298.198,200.923 297.734,201.157 297.451 C 201.447 297.102,201.459 296.503,201.194 295.578 C 200.979 294.830,200.889 293.944,200.993 293.609 C 201.097 293.274,201.025 292.751,200.834 292.446 C 200.643 292.142,200.634 291.379,200.814 290.752 C 201.003 290.092,200.984 289.514,200.769 289.381 C 200.564 289.254,200.505 288.722,200.636 288.198 C 200.768 287.674,200.729 287.010,200.550 286.723 C 200.372 286.435,200.200 285.560,200.169 284.778 C 200.137 283.996,199.898 282.957,199.637 282.470 C 199.376 281.982,199.279 281.396,199.421 281.167 C 199.562 280.937,199.377 280.417,199.009 280.010 C 198.641 279.603,198.291 279.029,198.232 278.735 C 197.906 277.105,197.471 276.000,197.157 276.000 C 196.960 276.000,196.800 275.561,196.800 275.024 C 196.800 274.487,196.625 273.939,196.411 273.807 C 196.198 273.675,195.649 272.722,195.192 271.688 C 194.102 269.225,193.030 268.132,191.405 267.827 C 190.675 267.690,189.976 267.313,189.851 266.989 C 189.727 266.665,189.435 266.400,189.203 266.400 C 188.970 266.400,188.031 265.590,187.114 264.600 C 186.198 263.610,185.213 262.800,184.924 262.800 C 184.636 262.800,184.400 262.653,184.400 262.474 C 184.400 261.979,181.405 260.400,180.465 260.400 C 180.011 260.400,179.492 260.136,179.311 259.813 C 178.985 259.230,172.326 257.608,169.686 257.469 C 168.963 257.431,168.243 257.201,168.086 256.958 C 167.702 256.365,163.758 255.454,162.938 255.769 C 162.578 255.906,161.995 255.772,161.642 255.470 C 161.289 255.169,160.129 254.686,159.064 254.399 C 157.999 254.111,157.041 253.651,156.936 253.377 C 156.831 253.103,156.127 252.763,155.372 252.621 C 154.618 252.480,154.000 252.228,154.000 252.062 C 154.000 251.896,153.325 251.518,152.500 251.221 C 151.675 250.924,149.830 249.960,148.400 249.080 C 146.970 248.199,145.417 247.502,144.950 247.531 C 144.452 247.561,143.788 247.152,143.350 246.545 C 142.281 245.065,140.279 243.204,139.753 243.202 C 139.358 243.200,136.486 240.742,133.090 237.500 C 132.457 236.895,131.866 236.400,131.778 236.400 C 131.550 236.400,124.841 229.477,123.400 227.755 C 122.740 226.966,121.525 225.589,120.700 224.694 C 119.875 223.799,119.200 222.976,119.200 222.865 C 119.200 222.754,118.913 222.346,118.563 221.959 C 118.213 221.572,117.628 220.718,117.263 220.061 C 116.898 219.404,115.880 217.901,115.000 216.719 C 112.851 213.834,112.789 213.727,109.971 208.000 C 108.619 205.250,107.282 202.550,107.002 202.000 C 106.722 201.450,106.361 200.370,106.200 199.600 C 106.039 198.830,105.775 198.020,105.614 197.800 C 105.452 197.580,105.113 196.275,104.860 194.900 C 104.607 193.525,104.209 191.365,103.976 190.100 C 103.462 187.314,103.340 185.706,102.997 177.200 C 102.851 173.570,102.657 169.880,102.565 169.000 C 102.473 168.120,102.423 167.130,102.455 166.800 C 102.486 166.470,102.563 159.234,102.626 150.720 C 102.822 124.274,102.941 116.296,103.185 113.490 C 103.314 111.999,103.254 110.614,103.052 110.412 C 102.828 110.188,102.862 109.370,103.139 108.322 C 103.390 107.375,103.697 104.440,103.822 101.800 C 104.130 95.319,105.068 85.252,105.624 82.470 C 105.873 81.221,106.125 79.660,106.183 79.000 C 106.242 78.340,106.604 76.990,106.988 76.000 C 107.372 75.010,107.742 73.786,107.810 73.281 C 107.878 72.775,108.112 72.145,108.331 71.881 C 108.549 71.616,109.612 69.690,110.693 67.600 C 111.774 65.510,113.050 63.170,113.528 62.400 C 114.006 61.630,114.398 60.685,114.399 60.300 C 114.399 59.915,114.670 59.600,115.000 59.600 C 115.330 59.600,115.600 59.433,115.600 59.229 C 115.600 59.024,115.831 58.619,116.114 58.329 C 116.396 58.038,117.108 56.972,117.696 55.959 C 118.284 54.947,119.219 53.687,119.775 53.159 C 120.331 52.632,120.790 52.020,120.794 51.800 C 120.798 51.580,121.332 50.779,121.981 50.021 C 122.629 49.262,123.479 48.047,123.871 47.321 C 124.262 46.594,124.721 46.000,124.891 46.000 C 125.061 46.000,125.200 45.640,125.200 45.200 C 125.200 44.760,125.372 44.400,125.582 44.400 C 125.792 44.400,126.387 43.995,126.903 43.500 C 128.403 42.064,129.695 41.049,131.226 40.105 C 132.011 39.622,132.984 38.860,133.388 38.413 C 133.793 37.966,134.383 37.600,134.700 37.600 C 135.017 37.600,135.841 37.195,136.530 36.700 C 138.512 35.277,147.097 30.876,151.200 29.179 C 152.410 28.679,153.571 28.119,153.780 27.935 C 153.989 27.751,154.419 27.600,154.736 27.600 C 155.053 27.600,155.526 27.307,155.788 26.949 C 156.050 26.590,156.610 26.272,157.032 26.241 C 158.077 26.164,165.550 23.204,165.826 22.758 C 165.948 22.561,166.413 22.400,166.861 22.400 C 167.316 22.400,167.760 22.074,167.868 21.661 C 168.010 21.119,168.327 20.973,169.058 21.113 C 169.607 21.218,171.168 21.023,172.528 20.680 C 177.650 19.387,179.081 19.104,182.000 18.809 C 185.361 18.469,211.821 18.601,214.000 18.969 M227.000 52.400 C 226.864 52.620,225.773 52.800,224.576 52.800 C 223.379 52.800,222.400 52.967,222.400 53.171 C 222.400 53.376,222.097 53.845,221.728 54.215 C 221.098 54.845,221.098 54.911,221.728 55.264 C 222.620 55.763,222.625 57.939,221.734 58.281 C 221.358 58.425,220.181 58.090,219.034 57.512 C 217.915 56.949,216.644 56.368,216.208 56.222 C 214.695 55.712,207.459 54.840,207.031 55.116 C 206.794 55.269,203.540 55.509,199.800 55.651 C 193.429 55.891,189.206 56.525,187.382 57.515 C 185.945 58.296,183.194 59.200,182.259 59.200 C 181.750 59.200,181.208 59.325,181.055 59.478 C 180.902 59.631,180.534 59.792,180.237 59.836 C 179.118 60.000,174.984 61.289,174.600 61.593 C 174.380 61.767,173.480 62.006,172.600 62.122 C 171.720 62.239,170.190 62.542,169.200 62.794 C 168.210 63.047,165.870 63.494,164.000 63.787 C 158.604 64.633,158.848 64.554,153.462 67.235 C 152.396 67.766,151.082 68.605,150.541 69.100 C 150.001 69.595,149.412 70.000,149.233 70.000 C 149.054 70.000,148.451 70.359,147.894 70.798 C 147.208 71.337,146.510 71.530,145.740 71.393 C 144.172 71.114,142.818 72.435,141.016 76.000 C 140.627 76.770,139.899 77.850,139.399 78.400 C 138.899 78.950,138.355 79.845,138.190 80.390 C 138.024 80.934,137.269 82.313,136.511 83.455 C 135.493 84.988,135.107 86.036,135.034 87.465 C 134.980 88.529,134.725 89.793,134.468 90.274 C 134.210 90.754,134.000 91.873,134.000 92.760 C 134.000 93.646,133.723 95.187,133.385 96.184 C 132.929 97.525,132.880 98.202,133.194 98.789 C 133.837 99.991,133.395 104.698,132.384 107.400 C 131.709 109.204,131.499 110.574,131.537 112.915 C 131.576 115.333,131.454 116.081,130.993 116.258 C 130.100 116.601,130.274 117.427,131.546 118.886 C 133.208 120.791,133.373 121.692,132.411 123.579 C 131.693 124.986,131.615 125.646,131.832 128.502 C 131.969 130.316,132.122 133.060,132.171 134.600 C 132.225 136.279,132.529 137.913,132.931 138.680 C 133.330 139.444,133.602 140.896,133.604 142.280 C 133.607 143.556,133.877 145.484,134.204 146.564 C 134.550 147.702,134.804 150.139,134.810 152.364 C 134.815 154.474,135.002 156.920,135.226 157.800 C 135.639 159.426,135.696 159.740,136.445 164.489 C 136.894 167.339,136.644 169.571,135.868 169.644 C 135.611 169.669,135.016 169.659,134.547 169.622 C 133.687 169.555,133.603 171.372,134.075 179.800 C 134.141 180.967,133.620 185.243,133.362 185.662 C 133.054 186.160,133.587 188.400,134.014 188.400 C 134.206 188.400,134.783 188.819,135.295 189.331 L 136.226 190.263 135.257 190.720 C 134.724 190.972,134.133 191.082,133.944 190.965 C 133.499 190.691,133.510 191.092,133.992 192.772 C 134.251 193.674,134.248 194.302,133.983 194.620 C 133.714 194.944,133.731 195.480,134.034 196.251 C 134.282 196.883,134.544 198.480,134.616 199.800 C 134.760 202.432,135.455 205.929,135.965 206.584 C 136.144 206.813,136.408 207.495,136.552 208.100 C 136.697 208.705,136.992 209.200,137.208 209.200 C 137.423 209.200,137.600 209.622,137.600 210.138 C 137.600 210.654,137.960 211.402,138.400 211.800 C 138.840 212.198,139.200 212.703,139.200 212.921 C 139.200 213.450,141.909 216.753,143.344 217.973 C 143.973 218.508,144.725 219.183,145.015 219.473 C 145.306 219.763,145.708 220.000,145.909 220.000 C 146.111 220.000,146.619 220.379,147.038 220.843 C 147.922 221.821,150.699 223.279,153.000 223.973 C 153.880 224.239,155.009 224.656,155.508 224.900 C 156.173 225.225,156.535 225.225,156.859 224.901 C 157.305 224.455,158.110 224.733,159.600 225.849 C 160.312 226.382,164.342 227.430,165.200 227.305 C 165.530 227.258,166.160 227.388,166.600 227.596 C 167.040 227.804,168.930 228.254,170.800 228.595 C 172.670 228.937,174.470 229.275,174.800 229.346 C 175.790 229.559,181.198 230.026,184.374 230.174 C 186.229 230.260,187.939 230.104,188.917 229.759 C 189.779 229.454,190.611 229.283,190.764 229.378 C 190.918 229.473,191.843 229.355,192.822 229.116 C 193.800 228.877,197.891 228.663,201.914 228.641 C 206.743 228.614,209.325 228.451,209.514 228.161 C 209.671 227.919,210.584 227.599,211.542 227.449 C 212.500 227.300,213.850 226.875,214.542 226.505 C 215.234 226.136,215.950 225.826,216.132 225.817 C 216.315 225.808,216.675 225.530,216.932 225.200 C 217.190 224.870,218.043 224.303,218.829 223.940 C 220.651 223.099,223.867 220.327,225.345 218.323 C 225.975 217.470,227.155 216.079,227.967 215.234 C 228.780 214.388,229.667 212.955,229.938 212.048 C 230.210 211.142,230.605 210.400,230.816 210.400 C 231.027 210.400,231.200 210.158,231.200 209.862 C 231.200 209.566,231.560 208.998,232.000 208.600 C 232.440 208.202,232.800 207.625,232.800 207.317 C 232.800 207.010,233.150 206.093,233.577 205.279 C 234.676 203.187,236.000 200.083,236.000 199.599 C 236.000 199.374,236.171 198.877,236.379 198.495 C 236.916 197.511,238.271 192.638,238.797 189.800 C 239.041 188.480,239.401 187.040,239.596 186.600 C 240.272 185.074,241.266 181.043,241.610 178.428 C 242.144 174.378,242.786 171.173,243.230 170.344 C 243.452 169.930,243.706 168.249,243.796 166.608 C 243.885 164.967,244.133 163.300,244.345 162.902 C 244.727 162.188,245.384 158.913,245.770 155.800 C 245.879 154.920,246.259 152.490,246.614 150.400 C 246.969 148.310,247.326 146.117,247.408 145.526 C 247.489 144.935,247.745 143.405,247.976 142.126 C 248.207 140.847,248.492 139.170,248.610 138.400 C 248.729 137.630,248.912 136.550,249.018 136.000 C 249.707 132.424,250.710 121.039,250.815 115.600 C 250.923 109.998,250.917 109.920,250.420 109.612 C 250.088 109.407,250.113 109.204,250.512 108.873 C 251.375 108.157,251.116 82.990,250.200 78.617 C 249.504 75.292,248.045 72.187,246.754 71.283 C 246.213 70.904,246.067 70.473,246.242 69.776 C 246.391 69.181,246.314 68.800,246.043 68.800 C 245.800 68.800,245.600 68.516,245.600 68.169 C 245.600 67.822,245.105 67.043,244.500 66.438 C 243.895 65.833,242.906 64.690,242.302 63.899 C 240.542 61.591,236.996 58.000,236.477 58.000 C 236.215 58.000,236.000 57.822,236.000 57.605 C 236.000 57.174,233.176 54.428,232.714 54.411 C 232.557 54.405,231.576 53.860,230.536 53.200 C 228.586 51.963,227.431 51.702,227.000 52.400 M208.400 361.000 C 208.400 363.603,208.504 365.629,208.631 365.503 C 208.758 365.376,208.862 363.349,208.862 361.000 C 208.862 358.651,208.758 356.624,208.631 356.497 C 208.504 356.371,208.400 358.397,208.400 361.000 " stroke="none" fill="transparent" fill-rule="evenodd"></path></g></svg>