<svg id="svg" version="1.1" xmlns="http://www.w3.org/2000/svg" xmlns:xlink="http://www.w3.org/1999/xlink" width="400" height="400" viewBox="0, 0, 400,400"><g id="svgg"><path id="path0" d="M184.860 85.642 C 182.803 86.074,178.663 87.394,175.660 88.575 C 172.657 89.756,169.210 91.024,168.000 91.394 C 150.545 96.726,133.538 106.520,123.793 116.849 C 106.940 134.714,98.853 151.390,95.593 175.000 C 93.596 189.459,95.023 225.166,98.178 239.728 C 102.408 259.244,105.102 267.024,111.705 278.788 C 120.794 294.980,131.901 305.894,143.800 310.325 C 157.259 315.338,168.667 316.454,193.865 315.224 C 210.552 314.410,215.633 313.357,243.214 304.992 C 256.950 300.826,267.461 295.213,273.095 289.034 C 275.001 286.944,275.673 286.079,281.206 278.600 C 282.833 276.400,286.425 272.260,289.187 269.400 C 298.469 259.789,301.374 253.512,303.186 239.142 C 303.755 234.633,303.738 202.856,303.165 199.096 C 301.648 189.146,293.911 173.604,284.258 161.116 C 282.437 158.760,278.996 153.540,276.612 149.516 C 263.197 126.872,231.658 93.782,218.744 88.802 C 209.369 85.187,193.900 83.744,184.860 85.642 M207.400 106.958 C 212.225 108.282,214.101 109.524,222.028 116.637 C 230.168 123.943,232.626 126.471,242.323 137.511 C 251.421 147.868,254.300 151.800,260.401 162.200 C 261.562 164.180,264.523 168.860,266.979 172.600 C 271.445 179.399,272.511 181.363,275.027 187.439 C 281.065 202.020,280.514 225.771,273.821 239.400 C 265.072 257.215,244.997 279.040,230.446 286.555 C 216.609 293.701,179.829 296.070,164.400 290.809 C 149.903 285.865,147.745 284.039,137.209 267.800 C 132.180 260.048,124.247 244.469,121.120 236.200 C 115.909 222.422,113.848 201.709,115.588 180.585 C 118.020 151.051,136.562 125.022,160.466 117.587 C 170.657 114.417,181.032 111.134,186.524 109.342 C 195.641 106.368,202.424 105.593,207.400 106.958 " stroke="none" fill="#EC791A" fill-rule="evenodd"></path><path id="path1" d="M0.000 200.000 L 0.000 400.000 200.000 400.000 L 400.000 400.000 400.000 200.000 L 400.000 0.000 200.000 0.000 L 0.000 0.000 0.000 200.000 M203.737 85.413 C 217.767 86.887,222.697 89.269,234.697 100.372 C 254.558 118.749,267.088 133.440,276.612 149.516 C 278.996 153.540,282.437 158.760,284.258 161.116 C 293.911 173.604,301.648 189.146,303.165 199.096 C 303.738 202.856,303.755 234.633,303.186 239.142 C 301.374 253.512,298.469 259.789,289.187 269.400 C 286.425 272.260,282.833 276.400,281.206 278.600 C 275.673 286.079,275.001 286.944,273.095 289.034 C 267.461 295.213,256.950 300.826,243.214 304.992 C 215.633 313.357,210.552 314.410,193.865 315.224 C 168.667 316.454,157.259 315.338,143.800 310.325 C 131.901 305.894,120.794 294.980,111.705 278.788 C 105.102 267.024,102.408 259.244,98.178 239.728 C 95.023 225.166,93.596 189.459,95.593 175.000 C 98.853 151.390,106.940 134.714,123.793 116.849 C 133.538 106.520,150.545 96.726,168.000 91.394 C 169.210 91.024,172.657 89.756,175.660 88.575 C 185.226 84.812,191.396 84.117,203.737 85.413 M194.524 107.002 C 193.161 107.298,189.561 108.351,186.524 109.342 C 181.032 111.134,170.657 114.417,160.466 117.587 C 136.562 125.022,118.020 151.051,115.588 180.585 C 114.080 198.893,115.434 217.038,119.349 231.000 C 123.269 244.980,139.429 273.899,148.112 282.472 C 151.425 285.743,155.178 287.664,164.400 290.809 C 179.829 296.070,216.609 293.701,230.446 286.555 C 244.997 279.040,265.072 257.215,273.821 239.400 C 280.514 225.771,281.065 202.020,275.027 187.439 C 272.511 181.363,271.445 179.399,266.979 172.600 C 264.523 168.860,261.562 164.180,260.401 162.200 C 253.494 150.427,247.749 143.032,234.006 128.225 C 226.075 119.679,214.921 109.934,211.200 108.298 C 206.760 106.347,199.968 105.819,194.524 107.002 " stroke="none" fill="transparent" fill-rule="evenodd"></path></g></svg>