<svg id="svg" version="1.1" xmlns="http://www.w3.org/2000/svg" xmlns:xlink="http://www.w3.org/1999/xlink" width="400" height="400" viewBox="0, 0, 400,400"><g id="svgg"><path id="path0" d="M142.593 63.357 C 135.780 66.326,133.750 84.106,136.616 115.703 C 138.070 131.731,138.717 144.485,139.014 163.000 C 139.138 170.700,139.429 178.620,139.662 180.600 C 139.936 182.930,140.095 201.132,140.112 232.200 C 140.158 316.859,140.227 318.853,143.317 325.360 C 147.036 333.191,153.641 335.186,158.684 330.001 C 162.190 326.397,162.511 323.902,162.225 302.523 C 161.677 261.558,161.550 208.871,161.995 207.218 C 163.520 201.555,170.438 203.476,194.600 216.271 C 209.824 224.334,220.626 243.474,233.612 285.400 C 235.179 290.460,237.437 297.750,238.630 301.600 C 239.822 305.450,241.246 310.850,241.794 313.600 C 242.342 316.350,242.976 319.500,243.203 320.600 C 245.219 330.387,254.527 333.887,259.878 326.871 C 264.630 320.641,263.442 309.391,255.585 286.200 C 253.796 280.920,250.649 271.552,248.593 265.382 C 243.915 251.351,238.133 237.491,233.975 230.346 C 226.599 217.670,218.653 207.811,211.761 202.780 C 210.419 201.801,207.968 200.024,206.314 198.832 C 201.387 195.279,201.414 194.302,206.509 191.757 C 213.822 188.105,218.885 183.751,221.937 178.490 C 234.596 156.674,236.442 140.339,229.046 115.583 C 227.630 110.844,225.998 104.667,225.420 101.857 C 222.312 86.774,211.668 77.432,192.591 73.046 C 183.586 70.975,181.414 70.733,169.200 70.444 C 155.676 70.123,155.477 70.075,152.441 66.449 C 149.703 63.179,145.808 61.956,142.593 63.357 M178.214 91.820 C 184.118 93.358,198.962 104.653,203.210 110.840 C 212.122 123.819,215.542 143.899,210.613 154.302 C 207.956 159.909,200.722 166.049,191.400 170.607 C 180.699 175.841,162.336 175.773,160.129 170.492 C 159.377 168.693,158.602 138.384,158.935 123.800 C 159.050 118.740,158.949 110.160,158.710 104.733 C 158.223 93.671,158.358 92.730,160.568 91.768 C 162.413 90.964,175.072 91.002,178.214 91.820 " stroke="none" fill="#EC791A" fill-rule="evenodd"></path><path id="path1" d="M0.000 200.000 L 0.000 400.000 200.000 400.000 L 400.000 400.000 400.000 200.000 L 400.000 0.000 200.000 0.000 L 0.000 0.000 0.000 200.000 M149.061 63.630 C 150.004 64.086,151.525 65.355,152.441 66.449 C 155.477 70.075,155.676 70.123,169.200 70.444 C 181.414 70.733,183.586 70.975,192.591 73.046 C 211.668 77.432,222.312 86.774,225.420 101.857 C 225.998 104.667,227.630 110.844,229.046 115.583 C 235.541 137.323,234.966 151.616,226.912 168.600 C 220.082 183.005,216.977 186.529,206.509 191.757 C 201.414 194.302,201.387 195.279,206.314 198.832 C 207.968 200.024,210.419 201.801,211.761 202.780 C 218.653 207.811,226.599 217.670,233.975 230.346 C 238.133 237.491,243.915 251.351,248.593 265.382 C 250.649 271.552,253.796 280.920,255.585 286.200 C 263.442 309.391,264.630 320.641,259.878 326.871 C 254.527 333.887,245.219 330.387,243.203 320.600 C 242.976 319.500,242.342 316.350,241.794 313.600 C 241.246 310.850,239.822 305.450,238.630 301.600 C 237.437 297.750,235.179 290.460,233.612 285.400 C 220.626 243.474,209.824 224.334,194.600 216.271 C 170.438 203.476,163.520 201.555,161.995 207.218 C 161.550 208.871,161.677 261.558,162.225 302.523 C 162.511 323.902,162.190 326.397,158.684 330.001 C 153.641 335.186,147.036 333.191,143.317 325.360 C 140.227 318.853,140.158 316.859,140.112 232.200 C 140.095 201.132,139.936 182.930,139.662 180.600 C 139.429 178.620,139.138 170.700,139.014 163.000 C 138.717 144.485,138.070 131.731,136.616 115.703 C 133.008 75.921,137.305 57.939,149.061 63.630 M160.568 91.768 C 158.358 92.730,158.223 93.671,158.710 104.733 C 158.949 110.160,159.050 118.740,158.935 123.800 C 158.602 138.384,159.377 168.693,160.129 170.492 C 162.336 175.773,180.699 175.841,191.400 170.607 C 203.440 164.719,210.818 157.209,212.431 149.200 C 215.023 136.328,208.594 115.286,199.336 106.344 C 192.859 100.087,182.435 92.920,178.214 91.820 C 175.072 91.002,162.413 90.964,160.568 91.768 " stroke="none" fill="transparent" fill-rule="evenodd"></path></g></svg>