<svg id="svg" version="1.1" xmlns="http://www.w3.org/2000/svg" xmlns:xlink="http://www.w3.org/1999/xlink" width="400" height="388.83415435139574" viewBox="0, 0, 400,388.83415435139574"><g id="svgg"><path id="path0" d="M126.730 82.677 C 126.623 83.423,126.856 88.163,127.094 90.106 C 127.522 93.597,127.259 93.809,124.154 92.469 C 121.947 91.517,121.511 91.654,121.511 93.303 C 121.511 94.662,121.200 94.901,120.512 94.073 C 119.992 93.446,118.703 93.579,118.763 94.253 C 118.786 94.524,118.913 95.152,119.045 95.649 C 119.270 96.504,119.224 96.552,118.165 96.552 C 117.293 96.552,116.764 96.841,115.764 97.865 C 114.262 99.403,114.066 99.448,113.574 98.368 C 113.253 97.665,113.309 97.471,113.991 96.918 C 115.311 95.848,114.427 95.765,112.913 96.817 C 111.310 97.930,110.003 99.288,108.355 101.551 C 107.600 102.587,107.061 103.039,106.732 102.911 C 105.458 102.414,105.257 102.599,105.087 104.433 C 104.917 106.268,104.533 107.072,101.164 112.654 C 100.343 114.014,98.793 117.044,97.719 119.386 C 96.645 121.729,95.746 123.683,95.720 123.728 C 95.695 123.774,92.731 122.683,89.134 121.304 C 69.051 113.602,67.952 115.510,86.946 125.101 L 94.252 128.791 94.071 131.144 C 93.790 134.790,93.620 135.553,93.040 135.775 C 92.629 135.933,92.592 136.073,92.884 136.365 C 93.483 136.964,93.341 137.655,92.420 138.616 C 91.953 139.103,91.715 139.589,91.890 139.698 C 92.065 139.806,92.391 139.674,92.614 139.405 C 93.344 138.525,93.503 138.879,93.681 141.790 C 93.818 144.016,94.118 145.329,95.016 147.619 L 96.174 150.575 94.376 150.674 C 91.619 150.825,91.831 152.003,95.392 156.320 L 96.880 158.123 96.880 167.576 L 96.880 177.028 95.911 176.527 C 93.838 175.455,93.676 176.234,95.570 178.164 L 96.887 179.506 96.801 194.105 L 96.716 208.703 96.090 205.255 C 95.671 202.952,95.399 199.487,95.269 194.825 C 95.148 190.511,94.948 187.848,94.745 187.854 C 93.776 187.880,94.788 203.247,96.140 209.031 C 96.518 210.646,96.707 213.284,96.778 217.898 L 96.878 224.466 95.937 222.319 C 94.726 219.553,94.038 217.099,93.757 214.533 C 93.620 213.289,93.402 212.561,93.202 212.685 C 92.332 213.222,93.833 219.505,95.977 224.302 C 96.662 225.833,96.816 226.808,96.988 230.706 C 97.475 241.690,101.073 253.150,105.444 257.635 C 107.268 259.507,111.507 264.778,114.533 268.935 C 120.298 276.858,123.993 278.911,134.421 279.982 C 136.432 280.189,136.827 280.356,138.324 281.634 C 140.812 283.758,141.986 284.036,149.499 284.287 L 156.034 284.506 156.685 285.783 C 157.782 287.933,158.933 287.773,158.944 285.468 C 158.950 284.112,161.351 283.903,163.353 285.084 C 163.990 285.459,164.774 285.711,165.096 285.643 C 165.566 285.544,165.487 285.412,164.696 284.973 L 163.711 284.427 166.010 284.424 C 167.526 284.422,168.526 284.586,168.946 284.904 C 169.831 285.573,170.673 285.566,170.115 284.893 C 169.756 284.461,170.122 284.401,173.112 284.402 L 176.519 284.404 178.114 287.539 C 181.304 293.808,182.093 293.951,182.432 288.320 L 182.667 284.401 201.146 284.401 C 216.546 284.401,219.814 284.480,220.764 284.877 C 221.725 285.279,222.003 285.284,222.537 284.910 C 223.031 284.564,225.944 284.430,235.805 284.300 C 250.653 284.104,253.808 283.653,262.382 280.496 C 263.908 279.934,265.446 279.475,265.799 279.475 C 266.373 279.475,268.179 279.008,276.026 276.834 C 283.779 274.685,290.469 271.993,290.822 270.880 C 290.930 270.541,291.857 269.835,292.882 269.311 C 295.844 267.797,299.126 262.608,299.851 258.292 C 300.064 257.028,300.750 254.391,301.376 252.433 L 302.515 248.873 302.372 241.267 C 302.293 237.084,302.046 230.858,301.823 227.432 C 301.531 222.950,301.518 221.169,301.776 221.083 C 302.270 220.918,302.226 220.320,301.587 218.484 C 301.095 217.069,301.049 214.763,301.124 195.320 C 301.179 181.377,301.095 173.727,300.887 173.727 C 300.694 173.727,300.476 170.994,300.342 166.913 C 299.301 135.018,298.086 130.159,288.500 119.555 C 287.120 118.029,285.761 116.329,285.480 115.779 C 279.897 104.828,271.637 97.940,259.934 94.478 C 257.225 93.676,254.122 92.684,253.038 92.272 C 251.141 91.552,250.526 91.514,236.617 91.259 C 216.149 90.883,207.821 90.296,206.541 89.138 C 205.973 88.624,205.869 88.622,205.110 89.119 C 203.943 89.884,181.815 89.914,180.808 89.152 C 180.009 88.548,178.736 88.552,177.668 89.163 C 176.140 90.036,167.942 89.844,167.703 88.929 L 167.513 88.203 166.693 88.973 C 165.819 89.795,162.896 89.836,162.627 89.031 C 162.561 88.832,162.236 88.670,161.904 88.670 C 161.572 88.670,160.371 88.432,159.234 88.141 C 155.792 87.259,152.032 87.604,149.409 89.042 C 148.244 89.681,146.626 90.295,145.813 90.405 L 144.335 90.607 144.437 86.649 C 144.518 83.497,144.451 82.720,144.109 82.834 C 143.539 83.023,143.272 84.370,143.224 87.282 C 143.188 89.512,143.131 89.692,142.365 89.984 C 141.913 90.155,141.544 90.444,141.544 90.625 C 141.544 91.051,140.302 91.821,139.210 92.074 C 138.220 92.302,137.627 91.284,136.630 87.640 C 135.940 85.120,135.097 84.532,135.406 86.786 C 135.594 88.151,135.557 88.260,134.964 88.105 C 134.364 87.948,134.319 88.112,134.319 90.419 C 134.319 93.048,134.102 93.449,132.853 93.136 C 131.758 92.861,129.201 88.720,128.380 85.893 C 128.010 84.620,127.634 83.321,127.543 83.005 C 127.379 82.436,126.798 82.201,126.730 82.677 M129.064 89.985 C 129.064 90.388,128.151 91.023,127.981 90.738 C 127.895 90.594,127.733 89.516,127.620 88.342 L 127.415 86.207 128.239 87.973 C 128.693 88.945,129.064 89.850,129.064 89.985 M159.338 88.875 C 159.778 89.151,158.728 89.440,155.713 89.872 C 154.255 90.081,153.711 89.765,153.700 88.705 C 153.694 88.200,158.491 88.345,159.338 88.875 M151.396 89.655 C 151.166 90.085,150.708 90.312,150.071 90.312 C 148.862 90.312,148.847 90.140,150.000 89.515 C 151.327 88.795,151.829 88.845,151.396 89.655 M153.152 89.480 C 153.360 90.022,152.876 90.454,152.395 90.157 C 152.047 89.941,152.302 88.998,152.709 88.998 C 152.851 88.998,153.051 89.215,153.152 89.480 M136.265 92.326 C 136.278 92.441,135.993 92.612,135.632 92.706 C 135.036 92.862,134.978 92.721,135.000 91.184 L 135.024 89.491 135.632 90.805 C 135.967 91.527,136.251 92.212,136.265 92.326 M130.316 91.941 C 131.291 93.260,131.230 93.511,129.834 93.897 C 128.310 94.317,127.963 94.093,128.212 92.849 C 128.614 90.840,129.287 90.549,130.316 91.941 M251.858 93.786 L 255.276 95.074 251.788 95.167 C 248.470 95.256,248.109 95.196,244.429 93.957 C 242.300 93.240,240.189 92.581,239.737 92.493 C 239.286 92.405,241.059 92.370,243.678 92.415 C 248.326 92.495,248.522 92.528,251.858 93.786 M253.859 93.343 C 254.672 93.689,256.876 94.404,258.757 94.933 C 260.638 95.461,262.263 95.986,262.369 96.099 C 262.475 96.212,262.266 96.221,261.905 96.119 C 261.544 96.016,260.509 95.830,259.606 95.704 C 258.240 95.515,251.117 92.895,250.575 92.384 C 250.272 92.096,252.371 92.710,253.859 93.343 M123.374 92.866 C 123.837 93.160,123.483 95.292,122.942 95.473 C 122.616 95.581,122.167 94.184,122.167 93.062 C 122.167 92.572,122.760 92.475,123.374 92.866 M125.629 94.275 C 125.896 94.707,125.791 94.816,124.971 94.961 C 124.561 95.033,124.283 94.864,124.208 94.499 C 124.075 93.854,125.254 93.668,125.629 94.275 M121.172 95.629 C 121.198 96.201,120.381 96.262,119.983 95.718 C 119.213 94.666,119.427 94.140,120.351 94.812 C 120.797 95.137,121.166 95.504,121.172 95.629 M258.238 96.624 C 258.570 96.794,258.761 97.013,258.664 97.111 C 258.398 97.377,254.187 96.521,254.187 96.202 C 254.187 95.862,257.409 96.198,258.238 96.624 M252.053 96.552 L 252.709 96.834 252.053 96.852 C 251.691 96.862,251.174 96.727,250.903 96.552 C 250.250 96.130,251.071 96.130,252.053 96.552 M264.122 97.234 C 265.341 97.438,266.338 97.682,266.338 97.777 C 266.338 98.127,261.571 97.468,260.766 97.007 L 259.934 96.530 260.920 96.697 C 261.461 96.789,262.902 97.031,264.122 97.234 M257.399 98.255 C 258.171 98.452,258.747 98.670,258.677 98.739 C 258.519 98.898,252.909 98.011,252.691 97.792 C 252.428 97.530,255.882 97.869,257.399 98.255 M262.069 98.708 C 263.649 99.519,265.302 100.921,264.368 100.656 C 263.439 100.394,259.442 98.244,259.442 98.007 C 259.442 97.776,261.133 98.227,262.069 98.708 M112.460 99.382 C 112.723 100.431,112.678 100.480,111.119 100.832 C 109.488 101.199,109.454 101.111,110.687 99.706 C 111.926 98.295,112.176 98.249,112.460 99.382 M268.488 99.219 C 269.380 99.651,274.049 105.042,273.771 105.320 C 273.639 105.453,267.044 101.225,264.532 99.397 L 263.218 98.441 265.385 98.604 C 266.577 98.694,267.973 98.970,268.488 99.219 M258.960 99.862 C 261.133 100.429,264.585 101.763,262.726 101.317 C 257.956 100.174,254.894 99.378,254.351 99.139 C 253.358 98.701,256.251 99.155,258.960 99.862 M133.005 100.107 C 133.005 100.762,129.856 102.791,128.840 102.791 C 128.154 102.791,131.890 99.858,132.594 99.844 C 132.820 99.839,133.005 99.958,133.005 100.107 M142.425 100.550 C 143.712 101.758,143.380 102.049,137.278 105.062 C 130.489 108.414,125.472 111.664,121.576 115.235 C 116.124 120.233,114.662 121.048,117.507 117.502 C 121.568 112.440,125.552 108.955,127.132 109.081 L 128.571 109.195 128.672 107.809 C 128.828 105.654,135.703 101.032,140.025 100.176 C 140.770 100.028,141.444 99.892,141.522 99.872 C 141.601 99.852,142.007 100.157,142.425 100.550 M276.074 104.516 C 279.754 108.259,281.319 110.238,283.542 113.957 C 285.108 116.576,280.219 111.177,273.122 102.449 C 270.571 99.310,271.810 100.179,276.074 104.516 M111.658 101.740 C 111.658 102.499,109.050 104.536,108.826 103.952 C 108.701 103.626,108.747 103.120,108.929 102.829 C 109.498 101.917,111.658 101.055,111.658 101.740 M260.215 102.708 C 261.505 103.385,263.522 104.663,264.696 105.547 C 267.246 107.468,267.919 108.104,266.338 107.099 C 265.706 106.697,264.819 106.213,264.368 106.023 C 261.961 105.011,258.831 103.248,257.970 102.420 C 256.638 101.138,257.409 101.237,260.215 102.708 M194.089 101.937 C 194.089 101.977,193.645 103.224,193.103 104.709 C 190.910 110.718,193.159 110.936,197.408 105.127 L 199.836 101.809 221.043 101.807 C 242.029 101.806,247.747 102.027,250.676 102.949 L 252.053 103.383 250.493 103.416 C 248.243 103.463,248.573 103.984,250.985 104.193 C 253.259 104.390,261.464 107.508,263.215 108.840 C 263.759 109.254,264.805 109.899,265.540 110.274 C 268.656 111.861,277.904 124.832,276.746 125.991 C 276.648 126.089,276.324 125.699,276.026 125.123 C 274.624 122.411,275.375 124.826,276.961 128.125 C 279.375 133.150,279.475 134.290,279.475 157.059 L 279.475 175.088 280.332 176.552 C 281.504 178.551,281.748 179.727,282.099 185.057 C 282.265 187.586,282.633 192.020,282.915 194.910 C 283.198 197.800,283.522 201.494,283.636 203.120 C 283.939 207.429,283.862 231.380,283.524 238.177 L 283.235 244.005 281.601 245.487 C 278.987 247.858,277.993 248.252,274.006 248.496 C 270.300 248.723,268.353 249.451,268.323 250.620 C 268.315 250.916,267.644 251.833,266.831 252.657 C 265.520 253.987,265.009 254.844,265.528 254.844 C 265.625 254.844,266.235 254.312,266.885 253.663 C 267.794 252.754,268.131 252.583,268.347 252.924 C 268.777 253.603,268.710 262.642,268.272 262.913 C 267.703 263.265,263.631 263.746,258.949 264.016 C 256.266 264.170,254.131 264.470,253.202 264.824 C 251.760 265.372,251.713 265.369,251.274 264.713 C 250.557 263.641,249.261 263.818,249.261 264.987 C 249.261 266.032,249.358 266.006,243.509 266.530 L 241.205 266.736 240.247 264.731 C 238.918 261.952,238.095 261.939,238.095 264.696 L 238.095 266.667 233.681 266.667 C 231.093 266.667,229.183 266.531,229.064 266.338 C 228.791 265.896,227.717 265.923,226.968 266.390 C 226.356 266.773,225.920 266.679,224.896 265.944 C 224.447 265.621,224.222 265.652,223.721 266.106 C 223.184 266.592,222.294 266.667,217.051 266.669 C 213.724 266.670,210.115 266.818,209.031 266.999 C 207.174 267.309,207.033 267.286,206.568 266.595 C 202.314 260.261,198.130 260.855,192.048 268.658 C 190.006 271.279,189.433 271.597,186.338 271.832 L 184.006 272.009 182.971 269.522 C 182.401 268.155,181.627 265.697,181.250 264.060 C 180.392 260.330,180.028 260.315,178.743 263.957 C 178.185 265.538,177.235 268.061,176.631 269.564 L 175.534 272.298 172.906 272.113 C 167.629 271.743,164.102 270.968,158.621 268.971 C 153.591 267.140,152.241 266.732,150.411 266.493 C 149.110 266.323,148.302 265.993,147.526 265.312 C 146.932 264.793,146.199 264.368,145.896 264.368 C 145.512 264.368,145.689 264.663,146.482 265.344 L 147.619 266.321 146.470 266.144 C 145.837 266.047,144.322 265.739,143.103 265.460 L 140.886 264.954 139.819 262.956 C 138.504 260.494,137.507 259.941,138.729 262.351 C 139.805 264.475,139.830 264.415,138.106 263.828 C 137.115 263.490,135.060 261.981,131.763 259.168 C 129.081 256.880,125.768 254.096,124.399 252.981 C 121.307 250.461,120.692 249.657,118.007 244.610 C 114.630 238.262,113.307 233.843,111.337 222.332 C 110.738 218.830,110.300 216.698,109.753 214.614 C 109.102 212.131,108.784 142.440,109.406 138.424 C 110.243 133.021,114.259 122.870,115.103 124.024 C 115.443 124.489,115.530 124.375,115.714 123.226 C 115.990 121.500,116.687 120.959,121.839 118.474 C 134.806 112.221,137.464 110.848,140.953 108.606 C 143.067 107.248,146.064 105.216,147.613 104.091 C 149.162 102.965,150.515 102.130,150.620 102.235 C 150.897 102.512,152.274 111.076,152.504 113.957 L 152.700 116.420 150.553 114.182 C 149.371 112.951,148.236 112.000,148.030 112.069 C 147.602 112.212,152.576 117.675,153.291 117.846 C 153.645 117.931,153.713 117.731,153.569 117.025 C 153.464 116.512,153.226 114.540,153.039 112.644 C 152.853 110.747,152.430 107.609,152.098 105.670 C 151.767 103.730,151.578 102.062,151.677 101.962 C 151.843 101.797,194.089 101.772,194.089 101.937 M198.686 102.015 C 198.686 102.129,197.716 103.527,196.530 105.119 C 192.774 110.164,191.852 109.312,194.456 103.202 L 195.051 101.806 196.868 101.806 C 197.868 101.806,198.686 101.900,198.686 102.015 M263.566 102.888 C 264.594 103.428,267.653 106.404,267.179 106.404 C 267.025 106.404,266.292 105.908,265.551 105.301 C 264.810 104.694,263.428 103.721,262.479 103.138 C 261.531 102.555,260.755 102.027,260.755 101.965 C 260.755 101.768,262.562 102.361,263.566 102.888 M146.619 103.609 C 142.187 107.031,129.115 114.447,128.537 113.868 C 128.417 113.748,142.007 104.861,143.717 103.941 C 144.389 103.580,145.225 103.010,145.575 102.674 C 146.158 102.116,146.256 102.108,146.736 102.589 C 147.217 103.069,147.207 103.155,146.619 103.609 M267.041 102.810 C 267.650 103.341,267.675 103.413,267.159 103.149 C 266.045 102.580,265.499 102.145,265.891 102.140 C 266.097 102.137,266.614 102.439,267.041 102.810 M140.887 104.830 C 139.171 105.944,134.429 109.030,130.349 111.688 C 126.269 114.345,122.131 116.910,121.154 117.388 L 119.376 118.256 121.839 115.946 C 125.301 112.697,130.732 109.136,137.350 105.775 C 144.092 102.351,145.132 102.073,140.887 104.830 M106.404 103.941 C 106.404 104.212,106.256 104.433,106.076 104.433 C 105.895 104.433,105.747 104.212,105.747 103.941 C 105.747 103.670,105.895 103.448,106.076 103.448 C 106.256 103.448,106.404 103.670,106.404 103.941 M271.749 105.085 C 274.010 106.610,274.894 107.389,274.366 107.389 C 274.014 107.389,269.752 104.493,269.297 103.944 C 268.587 103.089,269.243 103.394,271.749 105.085 M107.929 104.932 C 108.131 105.458,107.504 107.280,107.017 107.580 C 106.402 107.960,106.034 106.023,106.567 105.210 C 107.152 104.317,107.654 104.215,107.929 104.932 M273.039 108.484 C 275.139 110.516,275.388 110.844,274.220 110.042 C 271.992 108.512,267.850 104.564,269.262 105.316 C 269.877 105.644,271.576 107.069,273.039 108.484 M270.685 108.141 C 271.817 109.096,273.966 110.805,275.462 111.940 C 278.206 114.021,279.335 115.363,280.303 117.695 C 280.814 118.925,277.712 116.063,276.757 114.423 C 276.617 114.183,274.895 112.645,272.929 111.006 C 269.861 108.447,267.878 106.404,268.461 106.404 C 268.553 106.404,269.554 107.185,270.685 108.141 M106.070 108.210 C 106.072 108.571,105.546 109.743,104.900 110.814 C 102.579 114.663,99.797 120.980,99.008 124.193 C 98.781 125.118,97.053 124.970,96.678 123.993 C 96.446 123.390,100.241 115.586,103.036 110.919 C 105.445 106.894,106.058 106.347,106.070 108.210 M128.079 107.882 C 128.079 108.165,127.782 108.374,127.382 108.374 C 126.799 108.374,126.752 108.293,127.094 107.882 C 127.318 107.611,127.632 107.389,127.791 107.389 C 127.949 107.389,128.079 107.611,128.079 107.882 M275.847 109.506 C 276.571 110.379,275.693 110.065,274.852 109.151 C 274.142 108.378,274.129 108.323,274.740 108.640 C 275.116 108.836,275.614 109.225,275.847 109.506 M120.525 112.004 C 118.090 114.246,116.534 115.305,117.898 113.792 C 118.759 112.837,122.213 110.009,122.496 110.028 C 122.586 110.033,121.700 110.923,120.525 112.004 M279.182 111.548 C 279.880 112.307,282.541 116.913,282.281 116.913 C 282.196 116.913,279.411 113.440,278.092 111.690 C 276.587 109.692,277.380 109.589,279.182 111.548 M276.345 115.599 C 276.938 116.412,277.798 117.824,278.257 118.736 C 278.750 119.716,279.445 120.556,279.956 120.789 C 280.774 121.162,282.078 123.385,282.095 124.436 C 282.101 124.867,280.730 123.091,277.176 118.062 C 276.363 116.912,275.137 115.214,274.452 114.288 L 273.207 112.603 274.237 113.362 C 274.803 113.780,275.752 114.787,276.345 115.599 M288.024 121.270 C 288.831 122.815,288.964 123.358,288.743 124.209 L 288.473 125.253 287.537 124.080 C 287.023 123.435,285.583 120.931,284.337 118.515 L 282.073 114.122 284.554 116.749 C 285.918 118.194,287.480 120.229,288.024 121.270 M78.201 118.213 C 82.008 119.308,94.350 123.907,95.121 124.519 C 95.446 124.777,94.935 127.506,94.476 127.966 C 94.291 128.150,78.046 119.731,76.437 118.618 C 74.916 117.565,74.420 116.996,75.328 117.344 C 75.575 117.439,76.869 117.830,78.201 118.213 M283.443 120.647 L 284.204 122.003 283.399 121.477 C 282.661 120.994,281.166 118.509,281.148 117.734 C 281.137 117.262,282.550 119.055,283.443 120.647 M114.943 118.167 C 114.943 118.592,112.631 121.182,112.252 121.182 C 111.876 121.182,112.685 119.788,113.730 118.637 C 114.411 117.886,114.943 117.680,114.943 118.167 M280.124 119.622 C 280.128 119.758,280.007 119.869,279.856 119.869 C 279.588 119.869,278.810 118.431,278.825 117.965 C 278.835 117.665,280.114 119.298,280.124 119.622 M292.220 125.394 C 298.043 133.916,298.985 139.408,299.398 167.241 C 299.557 177.989,299.671 180.296,300.042 180.296 C 300.418 180.296,300.489 182.798,300.470 195.320 C 300.457 204.169,300.330 210.075,300.162 209.688 C 300.004 209.327,299.280 204.672,298.553 199.343 L 297.231 189.655 297.075 175.862 C 296.958 165.461,296.799 161.463,296.428 159.606 C 296.158 158.251,295.775 154.187,295.577 150.575 C 294.816 136.712,293.699 130.930,290.538 124.471 C 289.146 121.626,289.140 121.609,289.747 122.110 C 290.036 122.349,291.149 123.826,292.220 125.394 M284.652 123.224 C 285.330 124.041,289.159 134.924,288.871 135.213 C 288.322 135.761,283.087 124.181,283.087 122.420 C 283.087 122.080,284.160 122.631,284.652 123.224 M114.023 123.399 C 112.908 124.981,111.902 127.177,110.977 130.049 L 110.078 132.841 110.047 131.316 C 110.026 130.242,110.162 129.735,110.509 129.602 C 110.780 129.498,111.002 129.033,111.002 128.569 C 111.002 127.264,113.601 122.496,114.312 122.496 C 114.503 122.496,114.373 122.902,114.023 123.399 M111.725 124.787 C 111.418 125.325,111.119 125.629,111.062 125.462 C 110.921 125.048,111.611 123.810,111.983 123.810 C 112.149 123.810,112.033 124.250,111.725 124.787 M248.443 124.182 C 247.112 124.494,244.063 125.822,241.379 127.260 C 238.180 128.974,240.183 133.531,245.639 136.946 C 246.937 137.759,248.690 138.906,249.533 139.495 C 251.006 140.523,253.675 141.892,254.132 141.853 C 254.497 141.822,257.075 138.126,258.127 136.127 C 259.293 133.910,259.457 131.191,258.522 129.557 C 255.191 123.731,253.721 122.947,248.443 124.182 M98.313 125.775 C 98.649 126.103,97.872 129.392,97.459 129.392 C 96.427 129.392,95.190 128.315,95.375 127.577 C 95.992 125.120,97.005 124.499,98.313 125.775 M282.380 126.864 C 285.782 131.835,289.728 148.509,290.323 160.427 C 290.684 167.670,290.688 167.545,290.136 166.338 C 289.811 165.628,289.681 163.765,289.670 159.669 C 289.662 156.543,289.497 153.292,289.304 152.444 C 288.039 146.893,287.004 143.330,285.949 140.887 C 285.676 140.255,285.046 138.629,284.549 137.274 C 284.052 135.920,283.375 134.215,283.043 133.486 C 282.711 132.757,282.294 131.427,282.115 130.530 C 281.936 129.634,281.566 128.087,281.293 127.094 C 281.020 126.100,280.794 125.242,280.792 125.186 C 280.779 124.845,281.571 125.682,282.380 126.864 M291.612 129.202 C 291.604 129.397,291.235 128.682,290.791 127.613 C 290.347 126.543,289.990 125.509,289.997 125.314 C 290.005 125.119,290.375 125.834,290.818 126.903 C 291.262 127.972,291.619 129.007,291.612 129.202 M290.275 129.146 C 290.601 130.123,290.590 130.159,290.143 129.576 C 289.875 129.225,289.655 128.745,289.655 128.509 C 289.655 127.776,289.904 128.032,290.275 129.146 M96.607 129.914 C 98.009 130.639,97.782 132.401,96.007 134.571 L 94.745 136.114 94.642 134.149 C 94.416 129.894,94.833 128.996,96.607 129.914 M290.946 133.826 C 290.946 134.007,290.734 133.785,290.476 133.333 C 290.218 132.882,290.007 132.365,290.007 132.184 C 290.007 132.003,290.218 132.225,290.476 132.677 C 290.734 133.128,290.946 133.645,290.946 133.826 M189.819 133.150 C 171.069 135.862,154.818 149.046,148.597 166.594 C 147.487 169.724,147.398 169.689,147.944 166.338 C 148.361 163.781,148.889 162.184,150.660 158.128 C 151.616 155.941,155.329 150.299,157.130 148.298 C 158.208 147.100,158.627 146.121,158.046 146.156 C 157.722 146.175,154.577 150.264,152.500 153.366 C 150.033 157.053,147.870 162.492,147.109 166.925 C 146.761 168.950,146.315 171.125,146.118 171.757 C 145.044 175.202,145.173 194.318,146.307 199.797 C 147.469 205.412,150.529 211.582,156.215 219.775 C 157.809 222.072,159.801 225.027,160.641 226.343 C 163.749 231.210,167.673 235.962,169.187 236.692 C 172.042 238.068,182.712 239.224,190.441 238.995 L 195.567 238.843 200.493 237.141 C 203.202 236.205,207.192 234.942,209.360 234.334 C 235.732 226.937,251.625 203.572,248.131 177.333 C 246.814 167.438,241.192 155.036,236.626 151.951 C 236.040 151.556,234.520 150.526,233.248 149.663 C 231.976 148.801,230.710 147.752,230.436 147.333 C 230.161 146.915,229.397 146.069,228.737 145.453 C 228.076 144.838,227.154 143.690,226.686 142.901 C 222.917 136.539,202.931 131.253,189.819 133.150 M96.967 136.089 C 96.730 137.231,96.676 137.274,96.059 136.822 C 95.408 136.346,95.409 136.334,96.197 135.496 C 97.174 134.456,97.288 134.543,96.967 136.089 M289.519 141.265 C 291.055 146.263,291.349 148.135,291.234 152.217 L 291.133 155.829 290.540 151.560 C 290.214 149.212,289.369 144.926,288.662 142.036 C 287.955 139.146,287.290 136.412,287.185 135.961 C 286.706 133.909,288.537 138.068,289.519 141.265 M291.271 137.063 C 291.244 138.510,291.189 138.462,290.693 136.558 C 290.435 135.569,290.461 135.382,290.837 135.526 C 291.136 135.640,291.288 136.181,291.271 137.063 M96.880 138.324 C 96.880 138.660,95.698 138.080,95.400 137.598 C 95.283 137.410,95.557 137.434,96.038 137.653 C 96.501 137.864,96.880 138.166,96.880 138.324 M95.753 138.791 C 96.645 139.472,96.880 139.882,96.880 140.761 C 96.880 141.835,96.477 142.219,96.059 141.544 C 95.789 141.106,94.910 141.122,94.910 141.565 C 94.910 141.757,95.353 142.287,95.895 142.743 C 96.874 143.567,96.880 143.594,96.858 146.909 L 96.837 150.246 95.664 147.291 C 94.687 144.830,94.463 143.798,94.328 141.133 C 94.148 137.587,94.156 137.573,95.753 138.791 M198.853 139.360 C 200.763 140.249,202.311 141.884,203.247 143.998 C 203.610 144.820,204.174 145.589,204.499 145.707 C 205.139 145.940,208.350 148.327,215.905 154.187 C 217.303 155.271,219.009 156.601,219.697 157.143 C 220.385 157.685,221.566 158.601,222.323 159.179 C 225.389 161.521,233.313 169.153,236.527 172.858 C 239.595 176.395,239.560 176.271,239.674 184.072 L 239.775 190.969 238.085 194.253 C 236.244 197.829,235.861 198.344,230.873 203.941 C 226.019 209.388,223.011 212.423,221.511 213.385 C 219.924 214.404,218.055 215.890,216.591 217.298 C 215.335 218.507,213.403 219.554,211.606 220.002 C 210.912 220.175,209.754 220.542,209.031 220.817 C 206.815 221.662,191.541 221.564,188.998 220.690 C 187.948 220.328,186.894 220.033,186.656 220.033 C 186.418 220.033,184.631 219.277,182.685 218.353 C 180.738 217.429,178.346 216.318,177.368 215.884 C 176.389 215.450,174.909 214.469,174.077 213.705 C 173.246 212.941,171.688 211.724,170.616 211.002 C 166.339 208.119,161.993 202.919,159.226 197.373 L 157.506 193.924 157.378 190.020 C 157.249 186.081,157.606 183.602,158.827 179.967 C 159.100 179.154,159.691 177.233,160.140 175.698 C 161.922 169.605,162.335 168.258,162.810 166.995 C 163.082 166.273,163.567 164.943,163.888 164.039 C 164.606 162.022,166.632 158.374,168.055 156.539 C 168.637 155.788,169.820 154.092,170.682 152.772 C 173.253 148.835,177.164 144.637,179.445 143.365 C 182.391 141.723,187.914 139.003,188.670 138.822 C 190.929 138.280,197.251 138.614,198.853 139.360 M290.918 142.529 C 290.918 142.800,290.645 142.282,290.312 141.379 C 289.979 140.476,289.706 139.516,289.706 139.245 C 289.706 138.974,289.979 139.491,290.312 140.394 C 290.645 141.297,290.918 142.258,290.918 142.529 M277.833 158.785 C 277.833 168.747,277.947 174.056,278.161 174.056 C 278.375 174.056,278.489 168.747,278.489 158.785 C 278.489 148.823,278.375 143.514,278.161 143.514 C 277.947 143.514,277.833 148.823,277.833 158.785 M96.364 151.912 C 96.933 152.481,97.135 156.847,96.577 156.501 C 95.995 156.142,93.268 152.313,93.268 151.856 C 93.268 151.204,95.700 151.248,96.364 151.912 M295.393 161.084 C 296.100 167.730,296.072 171.839,295.321 171.695 C 294.588 171.553,294.050 168.023,294.602 166.970 C 294.829 166.537,294.890 165.160,294.768 163.194 C 294.144 153.082,294.437 152.093,295.393 161.084 M292.254 164.122 C 292.200 167.627,291.722 169.809,291.669 166.790 C 291.645 165.413,291.533 163.824,291.420 163.259 C 291.258 162.447,291.326 162.233,291.749 162.233 C 292.183 162.233,292.277 162.586,292.254 164.122 M148.065 200.164 C 154.599 221.431,175.675 236.374,198.249 235.744 C 200.446 235.682,202.205 235.671,202.157 235.719 C 198.970 238.899,175.956 239.134,169.547 236.052 C 168.079 235.346,163.300 229.394,160.244 224.466 C 159.460 223.202,157.683 220.542,156.295 218.555 C 150.237 209.883,146.358 201.017,146.496 196.155 L 146.521 195.238 146.789 196.059 C 146.936 196.511,147.510 198.358,148.065 200.164 M298.696 205.185 C 300.086 215.325,300.080 215.502,298.440 213.031 L 297.209 211.176 297.247 203.371 C 297.268 199.079,297.336 195.788,297.399 196.059 C 297.462 196.330,298.046 200.437,298.696 205.185 M298.683 214.696 L 299.879 216.585 299.654 222.898 C 299.353 231.294,298.927 232.936,298.884 225.862 C 298.830 216.917,298.292 219.586,298.091 229.803 C 297.989 234.996,297.760 239.910,297.583 240.722 C 297.406 241.535,297.113 243.530,296.931 245.156 C 296.623 247.920,293.286 261.208,292.609 262.366 C 292.409 262.708,292.300 261.235,292.296 258.128 C 292.291 253.640,292.338 253.283,293.115 251.924 C 294.280 249.885,295.237 246.786,295.246 245.020 C 295.250 244.192,295.403 242.923,295.586 242.200 C 296.752 237.599,296.939 235.383,297.106 224.220 C 297.201 217.943,297.325 212.808,297.382 212.808 C 297.439 212.808,298.025 213.658,298.683 214.696 M301.454 232.677 C 302.157 242.377,301.956 248.367,300.813 251.745 C 300.267 253.359,299.587 255.954,299.301 257.511 C 298.918 259.604,298.409 261.016,297.349 262.929 C 295.726 265.857,295.622 265.809,296.555 262.561 C 297.858 258.030,298.850 249.261,298.853 242.251 C 298.854 239.297,299.064 236.006,299.369 234.154 C 299.651 232.438,300.003 229.113,300.151 226.765 C 300.299 224.417,300.457 222.422,300.502 222.332 C 300.606 222.123,300.996 226.366,301.454 232.677 M94.342 241.417 C 94.449 241.667,95.011 242.980,95.590 244.335 C 97.051 247.751,101.303 254.471,101.732 254.042 C 101.888 253.886,101.369 252.965,98.880 248.985 C 98.051 247.658,96.856 245.379,96.223 243.919 C 95.591 242.459,94.866 241.196,94.611 241.113 C 94.314 241.016,94.218 241.124,94.342 241.417 M298.071 246.552 C 297.508 254.755,296.536 260.594,294.714 266.730 C 294.560 267.249,291.900 268.966,291.250 268.966 C 290.812 268.966,291.230 267.501,292.608 264.204 C 293.903 261.104,297.115 249.578,297.404 246.992 C 297.930 242.279,298.385 241.979,298.071 246.552 M282.754 246.716 C 282.746 248.351,282.311 248.809,281.681 247.846 C 281.215 247.136,281.212 246.972,281.649 246.349 C 282.350 245.347,282.759 245.483,282.754 246.716 M280.785 248.985 L 281.651 250.022 281.087 251.731 C 280.455 253.646,279.621 255.372,279.201 255.631 C 278.810 255.873,270.443 250.337,270.443 249.836 C 270.443 249.546,271.460 249.365,273.892 249.222 C 275.853 249.106,277.835 248.799,278.489 248.510 C 279.122 248.230,279.702 247.989,279.779 247.974 C 279.856 247.960,280.309 248.414,280.785 248.985 M274.164 253.534 C 276.391 254.981,278.165 256.297,278.105 256.459 C 277.958 256.859,274.046 260.321,273.275 260.734 C 272.419 261.192,269.583 262.140,269.455 262.010 C 269.361 261.916,269.191 252.343,269.264 251.314 C 269.320 250.543,270.117 250.904,274.164 253.534 M128.044 256.968 C 129.561 258.238,131.186 259.618,131.657 260.034 L 132.512 260.790 131.691 260.394 C 130.363 259.753,127.384 257.337,125.616 255.466 C 123.710 253.450,124.227 253.770,128.044 256.968 M291.611 259.688 C 291.595 264.417,291.324 265.483,289.511 267.953 L 288.286 269.622 285.557 269.622 C 283.725 269.622,282.104 269.846,280.627 270.302 C 277.962 271.125,277.769 271.018,279.381 269.611 C 282.477 266.909,288.019 260.661,289.522 258.180 C 291.605 254.738,291.628 254.755,291.611 259.688 M111.010 262.328 C 111.802 264.104,111.530 263.932,109.538 261.396 L 107.944 259.368 109.163 260.144 C 109.913 260.621,110.623 261.461,111.010 262.328 M114.856 263.765 C 119.524 266.517,121.160 267.635,124.698 270.496 C 126.541 271.987,128.610 273.497,129.296 273.852 C 130.482 274.466,134.743 278.489,134.207 278.489 C 133.814 278.489,125.641 275.107,122.363 273.588 C 118.627 271.857,114.778 268.157,112.857 264.450 C 112.178 263.140,111.703 262.069,111.800 262.069 C 111.898 262.069,113.273 262.832,114.856 263.765 M182.406 270.042 C 182.871 271.086,183.251 272.010,183.251 272.095 C 183.251 272.180,181.690 272.250,179.781 272.250 C 175.747 272.250,175.932 272.718,178.042 267.842 C 178.740 266.230,179.310 264.799,179.310 264.661 C 179.310 262.407,180.099 262.773,180.801 265.353 C 181.218 266.888,181.941 268.998,182.406 270.042 M202.776 263.800 C 204.169 264.589,206.364 267.185,206.058 267.680 C 205.956 267.845,205.418 267.980,204.863 267.980 C 204.307 267.980,203.318 268.121,202.665 268.293 C 202.012 268.465,200.296 268.854,198.851 269.157 C 197.406 269.461,195.189 269.969,193.924 270.286 C 191.038 271.011,191.055 271.045,193.037 268.570 C 197.346 263.188,199.678 262.046,202.776 263.800 M239.742 265.364 C 240.195 266.459,240.036 266.852,239.259 266.553 C 238.723 266.348,238.526 264.368,239.041 264.368 C 239.199 264.368,239.515 264.816,239.742 265.364 M250.575 265.208 C 250.575 265.468,250.427 265.681,250.246 265.681 C 250.066 265.681,249.918 265.377,249.918 265.005 C 249.918 264.633,250.066 264.420,250.246 264.532 C 250.427 264.644,250.575 264.948,250.575 265.208 M286.700 270.637 C 286.700 271.161,276.836 273.910,275.058 273.881 C 272.963 273.847,280.084 270.823,282.923 270.541 C 284.570 270.378,286.700 270.432,286.700 270.637 M289.984 270.788 C 289.984 271.054,285.059 273.346,284.878 273.165 C 284.710 272.997,289.205 270.608,289.689 270.608 C 289.851 270.608,289.984 270.689,289.984 270.788 M126.574 276.204 C 130.102 277.711,132.938 278.995,132.875 279.057 C 132.631 279.301,126.783 277.838,124.155 276.876 C 121.351 275.850,120.315 275.103,118.456 272.773 L 117.433 271.489 118.796 272.477 C 119.546 273.020,123.046 274.697,126.574 276.204 M282.759 273.241 C 281.984 273.751,277.505 275.117,275.738 275.381 C 272.925 275.802,274.121 274.836,277.193 274.207 C 278.719 273.894,280.484 273.487,281.117 273.302 C 282.726 272.831,283.420 272.805,282.759 273.241 M273.054 275.827 C 272.883 275.989,272.225 276.218,271.593 276.336 C 270.513 276.537,270.482 276.519,271.081 276.042 C 271.751 275.507,273.608 275.306,273.054 275.827 M268.801 278.009 C 268.259 278.257,267.594 278.460,267.323 278.460 C 267.053 278.460,267.274 278.257,267.816 278.009 C 268.358 277.760,269.023 277.557,269.294 277.557 C 269.565 277.557,269.343 277.760,268.801 278.009 M158.292 285.386 C 158.292 286.591,157.872 286.658,157.360 285.535 C 156.859 284.436,156.868 284.401,157.635 284.401 C 158.146 284.401,158.292 284.620,158.292 285.386 M181.822 286.913 C 181.705 288.295,181.609 289.939,181.609 290.566 C 181.609 292.214,181.070 291.615,179.018 287.693 L 177.297 284.401 179.665 284.401 L 182.034 284.401 181.822 286.913 " stroke="none" fill="#fff" fill-rule="evenodd"></path></g></svg>