<svg id="svg" version="1.1" xmlns="http://www.w3.org/2000/svg" xmlns:xlink="http://www.w3.org/1999/xlink" width="400" height="400" viewBox="0, 0, 400,400"><g id="svgg"><path id="path0" d="M184.800 33.965 C 184.800 34.166,184.072 34.453,183.183 34.603 C 178.312 35.426,178.077 36.667,178.298 60.400 C 178.399 71.291,177.811 76.549,175.995 81.000 C 175.390 82.483,174.000 88.761,174.000 90.012 C 174.000 90.694,173.809 91.610,173.575 92.046 C 173.342 92.482,173.084 93.999,173.002 95.415 C 172.920 96.832,172.743 98.169,172.608 98.386 C 172.053 99.286,169.692 115.569,169.623 118.983 C 169.592 120.488,169.352 121.611,168.970 122.033 C 168.465 122.591,168.457 122.736,168.919 122.914 C 169.890 123.286,169.259 125.549,168.003 126.198 C 166.173 127.145,166.193 130.357,168.027 129.877 C 168.615 129.723,168.741 129.795,168.473 130.131 C 168.269 130.389,167.997 131.500,167.869 132.600 C 167.741 133.700,167.444 135.500,167.209 136.600 C 166.587 139.511,166.470 140.238,166.025 144.000 C 165.239 150.649,164.836 153.838,164.418 156.733 C 164.184 158.346,164.088 159.819,164.203 160.005 C 164.319 160.192,164.230 160.458,164.007 160.596 C 163.783 160.734,163.600 161.647,163.600 162.624 C 163.600 163.904,163.439 164.400,163.024 164.400 C 162.182 164.400,161.858 165.147,162.411 165.813 C 162.699 166.160,162.792 166.917,162.644 167.705 C 162.509 168.428,162.298 170.365,162.177 172.010 C 162.055 173.654,161.786 175.171,161.578 175.380 C 161.370 175.589,161.200 176.720,161.200 177.893 C 161.200 179.419,161.030 180.091,160.600 180.255 C 159.900 180.524,159.808 181.648,160.435 182.275 C 160.734 182.574,160.740 182.790,160.452 182.968 C 160.223 183.110,160.136 183.490,160.260 183.813 C 160.384 184.136,160.349 184.715,160.182 185.100 C 159.695 186.224,159.626 186.783,159.448 191.000 C 159.356 193.200,159.164 196.080,159.022 197.400 C 158.881 198.720,158.699 200.520,158.618 201.400 C 158.109 206.931,157.838 209.090,157.141 213.183 C 156.711 215.704,156.160 218.007,155.917 218.300 C 155.593 218.691,155.593 218.953,155.918 219.278 C 156.181 219.541,156.228 219.983,156.032 220.361 C 155.851 220.713,155.596 222.260,155.466 223.800 C 155.147 227.580,154.763 229.600,154.364 229.600 C 154.181 229.600,154.056 230.095,154.085 230.700 C 154.197 233.046,153.535 238.165,152.982 239.235 C 152.662 239.854,152.400 240.800,152.400 241.337 C 152.400 241.875,151.860 244.449,151.201 247.057 C 150.542 249.666,150.002 252.259,150.001 252.820 C 150.000 253.381,149.827 254.013,149.616 254.224 C 149.404 254.436,149.120 255.654,148.984 256.931 C 148.848 258.209,148.452 259.917,148.105 260.727 C 147.537 262.054,146.832 265.133,146.143 269.300 C 146.006 270.125,145.688 270.800,145.436 270.800 C 144.467 270.800,143.495 272.452,143.935 273.351 C 144.708 274.932,144.788 275.795,144.367 278.000 C 144.137 279.210,143.717 281.589,143.434 283.286 C 143.152 284.984,142.702 286.636,142.435 286.957 C 142.168 287.279,141.884 288.623,141.803 289.944 C 141.723 291.265,141.464 292.707,141.228 293.147 C 140.993 293.587,140.800 294.400,140.800 294.954 C 140.800 295.507,140.485 296.160,140.100 296.403 C 139.617 296.709,139.550 296.910,139.884 297.051 C 140.411 297.274,140.164 299.446,139.519 300.270 C 139.317 300.529,139.184 300.979,139.223 301.270 C 139.460 303.023,139.166 304.000,138.400 304.000 C 137.861 304.000,137.600 304.267,137.600 304.818 C 137.600 305.374,137.823 305.598,138.300 305.518 C 138.895 305.418,139.007 305.747,139.049 307.711 C 139.097 309.968,140.058 314.001,140.835 315.200 C 141.048 315.530,141.329 316.115,141.458 316.500 C 141.588 316.885,141.823 317.200,141.982 317.200 C 142.141 317.200,142.615 317.918,143.036 318.795 C 143.456 319.673,143.917 320.393,144.061 320.395 C 144.204 320.398,144.517 320.895,144.755 321.500 C 144.993 322.105,145.358 322.870,145.565 323.200 C 145.773 323.530,146.040 324.115,146.159 324.500 C 146.284 324.904,146.768 325.200,147.306 325.200 C 147.866 325.200,148.861 325.839,149.800 326.800 C 150.659 327.680,151.577 328.400,151.838 328.400 C 152.100 328.400,152.418 328.670,152.545 329.000 C 152.671 329.330,153.083 329.600,153.459 329.600 C 153.835 329.600,154.739 330.250,155.466 331.045 C 156.521 332.196,156.988 332.439,157.770 332.243 C 158.310 332.108,158.870 332.190,159.016 332.426 C 159.162 332.662,159.527 332.760,159.828 332.645 C 160.128 332.529,160.461 332.575,160.567 332.746 C 160.776 333.086,165.557 332.976,165.910 332.624 C 166.029 332.504,166.345 332.588,166.612 332.810 C 167.374 333.443,168.377 332.828,168.994 331.351 C 169.305 330.608,169.833 330.000,170.167 330.000 C 170.545 330.000,170.687 329.771,170.543 329.395 C 170.415 329.062,170.479 328.567,170.685 328.295 C 170.891 328.023,171.275 327.046,171.539 326.124 C 171.839 325.075,172.313 324.354,172.809 324.197 C 173.678 323.921,173.837 323.394,173.174 322.984 C 172.940 322.839,172.799 322.154,172.861 321.460 C 172.934 320.656,172.804 320.234,172.502 320.295 C 171.730 320.451,172.404 319.253,173.237 318.988 C 174.148 318.699,174.228 318.173,173.409 317.859 C 172.894 317.661,172.892 317.490,173.389 316.516 C 174.340 314.654,174.526 313.876,174.462 312.031 C 174.422 310.888,174.630 310.009,175.050 309.545 C 175.416 309.140,175.607 308.471,175.488 308.013 C 175.371 307.566,175.458 307.200,175.681 307.200 C 175.916 307.200,175.979 306.772,175.832 306.185 C 175.680 305.578,175.837 304.620,176.225 303.805 C 176.581 303.054,176.775 302.283,176.657 302.091 C 176.538 301.900,176.708 301.227,177.035 300.598 C 177.362 299.968,177.538 299.216,177.427 298.926 C 177.316 298.637,177.388 298.400,177.587 298.400 C 177.787 298.400,177.851 297.792,177.731 297.050 C 177.485 295.539,178.723 289.200,179.263 289.200 C 179.453 289.200,179.494 288.480,179.354 287.600 C 179.182 286.528,179.247 286.000,179.549 286.000 C 179.797 286.000,180.000 285.821,180.000 285.603 C 180.000 284.770,181.409 282.000,181.832 282.000 C 182.076 282.000,182.602 281.640,183.000 281.200 C 183.398 280.760,183.901 280.400,184.118 280.400 C 184.546 280.400,185.567 279.201,185.587 278.675 C 185.594 278.496,185.285 278.382,184.900 278.421 C 183.244 278.589,182.625 278.415,183.120 277.920 C 183.749 277.291,183.736 275.105,183.100 274.430 C 182.690 273.995,182.803 273.936,183.729 274.100 C 184.645 274.262,184.926 274.121,185.219 273.350 C 185.631 272.268,186.469 272.119,187.200 273.000 C 187.903 273.847,188.400 273.744,188.400 272.751 C 188.400 272.053,188.504 271.988,188.982 272.385 C 189.303 272.651,189.740 272.760,189.955 272.628 C 190.169 272.495,190.458 272.570,190.596 272.793 C 191.022 273.483,191.600 273.243,191.600 272.376 C 191.600 271.873,191.773 271.660,192.046 271.828 C 192.312 271.993,192.408 272.726,192.285 273.645 C 192.093 275.075,192.134 275.156,192.858 274.769 C 193.403 274.477,193.562 274.109,193.383 273.548 C 193.193 272.948,193.341 272.688,193.964 272.525 C 194.424 272.405,194.800 272.123,194.800 271.898 C 194.800 271.641,195.690 271.570,197.200 271.707 C 198.520 271.826,199.600 271.781,199.600 271.606 C 199.600 271.431,200.230 271.214,201.000 271.124 C 201.770 271.034,202.400 271.115,202.400 271.304 C 202.400 271.757,204.694 271.386,205.372 270.823 C 205.778 270.486,205.952 270.572,206.114 271.192 C 206.362 272.142,207.200 272.283,207.200 271.374 C 207.200 270.751,208.086 270.678,214.000 270.807 C 217.300 270.880,218.780 271.666,218.794 273.353 C 218.797 273.767,219.132 274.397,219.537 274.753 C 220.606 275.691,221.220 277.014,221.177 278.287 C 221.130 279.708,221.689 281.845,222.537 283.480 C 222.901 284.184,223.200 285.207,223.200 285.754 C 223.200 286.301,223.409 287.255,223.664 287.874 C 223.919 288.493,224.095 289.211,224.054 289.470 C 224.012 289.728,224.164 290.054,224.389 290.193 C 225.075 290.617,224.851 291.630,223.900 292.406 C 223.081 293.074,223.063 293.165,223.700 293.413 C 224.138 293.584,224.400 294.110,224.400 294.819 C 224.400 295.443,224.550 296.045,224.733 296.159 C 225.100 296.386,226.245 304.067,226.125 305.500 C 226.083 305.995,226.226 306.400,226.442 306.400 C 226.658 306.400,226.799 306.625,226.754 306.900 C 226.710 307.175,226.778 307.670,226.906 308.000 C 227.033 308.330,227.355 309.590,227.622 310.800 C 227.888 312.010,228.217 313.180,228.353 313.400 C 228.489 313.620,228.874 315.780,229.208 318.200 C 229.765 322.228,229.892 322.611,230.708 322.728 C 231.199 322.798,231.600 323.031,231.600 323.245 C 231.600 323.458,231.977 324.031,232.438 324.517 C 233.143 325.259,234.033 326.844,234.169 327.600 C 234.260 328.105,240.530 335.600,240.861 335.600 C 241.067 335.600,241.722 336.060,242.317 336.623 C 242.913 337.185,243.912 337.950,244.538 338.323 C 245.657 338.989,245.672 339.045,245.416 341.676 C 245.076 345.181,245.733 348.636,247.367 351.937 C 248.092 353.402,248.888 355.095,249.134 355.700 C 249.623 356.897,250.029 357.026,251.252 356.372 C 251.890 356.031,251.998 355.700,251.785 354.732 C 251.639 354.065,251.708 352.772,251.939 351.860 C 252.170 350.947,252.584 349.210,252.859 348.000 C 253.134 346.790,253.426 346.115,253.509 346.500 C 253.591 346.885,253.833 347.200,254.046 347.200 C 254.259 347.200,254.820 347.560,255.292 348.000 C 255.923 348.588,256.704 348.800,258.235 348.800 L 260.319 348.800 260.500 350.700 C 260.675 352.551,260.238 353.967,258.617 356.800 C 258.302 357.350,257.602 359.240,257.060 361.000 C 256.518 362.760,255.612 365.296,255.047 366.636 C 254.208 368.627,254.075 369.394,254.321 370.836 C 254.784 373.546,255.741 373.192,256.038 370.200 C 256.209 368.487,256.752 366.887,257.937 364.610 C 258.850 362.856,259.710 360.786,259.848 360.010 C 259.986 359.235,260.536 358.015,261.070 357.300 C 262.836 354.935,263.195 353.457,263.448 347.507 C 263.582 344.368,263.860 341.479,264.066 341.088 C 264.532 340.204,264.424 335.168,263.926 334.536 C 263.700 334.247,263.728 333.968,264.000 333.800 C 264.314 333.606,264.303 333.366,263.962 332.955 C 263.700 332.639,263.588 332.279,263.712 332.154 C 263.837 332.030,263.681 331.197,263.366 330.303 C 263.051 329.410,262.827 328.481,262.868 328.239 C 262.909 327.998,262.641 326.822,262.272 325.627 C 261.902 324.432,261.599 323.082,261.598 322.627 C 261.596 322.172,261.326 321.284,260.998 320.654 C 260.669 320.024,260.400 318.820,260.400 317.978 C 260.400 317.136,260.239 316.348,260.042 316.226 C 259.833 316.097,259.829 315.376,260.031 314.502 C 260.278 313.438,260.200 312.374,259.765 310.853 C 259.427 309.672,259.244 308.462,259.359 308.163 C 259.474 307.864,259.294 306.966,258.961 306.168 C 258.627 305.370,258.326 304.015,258.292 303.158 C 258.258 302.301,258.066 301.600,257.866 301.600 C 257.666 301.600,257.720 301.338,257.985 301.018 C 258.251 300.697,258.336 300.220,258.174 299.958 C 257.860 299.450,257.528 297.234,257.525 295.633 C 257.524 295.102,257.295 294.438,257.016 294.159 C 256.737 293.880,256.384 292.391,256.233 290.852 C 256.081 289.312,255.798 287.995,255.603 287.926 C 255.228 287.792,254.706 284.860,254.767 283.225 C 254.787 282.688,254.656 282.148,254.475 282.025 C 254.013 281.708,252.699 277.262,252.601 275.679 C 252.556 274.953,252.312 274.152,252.059 273.899 C 251.807 273.647,251.600 273.127,251.600 272.744 C 251.600 272.361,251.420 271.936,251.200 271.800 C 250.980 271.664,250.800 271.115,250.800 270.581 C 250.800 270.046,250.440 268.662,250.000 267.504 C 249.560 266.347,249.199 265.040,249.198 264.600 C 249.196 264.160,248.926 263.284,248.598 262.654 C 248.269 262.024,248.000 261.107,248.000 260.616 C 248.000 260.125,247.711 259.144,247.358 258.437 C 247.005 257.729,246.816 257.051,246.938 256.929 C 247.201 256.665,249.168 258.824,249.189 259.400 C 249.197 259.620,249.647 260.340,250.188 261.000 L 251.171 262.200 251.186 259.677 C 251.216 254.412,249.079 250.893,247.404 253.450 C 246.451 254.904,245.039 253.790,245.962 252.312 C 246.352 251.688,246.378 251.393,246.054 251.285 C 245.805 251.202,245.600 250.828,245.600 250.456 C 245.600 250.083,245.293 249.339,244.917 248.803 C 244.275 247.886,242.991 243.105,242.557 240.010 C 242.449 239.246,242.100 238.332,241.781 237.979 C 241.461 237.626,241.200 236.676,241.200 235.869 C 241.200 235.061,241.023 234.400,240.808 234.400 C 240.592 234.400,240.297 233.905,240.152 233.300 C 240.008 232.695,239.745 232.014,239.569 231.788 C 239.136 231.233,238.736 229.424,238.509 227.000 C 238.406 225.900,238.091 224.730,237.810 224.400 C 237.529 224.070,237.071 223.080,236.794 222.200 C 236.516 221.320,236.143 220.240,235.964 219.800 C 235.785 219.360,235.446 217.650,235.209 216.000 C 234.739 212.719,233.731 208.851,233.166 208.163 C 232.968 207.923,232.924 207.609,233.068 207.466 C 233.211 207.322,232.992 206.833,232.580 206.378 C 232.054 205.797,231.968 205.467,232.291 205.267 C 232.621 205.063,232.465 204.142,231.734 201.992 C 231.105 200.142,230.682 197.931,230.625 196.200 C 230.575 194.660,230.397 193.400,230.230 193.400 C 229.806 193.400,228.793 190.486,228.630 188.800 C 228.343 185.820,227.232 179.920,226.874 179.471 C 226.213 178.643,226.519 174.894,227.295 174.317 C 228.567 173.370,228.691 171.200,227.474 171.200 C 226.140 171.200,225.973 170.878,225.311 167.031 C 224.210 160.631,224.210 160.611,225.257 160.107 C 225.909 159.794,225.999 159.646,225.549 159.627 C 224.303 159.575,223.977 158.460,223.651 153.139 C 223.445 149.767,223.116 147.452,222.762 146.881 C 222.285 146.113,222.284 145.923,222.751 145.633 C 223.054 145.444,223.204 145.130,223.083 144.935 C 222.882 144.609,222.302 139.394,222.312 138.000 C 222.315 137.670,222.079 136.556,221.787 135.525 C 221.337 133.929,221.343 133.579,221.829 133.176 C 222.549 132.578,222.552 132.034,221.838 131.231 C 221.488 130.838,221.178 129.167,221.017 126.800 C 220.704 122.227,220.697 122.066,220.759 120.800 C 220.785 120.250,220.734 118.540,220.643 117.000 C 220.553 115.460,220.654 113.873,220.868 113.474 C 221.130 112.983,221.106 112.569,220.793 112.192 C 220.539 111.886,220.446 111.450,220.586 111.223 C 220.726 110.996,220.666 110.178,220.453 109.405 C 220.239 108.632,220.189 108.000,220.342 108.000 C 220.495 108.000,220.634 107.010,220.651 105.800 C 220.673 104.203,220.533 103.600,220.141 103.600 C 219.239 103.600,219.536 102.558,220.572 102.085 C 222.470 101.221,222.363 95.577,220.460 96.181 C 219.805 96.389,219.736 96.188,219.817 94.307 C 219.866 93.148,219.942 92.200,219.985 92.200 C 220.028 92.200,220.124 91.075,220.199 89.700 C 220.274 88.325,220.187 87.200,220.006 87.200 C 219.578 87.200,220.012 83.842,220.462 83.666 C 220.651 83.592,220.708 83.375,220.590 83.183 C 220.471 82.992,220.128 82.929,219.828 83.045 C 219.153 83.304,218.623 82.557,219.220 82.188 C 219.506 82.011,219.409 81.652,218.931 81.124 C 218.249 80.371,218.248 80.301,218.903 79.821 C 219.554 79.345,219.542 79.213,218.698 77.650 C 217.952 76.268,217.895 75.926,218.360 75.633 C 218.822 75.341,218.769 75.087,218.060 74.185 C 217.587 73.584,217.200 72.546,217.200 71.878 C 217.200 71.210,216.902 70.334,216.538 69.931 C 216.142 69.494,216.062 69.200,216.338 69.200 C 217.113 69.200,216.855 68.177,215.792 67.029 C 215.204 66.394,214.721 65.327,214.634 64.470 C 214.424 62.400,214.012 61.290,213.361 61.040 C 213.052 60.922,212.800 60.647,212.800 60.430 C 212.800 60.213,212.350 59.372,211.800 58.562 C 211.250 57.751,210.800 56.785,210.800 56.414 C 210.800 56.043,210.358 55.324,209.818 54.817 C 209.278 54.310,208.243 52.932,207.518 51.756 C 206.793 50.579,205.995 49.613,205.745 49.608 C 205.495 49.604,204.235 48.301,202.945 46.714 C 201.655 45.126,199.976 43.281,199.213 42.614 C 198.451 41.946,197.191 40.807,196.413 40.083 C 194.751 38.534,188.752 35.200,187.627 35.200 C 187.198 35.200,186.734 35.017,186.596 34.793 C 186.458 34.570,186.177 34.491,185.972 34.617 C 185.768 34.744,185.600 34.567,185.600 34.224 C 185.600 33.881,185.420 33.600,185.200 33.600 C 184.980 33.600,184.800 33.764,184.800 33.965 M188.117 182.540 C 188.879 182.858,189.732 183.679,190.196 184.540 C 190.628 185.343,191.094 186.000,191.230 186.000 C 191.367 186.000,191.813 186.765,192.221 187.700 C 192.629 188.635,193.482 190.008,194.115 190.752 C 194.771 191.522,195.187 192.405,195.083 192.804 C 194.909 193.469,195.522 196.234,196.160 197.661 C 196.322 198.024,196.795 198.410,197.209 198.518 C 197.823 198.679,197.922 198.971,197.741 200.086 C 197.553 201.243,197.713 201.651,198.759 202.698 C 200.289 204.228,200.433 206.011,199.100 206.907 C 198.074 207.597,198.477 208.400,199.519 207.741 C 201.344 206.586,202.223 208.117,202.065 212.172 C 202.029 213.088,202.291 214.174,202.692 214.772 C 204.245 217.091,204.748 218.292,204.335 218.705 C 203.656 219.384,204.138 220.549,205.202 220.799 C 206.031 220.994,206.240 221.335,206.434 222.817 C 206.562 223.798,207.180 225.590,207.807 226.800 C 208.513 228.162,209.012 229.838,209.118 231.200 C 209.253 232.943,209.530 233.654,210.450 234.624 C 211.403 235.630,211.565 236.073,211.359 237.104 C 210.844 239.681,211.075 239.648,197.776 239.022 C 180.440 238.206,180.144 238.059,179.172 229.800 C 178.991 228.260,178.682 225.956,178.485 224.680 C 178.156 222.542,178.194 222.325,178.964 221.920 C 180.264 221.236,180.444 220.750,180.195 218.587 C 179.989 216.790,180.074 216.470,180.982 215.617 C 182.156 214.514,182.254 213.909,181.376 213.180 C 180.619 212.552,180.935 207.954,181.831 206.530 C 182.167 205.997,182.379 204.523,182.378 202.730 C 182.376 198.218,182.374 197.346,182.361 195.300 C 182.340 191.895,183.741 183.394,184.467 182.519 C 185.023 181.850,186.486 181.858,188.117 182.540 M249.503 254.332 C 250.155 254.745,250.349 257.660,249.739 257.877 C 249.117 258.098,247.933 255.642,248.222 254.729 C 248.476 253.930,248.741 253.848,249.503 254.332 " stroke="none" fill="#EC791A" fill-rule="evenodd"></path><path id="path1" d="M0.000 200.000 L 0.000 400.000 200.000 400.000 L 400.000 400.000 400.000 200.000 L 400.000 0.000 200.000 0.000 L 0.000 0.000 0.000 200.000 M185.600 34.224 C 185.600 34.567,185.768 34.744,185.972 34.617 C 186.177 34.491,186.458 34.570,186.596 34.793 C 186.734 35.017,187.198 35.200,187.627 35.200 C 188.752 35.200,194.751 38.534,196.413 40.083 C 197.191 40.807,198.451 41.946,199.213 42.614 C 199.976 43.281,201.655 45.126,202.945 46.714 C 204.235 48.301,205.495 49.604,205.745 49.608 C 205.995 49.613,206.793 50.579,207.518 51.756 C 208.243 52.932,209.278 54.310,209.818 54.817 C 210.358 55.324,210.800 56.043,210.800 56.414 C 210.800 56.785,211.250 57.751,211.800 58.562 C 212.350 59.372,212.800 60.213,212.800 60.430 C 212.800 60.647,213.052 60.922,213.361 61.040 C 214.012 61.290,214.424 62.400,214.634 64.470 C 214.721 65.327,215.204 66.394,215.792 67.029 C 216.855 68.177,217.113 69.200,216.338 69.200 C 216.062 69.200,216.142 69.494,216.538 69.931 C 216.902 70.334,217.200 71.210,217.200 71.878 C 217.200 72.546,217.587 73.584,218.060 74.185 C 218.769 75.087,218.822 75.341,218.360 75.633 C 217.895 75.926,217.952 76.268,218.698 77.650 C 219.542 79.213,219.554 79.345,218.903 79.821 C 218.248 80.301,218.249 80.371,218.931 81.124 C 219.409 81.652,219.506 82.011,219.220 82.188 C 218.623 82.557,219.153 83.304,219.828 83.045 C 220.128 82.929,220.471 82.992,220.590 83.183 C 220.708 83.375,220.651 83.592,220.462 83.666 C 220.012 83.842,219.578 87.200,220.006 87.200 C 220.187 87.200,220.274 88.325,220.199 89.700 C 220.124 91.075,220.028 92.200,219.985 92.200 C 219.942 92.200,219.866 93.148,219.817 94.307 C 219.736 96.188,219.805 96.389,220.460 96.181 C 222.363 95.577,222.470 101.221,220.572 102.085 C 219.536 102.558,219.239 103.600,220.141 103.600 C 220.533 103.600,220.673 104.203,220.651 105.800 C 220.634 107.010,220.495 108.000,220.342 108.000 C 220.189 108.000,220.239 108.632,220.453 109.405 C 220.666 110.178,220.726 110.996,220.586 111.223 C 220.446 111.450,220.539 111.886,220.793 112.192 C 221.106 112.569,221.130 112.983,220.868 113.474 C 220.654 113.873,220.553 115.460,220.643 117.000 C 220.734 118.540,220.785 120.250,220.759 120.800 C 220.697 122.066,220.704 122.227,221.017 126.800 C 221.178 129.167,221.488 130.838,221.838 131.231 C 222.552 132.034,222.549 132.578,221.829 133.176 C 221.343 133.579,221.337 133.929,221.787 135.525 C 222.079 136.556,222.315 137.670,222.312 138.000 C 222.302 139.394,222.882 144.609,223.083 144.935 C 223.204 145.130,223.054 145.444,222.751 145.633 C 222.284 145.923,222.285 146.113,222.762 146.881 C 223.116 147.452,223.445 149.767,223.651 153.139 C 223.977 158.460,224.303 159.575,225.549 159.627 C 225.999 159.646,225.909 159.794,225.257 160.107 C 224.210 160.611,224.210 160.631,225.311 167.031 C 225.973 170.878,226.140 171.200,227.474 171.200 C 228.691 171.200,228.567 173.370,227.295 174.317 C 226.519 174.894,226.213 178.643,226.874 179.471 C 227.232 179.920,228.343 185.820,228.630 188.800 C 228.793 190.486,229.806 193.400,230.230 193.400 C 230.397 193.400,230.575 194.660,230.625 196.200 C 230.682 197.931,231.105 200.142,231.734 201.992 C 232.465 204.142,232.621 205.063,232.291 205.267 C 231.968 205.467,232.054 205.797,232.580 206.378 C 232.992 206.833,233.211 207.322,233.068 207.466 C 232.924 207.609,232.968 207.923,233.166 208.163 C 233.731 208.851,234.739 212.719,235.209 216.000 C 235.446 217.650,235.785 219.360,235.964 219.800 C 236.143 220.240,236.516 221.320,236.794 222.200 C 237.071 223.080,237.529 224.070,237.810 224.400 C 238.091 224.730,238.406 225.900,238.509 227.000 C 238.736 229.424,239.136 231.233,239.569 231.788 C 239.745 232.014,240.008 232.695,240.152 233.300 C 240.297 233.905,240.592 234.400,240.808 234.400 C 241.023 234.400,241.200 235.061,241.200 235.869 C 241.200 236.676,241.461 237.626,241.781 237.979 C 242.100 238.332,242.449 239.246,242.557 240.010 C 242.991 243.105,244.275 247.886,244.917 248.803 C 245.293 249.339,245.600 250.083,245.600 250.456 C 245.600 250.828,245.805 251.202,246.054 251.285 C 246.378 251.393,246.352 251.688,245.962 252.312 C 245.039 253.790,246.451 254.904,247.404 253.450 C 249.079 250.893,251.216 254.412,251.186 259.677 L 251.171 262.200 250.188 261.000 C 249.647 260.340,249.197 259.620,249.189 259.400 C 249.168 258.824,247.201 256.665,246.938 256.929 C 246.816 257.051,247.005 257.729,247.358 258.437 C 247.711 259.144,248.000 260.125,248.000 260.616 C 248.000 261.107,248.269 262.024,248.598 262.654 C 248.926 263.284,249.196 264.160,249.198 264.600 C 249.199 265.040,249.560 266.347,250.000 267.504 C 250.440 268.662,250.800 270.046,250.800 270.581 C 250.800 271.115,250.980 271.664,251.200 271.800 C 251.420 271.936,251.600 272.361,251.600 272.744 C 251.600 273.127,251.807 273.647,252.059 273.899 C 252.312 274.152,252.556 274.953,252.601 275.679 C 252.699 277.262,254.013 281.708,254.475 282.025 C 254.656 282.148,254.787 282.688,254.767 283.225 C 254.706 284.860,255.228 287.792,255.603 287.926 C 255.798 287.995,256.081 289.312,256.233 290.852 C 256.384 292.391,256.737 293.880,257.016 294.159 C 257.295 294.438,257.524 295.102,257.525 295.633 C 257.528 297.234,257.860 299.450,258.174 299.958 C 258.336 300.220,258.251 300.697,257.985 301.018 C 257.720 301.338,257.666 301.600,257.866 301.600 C 258.066 301.600,258.258 302.301,258.292 303.158 C 258.326 304.015,258.627 305.370,258.961 306.168 C 259.294 306.966,259.474 307.864,259.359 308.163 C 259.244 308.462,259.427 309.672,259.765 310.853 C 260.200 312.374,260.278 313.438,260.031 314.502 C 259.829 315.376,259.833 316.097,260.042 316.226 C 260.239 316.348,260.400 317.136,260.400 317.978 C 260.400 318.820,260.669 320.024,260.998 320.654 C 261.326 321.284,261.596 322.172,261.598 322.627 C 261.599 323.082,261.902 324.432,262.272 325.627 C 262.641 326.822,262.909 327.998,262.868 328.239 C 262.827 328.481,263.051 329.410,263.366 330.303 C 263.681 331.197,263.837 332.030,263.712 332.154 C 263.588 332.279,263.700 332.639,263.962 332.955 C 264.303 333.366,264.314 333.606,264.000 333.800 C 263.728 333.968,263.700 334.247,263.926 334.536 C 264.424 335.168,264.532 340.204,264.066 341.088 C 263.860 341.479,263.582 344.368,263.448 347.507 C 263.195 353.457,262.836 354.935,261.070 357.300 C 260.536 358.015,259.986 359.235,259.848 360.010 C 259.710 360.786,258.850 362.856,257.937 364.610 C 256.752 366.887,256.209 368.487,256.038 370.200 C 255.741 373.192,254.784 373.546,254.321 370.836 C 254.075 369.394,254.208 368.627,255.047 366.636 C 255.612 365.296,256.518 362.760,257.060 361.000 C 257.602 359.240,258.302 357.350,258.617 356.800 C 260.238 353.967,260.675 352.551,260.500 350.700 L 260.319 348.800 258.235 348.800 C 256.704 348.800,255.923 348.588,255.292 348.000 C 254.820 347.560,254.259 347.200,254.046 347.200 C 253.833 347.200,253.591 346.885,253.509 346.500 C 253.426 346.115,253.134 346.790,252.859 348.000 C 252.584 349.210,252.170 350.947,251.939 351.860 C 251.708 352.772,251.639 354.065,251.785 354.732 C 251.998 355.700,251.890 356.031,251.252 356.372 C 250.029 357.026,249.623 356.897,249.134 355.700 C 248.888 355.095,248.092 353.402,247.367 351.937 C 245.733 348.636,245.076 345.181,245.416 341.676 C 245.672 339.045,245.657 338.989,244.538 338.323 C 243.912 337.950,242.913 337.185,242.317 336.623 C 241.722 336.060,241.067 335.600,240.861 335.600 C 240.530 335.600,234.260 328.105,234.169 327.600 C 234.033 326.844,233.143 325.259,232.438 324.517 C 231.977 324.031,231.600 323.458,231.600 323.245 C 231.600 323.031,231.199 322.798,230.708 322.728 C 229.892 322.611,229.765 322.228,229.208 318.200 C 228.874 315.780,228.489 313.620,228.353 313.400 C 228.217 313.180,227.888 312.010,227.622 310.800 C 227.355 309.590,227.033 308.330,226.906 308.000 C 226.778 307.670,226.710 307.175,226.754 306.900 C 226.799 306.625,226.658 306.400,226.442 306.400 C 226.226 306.400,226.083 305.995,226.125 305.500 C 226.245 304.067,225.100 296.386,224.733 296.159 C 224.550 296.045,224.400 295.443,224.400 294.819 C 224.400 294.110,224.138 293.584,223.700 293.413 C 223.063 293.165,223.081 293.074,223.900 292.406 C 224.851 291.630,225.075 290.617,224.389 290.193 C 224.164 290.054,224.012 289.728,224.054 289.470 C 224.095 289.211,223.919 288.493,223.664 287.874 C 223.409 287.255,223.200 286.301,223.200 285.754 C 223.200 285.207,222.901 284.184,222.537 283.480 C 221.689 281.845,221.130 279.708,221.177 278.287 C 221.220 277.014,220.606 275.691,219.537 274.753 C 219.132 274.397,218.797 273.767,218.794 273.353 C 218.780 271.666,217.300 270.880,214.000 270.807 C 208.086 270.678,207.200 270.751,207.200 271.374 C 207.200 272.283,206.362 272.142,206.114 271.192 C 205.952 270.572,205.778 270.486,205.372 270.823 C 204.694 271.386,202.400 271.757,202.400 271.304 C 202.400 271.115,201.770 271.034,201.000 271.124 C 200.230 271.214,199.600 271.431,199.600 271.606 C 199.600 271.781,198.520 271.826,197.200 271.707 C 195.690 271.570,194.800 271.641,194.800 271.898 C 194.800 272.123,194.424 272.405,193.964 272.525 C 193.341 272.688,193.193 272.948,193.383 273.548 C 193.562 274.109,193.403 274.477,192.858 274.769 C 192.134 275.156,192.093 275.075,192.285 273.645 C 192.408 272.726,192.312 271.993,192.046 271.828 C 191.773 271.660,191.600 271.873,191.600 272.376 C 191.600 273.243,191.022 273.483,190.596 272.793 C 190.458 272.570,190.169 272.495,189.955 272.628 C 189.740 272.760,189.303 272.651,188.982 272.385 C 188.504 271.988,188.400 272.053,188.400 272.751 C 188.400 273.744,187.903 273.847,187.200 273.000 C 186.469 272.119,185.631 272.268,185.219 273.350 C 184.926 274.121,184.645 274.262,183.729 274.100 C 182.803 273.936,182.690 273.995,183.100 274.430 C 183.736 275.105,183.749 277.291,183.120 277.920 C 182.625 278.415,183.244 278.589,184.900 278.421 C 185.285 278.382,185.594 278.496,185.587 278.675 C 185.567 279.201,184.546 280.400,184.118 280.400 C 183.901 280.400,183.398 280.760,183.000 281.200 C 182.602 281.640,182.076 282.000,181.832 282.000 C 181.409 282.000,180.000 284.770,180.000 285.603 C 180.000 285.821,179.797 286.000,179.549 286.000 C 179.247 286.000,179.182 286.528,179.354 287.600 C 179.494 288.480,179.453 289.200,179.263 289.200 C 178.723 289.200,177.485 295.539,177.731 297.050 C 177.851 297.792,177.787 298.400,177.587 298.400 C 177.388 298.400,177.316 298.637,177.427 298.926 C 177.538 299.216,177.362 299.968,177.035 300.598 C 176.708 301.227,176.538 301.900,176.657 302.091 C 176.775 302.283,176.581 303.054,176.225 303.805 C 175.837 304.620,175.680 305.578,175.832 306.185 C 175.979 306.772,175.916 307.200,175.681 307.200 C 175.458 307.200,175.371 307.566,175.488 308.013 C 175.607 308.471,175.416 309.140,175.050 309.545 C 174.630 310.009,174.422 310.888,174.462 312.031 C 174.526 313.876,174.340 314.654,173.389 316.516 C 172.892 317.490,172.894 317.661,173.409 317.859 C 174.228 318.173,174.148 318.699,173.237 318.988 C 172.404 319.253,171.730 320.451,172.502 320.295 C 172.804 320.234,172.934 320.656,172.861 321.460 C 172.799 322.154,172.940 322.839,173.174 322.984 C 173.837 323.394,173.678 323.921,172.809 324.197 C 172.313 324.354,171.839 325.075,171.539 326.124 C 171.275 327.046,170.891 328.023,170.685 328.295 C 170.479 328.567,170.415 329.062,170.543 329.395 C 170.687 329.771,170.545 330.000,170.167 330.000 C 169.833 330.000,169.305 330.608,168.994 331.351 C 168.377 332.828,167.374 333.443,166.612 332.810 C 166.345 332.588,166.029 332.504,165.910 332.624 C 165.557 332.976,160.776 333.086,160.567 332.746 C 160.461 332.575,160.128 332.529,159.828 332.645 C 159.527 332.760,159.162 332.662,159.016 332.426 C 158.870 332.190,158.310 332.108,157.770 332.243 C 156.988 332.439,156.521 332.196,155.466 331.045 C 154.739 330.250,153.835 329.600,153.459 329.600 C 153.083 329.600,152.671 329.330,152.545 329.000 C 152.418 328.670,152.100 328.400,151.838 328.400 C 151.577 328.400,150.659 327.680,149.800 326.800 C 148.861 325.839,147.866 325.200,147.306 325.200 C 146.768 325.200,146.284 324.904,146.159 324.500 C 146.040 324.115,145.773 323.530,145.565 323.200 C 145.358 322.870,144.993 322.105,144.755 321.500 C 144.517 320.895,144.204 320.398,144.061 320.395 C 143.917 320.393,143.456 319.673,143.036 318.795 C 142.615 317.918,142.141 317.200,141.982 317.200 C 141.823 317.200,141.588 316.885,141.458 316.500 C 141.329 316.115,141.048 315.530,140.835 315.200 C 140.058 314.001,139.097 309.968,139.049 307.711 C 139.007 305.747,138.895 305.418,138.300 305.518 C 137.823 305.598,137.600 305.374,137.600 304.818 C 137.600 304.267,137.861 304.000,138.400 304.000 C 139.166 304.000,139.460 303.023,139.223 301.270 C 139.184 300.979,139.317 300.529,139.519 300.270 C 140.164 299.446,140.411 297.274,139.884 297.051 C 139.550 296.910,139.617 296.709,140.100 296.403 C 140.485 296.160,140.800 295.507,140.800 294.954 C 140.800 294.400,140.993 293.587,141.228 293.147 C 141.464 292.707,141.723 291.265,141.803 289.944 C 141.884 288.623,142.168 287.279,142.435 286.957 C 142.702 286.636,143.152 284.984,143.434 283.286 C 143.717 281.589,144.137 279.210,144.367 278.000 C 144.788 275.795,144.708 274.932,143.935 273.351 C 143.495 272.452,144.467 270.800,145.436 270.800 C 145.688 270.800,146.006 270.125,146.143 269.300 C 146.832 265.133,147.537 262.054,148.105 260.727 C 148.452 259.917,148.848 258.209,148.984 256.931 C 149.120 255.654,149.404 254.436,149.616 254.224 C 149.827 254.013,150.000 253.381,150.001 252.820 C 150.002 252.259,150.542 249.666,151.201 247.057 C 151.860 244.449,152.400 241.875,152.400 241.337 C 152.400 240.800,152.662 239.854,152.982 239.235 C 153.535 238.165,154.197 233.046,154.085 230.700 C 154.056 230.095,154.181 229.600,154.364 229.600 C 154.763 229.600,155.147 227.580,155.466 223.800 C 155.596 222.260,155.851 220.713,156.032 220.361 C 156.228 219.983,156.181 219.541,155.918 219.278 C 155.593 218.953,155.593 218.691,155.917 218.300 C 156.160 218.007,156.711 215.704,157.141 213.183 C 157.838 209.090,158.109 206.931,158.618 201.400 C 158.699 200.520,158.881 198.720,159.022 197.400 C 159.164 196.080,159.356 193.200,159.448 191.000 C 159.626 186.783,159.695 186.224,160.182 185.100 C 160.349 184.715,160.384 184.136,160.260 183.813 C 160.136 183.490,160.223 183.110,160.452 182.968 C 160.740 182.790,160.734 182.574,160.435 182.275 C 159.808 181.648,159.900 180.524,160.600 180.255 C 161.030 180.091,161.200 179.419,161.200 177.893 C 161.200 176.720,161.370 175.589,161.578 175.380 C 161.786 175.171,162.055 173.654,162.177 172.010 C 162.298 170.365,162.509 168.428,162.644 167.705 C 162.792 166.917,162.699 166.160,162.411 165.813 C 161.858 165.147,162.182 164.400,163.024 164.400 C 163.439 164.400,163.600 163.904,163.600 162.624 C 163.600 161.647,163.783 160.734,164.007 160.596 C 164.230 160.458,164.319 160.192,164.203 160.005 C 164.088 159.819,164.184 158.346,164.418 156.733 C 164.836 153.838,165.239 150.649,166.025 144.000 C 166.470 140.238,166.587 139.511,167.209 136.600 C 167.444 135.500,167.741 133.700,167.869 132.600 C 167.997 131.500,168.269 130.389,168.473 130.131 C 168.741 129.795,168.615 129.723,168.027 129.877 C 166.193 130.357,166.173 127.145,168.003 126.198 C 169.259 125.549,169.890 123.286,168.919 122.914 C 168.457 122.736,168.465 122.591,168.970 122.033 C 169.352 121.611,169.592 120.488,169.623 118.983 C 169.692 115.569,172.053 99.286,172.608 98.386 C 172.743 98.169,172.920 96.832,173.002 95.415 C 173.084 93.999,173.342 92.482,173.575 92.046 C 173.809 91.610,174.000 90.694,174.000 90.012 C 174.000 88.761,175.390 82.483,175.995 81.000 C 177.811 76.549,178.399 71.291,178.298 60.400 C 178.077 36.667,178.312 35.426,183.183 34.603 C 184.072 34.453,184.800 34.166,184.800 33.965 C 184.800 33.764,184.980 33.600,185.200 33.600 C 185.420 33.600,185.600 33.881,185.600 34.224 M184.467 182.519 C 183.741 183.394,182.340 191.895,182.361 195.300 C 182.374 197.346,182.376 198.218,182.378 202.730 C 182.379 204.523,182.167 205.997,181.831 206.530 C 180.935 207.954,180.619 212.552,181.376 213.180 C 182.254 213.909,182.156 214.514,180.982 215.617 C 180.074 216.470,179.989 216.790,180.195 218.587 C 180.444 220.750,180.264 221.236,178.964 221.920 C 178.194 222.325,178.156 222.542,178.485 224.680 C 178.682 225.956,178.991 228.260,179.172 229.800 C 180.144 238.059,180.440 238.206,197.776 239.022 C 211.075 239.648,210.844 239.681,211.359 237.104 C 211.565 236.073,211.403 235.630,210.450 234.624 C 209.530 233.654,209.253 232.943,209.118 231.200 C 209.012 229.838,208.513 228.162,207.807 226.800 C 207.180 225.590,206.562 223.798,206.434 222.817 C 206.240 221.335,206.031 220.994,205.202 220.799 C 204.138 220.549,203.656 219.384,204.335 218.705 C 204.748 218.292,204.245 217.091,202.692 214.772 C 202.291 214.174,202.029 213.088,202.065 212.172 C 202.223 208.117,201.344 206.586,199.519 207.741 C 198.477 208.400,198.074 207.597,199.100 206.907 C 200.433 206.011,200.289 204.228,198.759 202.698 C 197.713 201.651,197.553 201.243,197.741 200.086 C 197.922 198.971,197.823 198.679,197.209 198.518 C 196.795 198.410,196.322 198.024,196.160 197.661 C 195.522 196.234,194.909 193.469,195.083 192.804 C 195.187 192.405,194.771 191.522,194.115 190.752 C 193.482 190.008,192.629 188.635,192.221 187.700 C 191.813 186.765,191.367 186.000,191.230 186.000 C 191.094 186.000,190.628 185.343,190.196 184.540 C 189.054 182.421,185.569 181.191,184.467 182.519 M248.222 254.729 C 247.933 255.642,249.117 258.098,249.739 257.877 C 250.349 257.660,250.155 254.745,249.503 254.332 C 248.741 253.848,248.476 253.930,248.222 254.729 " stroke="none" fill="transparent" fill-rule="evenodd"></path></g></svg>