<svg id="svg" version="1.1" xmlns="http://www.w3.org/2000/svg" xmlns:xlink="http://www.w3.org/1999/xlink" width="400" height="400" viewBox="0, 0, 400,400"><g id="svgg"><path id="path0" d="M190.890 78.871 C 183.141 80.065,178.243 86.728,175.212 100.200 C 173.901 106.027,169.844 122.572,168.249 128.600 C 166.743 134.287,165.222 141.774,163.004 154.400 C 162.212 158.910,160.776 166.650,159.813 171.600 C 158.849 176.550,157.785 182.400,157.448 184.600 C 157.112 186.800,156.455 191.120,155.989 194.200 C 155.523 197.280,154.088 205.110,152.801 211.600 C 151.514 218.090,150.072 225.560,149.596 228.200 C 149.121 230.840,148.305 234.800,147.783 237.000 C 147.261 239.200,146.553 243.070,146.209 245.600 C 145.230 252.795,144.492 256.786,142.548 265.400 C 131.095 316.152,130.433 331.802,139.550 336.360 C 147.717 340.443,153.855 333.087,156.178 316.433 C 156.516 314.006,157.071 310.351,157.411 308.310 C 157.751 306.270,158.642 300.820,159.391 296.200 C 160.140 291.580,161.199 285.640,161.745 283.000 C 163.430 274.850,163.912 272.032,164.795 265.200 C 166.400 252.772,166.154 252.965,179.770 253.411 C 191.973 253.811,196.285 253.734,206.200 252.944 C 216.693 252.108,223.341 252.327,225.360 253.575 C 227.623 254.974,227.593 254.890,234.402 279.000 C 237.216 288.964,239.322 295.261,243.097 305.000 C 246.376 313.458,247.032 315.430,249.194 323.331 C 251.578 332.039,253.119 334.691,256.888 336.569 C 263.861 340.044,270.321 334.882,270.138 325.983 C 270.040 321.191,266.155 306.520,262.982 298.955 C 259.109 289.724,256.378 281.749,253.204 270.400 C 252.032 266.209,251.314 263.749,248.832 255.400 C 248.374 253.860,247.272 249.450,246.384 245.600 C 245.496 241.750,244.059 236.710,243.192 234.400 C 240.449 227.093,238.912 221.283,237.002 211.000 C 236.430 207.920,235.440 203.060,234.801 200.200 C 234.163 197.340,232.997 191.040,232.210 186.200 C 230.752 177.233,230.079 174.535,227.274 166.397 C 226.402 163.866,225.200 159.366,224.603 156.397 C 223.311 149.971,221.396 143.481,219.004 137.426 C 218.042 134.992,216.986 131.830,216.656 130.400 C 216.326 128.970,215.571 125.640,214.978 123.000 C 214.384 120.360,213.006 115.680,211.914 112.600 C 208.463 102.862,207.705 100.344,206.445 94.436 C 203.808 82.073,199.312 77.573,190.890 78.871 M191.912 132.500 C 192.681 133.437,193.986 138.586,197.617 155.000 C 204.385 185.600,205.245 188.581,214.985 215.200 C 220.734 230.910,220.661 231.634,213.276 232.137 C 211.364 232.268,205.480 232.677,200.200 233.047 C 191.436 233.661,189.802 233.667,181.429 233.117 L 172.257 232.515 171.281 231.380 C 170.026 229.920,170.138 228.726,172.769 215.600 C 175.355 202.697,175.518 201.787,176.219 196.400 C 176.997 190.415,178.139 183.911,179.592 177.200 C 180.235 174.230,181.394 168.470,182.168 164.400 C 187.651 135.565,189.489 129.547,191.912 132.500 " stroke="none" fill="#EC791A" fill-rule="evenodd"></path><path id="path1" d="M0.000 200.000 L 0.000 400.000 200.000 400.000 L 400.000 400.000 400.000 200.000 L 400.000 0.000 200.000 0.000 L 0.000 0.000 0.000 200.000 M198.273 79.853 C 202.428 81.816,204.568 85.633,206.445 94.436 C 207.705 100.344,208.463 102.862,211.914 112.600 C 213.006 115.680,214.384 120.360,214.978 123.000 C 215.571 125.640,216.326 128.970,216.656 130.400 C 216.986 131.830,218.042 134.992,219.004 137.426 C 221.396 143.481,223.311 149.971,224.603 156.397 C 225.200 159.366,226.402 163.866,227.274 166.397 C 230.079 174.535,230.752 177.233,232.210 186.200 C 232.997 191.040,234.163 197.340,234.801 200.200 C 235.440 203.060,236.430 207.920,237.002 211.000 C 238.912 221.283,240.449 227.093,243.192 234.400 C 244.059 236.710,245.496 241.750,246.384 245.600 C 247.272 249.450,248.374 253.860,248.832 255.400 C 251.314 263.749,252.032 266.209,253.204 270.400 C 256.378 281.749,259.109 289.724,262.982 298.955 C 266.155 306.520,270.040 321.191,270.138 325.983 C 270.321 334.882,263.861 340.044,256.888 336.569 C 253.119 334.691,251.578 332.039,249.194 323.331 C 247.032 315.430,246.376 313.458,243.097 305.000 C 239.322 295.261,237.216 288.964,234.402 279.000 C 227.593 254.890,227.623 254.974,225.360 253.575 C 223.341 252.327,216.693 252.108,206.200 252.944 C 196.285 253.734,191.973 253.811,179.770 253.411 C 166.154 252.965,166.400 252.772,164.795 265.200 C 163.912 272.032,163.430 274.850,161.745 283.000 C 161.199 285.640,160.140 291.580,159.391 296.200 C 158.642 300.820,157.751 306.270,157.411 308.310 C 157.071 310.351,156.516 314.006,156.178 316.433 C 153.855 333.087,147.717 340.443,139.550 336.360 C 130.433 331.802,131.095 316.152,142.548 265.400 C 144.492 256.786,145.230 252.795,146.209 245.600 C 146.553 243.070,147.261 239.200,147.783 237.000 C 148.305 234.800,149.121 230.840,149.596 228.200 C 150.072 225.560,151.514 218.090,152.801 211.600 C 154.088 205.110,155.523 197.280,155.989 194.200 C 156.455 191.120,157.112 186.800,157.448 184.600 C 157.785 182.400,158.849 176.550,159.813 171.600 C 160.776 166.650,162.212 158.910,163.004 154.400 C 165.222 141.774,166.743 134.287,168.249 128.600 C 169.844 122.572,173.901 106.027,175.212 100.200 C 179.098 82.927,188.052 75.026,198.273 79.853 M189.894 132.700 C 188.215 134.564,186.515 141.539,182.168 164.400 C 181.394 168.470,180.235 174.230,179.592 177.200 C 178.139 183.911,176.997 190.415,176.219 196.400 C 175.518 201.787,175.355 202.697,172.769 215.600 C 170.138 228.726,170.026 229.920,171.281 231.380 L 172.257 232.515 181.429 233.117 C 189.802 233.667,191.436 233.661,200.200 233.047 C 205.480 232.677,211.364 232.268,213.276 232.137 C 220.661 231.634,220.734 230.910,214.985 215.200 C 205.245 188.581,204.385 185.600,197.617 155.000 C 192.468 131.720,191.998 130.364,189.894 132.700 " stroke="none" fill="transparent" fill-rule="evenodd"></path></g></svg>