<svg id="svg" version="1.1" xmlns="http://www.w3.org/2000/svg" xmlns:xlink="http://www.w3.org/1999/xlink" width="400" height="400" viewBox="0, 0, 400,400"><g id="svgg"><path id="path0" d="M146.800 51.443 C 131.486 53.486,129.585 59.183,134.202 89.200 C 135.472 97.457,136.266 104.534,137.006 114.200 C 137.343 118.600,137.879 125.260,138.198 129.000 C 138.516 132.740,138.964 139.400,139.194 143.800 C 139.424 148.200,139.804 154.613,140.039 158.050 C 140.533 165.297,140.387 166.137,137.982 169.828 C 135.114 174.230,135.225 177.207,138.400 181.049 C 141.218 184.460,141.382 185.062,141.315 191.800 C 141.023 221.291,141.132 234.787,141.729 243.000 C 142.829 258.132,143.011 275.231,142.137 281.400 C 139.818 297.768,144.454 302.957,159.304 300.618 C 165.081 299.708,182.380 298.801,194.224 298.788 C 201.345 298.779,206.628 298.571,209.800 298.174 C 212.440 297.843,219.280 297.409,225.000 297.210 C 235.846 296.832,240.093 296.297,249.117 294.173 C 251.601 293.588,253.864 292.879,254.147 292.596 C 254.853 291.890,255.725 293.278,255.879 295.356 C 255.943 296.211,256.195 297.153,256.440 297.448 C 256.685 297.743,256.955 298.843,257.041 299.892 C 257.126 300.942,257.272 302.610,257.363 303.600 C 257.455 304.590,257.577 306.660,257.634 308.200 C 257.691 309.740,257.918 311.360,258.138 311.800 C 258.358 312.240,258.587 313.050,258.647 313.600 C 258.986 316.696,260.011 320.799,260.749 322.010 C 261.216 322.774,261.598 323.700,261.599 324.067 C 261.599 324.433,261.790 324.797,262.022 324.874 C 262.254 324.951,262.617 325.821,262.829 326.807 C 263.041 327.793,263.380 328.960,263.582 329.400 C 264.521 331.441,264.716 336.637,264.228 346.600 C 263.738 356.588,263.658 358.864,263.456 368.600 C 263.341 374.100,263.061 379.770,262.832 381.200 C 261.882 387.139,262.691 392.612,264.629 393.356 C 265.717 393.773,266.037 392.850,265.759 390.097 C 265.584 388.364,265.659 387.411,266.002 386.998 C 266.396 386.523,266.395 386.154,265.997 385.194 C 265.676 384.419,265.597 383.309,265.775 382.093 C 265.928 381.052,266.124 379.254,266.212 378.097 C 266.299 376.940,266.554 375.314,266.778 374.482 C 267.002 373.650,267.110 371.011,267.018 368.617 C 266.890 365.310,266.991 363.990,267.437 363.128 C 267.833 362.364,267.904 361.765,267.655 361.296 C 267.240 360.514,267.441 347.981,267.913 345.200 C 268.179 343.629,268.356 343.384,269.309 343.273 C 270.677 343.115,270.751 342.400,269.400 342.400 C 268.850 342.400,268.400 342.298,268.400 342.174 C 268.400 341.571,269.282 340.403,269.592 340.595 C 270.304 341.035,270.449 339.935,269.808 338.957 C 269.145 337.944,269.260 335.939,270.038 334.969 C 270.255 334.698,269.942 334.212,269.192 333.657 C 268.536 333.173,267.999 332.466,267.998 332.088 C 267.998 331.710,267.458 330.320,266.800 329.000 C 266.142 327.680,265.602 326.291,265.602 325.914 C 265.601 325.537,265.050 324.367,264.377 323.314 C 263.528 321.985,263.215 321.082,263.355 320.358 C 263.466 319.785,263.320 318.975,263.031 318.558 C 262.521 317.825,262.279 316.716,261.748 312.692 C 261.610 311.642,261.340 310.686,261.148 310.568 C 260.957 310.450,260.799 308.878,260.798 307.076 C 260.797 305.274,260.621 303.170,260.407 302.400 C 259.094 297.673,259.883 290.044,261.690 290.006 C 262.269 289.994,263.200 292.398,263.200 293.905 C 263.200 294.755,263.580 296.236,264.044 297.197 C 264.674 298.501,264.830 299.377,264.656 300.645 C 264.502 301.766,264.667 303.084,265.138 304.513 C 265.531 305.705,265.776 307.339,265.683 308.144 C 265.579 309.032,265.785 310.183,266.209 311.075 C 267.160 313.080,267.969 316.617,267.986 318.851 C 268.008 321.730,270.329 322.434,270.387 319.580 C 270.394 319.239,270.605 318.755,270.857 318.503 C 271.199 318.161,271.142 317.685,270.629 316.605 C 270.188 315.676,270.037 314.744,270.203 313.986 C 270.391 313.132,270.233 312.489,269.629 311.641 C 268.793 310.467,268.418 307.742,268.970 306.849 C 269.132 306.586,268.884 305.639,268.418 304.744 C 267.717 303.400,267.615 302.717,267.830 300.817 C 268.001 299.306,267.924 298.205,267.605 297.610 C 267.338 297.111,267.123 295.600,267.127 294.252 C 267.131 292.702,266.852 291.158,266.370 290.057 C 265.621 288.347,265.646 287.600,266.452 287.600 C 267.878 287.600,273.731 282.283,275.671 279.224 C 277.077 277.007,278.623 272.253,278.995 269.000 C 279.146 267.680,279.356 266.150,279.463 265.600 C 280.494 260.272,279.807 234.400,278.406 225.752 C 274.946 204.411,258.817 185.614,238.294 179.007 C 227.052 175.388,226.911 175.214,232.397 171.695 C 240.710 166.363,251.336 155.694,254.397 149.607 C 259.784 138.891,261.129 118.409,257.337 104.800 C 252.609 87.831,238.739 69.295,226.400 63.455 C 211.068 56.199,199.954 52.896,187.805 51.983 C 184.942 51.768,180.440 51.412,177.800 51.192 C 170.844 50.611,151.883 50.764,146.800 51.443 M195.200 69.770 C 201.342 70.944,208.491 73.592,217.430 78.005 C 231.559 84.980,242.800 104.746,242.800 122.617 C 242.800 131.622,242.005 133.857,235.203 143.979 C 226.654 156.702,223.351 159.057,209.400 162.381 C 199.441 164.754,192.696 165.501,172.916 166.420 C 156.280 167.194,157.039 167.985,156.020 148.800 C 155.267 134.615,154.528 124.269,152.981 106.266 C 152.644 102.343,151.745 94.194,150.984 88.158 C 149.313 74.909,149.294 70.102,150.910 69.994 C 150.960 69.991,151.720 69.719,152.600 69.390 C 154.978 68.501,190.208 68.815,195.200 69.770 M171.144 185.189 C 172.273 185.404,174.042 185.964,175.074 186.434 C 179.418 188.412,178.805 188.310,195.200 189.814 C 204.088 190.629,210.471 191.729,218.600 193.844 C 222.340 194.817,228.528 196.323,232.350 197.189 C 241.823 199.338,244.876 200.839,249.821 205.781 C 253.811 209.768,254.085 210.280,257.109 219.400 C 257.984 222.040,259.174 225.460,259.753 227.000 C 261.653 232.055,262.000 234.799,261.994 244.683 C 261.987 255.875,261.488 258.195,256.612 269.727 C 253.627 276.788,243.150 280.072,221.259 280.808 C 214.802 281.025,209.390 281.283,209.232 281.380 C 209.075 281.477,203.288 281.651,196.373 281.765 C 189.458 281.879,179.199 282.093,173.576 282.241 C 158.323 282.641,159.558 284.152,159.157 264.600 C 158.994 256.680,158.641 246.780,158.371 242.600 C 157.748 232.956,157.663 202.244,158.236 193.694 C 158.817 185.024,158.869 184.962,165.645 184.854 C 167.540 184.825,170.015 184.975,171.144 185.189 " stroke="none" fill="#EC791A" fill-rule="evenodd"></path><path id="path1" d="M0.000 200.000 L 0.000 400.000 200.000 400.000 L 400.000 400.000 400.000 200.000 L 400.000 0.000 200.000 0.000 L 0.000 0.000 0.000 200.000 M177.800 51.192 C 180.440 51.412,184.942 51.768,187.805 51.983 C 199.954 52.896,211.068 56.199,226.400 63.455 C 238.739 69.295,252.609 87.831,257.337 104.800 C 261.129 118.409,259.784 138.891,254.397 149.607 C 251.336 155.694,240.710 166.363,232.397 171.695 C 226.911 175.214,227.052 175.388,238.294 179.007 C 258.817 185.614,274.946 204.411,278.406 225.752 C 279.807 234.400,280.494 260.272,279.463 265.600 C 279.356 266.150,279.146 267.680,278.995 269.000 C 278.623 272.253,277.077 277.007,275.671 279.224 C 273.731 282.283,267.878 287.600,266.452 287.600 C 265.646 287.600,265.621 288.347,266.370 290.057 C 266.852 291.158,267.131 292.702,267.127 294.252 C 267.123 295.600,267.338 297.111,267.605 297.610 C 267.924 298.205,268.001 299.306,267.830 300.817 C 267.615 302.717,267.717 303.400,268.418 304.744 C 268.884 305.639,269.132 306.586,268.970 306.849 C 268.418 307.742,268.793 310.467,269.629 311.641 C 270.233 312.489,270.391 313.132,270.203 313.986 C 270.037 314.744,270.188 315.676,270.629 316.605 C 271.142 317.685,271.199 318.161,270.857 318.503 C 270.605 318.755,270.394 319.239,270.387 319.580 C 270.329 322.434,268.008 321.730,267.986 318.851 C 267.969 316.617,267.160 313.080,266.209 311.075 C 265.785 310.183,265.579 309.032,265.683 308.144 C 265.776 307.339,265.531 305.705,265.138 304.513 C 264.667 303.084,264.502 301.766,264.656 300.645 C 264.830 299.377,264.674 298.501,264.044 297.197 C 263.580 296.236,263.200 294.755,263.200 293.905 C 263.200 292.398,262.269 289.994,261.690 290.006 C 259.883 290.044,259.094 297.673,260.407 302.400 C 260.621 303.170,260.797 305.274,260.798 307.076 C 260.799 308.878,260.957 310.450,261.148 310.568 C 261.340 310.686,261.610 311.642,261.748 312.692 C 262.279 316.716,262.521 317.825,263.031 318.558 C 263.320 318.975,263.466 319.785,263.355 320.358 C 263.215 321.082,263.528 321.985,264.377 323.314 C 265.050 324.367,265.601 325.537,265.602 325.914 C 265.602 326.291,266.142 327.680,266.800 329.000 C 267.458 330.320,267.998 331.710,267.998 332.088 C 267.999 332.466,268.536 333.173,269.192 333.657 C 269.942 334.212,270.255 334.698,270.038 334.969 C 269.260 335.939,269.145 337.944,269.808 338.957 C 270.449 339.935,270.304 341.035,269.592 340.595 C 269.282 340.403,268.400 341.571,268.400 342.174 C 268.400 342.298,268.850 342.400,269.400 342.400 C 270.751 342.400,270.677 343.115,269.309 343.273 C 268.356 343.384,268.179 343.629,267.913 345.200 C 267.441 347.981,267.240 360.514,267.655 361.296 C 267.904 361.765,267.833 362.364,267.437 363.128 C 266.991 363.990,266.890 365.310,267.018 368.617 C 267.110 371.011,267.002 373.650,266.778 374.482 C 266.554 375.314,266.299 376.940,266.212 378.097 C 266.124 379.254,265.928 381.052,265.775 382.093 C 265.597 383.309,265.676 384.419,265.997 385.194 C 266.395 386.154,266.396 386.523,266.002 386.998 C 265.659 387.411,265.584 388.364,265.759 390.097 C 266.037 392.850,265.717 393.773,264.629 393.356 C 262.691 392.612,261.882 387.139,262.832 381.200 C 263.061 379.770,263.341 374.100,263.456 368.600 C 263.658 358.864,263.738 356.588,264.228 346.600 C 264.716 336.637,264.521 331.441,263.582 329.400 C 263.380 328.960,263.041 327.793,262.829 326.807 C 262.617 325.821,262.254 324.951,262.022 324.874 C 261.790 324.797,261.599 324.433,261.599 324.067 C 261.598 323.700,261.216 322.774,260.749 322.010 C 260.011 320.799,258.986 316.696,258.647 313.600 C 258.587 313.050,258.358 312.240,258.138 311.800 C 257.918 311.360,257.691 309.740,257.634 308.200 C 257.577 306.660,257.455 304.590,257.363 303.600 C 257.272 302.610,257.126 300.942,257.041 299.892 C 256.955 298.843,256.685 297.743,256.440 297.448 C 256.195 297.153,255.943 296.211,255.879 295.356 C 255.725 293.278,254.853 291.890,254.147 292.596 C 253.864 292.879,251.601 293.588,249.117 294.173 C 240.093 296.297,235.846 296.832,225.000 297.210 C 219.280 297.409,212.440 297.843,209.800 298.174 C 206.628 298.571,201.345 298.779,194.224 298.788 C 182.380 298.801,165.081 299.708,159.304 300.618 C 144.454 302.957,139.818 297.768,142.137 281.400 C 143.011 275.231,142.829 258.132,141.729 243.000 C 141.132 234.787,141.023 221.291,141.315 191.800 C 141.382 185.062,141.218 184.460,138.400 181.049 C 135.225 177.207,135.114 174.230,137.982 169.828 C 140.387 166.137,140.533 165.297,140.039 158.050 C 139.804 154.613,139.424 148.200,139.194 143.800 C 138.964 139.400,138.516 132.740,138.198 129.000 C 137.879 125.260,137.343 118.600,137.006 114.200 C 136.266 104.534,135.472 97.457,134.202 89.200 C 130.286 63.735,131.627 55.313,140.000 52.787 C 146.045 50.964,165.324 50.150,177.800 51.192 M152.600 69.390 C 151.720 69.719,150.960 69.991,150.910 69.994 C 149.294 70.102,149.313 74.909,150.984 88.158 C 153.025 104.342,154.784 125.527,156.020 148.800 C 157.039 167.985,156.280 167.194,172.916 166.420 C 192.696 165.501,199.441 164.754,209.400 162.381 C 223.351 159.057,226.654 156.702,235.203 143.979 C 242.005 133.857,242.800 131.622,242.800 122.617 C 242.800 107.414,235.760 92.536,223.664 82.173 C 218.254 77.539,204.508 71.549,195.200 69.770 C 190.208 68.815,154.978 68.501,152.600 69.390 M161.350 185.076 C 159.137 185.510,158.704 186.708,158.236 193.694 C 157.663 202.244,157.748 232.956,158.371 242.600 C 158.641 246.780,158.994 256.680,159.157 264.600 C 159.558 284.152,158.323 282.641,173.576 282.241 C 179.199 282.093,189.458 281.879,196.373 281.765 C 203.288 281.651,209.075 281.477,209.232 281.380 C 209.390 281.283,214.802 281.025,221.259 280.808 C 243.150 280.072,253.627 276.788,256.612 269.727 C 261.488 258.195,261.987 255.875,261.994 244.683 C 262.000 234.799,261.653 232.055,259.753 227.000 C 259.174 225.460,257.984 222.040,257.109 219.400 C 254.085 210.280,253.811 209.768,249.821 205.781 C 244.876 200.839,241.823 199.338,232.350 197.189 C 228.528 196.323,222.340 194.817,218.600 193.844 C 210.471 191.729,204.088 190.629,195.200 189.814 C 178.805 188.310,179.418 188.412,175.074 186.434 C 171.935 185.004,165.142 184.332,161.350 185.076 " stroke="none" fill="transparent" fill-rule="evenodd"></path></g></svg>