<svg id="svg" version="1.1" xmlns="http://www.w3.org/2000/svg" xmlns:xlink="http://www.w3.org/1999/xlink" width="400" height="400" viewBox="0, 0, 400,400"><g id="svgg"><path id="path0" d="M178.000 62.609 C 158.311 65.334,139.473 72.324,128.687 80.905 C 110.515 95.363,92.214 120.699,85.857 140.200 C 76.914 167.634,73.600 188.835,73.600 218.614 C 73.600 237.385,73.820 240.371,76.003 251.200 C 76.868 255.490,77.930 261.193,78.364 263.874 C 80.007 274.038,86.398 295.148,90.086 302.600 C 94.262 311.037,102.500 323.233,108.727 330.200 C 125.620 349.098,138.328 357.677,153.400 360.356 C 161.978 361.881,178.915 363.324,183.800 362.946 C 184.900 362.861,186.790 362.721,188.000 362.635 C 191.282 362.403,198.547 361.142,205.400 359.616 C 207.600 359.126,209.760 358.671,210.200 358.605 C 213.153 358.160,225.657 353.096,227.300 351.679 C 227.685 351.348,228.000 351.198,228.000 351.347 C 228.000 351.590,229.903 350.530,230.400 350.009 C 230.510 349.894,231.289 349.449,232.130 349.021 C 232.972 348.592,234.044 347.909,234.512 347.503 C 234.981 347.096,236.002 346.376,236.782 345.903 C 237.562 345.430,238.290 344.942,238.400 344.819 C 238.510 344.696,239.320 344.060,240.200 343.404 C 241.080 342.749,242.070 341.991,242.400 341.718 C 246.101 338.662,249.087 336.419,249.467 336.411 C 249.723 336.405,249.993 336.265,250.067 336.099 C 250.140 335.934,251.460 334.818,253.000 333.620 C 256.855 330.621,262.161 325.564,265.191 322.000 C 265.658 321.450,266.616 320.384,267.318 319.631 C 268.020 318.878,268.776 317.964,268.997 317.599 C 269.807 316.266,275.191 308.187,275.567 307.742 C 275.780 307.489,276.290 306.679,276.702 305.942 C 277.113 305.204,277.888 303.880,278.424 303.000 C 278.960 302.120,279.400 301.310,279.402 301.200 C 279.405 300.994,282.142 295.227,282.914 293.800 C 285.662 288.722,286.435 285.801,286.448 280.447 C 286.463 274.303,285.650 271.445,281.369 262.600 C 279.484 258.704,279.022 257.224,279.496 256.600 C 280.187 255.691,282.357 254.872,284.800 254.598 C 286.230 254.438,287.670 254.257,288.000 254.196 C 290.156 253.797,295.818 253.056,300.400 252.573 C 308.876 251.679,319.847 247.582,321.640 244.641 C 324.415 240.091,319.600 230.815,311.693 225.475 C 303.871 220.193,287.015 220.288,254.995 225.795 C 247.139 227.146,233.660 228.348,221.200 228.810 C 193.194 229.846,190.045 230.491,183.500 236.534 C 180.334 239.456,183.768 247.195,191.391 254.314 C 199.786 262.154,210.427 267.070,222.400 268.639 C 223.170 268.740,225.240 269.077,227.000 269.388 C 228.760 269.699,231.100 270.061,232.200 270.192 C 240.746 271.210,241.360 271.308,242.702 271.868 C 250.338 275.059,236.642 295.329,221.378 303.426 C 219.878 304.222,216.839 306.176,214.625 307.768 C 194.353 322.349,184.069 326.402,167.348 326.399 C 158.666 326.398,140.512 321.746,133.732 317.785 C 127.225 313.983,118.671 300.559,115.772 289.600 C 115.684 289.270,115.161 287.498,114.609 285.663 C 113.721 282.711,112.938 278.490,112.223 272.800 C 112.098 271.810,111.911 268.120,111.807 264.600 C 111.703 261.080,111.511 254.960,111.381 251.000 C 111.251 247.040,111.079 236.330,110.999 227.200 C 110.919 218.070,110.659 208.980,110.422 207.000 C 110.185 205.020,109.880 202.500,109.746 201.400 C 109.334 198.036,109.641 188.905,110.195 188.007 C 110.272 187.884,110.448 186.977,110.587 185.992 C 110.726 185.006,110.929 183.899,111.037 183.532 C 111.402 182.294,112.722 176.512,113.078 174.600 C 113.200 173.940,113.427 173.220,113.582 173.000 C 113.737 172.780,113.902 171.895,113.949 171.034 C 113.996 170.173,114.125 169.321,114.237 169.141 C 114.348 168.960,114.890 167.055,115.442 164.906 C 117.642 156.333,119.221 153.233,121.997 152.039 C 123.121 151.556,124.138 150.906,124.257 150.595 C 124.376 150.285,124.772 149.935,125.137 149.817 C 125.557 149.682,126.152 148.427,126.763 146.387 C 127.292 144.617,127.877 143.076,128.063 142.961 C 128.248 142.847,128.400 142.474,128.400 142.134 C 128.400 140.702,132.149 133.967,134.797 130.643 C 139.260 125.040,143.547 120.567,147.600 117.287 C 149.690 115.595,151.632 113.990,151.915 113.719 C 152.198 113.449,152.963 112.913,153.615 112.528 C 154.267 112.143,154.800 111.686,154.800 111.514 C 154.800 111.341,154.999 111.200,155.242 111.200 C 155.486 111.200,156.341 110.681,157.142 110.046 C 160.262 107.577,168.099 103.297,171.600 102.150 C 172.590 101.825,173.760 101.405,174.200 101.217 C 175.392 100.706,178.315 100.078,180.800 99.799 C 187.355 99.063,186.743 99.017,187.015 100.268 C 187.150 100.891,188.225 103.830,189.404 106.800 C 191.666 112.500,191.534 111.769,192.306 122.800 C 192.540 126.136,192.723 127.000,193.200 127.000 C 194.816 127.000,193.532 112.537,191.442 107.200 C 189.352 101.863,189.086 98.997,190.650 98.678 C 192.506 98.299,209.927 98.676,213.200 99.165 C 214.850 99.412,216.740 99.695,217.400 99.793 C 218.060 99.892,220.130 100.259,222.000 100.609 C 228.704 101.864,229.925 102.050,239.200 103.220 C 244.370 103.873,248.960 104.472,249.400 104.551 C 249.840 104.630,251.100 104.823,252.200 104.979 C 254.401 105.293,259.696 106.280,262.200 106.842 C 283.759 111.689,291.348 106.816,283.389 93.235 C 279.051 85.834,272.114 80.925,262.123 78.187 C 259.305 77.414,253.753 75.713,249.784 74.405 C 243.500 72.335,234.505 69.870,213.800 64.545 C 203.815 61.977,188.534 61.150,178.000 62.609 " stroke="none" fill="#EC791A" fill-rule="evenodd"></path></g></svg>