<svg id="svg" version="1.1" xmlns="http://www.w3.org/2000/svg" xmlns:xlink="http://www.w3.org/1999/xlink" width="400" height="400" viewBox="0, 0, 400,400"><g id="svgg"><path id="path0" d="M176.079 97.438 C 175.353 97.813,174.496 98.627,174.176 99.247 C 173.855 99.867,172.874 101.039,171.996 101.852 C 169.164 104.472,170.452 108.824,175.574 113.946 C 182.193 120.566,187.454 122.766,198.600 123.576 C 210.751 124.459,209.940 124.305,210.875 125.913 C 212.186 128.164,212.666 133.300,213.393 152.813 C 213.708 161.276,214.143 170.270,214.360 172.800 C 214.721 177.025,215.340 186.746,216.397 204.800 C 216.924 213.793,216.920 251.870,216.392 260.148 C 215.227 278.421,208.476 291.295,196.057 298.930 C 187.725 304.052,169.453 306.303,164.257 302.847 C 159.792 299.879,156.777 288.972,155.397 270.800 C 155.071 266.510,154.712 262.010,154.599 260.800 C 154.486 259.590,154.217 255.900,154.001 252.600 C 153.119 239.161,150.060 228.781,144.216 219.405 C 140.138 212.861,133.306 208.654,130.962 211.241 C 130.008 212.294,129.660 223.002,130.379 229.188 C 130.627 231.317,130.997 237.365,131.202 242.629 C 132.354 272.207,137.406 294.697,145.521 306.376 C 158.650 325.270,177.053 331.025,203.600 324.538 C 215.675 321.587,230.604 307.778,234.587 295.873 C 238.893 283.008,242.756 241.143,240.999 226.400 C 240.881 225.410,240.617 223.340,240.412 221.800 C 240.207 220.260,239.933 217.110,239.805 214.800 C 239.360 206.813,239.147 203.798,238.985 203.200 C 238.610 201.814,237.972 193.171,237.596 184.400 C 237.375 179.230,236.926 171.760,236.599 167.800 C 233.545 130.875,234.007 125.402,240.293 124.061 C 241.324 123.841,247.868 123.641,254.836 123.617 C 270.055 123.563,270.466 123.478,274.087 119.639 C 276.195 117.404,276.886 117.152,282.774 116.471 C 290.408 115.588,290.825 110.394,283.827 103.357 C 278.158 97.657,281.187 98.011,234.200 97.573 C 212.420 97.370,190.730 97.104,186.000 96.980 C 178.396 96.782,177.247 96.835,176.079 97.438 " stroke="none" fill="#EC791A" fill-rule="evenodd"></path><path id="path1" d="M0.000 200.000 L 0.000 400.000 200.000 400.000 L 400.000 400.000 400.000 200.000 L 400.000 0.000 200.000 0.000 L 0.000 0.000 0.000 200.000 M234.200 97.573 C 281.187 98.011,278.158 97.657,283.827 103.357 C 290.825 110.394,290.408 115.588,282.774 116.471 C 276.886 117.152,276.195 117.404,274.087 119.639 C 270.466 123.478,270.055 123.563,254.836 123.617 C 247.868 123.641,241.324 123.841,240.293 124.061 C 234.007 125.402,233.545 130.875,236.599 167.800 C 236.926 171.760,237.375 179.230,237.596 184.400 C 237.972 193.171,238.610 201.814,238.985 203.200 C 239.147 203.798,239.360 206.813,239.805 214.800 C 239.933 217.110,240.207 220.260,240.412 221.800 C 240.617 223.340,240.881 225.410,240.999 226.400 C 242.756 241.143,238.893 283.008,234.587 295.873 C 230.604 307.778,215.675 321.587,203.600 324.538 C 177.053 331.025,158.650 325.270,145.521 306.376 C 137.406 294.697,132.354 272.207,131.202 242.629 C 130.997 237.365,130.627 231.317,130.379 229.188 C 129.660 223.002,130.008 212.294,130.962 211.241 C 133.306 208.654,140.138 212.861,144.216 219.405 C 150.060 228.781,153.119 239.161,154.001 252.600 C 154.217 255.900,154.486 259.590,154.599 260.800 C 154.712 262.010,155.071 266.510,155.397 270.800 C 156.777 288.972,159.792 299.879,164.257 302.847 C 169.453 306.303,187.725 304.052,196.057 298.930 C 208.476 291.295,215.227 278.421,216.392 260.148 C 216.920 251.870,216.924 213.793,216.397 204.800 C 215.340 186.746,214.721 177.025,214.360 172.800 C 214.143 170.270,213.708 161.276,213.393 152.813 C 212.666 133.300,212.186 128.164,210.875 125.913 C 209.940 124.305,210.751 124.459,198.600 123.576 C 187.454 122.766,182.193 120.566,175.574 113.946 C 170.452 108.824,169.164 104.472,171.996 101.852 C 172.874 101.039,173.855 99.867,174.176 99.247 C 175.368 96.941,176.461 96.732,186.000 96.980 C 190.730 97.104,212.420 97.370,234.200 97.573 " stroke="none" fill="transparent" fill-rule="evenodd"></path></g></svg>