<svg id="svg" version="1.1" xmlns="http://www.w3.org/2000/svg" xmlns:xlink="http://www.w3.org/1999/xlink" width="400" height="400" viewBox="0, 0, 400,400"><g id="svgg"><path id="path0" d="M117.800 13.254 C 116.405 14.082,115.748 15.569,115.189 19.160 C 115.004 20.348,114.642 21.451,114.384 21.610 C 114.026 21.831,114.027 21.970,114.390 22.194 C 114.710 22.391,114.828 23.553,114.752 25.752 C 114.690 27.547,114.748 29.193,114.882 29.409 C 115.286 30.063,115.119 35.600,114.695 35.600 C 114.478 35.600,114.517 35.859,114.783 36.180 C 115.241 36.731,115.197 41.766,114.728 42.641 C 114.621 42.838,114.576 43.675,114.626 44.500 C 114.677 45.325,114.581 46.000,114.413 46.000 C 114.108 46.000,113.712 49.336,113.394 54.577 C 113.273 56.583,113.048 57.453,112.584 57.713 C 111.996 58.042,111.998 58.134,112.603 58.803 C 113.090 59.342,113.160 59.727,112.869 60.271 C 112.652 60.677,112.569 61.503,112.684 62.107 C 112.800 62.710,112.684 63.458,112.428 63.767 C 112.087 64.178,112.081 64.403,112.408 64.605 C 112.654 64.757,112.736 65.178,112.591 65.540 C 112.446 65.903,112.248 68.180,112.151 70.600 C 112.055 73.020,111.877 76.350,111.756 78.000 C 111.635 79.650,111.545 81.514,111.555 82.143 C 111.571 83.088,111.437 83.251,110.787 83.081 C 109.748 82.809,109.688 84.525,110.710 85.277 C 111.239 85.667,111.395 86.260,111.322 87.600 C 111.268 88.590,111.183 90.795,111.133 92.500 C 111.083 94.205,110.942 95.600,110.820 95.600 C 110.697 95.600,110.627 96.545,110.663 97.700 C 110.700 98.855,110.769 99.800,110.817 99.800 C 111.128 99.800,110.968 103.852,110.648 104.070 C 110.389 104.246,110.399 104.523,110.678 104.870 C 110.958 105.218,111.081 108.825,111.036 115.400 C 110.999 120.900,111.092 125.985,111.242 126.700 C 111.393 127.415,111.388 128.000,111.233 128.000 C 111.006 128.000,110.767 143.652,110.845 153.400 C 110.854 154.500,110.859 162.420,110.855 171.000 C 110.852 179.580,110.865 187.590,110.883 188.800 C 110.902 190.010,110.893 192.440,110.863 194.200 C 110.833 195.960,110.851 198.120,110.904 199.000 C 110.956 199.880,110.952 203.930,110.894 208.000 C 110.837 212.070,110.795 215.670,110.800 216.000 C 111.065 231.356,111.029 238.407,110.677 239.474 C 110.382 240.370,110.385 240.903,110.687 241.274 C 111.182 241.881,111.185 262.302,110.690 263.072 C 110.524 263.332,110.542 263.641,110.732 263.758 C 111.132 264.005,111.038 269.071,110.615 270.081 C 110.458 270.455,110.480 270.995,110.665 271.281 C 111.226 272.150,111.128 308.735,110.560 310.388 C 110.194 311.452,110.189 311.869,110.537 312.085 C 110.871 312.291,111.017 316.195,111.062 326.085 C 111.125 339.996,111.278 343.956,111.787 344.778 C 111.942 345.030,111.898 345.452,111.690 345.718 C 110.935 346.680,111.198 349.042,112.214 350.419 C 112.756 351.154,113.200 352.146,113.200 352.624 C 113.200 353.101,113.560 353.950,114.000 354.509 C 114.440 355.069,114.800 355.824,114.800 356.188 C 114.800 357.148,116.034 360.774,116.448 361.030 C 116.971 361.353,116.879 360.520,116.128 358.140 C 115.350 355.671,115.369 355.629,117.129 355.897 C 118.061 356.039,118.712 356.487,119.309 357.399 C 119.778 358.113,120.904 359.168,121.811 359.742 C 122.718 360.316,123.880 361.149,124.392 361.593 C 124.904 362.037,125.503 362.400,125.723 362.400 C 125.944 362.400,126.724 362.857,127.456 363.416 C 128.188 363.974,130.005 364.889,131.494 365.450 C 132.982 366.010,134.434 366.662,134.720 366.900 C 135.115 367.227,135.295 367.124,135.466 366.470 C 135.590 365.997,135.867 365.718,136.082 365.851 C 136.668 366.213,139.564 364.704,139.826 363.901 C 139.951 363.516,140.457 363.101,140.950 362.977 C 141.677 362.794,141.865 362.436,141.945 361.080 C 142.001 360.125,142.292 359.268,142.622 359.084 C 142.940 358.906,143.200 358.334,143.200 357.813 C 143.200 357.293,143.425 356.784,143.700 356.684 C 144.041 356.559,143.904 356.216,143.268 355.605 C 142.252 354.628,142.338 352.896,143.434 352.279 C 143.899 352.017,143.914 351.794,143.517 351.079 C 142.831 349.845,142.855 349.619,143.884 347.640 C 145.402 344.724,145.065 343.002,143.174 344.014 C 142.640 344.300,142.400 344.300,142.400 344.014 C 142.400 343.786,142.561 343.600,142.758 343.600 C 143.239 343.600,143.207 334.795,142.722 333.870 C 142.419 333.292,142.512 333.096,143.170 332.924 C 144.119 332.676,144.205 332.365,143.516 331.676 C 143.224 331.384,143.017 329.887,142.993 327.882 C 142.971 326.062,142.818 324.353,142.653 324.086 C 142.467 323.784,142.589 323.600,142.976 323.600 C 143.781 323.600,143.786 322.846,142.983 322.538 C 142.450 322.334,142.442 322.212,142.927 321.651 C 143.520 320.964,143.578 313.735,142.998 312.797 C 142.843 312.546,143.108 311.924,143.587 311.414 L 144.458 310.486 143.590 309.878 C 142.897 309.393,142.774 309.027,142.984 308.073 C 143.139 307.367,143.070 306.767,142.817 306.610 C 142.580 306.464,142.492 306.175,142.620 305.967 C 142.855 305.587,143.359 296.653,143.250 294.800 C 142.998 290.532,143.016 286.445,143.290 285.651 C 143.486 285.083,143.450 284.502,143.202 284.202 C 142.973 283.927,142.892 283.427,143.020 283.091 C 143.149 282.756,143.059 282.360,142.821 282.213 C 142.582 282.065,142.512 281.743,142.664 281.496 C 143.332 280.416,143.194 276.800,142.485 276.787 C 141.854 276.776,141.856 276.732,142.518 276.230 C 143.027 275.844,143.163 275.391,142.984 274.680 C 142.846 274.127,142.953 273.261,143.223 272.756 C 143.586 272.079,143.595 271.798,143.257 271.686 C 142.695 271.498,142.646 270.400,143.200 270.400 C 143.420 270.400,143.600 270.040,143.600 269.600 C 143.600 269.160,143.443 268.800,143.251 268.800 C 143.059 268.800,142.945 267.945,142.997 266.900 C 143.056 265.732,143.267 265.039,143.546 265.100 C 144.176 265.239,144.092 263.955,143.413 263.059 C 143.030 262.553,142.961 262.029,143.195 261.414 C 143.384 260.917,143.449 259.394,143.340 258.031 C 143.206 256.350,143.307 255.353,143.652 254.937 C 144.073 254.431,144.046 254.258,143.501 253.953 C 143.020 253.683,142.897 253.231,143.049 252.291 C 143.164 251.581,143.304 250.650,143.361 250.223 C 143.417 249.795,143.674 249.375,143.931 249.290 C 144.607 249.064,144.509 248.400,143.800 248.400 C 143.146 248.400,143.155 248.447,142.992 243.800 C 142.925 241.878,143.058 240.383,143.325 240.057 C 143.662 239.645,143.604 239.392,143.088 239.015 C 142.450 238.549,142.458 238.456,143.202 237.598 C 143.692 237.033,143.864 236.510,143.650 236.240 C 142.905 235.300,142.701 232.000,143.388 232.000 C 143.738 232.000,144.129 231.730,144.255 231.400 C 144.627 230.432,145.201 230.704,145.797 232.132 C 146.103 232.864,146.634 233.696,146.977 233.981 C 147.320 234.265,147.600 234.902,147.600 235.395 C 147.600 235.888,147.961 236.752,148.403 237.313 C 148.845 237.875,149.319 239.159,149.458 240.167 C 149.596 241.175,149.831 242.000,149.980 242.000 C 150.130 242.000,150.547 242.618,150.907 243.374 C 151.267 244.130,152.111 245.154,152.781 245.649 C 153.601 246.256,154.000 246.894,154.000 247.600 C 154.000 248.240,154.460 249.091,155.176 249.777 C 156.167 250.726,156.346 251.198,156.310 252.768 C 156.279 254.130,156.561 255.133,157.360 256.495 C 157.961 257.521,158.463 258.954,158.476 259.680 C 158.493 260.597,158.851 261.329,159.650 262.077 C 160.532 262.903,160.800 263.515,160.800 264.697 C 160.800 265.546,160.960 266.411,161.156 266.620 C 161.483 266.969,162.684 270.775,163.029 272.555 C 163.109 272.970,163.451 273.614,163.788 273.986 C 164.148 274.384,164.400 275.409,164.400 276.474 C 164.400 278.173,164.480 278.307,165.700 278.658 C 166.860 278.992,167.001 279.190,167.013 280.507 C 167.023 281.600,167.349 282.322,168.270 283.291 C 169.681 284.776,171.200 287.594,171.200 288.728 C 171.200 289.146,171.856 290.184,172.658 291.034 C 174.501 292.988,175.180 294.614,175.269 297.286 C 175.348 299.633,175.734 300.400,176.840 300.400 C 178.174 300.400,178.818 302.063,178.988 305.948 C 179.076 307.952,179.283 309.811,179.449 310.079 C 179.772 310.601,179.718 321.440,179.368 326.400 C 179.251 328.050,178.637 331.380,178.003 333.800 C 176.891 338.049,176.844 338.602,176.661 349.899 L 176.471 361.597 177.735 362.587 C 178.931 363.523,179.016 363.769,179.285 367.088 C 179.659 371.691,180.512 376.063,181.687 379.400 C 181.919 380.060,182.130 380.988,182.155 381.462 C 182.180 381.936,182.329 382.244,182.487 382.146 C 182.870 381.909,185.421 387.030,185.801 388.800 C 185.967 389.570,186.349 390.555,186.651 390.989 C 186.953 391.423,187.200 392.069,187.200 392.425 C 187.200 392.780,187.830 393.645,188.600 394.345 C 189.370 395.046,190.000 395.885,190.000 396.210 C 190.000 396.534,190.180 396.800,190.400 396.800 C 190.620 396.800,190.800 396.635,190.800 396.433 C 190.800 396.231,190.902 395.800,191.027 395.475 C 191.165 395.115,190.618 394.254,189.627 393.273 C 188.732 392.387,188.000 391.325,188.000 390.911 C 188.000 390.498,187.841 389.989,187.647 389.780 C 187.453 389.571,186.898 387.960,186.413 386.200 C 185.928 384.440,185.277 382.409,184.966 381.686 C 184.655 380.964,184.400 379.959,184.400 379.453 C 184.400 378.947,184.265 378.398,184.100 378.234 C 183.693 377.827,182.816 373.850,183.078 373.600 C 183.193 373.490,183.583 373.842,183.944 374.383 C 184.552 375.294,187.089 378.000,187.335 378.000 C 187.395 378.000,187.452 376.335,187.462 374.300 C 187.472 372.265,187.609 368.080,187.768 365.000 C 187.926 361.920,188.052 359.130,188.047 358.800 C 188.043 358.470,188.045 356.940,188.053 355.400 C 188.061 353.860,188.067 352.330,188.066 352.000 C 188.066 351.670,187.986 349.290,187.889 346.711 C 187.773 343.627,187.850 342.107,188.115 342.271 C 188.367 342.427,188.421 342.140,188.261 341.501 C 188.079 340.775,188.186 340.414,188.636 340.242 C 189.697 339.834,189.840 339.935,191.124 342.000 C 191.807 343.100,192.542 344.000,192.757 344.000 C 192.971 344.000,193.260 344.360,193.400 344.799 C 193.539 345.239,194.069 345.702,194.576 345.830 C 195.084 345.957,195.698 346.498,195.941 347.031 C 196.184 347.564,196.567 348.000,196.791 348.000 C 197.016 348.000,197.200 348.247,197.200 348.548 C 197.200 348.850,197.830 349.525,198.601 350.048 C 199.371 350.572,200.104 351.317,200.229 351.704 C 200.354 352.092,200.971 352.675,201.600 353.000 C 202.229 353.325,202.858 353.953,202.999 354.396 C 203.139 354.838,203.506 355.200,203.813 355.200 C 204.121 355.200,204.894 355.710,205.531 356.332 C 207.141 357.906,211.502 358.133,215.400 356.846 C 218.246 355.905,220.094 355.467,221.208 355.467 C 221.919 355.467,222.400 355.257,222.400 354.947 C 222.400 354.662,222.760 354.235,223.200 354.000 C 223.640 353.765,224.000 353.332,224.000 353.040 C 224.000 352.747,224.316 352.079,224.703 351.554 C 225.090 351.029,225.405 350.060,225.403 349.400 C 225.401 348.740,225.544 348.094,225.720 347.964 C 225.897 347.834,225.817 347.236,225.543 346.635 C 225.219 345.924,225.185 345.448,225.445 345.271 C 225.869 344.983,225.853 342.999,225.378 336.711 C 225.166 333.915,225.217 332.662,225.558 332.250 C 225.928 331.805,225.919 331.640,225.517 331.506 C 225.233 331.411,224.983 330.808,224.962 330.167 C 224.862 327.124,224.619 325.135,224.324 324.953 C 223.783 324.618,223.962 324.000,224.600 324.000 C 225.346 324.000,225.389 323.358,224.662 323.079 C 224.366 322.966,224.108 322.328,224.089 321.661 C 224.070 320.995,223.849 320.066,223.598 319.596 C 222.983 318.447,222.832 314.825,223.350 313.656 C 223.684 312.902,223.632 312.613,223.090 312.217 C 222.718 311.944,222.529 311.605,222.670 311.463 C 222.812 311.321,222.618 310.862,222.238 310.442 C 221.785 309.942,221.695 309.589,221.975 309.416 C 222.418 309.142,222.141 306.148,221.603 305.400 C 221.030 304.603,220.843 303.030,221.262 302.526 C 221.577 302.145,221.524 301.946,221.059 301.767 C 220.590 301.587,220.466 301.102,220.574 299.863 C 220.653 298.948,220.545 297.987,220.332 297.726 C 220.091 297.430,220.084 296.977,220.315 296.526 C 220.800 295.574,220.419 290.160,219.728 288.200 C 219.651 287.980,219.400 286.540,219.172 285.000 C 218.943 283.460,218.455 281.210,218.087 280.000 C 217.313 277.453,217.152 274.338,217.772 273.892 C 218.054 273.690,217.944 273.390,217.450 273.012 C 216.993 272.663,216.798 272.182,216.951 271.783 C 217.092 271.415,216.859 270.645,216.419 270.026 C 215.842 269.217,215.753 268.807,216.080 268.480 C 216.408 268.152,216.407 267.890,216.075 267.491 C 215.751 267.100,215.739 266.338,216.030 264.774 C 216.612 261.658,216.611 261.684,216.238 258.507 C 216.048 256.889,215.650 255.408,215.336 255.147 C 214.918 254.800,214.835 254.104,215.010 252.440 C 215.174 250.894,214.992 249.032,214.423 246.428 C 213.971 244.354,213.600 242.244,213.600 241.741 C 213.600 241.091,213.426 240.892,213.000 241.055 C 212.551 241.228,212.400 240.991,212.400 240.109 C 212.400 239.463,212.265 238.798,212.100 238.633 C 211.696 238.229,211.716 236.000,212.124 236.000 C 212.541 236.000,211.997 230.272,211.553 229.982 C 211.369 229.863,211.411 229.069,211.646 228.219 C 211.999 226.941,211.967 226.613,211.463 226.331 C 210.928 226.032,210.923 225.856,211.424 224.895 C 212.101 223.597,212.179 222.000,211.565 222.000 C 211.284 222.000,211.219 221.469,211.383 220.500 C 211.551 219.500,211.451 218.747,211.080 218.241 C 210.661 217.669,210.612 217.031,210.879 215.641 C 211.073 214.629,211.142 213.260,211.031 212.600 C 210.725 210.776,210.619 203.016,210.895 202.571 C 211.028 202.355,210.941 201.445,210.701 200.548 C 210.353 199.244,210.390 198.606,210.884 197.359 C 211.336 196.219,211.397 195.531,211.108 194.800 C 210.645 193.626,210.433 188.691,210.833 188.400 C 210.984 188.290,210.975 187.329,210.812 186.265 C 210.587 184.796,210.647 184.280,211.058 184.122 C 211.633 183.902,211.820 182.800,211.282 182.800 C 210.997 182.800,210.813 180.881,210.708 176.800 C 210.653 174.695,211.199 171.600,211.625 171.600 C 212.221 171.600,212.060 170.509,211.428 170.266 C 211.007 170.104,210.854 169.290,210.847 167.176 C 210.842 165.596,210.738 164.204,210.615 164.082 C 210.493 163.960,210.780 163.447,211.253 162.944 C 212.250 161.882,212.078 158.499,210.996 157.894 C 210.132 157.410,210.265 156.882,211.300 156.679 L 212.200 156.502 211.257 156.193 C 210.148 155.830,210.248 153.673,211.436 152.361 C 212.056 151.675,212.058 151.548,211.453 150.624 C 210.538 149.229,210.608 147.743,211.600 147.484 C 212.652 147.209,212.632 146.400,211.573 146.400 C 210.940 146.400,210.803 146.220,210.989 145.634 C 211.123 145.212,211.036 144.746,210.797 144.598 C 210.512 144.422,210.495 144.167,210.749 143.862 C 210.962 143.605,211.092 141.776,211.037 139.798 C 210.981 137.766,211.126 135.872,211.369 135.448 C 211.693 134.883,211.671 134.649,211.283 134.509 C 210.887 134.366,210.875 134.192,211.231 133.763 C 211.486 133.456,211.597 132.832,211.478 132.378 C 211.346 131.871,211.482 131.467,211.831 131.333 C 212.778 130.969,212.556 129.497,211.600 129.800 C 210.666 130.097,210.667 130.101,211.242 128.451 C 211.571 127.507,211.565 127.040,211.217 126.620 C 210.856 126.186,210.892 125.782,211.375 124.849 C 212.104 123.439,212.191 121.765,211.556 121.373 C 211.006 121.033,211.382 118.382,212.037 117.977 C 212.317 117.804,212.368 117.472,212.166 117.145 C 211.564 116.171,211.616 113.600,212.238 113.600 C 212.547 113.600,212.800 113.240,212.800 112.800 C 212.800 112.360,212.640 112.000,212.445 112.000 C 211.953 112.000,211.661 109.699,212.098 109.262 C 212.294 109.066,212.460 107.544,212.466 105.881 C 212.475 103.600,212.622 102.800,213.064 102.631 C 213.387 102.507,213.540 102.226,213.404 102.006 C 212.423 100.419,212.564 90.679,213.595 88.751 C 213.805 88.360,213.778 87.938,213.528 87.688 C 213.242 87.402,213.262 86.823,213.593 85.820 C 213.857 85.021,213.980 84.125,213.866 83.829 C 213.721 83.451,213.902 83.354,214.475 83.504 C 215.166 83.685,215.232 83.601,214.908 82.959 C 214.462 82.073,214.604 79.178,215.111 78.835 C 215.750 78.403,216.003 77.200,215.454 77.200 C 214.723 77.200,214.763 74.765,215.508 73.908 C 215.997 73.345,216.016 73.101,215.606 72.608 C 215.213 72.134,215.210 72.000,215.594 72.000 C 215.872 72.000,215.980 71.740,215.843 71.400 C 215.709 71.070,215.490 70.528,215.355 70.195 C 215.180 69.761,215.292 69.660,215.752 69.837 C 216.671 70.190,217.123 68.812,216.249 68.323 C 215.579 67.949,215.658 65.655,216.377 64.600 C 216.730 64.081,216.622 61.209,216.215 60.281 C 216.000 59.790,216.118 59.402,216.588 59.058 C 217.219 58.597,217.225 58.435,216.669 57.103 C 216.335 56.304,216.157 55.286,216.273 54.842 C 216.397 54.366,216.151 53.610,215.675 53.005 C 214.866 51.975,214.164 49.242,214.357 47.870 C 214.418 47.444,214.157 47.060,213.730 46.947 C 213.329 46.840,212.550 45.819,212.000 44.677 C 211.450 43.534,210.645 42.275,210.212 41.877 C 209.779 41.479,209.407 40.747,209.385 40.250 C 209.342 39.283,208.522 38.311,206.580 36.928 C 205.915 36.455,205.124 35.605,204.822 35.040 C 204.519 34.475,203.937 33.907,203.529 33.777 C 203.120 33.648,202.208 33.015,201.503 32.371 C 200.798 31.727,199.997 31.200,199.723 31.200 C 199.449 31.200,198.500 30.823,197.615 30.361 C 196.442 29.749,195.464 29.560,194.003 29.661 C 192.901 29.738,191.945 29.635,191.877 29.433 C 191.714 28.943,190.000 30.808,190.000 31.475 C 190.000 31.764,189.744 32.000,189.431 32.000 C 189.118 32.000,188.648 32.675,188.386 33.500 C 188.125 34.325,187.688 35.360,187.416 35.800 C 187.144 36.240,186.687 37.320,186.400 38.200 C 186.113 39.080,185.628 40.186,185.321 40.658 C 185.014 41.131,184.792 42.301,184.829 43.258 C 184.865 44.216,184.691 46.260,184.441 47.800 C 183.747 52.084,183.625 53.162,183.482 56.330 C 183.409 57.942,183.163 59.382,182.936 59.530 C 182.710 59.679,182.501 60.496,182.472 61.346 C 182.444 62.197,182.213 63.143,181.959 63.450 C 181.678 63.787,181.580 64.745,181.708 65.883 C 181.825 66.915,181.756 68.189,181.557 68.714 C 181.357 69.239,181.116 72.488,181.021 75.934 C 180.810 83.598,180.461 88.754,179.974 91.400 C 179.573 93.582,179.194 97.677,179.056 101.324 C 178.999 102.853,178.768 103.773,178.384 104.012 C 177.895 104.316,177.885 104.513,178.321 105.217 C 178.914 106.173,178.594 111.428,177.888 112.314 C 177.607 112.667,177.623 113.105,177.939 113.714 C 178.409 114.622,178.379 117.863,177.893 118.650 C 177.744 118.891,177.743 119.210,177.892 119.358 C 178.298 119.765,178.405 123.235,178.053 124.600 C 177.883 125.260,177.866 126.374,178.016 127.075 C 178.166 127.776,178.152 129.216,177.985 130.275 C 177.817 131.334,177.624 133.550,177.555 135.200 C 177.445 137.825,177.312 138.281,176.489 138.845 C 175.669 139.407,175.622 139.565,176.125 140.067 C 176.728 140.671,176.783 143.956,176.212 145.300 C 175.747 146.393,173.895 146.198,173.338 144.997 C 172.968 144.201,172.983 144.000,173.411 144.000 C 174.474 144.000,174.568 142.304,173.551 141.478 C 173.028 141.054,172.583 140.503,172.562 140.254 C 172.542 140.004,172.319 139.299,172.067 138.687 C 171.722 137.847,171.724 137.390,172.075 136.828 C 172.448 136.232,172.407 135.950,171.870 135.413 C 171.502 135.044,171.194 134.261,171.186 133.671 C 171.178 133.082,170.914 132.150,170.600 131.600 C 169.863 130.311,169.867 130.086,170.624 129.929 C 171.124 129.826,171.013 129.485,170.059 128.209 C 169.127 126.962,168.956 126.456,169.267 125.874 C 169.486 125.466,169.562 125.028,169.436 124.903 C 169.310 124.777,169.401 124.440,169.638 124.154 C 170.138 123.552,169.794 122.800,169.020 122.800 C 168.277 122.800,167.919 121.066,168.399 119.802 C 168.952 118.349,168.911 118.122,168.053 117.898 C 167.156 117.663,166.670 115.279,167.347 114.435 C 167.689 114.008,167.675 113.828,167.292 113.699 C 166.631 113.476,165.445 111.200,165.990 111.200 C 166.215 111.200,166.400 110.840,166.400 110.400 C 166.400 109.960,166.202 109.645,165.959 109.700 C 165.311 109.847,164.527 106.855,164.714 104.947 C 164.802 104.038,164.695 103.183,164.476 103.047 C 164.256 102.911,164.172 102.082,164.290 101.204 C 164.420 100.234,164.313 99.378,164.018 99.021 C 163.750 98.699,163.640 98.260,163.772 98.045 C 163.905 97.831,163.829 97.542,163.605 97.403 C 163.381 97.264,163.305 96.722,163.436 96.198 C 163.568 95.674,163.523 95.010,163.338 94.723 C 163.152 94.435,162.989 93.554,162.976 92.763 C 162.962 91.973,162.641 90.674,162.262 89.875 C 161.883 89.076,161.592 87.833,161.615 87.112 C 161.639 86.390,161.567 85.035,161.456 84.100 C 161.341 83.137,161.421 82.400,161.639 82.400 C 161.851 82.400,161.641 81.882,161.172 81.248 C 160.486 80.319,160.406 79.937,160.760 79.274 C 161.340 78.191,161.316 78.000,160.602 78.000 C 160.132 78.000,160.026 77.529,160.104 75.800 C 160.172 74.288,160.051 73.600,159.718 73.600 C 159.443 73.600,159.254 73.123,159.282 72.500 C 159.392 70.057,158.644 64.146,158.124 63.347 C 157.819 62.877,157.605 62.337,157.648 62.147 C 157.691 61.956,157.576 61.451,157.392 61.024 C 157.169 60.508,157.222 60.193,157.549 60.084 C 157.893 59.969,157.833 59.766,157.353 59.415 C 156.541 58.822,156.438 58.372,156.202 54.400 C 156.059 51.994,155.862 51.267,155.203 50.728 C 154.751 50.359,154.428 49.909,154.486 49.728 C 154.544 49.548,153.821 47.549,152.880 45.287 C 151.939 43.025,151.281 40.992,151.419 40.770 C 151.732 40.263,150.835 39.131,150.355 39.428 C 150.160 39.549,149.995 39.322,149.988 38.924 C 149.974 38.070,144.221 30.139,141.300 26.947 C 140.805 26.406,140.400 25.916,140.400 25.857 C 140.400 25.798,139.320 24.646,138.000 23.297 C 136.680 21.948,135.600 20.654,135.600 20.422 C 135.600 20.190,135.330 20.000,135.000 20.000 C 134.670 20.000,134.400 19.726,134.400 19.390 C 134.400 19.055,133.959 18.613,133.421 18.408 C 132.882 18.203,132.143 17.579,131.777 17.021 C 131.412 16.463,130.971 16.094,130.799 16.201 C 130.626 16.307,128.987 15.634,127.156 14.705 C 123.556 12.879,119.495 12.249,117.800 13.254 M144.885 228.276 C 145.042 228.360,144.968 228.872,144.721 229.414 C 144.182 230.597,142.800 230.754,142.800 229.633 C 142.800 227.851,143.383 227.472,144.885 228.276 " stroke="none" fill="#EC791A" fill-rule="evenodd"></path><path id="path1" d="M0.000 200.000 L 0.000 400.000 200.000 400.000 L 400.000 400.000 400.000 200.000 L 400.000 0.000 200.000 0.000 L 0.000 0.000 0.000 200.000 M127.156 14.705 C 128.987 15.634,130.626 16.307,130.799 16.201 C 130.971 16.094,131.412 16.463,131.777 17.021 C 132.143 17.579,132.882 18.203,133.421 18.408 C 133.959 18.613,134.400 19.055,134.400 19.390 C 134.400 19.726,134.670 20.000,135.000 20.000 C 135.330 20.000,135.600 20.190,135.600 20.422 C 135.600 20.654,136.680 21.948,138.000 23.297 C 139.320 24.646,140.400 25.798,140.400 25.857 C 140.400 25.916,140.805 26.406,141.300 26.947 C 144.221 30.139,149.974 38.070,149.988 38.924 C 149.995 39.322,150.160 39.549,150.355 39.428 C 150.835 39.131,151.732 40.263,151.419 40.770 C 151.281 40.992,151.939 43.025,152.880 45.287 C 153.821 47.549,154.544 49.548,154.486 49.728 C 154.428 49.909,154.751 50.359,155.203 50.728 C 155.862 51.267,156.059 51.994,156.202 54.400 C 156.438 58.372,156.541 58.822,157.353 59.415 C 157.833 59.766,157.893 59.969,157.549 60.084 C 157.222 60.193,157.169 60.508,157.392 61.024 C 157.576 61.451,157.691 61.956,157.648 62.147 C 157.605 62.337,157.819 62.877,158.124 63.347 C 158.644 64.146,159.392 70.057,159.282 72.500 C 159.254 73.123,159.443 73.600,159.718 73.600 C 160.051 73.600,160.172 74.288,160.104 75.800 C 160.026 77.529,160.132 78.000,160.602 78.000 C 161.316 78.000,161.340 78.191,160.760 79.274 C 160.406 79.937,160.486 80.319,161.172 81.248 C 161.641 81.882,161.851 82.400,161.639 82.400 C 161.421 82.400,161.341 83.137,161.456 84.100 C 161.567 85.035,161.639 86.390,161.615 87.112 C 161.592 87.833,161.883 89.076,162.262 89.875 C 162.641 90.674,162.962 91.973,162.976 92.763 C 162.989 93.554,163.152 94.435,163.338 94.723 C 163.523 95.010,163.568 95.674,163.436 96.198 C 163.305 96.722,163.381 97.264,163.605 97.403 C 163.829 97.542,163.905 97.831,163.772 98.045 C 163.640 98.260,163.750 98.699,164.018 99.021 C 164.313 99.378,164.420 100.234,164.290 101.204 C 164.172 102.082,164.256 102.911,164.476 103.047 C 164.695 103.183,164.802 104.038,164.714 104.947 C 164.527 106.855,165.311 109.847,165.959 109.700 C 166.202 109.645,166.400 109.960,166.400 110.400 C 166.400 110.840,166.215 111.200,165.990 111.200 C 165.445 111.200,166.631 113.476,167.292 113.699 C 167.675 113.828,167.689 114.008,167.347 114.435 C 166.670 115.279,167.156 117.663,168.053 117.898 C 168.911 118.122,168.952 118.349,168.399 119.802 C 167.919 121.066,168.277 122.800,169.020 122.800 C 169.794 122.800,170.138 123.552,169.638 124.154 C 169.401 124.440,169.310 124.777,169.436 124.903 C 169.562 125.028,169.486 125.466,169.267 125.874 C 168.956 126.456,169.127 126.962,170.059 128.209 C 171.013 129.485,171.124 129.826,170.624 129.929 C 169.867 130.086,169.863 130.311,170.600 131.600 C 170.914 132.150,171.178 133.082,171.186 133.671 C 171.194 134.261,171.502 135.044,171.870 135.413 C 172.407 135.950,172.448 136.232,172.075 136.828 C 171.724 137.390,171.722 137.847,172.067 138.687 C 172.319 139.299,172.542 140.004,172.562 140.254 C 172.583 140.503,173.028 141.054,173.551 141.478 C 174.568 142.304,174.474 144.000,173.411 144.000 C 172.983 144.000,172.968 144.201,173.338 144.997 C 173.895 146.198,175.747 146.393,176.212 145.300 C 176.783 143.956,176.728 140.671,176.125 140.067 C 175.622 139.565,175.669 139.407,176.489 138.845 C 177.312 138.281,177.445 137.825,177.555 135.200 C 177.624 133.550,177.817 131.334,177.985 130.275 C 178.152 129.216,178.166 127.776,178.016 127.075 C 177.866 126.374,177.883 125.260,178.053 124.600 C 178.405 123.235,178.298 119.765,177.892 119.358 C 177.743 119.210,177.744 118.891,177.893 118.650 C 178.379 117.863,178.409 114.622,177.939 113.714 C 177.623 113.105,177.607 112.667,177.888 112.314 C 178.594 111.428,178.914 106.173,178.321 105.217 C 177.885 104.513,177.895 104.316,178.384 104.012 C 178.768 103.773,178.999 102.853,179.056 101.324 C 179.194 97.677,179.573 93.582,179.974 91.400 C 180.461 88.754,180.810 83.598,181.021 75.934 C 181.116 72.488,181.357 69.239,181.557 68.714 C 181.756 68.189,181.825 66.915,181.708 65.883 C 181.580 64.745,181.678 63.787,181.959 63.450 C 182.213 63.143,182.444 62.197,182.472 61.346 C 182.501 60.496,182.710 59.679,182.936 59.530 C 183.163 59.382,183.409 57.942,183.482 56.330 C 183.625 53.162,183.747 52.084,184.441 47.800 C 184.691 46.260,184.865 44.216,184.829 43.258 C 184.792 42.301,185.014 41.131,185.321 40.658 C 185.628 40.186,186.113 39.080,186.400 38.200 C 186.687 37.320,187.144 36.240,187.416 35.800 C 187.688 35.360,188.125 34.325,188.386 33.500 C 188.648 32.675,189.118 32.000,189.431 32.000 C 189.744 32.000,190.000 31.764,190.000 31.475 C 190.000 30.808,191.714 28.943,191.877 29.433 C 191.945 29.635,192.901 29.738,194.003 29.661 C 195.464 29.560,196.442 29.749,197.615 30.361 C 198.500 30.823,199.449 31.200,199.723 31.200 C 199.997 31.200,200.798 31.727,201.503 32.371 C 202.208 33.015,203.120 33.648,203.529 33.777 C 203.937 33.907,204.519 34.475,204.822 35.040 C 205.124 35.605,205.915 36.455,206.580 36.928 C 208.522 38.311,209.342 39.283,209.385 40.250 C 209.407 40.747,209.779 41.479,210.212 41.877 C 210.645 42.275,211.450 43.534,212.000 44.677 C 212.550 45.819,213.329 46.840,213.730 46.947 C 214.157 47.060,214.418 47.444,214.357 47.870 C 214.164 49.242,214.866 51.975,215.675 53.005 C 216.151 53.610,216.397 54.366,216.273 54.842 C 216.157 55.286,216.335 56.304,216.669 57.103 C 217.225 58.435,217.219 58.597,216.588 59.058 C 216.118 59.402,216.000 59.790,216.215 60.281 C 216.622 61.209,216.730 64.081,216.377 64.600 C 215.658 65.655,215.579 67.949,216.249 68.323 C 217.123 68.812,216.671 70.190,215.752 69.837 C 215.292 69.660,215.180 69.761,215.355 70.195 C 215.490 70.528,215.709 71.070,215.843 71.400 C 215.980 71.740,215.872 72.000,215.594 72.000 C 215.210 72.000,215.213 72.134,215.606 72.608 C 216.016 73.101,215.997 73.345,215.508 73.908 C 214.763 74.765,214.723 77.200,215.454 77.200 C 216.003 77.200,215.750 78.403,215.111 78.835 C 214.604 79.178,214.462 82.073,214.908 82.959 C 215.232 83.601,215.166 83.685,214.475 83.504 C 213.902 83.354,213.721 83.451,213.866 83.829 C 213.980 84.125,213.857 85.021,213.593 85.820 C 213.262 86.823,213.242 87.402,213.528 87.688 C 213.778 87.938,213.805 88.360,213.595 88.751 C 212.564 90.679,212.423 100.419,213.404 102.006 C 213.540 102.226,213.387 102.507,213.064 102.631 C 212.622 102.800,212.475 103.600,212.466 105.881 C 212.460 107.544,212.294 109.066,212.098 109.262 C 211.661 109.699,211.953 112.000,212.445 112.000 C 212.640 112.000,212.800 112.360,212.800 112.800 C 212.800 113.240,212.547 113.600,212.238 113.600 C 211.616 113.600,211.564 116.171,212.166 117.145 C 212.368 117.472,212.317 117.804,212.037 117.977 C 211.382 118.382,211.006 121.033,211.556 121.373 C 212.191 121.765,212.104 123.439,211.375 124.849 C 210.892 125.782,210.856 126.186,211.217 126.620 C 211.565 127.040,211.571 127.507,211.242 128.451 C 210.667 130.101,210.666 130.097,211.600 129.800 C 212.556 129.497,212.778 130.969,211.831 131.333 C 211.482 131.467,211.346 131.871,211.478 132.378 C 211.597 132.832,211.486 133.456,211.231 133.763 C 210.875 134.192,210.887 134.366,211.283 134.509 C 211.671 134.649,211.693 134.883,211.369 135.448 C 211.126 135.872,210.981 137.766,211.037 139.798 C 211.092 141.776,210.962 143.605,210.749 143.862 C 210.495 144.167,210.512 144.422,210.797 144.598 C 211.036 144.746,211.123 145.212,210.989 145.634 C 210.803 146.220,210.940 146.400,211.573 146.400 C 212.632 146.400,212.652 147.209,211.600 147.484 C 210.608 147.743,210.538 149.229,211.453 150.624 C 212.058 151.548,212.056 151.675,211.436 152.361 C 210.248 153.673,210.148 155.830,211.257 156.193 L 212.200 156.502 211.300 156.679 C 210.265 156.882,210.132 157.410,210.996 157.894 C 212.078 158.499,212.250 161.882,211.253 162.944 C 210.780 163.447,210.493 163.960,210.615 164.082 C 210.738 164.204,210.842 165.596,210.847 167.176 C 210.854 169.290,211.007 170.104,211.428 170.266 C 212.060 170.509,212.221 171.600,211.625 171.600 C 211.199 171.600,210.653 174.695,210.708 176.800 C 210.813 180.881,210.997 182.800,211.282 182.800 C 211.820 182.800,211.633 183.902,211.058 184.122 C 210.647 184.280,210.587 184.796,210.812 186.265 C 210.975 187.329,210.984 188.290,210.833 188.400 C 210.433 188.691,210.645 193.626,211.108 194.800 C 211.397 195.531,211.336 196.219,210.884 197.359 C 210.390 198.606,210.353 199.244,210.701 200.548 C 210.941 201.445,211.028 202.355,210.895 202.571 C 210.619 203.016,210.725 210.776,211.031 212.600 C 211.142 213.260,211.073 214.629,210.879 215.641 C 210.612 217.031,210.661 217.669,211.080 218.241 C 211.451 218.747,211.551 219.500,211.383 220.500 C 211.219 221.469,211.284 222.000,211.565 222.000 C 212.179 222.000,212.101 223.597,211.424 224.895 C 210.923 225.856,210.928 226.032,211.463 226.331 C 211.967 226.613,211.999 226.941,211.646 228.219 C 211.411 229.069,211.369 229.863,211.553 229.982 C 211.997 230.272,212.541 236.000,212.124 236.000 C 211.716 236.000,211.696 238.229,212.100 238.633 C 212.265 238.798,212.400 239.463,212.400 240.109 C 212.400 240.991,212.551 241.228,213.000 241.055 C 213.426 240.892,213.600 241.091,213.600 241.741 C 213.600 242.244,213.971 244.354,214.423 246.428 C 214.992 249.032,215.174 250.894,215.010 252.440 C 214.835 254.104,214.918 254.800,215.336 255.147 C 215.650 255.408,216.048 256.889,216.238 258.507 C 216.611 261.684,216.612 261.658,216.030 264.774 C 215.739 266.338,215.751 267.100,216.075 267.491 C 216.407 267.890,216.408 268.152,216.080 268.480 C 215.753 268.807,215.842 269.217,216.419 270.026 C 216.859 270.645,217.092 271.415,216.951 271.783 C 216.798 272.182,216.993 272.663,217.450 273.012 C 217.944 273.390,218.054 273.690,217.772 273.892 C 217.152 274.338,217.313 277.453,218.087 280.000 C 218.455 281.210,218.943 283.460,219.172 285.000 C 219.400 286.540,219.651 287.980,219.728 288.200 C 220.419 290.160,220.800 295.574,220.315 296.526 C 220.084 296.977,220.091 297.430,220.332 297.726 C 220.545 297.987,220.653 298.948,220.574 299.863 C 220.466 301.102,220.590 301.587,221.059 301.767 C 221.524 301.946,221.577 302.145,221.262 302.526 C 220.843 303.030,221.030 304.603,221.603 305.400 C 222.141 306.148,222.418 309.142,221.975 309.416 C 221.695 309.589,221.785 309.942,222.238 310.442 C 222.618 310.862,222.812 311.321,222.670 311.463 C 222.529 311.605,222.718 311.944,223.090 312.217 C 223.632 312.613,223.684 312.902,223.350 313.656 C 222.832 314.825,222.983 318.447,223.598 319.596 C 223.849 320.066,224.070 320.995,224.089 321.661 C 224.108 322.328,224.366 322.966,224.662 323.079 C 225.389 323.358,225.346 324.000,224.600 324.000 C 223.962 324.000,223.783 324.618,224.324 324.953 C 224.619 325.135,224.862 327.124,224.962 330.167 C 224.983 330.808,225.233 331.411,225.517 331.506 C 225.919 331.640,225.928 331.805,225.558 332.250 C 225.217 332.662,225.166 333.915,225.378 336.711 C 225.853 342.999,225.869 344.983,225.445 345.271 C 225.185 345.448,225.219 345.924,225.543 346.635 C 225.817 347.236,225.897 347.834,225.720 347.964 C 225.544 348.094,225.401 348.740,225.403 349.400 C 225.405 350.060,225.090 351.029,224.703 351.554 C 224.316 352.079,224.000 352.747,224.000 353.040 C 224.000 353.332,223.640 353.765,223.200 354.000 C 222.760 354.235,222.400 354.662,222.400 354.947 C 222.400 355.257,221.919 355.467,221.208 355.467 C 220.094 355.467,218.246 355.905,215.400 356.846 C 214.322 357.202,211.642 357.660,210.600 357.665 C 207.756 357.682,206.600 357.378,205.531 356.332 C 204.894 355.710,204.121 355.200,203.813 355.200 C 203.506 355.200,203.139 354.838,202.999 354.396 C 202.858 353.953,202.229 353.325,201.600 353.000 C 200.971 352.675,200.354 352.092,200.229 351.704 C 200.104 351.317,199.371 350.572,198.601 350.048 C 197.830 349.525,197.200 348.850,197.200 348.548 C 197.200 348.247,197.016 348.000,196.791 348.000 C 196.567 348.000,196.184 347.564,195.941 347.031 C 195.698 346.498,195.084 345.957,194.576 345.830 C 194.069 345.702,193.539 345.239,193.400 344.799 C 193.260 344.360,192.971 344.000,192.757 344.000 C 192.542 344.000,191.807 343.100,191.124 342.000 C 189.840 339.935,189.697 339.834,188.636 340.242 C 188.186 340.414,188.079 340.775,188.261 341.501 C 188.421 342.140,188.367 342.427,188.115 342.271 C 187.850 342.107,187.773 343.627,187.889 346.711 C 187.986 349.290,188.066 351.670,188.066 352.000 C 188.067 352.330,188.061 353.860,188.053 355.400 C 188.045 356.940,188.043 358.470,188.047 358.800 C 188.052 359.130,187.926 361.920,187.768 365.000 C 187.609 368.080,187.472 372.265,187.462 374.300 C 187.452 376.335,187.395 378.000,187.335 378.000 C 187.089 378.000,184.552 375.294,183.944 374.383 C 183.583 373.842,183.193 373.490,183.078 373.600 C 182.816 373.850,183.693 377.827,184.100 378.234 C 184.265 378.398,184.400 378.947,184.400 379.453 C 184.400 379.959,184.655 380.964,184.966 381.686 C 185.277 382.409,185.928 384.440,186.413 386.200 C 186.898 387.960,187.453 389.571,187.647 389.780 C 187.841 389.989,188.000 390.498,188.000 390.911 C 188.000 391.325,188.732 392.387,189.627 393.273 C 190.618 394.254,191.165 395.115,191.027 395.475 C 190.902 395.800,190.800 396.231,190.800 396.433 C 190.800 396.635,190.620 396.800,190.400 396.800 C 190.180 396.800,190.000 396.534,190.000 396.210 C 190.000 395.885,189.370 395.046,188.600 394.345 C 187.830 393.645,187.200 392.780,187.200 392.425 C 187.200 392.069,186.953 391.423,186.651 390.989 C 186.349 390.555,185.967 389.570,185.801 388.800 C 185.421 387.030,182.870 381.909,182.487 382.146 C 182.329 382.244,182.180 381.936,182.155 381.462 C 182.130 380.988,181.919 380.060,181.687 379.400 C 180.512 376.063,179.659 371.691,179.285 367.088 C 179.016 363.769,178.931 363.523,177.735 362.587 L 176.471 361.597 176.661 349.899 C 176.844 338.602,176.891 338.049,178.003 333.800 C 178.637 331.380,179.251 328.050,179.368 326.400 C 179.718 321.440,179.772 310.601,179.449 310.079 C 179.283 309.811,179.076 307.952,178.988 305.948 C 178.818 302.063,178.174 300.400,176.840 300.400 C 175.734 300.400,175.348 299.633,175.269 297.286 C 175.180 294.614,174.501 292.988,172.658 291.034 C 171.856 290.184,171.200 289.146,171.200 288.728 C 171.200 287.594,169.681 284.776,168.270 283.291 C 167.349 282.322,167.023 281.600,167.013 280.507 C 167.001 279.190,166.860 278.992,165.700 278.658 C 164.480 278.307,164.400 278.173,164.400 276.474 C 164.400 275.409,164.148 274.384,163.788 273.986 C 163.451 273.614,163.109 272.970,163.029 272.555 C 162.684 270.775,161.483 266.969,161.156 266.620 C 160.960 266.411,160.800 265.546,160.800 264.697 C 160.800 263.515,160.532 262.903,159.650 262.077 C 158.851 261.329,158.493 260.597,158.476 259.680 C 158.463 258.954,157.961 257.521,157.360 256.495 C 156.561 255.133,156.279 254.130,156.310 252.768 C 156.346 251.198,156.167 250.726,155.176 249.777 C 154.460 249.091,154.000 248.240,154.000 247.600 C 154.000 246.894,153.601 246.256,152.781 245.649 C 152.111 245.154,151.267 244.130,150.907 243.374 C 150.547 242.618,150.130 242.000,149.980 242.000 C 149.831 242.000,149.596 241.175,149.458 240.167 C 149.319 239.159,148.845 237.875,148.403 237.313 C 147.961 236.752,147.600 235.888,147.600 235.395 C 147.600 234.902,147.320 234.265,146.977 233.981 C 146.634 233.696,146.103 232.864,145.797 232.132 C 145.201 230.704,144.627 230.432,144.255 231.400 C 144.129 231.730,143.738 232.000,143.388 232.000 C 142.701 232.000,142.905 235.300,143.650 236.240 C 143.864 236.510,143.692 237.033,143.202 237.598 C 142.458 238.456,142.450 238.549,143.088 239.015 C 143.604 239.392,143.662 239.645,143.325 240.057 C 143.058 240.383,142.925 241.878,142.992 243.800 C 143.155 248.447,143.146 248.400,143.800 248.400 C 144.509 248.400,144.607 249.064,143.931 249.290 C 143.674 249.375,143.417 249.795,143.361 250.223 C 143.304 250.650,143.164 251.581,143.049 252.291 C 142.897 253.231,143.020 253.683,143.501 253.953 C 144.046 254.258,144.073 254.431,143.652 254.937 C 143.307 255.353,143.206 256.350,143.340 258.031 C 143.449 259.394,143.384 260.917,143.195 261.414 C 142.961 262.029,143.030 262.553,143.413 263.059 C 144.092 263.955,144.176 265.239,143.546 265.100 C 143.267 265.039,143.056 265.732,142.997 266.900 C 142.945 267.945,143.059 268.800,143.251 268.800 C 143.443 268.800,143.600 269.160,143.600 269.600 C 143.600 270.040,143.420 270.400,143.200 270.400 C 142.646 270.400,142.695 271.498,143.257 271.686 C 143.595 271.798,143.586 272.079,143.223 272.756 C 142.953 273.261,142.846 274.127,142.984 274.680 C 143.163 275.391,143.027 275.844,142.518 276.230 C 141.856 276.732,141.854 276.776,142.485 276.787 C 143.194 276.800,143.332 280.416,142.664 281.496 C 142.512 281.743,142.582 282.065,142.821 282.213 C 143.059 282.360,143.149 282.756,143.020 283.091 C 142.892 283.427,142.973 283.927,143.202 284.202 C 143.450 284.502,143.486 285.083,143.290 285.651 C 143.016 286.445,142.998 290.532,143.250 294.800 C 143.359 296.653,142.855 305.587,142.620 305.967 C 142.492 306.175,142.580 306.464,142.817 306.610 C 143.070 306.767,143.139 307.367,142.984 308.073 C 142.774 309.027,142.897 309.393,143.590 309.878 L 144.458 310.486 143.587 311.414 C 143.108 311.924,142.843 312.546,142.998 312.797 C 143.578 313.735,143.520 320.964,142.927 321.651 C 142.442 322.212,142.450 322.334,142.983 322.538 C 143.786 322.846,143.781 323.600,142.976 323.600 C 142.589 323.600,142.467 323.784,142.653 324.086 C 142.818 324.353,142.971 326.062,142.993 327.882 C 143.017 329.887,143.224 331.384,143.516 331.676 C 144.205 332.365,144.119 332.676,143.170 332.924 C 142.512 333.096,142.419 333.292,142.722 333.870 C 143.207 334.795,143.239 343.600,142.758 343.600 C 142.561 343.600,142.400 343.786,142.400 344.014 C 142.400 344.300,142.640 344.300,143.174 344.014 C 145.065 343.002,145.402 344.724,143.884 347.640 C 142.855 349.619,142.831 349.845,143.517 351.079 C 143.914 351.794,143.899 352.017,143.434 352.279 C 142.338 352.896,142.252 354.628,143.268 355.605 C 143.904 356.216,144.041 356.559,143.700 356.684 C 143.425 356.784,143.200 357.293,143.200 357.813 C 143.200 358.334,142.940 358.906,142.622 359.084 C 142.292 359.268,142.001 360.125,141.945 361.080 C 141.865 362.436,141.677 362.794,140.950 362.977 C 140.457 363.101,139.951 363.516,139.826 363.901 C 139.564 364.704,136.668 366.213,136.082 365.851 C 135.867 365.718,135.590 365.997,135.466 366.470 C 135.295 367.124,135.115 367.227,134.720 366.900 C 134.434 366.662,132.982 366.010,131.494 365.450 C 130.005 364.889,128.188 363.974,127.456 363.416 C 126.724 362.857,125.944 362.400,125.723 362.400 C 125.503 362.400,124.904 362.037,124.392 361.593 C 123.880 361.149,122.718 360.316,121.811 359.742 C 120.904 359.168,119.778 358.113,119.309 357.399 C 118.712 356.487,118.061 356.039,117.129 355.897 C 115.369 355.629,115.350 355.671,116.128 358.140 C 116.879 360.520,116.971 361.353,116.448 361.030 C 116.034 360.774,114.800 357.148,114.800 356.188 C 114.800 355.824,114.440 355.069,114.000 354.509 C 113.560 353.950,113.200 353.101,113.200 352.624 C 113.200 352.146,112.756 351.154,112.214 350.419 C 111.198 349.042,110.935 346.680,111.690 345.718 C 111.898 345.452,111.942 345.030,111.787 344.778 C 111.278 343.956,111.125 339.996,111.062 326.085 C 111.017 316.195,110.871 312.291,110.537 312.085 C 110.189 311.869,110.194 311.452,110.560 310.388 C 111.128 308.735,111.226 272.150,110.665 271.281 C 110.480 270.995,110.458 270.455,110.615 270.081 C 111.038 269.071,111.132 264.005,110.732 263.758 C 110.542 263.641,110.524 263.332,110.690 263.072 C 111.185 262.302,111.182 241.881,110.687 241.274 C 110.385 240.903,110.382 240.370,110.677 239.474 C 111.029 238.407,111.065 231.356,110.800 216.000 C 110.795 215.670,110.837 212.070,110.894 208.000 C 110.952 203.930,110.956 199.880,110.904 199.000 C 110.851 198.120,110.833 195.960,110.863 194.200 C 110.893 192.440,110.902 190.010,110.883 188.800 C 110.865 187.590,110.852 179.580,110.855 171.000 C 110.859 162.420,110.854 154.500,110.845 153.400 C 110.767 143.652,111.006 128.000,111.233 128.000 C 111.388 128.000,111.393 127.415,111.242 126.700 C 111.092 125.985,110.999 120.900,111.036 115.400 C 111.081 108.825,110.958 105.218,110.678 104.870 C 110.399 104.523,110.389 104.246,110.648 104.070 C 110.968 103.852,111.128 99.800,110.817 99.800 C 110.769 99.800,110.700 98.855,110.663 97.700 C 110.627 96.545,110.697 95.600,110.820 95.600 C 110.942 95.600,111.083 94.205,111.133 92.500 C 111.183 90.795,111.268 88.590,111.322 87.600 C 111.395 86.260,111.239 85.667,110.710 85.277 C 109.688 84.525,109.748 82.809,110.787 83.081 C 111.437 83.251,111.571 83.088,111.555 82.143 C 111.545 81.514,111.635 79.650,111.756 78.000 C 111.877 76.350,112.055 73.020,112.151 70.600 C 112.248 68.180,112.446 65.903,112.591 65.540 C 112.736 65.178,112.654 64.757,112.408 64.605 C 112.081 64.403,112.087 64.178,112.428 63.767 C 112.684 63.458,112.800 62.710,112.684 62.107 C 112.569 61.503,112.652 60.677,112.869 60.271 C 113.160 59.727,113.090 59.342,112.603 58.803 C 111.998 58.134,111.996 58.042,112.584 57.713 C 113.048 57.453,113.273 56.583,113.394 54.577 C 113.712 49.336,114.108 46.000,114.413 46.000 C 114.581 46.000,114.677 45.325,114.626 44.500 C 114.576 43.675,114.621 42.838,114.728 42.641 C 115.197 41.766,115.241 36.731,114.783 36.180 C 114.517 35.859,114.478 35.600,114.695 35.600 C 115.119 35.600,115.286 30.063,114.882 29.409 C 114.748 29.193,114.690 27.547,114.752 25.752 C 114.828 23.553,114.710 22.391,114.390 22.194 C 114.027 21.970,114.026 21.831,114.384 21.610 C 114.642 21.451,115.004 20.348,115.189 19.160 C 116.269 12.220,119.723 10.934,127.156 14.705 M143.033 228.258 C 142.570 229.465,142.789 230.400,143.536 230.400 C 144.267 230.400,145.430 228.568,144.885 228.276 C 143.854 227.724,143.240 227.718,143.033 228.258 " stroke="none" fill="transparent" fill-rule="evenodd"></path></g></svg>