<svg id="svg" version="1.1" xmlns="http://www.w3.org/2000/svg" xmlns:xlink="http://www.w3.org/1999/xlink" width="400" height="400" viewBox="0, 0, 400,400"><g id="svgg"><path id="path0" d="M160.923 36.831 C 155.782 39.376,154.148 43.107,151.392 58.600 C 150.610 63.000,149.423 69.570,148.754 73.200 C 146.985 82.812,146.914 83.331,146.004 93.400 C 145.547 98.460,144.357 108.267,143.360 115.194 C 141.641 127.134,140.332 137.786,138.983 150.800 C 138.224 158.121,138.125 158.614,134.587 172.600 C 129.608 192.287,127.313 203.291,124.579 220.600 C 122.411 234.329,116.451 261.290,113.394 271.200 C 113.089 272.190,112.220 274.980,111.464 277.400 C 108.880 285.671,109.178 289.216,112.758 292.797 C 114.502 294.540,116.868 295.665,117.488 295.046 C 117.614 294.919,118.226 295.487,118.848 296.308 C 120.030 297.869,120.541 302.418,119.600 303.000 C 119.151 303.277,119.034 313.700,119.474 314.141 C 119.895 314.562,120.787 317.302,120.795 318.200 C 120.800 318.640,121.127 319.540,121.523 320.200 C 121.919 320.860,122.468 322.480,122.743 323.800 C 123.018 325.120,123.531 327.010,123.882 328.000 C 124.233 328.990,124.654 331.240,124.818 333.000 C 125.202 337.120,125.772 338.687,126.628 337.976 C 127.690 337.095,128.104 336.007,127.606 335.407 C 127.358 335.109,127.140 333.906,127.121 332.733 C 127.102 331.560,126.887 330.347,126.643 330.039 C 126.399 329.730,126.170 328.740,126.133 327.839 C 126.023 325.125,125.529 322.839,124.948 322.357 C 124.647 322.107,124.400 321.621,124.400 321.277 C 124.400 320.933,123.995 320.220,123.500 319.693 C 122.623 318.759,122.357 312.680,122.743 302.400 C 122.850 299.554,122.582 297.774,121.900 296.811 C 120.999 295.538,121.010 294.800,121.931 294.800 C 127.214 294.800,134.420 278.205,138.432 256.800 C 138.907 254.270,139.914 249.140,140.672 245.400 C 141.429 241.660,142.829 234.010,143.782 228.400 C 146.629 211.634,149.535 197.748,154.204 178.600 C 157.345 165.720,157.917 162.761,158.808 154.800 C 161.382 131.781,161.827 128.385,163.411 119.600 C 165.690 106.965,166.868 102.000,167.586 102.000 C 168.849 102.000,169.483 103.761,172.994 117.032 C 173.988 120.789,175.982 127.267,177.425 131.426 C 178.868 135.586,181.043 142.772,182.258 147.395 C 183.473 152.018,186.257 161.740,188.444 169.000 C 190.632 176.260,193.781 187.690,195.443 194.400 C 198.464 206.596,202.613 221.826,205.687 232.000 C 208.624 241.720,209.918 247.286,210.989 254.800 C 212.987 268.814,215.832 277.998,219.397 281.944 C 221.635 284.421,222.288 287.257,222.622 295.937 C 222.880 302.660,222.991 303.624,223.546 303.967 C 224.153 304.342,224.311 309.335,223.739 310.056 C 223.295 310.614,223.319 312.116,223.819 315.093 C 224.049 316.462,223.979 316.833,223.452 317.036 C 222.633 317.350,222.594 318.400,223.400 318.400 C 224.449 318.400,224.200 322.067,223.068 323.289 C 222.153 324.277,221.946 325.408,222.062 328.800 C 222.428 339.546,222.181 345.156,221.300 346.093 C 220.805 346.620,220.400 347.333,220.400 347.677 C 220.400 348.021,220.153 348.507,219.852 348.757 C 219.271 349.239,218.777 351.525,218.667 354.239 C 218.630 355.140,218.401 356.130,218.157 356.439 C 217.913 356.747,217.698 357.971,217.678 359.159 C 217.659 360.346,217.453 361.507,217.221 361.739 C 216.990 361.970,216.800 363.013,216.800 364.056 C 216.800 365.099,216.640 366.052,216.444 366.173 C 216.249 366.294,215.997 366.979,215.886 367.696 C 215.684 369.001,213.852 374.648,213.110 376.252 C 212.893 376.721,212.835 377.479,212.980 377.937 C 213.125 378.395,213.027 379.176,212.761 379.673 C 211.570 381.898,212.141 385.220,213.629 384.724 C 214.251 384.516,215.185 381.710,215.201 380.000 C 215.209 379.230,215.679 376.890,216.247 374.800 C 216.814 372.710,217.418 370.370,217.588 369.600 C 217.758 368.830,218.105 367.681,218.359 367.047 C 219.108 365.176,219.685 362.401,219.990 359.200 C 220.147 357.550,220.564 355.390,220.916 354.400 C 221.268 353.410,221.782 351.520,222.057 350.200 C 222.332 348.880,222.881 347.260,223.277 346.600 C 223.673 345.940,224.000 345.040,224.005 344.600 C 224.013 343.702,224.905 340.962,225.326 340.541 C 225.766 340.100,225.649 329.677,225.200 329.400 C 224.299 328.843,224.762 324.491,225.992 321.951 C 227.592 318.649,228.197 313.999,227.809 308.000 C 227.645 305.470,227.523 302.950,227.538 302.400 C 227.553 301.850,227.394 300.427,227.185 299.238 C 226.931 297.798,226.941 296.912,227.214 296.583 C 227.594 296.126,227.336 294.169,226.665 292.400 C 226.268 291.354,227.693 289.012,228.802 288.888 C 229.778 288.779,229.782 288.790,229.002 289.404 C 228.066 290.140,228.688 290.783,230.345 290.794 C 231.204 290.799,231.266 290.676,231.033 289.434 C 230.811 288.251,230.873 288.094,231.500 288.258 C 233.315 288.732,235.410 286.672,234.000 285.800 C 233.333 285.387,233.552 284.800,234.373 284.800 C 234.798 284.800,235.260 284.440,235.400 284.000 C 235.540 283.560,235.826 283.200,236.037 283.200 C 236.703 283.200,237.255 285.263,236.884 286.367 C 236.693 286.935,236.615 288.165,236.710 289.100 C 236.865 290.617,236.793 290.800,236.042 290.800 C 234.977 290.800,234.955 291.440,236.000 292.000 C 236.840 292.450,237.082 293.778,236.400 294.200 C 235.866 294.530,235.889 296.529,236.432 297.072 C 236.742 297.382,236.684 298.035,236.230 299.373 C 235.326 302.035,235.700 303.235,237.339 302.929 C 239.067 302.607,239.445 302.159,238.443 301.623 L 237.601 301.172 238.596 299.207 C 239.144 298.127,239.444 297.151,239.264 297.039 C 238.799 296.752,238.992 293.537,239.535 292.522 C 240.117 291.434,240.485 281.690,240.006 280.022 C 239.726 279.044,239.774 278.708,240.222 278.536 C 240.540 278.414,240.800 277.987,240.800 277.586 C 240.800 277.185,241.079 276.579,241.419 276.238 C 241.915 275.742,241.946 275.447,241.576 274.755 C 241.147 273.953,241.188 273.910,242.157 274.153 C 243.391 274.463,243.384 274.491,242.526 272.772 C 241.068 269.848,241.117 268.014,242.803 262.388 C 244.793 255.755,246.161 249.609,247.166 242.800 C 248.786 231.811,249.000 228.869,249.606 209.200 C 249.952 197.978,250.616 189.568,251.594 184.000 C 252.292 180.031,253.160 170.744,253.596 162.600 C 253.984 155.354,254.416 148.781,255.594 132.200 C 257.201 109.601,257.552 53.145,256.114 48.600 C 252.790 38.092,241.087 38.850,237.577 49.800 C 237.216 50.924,236.972 56.397,236.756 68.200 C 235.863 117.010,235.619 126.683,235.038 136.400 C 234.688 142.230,234.316 147.450,234.209 148.000 C 234.102 148.550,233.824 153.140,233.591 158.200 C 232.733 176.792,228.053 206.522,225.388 210.301 C 223.867 212.459,222.481 210.019,220.028 200.868 C 214.642 180.774,213.066 175.249,211.396 170.600 C 205.163 153.251,204.164 149.989,201.788 139.231 C 200.990 135.617,199.645 130.757,198.799 128.431 C 197.953 126.104,196.257 121.428,195.031 118.040 C 192.822 111.940,191.238 106.120,189.575 98.000 C 188.339 91.962,180.027 57.506,178.102 50.441 C 174.960 38.906,167.950 33.352,160.923 36.831 M230.400 287.000 C 230.400 287.330,230.220 287.600,230.000 287.600 C 229.780 287.600,229.600 287.330,229.600 287.000 C 229.600 286.670,229.780 286.400,230.000 286.400 C 230.220 286.400,230.400 286.670,230.400 287.000 M227.600 287.833 C 227.600 288.540,226.739 288.417,226.492 287.675 C 226.405 287.414,226.618 287.200,226.967 287.200 C 227.315 287.200,227.600 287.485,227.600 287.833 " stroke="none" fill="#EC791A" fill-rule="evenodd"></path><path id="path1" d="M0.000 200.000 L 0.000 400.000 200.000 400.000 L 400.000 400.000 400.000 200.000 L 400.000 0.000 200.000 0.000 L 0.000 0.000 0.000 200.000 M169.084 36.782 C 173.037 38.576,176.158 43.304,178.102 50.441 C 180.027 57.506,188.339 91.962,189.575 98.000 C 191.238 106.120,192.822 111.940,195.031 118.040 C 196.257 121.428,197.953 126.104,198.799 128.431 C 199.645 130.757,200.990 135.617,201.788 139.231 C 204.164 149.989,205.163 153.251,211.396 170.600 C 213.066 175.249,214.642 180.774,220.028 200.868 C 222.481 210.019,223.867 212.459,225.388 210.301 C 228.053 206.522,232.733 176.792,233.591 158.200 C 233.824 153.140,234.102 148.550,234.209 148.000 C 234.316 147.450,234.688 142.230,235.038 136.400 C 235.619 126.683,235.863 117.010,236.756 68.200 C 236.972 56.397,237.216 50.924,237.577 49.800 C 241.087 38.850,252.790 38.092,256.114 48.600 C 257.552 53.145,257.201 109.601,255.594 132.200 C 254.416 148.781,253.984 155.354,253.596 162.600 C 253.160 170.744,252.292 180.031,251.594 184.000 C 250.616 189.568,249.952 197.978,249.606 209.200 C 249.000 228.869,248.786 231.811,247.166 242.800 C 246.161 249.609,244.793 255.755,242.803 262.388 C 241.117 268.014,241.068 269.848,242.526 272.772 C 243.384 274.491,243.391 274.463,242.157 274.153 C 241.188 273.910,241.147 273.953,241.576 274.755 C 241.946 275.447,241.915 275.742,241.419 276.238 C 241.079 276.579,240.800 277.185,240.800 277.586 C 240.800 277.987,240.540 278.414,240.222 278.536 C 239.774 278.708,239.726 279.044,240.006 280.022 C 240.485 281.690,240.117 291.434,239.535 292.522 C 238.992 293.537,238.799 296.752,239.264 297.039 C 239.444 297.151,239.144 298.127,238.596 299.207 L 237.601 301.172 238.443 301.623 C 239.445 302.159,239.067 302.607,237.339 302.929 C 235.700 303.235,235.326 302.035,236.230 299.373 C 236.684 298.035,236.742 297.382,236.432 297.072 C 235.889 296.529,235.866 294.530,236.400 294.200 C 237.082 293.778,236.840 292.450,236.000 292.000 C 234.955 291.440,234.977 290.800,236.042 290.800 C 236.793 290.800,236.865 290.617,236.710 289.100 C 236.615 288.165,236.693 286.935,236.884 286.367 C 237.255 285.263,236.703 283.200,236.037 283.200 C 235.826 283.200,235.540 283.560,235.400 284.000 C 235.260 284.440,234.798 284.800,234.373 284.800 C 233.552 284.800,233.333 285.387,234.000 285.800 C 235.410 286.672,233.315 288.732,231.500 288.258 C 230.873 288.094,230.811 288.251,231.033 289.434 C 231.266 290.676,231.204 290.799,230.345 290.794 C 228.688 290.783,228.066 290.140,229.002 289.404 C 229.782 288.790,229.778 288.779,228.802 288.888 C 227.693 289.012,226.268 291.354,226.665 292.400 C 227.336 294.169,227.594 296.126,227.214 296.583 C 226.941 296.912,226.931 297.798,227.185 299.238 C 227.394 300.427,227.553 301.850,227.538 302.400 C 227.523 302.950,227.645 305.470,227.809 308.000 C 228.197 313.999,227.592 318.649,225.992 321.951 C 224.762 324.491,224.299 328.843,225.200 329.400 C 225.649 329.677,225.766 340.100,225.326 340.541 C 224.905 340.962,224.013 343.702,224.005 344.600 C 224.000 345.040,223.673 345.940,223.277 346.600 C 222.881 347.260,222.332 348.880,222.057 350.200 C 221.782 351.520,221.268 353.410,220.916 354.400 C 220.564 355.390,220.147 357.550,219.990 359.200 C 219.685 362.401,219.108 365.176,218.359 367.047 C 218.105 367.681,217.758 368.830,217.588 369.600 C 217.418 370.370,216.814 372.710,216.247 374.800 C 215.679 376.890,215.209 379.230,215.201 380.000 C 215.185 381.710,214.251 384.516,213.629 384.724 C 212.141 385.220,211.570 381.898,212.761 379.673 C 213.027 379.176,213.125 378.395,212.980 377.937 C 212.835 377.479,212.893 376.721,213.110 376.252 C 213.852 374.648,215.684 369.001,215.886 367.696 C 215.997 366.979,216.249 366.294,216.444 366.173 C 216.640 366.052,216.800 365.099,216.800 364.056 C 216.800 363.013,216.990 361.970,217.221 361.739 C 217.453 361.507,217.659 360.346,217.678 359.159 C 217.698 357.971,217.913 356.747,218.157 356.439 C 218.401 356.130,218.630 355.140,218.667 354.239 C 218.777 351.525,219.271 349.239,219.852 348.757 C 220.153 348.507,220.400 348.021,220.400 347.677 C 220.400 347.333,220.805 346.620,221.300 346.093 C 222.181 345.156,222.428 339.546,222.062 328.800 C 221.946 325.408,222.153 324.277,223.068 323.289 C 224.200 322.067,224.449 318.400,223.400 318.400 C 222.594 318.400,222.633 317.350,223.452 317.036 C 223.979 316.833,224.049 316.462,223.819 315.093 C 223.319 312.116,223.295 310.614,223.739 310.056 C 224.311 309.335,224.153 304.342,223.546 303.967 C 222.991 303.624,222.880 302.660,222.622 295.937 C 222.288 287.257,221.635 284.421,219.397 281.944 C 215.832 277.998,212.987 268.814,210.989 254.800 C 209.918 247.286,208.624 241.720,205.687 232.000 C 202.613 221.826,198.464 206.596,195.443 194.400 C 193.781 187.690,190.632 176.260,188.444 169.000 C 186.257 161.740,183.473 152.018,182.258 147.395 C 181.043 142.772,178.868 135.586,177.425 131.426 C 175.982 127.267,173.988 120.789,172.994 117.032 C 169.483 103.761,168.849 102.000,167.586 102.000 C 166.868 102.000,165.690 106.965,163.411 119.600 C 161.827 128.385,161.382 131.781,158.808 154.800 C 157.917 162.761,157.345 165.720,154.204 178.600 C 149.535 197.748,146.629 211.634,143.782 228.400 C 142.829 234.010,141.429 241.660,140.672 245.400 C 139.914 249.140,138.907 254.270,138.432 256.800 C 134.420 278.205,127.214 294.800,121.931 294.800 C 121.010 294.800,120.999 295.538,121.900 296.811 C 122.582 297.774,122.850 299.554,122.743 302.400 C 122.357 312.680,122.623 318.759,123.500 319.693 C 123.995 320.220,124.400 320.933,124.400 321.277 C 124.400 321.621,124.647 322.107,124.948 322.357 C 125.529 322.839,126.023 325.125,126.133 327.839 C 126.170 328.740,126.399 329.730,126.643 330.039 C 126.887 330.347,127.102 331.560,127.121 332.733 C 127.140 333.906,127.358 335.109,127.606 335.407 C 128.104 336.007,127.690 337.095,126.628 337.976 C 125.772 338.687,125.202 337.120,124.818 333.000 C 124.654 331.240,124.233 328.990,123.882 328.000 C 123.531 327.010,123.018 325.120,122.743 323.800 C 122.468 322.480,121.919 320.860,121.523 320.200 C 121.127 319.540,120.800 318.640,120.795 318.200 C 120.787 317.302,119.895 314.562,119.474 314.141 C 119.034 313.700,119.151 303.277,119.600 303.000 C 120.541 302.418,120.030 297.869,118.848 296.308 C 118.226 295.487,117.614 294.919,117.488 295.046 C 116.868 295.665,114.502 294.540,112.758 292.797 C 109.178 289.216,108.880 285.671,111.464 277.400 C 112.220 274.980,113.089 272.190,113.394 271.200 C 116.451 261.290,122.411 234.329,124.579 220.600 C 127.313 203.291,129.608 192.287,134.587 172.600 C 138.125 158.614,138.224 158.121,138.983 150.800 C 140.332 137.786,141.641 127.134,143.360 115.194 C 144.357 108.267,145.547 98.460,146.004 93.400 C 146.914 83.331,146.985 82.812,148.754 73.200 C 149.423 69.570,150.610 63.000,151.392 58.600 C 153.759 45.297,154.598 42.703,157.588 39.459 C 160.726 36.056,165.192 35.015,169.084 36.782 M229.600 287.000 C 229.600 287.330,229.780 287.600,230.000 287.600 C 230.220 287.600,230.400 287.330,230.400 287.000 C 230.400 286.670,230.220 286.400,230.000 286.400 C 229.780 286.400,229.600 286.670,229.600 287.000 M226.492 287.675 C 226.739 288.417,227.600 288.540,227.600 287.833 C 227.600 287.485,227.315 287.200,226.967 287.200 C 226.618 287.200,226.405 287.414,226.492 287.675 " stroke="none" fill="transparent" fill-rule="evenodd"></path></g></svg>