<svg id="svg" version="1.1" xmlns="http://www.w3.org/2000/svg" xmlns:xlink="http://www.w3.org/1999/xlink" width="400" height="400" viewBox="0, 0, 400,400"><g id="svgg"><path id="path0" d="M186.329 85.399 C 182.720 86.006,179.173 87.123,174.197 89.218 C 172.215 90.052,168.435 91.370,165.797 92.146 C 157.338 94.634,152.567 96.845,139.806 104.190 C 114.234 118.910,97.461 147.518,95.242 180.200 C 94.212 195.354,95.128 221.954,97.190 236.800 C 97.603 239.770,98.052 243.820,98.189 245.800 C 100.305 276.483,117.328 303.449,139.600 311.400 C 145.462 313.492,146.506 314.095,148.094 316.305 C 149.310 317.998,149.764 318.312,151.660 318.766 C 154.222 319.381,154.729 320.398,155.066 325.600 C 155.173 327.250,155.423 328.960,155.622 329.400 C 155.913 330.046,156.161 333.737,156.359 340.400 C 156.368 340.730,156.275 342.133,156.152 343.517 C 156.028 344.901,156.066 346.341,156.235 346.717 C 156.405 347.093,156.576 347.696,156.615 348.059 C 156.655 348.421,157.072 349.259,157.543 349.921 C 158.015 350.582,158.400 351.670,158.400 352.338 C 158.400 353.006,158.580 353.664,158.800 353.800 C 159.498 354.231,159.235 355.565,158.117 357.253 C 157.277 358.522,157.004 359.481,156.895 361.530 C 156.818 362.983,156.609 364.358,156.430 364.586 C 155.395 365.905,155.551 381.400,156.600 381.400 C 157.362 381.400,157.410 381.067,157.600 374.400 C 157.805 367.218,157.956 366.421,159.124 366.371 C 161.011 366.289,162.196 365.004,162.320 362.906 C 162.431 361.016,162.540 360.825,163.855 360.201 L 165.270 359.529 165.000 357.203 C 164.823 355.678,164.894 354.571,165.206 353.989 C 165.549 353.348,165.564 352.863,165.259 352.250 C 164.555 350.836,163.922 342.383,164.057 336.200 C 164.167 331.111,163.919 325.129,163.453 321.640 C 163.050 318.621,163.888 318.464,181.600 318.230 C 192.450 318.087,196.640 317.876,201.200 317.244 C 204.390 316.802,210.240 315.994,214.200 315.448 C 218.160 314.903,221.670 314.359,222.000 314.239 C 222.330 314.119,224.865 313.749,227.633 313.415 C 236.406 312.357,243.005 310.251,248.435 306.775 C 249.444 306.129,250.457 305.600,250.686 305.600 C 251.260 305.600,266.016 296.635,269.272 294.308 C 273.310 291.423,276.773 287.371,279.215 282.671 C 282.235 276.859,283.156 275.622,288.824 269.758 C 301.478 256.668,303.600 249.325,303.600 218.632 C 303.600 196.451,303.208 194.351,296.556 180.935 C 292.127 172.002,290.685 169.638,285.922 163.501 C 281.822 158.217,280.107 155.623,275.188 147.267 C 263.934 128.149,232.750 95.436,220.152 89.532 C 212.120 85.768,195.907 83.787,186.329 85.399 M208.891 107.401 C 213.368 108.919,222.116 115.770,230.000 123.932 C 243.761 138.176,252.635 149.110,258.758 159.365 C 261.134 163.344,264.931 169.390,267.196 172.800 C 277.521 188.343,280.436 199.912,278.837 219.000 C 277.302 237.334,269.521 251.604,250.800 270.419 C 234.665 286.635,220.746 292.345,195.600 293.061 C 168.228 293.840,153.336 289.727,144.829 279.037 C 140.260 273.294,132.745 261.026,128.513 252.400 C 120.337 235.735,119.379 233.012,117.605 221.400 C 117.135 218.320,116.377 213.820,115.922 211.400 C 115.057 206.799,115.087 200.293,115.990 196.600 C 116.205 195.720,116.390 193.380,116.402 191.400 C 116.493 175.964,119.975 159.835,125.390 149.772 C 130.515 140.245,143.429 125.235,145.737 126.121 C 146.280 126.329,146.797 129.643,146.803 132.959 C 146.805 133.861,147.163 135.770,147.600 137.200 C 148.075 138.755,148.395 140.956,148.397 142.676 C 148.400 145.736,148.917 146.669,149.884 145.361 C 150.307 144.789,150.391 143.805,150.223 141.400 C 149.762 134.807,150.360 122.812,151.200 121.791 C 152.149 120.639,156.891 118.626,163.400 116.613 C 171.996 113.955,180.059 111.409,187.295 109.068 C 192.358 107.430,193.690 107.130,194.095 107.535 C 194.471 107.910,194.651 111.253,194.800 120.632 L 195.000 133.225 196.400 134.286 C 198.455 135.845,201.176 138.798,202.035 140.400 C 203.262 142.691,204.651 144.143,205.357 143.872 C 206.127 143.577,205.681 142.119,204.289 140.377 C 203.800 139.766,202.687 138.252,201.816 137.014 C 200.945 135.775,199.660 134.408,198.962 133.976 C 196.745 132.606,196.309 123.886,198.242 119.578 C 199.329 117.157,199.378 115.486,198.568 108.533 C 198.342 106.596,198.386 106.454,199.264 106.283 C 201.150 105.917,206.271 106.512,208.891 107.401 M197.594 114.876 C 197.597 115.688,197.420 116.464,197.200 116.600 C 196.951 116.754,196.802 115.972,196.806 114.524 C 196.810 112.876,196.925 112.375,197.200 112.800 C 197.413 113.130,197.591 114.064,197.594 114.876 " stroke="none" fill="#EC791A" fill-rule="evenodd"></path></g></svg>