<svg id="svg" version="1.1" xmlns="http://www.w3.org/2000/svg" xmlns:xlink="http://www.w3.org/1999/xlink" width="400" height="400" viewBox="0, 0, 400,400"><g id="svgg"><path id="path0" d="M166.694 64.639 C 166.632 64.702,165.235 64.780,163.590 64.813 C 160.260 64.880,156.591 65.675,154.262 66.834 C 153.416 67.255,152.476 67.600,152.173 67.600 C 151.192 67.600,148.000 69.344,148.000 69.880 C 148.000 70.166,147.662 70.400,147.249 70.400 C 146.836 70.400,146.265 70.681,145.979 71.025 C 145.694 71.368,144.547 72.259,143.430 73.004 C 139.655 75.522,131.600 84.117,131.600 85.626 C 131.600 85.800,131.364 86.181,131.076 86.471 C 130.787 86.762,130.050 88.028,129.437 89.284 C 128.824 90.540,127.980 91.962,127.561 92.445 C 127.142 92.928,126.797 93.610,126.793 93.961 C 126.789 94.313,126.339 95.024,125.793 95.542 C 125.247 96.060,124.800 96.726,124.800 97.022 C 124.800 97.318,124.557 97.704,124.260 97.880 C 122.929 98.668,121.268 112.741,122.118 116.024 C 122.324 116.818,122.278 117.465,121.993 117.809 C 121.678 118.188,121.667 118.579,121.958 119.122 C 122.186 119.547,122.279 119.987,122.166 120.101 C 122.053 120.214,122.329 121.402,122.780 122.741 C 123.231 124.079,123.600 125.603,123.600 126.126 C 123.600 128.542,132.827 143.966,134.287 143.992 C 134.564 143.996,134.671 144.270,134.535 144.624 C 134.376 145.041,134.579 145.322,135.148 145.471 C 135.617 145.593,136.000 145.818,136.000 145.971 C 136.000 146.204,138.332 148.304,143.561 152.778 C 144.090 153.230,144.666 153.600,144.841 153.600 C 145.016 153.600,145.653 154.058,146.258 154.618 C 146.862 155.178,147.943 155.915,148.659 156.255 C 149.376 156.595,150.430 157.307,151.002 157.837 C 151.573 158.366,152.270 158.800,152.549 158.800 C 152.829 158.800,153.765 159.335,154.629 159.989 C 155.493 160.643,156.577 161.183,157.038 161.189 C 157.499 161.195,158.202 161.560,158.600 162.000 C 158.998 162.440,159.538 162.800,159.800 162.800 C 160.062 162.800,160.586 163.142,160.964 163.560 C 161.343 163.979,162.253 164.433,162.988 164.571 C 163.722 164.709,164.412 165.054,164.521 165.338 C 164.630 165.622,165.772 166.084,167.060 166.365 C 168.347 166.646,169.850 167.171,170.400 167.533 C 170.950 167.894,171.742 168.372,172.161 168.595 C 172.938 169.009,173.362 169.626,173.775 170.944 C 174.024 171.736,176.837 171.582,177.136 170.759 C 177.335 170.212,178.405 169.200,178.786 169.200 C 179.361 169.200,179.631 170.481,179.172 171.034 C 178.362 172.009,180.384 173.534,182.447 173.503 C 184.316 173.475,186.015 174.180,187.538 175.617 C 188.395 176.426,188.607 176.460,189.981 176.006 C 191.240 175.591,191.870 175.617,193.843 176.169 C 197.399 177.163,202.600 179.353,203.021 180.035 C 203.146 180.236,203.895 180.400,204.686 180.400 C 205.614 180.400,206.602 180.764,207.470 181.426 C 208.210 181.991,209.421 182.551,210.161 182.671 C 211.480 182.885,212.352 183.638,218.061 189.492 C 221.416 192.933,223.083 196.322,224.607 202.800 C 224.892 204.010,225.506 205.990,225.971 207.200 C 227.807 211.969,229.297 229.437,228.001 230.998 C 227.605 231.476,227.604 231.722,227.996 232.196 C 229.546 234.062,227.699 244.405,225.874 244.084 C 225.428 244.006,225.288 244.164,225.443 244.568 C 225.694 245.222,222.170 249.600,221.393 249.600 C 221.144 249.600,220.515 250.052,219.997 250.604 C 219.478 251.156,218.772 251.523,218.427 251.419 C 218.020 251.297,217.470 251.764,216.859 252.753 C 216.341 253.591,215.405 254.579,214.778 254.949 C 214.151 255.320,213.268 256.143,212.815 256.779 C 211.880 258.092,208.079 259.462,203.870 260.002 C 202.512 260.177,200.893 260.517,200.274 260.760 C 198.679 261.383,195.550 261.305,193.862 260.600 C 193.072 260.270,191.969 260.000,191.410 260.000 C 190.826 260.000,190.026 259.576,189.525 259.000 C 188.927 258.312,188.245 258.000,187.338 258.000 C 186.307 258.000,185.896 257.761,185.446 256.900 C 184.138 254.395,180.683 252.062,178.334 252.097 C 177.110 252.116,175.693 251.724,173.870 250.862 C 172.400 250.168,170.832 249.600,170.385 249.600 C 169.937 249.600,169.173 249.141,168.686 248.580 C 166.761 246.363,161.389 241.200,161.006 241.199 C 160.783 241.199,160.089 240.389,159.463 239.400 C 158.838 238.410,157.938 237.285,157.463 236.900 C 156.989 236.515,156.420 235.675,156.200 235.034 C 155.977 234.383,155.216 233.541,154.480 233.130 C 153.754 232.725,152.775 232.035,152.305 231.597 C 151.834 231.159,151.308 230.800,151.135 230.800 C 150.962 230.800,150.541 230.260,150.200 229.600 C 149.828 228.881,149.263 228.400,148.790 228.400 C 148.355 228.400,148.000 228.203,148.000 227.961 C 148.000 227.720,147.280 226.705,146.400 225.705 C 144.784 223.870,144.468 223.052,145.200 222.600 C 145.888 222.175,145.639 220.976,144.674 220.070 C 143.690 219.145,142.608 218.940,142.200 219.600 C 141.644 220.500,139.312 219.997,137.451 218.577 C 136.427 217.794,134.917 216.874,134.098 216.531 C 133.278 216.189,132.209 215.479,131.723 214.954 C 131.236 214.429,130.560 214.000,130.219 214.000 C 129.879 214.000,129.600 213.856,129.600 213.680 C 129.600 213.505,128.970 213.133,128.200 212.854 C 127.430 212.576,126.800 212.169,126.800 211.951 C 126.800 211.732,126.632 211.657,126.426 211.784 C 126.220 211.911,125.312 211.850,124.409 211.647 C 122.132 211.135,119.461 212.556,119.232 214.400 C 118.817 217.743,118.799 220.542,119.178 222.567 C 119.659 225.140,121.208 230.063,121.642 230.400 C 121.784 230.510,122.300 231.590,122.790 232.800 C 123.280 234.010,124.563 236.766,125.641 238.924 C 126.718 241.082,127.600 243.116,127.600 243.444 C 127.600 243.772,127.903 244.616,128.272 245.320 C 128.642 246.024,129.079 247.561,129.243 248.736 C 129.416 249.978,129.971 251.493,130.570 252.357 C 131.137 253.174,131.600 254.158,131.600 254.542 C 131.600 254.927,131.955 255.907,132.390 256.721 C 132.824 257.534,134.027 260.000,135.063 262.200 C 136.100 264.400,137.550 267.145,138.287 268.301 C 139.023 269.457,139.740 270.698,139.878 271.060 C 140.017 271.422,140.607 272.187,141.189 272.759 C 141.771 273.332,142.678 274.430,143.203 275.200 C 145.113 277.998,148.572 282.000,149.080 282.000 C 149.366 282.000,149.600 282.142,149.600 282.316 C 149.600 282.697,152.547 286.000,152.887 286.000 C 153.019 286.000,153.960 286.810,154.979 287.800 C 155.997 288.790,156.971 289.600,157.143 289.600 C 157.315 289.600,158.015 290.099,158.698 290.709 C 159.381 291.319,161.259 292.712,162.870 293.805 C 164.482 294.898,166.159 296.118,166.598 296.517 C 167.333 297.185,169.721 298.417,171.900 299.254 C 173.767 299.971,174.800 300.546,174.800 300.868 C 174.800 301.050,175.005 301.200,175.256 301.200 C 175.507 301.200,175.953 301.515,176.248 301.900 C 176.674 302.455,176.856 302.492,177.130 302.077 C 177.580 301.395,179.114 301.782,180.572 302.945 C 181.781 303.909,182.297 309.009,181.457 311.700 C 180.993 313.185,181.707 313.135,182.796 311.606 C 183.384 310.780,183.719 309.538,183.883 307.574 C 184.206 303.726,184.498 303.489,188.624 303.721 C 190.440 303.824,192.106 304.018,192.326 304.154 C 192.546 304.290,193.131 304.252,193.625 304.069 C 195.466 303.388,198.400 305.113,198.400 306.876 C 198.400 307.713,198.833 307.807,199.520 307.120 C 200.433 306.207,200.811 307.304,200.238 309.208 C 199.778 310.737,199.700 311.839,199.949 313.300 C 200.061 313.957,200.628 313.540,201.039 312.500 C 201.995 310.081,202.450 307.478,201.969 307.181 C 201.470 306.872,202.847 305.200,203.600 305.200 C 204.001 305.200,204.155 304.651,204.025 303.681 C 203.956 303.162,210.897 303.164,211.416 303.683 C 211.533 303.800,211.853 304.996,212.128 306.341 C 213.039 310.808,214.418 310.774,215.188 306.267 L 215.703 303.262 218.452 303.131 C 219.964 303.059,221.201 303.135,221.201 303.300 C 221.200 303.465,221.560 303.600,222.000 303.600 C 222.440 303.600,222.800 303.407,222.800 303.171 C 222.800 302.886,223.520 302.832,224.952 303.011 C 226.429 303.196,227.194 303.133,227.394 302.810 C 227.599 302.479,227.915 302.588,228.466 303.179 C 228.896 303.640,229.406 303.920,229.600 303.800 C 229.793 303.681,229.950 303.902,229.949 304.291 C 229.944 305.543,230.257 306.985,230.720 307.851 C 230.969 308.315,231.062 308.804,230.929 308.938 C 230.795 309.072,230.989 309.298,231.360 309.440 C 232.280 309.793,232.624 309.352,232.008 308.610 C 231.588 308.103,231.620 308.000,232.198 308.000 C 232.735 308.000,232.830 307.795,232.614 307.100 C 231.975 305.038,231.960 304.469,232.512 303.148 C 233.099 301.744,234.277 301.341,235.500 302.126 C 235.787 302.311,236.000 302.267,236.000 302.024 C 236.000 301.791,236.345 301.600,236.767 301.600 C 237.859 301.600,238.800 301.184,238.800 300.701 C 238.800 300.121,240.063 299.228,240.906 299.213 C 242.382 299.186,244.808 298.198,244.617 297.701 C 244.495 297.383,244.786 297.200,245.413 297.200 C 246.133 297.200,246.400 296.984,246.400 296.400 C 246.400 295.960,246.630 295.600,246.911 295.600 C 247.192 295.600,247.743 295.225,248.136 294.767 C 248.557 294.275,249.106 294.032,249.475 294.174 C 250.222 294.460,251.169 293.350,251.187 292.170 C 251.194 291.713,251.830 290.814,252.600 290.172 C 253.370 289.530,254.000 288.697,254.000 288.322 C 254.000 287.947,254.238 287.496,254.529 287.320 C 255.139 286.951,256.991 283.291,257.018 282.400 C 257.036 281.835,257.640 280.268,258.443 278.705 C 258.639 278.323,258.800 277.378,258.800 276.605 C 258.800 275.832,258.962 275.200,259.160 275.200 C 259.358 275.200,259.523 274.615,259.527 273.900 C 259.532 273.185,259.724 271.449,259.955 270.041 C 260.186 268.634,260.250 267.284,260.097 267.041 C 259.945 266.799,259.764 266.150,259.695 265.600 C 259.626 265.050,259.401 264.060,259.195 263.400 C 258.830 262.229,258.716 257.007,258.968 253.000 C 259.038 251.900,258.912 249.523,258.689 247.718 C 258.347 244.951,258.381 244.289,258.904 243.491 C 259.394 242.743,259.448 242.139,259.162 240.606 C 258.746 238.383,258.907 238.012,259.898 238.905 C 260.519 239.466,260.692 239.471,261.400 238.951 C 263.123 237.684,261.942 231.782,259.609 230.000 C 259.055 229.577,258.743 228.691,258.551 227.000 C 258.401 225.680,258.128 224.500,257.943 224.379 C 257.758 224.257,257.316 222.907,256.960 221.379 C 256.604 219.850,256.071 218.060,255.775 217.400 C 255.479 216.740,255.388 216.147,255.573 216.082 C 256.004 215.930,254.337 209.777,253.689 209.129 C 253.420 208.860,253.200 208.148,253.200 207.546 C 253.200 206.944,253.002 205.945,252.760 205.326 C 251.864 203.033,251.896 202.122,252.884 201.844 C 253.759 201.598,253.767 201.562,253.064 201.023 C 252.577 200.650,252.414 200.187,252.581 199.659 C 252.738 199.166,252.618 198.733,252.270 198.530 C 251.529 198.098,250.993 196.400,251.597 196.400 C 251.844 196.400,251.936 196.220,251.800 196.000 C 251.458 195.446,250.101 195.497,249.910 196.071 C 249.699 196.704,248.800 196.111,248.800 195.338 C 248.800 195.000,248.464 194.246,248.054 193.662 C 247.644 193.078,247.062 191.880,246.761 191.000 C 246.459 190.120,245.805 189.004,245.306 188.519 C 244.808 188.035,244.400 187.258,244.400 186.793 C 244.400 185.604,243.682 184.400,242.973 184.400 C 242.644 184.400,242.254 184.085,242.107 183.701 C 241.959 183.317,241.470 182.601,241.019 182.112 C 240.569 181.622,239.300 180.008,238.200 178.525 C 235.862 175.373,226.745 166.163,225.604 165.801 C 225.173 165.665,224.501 165.153,224.110 164.664 C 223.720 164.175,222.027 162.861,220.349 161.743 C 218.671 160.625,216.151 158.904,214.749 157.917 C 213.347 156.931,211.930 156.003,211.600 155.855 C 211.270 155.708,210.190 155.053,209.200 154.400 C 208.210 153.748,206.770 152.903,206.000 152.523 C 205.230 152.143,204.330 151.622,204.000 151.366 C 203.161 150.715,193.180 145.600,192.749 145.600 C 192.555 145.600,191.466 145.151,190.329 144.603 C 189.192 144.054,188.172 143.695,188.063 143.804 C 187.953 143.913,187.489 143.767,187.032 143.479 C 186.574 143.190,185.401 142.722,184.424 142.438 C 183.447 142.154,182.187 141.734,181.624 141.504 C 181.061 141.275,180.330 141.052,180.000 141.010 C 176.679 140.582,171.339 137.618,170.906 135.962 C 170.796 135.543,170.588 135.200,170.442 135.200 C 168.449 135.200,166.942 131.117,168.248 129.253 C 168.703 128.603,168.830 127.841,168.676 126.687 C 168.508 125.438,168.646 124.778,169.252 123.927 C 169.690 123.311,170.152 122.176,170.277 121.404 C 170.402 120.632,170.672 120.000,170.877 120.000 C 171.083 120.000,171.194 119.595,171.125 119.100 C 171.025 118.382,171.177 118.218,171.874 118.291 C 172.557 118.362,172.776 118.142,172.874 117.291 C 172.984 116.339,173.215 116.171,174.686 115.975 C 175.613 115.851,176.693 115.464,177.086 115.115 C 178.192 114.131,180.562 113.631,182.279 114.018 C 183.343 114.258,184.114 114.202,184.858 113.831 C 185.511 113.505,186.126 113.438,186.459 113.655 C 186.757 113.850,187.689 113.898,188.531 113.764 C 189.728 113.573,190.252 113.692,190.931 114.310 C 191.409 114.745,192.457 115.218,193.260 115.361 C 195.163 115.700,197.061 116.661,197.358 117.435 C 197.488 117.774,197.771 117.942,197.986 117.809 C 198.201 117.676,198.787 117.824,199.289 118.139 C 199.790 118.453,200.915 118.938,201.789 119.216 C 202.663 119.494,203.620 119.963,203.917 120.260 C 204.213 120.556,204.938 120.906,205.528 121.037 C 206.118 121.169,207.363 121.619,208.296 122.038 C 209.228 122.457,210.173 122.800,210.396 122.800 C 210.618 122.800,210.800 123.025,210.801 123.300 C 210.801 123.583,211.341 123.819,212.043 123.845 C 212.726 123.869,213.400 124.076,213.542 124.304 C 213.916 124.904,219.040 125.242,220.318 124.751 C 221.797 124.183,224.400 123.971,224.400 124.419 C 224.400 124.620,224.837 124.894,225.371 125.028 C 225.904 125.162,226.652 125.616,227.033 126.036 C 227.770 126.850,229.390 127.064,229.800 126.400 C 230.344 125.520,231.745 126.103,233.890 128.100 C 237.512 131.472,238.129 132.103,239.603 133.949 C 241.225 135.979,243.871 137.405,244.715 136.705 C 245.588 135.980,246.400 134.127,246.400 132.859 C 246.400 131.888,246.629 131.598,247.695 131.227 C 248.407 130.979,249.370 130.298,249.835 129.715 C 250.616 128.736,250.774 128.692,251.882 129.151 C 255.119 130.492,262.023 129.247,260.947 127.518 C 260.498 126.797,260.772 125.113,261.419 124.615 C 262.165 124.041,261.135 119.179,259.563 115.858 C 258.924 114.506,258.400 113.190,258.400 112.933 C 258.400 112.677,258.262 112.407,258.092 112.333 C 257.923 112.260,256.989 110.850,256.017 109.200 C 255.045 107.550,253.744 105.660,253.126 105.000 C 252.509 104.340,252.003 103.685,252.002 103.544 C 252.001 103.403,251.363 102.593,250.584 101.744 C 249.806 100.895,248.627 99.435,247.965 98.500 C 247.303 97.565,246.590 96.800,246.381 96.800 C 246.171 96.800,246.000 96.542,246.000 96.227 C 246.000 95.912,245.685 95.534,245.300 95.388 C 244.915 95.242,242.890 93.262,240.800 90.987 C 238.710 88.713,236.820 86.836,236.600 86.815 C 236.380 86.795,235.660 86.226,235.000 85.551 C 234.340 84.876,233.305 84.066,232.700 83.751 C 232.095 83.437,231.600 83.013,231.600 82.809 C 231.600 82.605,230.787 81.879,229.794 81.196 C 228.800 80.512,227.675 79.628,227.294 79.230 C 226.912 78.833,224.910 77.376,222.844 75.993 C 219.814 73.964,218.971 73.181,218.483 71.939 C 218.096 70.952,217.622 70.400,217.163 70.400 C 216.769 70.400,216.336 70.220,216.200 70.000 C 215.714 69.213,215.315 69.620,215.514 70.700 C 215.706 71.744,215.678 71.767,214.958 71.160 C 212.404 69.005,204.586 66.486,195.800 64.986 C 194.282 64.726,166.932 64.401,166.694 64.639 " stroke="none" fill="#EC791A" fill-rule="evenodd"></path><path id="path1" d="M0.000 200.000 L 0.000 400.000 200.000 400.000 L 400.000 400.000 400.000 200.000 L 400.000 0.000 200.000 0.000 L 0.000 0.000 0.000 200.000 M195.800 64.986 C 204.586 66.486,212.404 69.005,214.958 71.160 C 215.678 71.767,215.706 71.744,215.514 70.700 C 215.315 69.620,215.714 69.213,216.200 70.000 C 216.336 70.220,216.769 70.400,217.163 70.400 C 217.622 70.400,218.096 70.952,218.483 71.939 C 218.971 73.181,219.814 73.964,222.844 75.993 C 224.910 77.376,226.912 78.833,227.294 79.230 C 227.675 79.628,228.800 80.512,229.794 81.196 C 230.787 81.879,231.600 82.605,231.600 82.809 C 231.600 83.013,232.095 83.437,232.700 83.751 C 233.305 84.066,234.340 84.876,235.000 85.551 C 235.660 86.226,236.380 86.795,236.600 86.815 C 236.820 86.836,238.710 88.713,240.800 90.987 C 242.890 93.262,244.915 95.242,245.300 95.388 C 245.685 95.534,246.000 95.912,246.000 96.227 C 246.000 96.542,246.171 96.800,246.381 96.800 C 246.590 96.800,247.303 97.565,247.965 98.500 C 248.627 99.435,249.806 100.895,250.584 101.744 C 251.363 102.593,252.001 103.403,252.002 103.544 C 252.003 103.685,252.509 104.340,253.126 105.000 C 253.744 105.660,255.045 107.550,256.017 109.200 C 256.989 110.850,257.923 112.260,258.092 112.333 C 258.262 112.407,258.400 112.677,258.400 112.933 C 258.400 113.190,258.924 114.506,259.563 115.858 C 261.135 119.179,262.165 124.041,261.419 124.615 C 260.772 125.113,260.498 126.797,260.947 127.518 C 262.023 129.247,255.119 130.492,251.882 129.151 C 250.774 128.692,250.616 128.736,249.835 129.715 C 249.370 130.298,248.407 130.979,247.695 131.227 C 246.629 131.598,246.400 131.888,246.400 132.859 C 246.400 134.127,245.588 135.980,244.715 136.705 C 243.871 137.405,241.225 135.979,239.603 133.949 C 238.129 132.103,237.512 131.472,233.890 128.100 C 231.745 126.103,230.344 125.520,229.800 126.400 C 229.390 127.064,227.770 126.850,227.033 126.036 C 226.652 125.616,225.904 125.162,225.371 125.028 C 224.837 124.894,224.400 124.620,224.400 124.419 C 224.400 123.971,221.797 124.183,220.318 124.751 C 219.040 125.242,213.916 124.904,213.542 124.304 C 213.400 124.076,212.726 123.869,212.043 123.845 C 211.341 123.819,210.801 123.583,210.801 123.300 C 210.800 123.025,210.618 122.800,210.396 122.800 C 210.173 122.800,209.228 122.457,208.296 122.038 C 207.363 121.619,206.118 121.169,205.528 121.037 C 204.938 120.906,204.213 120.556,203.917 120.260 C 203.620 119.963,202.663 119.494,201.789 119.216 C 200.915 118.938,199.790 118.453,199.289 118.139 C 198.787 117.824,198.201 117.676,197.986 117.809 C 197.771 117.942,197.488 117.774,197.358 117.435 C 197.061 116.661,195.163 115.700,193.260 115.361 C 192.457 115.218,191.409 114.745,190.931 114.310 C 190.252 113.692,189.728 113.573,188.531 113.764 C 187.689 113.898,186.757 113.850,186.459 113.655 C 186.126 113.438,185.511 113.505,184.858 113.831 C 184.114 114.202,183.343 114.258,182.279 114.018 C 180.562 113.631,178.192 114.131,177.086 115.115 C 176.693 115.464,175.613 115.851,174.686 115.975 C 173.215 116.171,172.984 116.339,172.874 117.291 C 172.776 118.142,172.557 118.362,171.874 118.291 C 171.177 118.218,171.025 118.382,171.125 119.100 C 171.194 119.595,171.083 120.000,170.877 120.000 C 170.672 120.000,170.402 120.632,170.277 121.404 C 170.152 122.176,169.690 123.311,169.252 123.927 C 168.646 124.778,168.508 125.438,168.676 126.687 C 168.830 127.841,168.703 128.603,168.248 129.253 C 166.942 131.117,168.449 135.200,170.442 135.200 C 170.588 135.200,170.796 135.543,170.906 135.962 C 171.339 137.618,176.679 140.582,180.000 141.010 C 180.330 141.052,181.061 141.275,181.624 141.504 C 182.187 141.734,183.447 142.154,184.424 142.438 C 185.401 142.722,186.574 143.190,187.032 143.479 C 187.489 143.767,187.953 143.913,188.063 143.804 C 188.172 143.695,189.192 144.054,190.329 144.603 C 191.466 145.151,192.555 145.600,192.749 145.600 C 193.180 145.600,203.161 150.715,204.000 151.366 C 204.330 151.622,205.230 152.143,206.000 152.523 C 206.770 152.903,208.210 153.748,209.200 154.400 C 210.190 155.053,211.270 155.708,211.600 155.855 C 211.930 156.003,213.347 156.931,214.749 157.917 C 216.151 158.904,218.671 160.625,220.349 161.743 C 222.027 162.861,223.720 164.175,224.110 164.664 C 224.501 165.153,225.173 165.665,225.604 165.801 C 226.745 166.163,235.862 175.373,238.200 178.525 C 239.300 180.008,240.569 181.622,241.019 182.112 C 241.470 182.601,241.959 183.317,242.107 183.701 C 242.254 184.085,242.644 184.400,242.973 184.400 C 243.682 184.400,244.400 185.604,244.400 186.793 C 244.400 187.258,244.808 188.035,245.306 188.519 C 245.805 189.004,246.459 190.120,246.761 191.000 C 247.062 191.880,247.644 193.078,248.054 193.662 C 248.464 194.246,248.800 195.000,248.800 195.338 C 248.800 196.111,249.699 196.704,249.910 196.071 C 250.101 195.497,251.458 195.446,251.800 196.000 C 251.936 196.220,251.844 196.400,251.597 196.400 C 250.993 196.400,251.529 198.098,252.270 198.530 C 252.618 198.733,252.738 199.166,252.581 199.659 C 252.414 200.187,252.577 200.650,253.064 201.023 C 253.767 201.562,253.759 201.598,252.884 201.844 C 251.896 202.122,251.864 203.033,252.760 205.326 C 253.002 205.945,253.200 206.944,253.200 207.546 C 253.200 208.148,253.420 208.860,253.689 209.129 C 254.337 209.777,256.004 215.930,255.573 216.082 C 255.388 216.147,255.479 216.740,255.775 217.400 C 256.071 218.060,256.604 219.850,256.960 221.379 C 257.316 222.907,257.758 224.257,257.943 224.379 C 258.128 224.500,258.401 225.680,258.551 227.000 C 258.743 228.691,259.055 229.577,259.609 230.000 C 261.942 231.782,263.123 237.684,261.400 238.951 C 260.692 239.471,260.519 239.466,259.898 238.905 C 258.907 238.012,258.746 238.383,259.162 240.606 C 259.448 242.139,259.394 242.743,258.904 243.491 C 258.381 244.289,258.347 244.951,258.689 247.718 C 258.912 249.523,259.038 251.900,258.968 253.000 C 258.716 257.007,258.830 262.229,259.195 263.400 C 259.401 264.060,259.626 265.050,259.695 265.600 C 259.764 266.150,259.945 266.799,260.097 267.041 C 260.250 267.284,260.186 268.634,259.955 270.041 C 259.724 271.449,259.532 273.185,259.527 273.900 C 259.523 274.615,259.358 275.200,259.160 275.200 C 258.962 275.200,258.800 275.832,258.800 276.605 C 258.800 277.378,258.639 278.323,258.443 278.705 C 257.640 280.268,257.036 281.835,257.018 282.400 C 256.991 283.291,255.139 286.951,254.529 287.320 C 254.238 287.496,254.000 287.947,254.000 288.322 C 254.000 288.697,253.370 289.530,252.600 290.172 C 251.830 290.814,251.194 291.713,251.187 292.170 C 251.169 293.350,250.222 294.460,249.475 294.174 C 249.106 294.032,248.557 294.275,248.136 294.767 C 247.743 295.225,247.192 295.600,246.911 295.600 C 246.630 295.600,246.400 295.960,246.400 296.400 C 246.400 296.984,246.133 297.200,245.413 297.200 C 244.786 297.200,244.495 297.383,244.617 297.701 C 244.808 298.198,242.382 299.186,240.906 299.213 C 240.063 299.228,238.800 300.121,238.800 300.701 C 238.800 301.184,237.859 301.600,236.767 301.600 C 236.345 301.600,236.000 301.791,236.000 302.024 C 236.000 302.267,235.787 302.311,235.500 302.126 C 234.277 301.341,233.099 301.744,232.512 303.148 C 231.960 304.469,231.975 305.038,232.614 307.100 C 232.830 307.795,232.735 308.000,232.198 308.000 C 231.620 308.000,231.588 308.103,232.008 308.610 C 232.624 309.352,232.280 309.793,231.360 309.440 C 230.989 309.298,230.795 309.072,230.929 308.938 C 231.062 308.804,230.969 308.315,230.720 307.851 C 230.257 306.985,229.944 305.543,229.949 304.291 C 229.950 303.902,229.793 303.681,229.600 303.800 C 229.406 303.920,228.896 303.640,228.466 303.179 C 227.915 302.588,227.599 302.479,227.394 302.810 C 227.194 303.133,226.429 303.196,224.952 303.011 C 223.520 302.832,222.800 302.886,222.800 303.171 C 222.800 303.407,222.440 303.600,222.000 303.600 C 221.560 303.600,221.200 303.465,221.201 303.300 C 221.201 303.135,219.964 303.059,218.452 303.131 L 215.703 303.262 215.188 306.267 C 214.418 310.774,213.039 310.808,212.128 306.341 C 211.853 304.996,211.533 303.800,211.416 303.683 C 210.897 303.164,203.956 303.162,204.025 303.681 C 204.155 304.651,204.001 305.200,203.600 305.200 C 202.847 305.200,201.470 306.872,201.969 307.181 C 202.450 307.478,201.995 310.081,201.039 312.500 C 200.628 313.540,200.061 313.957,199.949 313.300 C 199.700 311.839,199.778 310.737,200.238 309.208 C 200.811 307.304,200.433 306.207,199.520 307.120 C 198.833 307.807,198.400 307.713,198.400 306.876 C 198.400 305.113,195.466 303.388,193.625 304.069 C 193.131 304.252,192.546 304.290,192.326 304.154 C 192.106 304.018,190.440 303.824,188.624 303.721 C 184.498 303.489,184.206 303.726,183.883 307.574 C 183.719 309.538,183.384 310.780,182.796 311.606 C 181.707 313.135,180.993 313.185,181.457 311.700 C 182.297 309.009,181.781 303.909,180.572 302.945 C 179.114 301.782,177.580 301.395,177.130 302.077 C 176.856 302.492,176.674 302.455,176.248 301.900 C 175.953 301.515,175.507 301.200,175.256 301.200 C 175.005 301.200,174.800 301.050,174.800 300.868 C 174.800 300.546,173.767 299.971,171.900 299.254 C 169.721 298.417,167.333 297.185,166.598 296.517 C 166.159 296.118,164.482 294.898,162.870 293.805 C 161.259 292.712,159.381 291.319,158.698 290.709 C 158.015 290.099,157.315 289.600,157.143 289.600 C 156.971 289.600,155.997 288.790,154.979 287.800 C 153.960 286.810,153.019 286.000,152.887 286.000 C 152.547 286.000,149.600 282.697,149.600 282.316 C 149.600 282.142,149.366 282.000,149.080 282.000 C 148.572 282.000,145.113 277.998,143.203 275.200 C 142.678 274.430,141.771 273.332,141.189 272.759 C 140.607 272.187,140.017 271.422,139.878 271.060 C 139.740 270.698,139.023 269.457,138.287 268.301 C 137.550 267.145,136.100 264.400,135.063 262.200 C 134.027 260.000,132.824 257.534,132.390 256.721 C 131.955 255.907,131.600 254.927,131.600 254.542 C 131.600 254.158,131.137 253.174,130.570 252.357 C 129.971 251.493,129.416 249.978,129.243 248.736 C 129.079 247.561,128.642 246.024,128.272 245.320 C 127.903 244.616,127.600 243.772,127.600 243.444 C 127.600 243.116,126.718 241.082,125.641 238.924 C 124.563 236.766,123.280 234.010,122.790 232.800 C 122.300 231.590,121.784 230.510,121.642 230.400 C 121.208 230.063,119.659 225.140,119.178 222.567 C 118.799 220.542,118.817 217.743,119.232 214.400 C 119.461 212.556,122.132 211.135,124.409 211.647 C 125.312 211.850,126.220 211.911,126.426 211.784 C 126.632 211.657,126.800 211.732,126.800 211.951 C 126.800 212.169,127.430 212.576,128.200 212.854 C 128.970 213.133,129.600 213.505,129.600 213.680 C 129.600 213.856,129.879 214.000,130.219 214.000 C 130.560 214.000,131.236 214.429,131.723 214.954 C 132.209 215.479,133.278 216.189,134.098 216.531 C 134.917 216.874,136.427 217.794,137.451 218.577 C 139.312 219.997,141.644 220.500,142.200 219.600 C 142.608 218.940,143.690 219.145,144.674 220.070 C 145.639 220.976,145.888 222.175,145.200 222.600 C 144.468 223.052,144.784 223.870,146.400 225.705 C 147.280 226.705,148.000 227.720,148.000 227.961 C 148.000 228.203,148.355 228.400,148.790 228.400 C 149.263 228.400,149.828 228.881,150.200 229.600 C 150.541 230.260,150.962 230.800,151.135 230.800 C 151.308 230.800,151.834 231.159,152.305 231.597 C 152.775 232.035,153.754 232.725,154.480 233.130 C 155.216 233.541,155.977 234.383,156.200 235.034 C 156.420 235.675,156.989 236.515,157.463 236.900 C 157.938 237.285,158.838 238.410,159.463 239.400 C 160.089 240.389,160.783 241.199,161.006 241.199 C 161.389 241.200,166.761 246.363,168.686 248.580 C 169.173 249.141,169.937 249.600,170.385 249.600 C 170.832 249.600,172.400 250.168,173.870 250.862 C 175.693 251.724,177.110 252.116,178.334 252.097 C 180.683 252.062,184.138 254.395,185.446 256.900 C 185.896 257.761,186.307 258.000,187.338 258.000 C 188.245 258.000,188.927 258.312,189.525 259.000 C 190.026 259.576,190.826 260.000,191.410 260.000 C 191.969 260.000,193.072 260.270,193.862 260.600 C 195.550 261.305,198.679 261.383,200.274 260.760 C 200.893 260.517,202.512 260.177,203.870 260.002 C 208.079 259.462,211.880 258.092,212.815 256.779 C 213.268 256.143,214.151 255.320,214.778 254.949 C 215.405 254.579,216.341 253.591,216.859 252.753 C 217.470 251.764,218.020 251.297,218.427 251.419 C 218.772 251.523,219.478 251.156,219.997 250.604 C 220.515 250.052,221.144 249.600,221.393 249.600 C 222.170 249.600,225.694 245.222,225.443 244.568 C 225.288 244.164,225.428 244.006,225.874 244.084 C 227.699 244.405,229.546 234.062,227.996 232.196 C 227.604 231.722,227.605 231.476,228.001 230.998 C 229.297 229.437,227.807 211.969,225.971 207.200 C 225.506 205.990,224.892 204.010,224.607 202.800 C 223.083 196.322,221.416 192.933,218.061 189.492 C 212.352 183.638,211.480 182.885,210.161 182.671 C 209.421 182.551,208.210 181.991,207.470 181.426 C 206.602 180.764,205.614 180.400,204.686 180.400 C 203.895 180.400,203.146 180.236,203.021 180.035 C 202.600 179.353,197.399 177.163,193.843 176.169 C 191.870 175.617,191.240 175.591,189.981 176.006 C 188.607 176.460,188.395 176.426,187.538 175.617 C 186.015 174.180,184.316 173.475,182.447 173.503 C 180.384 173.534,178.362 172.009,179.172 171.034 C 179.631 170.481,179.361 169.200,178.786 169.200 C 178.405 169.200,177.335 170.212,177.136 170.759 C 176.837 171.582,174.024 171.736,173.775 170.944 C 173.362 169.626,172.938 169.009,172.161 168.595 C 171.742 168.372,170.950 167.894,170.400 167.533 C 169.850 167.171,168.347 166.646,167.060 166.365 C 165.772 166.084,164.630 165.622,164.521 165.338 C 164.412 165.054,163.722 164.709,162.988 164.571 C 162.253 164.433,161.343 163.979,160.964 163.560 C 160.586 163.142,160.062 162.800,159.800 162.800 C 159.538 162.800,158.998 162.440,158.600 162.000 C 158.202 161.560,157.499 161.195,157.038 161.189 C 156.577 161.183,155.493 160.643,154.629 159.989 C 153.765 159.335,152.829 158.800,152.549 158.800 C 152.270 158.800,151.573 158.366,151.002 157.837 C 150.430 157.307,149.376 156.595,148.659 156.255 C 147.943 155.915,146.862 155.178,146.258 154.618 C 145.653 154.058,145.016 153.600,144.841 153.600 C 144.666 153.600,144.090 153.230,143.561 152.778 C 138.332 148.304,136.000 146.204,136.000 145.971 C 136.000 145.818,135.617 145.593,135.148 145.471 C 134.579 145.322,134.376 145.041,134.535 144.624 C 134.671 144.270,134.564 143.996,134.287 143.992 C 132.827 143.966,123.600 128.542,123.600 126.126 C 123.600 125.603,123.231 124.079,122.780 122.741 C 122.329 121.402,122.053 120.214,122.166 120.101 C 122.279 119.987,122.186 119.547,121.958 119.122 C 121.667 118.579,121.678 118.188,121.993 117.809 C 122.278 117.465,122.324 116.818,122.118 116.024 C 121.268 112.741,122.929 98.668,124.260 97.880 C 124.557 97.704,124.800 97.318,124.800 97.022 C 124.800 96.726,125.247 96.060,125.793 95.542 C 126.339 95.024,126.789 94.313,126.793 93.961 C 126.797 93.610,127.142 92.928,127.561 92.445 C 127.980 91.962,128.824 90.540,129.437 89.284 C 130.050 88.028,130.787 86.762,131.076 86.471 C 131.364 86.181,131.600 85.800,131.600 85.626 C 131.600 84.117,139.655 75.522,143.430 73.004 C 144.547 72.259,145.694 71.368,145.979 71.025 C 146.265 70.681,146.836 70.400,147.249 70.400 C 147.662 70.400,148.000 70.166,148.000 69.880 C 148.000 69.344,151.192 67.600,152.173 67.600 C 152.476 67.600,153.416 67.255,154.262 66.834 C 156.591 65.675,160.260 64.880,163.590 64.813 C 165.235 64.780,166.632 64.702,166.694 64.639 C 166.932 64.401,194.282 64.726,195.800 64.986 " stroke="none" fill="transparent" fill-rule="evenodd"></path></g></svg>