<svg id="svg" version="1.1" xmlns="http://www.w3.org/2000/svg" xmlns:xlink="http://www.w3.org/1999/xlink" width="400" height="400" viewBox="0, 0, 400,400"><g id="svgg"><path id="path0" d="M229.600 66.331 C 229.600 66.529,227.305 66.698,224.500 66.708 C 207.802 66.765,197.961 66.790,193.200 66.785 C 190.230 66.782,186.900 66.862,185.800 66.962 C 184.700 67.063,181.010 67.273,177.600 67.430 C 174.190 67.587,170.680 67.778,169.800 67.854 C 168.920 67.930,167.079 68.093,165.710 68.216 C 164.231 68.348,162.888 68.261,162.404 68.002 C 161.758 67.657,161.539 67.694,161.351 68.183 C 161.198 68.582,160.600 68.801,159.657 68.802 C 158.856 68.803,157.570 68.971,156.800 69.175 C 156.030 69.378,154.050 69.657,152.400 69.794 C 150.750 69.931,148.770 70.131,148.000 70.238 C 147.230 70.346,144.800 70.617,142.600 70.841 C 137.395 71.372,136.421 71.485,136.300 71.573 C 136.245 71.613,134.695 71.728,132.855 71.828 C 129.088 72.032,128.894 72.102,128.387 73.435 C 127.871 74.792,128.265 75.494,129.835 76.012 C 131.261 76.482,131.630 77.609,130.856 79.126 C 130.012 80.782,129.986 82.400,130.804 82.400 C 131.523 82.400,134.752 85.411,139.064 90.104 C 140.915 92.119,147.776 96.795,150.100 97.625 C 150.925 97.920,151.600 98.285,151.600 98.436 C 151.600 98.587,152.185 98.822,152.900 98.958 C 153.615 99.093,154.714 99.472,155.342 99.800 C 155.970 100.128,156.652 100.291,156.859 100.163 C 157.066 100.036,157.452 100.107,157.718 100.321 C 157.983 100.536,159.870 100.841,161.912 100.999 C 165.983 101.315,166.779 101.913,166.814 104.680 C 166.822 105.296,167.086 106.250,167.400 106.800 C 167.741 107.397,167.977 108.932,167.986 110.611 C 167.995 112.421,168.210 113.722,168.590 114.265 C 168.983 114.826,169.187 116.156,169.201 118.254 C 169.279 130.236,169.220 132.216,168.760 133.075 C 168.371 133.802,168.377 134.438,168.791 136.164 C 169.078 137.359,169.199 138.906,169.060 139.602 C 168.866 140.570,169.143 141.586,170.240 143.933 C 172.779 149.368,171.903 156.800,168.724 156.800 C 167.753 156.800,167.793 157.978,168.832 159.972 C 169.290 160.851,169.795 162.526,169.953 163.695 C 170.112 164.864,170.388 166.056,170.566 166.345 C 170.755 166.650,170.599 167.516,170.193 168.416 C 169.618 169.690,169.570 170.265,169.919 171.681 C 170.152 172.627,170.240 174.622,170.115 176.115 C 169.883 178.891,170.741 180.800,172.221 180.800 C 173.475 180.800,173.740 183.141,172.648 184.572 C 171.359 186.262,171.357 186.394,172.602 187.838 C 173.595 188.990,173.604 189.068,173.626 196.800 C 173.639 201.090,173.656 205.050,173.663 205.600 C 173.670 206.150,173.670 221.990,173.662 240.800 C 173.645 281.318,173.591 276.518,174.097 279.200 C 174.519 281.432,177.515 287.986,178.733 289.342 C 179.288 289.959,179.420 291.207,179.521 296.742 C 179.647 303.743,179.722 304.400,180.387 304.400 C 180.625 304.400,180.800 303.384,180.800 302.007 C 180.800 299.188,181.627 294.000,182.076 294.000 C 182.491 294.000,185.565 296.134,185.585 296.435 C 185.593 296.564,186.294 297.400,187.143 298.292 C 188.398 299.611,188.822 300.489,189.410 302.986 C 189.910 305.112,190.605 306.731,191.666 308.246 C 192.510 309.450,193.200 310.575,193.200 310.747 C 193.200 310.918,194.116 312.387,195.236 314.013 C 196.807 316.294,197.358 317.504,197.650 319.320 C 198.037 321.720,199.322 324.000,200.288 324.000 C 201.124 324.000,201.320 322.960,200.678 321.932 C 200.357 321.420,199.994 320.069,199.870 318.931 C 199.746 317.793,199.140 315.938,198.523 314.808 C 197.905 313.678,196.840 311.729,196.156 310.477 C 195.298 308.906,195.033 308.046,195.301 307.704 C 195.844 307.013,196.400 307.465,196.400 308.597 C 196.400 309.714,197.897 310.413,198.433 309.546 C 198.685 309.139,198.880 309.120,199.227 309.467 C 199.852 310.092,201.912 309.393,203.116 308.147 C 203.620 307.626,204.406 307.200,204.863 307.200 C 205.521 307.200,205.646 307.018,205.463 306.321 C 205.337 305.837,205.382 305.252,205.563 305.021 C 206.085 304.354,207.200 298.874,207.200 296.975 C 207.200 296.025,207.360 295.148,207.556 295.027 C 207.752 294.906,207.827 293.770,207.722 292.503 C 207.497 289.777,207.495 289.474,207.604 273.000 C 207.655 265.177,207.532 259.806,207.287 259.188 C 206.954 258.345,206.357 253.279,206.228 250.200 C 206.210 249.760,206.058 249.187,205.891 248.928 C 205.724 248.668,205.757 248.350,205.964 248.222 C 206.198 248.077,206.201 247.500,205.971 246.697 C 205.298 244.351,205.445 244.000,207.104 244.000 C 208.662 244.000,210.800 242.523,210.800 241.446 C 210.800 240.325,209.160 239.404,207.161 239.402 L 205.202 239.400 205.201 237.895 C 205.201 237.067,205.425 236.026,205.700 235.582 C 206.087 234.958,206.092 234.708,205.720 234.476 C 205.416 234.287,205.229 233.009,205.211 230.989 C 205.196 229.235,205.157 226.144,205.126 224.120 C 205.094 222.096,205.254 220.206,205.481 219.920 C 206.183 219.033,206.356 217.099,205.784 216.527 C 205.204 215.947,205.112 210.000,205.684 210.000 C 206.253 210.000,206.015 208.781,205.400 208.545 C 204.670 208.264,204.623 207.074,205.300 205.982 C 205.625 205.457,205.660 205.075,205.400 204.888 C 204.899 204.527,204.746 192.000,205.243 192.000 C 205.439 192.000,205.600 191.730,205.600 191.400 C 205.600 191.070,205.453 190.800,205.272 190.800 C 205.092 190.800,204.964 189.613,204.988 188.161 C 205.011 186.710,204.901 184.169,204.743 182.514 C 204.585 180.859,204.619 179.076,204.819 178.551 C 205.053 177.934,205.022 177.248,204.732 176.610 C 204.388 175.856,204.402 175.479,204.790 175.012 C 205.163 174.563,205.181 174.259,204.858 173.870 C 204.538 173.484,204.546 173.214,204.890 172.870 C 205.236 172.524,205.242 172.282,204.913 171.953 C 204.417 171.457,204.677 168.898,205.304 168.100 C 205.568 167.765,205.554 167.600,205.263 167.600 C 204.531 167.600,203.977 166.133,204.339 165.154 C 204.554 164.573,204.487 163.889,204.153 163.245 C 203.867 162.693,203.647 161.504,203.665 160.603 C 203.683 159.702,203.570 158.209,203.414 157.286 C 203.150 155.718,203.202 155.579,204.206 155.198 C 204.946 154.917,205.206 154.593,205.041 154.162 C 204.908 153.817,204.800 153.369,204.800 153.167 C 204.800 152.965,204.418 152.417,203.950 151.950 C 202.982 150.982,202.672 145.976,203.561 145.680 C 203.857 145.581,203.932 145.045,203.770 144.181 L 203.518 142.837 204.951 143.070 C 209.568 143.819,209.978 137.687,205.439 135.790 C 204.596 135.438,203.638 135.253,203.309 135.380 C 202.853 135.555,202.765 135.394,202.937 134.705 C 203.061 134.207,203.014 133.141,202.832 132.336 C 202.576 131.206,202.645 130.726,203.136 130.236 C 203.704 129.668,203.707 129.535,203.165 128.994 C 202.695 128.523,202.619 127.874,202.824 126.094 C 202.970 124.832,202.959 123.620,202.799 123.400 C 202.640 123.180,202.398 120.952,202.261 118.449 C 202.125 115.946,201.853 113.696,201.657 113.449 C 201.351 113.063,200.990 110.944,200.683 107.733 C 200.637 107.256,200.468 106.735,200.307 106.574 C 200.146 106.413,200.116 105.878,200.240 105.384 C 200.364 104.891,200.259 104.360,200.006 104.204 C 199.682 104.003,199.749 103.698,200.238 103.158 C 200.618 102.738,200.824 102.291,200.697 102.164 C 200.127 101.593,201.300 99.600,202.206 99.600 C 202.716 99.600,203.203 99.391,203.288 99.135 C 203.373 98.880,204.243 98.625,205.222 98.569 C 206.200 98.514,207.180 98.432,207.400 98.387 C 207.620 98.342,207.890 98.349,208.000 98.402 C 208.612 98.696,211.474 98.615,211.896 98.290 C 212.548 97.789,214.988 98.262,215.609 99.011 C 216.274 99.813,216.800 99.752,216.800 98.873 C 216.800 98.026,227.599 97.970,228.613 98.811 C 228.925 99.070,229.220 99.091,229.361 98.863 C 229.621 98.442,235.160 98.464,235.831 98.889 C 236.067 99.039,237.341 98.910,238.661 98.602 C 240.039 98.280,241.898 98.139,243.030 98.271 C 244.113 98.397,245.360 98.485,245.800 98.467 C 246.498 98.438,265.307 98.445,268.000 98.475 C 271.035 98.509,274.714 98.066,275.500 97.573 C 276.224 97.118,276.554 97.104,277.188 97.500 C 277.845 97.910,278.095 97.870,278.688 97.260 C 279.080 96.857,279.715 96.415,280.100 96.277 C 280.485 96.138,280.800 95.749,280.800 95.413 C 280.800 95.076,281.089 94.800,281.443 94.800 C 281.844 94.800,282.001 94.579,281.860 94.213 C 281.736 93.890,281.769 93.543,281.934 93.441 C 282.098 93.339,282.262 91.941,282.299 90.333 C 282.346 88.238,282.249 87.579,281.956 88.005 C 281.638 88.468,281.601 88.409,281.789 87.738 C 281.950 87.161,281.635 86.252,280.837 84.994 C 280.181 83.960,279.533 82.606,279.397 81.985 C 279.260 81.363,278.890 80.641,278.574 80.379 C 278.258 80.117,278.000 79.654,278.000 79.351 C 278.000 79.048,277.726 78.800,277.390 78.800 C 277.055 78.800,276.620 78.395,276.424 77.900 C 276.032 76.912,270.959 72.156,268.754 70.711 C 263.405 67.204,260.150 66.672,244.212 66.706 C 236.560 66.723,230.726 66.574,230.312 66.353 C 229.908 66.136,229.600 66.127,229.600 66.331 " stroke="none" fill="#EC791A" fill-rule="evenodd"></path><path id="path1" d="M0.000 200.000 L 0.000 400.000 200.000 400.000 L 400.000 400.000 400.000 200.000 L 400.000 0.000 200.000 0.000 L 0.000 0.000 0.000 200.000 M244.212 66.706 C 260.150 66.672,263.405 67.204,268.754 70.711 C 270.959 72.156,276.032 76.912,276.424 77.900 C 276.620 78.395,277.055 78.800,277.390 78.800 C 277.726 78.800,278.000 79.048,278.000 79.351 C 278.000 79.654,278.258 80.117,278.574 80.379 C 278.890 80.641,279.260 81.363,279.397 81.985 C 279.533 82.606,280.181 83.960,280.837 84.994 C 281.635 86.252,281.950 87.161,281.789 87.738 C 281.601 88.409,281.638 88.468,281.956 88.005 C 282.249 87.579,282.346 88.238,282.299 90.333 C 282.262 91.941,282.098 93.339,281.934 93.441 C 281.769 93.543,281.736 93.890,281.860 94.213 C 282.001 94.579,281.844 94.800,281.443 94.800 C 281.089 94.800,280.800 95.076,280.800 95.413 C 280.800 95.749,280.485 96.138,280.100 96.277 C 279.715 96.415,279.080 96.857,278.688 97.260 C 278.095 97.870,277.845 97.910,277.188 97.500 C 276.554 97.104,276.224 97.118,275.500 97.573 C 274.714 98.066,271.035 98.509,268.000 98.475 C 265.307 98.445,246.498 98.438,245.800 98.467 C 245.360 98.485,244.113 98.397,243.030 98.271 C 241.898 98.139,240.039 98.280,238.661 98.602 C 237.341 98.910,236.067 99.039,235.831 98.889 C 235.160 98.464,229.621 98.442,229.361 98.863 C 229.220 99.091,228.925 99.070,228.613 98.811 C 227.599 97.970,216.800 98.026,216.800 98.873 C 216.800 99.752,216.274 99.813,215.609 99.011 C 214.988 98.262,212.548 97.789,211.896 98.290 C 211.474 98.615,208.612 98.696,208.000 98.402 C 207.890 98.349,207.620 98.342,207.400 98.387 C 207.180 98.432,206.200 98.514,205.222 98.569 C 204.243 98.625,203.373 98.880,203.288 99.135 C 203.203 99.391,202.716 99.600,202.206 99.600 C 201.300 99.600,200.127 101.593,200.697 102.164 C 200.824 102.291,200.618 102.738,200.238 103.158 C 199.749 103.698,199.682 104.003,200.006 104.204 C 200.259 104.360,200.364 104.891,200.240 105.384 C 200.116 105.878,200.146 106.413,200.307 106.574 C 200.468 106.735,200.637 107.256,200.683 107.733 C 200.990 110.944,201.351 113.063,201.657 113.449 C 201.853 113.696,202.125 115.946,202.261 118.449 C 202.398 120.952,202.640 123.180,202.799 123.400 C 202.959 123.620,202.970 124.832,202.824 126.094 C 202.619 127.874,202.695 128.523,203.165 128.994 C 203.707 129.535,203.704 129.668,203.136 130.236 C 202.645 130.726,202.576 131.206,202.832 132.336 C 203.014 133.141,203.061 134.207,202.937 134.705 C 202.765 135.394,202.853 135.555,203.309 135.380 C 203.638 135.253,204.596 135.438,205.439 135.790 C 209.978 137.687,209.568 143.819,204.951 143.070 L 203.518 142.837 203.770 144.181 C 203.932 145.045,203.857 145.581,203.561 145.680 C 202.672 145.976,202.982 150.982,203.950 151.950 C 204.418 152.417,204.800 152.965,204.800 153.167 C 204.800 153.369,204.908 153.817,205.041 154.162 C 205.206 154.593,204.946 154.917,204.206 155.198 C 203.202 155.579,203.150 155.718,203.414 157.286 C 203.570 158.209,203.683 159.702,203.665 160.603 C 203.647 161.504,203.867 162.693,204.153 163.245 C 204.487 163.889,204.554 164.573,204.339 165.154 C 203.977 166.133,204.531 167.600,205.263 167.600 C 205.554 167.600,205.568 167.765,205.304 168.100 C 204.677 168.898,204.417 171.457,204.913 171.953 C 205.242 172.282,205.236 172.524,204.890 172.870 C 204.546 173.214,204.538 173.484,204.858 173.870 C 205.181 174.259,205.163 174.563,204.790 175.012 C 204.402 175.479,204.388 175.856,204.732 176.610 C 205.022 177.248,205.053 177.934,204.819 178.551 C 204.619 179.076,204.585 180.859,204.743 182.514 C 204.901 184.169,205.011 186.710,204.988 188.161 C 204.964 189.613,205.092 190.800,205.272 190.800 C 205.453 190.800,205.600 191.070,205.600 191.400 C 205.600 191.730,205.439 192.000,205.243 192.000 C 204.746 192.000,204.899 204.527,205.400 204.888 C 205.660 205.075,205.625 205.457,205.300 205.982 C 204.623 207.074,204.670 208.264,205.400 208.545 C 206.015 208.781,206.253 210.000,205.684 210.000 C 205.112 210.000,205.204 215.947,205.784 216.527 C 206.356 217.099,206.183 219.033,205.481 219.920 C 205.254 220.206,205.094 222.096,205.126 224.120 C 205.157 226.144,205.196 229.235,205.211 230.989 C 205.229 233.009,205.416 234.287,205.720 234.476 C 206.092 234.708,206.087 234.958,205.700 235.582 C 205.425 236.026,205.201 237.067,205.201 237.895 L 205.202 239.400 207.161 239.402 C 209.160 239.404,210.800 240.325,210.800 241.446 C 210.800 242.523,208.662 244.000,207.104 244.000 C 205.445 244.000,205.298 244.351,205.971 246.697 C 206.201 247.500,206.198 248.077,205.964 248.222 C 205.757 248.350,205.724 248.668,205.891 248.928 C 206.058 249.187,206.210 249.760,206.228 250.200 C 206.357 253.279,206.954 258.345,207.287 259.188 C 207.532 259.806,207.655 265.177,207.604 273.000 C 207.495 289.474,207.497 289.777,207.722 292.503 C 207.827 293.770,207.752 294.906,207.556 295.027 C 207.360 295.148,207.200 296.025,207.200 296.975 C 207.200 298.874,206.085 304.354,205.563 305.021 C 205.382 305.252,205.337 305.837,205.463 306.321 C 205.646 307.018,205.521 307.200,204.863 307.200 C 204.406 307.200,203.620 307.626,203.116 308.147 C 201.912 309.393,199.852 310.092,199.227 309.467 C 198.880 309.120,198.685 309.139,198.433 309.546 C 197.897 310.413,196.400 309.714,196.400 308.597 C 196.400 307.465,195.844 307.013,195.301 307.704 C 195.033 308.046,195.298 308.906,196.156 310.477 C 196.840 311.729,197.905 313.678,198.523 314.808 C 199.140 315.938,199.746 317.793,199.870 318.931 C 199.994 320.069,200.357 321.420,200.678 321.932 C 201.320 322.960,201.124 324.000,200.288 324.000 C 199.322 324.000,198.037 321.720,197.650 319.320 C 197.358 317.504,196.807 316.294,195.236 314.013 C 194.116 312.387,193.200 310.918,193.200 310.747 C 193.200 310.575,192.510 309.450,191.666 308.246 C 190.605 306.731,189.910 305.112,189.410 302.986 C 188.822 300.489,188.398 299.611,187.143 298.292 C 186.294 297.400,185.593 296.564,185.585 296.435 C 185.565 296.134,182.491 294.000,182.076 294.000 C 181.627 294.000,180.800 299.188,180.800 302.007 C 180.800 303.384,180.625 304.400,180.387 304.400 C 179.722 304.400,179.647 303.743,179.521 296.742 C 179.420 291.207,179.288 289.959,178.733 289.342 C 177.515 287.986,174.519 281.432,174.097 279.200 C 173.591 276.518,173.645 281.318,173.662 240.800 C 173.670 221.990,173.670 206.150,173.663 205.600 C 173.656 205.050,173.639 201.090,173.626 196.800 C 173.604 189.068,173.595 188.990,172.602 187.838 C 171.357 186.394,171.359 186.262,172.648 184.572 C 173.740 183.141,173.475 180.800,172.221 180.800 C 170.741 180.800,169.883 178.891,170.115 176.115 C 170.240 174.622,170.152 172.627,169.919 171.681 C 169.570 170.265,169.618 169.690,170.193 168.416 C 170.599 167.516,170.755 166.650,170.566 166.345 C 170.388 166.056,170.112 164.864,169.953 163.695 C 169.795 162.526,169.290 160.851,168.832 159.972 C 167.793 157.978,167.753 156.800,168.724 156.800 C 171.903 156.800,172.779 149.368,170.240 143.933 C 169.143 141.586,168.866 140.570,169.060 139.602 C 169.199 138.906,169.078 137.359,168.791 136.164 C 168.377 134.438,168.371 133.802,168.760 133.075 C 169.220 132.216,169.279 130.236,169.201 118.254 C 169.187 116.156,168.983 114.826,168.590 114.265 C 168.210 113.722,167.995 112.421,167.986 110.611 C 167.977 108.932,167.741 107.397,167.400 106.800 C 167.086 106.250,166.822 105.296,166.814 104.680 C 166.779 101.913,165.983 101.315,161.912 100.999 C 159.870 100.841,157.983 100.536,157.718 100.321 C 157.452 100.107,157.066 100.036,156.859 100.163 C 156.652 100.291,155.970 100.128,155.342 99.800 C 154.714 99.472,153.615 99.093,152.900 98.958 C 152.185 98.822,151.600 98.587,151.600 98.436 C 151.600 98.285,150.925 97.920,150.100 97.625 C 147.776 96.795,140.915 92.119,139.064 90.104 C 134.752 85.411,131.523 82.400,130.804 82.400 C 129.986 82.400,130.012 80.782,130.856 79.126 C 131.630 77.609,131.261 76.482,129.835 76.012 C 128.265 75.494,127.871 74.792,128.387 73.435 C 128.894 72.102,129.088 72.032,132.855 71.828 C 134.695 71.728,136.245 71.613,136.300 71.573 C 136.421 71.485,137.395 71.372,142.600 70.841 C 144.800 70.617,147.230 70.346,148.000 70.238 C 148.770 70.131,150.750 69.931,152.400 69.794 C 154.050 69.657,156.030 69.378,156.800 69.175 C 157.570 68.971,158.856 68.803,159.657 68.802 C 160.600 68.801,161.198 68.582,161.351 68.183 C 161.539 67.694,161.758 67.657,162.404 68.002 C 162.888 68.261,164.231 68.348,165.710 68.216 C 167.079 68.093,168.920 67.930,169.800 67.854 C 170.680 67.778,174.190 67.587,177.600 67.430 C 181.010 67.273,184.700 67.063,185.800 66.962 C 186.900 66.862,190.230 66.782,193.200 66.785 C 197.961 66.790,207.802 66.765,224.500 66.708 C 227.305 66.698,229.600 66.529,229.600 66.331 C 229.600 66.127,229.908 66.136,230.312 66.353 C 230.726 66.574,236.560 66.723,244.212 66.706 " stroke="none" fill="transparent" fill-rule="evenodd"></path></g></svg>