<svg id="svg" version="1.1" xmlns="http://www.w3.org/2000/svg" xmlns:xlink="http://www.w3.org/1999/xlink" width="400" height="540.6060606060606" viewBox="0, 0, 400,540.6060606060606"><g id="svgg"><path id="path0" d="M329.400 45.686 C 328.960 45.940,328.362 46.385,328.071 46.674 C 327.318 47.424,326.533 47.325,325.885 46.400 L 325.324 45.600 324.600 46.400 C 323.740 47.350,322.974 47.429,322.655 46.600 C 322.387 45.902,322.033 45.857,321.200 46.414 C 320.676 46.764,320.690 46.884,321.309 47.359 C 321.989 47.879,321.989 47.955,321.309 49.149 C 320.552 50.480,320.000 50.764,320.000 49.824 C 320.000 49.507,319.792 49.119,319.538 48.961 C 319.206 48.756,319.141 49.081,319.308 50.113 C 319.469 51.104,319.364 51.698,318.971 52.024 C 318.657 52.285,318.400 52.814,318.400 53.200 C 318.400 53.586,318.130 54.126,317.800 54.400 C 317.470 54.674,317.200 55.214,317.200 55.600 C 317.200 55.986,316.948 56.511,316.640 56.767 C 316.332 57.022,316.097 57.842,316.119 58.588 C 316.146 59.569,315.890 60.161,315.191 60.727 C 314.357 61.402,314.230 61.830,314.266 63.855 C 314.288 65.145,314.132 66.417,313.919 66.682 C 313.447 67.270,313.837 68.000,314.624 68.000 C 315.555 68.000,315.285 68.778,314.180 69.282 L 313.160 69.747 314.480 70.173 C 315.446 70.486,315.831 70.868,315.917 71.600 C 316.003 72.333,315.934 72.451,315.658 72.042 C 315.444 71.725,314.992 71.594,314.615 71.739 C 313.853 72.031,314.155 72.800,315.031 72.800 C 315.476 72.800,315.542 73.063,315.310 73.900 C 314.864 75.512,314.984 77.449,315.602 78.603 C 315.998 79.344,316.025 79.735,315.701 80.059 C 315.377 80.383,315.377 80.694,315.699 81.210 C 316.042 81.759,315.991 82.066,315.470 82.587 C 314.767 83.290,314.552 85.400,315.146 85.767 C 315.697 86.107,316.015 88.900,315.564 89.443 C 315.280 89.786,315.315 90.200,315.677 90.793 C 316.306 91.822,315.165 92.970,313.911 92.572 C 313.312 92.382,313.399 92.686,314.388 94.246 L 315.597 96.152 314.389 97.332 C 313.555 98.148,313.257 98.749,313.424 99.276 C 313.557 99.695,313.446 100.303,313.178 100.627 C 312.787 101.097,312.821 101.360,313.345 101.939 C 314.176 102.858,314.173 103.545,313.334 104.472 C 312.467 105.431,313.191 106.934,314.853 107.622 C 316.499 108.304,316.265 108.875,313.918 109.907 C 312.331 110.605,311.964 110.924,312.327 111.287 C 312.587 111.547,312.800 112.084,312.800 112.480 C 312.800 112.876,313.115 113.515,313.500 113.900 C 314.301 114.701,314.397 117.991,313.692 120.485 C 313.321 121.800,313.360 121.997,314.036 122.212 C 315.106 122.551,315.071 123.996,314.000 123.716 C 313.351 123.546,313.200 123.704,313.200 124.553 C 313.200 125.606,314.182 126.054,314.487 125.140 C 314.571 124.887,314.640 125.328,314.640 126.120 C 314.640 126.967,314.949 127.902,315.391 128.390 C 315.966 129.025,316.031 129.329,315.671 129.689 C 315.094 130.266,315.052 131.861,315.605 132.203 C 315.861 132.361,315.874 132.696,315.641 133.112 C 315.373 133.592,315.535 134.083,316.239 134.919 C 317.443 136.350,317.119 136.956,315.307 136.662 C 314.016 136.453,313.936 136.500,314.196 137.318 C 314.349 137.803,314.571 138.740,314.688 139.400 C 314.805 140.060,315.059 140.800,315.252 141.043 C 315.471 141.319,315.277 141.902,314.740 142.585 C 313.896 143.659,313.893 143.710,314.598 144.904 C 315.296 146.086,315.295 146.142,314.559 146.685 C 313.844 147.214,313.840 147.269,314.500 147.643 C 314.885 147.861,315.200 148.459,315.200 148.971 C 315.200 149.483,315.458 150.116,315.773 150.378 C 316.264 150.785,316.229 150.971,315.534 151.666 C 314.965 152.235,314.773 152.838,314.896 153.674 C 315.038 154.643,314.895 154.936,314.136 155.224 C 312.949 155.676,312.931 156.306,314.100 156.472 C 314.595 156.542,315.000 156.780,315.000 157.000 C 315.000 157.220,314.595 157.458,314.100 157.528 C 313.179 157.659,312.914 158.176,313.563 158.577 C 313.763 158.701,313.907 160.045,313.884 161.564 C 313.856 163.358,314.031 164.556,314.384 164.980 C 314.791 165.471,314.812 165.748,314.469 166.091 C 314.125 166.435,314.170 166.725,314.648 167.253 C 315.233 167.899,315.220 168.049,314.493 169.079 C 313.934 169.869,313.761 170.600,313.904 171.554 C 314.053 172.548,313.931 173.007,313.445 173.279 C 312.597 173.753,313.037 174.506,313.986 174.204 C 314.782 173.952,315.395 174.963,314.914 175.736 C 314.755 175.991,314.682 177.452,314.752 178.982 C 314.862 181.375,314.798 181.697,314.300 181.283 C 313.791 180.861,311.921 181.380,310.854 182.240 C 310.774 182.305,311.089 182.842,311.554 183.433 C 312.569 184.723,312.621 185.200,311.749 185.200 C 311.208 185.200,311.143 185.485,311.367 186.885 C 311.601 188.346,311.515 188.662,310.718 189.268 C 309.656 190.076,310.108 191.400,311.446 191.400 C 313.799 191.400,314.754 194.158,312.668 194.929 C 311.791 195.253,312.036 197.058,313.223 199.015 C 314.599 201.283,314.563 209.200,313.177 209.200 C 312.962 209.200,312.000 210.982,312.000 211.381 C 312.000 211.460,312.335 211.437,312.745 211.330 C 314.130 210.968,314.154 212.788,312.771 213.270 C 311.336 213.770,311.332 213.860,312.675 215.104 L 313.750 216.101 312.706 216.861 C 311.801 217.521,311.708 217.782,312.009 218.831 C 312.316 219.903,312.271 220.013,311.611 219.804 C 311.202 219.674,310.756 219.748,310.619 219.969 C 310.269 220.536,311.841 222.000,312.800 222.000 C 313.896 222.000,313.814 222.714,312.700 222.872 C 311.518 223.040,311.299 225.911,312.408 226.690 C 313.320 227.330,313.675 229.596,312.909 229.890 C 312.600 230.009,312.142 229.902,311.893 229.653 C 311.249 229.009,310.400 229.092,310.400 229.800 C 310.400 230.130,310.562 230.400,310.760 230.400 C 311.337 230.400,312.863 233.259,312.622 233.887 C 312.501 234.201,312.575 234.780,312.786 235.174 C 313.080 235.724,312.941 236.103,312.185 236.815 C 311.040 237.890,310.973 238.559,311.809 240.559 L 312.418 242.016 311.200 242.260 C 309.512 242.598,309.451 242.907,310.814 244.214 C 311.466 244.838,312.000 245.599,312.000 245.903 C 312.000 246.208,312.264 246.721,312.587 247.044 C 313.202 247.659,313.104 249.216,312.319 251.297 C 312.091 251.901,312.000 252.758,312.117 253.202 C 312.396 254.269,311.023 255.083,310.157 254.365 C 309.737 254.016,309.442 253.998,309.138 254.302 C 308.505 254.935,309.163 255.703,310.124 255.452 C 312.142 254.924,312.687 257.218,310.736 258.027 C 309.479 258.547,309.477 258.553,310.336 259.124 C 311.506 259.901,311.522 262.129,310.364 262.940 C 309.233 263.732,309.539 264.895,311.004 265.376 C 312.644 265.913,312.661 265.942,311.730 266.594 C 310.783 267.257,310.201 270.671,310.892 271.508 C 311.192 271.872,311.125 272.220,310.652 272.742 C 310.035 273.424,310.059 273.499,311.038 273.945 C 311.870 274.324,311.988 274.533,311.618 274.979 C 311.265 275.404,311.273 275.728,311.653 276.336 C 312.034 276.947,312.042 277.267,311.685 277.697 C 311.352 278.099,311.342 278.382,311.650 278.690 C 311.953 278.993,311.960 279.690,311.677 281.020 C 311.398 282.327,311.403 283.207,311.693 283.843 C 312.018 284.557,311.964 284.995,311.457 285.770 C 311.096 286.321,310.800 287.215,310.800 287.757 C 310.800 288.346,310.519 288.827,310.100 288.955 C 309.715 289.073,310.086 289.076,310.924 288.962 L 312.448 288.755 311.778 289.777 C 311.404 290.349,310.729 290.800,310.249 290.800 C 308.438 290.800,308.399 292.548,310.199 293.017 C 312.059 293.501,312.569 295.377,311.451 297.617 C 310.882 298.759,310.899 298.847,311.827 299.454 C 312.535 299.918,312.800 300.454,312.800 301.422 C 312.800 302.154,312.980 302.864,313.200 303.000 C 313.841 303.396,313.660 304.109,312.984 303.849 C 311.396 303.240,310.184 305.191,311.717 305.890 C 312.685 306.331,313.043 310.240,312.235 311.545 C 312.050 311.844,311.846 312.781,311.783 313.627 C 311.627 315.721,311.289 316.196,310.460 315.487 C 310.097 315.176,309.485 314.810,309.100 314.673 C 308.090 314.315,308.178 315.799,309.209 316.521 C 310.249 317.250,309.952 317.960,308.094 319.183 C 307.272 319.724,306.530 320.215,306.443 320.273 C 306.357 320.332,306.702 320.716,307.210 321.128 C 308.318 322.025,308.071 323.041,306.610 323.596 C 306.055 323.807,305.600 324.262,305.600 324.606 C 305.600 325.782,304.015 328.341,303.107 328.632 C 302.258 328.904,302.288 328.953,303.576 329.389 C 305.203 329.940,305.626 330.763,304.442 331.073 C 303.597 331.294,303.458 331.708,303.582 333.647 C 303.654 334.769,302.706 336.000,301.771 336.000 C 301.457 336.000,301.200 336.168,301.200 336.373 C 301.200 336.578,300.840 336.860,300.400 337.000 C 299.415 337.313,299.362 338.338,300.295 339.020 C 301.174 339.662,301.248 342.406,300.405 343.064 C 299.881 343.473,299.887 343.615,300.452 344.264 C 301.427 345.384,301.696 347.022,301.000 347.600 C 300.622 347.914,300.496 348.443,300.651 349.062 C 300.973 350.344,299.828 351.600,298.338 351.600 C 296.991 351.600,296.856 352.188,298.055 352.829 C 299.113 353.396,298.893 358.437,297.729 360.307 C 296.784 361.826,295.009 363.470,294.499 363.300 C 293.678 363.026,293.473 364.118,294.239 364.685 C 295.016 365.261,294.242 366.400,293.075 366.400 C 292.870 366.400,292.904 366.643,293.151 366.940 C 293.985 367.946,293.679 371.208,292.643 372.352 C 292.174 372.870,291.870 373.831,291.843 374.877 C 291.803 376.454,291.713 376.584,290.480 376.837 C 288.812 377.179,288.564 377.433,289.177 378.173 C 289.726 378.834,289.431 379.600,288.629 379.600 C 288.262 379.600,288.089 380.304,288.052 381.940 C 287.981 385.087,287.011 387.115,286.010 386.209 C 285.347 385.609,285.274 385.681,284.851 387.362 C 284.155 390.128,284.263 391.471,285.202 391.716 C 285.761 391.863,285.924 392.132,285.742 392.607 C 285.505 393.225,285.448 393.229,285.121 392.644 C 284.621 391.751,284.000 391.838,284.000 392.800 C 284.000 393.240,284.180 393.600,284.400 393.600 C 284.985 393.600,284.865 394.881,284.196 395.765 C 283.855 396.215,283.716 396.923,283.858 397.487 C 284.028 398.168,283.828 398.732,283.162 399.440 C 282.386 400.267,282.310 400.552,282.716 401.118 C 283.568 402.307,283.693 402.776,283.431 403.817 C 283.150 404.939,282.532 404.785,281.997 403.459 C 281.721 402.774,281.646 402.742,281.625 403.300 C 281.611 403.685,281.296 404.000,280.924 404.000 C 280.304 404.000,280.302 404.042,280.893 404.500 C 281.645 405.081,281.082 409.821,280.318 409.349 C 279.071 408.579,275.181 410.850,275.875 411.943 C 276.317 412.638,274.895 414.393,273.879 414.406 C 272.819 414.420,272.226 415.108,272.740 415.728 C 273.145 416.215,272.985 416.467,271.814 417.191 C 270.816 417.808,270.400 418.354,270.400 419.049 C 270.400 422.369,267.427 424.452,266.617 421.699 C 266.306 420.641,266.082 420.445,265.417 420.644 C 264.037 421.059,263.810 421.527,264.578 422.376 C 265.974 423.918,265.059 424.515,262.986 423.413 L 261.145 422.434 260.579 423.788 C 259.977 425.230,258.607 425.967,257.880 425.240 C 257.638 424.998,257.069 424.800,256.616 424.800 C 256.163 424.800,255.568 424.440,255.293 424.000 C 255.018 423.560,254.525 423.200,254.197 423.200 C 253.502 423.200,253.423 423.663,254.016 424.256 C 254.835 425.075,253.108 426.599,252.085 425.961 C 251.453 425.565,251.101 425.539,250.777 425.863 C 250.453 426.187,250.008 426.184,249.119 425.853 C 248.041 425.451,247.837 425.499,247.323 426.270 C 246.859 426.964,246.475 427.097,245.422 426.926 C 244.657 426.802,243.986 426.899,243.827 427.156 C 243.376 427.886,242.804 427.663,242.400 426.600 C 241.968 425.465,241.140 425.308,240.385 426.218 C 240.085 426.580,239.608 426.723,239.236 426.564 C 238.886 426.414,238.204 426.313,237.720 426.340 C 237.236 426.366,236.730 426.211,236.596 425.994 C 236.212 425.373,234.800 425.535,234.800 426.200 C 234.800 426.530,235.070 426.800,235.400 426.800 C 235.730 426.800,236.000 426.974,236.000 427.187 C 236.000 427.574,234.957 427.339,234.200 426.781 C 233.310 426.125,232.189 426.202,231.800 426.946 C 231.283 427.934,230.705 427.916,230.184 426.898 C 229.225 425.022,228.000 424.174,228.000 425.386 C 228.000 427.338,223.895 425.987,223.037 423.753 C 222.717 422.919,222.000 423.090,222.000 424.000 C 222.000 425.220,219.125 425.142,218.299 423.900 L 217.701 423.000 216.013 423.900 C 213.959 424.995,213.804 425.000,212.433 424.023 C 211.833 423.596,210.725 423.250,209.971 423.254 C 209.217 423.257,207.970 423.144,207.200 423.002 C 206.430 422.860,204.852 422.649,203.694 422.534 C 202.173 422.383,201.475 422.113,201.180 421.563 C 200.722 420.707,199.211 420.549,198.480 421.280 C 198.143 421.617,198.000 421.626,198.000 421.311 C 198.000 420.363,195.922 418.371,195.178 418.607 C 194.694 418.761,194.301 418.563,194.010 418.019 C 193.759 417.549,193.170 417.200,192.629 417.200 C 192.110 417.200,191.582 416.930,191.455 416.600 C 191.086 415.638,190.484 415.906,190.210 417.155 L 189.956 418.310 187.598 417.168 C 184.853 415.838,183.535 415.455,181.600 415.423 C 180.414 415.404,180.205 415.263,180.231 414.505 C 180.271 413.354,178.858 412.832,178.186 413.751 C 177.377 414.858,176.978 414.599,173.415 410.654 C 172.300 409.420,171.825 409.157,171.055 409.350 C 170.461 409.499,169.915 409.379,169.631 409.037 C 169.378 408.732,168.827 408.572,168.408 408.682 C 167.932 408.807,167.266 408.503,166.638 407.874 C 165.969 407.205,165.354 406.939,164.808 407.082 C 163.943 407.308,160.800 405.514,160.800 404.794 C 160.800 404.577,160.142 404.400,159.338 404.400 C 157.917 404.400,157.896 404.378,158.577 403.625 C 158.963 403.199,159.160 402.659,159.016 402.425 C 158.635 401.810,157.612 401.903,157.353 402.577 C 156.757 404.132,151.833 400.205,152.258 398.513 C 152.584 397.214,151.383 395.874,150.376 396.413 C 149.214 397.035,148.604 396.865,148.538 395.900 C 148.291 392.303,147.468 390.421,146.723 391.752 C 146.157 392.763,145.520 392.076,145.808 390.765 C 146.103 389.418,145.231 388.260,144.215 388.650 C 143.325 388.991,140.000 387.663,140.000 386.967 C 140.000 386.655,140.324 386.400,140.720 386.400 C 141.440 386.400,142.400 385.690,142.400 385.157 C 142.400 385.002,142.040 384.969,141.600 385.084 C 140.996 385.242,140.800 385.096,140.800 384.491 C 140.800 383.896,140.450 383.623,139.440 383.434 C 137.146 383.004,136.803 381.854,137.805 377.951 C 138.051 376.991,137.950 376.880,136.614 376.629 C 134.929 376.313,133.600 375.154,133.600 374.000 C 133.600 373.099,134.014 372.974,134.707 373.667 C 135.063 374.023,135.233 373.980,135.422 373.486 C 135.809 372.477,135.277 372.000,133.764 372.000 C 131.960 372.000,131.211 370.568,132.487 369.562 C 133.428 368.820,131.151 366.000,129.610 366.000 C 129.191 366.000,128.758 365.856,128.650 365.681 C 128.301 365.116,129.099 364.275,129.747 364.524 C 130.623 364.860,130.920 364.198,130.172 363.577 C 129.771 363.244,129.597 362.559,129.677 361.632 C 129.777 360.466,129.633 360.127,128.900 359.805 C 127.786 359.316,127.745 358.792,128.800 358.516 C 130.046 358.190,129.743 356.964,128.190 356.047 C 127.415 355.590,126.686 354.897,126.570 354.508 C 126.454 354.119,126.098 353.290,125.780 352.668 C 124.934 351.016,125.044 350.078,126.100 349.928 C 127.532 349.724,127.162 348.671,125.495 348.203 C 123.684 347.695,121.788 344.654,122.839 343.944 C 123.297 343.635,123.234 343.448,122.500 342.934 C 121.397 342.160,121.335 340.970,122.370 340.416 C 123.352 339.891,122.411 337.600,121.213 337.600 C 120.337 337.600,119.865 336.570,120.347 335.709 C 120.539 335.366,120.609 334.755,120.503 334.350 C 120.366 333.825,120.638 333.474,121.455 333.126 L 122.600 332.637 121.330 332.495 C 119.397 332.280,118.404 330.400,120.224 330.400 C 120.651 330.400,120.593 330.193,120.000 329.600 C 118.985 328.585,118.651 328.585,118.916 329.600 C 119.052 330.120,118.928 330.400,118.563 330.400 C 117.587 330.400,117.852 327.798,118.900 327.087 L 119.800 326.477 118.649 326.029 C 117.614 325.626,117.521 325.442,117.723 324.195 C 117.913 323.026,117.759 322.620,116.733 321.595 C 115.721 320.583,115.603 320.279,116.023 319.772 C 116.446 319.263,116.308 318.981,115.172 318.033 C 113.994 317.050,113.888 316.817,114.358 316.251 C 114.839 315.671,114.745 315.600,113.492 315.600 C 112.666 315.600,111.998 315.372,111.874 315.049 C 111.619 314.384,112.324 313.601,113.180 313.598 C 113.853 313.596,111.716 311.645,111.000 311.608 C 109.877 311.551,109.571 310.707,109.181 306.597 C 108.955 304.203,108.562 301.995,108.309 301.690 C 107.413 300.611,107.247 297.203,108.069 296.763 C 108.965 296.284,109.026 295.600,108.173 295.600 C 107.425 295.600,107.745 294.067,108.640 293.356 C 109.886 292.367,108.700 290.609,105.997 289.437 C 105.229 289.104,104.845 288.824,105.145 288.816 C 105.517 288.805,105.637 288.432,105.522 287.649 C 105.400 286.820,105.570 286.361,106.126 286.014 C 106.857 285.558,106.819 285.465,105.421 284.313 L 103.942 283.094 104.987 282.408 L 106.032 281.723 104.306 280.308 C 103.356 279.530,102.224 278.816,101.790 278.723 C 101.355 278.629,101.041 278.350,101.091 278.104 C 101.601 275.587,101.652 274.400,101.251 274.400 C 101.003 274.400,100.800 274.126,100.800 273.791 C 100.800 273.457,100.350 272.978,99.800 272.727 C 98.810 272.276,98.442 271.600,99.186 271.600 C 100.010 271.600,100.506 269.945,99.977 268.957 C 99.563 268.184,99.580 267.743,100.067 266.502 C 100.958 264.234,100.592 262.078,99.290 261.923 C 98.173 261.789,97.604 260.901,98.467 260.639 C 100.622 259.985,100.661 259.931,99.400 259.365 C 98.740 259.069,97.705 258.925,97.100 259.045 C 95.857 259.292,95.410 257.512,96.600 257.055 C 97.494 256.712,97.325 255.380,96.300 254.700 C 95.623 254.251,95.380 253.668,95.319 252.351 C 95.274 251.388,95.119 250.015,94.973 249.300 C 94.751 248.205,94.827 247.999,95.455 247.994 C 96.050 247.989,95.999 247.887,95.200 247.484 C 94.629 247.196,94.141 246.555,94.062 245.990 C 93.986 245.445,93.763 244.804,93.567 244.565 C 93.337 244.285,93.550 243.948,94.168 243.617 C 95.404 242.956,94.996 241.589,92.897 239.357 C 91.011 237.352,89.881 234.970,90.376 234.044 C 90.592 233.640,90.598 233.120,90.389 232.782 C 90.193 232.465,90.127 231.755,90.242 231.203 C 90.356 230.651,90.531 229.801,90.630 229.313 C 90.766 228.636,90.520 228.276,89.592 227.796 C 88.376 227.167,88.375 227.165,89.064 225.999 C 89.692 224.936,89.697 224.769,89.125 224.116 C 88.779 223.722,88.181 222.779,87.796 222.020 C 87.411 221.260,86.836 220.378,86.517 220.060 C 86.168 219.711,86.040 219.146,86.195 218.640 C 86.522 217.569,86.539 217.354,86.463 215.290 C 86.410 213.855,86.236 213.518,85.384 213.194 C 84.270 212.771,84.509 211.626,85.871 210.865 C 86.449 210.541,86.348 210.271,85.066 208.706 C 83.561 206.869,83.219 205.360,84.100 204.435 C 84.508 204.006,84.416 203.954,83.600 204.151 C 83.050 204.284,82.825 204.289,83.100 204.163 C 83.901 203.795,83.689 202.348,82.800 202.116 C 81.829 201.862,81.746 200.582,82.668 200.066 C 83.252 199.739,83.270 199.535,82.814 198.435 C 82.255 197.085,82.137 193.850,82.604 192.695 C 82.761 192.307,82.705 191.767,82.480 191.495 C 82.016 190.934,82.307 188.800,82.847 188.800 C 83.041 188.800,83.200 188.620,83.200 188.400 C 83.200 188.180,82.581 188.000,81.824 188.000 C 80.062 188.000,79.684 187.391,81.013 186.695 L 82.050 186.151 81.025 185.684 C 79.769 185.112,79.688 183.864,80.853 183.048 C 81.643 182.495,81.658 182.401,81.054 181.797 C 80.434 181.177,80.278 180.727,79.876 178.400 C 79.781 177.850,79.571 177.088,79.411 176.706 C 79.192 176.185,79.381 175.911,80.164 175.614 C 81.297 175.183,81.554 170.851,80.467 170.489 C 80.210 170.403,80.000 170.010,80.000 169.616 C 80.000 169.221,79.730 168.674,79.400 168.400 C 79.070 168.126,78.800 167.682,78.800 167.413 C 78.800 166.613,77.286 165.481,76.579 165.753 C 75.173 166.292,75.180 165.438,76.592 164.182 C 78.245 162.712,78.326 161.686,76.849 160.950 C 75.923 160.488,75.921 160.471,76.711 160.047 C 77.584 159.580,77.712 154.752,76.874 153.914 C 75.967 153.007,76.805 152.179,78.472 152.338 C 80.274 152.510,80.574 151.522,78.798 151.263 C 76.305 150.899,75.372 148.800,77.704 148.800 C 78.643 148.800,77.263 147.179,75.900 146.681 C 75.126 146.398,74.982 145.782,75.600 145.400 C 76.264 144.989,76.051 142.902,75.201 141.510 C 74.066 139.647,74.149 139.050,75.496 139.388 C 76.099 139.540,76.707 139.850,76.848 140.078 C 77.024 140.363,77.340 140.357,77.852 140.059 C 78.264 139.820,78.404 139.619,78.164 139.612 C 77.581 139.596,76.767 137.752,77.035 137.054 C 77.152 136.748,76.895 135.918,76.464 135.208 C 75.849 134.198,75.757 133.649,76.036 132.675 C 76.259 131.896,76.244 131.284,75.996 131.036 C 75.233 130.273,75.523 129.531,76.400 130.000 C 77.399 130.534,77.565 129.201,76.600 128.400 C 76.270 128.126,76.000 127.485,76.000 126.975 C 76.000 126.465,75.820 125.936,75.600 125.800 C 75.077 125.477,75.086 123.360,75.614 122.374 C 75.912 121.817,75.899 121.600,75.569 121.600 C 75.283 121.600,75.178 121.133,75.291 120.363 C 75.409 119.560,75.284 119.054,74.936 118.920 C 73.657 118.429,74.328 116.371,75.996 115.670 C 77.649 114.976,77.930 114.490,77.137 113.697 C 76.786 113.346,76.795 113.089,77.171 112.634 C 77.779 111.902,77.411 111.200,76.419 111.200 C 74.865 111.200,74.755 108.408,76.262 107.223 C 77.606 106.166,77.681 104.076,76.457 101.803 L 75.596 100.205 76.624 99.930 C 78.339 99.472,79.870 97.200,78.464 97.200 C 78.021 97.200,77.200 95.370,77.200 94.381 C 77.200 93.884,76.927 93.600,76.449 93.600 C 75.034 93.600,74.576 92.470,75.865 92.161 C 77.423 91.788,77.597 91.657,77.357 91.031 C 77.242 90.733,76.838 90.570,76.458 90.669 C 75.155 91.010,74.081 89.299,75.135 88.561 L 76.015 87.944 75.141 86.717 C 74.391 85.664,74.331 85.319,74.716 84.299 C 75.079 83.336,75.050 82.992,74.560 82.503 C 73.875 81.818,74.983 80.250,76.491 79.771 C 77.199 79.546,77.205 79.492,76.580 79.035 C 75.562 78.290,74.861 75.913,75.321 74.762 C 75.532 74.233,75.678 73.305,75.646 72.700 C 75.614 72.095,75.761 71.600,75.974 71.600 C 76.186 71.600,76.414 70.565,76.480 69.300 C 76.586 67.263,76.703 66.985,77.500 66.872 C 78.366 66.749,78.818 65.600,78.000 65.600 C 77.780 65.600,77.600 65.172,77.600 64.649 C 77.600 64.108,77.214 63.441,76.705 63.104 C 75.928 62.588,75.883 62.423,76.361 61.847 C 76.829 61.283,76.821 61.082,76.309 60.492 C 75.444 59.497,75.080 57.627,75.623 56.972 C 75.985 56.536,75.872 56.324,75.085 55.966 C 74.536 55.716,73.851 55.037,73.560 54.456 C 72.867 53.068,71.246 51.600,70.407 51.600 C 69.898 51.600,69.779 51.325,69.908 50.446 C 70.234 48.228,68.018 46.358,67.484 48.400 C 67.369 48.840,66.943 49.201,66.537 49.202 C 66.132 49.204,65.284 49.474,64.654 49.802 C 63.128 50.598,62.545 50.558,61.140 49.557 C 60.049 48.780,59.902 48.765,59.247 49.357 C 58.518 50.017,57.205 50.236,57.194 49.700 C 57.165 48.292,56.365 48.270,54.916 49.637 C 54.060 50.446,52.617 51.285,51.600 51.567 C 50.610 51.841,49.154 52.505,48.364 53.043 C 47.016 53.960,46.858 53.983,45.764 53.412 C 44.196 52.594,44.137 52.614,43.849 54.055 C 43.665 54.973,43.776 55.440,44.260 55.794 C 44.640 56.072,44.794 56.486,44.621 56.765 C 44.396 57.130,44.130 57.080,43.560 56.564 C 43.142 56.186,42.800 56.051,42.800 56.266 C 42.800 56.480,42.240 57.273,41.556 58.028 C 40.872 58.783,39.880 60.075,39.351 60.900 C 38.663 61.974,38.107 62.400,37.395 62.400 C 36.155 62.400,36.001 63.819,37.200 64.200 C 38.119 64.492,38.198 65.196,37.521 67.069 C 37.169 68.042,37.151 68.933,37.454 70.413 C 37.814 72.167,37.772 72.541,37.134 73.276 C 36.028 74.552,36.252 75.105,38.300 76.154 C 39.015 76.521,39.600 76.953,39.600 77.114 C 39.600 77.688,38.129 78.327,37.583 77.990 C 36.871 77.549,36.400 77.866,36.400 78.784 C 36.400 79.251,36.877 79.698,37.700 80.003 L 39.000 80.484 37.731 81.030 C 37.032 81.331,36.347 81.762,36.207 81.989 C 36.067 82.215,35.603 82.400,35.176 82.400 C 34.092 82.400,34.201 83.516,35.300 83.672 C 36.583 83.854,36.485 85.033,35.200 84.884 C 33.117 84.644,32.187 85.132,33.047 86.016 C 35.591 88.631,36.404 90.015,35.884 90.840 C 35.579 91.323,35.698 91.698,36.365 92.365 C 36.887 92.887,37.201 93.628,37.130 94.170 C 37.064 94.675,37.267 95.398,37.580 95.776 C 38.027 96.315,38.057 96.715,37.716 97.617 C 37.370 98.533,37.401 98.869,37.866 99.255 C 38.227 99.554,38.362 100.097,38.218 100.670 C 38.090 101.182,38.140 101.600,38.329 101.600 C 38.916 101.600,39.700 104.797,39.248 105.343 C 38.996 105.646,38.984 106.046,39.217 106.413 C 39.770 107.288,39.681 107.600,38.876 107.600 C 37.254 107.600,36.677 108.518,37.646 109.557 C 38.709 110.698,37.963 112.498,36.329 112.734 C 34.940 112.934,34.608 113.469,35.557 113.977 C 36.046 114.239,36.400 114.822,36.400 115.365 C 36.400 115.881,36.680 116.974,37.023 117.794 C 37.588 119.145,37.588 119.351,37.023 119.974 C 36.138 120.952,36.249 121.872,37.400 123.113 C 37.950 123.707,38.400 124.473,38.400 124.816 C 38.400 125.159,38.620 125.660,38.890 125.930 C 39.275 126.315,39.276 126.587,38.894 127.198 C 38.486 127.851,38.529 128.041,39.157 128.377 C 40.296 128.987,40.471 129.928,39.735 131.480 C 39.129 132.758,39.124 132.980,39.688 133.909 C 40.265 134.861,40.242 135.055,39.354 136.725 C 38.247 138.807,38.144 140.090,39.025 140.821 C 39.592 141.292,39.592 141.373,39.024 141.691 C 38.548 141.957,38.457 142.415,38.645 143.592 C 38.860 144.933,38.741 145.295,37.773 146.263 C 36.761 147.276,36.401 148.272,36.423 150.000 C 36.428 150.330,36.442 151.029,36.455 151.552 C 36.468 152.076,36.241 152.651,35.951 152.831 C 35.661 153.010,35.508 153.225,35.612 153.308 C 37.616 154.917,38.276 155.153,38.934 154.495 C 39.555 153.873,39.600 153.884,39.600 154.652 C 39.600 155.105,39.258 155.786,38.840 156.164 C 38.018 156.908,37.464 158.400,38.010 158.400 C 38.195 158.400,38.463 158.805,38.605 159.300 C 38.747 159.795,39.153 160.830,39.506 161.600 C 40.611 164.006,39.978 167.121,38.654 165.797 C 38.049 165.191,38.000 165.204,38.000 165.971 C 38.000 166.427,38.186 166.800,38.413 166.800 C 38.639 166.800,38.943 167.115,39.088 167.500 C 39.232 167.885,39.630 168.409,39.971 168.665 C 40.508 169.067,40.444 169.197,39.496 169.629 C 38.378 170.139,38.184 170.451,38.679 170.945 C 38.832 171.099,39.019 172.324,39.094 173.667 C 39.169 175.011,39.412 176.449,39.634 176.863 C 40.133 177.797,39.797 178.400,38.776 178.400 C 37.666 178.400,37.708 180.230,38.824 180.522 C 39.329 180.654,39.734 180.517,39.867 180.169 C 39.987 179.856,40.246 179.600,40.443 179.600 C 40.958 179.600,40.882 180.677,40.300 181.628 C 39.878 182.317,39.909 182.506,40.500 182.842 C 41.355 183.328,41.421 184.740,40.603 185.054 C 40.230 185.197,40.029 185.753,40.065 186.541 C 40.098 187.234,39.987 188.542,39.819 189.450 C 39.618 190.536,39.665 191.193,39.957 191.373 C 40.201 191.524,40.400 192.076,40.400 192.600 C 40.400 193.124,40.580 193.664,40.800 193.800 C 41.505 194.236,41.238 195.951,40.395 196.403 C 39.758 196.744,39.674 196.991,39.993 197.588 C 40.215 198.003,40.289 198.625,40.156 198.971 C 40.023 199.317,40.080 199.600,40.282 199.600 C 40.484 199.600,41.048 200.138,41.534 200.796 L 42.418 201.992 41.609 202.685 C 40.680 203.481,40.600 204.091,41.284 205.185 C 41.675 205.811,41.636 206.235,41.084 207.394 C 40.308 209.020,40.878 210.517,42.465 211.021 C 43.177 211.247,43.197 211.340,42.657 211.936 C 42.228 212.411,42.168 212.799,42.446 213.297 C 42.661 213.681,42.796 214.220,42.747 214.497 C 42.642 215.085,44.060 217.594,44.500 217.597 C 45.296 217.604,44.724 219.506,43.800 219.927 C 42.637 220.457,42.458 221.600,43.538 221.600 C 45.270 221.600,45.940 223.241,44.800 224.691 C 43.792 225.973,43.796 226.281,44.829 226.609 C 45.413 226.794,45.574 227.069,45.376 227.536 C 44.946 228.547,45.159 230.491,45.776 231.182 C 46.079 231.522,46.388 232.250,46.464 232.800 C 46.568 233.564,46.930 233.882,48.000 234.149 C 49.423 234.505,50.367 235.876,50.947 238.431 C 51.076 239.001,51.633 239.669,52.190 239.922 L 53.198 240.382 52.299 242.244 C 51.423 244.059,51.419 244.118,52.161 244.553 C 52.580 244.799,53.205 245.315,53.550 245.700 C 53.895 246.085,54.408 246.400,54.689 246.400 C 54.970 246.400,55.200 246.580,55.200 246.800 C 55.200 247.020,54.997 247.200,54.748 247.200 C 54.449 247.200,54.365 247.808,54.498 248.996 C 54.655 250.381,54.529 250.990,53.950 251.657 C 52.906 252.861,53.005 253.946,54.200 254.400 C 55.243 254.796,55.518 255.427,54.758 255.681 C 53.680 256.040,53.164 258.958,54.058 259.638 C 54.744 260.160,54.864 260.596,54.723 262.038 C 54.575 263.539,54.746 264.081,55.875 265.696 C 57.425 267.914,57.560 269.013,56.322 269.336 C 55.465 269.560,55.462 269.584,56.184 270.383 C 57.047 271.336,58.400 271.469,58.400 270.600 C 58.400 270.270,58.220 270.000,58.000 270.000 C 57.780 270.000,57.600 269.826,57.600 269.613 C 57.600 268.696,58.756 269.783,59.418 271.323 C 60.655 274.197,60.817 275.713,59.953 276.318 C 58.977 277.002,58.990 278.262,59.980 278.880 C 60.508 279.210,60.636 279.516,60.375 279.830 C 60.124 280.133,60.199 280.690,60.593 281.446 C 60.924 282.081,61.196 282.971,61.198 283.425 C 61.199 283.879,61.560 284.995,62.000 285.906 C 62.440 286.816,62.800 287.840,62.800 288.181 C 62.800 288.521,63.001 288.800,63.247 288.800 C 63.496 288.800,63.601 289.153,63.484 289.600 C 63.364 290.058,63.473 290.403,63.737 290.406 C 64.916 290.422,65.395 291.120,64.745 291.876 C 63.491 293.333,63.522 294.006,64.871 294.573 C 66.053 295.070,66.078 295.121,65.267 295.379 C 64.790 295.530,64.402 295.867,64.405 296.127 C 64.419 297.306,64.934 298.342,65.593 298.514 C 66.800 298.830,66.892 302.375,65.707 302.915 C 64.488 303.470,64.403 305.600,65.600 305.600 C 66.189 305.600,66.400 305.867,66.400 306.610 C 66.400 307.414,66.647 307.669,67.608 307.862 C 68.737 308.087,70.800 310.006,70.800 310.831 C 70.800 311.372,69.294 311.282,69.110 310.729 C 68.896 310.088,68.000 310.693,68.000 311.478 C 68.000 312.370,69.893 314.016,70.605 313.743 C 71.413 313.432,71.363 314.393,70.539 314.995 C 69.940 315.433,70.001 315.658,71.183 317.375 C 72.139 318.765,72.369 319.391,72.044 319.716 C 71.348 320.412,71.521 321.086,72.460 321.332 C 73.284 321.547,73.292 321.600,72.660 322.564 C 71.876 323.760,71.803 324.793,72.500 324.817 C 73.615 324.855,75.297 328.400,74.200 328.400 C 73.792 328.400,73.596 328.817,73.588 329.700 C 73.578 330.777,73.506 330.880,73.168 330.300 C 72.580 329.291,72.000 329.440,72.000 330.600 C 72.000 331.321,72.215 331.600,72.771 331.600 C 73.626 331.600,74.800 333.574,74.800 335.012 C 74.800 335.502,75.080 336.135,75.423 336.419 C 75.766 336.704,76.297 337.536,76.603 338.268 C 76.964 339.133,77.433 339.600,77.941 339.600 C 78.889 339.600,79.403 343.547,78.500 343.894 C 77.855 344.141,77.836 346.800,78.480 346.800 C 78.853 346.800,78.853 346.907,78.480 347.280 C 77.762 347.998,77.897 348.564,78.890 349.005 C 80.379 349.666,81.747 352.025,81.047 352.725 C 80.547 353.224,80.566 353.454,81.191 354.481 C 81.586 355.130,81.822 355.993,81.716 356.398 C 81.575 356.937,81.775 357.170,82.462 357.267 C 83.142 357.364,83.534 357.813,83.891 358.904 C 84.161 359.731,84.767 360.928,85.237 361.564 C 86.080 362.705,86.082 362.738,85.346 364.000 L 84.600 365.279 86.274 366.739 C 87.194 367.543,88.070 368.700,88.220 369.311 C 88.369 369.921,88.831 370.603,89.246 370.825 C 89.661 371.047,90.000 371.479,90.000 371.786 C 90.000 372.093,90.403 372.402,90.896 372.472 C 91.975 372.626,92.342 373.977,91.441 374.481 C 90.676 374.909,90.603 375.834,91.300 376.280 C 92.772 377.222,92.902 377.934,91.804 379.032 C 91.043 379.794,90.861 380.221,91.169 380.529 C 91.406 380.766,91.600 381.535,91.600 382.238 C 91.600 383.079,91.939 383.838,92.593 384.458 C 93.139 384.976,93.589 385.618,93.593 385.884 C 93.606 386.804,95.335 388.000,96.650 388.000 C 97.910 388.000,97.943 388.042,97.724 389.390 C 97.523 390.631,97.632 390.855,98.743 391.490 C 100.928 392.737,101.256 395.482,99.324 396.362 C 98.036 396.949,98.839 398.481,100.603 398.800 C 101.819 399.020,102.873 400.800,101.787 400.800 C 100.539 400.800,101.122 402.776,102.575 403.469 C 103.851 404.077,104.023 404.077,104.961 403.462 C 106.213 402.642,106.400 402.637,106.400 403.426 C 106.400 403.889,106.732 404.019,107.676 403.926 C 108.749 403.820,108.989 403.956,109.190 404.785 C 109.339 405.397,109.803 405.860,110.415 406.005 C 111.097 406.168,111.400 406.514,111.400 407.132 C 111.400 407.623,111.584 408.154,111.809 408.312 C 112.034 408.471,112.533 409.095,112.918 409.700 C 113.421 410.489,113.949 410.800,114.787 410.800 C 115.664 410.800,116.134 411.103,116.673 412.016 C 117.069 412.686,117.815 413.339,118.332 413.469 C 119.384 413.733,121.200 415.272,121.200 415.900 C 121.200 416.283,122.903 417.600,123.399 417.600 C 123.524 417.600,123.781 417.195,123.972 416.700 L 124.318 415.800 124.718 416.800 C 124.939 417.350,125.958 418.700,126.982 419.800 L 128.845 421.800 129.600 420.884 L 130.354 419.968 130.827 420.884 C 131.578 422.339,132.879 423.600,133.631 423.600 C 134.024 423.600,134.655 424.245,135.098 425.100 C 135.603 426.076,136.205 426.649,136.821 426.739 C 138.068 426.922,138.772 427.902,138.787 429.480 C 138.803 431.061,139.621 431.575,141.682 431.298 C 142.867 431.139,143.440 431.278,144.116 431.886 C 144.602 432.323,145.335 432.800,145.745 432.945 C 146.313 433.146,146.385 433.336,146.049 433.742 C 145.425 434.493,145.895 434.800,147.667 434.800 C 149.031 434.800,149.200 434.909,149.200 435.790 C 149.200 436.474,149.553 436.962,150.342 437.370 C 151.508 437.973,151.986 439.732,151.997 443.457 C 151.999 444.472,153.031 445.706,153.378 445.109 C 153.413 445.049,153.760 444.493,154.148 443.873 C 154.676 443.029,154.742 442.612,154.410 442.211 C 153.874 441.567,154.292 439.600,154.963 439.600 C 155.671 439.600,156.400 440.459,156.400 441.293 C 156.400 441.695,156.715 442.126,157.100 442.249 C 157.485 442.372,158.184 442.655,158.652 442.878 C 159.121 443.102,159.899 443.159,160.380 443.006 C 161.048 442.794,161.304 442.913,161.460 443.507 C 161.657 444.262,164.115 445.351,164.578 444.889 C 164.998 444.469,164.800 443.200,164.314 443.200 C 163.998 443.200,164.052 442.976,164.470 442.559 C 165.249 441.780,166.983 442.163,166.629 443.036 C 166.503 443.346,166.281 443.897,166.135 444.259 C 165.917 444.799,166.064 444.881,166.949 444.712 C 167.681 444.572,168.185 444.722,168.514 445.179 C 168.781 445.550,169.323 445.973,169.717 446.120 C 170.299 446.337,170.353 446.541,170.003 447.194 C 169.664 447.827,169.694 448.000,170.143 448.000 C 170.457 448.000,170.821 447.722,170.951 447.383 C 171.289 446.502,172.705 447.324,172.872 448.499 C 172.959 449.111,173.321 449.444,174.000 449.538 C 174.550 449.614,175.212 449.851,175.471 450.063 C 175.730 450.276,176.789 450.533,177.824 450.634 C 179.812 450.829,181.580 452.057,181.593 453.251 C 181.606 454.449,182.688 454.968,183.261 454.051 C 183.590 453.524,183.921 453.369,184.209 453.607 C 184.484 453.835,185.435 453.723,186.724 453.311 C 188.722 452.672,188.838 452.677,189.899 453.448 C 191.014 454.257,192.454 454.004,193.154 452.876 C 193.704 451.991,194.944 452.188,195.189 453.200 C 195.392 454.035,195.701 454.220,197.066 454.321 C 198.175 454.402,198.994 454.755,199.619 455.421 C 200.125 455.959,200.765 456.400,201.040 456.400 C 201.316 456.400,201.624 456.715,201.724 457.100 C 201.875 457.675,201.915 457.654,201.954 456.979 C 201.988 456.378,202.510 455.975,203.900 455.477 C 206.357 454.596,206.395 454.603,206.425 455.900 C 206.449 456.934,206.472 456.948,206.803 456.126 C 207.681 453.947,213.889 454.039,214.602 456.243 C 214.940 457.288,215.112 457.416,215.691 457.051 C 216.232 456.710,216.500 456.783,216.949 457.398 C 217.454 458.088,217.634 458.117,218.512 457.647 C 219.455 457.142,221.200 457.331,221.200 457.938 C 221.200 458.094,221.898 458.155,222.751 458.073 C 224.364 457.919,225.600 458.925,225.600 460.392 C 225.600 460.730,226.049 461.850,226.598 462.881 C 227.222 464.053,227.442 464.850,227.185 465.009 C 226.907 465.181,226.859 471.571,227.035 484.732 C 227.179 495.439,227.270 506.448,227.239 509.195 C 227.166 515.618,227.927 517.616,229.751 515.791 C 230.387 515.156,230.306 509.726,229.621 507.000 C 229.455 506.340,229.460 505.440,229.632 505.000 C 230.092 503.821,230.063 500.066,229.588 499.177 C 229.285 498.612,229.338 498.093,229.788 497.223 C 230.125 496.572,230.400 495.659,230.400 495.194 C 230.400 494.728,230.606 493.962,230.858 493.491 C 231.622 492.065,231.565 489.965,230.742 489.142 C 229.985 488.385,229.982 488.357,229.744 480.600 C 229.689 478.840,229.622 477.040,229.594 476.600 C 229.566 476.160,229.668 474.708,229.820 473.373 C 229.973 472.037,229.899 469.470,229.657 467.667 C 229.152 463.919,229.796 461.885,232.066 460.053 C 233.500 458.897,233.495 458.893,233.746 461.605 C 234.191 466.414,234.359 467.692,234.575 467.908 C 234.699 468.032,234.800 467.108,234.800 465.854 C 234.800 461.783,236.161 459.833,238.410 460.681 C 239.363 461.041,239.662 460.944,240.759 459.919 C 242.217 458.557,243.340 458.587,243.540 459.993 C 243.616 460.535,244.111 461.491,244.638 462.118 L 245.598 463.258 245.989 462.229 C 246.478 460.942,246.719 460.936,247.200 462.200 C 247.691 463.492,247.981 463.461,249.524 461.953 L 250.800 460.705 250.800 461.929 C 250.800 463.417,251.411 463.901,251.970 462.856 C 252.419 462.016,255.089 461.469,255.847 462.061 C 256.119 462.273,256.478 462.189,256.763 461.845 C 257.288 461.212,261.000 461.200,261.532 461.829 C 261.704 462.033,261.698 464.630,261.518 467.600 C 261.338 470.570,261.106 474.397,261.002 476.104 C 260.898 477.811,260.558 479.611,260.246 480.104 C 259.422 481.405,259.094 483.388,259.401 485.209 C 259.654 486.702,260.400 487.471,260.400 486.237 C 260.400 485.927,260.879 484.751,261.464 483.623 C 262.421 481.778,262.487 481.390,262.115 479.764 C 261.777 478.290,261.812 477.845,262.304 477.353 C 262.755 476.903,262.927 475.666,262.986 472.446 C 263.030 470.078,263.223 467.887,263.415 467.576 C 263.607 467.266,263.715 466.442,263.655 465.746 C 263.595 465.050,263.738 464.362,263.973 464.217 C 264.208 464.072,264.400 463.528,264.400 463.009 C 264.400 462.369,264.834 461.797,265.747 461.233 C 268.534 459.510,270.127 460.432,270.289 463.860 C 270.541 469.198,270.436 474.786,270.070 475.469 C 269.856 475.871,269.546 478.264,269.383 480.786 C 269.220 483.308,268.883 485.574,268.635 485.822 C 267.629 486.828,268.363 489.904,269.654 490.093 C 270.566 490.227,270.783 490.134,270.610 489.683 C 270.487 489.361,270.569 488.878,270.793 488.608 C 271.022 488.333,271.292 484.634,271.410 480.159 C 271.526 475.782,271.817 471.594,272.057 470.853 C 272.297 470.113,272.408 468.620,272.303 467.536 C 272.152 465.961,272.256 465.466,272.823 465.069 C 273.213 464.795,273.694 463.948,273.891 463.186 C 274.430 461.105,276.492 459.820,278.022 460.611 C 279.481 461.366,279.600 461.354,279.600 460.449 C 279.600 459.096,280.640 458.637,281.364 459.670 L 282.000 460.578 282.000 459.708 C 282.000 457.725,284.304 455.600,286.455 455.600 C 286.780 455.600,287.396 455.336,287.824 455.013 C 288.251 454.690,289.300 454.420,290.156 454.413 C 291.121 454.405,291.893 454.152,292.189 453.748 C 292.478 453.352,293.465 453.019,294.700 452.900 L 296.734 452.705 296.525 451.415 C 296.324 450.174,296.361 450.133,297.522 450.303 C 298.804 450.491,299.885 449.320,299.458 448.206 C 299.346 447.914,299.602 447.360,300.027 446.976 C 300.452 446.591,300.800 445.800,300.800 445.218 C 300.800 443.959,301.461 443.200,302.558 443.200 C 303.849 443.200,305.600 441.238,305.600 439.792 C 305.600 438.216,305.885 437.921,306.833 438.514 C 307.444 438.895,307.681 438.843,308.132 438.225 C 308.465 437.770,308.940 437.568,309.327 437.717 C 310.074 438.003,311.600 436.296,311.600 435.173 C 311.600 434.263,313.049 433.777,313.829 434.424 C 314.154 434.693,314.469 434.843,314.531 434.757 C 315.653 433.175,316.035 432.164,315.850 431.262 C 315.730 430.678,315.730 430.425,315.849 430.700 C 316.231 431.578,318.400 431.323,318.400 430.400 C 318.400 429.960,318.207 429.600,317.972 429.600 C 317.736 429.600,318.158 429.015,318.911 428.300 C 320.091 427.178,320.229 426.855,319.921 425.945 C 319.486 424.663,321.118 421.932,322.526 421.584 C 323.178 421.423,323.433 421.017,323.529 419.984 C 323.685 418.303,324.213 417.653,324.880 418.320 C 325.833 419.273,326.451 418.881,326.190 417.489 C 325.992 416.434,326.143 415.963,326.958 415.084 C 327.515 414.482,327.877 413.744,327.762 413.444 C 327.646 413.144,327.908 412.313,328.343 411.597 C 328.779 410.881,329.036 410.037,328.914 409.721 C 328.793 409.405,328.881 408.753,329.111 408.273 C 329.340 407.793,329.623 407.099,329.739 406.731 C 329.856 406.363,330.365 406.003,330.872 405.931 C 331.408 405.855,332.016 405.332,332.329 404.678 C 332.761 403.772,332.974 403.647,333.432 404.027 C 334.108 404.588,334.135 404.407,333.589 402.970 C 333.263 402.114,333.315 401.736,333.837 401.159 C 334.200 400.758,334.389 400.147,334.256 399.802 C 334.092 399.373,334.343 399.050,335.051 398.781 C 336.148 398.364,335.779 397.200,334.551 397.200 C 334.248 397.200,334.001 397.065,334.003 396.900 C 334.007 396.416,336.585 394.800,337.352 394.800 C 337.877 394.800,337.989 394.594,337.794 393.981 C 337.651 393.530,337.749 392.903,338.012 392.586 C 338.274 392.269,338.393 391.758,338.274 391.449 C 338.022 390.791,339.378 389.200,340.192 389.200 C 341.170 389.200,341.263 388.453,340.426 387.309 C 339.605 386.186,340.097 382.651,341.246 381.420 C 341.440 381.211,341.600 380.390,341.600 379.596 C 341.600 377.987,342.492 376.378,342.963 377.139 C 343.536 378.067,344.101 377.603,343.860 376.402 C 343.682 375.510,343.879 374.825,344.633 373.713 C 345.961 371.756,345.869 371.812,346.593 372.535 C 346.941 372.884,347.514 373.054,347.873 372.917 C 348.445 372.697,348.425 372.588,347.708 372.007 C 346.926 371.374,346.791 370.551,346.764 366.240 C 346.757 365.127,347.542 364.458,347.995 365.192 C 348.194 365.514,348.485 365.649,348.641 365.492 C 348.798 365.335,348.363 364.669,347.675 364.011 C 346.481 362.870,346.459 362.796,347.209 362.395 C 347.698 362.134,348.091 361.372,348.250 360.379 C 348.423 359.293,348.889 358.460,349.707 357.771 C 350.808 356.845,350.868 356.668,350.421 355.687 C 349.073 352.729,350.112 346.800,351.978 346.800 C 352.692 346.800,352.805 345.314,352.218 343.650 C 351.695 342.169,351.695 341.939,352.212 341.740 C 352.846 341.497,353.016 339.602,352.460 338.980 C 352.265 338.762,352.430 338.307,352.847 337.913 C 353.535 337.263,353.603 337.269,354.137 338.031 C 354.834 339.027,355.443 338.002,354.832 336.861 C 354.609 336.443,354.618 335.911,354.856 335.486 C 355.143 334.972,355.083 334.730,354.622 334.553 C 353.769 334.226,353.839 333.305,354.739 333.019 C 356.240 332.543,356.934 327.940,355.628 327.125 C 355.036 326.755,354.947 326.473,355.245 325.915 C 355.539 325.367,355.475 325.127,354.987 324.940 C 354.190 324.634,354.487 323.124,355.631 321.670 C 356.307 320.810,356.337 320.591,355.851 320.038 C 355.266 319.372,355.389 316.992,356.052 316.157 C 356.270 315.881,356.089 315.313,355.574 314.658 C 354.685 313.528,354.790 312.375,355.895 311.116 C 356.341 310.607,356.425 309.964,356.223 308.613 C 356.004 307.153,356.073 306.755,356.575 306.597 C 358.556 305.972,358.634 305.899,357.604 305.628 C 356.483 305.333,355.726 302.640,356.497 301.692 C 356.792 301.331,356.717 300.972,356.239 300.443 C 355.870 300.035,355.576 299.094,355.586 298.351 C 355.597 297.608,355.559 296.198,355.502 295.218 C 355.412 293.646,355.509 293.411,356.324 293.218 C 357.393 292.965,357.512 292.219,356.492 292.159 C 355.088 292.076,354.919 291.980,354.473 291.000 C 354.044 290.060,354.086 290.000,355.166 290.000 C 355.818 290.000,356.414 289.741,356.545 289.400 C 356.671 289.070,357.236 288.800,357.800 288.800 C 359.199 288.800,359.480 287.776,358.460 286.396 C 357.623 285.263,357.622 285.247,358.406 284.998 C 358.843 284.859,359.200 284.574,359.200 284.363 C 359.200 284.153,359.650 283.809,360.200 283.600 C 361.474 283.116,361.522 282.245,360.262 282.486 C 359.063 282.715,358.106 280.742,359.041 279.966 C 359.862 279.285,359.762 277.601,358.900 277.594 C 357.555 277.582,356.910 276.902,357.689 276.316 C 358.197 275.932,358.402 275.081,358.487 273.000 L 358.600 270.200 360.000 270.000 L 361.400 269.800 360.476 269.146 L 359.553 268.492 360.403 266.684 C 360.870 265.689,361.196 264.599,361.126 264.260 C 361.057 263.922,361.344 263.391,361.765 263.080 C 362.778 262.333,362.344 261.037,361.202 261.399 C 360.226 261.709,360.061 260.616,361.028 260.245 C 361.445 260.085,361.570 259.735,361.401 259.202 C 361.203 258.578,361.327 258.400,361.963 258.400 C 362.650 258.400,362.743 258.584,362.550 259.551 C 362.419 260.207,362.509 260.820,362.760 260.976 C 363.068 261.165,363.179 260.429,363.127 258.545 C 363.086 257.059,362.981 256.058,362.893 256.321 C 362.524 257.429,361.200 256.826,361.200 255.549 C 361.200 254.307,363.313 249.634,364.096 249.144 C 364.321 249.003,364.085 248.754,363.571 248.591 C 362.985 248.405,362.579 248.463,362.484 248.747 C 362.239 249.483,361.600 249.264,361.600 248.443 C 361.600 248.026,361.883 247.577,362.229 247.444 C 362.580 247.310,362.825 246.805,362.785 246.301 C 362.655 244.703,362.785 244.400,363.600 244.400 C 364.363 244.400,364.368 244.367,363.700 243.676 C 363.315 243.278,362.676 243.031,362.281 243.128 C 361.674 243.276,361.573 243.062,361.632 241.752 C 361.671 240.898,361.506 239.708,361.264 239.107 C 360.888 238.170,360.937 237.955,361.613 237.593 C 362.530 237.102,362.641 235.898,361.842 235.099 C 361.364 234.621,361.396 234.470,362.063 234.053 C 362.600 233.718,362.764 233.316,362.589 232.764 C 362.448 232.323,362.540 231.713,362.793 231.409 C 363.151 230.977,363.082 230.765,362.479 230.442 C 361.503 229.920,361.749 228.134,362.844 227.786 C 363.820 227.476,363.819 226.523,362.843 226.214 C 361.667 225.840,361.139 224.086,361.635 222.200 C 362.555 218.700,362.556 218.766,361.617 218.520 C 360.871 218.325,360.769 218.093,360.966 217.043 C 361.094 216.358,361.223 214.765,361.252 213.504 C 361.283 212.177,361.523 211.030,361.822 210.782 C 362.244 210.432,362.235 210.102,361.773 208.998 C 361.210 207.649,361.529 206.862,362.418 207.411 C 362.934 207.730,364.073 206.842,363.772 206.355 C 363.651 206.160,363.034 206.000,362.400 206.000 C 360.628 206.000,359.914 203.237,361.403 202.148 C 361.990 201.719,361.970 201.644,361.204 201.401 C 360.135 201.062,360.217 199.336,361.294 199.516 C 361.810 199.602,361.920 199.449,361.724 198.916 C 361.230 197.576,360.309 196.400,359.754 196.400 C 358.936 196.400,359.079 195.602,359.900 195.587 C 361.401 195.560,362.153 194.552,361.180 193.871 C 360.107 193.119,360.390 192.597,362.092 192.191 C 363.216 191.923,363.274 191.856,362.500 191.712 C 362.005 191.620,361.600 191.266,361.600 190.926 C 361.600 190.498,361.854 190.373,362.424 190.522 C 362.970 190.665,363.332 190.511,363.495 190.069 C 363.631 189.701,363.845 189.310,363.971 189.200 C 365.115 188.202,365.209 187.122,364.220 186.344 C 363.487 185.768,363.200 185.162,363.200 184.195 C 363.200 183.454,363.044 182.751,362.853 182.633 C 362.662 182.514,362.387 181.370,362.242 180.089 C 361.926 177.293,360.920 176.051,359.844 177.127 C 359.252 177.719,359.200 177.682,359.200 176.666 C 359.200 175.106,360.204 173.351,361.284 173.024 L 362.200 172.746 361.151 172.357 C 359.615 171.786,359.654 168.365,361.202 167.999 C 362.455 167.703,361.221 167.020,359.700 167.169 C 358.327 167.304,358.454 165.407,359.868 164.666 L 360.935 164.107 359.532 163.643 L 358.128 163.180 358.278 159.790 C 358.403 156.944,358.329 156.400,357.814 156.400 C 357.114 156.400,356.934 154.212,357.600 153.800 C 358.206 153.425,358.078 151.763,357.400 151.200 C 356.533 150.481,356.661 149.710,357.766 148.985 C 359.084 148.122,359.365 147.209,358.507 146.579 C 357.852 146.098,357.877 146.030,358.849 145.659 C 360.456 145.045,360.801 141.948,359.430 140.434 C 358.613 139.530,358.853 136.786,359.821 135.983 C 360.289 135.594,360.220 135.311,359.390 134.222 C 358.845 133.508,358.400 132.579,358.400 132.156 C 358.400 131.734,358.040 130.716,357.600 129.896 C 356.522 127.885,356.582 127.630,358.100 127.773 C 358.815 127.840,358.995 127.817,358.500 127.721 C 357.457 127.519,357.373 126.928,358.169 125.396 C 358.596 124.573,358.631 124.068,358.313 123.369 C 357.969 122.614,358.093 122.005,358.971 120.152 L 360.052 117.867 359.226 116.750 C 358.772 116.135,358.400 115.327,358.400 114.954 C 358.400 114.317,358.355 114.317,357.649 114.955 C 356.611 115.895,356.193 114.830,356.868 112.963 C 357.255 111.893,357.244 111.430,356.815 110.628 C 356.462 109.968,356.410 109.452,356.663 109.114 C 356.874 108.831,357.008 106.890,356.961 104.800 C 356.880 101.192,356.929 100.944,357.926 99.886 C 358.821 98.937,358.904 98.658,358.488 97.992 C 357.899 97.049,357.846 95.600,358.400 95.600 C 359.021 95.600,358.871 93.713,358.230 93.467 C 357.416 93.154,357.605 87.000,358.428 87.000 C 359.106 87.000,359.449 88.399,358.860 88.763 C 358.618 88.912,358.583 89.248,358.776 89.562 C 359.771 91.171,360.233 85.460,359.250 83.704 C 358.988 83.236,359.119 82.870,359.720 82.383 L 360.552 81.710 359.676 81.241 C 359.194 80.983,358.794 80.463,358.787 80.086 C 358.780 79.709,358.510 79.051,358.187 78.624 C 357.256 77.392,357.440 76.400,358.600 76.400 C 359.150 76.400,359.600 76.200,359.600 75.956 C 359.600 75.685,359.057 75.576,358.200 75.676 L 356.800 75.839 356.800 73.969 C 356.800 72.787,357.023 71.913,357.405 71.596 C 357.789 71.277,357.877 70.931,357.644 70.647 C 356.656 69.440,356.972 68.218,358.392 67.754 L 359.784 67.300 358.392 66.452 C 357.626 65.985,356.865 65.602,356.700 65.601 C 356.535 65.601,356.400 65.156,356.400 64.614 C 356.400 64.038,356.068 63.450,355.600 63.200 C 355.150 62.959,354.800 62.362,354.800 61.836 C 354.800 60.891,353.225 60.186,351.525 60.369 C 351.154 60.409,350.653 60.072,350.411 59.621 C 350.170 59.169,349.622 58.800,349.194 58.800 C 348.670 58.800,348.336 58.441,348.174 57.700 C 348.042 57.095,347.868 56.385,347.788 56.122 C 347.708 55.859,346.958 55.526,346.121 55.381 C 342.681 54.784,339.600 53.484,339.600 52.629 C 339.600 52.331,339.170 51.979,338.644 51.847 C 337.557 51.574,336.971 50.469,337.587 49.853 C 338.312 49.128,338.032 48.705,337.000 48.964 C 336.450 49.102,336.000 49.066,336.000 48.885 C 336.000 48.407,332.485 46.000,331.788 46.000 C 331.465 46.000,331.200 45.820,331.200 45.600 C 331.200 45.073,330.395 45.112,329.400 45.686 M72.982 51.228 C 72.832 51.471,72.886 51.846,73.102 52.062 C 73.358 52.318,73.576 52.241,73.729 51.840 C 74.009 51.110,73.376 50.592,72.982 51.228 M78.070 72.137 C 78.022 72.913,77.739 73.343,77.181 73.489 C 76.111 73.769,76.329 75.053,77.415 74.862 C 78.484 74.674,78.470 74.707,78.295 72.742 C 78.203 71.711,78.111 71.464,78.070 72.137 M78.000 101.200 C 78.000 101.420,78.405 101.597,78.900 101.594 C 79.628 101.589,79.685 101.514,79.200 101.200 C 78.424 100.699,78.000 100.699,78.000 101.200 M310.800 122.953 C 310.800 123.308,312.418 123.494,312.623 123.162 C 312.746 122.963,312.387 122.800,311.824 122.800 C 311.261 122.800,310.800 122.869,310.800 122.953 M312.667 178.267 C 312.123 178.811,312.429 179.200,313.400 179.200 C 314.022 179.200,314.400 178.973,314.400 178.600 C 314.400 178.000,313.170 177.763,312.667 178.267 M310.800 193.437 C 310.800 194.075,311.156 194.142,311.934 193.649 C 312.340 193.392,312.268 193.259,311.634 193.093 C 311.081 192.948,310.800 193.064,310.800 193.437 M312.974 291.158 C 313.096 291.355,312.932 291.617,312.611 291.741 C 311.985 291.980,311.452 291.482,311.878 291.056 C 312.239 290.694,312.715 290.739,312.974 291.158 M357.200 295.200 C 357.200 295.420,357.470 295.600,357.800 295.600 C 358.130 295.600,358.400 295.420,358.400 295.200 C 358.400 294.980,358.130 294.800,357.800 294.800 C 357.470 294.800,357.200 294.980,357.200 295.200 M300.198 332.403 C 299.881 332.917,301.004 333.361,301.825 333.046 C 302.627 332.738,302.185 332.000,301.200 332.000 C 300.786 332.000,300.335 332.181,300.198 332.403 M350.256 349.878 C 349.778 350.356,349.998 351.200,350.600 351.200 C 350.930 351.200,351.200 350.941,351.200 350.624 C 351.200 349.955,350.629 349.504,350.256 349.878 M155.600 400.400 C 155.600 400.620,155.971 400.800,156.424 400.800 C 156.877 400.800,157.136 400.620,157.000 400.400 C 156.864 400.180,156.493 400.000,156.176 400.000 C 155.859 400.000,155.600 400.180,155.600 400.400 M278.013 407.500 C 278.025 408.554,278.050 408.567,278.613 407.824 C 279.361 406.834,279.357 406.400,278.600 406.400 C 278.209 406.400,278.004 406.783,278.013 407.500 M175.855 410.600 C 175.544 411.411,175.964 412.400,176.619 412.400 C 177.457 412.400,177.674 411.708,177.117 410.816 C 176.511 409.846,176.167 409.787,175.855 410.600 M182.249 413.130 C 182.072 413.642,182.033 414.167,182.163 414.297 C 182.578 414.711,182.870 414.100,182.718 413.134 L 182.571 412.200 182.249 413.130 M134.800 428.662 C 134.800 429.699,134.819 429.707,135.600 429.000 C 136.040 428.602,136.400 428.124,136.400 427.938 C 136.400 427.752,136.040 427.600,135.600 427.600 C 135.001 427.600,134.800 427.867,134.800 428.662 M152.700 452.320 C 151.769 452.504,151.687 455.200,152.613 455.200 C 153.352 455.200,153.705 454.400,153.530 453.124 C 153.440 452.473,153.184 452.224,152.700 452.320 M190.900 458.605 C 190.926 460.331,190.959 460.380,191.663 459.743 C 192.864 458.656,192.448 456.800,191.003 456.800 C 190.931 456.800,190.885 457.612,190.900 458.605 M266.658 463.197 C 265.935 463.928,265.937 463.942,266.758 463.727 C 267.221 463.606,267.600 463.258,267.600 462.953 C 267.600 462.268,267.570 462.275,266.658 463.197 M152.000 463.600 C 152.000 464.347,152.107 464.453,152.480 464.080 C 152.853 463.707,152.853 463.493,152.480 463.120 C 152.107 462.747,152.000 462.853,152.000 463.600 M190.660 466.989 C 190.290 467.951,190.349 471.301,190.746 471.927 C 191.199 472.641,191.702 467.712,191.258 466.917 C 190.963 466.391,190.886 466.400,190.660 466.989 M151.908 467.583 C 151.631 468.567,151.797 469.137,152.232 468.701 C 152.360 468.573,152.401 468.048,152.324 467.534 L 152.184 466.600 151.908 467.583 M234.365 470.700 C 234.345 471.745,234.289 473.590,234.240 474.800 C 234.190 476.010,234.285 477.360,234.450 477.800 C 234.614 478.240,234.761 476.395,234.775 473.700 C 234.789 471.005,234.710 468.800,234.600 468.800 C 234.490 468.800,234.384 469.655,234.365 470.700 M150.700 475.028 C 150.535 475.196,150.400 475.969,150.400 476.747 C 150.400 477.753,150.524 478.036,150.829 477.731 C 151.065 477.495,151.200 476.722,151.129 476.013 C 151.058 475.304,150.865 474.861,150.700 475.028 M149.813 478.780 C 149.311 479.592,149.085 485.482,149.545 485.766 C 149.983 486.037,150.120 485.076,150.180 481.334 C 150.191 480.638,150.335 479.933,150.500 479.767 C 150.925 479.341,150.873 478.400,150.424 478.400 C 150.217 478.400,149.942 478.571,149.813 478.780 M233.104 479.922 C 232.681 481.540,233.235 483.366,233.834 482.327 C 234.847 480.570,234.888 480.388,234.396 479.795 C 233.740 479.004,233.334 479.044,233.104 479.922 M268.409 493.127 C 268.401 494.284,268.505 494.421,269.219 494.194 C 269.670 494.051,270.300 494.151,270.619 494.416 C 271.102 494.816,271.200 494.721,271.200 493.849 C 271.200 492.766,270.660 492.456,270.166 493.254 C 269.981 493.555,269.637 493.386,269.152 492.754 L 268.418 491.800 268.409 493.127 M268.373 497.900 C 268.381 499.165,268.280 501.411,268.148 502.892 C 267.870 506.003,268.124 507.127,268.950 506.442 C 269.247 506.195,269.612 504.808,269.760 503.360 C 269.908 501.911,270.313 500.294,270.659 499.766 C 271.469 498.529,271.100 497.600,269.798 497.600 C 268.920 497.600,268.830 497.492,269.172 496.853 C 269.571 496.107,269.385 495.600,268.712 495.600 C 268.518 495.600,268.365 496.635,268.373 497.900 " stroke="none" fill="#EC791A" fill-rule="evenodd"></path></g></svg>