<svg id="svg" version="1.1" xmlns="http://www.w3.org/2000/svg" xmlns:xlink="http://www.w3.org/1999/xlink" width="400" height="453.33333333333337" viewBox="0, 0, 400,453.33333333333337"><g id="svgg"><path id="path0" d="M305.566 41.841 C 305.225 42.252,304.946 42.306,304.657 42.017 C 304.030 41.390,303.200 41.516,303.200 42.238 C 303.200 42.589,302.887 43.407,302.504 44.055 C 302.026 44.863,301.944 45.323,302.242 45.517 C 303.499 46.335,303.235 47.968,301.690 48.943 C 299.517 50.315,297.917 52.530,298.222 53.744 C 298.525 54.954,297.780 55.479,296.875 54.691 C 296.279 54.172,296.069 54.185,295.081 54.798 L 293.962 55.492 295.181 55.736 C 296.647 56.029,296.774 56.950,295.530 58.274 C 295.052 58.783,294.868 59.200,295.121 59.200 C 295.374 59.200,295.882 59.659,296.250 60.221 C 297.139 61.576,296.534 62.162,295.045 61.389 C 293.608 60.644,293.600 60.645,293.600 61.577 C 293.600 62.005,294.005 62.644,294.500 62.997 C 295.467 63.687,295.407 63.792,293.336 65.043 C 292.685 65.436,292.664 65.599,293.149 66.504 C 293.449 67.065,293.557 67.746,293.390 68.017 C 293.206 68.315,293.421 68.765,293.935 69.155 C 295.349 70.229,295.520 72.271,294.245 72.852 C 293.326 73.271,293.264 73.410,293.753 73.965 C 295.564 76.025,294.708 78.000,292.003 78.000 C 291.271 78.000,290.855 78.166,291.000 78.400 C 291.136 78.620,291.699 78.800,292.250 78.800 C 293.634 78.800,293.496 80.929,292.100 81.128 C 291.229 81.252,290.910 81.976,291.477 82.544 C 292.264 83.331,292.016 87.200,291.179 87.200 C 288.904 87.200,288.232 89.252,290.255 90.021 C 291.356 90.440,291.452 91.058,290.567 92.036 C 289.988 92.677,290.004 92.804,290.767 93.567 C 291.846 94.646,291.817 94.966,290.569 95.784 C 289.997 96.158,289.630 96.701,289.745 97.001 C 289.859 97.298,289.693 97.757,289.376 98.020 C 288.543 98.711,288.669 99.600,289.600 99.600 C 290.040 99.600,290.400 99.759,290.400 99.953 C 290.400 100.148,290.040 100.401,289.600 100.516 C 288.631 100.769,288.512 102.455,289.400 103.343 C 290.221 104.164,290.152 104.912,289.200 105.507 C 288.109 106.189,288.196 106.659,289.500 107.135 C 290.105 107.356,290.307 107.551,289.949 107.568 C 288.555 107.636,288.278 108.710,289.581 108.996 C 291.105 109.331,291.108 109.622,289.600 110.737 C 288.339 111.669,287.997 112.800,288.976 112.800 C 289.927 112.800,290.174 113.684,289.385 114.261 C 288.929 114.594,288.846 114.800,289.169 114.800 C 289.759 114.800,289.423 118.238,288.752 119.053 C 288.509 119.349,288.582 119.584,288.962 119.730 C 289.288 119.855,289.665 120.757,289.818 121.782 C 289.969 122.787,290.252 123.708,290.446 123.829 C 290.641 123.949,290.800 124.401,290.800 124.834 C 290.800 125.304,291.201 125.772,291.800 126.000 C 293.405 126.610,293.204 128.321,291.556 128.079 C 290.779 127.965,290.188 128.097,289.982 128.429 C 289.495 129.217,289.901 129.600,291.224 129.600 C 292.080 129.600,292.398 129.791,292.394 130.300 C 292.384 131.379,291.802 132.053,291.108 131.786 C 290.233 131.450,289.876 132.212,290.467 133.158 C 290.892 133.839,290.809 134.100,289.867 135.042 C 289.266 135.643,288.915 136.269,289.087 136.433 C 289.682 137.001,291.402 137.004,291.842 136.438 C 292.425 135.690,293.698 136.189,293.527 137.099 C 293.455 137.484,292.991 137.978,292.497 138.195 C 290.886 138.904,290.446 141.899,291.409 145.600 C 291.588 146.286,291.550 146.432,291.289 146.065 C 291.077 145.766,290.489 145.611,289.955 145.714 L 289.000 145.898 289.917 146.200 C 290.721 146.465,290.830 146.756,290.803 148.551 C 290.749 152.038,290.788 152.503,291.167 152.960 C 291.691 153.591,290.774 154.693,289.584 154.861 C 288.922 154.955,288.558 155.295,288.472 155.900 C 288.346 156.791,288.658 156.968,290.100 156.821 C 290.982 156.731,291.044 158.099,290.190 158.808 C 289.643 159.262,289.643 159.385,290.191 159.990 C 290.869 160.739,290.631 161.200,289.565 161.200 C 289.111 161.200,288.771 161.623,288.600 162.400 C 288.399 163.316,288.115 163.600,287.401 163.600 C 285.859 163.600,285.200 164.032,285.200 165.043 C 285.200 166.025,286.367 166.456,286.436 165.500 C 286.456 165.225,286.648 165.613,286.864 166.363 C 287.079 167.113,287.690 168.295,288.220 168.991 C 289.319 170.432,288.970 171.200,287.216 171.200 C 286.634 171.200,285.982 171.537,285.704 171.981 C 285.152 172.866,285.280 172.994,287.100 173.385 C 288.600 173.706,288.813 174.286,287.500 174.472 C 286.598 174.600,285.802 179.200,286.682 179.200 C 286.860 179.200,287.250 179.754,287.550 180.431 C 288.383 182.315,287.729 183.400,285.759 183.400 C 284.447 183.400,284.180 183.542,284.072 184.300 C 284.002 184.795,284.137 185.200,284.372 185.200 C 284.957 185.200,284.915 187.725,284.320 188.320 C 283.947 188.693,284.062 188.800,284.840 188.800 C 285.390 188.800,286.040 188.600,286.285 188.355 C 287.101 187.539,287.583 188.341,286.978 189.507 C 286.666 190.108,286.516 190.935,286.646 191.344 C 286.808 191.854,286.498 192.439,285.660 193.204 C 284.092 194.636,284.263 196.796,286.078 198.500 C 287.058 199.420,287.127 199.600,286.505 199.600 C 285.238 199.600,284.710 200.438,285.457 201.263 C 285.995 201.857,286.032 202.259,285.676 203.660 C 285.376 204.841,285.374 205.578,285.670 206.130 C 285.998 206.743,285.948 206.997,285.447 207.278 C 285.093 207.476,284.691 208.340,284.554 209.198 C 284.326 210.623,284.187 210.768,282.944 210.879 C 281.386 211.018,281.107 211.695,282.474 212.018 C 283.425 212.242,284.031 213.600,283.180 213.600 C 282.831 213.600,282.844 213.771,283.231 214.238 C 283.681 214.780,283.630 214.975,282.891 215.538 C 282.254 216.023,282.124 216.361,282.404 216.800 C 282.615 217.130,282.791 217.785,282.794 218.255 C 282.799 218.915,283.121 219.171,284.200 219.374 C 286.011 219.713,286.269 221.712,284.600 222.473 C 283.385 223.026,283.314 223.819,284.426 224.414 C 285.842 225.172,284.709 226.020,282.986 225.491 C 282.224 225.257,281.493 225.174,281.360 225.306 C 280.907 225.759,281.647 226.400,282.624 226.400 C 283.285 226.400,283.601 226.626,283.604 227.100 C 283.607 227.485,283.715 228.444,283.845 229.230 C 284.017 230.270,283.900 230.843,283.416 231.327 C 282.809 231.934,282.805 232.072,283.375 232.886 C 284.271 234.165,284.152 234.759,282.900 235.258 L 281.800 235.695 283.500 236.281 C 285.430 236.946,285.585 237.511,284.313 239.232 C 283.597 240.201,283.515 240.571,283.885 241.164 C 284.202 241.672,284.215 242.025,283.926 242.314 C 283.404 242.836,283.844 243.600,284.666 243.600 C 285.109 243.600,285.196 243.800,284.972 244.300 C 284.800 244.685,284.702 246.123,284.755 247.496 C 284.808 248.869,284.709 250.219,284.534 250.496 C 284.359 250.773,284.196 251.854,284.171 252.898 C 284.143 254.113,283.868 255.082,283.408 255.591 C 282.891 256.162,282.807 256.527,283.107 256.892 C 283.595 257.486,283.428 261.132,282.888 261.672 C 282.473 262.087,282.727 264.000,283.198 264.000 C 283.365 264.000,283.791 263.595,284.143 263.100 C 284.495 262.605,284.687 262.492,284.569 262.848 C 284.445 263.221,284.619 263.599,284.977 263.736 C 285.980 264.121,285.796 265.976,284.781 265.711 C 283.739 265.439,281.824 267.106,282.392 267.790 C 283.010 268.535,282.403 271.145,281.549 271.416 C 280.438 271.769,280.637 272.264,282.100 272.785 L 283.400 273.248 282.131 273.791 C 280.740 274.387,279.733 275.788,280.399 276.199 C 281.218 276.706,280.772 277.626,279.592 277.862 C 278.184 278.143,277.927 278.471,277.616 280.386 C 277.443 281.452,277.191 281.800,276.593 281.800 C 275.418 281.800,275.008 282.725,275.796 283.596 C 276.255 284.102,276.430 284.891,276.355 286.106 C 276.274 287.436,276.464 288.156,277.118 288.986 C 277.597 289.596,277.891 290.253,277.771 290.447 C 277.448 290.970,276.493 290.875,276.288 290.300 C 276.190 290.025,275.957 289.943,275.770 290.118 C 275.583 290.293,275.648 290.786,275.915 291.213 C 276.182 291.640,276.400 292.363,276.400 292.821 C 276.400 293.278,276.587 294.002,276.815 294.428 C 277.161 295.074,277.060 295.281,276.215 295.666 C 275.491 295.996,275.200 296.440,275.200 297.215 C 275.200 297.813,274.930 298.526,274.600 298.800 C 273.797 299.466,273.840 299.816,274.899 301.249 C 275.746 302.394,275.758 302.495,275.099 302.977 C 274.715 303.258,274.400 303.951,274.400 304.516 C 274.400 305.275,274.164 305.580,273.500 305.682 C 272.942 305.767,272.657 306.043,272.751 306.409 C 272.834 306.734,272.870 307.180,272.832 307.400 C 272.793 307.620,272.711 308.834,272.649 310.098 C 272.587 311.363,272.419 312.514,272.276 312.658 C 272.132 312.801,272.111 313.302,272.228 313.771 C 272.403 314.465,272.198 314.695,271.121 315.016 C 270.307 315.258,269.848 315.627,269.925 315.979 C 270.544 318.805,270.545 318.800,269.474 318.800 C 268.271 318.800,267.670 319.499,268.575 319.846 C 269.471 320.189,269.346 321.453,268.347 322.152 C 267.737 322.579,267.561 323.008,267.730 323.654 C 267.860 324.151,267.750 324.819,267.486 325.137 C 267.084 325.621,267.152 325.669,267.903 325.431 C 268.619 325.204,268.800 325.301,268.800 325.911 C 268.800 326.976,267.535 328.054,266.810 327.606 C 266.495 327.412,266.095 327.342,265.919 327.450 C 265.331 327.814,265.592 328.705,266.346 328.902 C 266.824 329.027,267.189 329.614,267.362 330.538 C 267.511 331.330,267.871 332.118,268.162 332.289 C 268.817 332.673,269.212 335.145,268.673 335.479 C 268.456 335.613,268.059 335.422,267.790 335.054 C 267.484 334.636,267.040 334.487,266.602 334.655 C 265.970 334.897,265.992 334.990,266.821 335.616 L 267.740 336.309 266.587 337.377 C 265.565 338.324,265.494 338.538,265.955 339.277 C 266.478 340.114,264.771 344.400,263.916 344.400 C 263.742 344.400,263.600 344.810,263.600 345.311 C 263.600 346.406,262.556 348.000,261.839 348.000 C 261.556 348.000,260.998 348.360,260.600 348.800 C 260.202 349.240,259.550 349.600,259.151 349.600 C 258.670 349.600,258.503 349.803,258.655 350.200 C 258.782 350.530,259.158 350.800,259.492 350.800 C 259.959 350.800,259.994 350.925,259.644 351.347 C 259.299 351.763,259.335 352.014,259.795 352.396 C 260.661 353.114,260.547 353.476,259.361 353.774 C 258.501 353.990,258.364 354.201,258.565 355.001 C 258.742 355.710,258.600 356.079,258.032 356.383 C 257.605 356.611,257.198 357.192,257.128 357.672 C 257.043 358.250,256.601 358.652,255.824 358.859 C 255.177 359.031,254.484 359.465,254.283 359.823 C 254.010 360.310,253.585 360.411,252.590 360.225 C 250.957 359.918,250.276 361.158,251.397 362.397 C 252.027 363.093,252.014 363.165,251.165 363.619 C 250.418 364.018,250.182 363.990,249.788 363.451 C 249.115 362.531,248.800 362.642,248.800 363.800 C 248.800 364.600,249.000 364.800,249.800 364.800 C 250.350 364.800,250.800 364.980,250.800 365.200 C 250.800 365.420,250.558 365.600,250.261 365.600 C 249.965 365.600,249.336 365.935,248.863 366.345 C 248.342 366.798,247.627 367.018,247.042 366.906 C 246.317 366.767,246.011 366.934,245.806 367.582 C 245.584 368.279,245.423 368.351,244.955 367.962 C 243.746 366.960,242.292 368.175,242.590 369.938 C 243.017 372.468,241.083 373.217,240.039 370.926 C 239.416 369.559,239.062 370.013,238.809 372.505 C 238.610 374.465,238.544 374.564,237.400 374.603 C 233.855 374.725,233.200 374.833,233.200 375.300 C 233.200 376.596,229.801 378.441,228.961 377.601 C 228.695 377.335,227.999 377.422,226.881 377.861 C 225.129 378.549,224.780 379.064,225.800 379.455 C 227.527 380.118,226.157 381.600,223.816 381.600 C 223.091 381.600,222.276 381.868,222.004 382.196 C 221.247 383.107,220.686 382.455,220.931 380.949 C 221.183 379.394,219.869 378.922,219.400 380.400 C 219.133 381.240,218.598 381.444,218.229 380.847 C 217.596 379.822,214.863 380.445,214.374 381.725 C 214.022 382.649,213.842 382.813,213.718 382.319 C 213.625 381.944,213.200 381.527,212.774 381.392 C 212.309 381.244,212.000 380.785,212.000 380.240 C 212.000 378.995,211.722 378.819,210.583 379.347 C 209.870 379.678,209.604 380.123,209.596 381.000 C 209.590 381.722,209.221 382.546,208.668 383.070 L 207.750 383.939 206.775 382.070 C 206.239 381.041,205.773 380.143,205.739 380.072 C 205.705 380.002,205.304 380.178,204.847 380.463 C 204.213 380.859,203.741 380.878,202.850 380.541 C 201.783 380.138,201.641 380.191,201.198 381.150 L 200.713 382.200 200.108 381.300 C 199.417 380.273,198.197 380.110,197.855 381.000 C 197.551 381.793,195.250 381.795,194.946 381.002 C 194.598 380.098,193.929 380.745,194.230 381.693 C 194.558 382.729,192.188 382.494,190.458 381.318 C 189.876 380.923,189.040 380.502,188.600 380.382 C 188.125 380.253,187.781 379.800,187.754 379.269 C 187.656 377.368,184.800 378.446,184.800 380.384 C 184.800 382.007,182.713 382.324,181.572 380.874 C 180.614 379.655,178.902 378.712,178.583 379.227 C 178.456 379.432,177.994 379.600,177.556 379.600 C 177.029 379.600,176.616 380.008,176.340 380.800 C 175.830 382.264,175.062 382.323,173.829 380.994 C 173.239 380.357,172.657 380.080,172.243 380.239 C 171.884 380.377,171.361 380.300,171.081 380.067 C 170.801 379.835,169.409 379.460,167.986 379.233 C 166.172 378.944,165.191 378.565,164.700 377.966 L 164.000 377.111 164.000 378.012 C 164.000 378.507,164.276 379.114,164.614 379.361 C 165.161 379.761,165.162 379.896,164.626 380.605 C 164.044 381.375,164.025 381.365,164.013 380.300 C 163.997 378.955,162.882 378.804,161.800 380.000 C 160.830 381.072,160.552 381.012,160.068 379.624 C 159.676 378.499,159.604 378.468,158.397 378.924 C 157.345 379.321,157.058 379.298,156.668 378.786 C 156.410 378.449,155.536 377.787,154.726 377.315 L 153.251 376.457 152.990 377.645 C 152.833 378.360,152.922 379.065,153.214 379.416 C 154.316 380.745,152.246 379.956,151.042 378.589 C 149.630 376.984,147.394 376.117,147.041 377.036 C 146.443 378.596,144.800 377.373,144.800 375.367 C 144.800 374.251,143.050 373.998,141.567 374.900 C 140.844 375.339,140.633 375.262,139.823 374.257 C 139.156 373.430,138.682 373.184,138.107 373.366 C 137.607 373.525,137.109 373.373,136.763 372.956 C 136.261 372.350,136.196 372.368,136.007 373.171 C 135.736 374.318,135.058 374.292,134.782 373.124 C 134.611 372.402,134.285 372.197,133.288 372.186 C 131.703 372.169,130.815 371.425,131.528 370.712 C 131.912 370.328,131.799 370.008,130.998 369.212 C 130.439 368.655,129.574 367.570,129.077 366.800 C 128.224 365.479,126.400 364.643,126.400 365.572 C 126.400 366.097,124.536 366.144,124.217 365.628 C 124.091 365.423,124.170 365.142,124.393 365.004 C 125.541 364.295,122.892 360.800,121.207 360.800 C 120.475 360.800,119.228 359.111,119.213 358.100 C 119.206 357.605,118.975 357.193,118.700 357.185 C 118.425 357.176,117.710 356.460,117.110 355.594 C 116.020 354.017,114.531 353.705,114.979 355.147 C 115.090 355.506,115.009 356.070,114.797 356.400 C 114.503 356.858,114.411 356.711,114.406 355.780 C 114.399 354.421,113.783 353.600,112.769 353.600 C 112.400 353.600,111.874 353.330,111.600 353.000 C 111.326 352.670,110.769 352.400,110.361 352.400 C 109.571 352.400,109.640 350.723,110.498 349.048 C 110.851 348.359,110.762 348.318,109.442 348.566 L 108.000 348.836 108.000 346.642 C 108.000 344.179,107.439 343.439,106.737 344.977 C 106.202 346.152,106.028 346.201,105.016 345.461 C 104.306 344.942,104.312 344.888,105.162 344.038 C 105.778 343.422,106.008 342.776,105.923 341.902 C 105.820 340.857,105.967 340.601,106.800 340.364 C 108.105 339.993,107.865 339.912,105.098 339.787 C 103.832 339.730,102.696 339.845,102.574 340.042 C 102.214 340.624,100.800 340.450,100.800 339.824 C 100.800 339.507,100.979 339.136,101.199 339.001 C 102.052 338.473,100.447 336.367,99.283 336.487 C 98.118 336.609,97.409 334.031,98.350 333.090 C 98.622 332.818,98.514 332.056,98.021 330.757 L 97.288 328.828 98.432 328.322 L 99.576 327.815 98.688 327.322 C 98.200 327.050,97.389 326.822,96.886 326.814 C 96.097 326.802,96.030 326.691,96.400 326.000 C 96.868 325.125,96.437 324.923,95.692 325.668 C 95.335 326.025,95.136 325.907,94.852 325.168 C 94.520 324.303,94.625 324.141,95.840 323.646 C 97.348 323.031,97.485 322.735,96.600 322.000 C 96.270 321.726,96.000 321.200,96.000 320.831 C 96.000 320.462,95.791 319.951,95.535 319.695 C 95.181 319.341,95.332 319.130,96.162 318.815 C 97.052 318.476,97.203 318.233,96.977 317.500 C 96.601 316.277,96.463 316.177,95.913 316.727 C 95.653 316.987,94.711 317.186,93.820 317.168 C 92.929 317.151,92.429 317.045,92.708 316.932 C 94.087 316.378,94.828 313.253,93.787 312.389 C 93.449 312.109,93.232 311.705,93.303 311.492 C 93.515 310.854,91.423 308.886,90.375 308.738 C 89.722 308.645,89.358 308.302,89.272 307.700 C 89.119 306.619,89.837 306.528,90.905 307.495 C 91.755 308.265,92.839 307.410,92.768 306.024 C 92.748 305.611,92.668 305.569,92.535 305.900 C 92.315 306.447,91.200 306.597,91.200 306.080 C 91.200 305.904,91.423 305.537,91.697 305.263 C 92.306 304.654,91.496 304.016,90.100 304.006 C 88.988 303.999,88.955 303.545,90.000 302.600 C 91.102 301.603,91.014 299.941,89.800 298.800 C 88.694 297.761,88.318 295.902,89.395 296.796 C 90.963 298.097,92.528 296.532,91.347 294.845 C 90.673 293.884,91.047 293.222,92.273 293.206 C 93.068 293.196,93.376 291.518,92.678 291.007 C 92.337 290.758,92.000 289.844,91.929 288.977 C 91.825 287.705,91.630 287.376,90.919 287.275 C 89.762 287.110,89.340 285.750,90.164 284.840 C 90.960 283.960,90.982 282.394,90.213 281.376 C 89.890 280.949,89.620 280.124,89.613 279.543 C 89.603 278.706,89.298 278.365,88.151 277.907 C 86.131 277.102,84.603 270.000,86.450 270.000 C 86.642 270.000,86.800 269.820,86.800 269.600 C 86.800 269.380,86.305 269.197,85.700 269.194 C 84.410 269.187,83.836 268.856,83.491 267.920 C 83.321 267.459,83.410 267.306,83.768 267.443 C 84.490 267.720,84.886 266.285,84.881 263.411 C 84.877 261.510,85.033 260.912,85.640 260.487 C 86.253 260.057,86.319 259.795,85.974 259.151 C 85.642 258.530,85.421 258.451,85.000 258.800 C 84.579 259.149,84.359 259.070,84.028 258.452 C 83.367 257.217,83.512 256.800,84.600 256.800 C 85.150 256.800,85.600 256.649,85.600 256.464 C 85.600 256.280,85.150 255.923,84.600 255.673 C 83.862 255.337,83.600 254.908,83.600 254.037 C 83.600 252.896,82.734 251.600,81.971 251.600 C 81.767 251.600,81.597 251.105,81.594 250.500 C 81.586 249.125,80.818 246.909,79.900 245.611 C 79.515 245.067,79.200 244.116,79.200 243.498 C 79.200 242.867,78.936 242.274,78.598 242.144 C 78.004 241.916,77.990 238.187,78.580 237.233 C 78.705 237.030,78.144 236.646,77.334 236.378 C 76.043 235.952,75.942 235.831,76.524 235.406 C 77.830 234.451,78.290 232.570,77.864 229.924 C 77.495 227.633,77.527 227.427,78.351 226.759 C 79.226 226.050,79.227 226.043,78.425 225.614 C 77.067 224.887,76.608 223.630,77.468 222.992 C 78.176 222.468,78.175 222.431,77.441 221.887 C 76.858 221.455,76.748 221.057,76.966 220.163 C 77.121 219.523,77.347 218.511,77.468 217.913 C 77.588 217.315,78.038 216.715,78.466 216.579 C 79.613 216.215,79.191 215.041,77.828 214.803 C 76.418 214.557,76.049 213.765,77.178 213.407 C 78.582 212.961,78.087 210.800,76.581 210.800 C 75.509 210.800,75.098 210.331,75.425 209.480 C 75.560 209.128,76.006 208.953,76.526 209.049 C 77.007 209.137,77.175 209.102,76.900 208.971 C 75.921 208.506,76.339 206.852,77.600 206.200 C 78.712 205.625,79.276 204.400,78.429 204.400 C 77.822 204.400,76.800 201.978,76.800 200.539 C 76.800 198.924,77.157 198.866,78.545 200.255 C 79.359 201.068,79.600 201.159,79.600 200.655 C 79.600 200.295,79.425 200.000,79.210 200.000 C 78.993 200.000,78.923 199.486,79.052 198.842 C 79.223 197.986,79.063 197.463,78.442 196.842 C 77.979 196.379,77.600 195.829,77.600 195.620 C 77.600 195.411,77.308 195.076,76.950 194.876 C 76.413 194.576,76.517 194.438,77.550 194.077 C 79.143 193.522,79.126 193.427,77.200 192.153 C 75.408 190.967,75.242 190.587,76.382 190.289 C 77.623 189.964,77.795 188.242,76.875 185.360 C 75.825 182.071,76.217 180.400,78.039 180.400 C 79.869 180.400,78.845 178.973,76.477 178.224 C 75.012 177.760,75.419 175.944,77.085 175.516 C 78.037 175.271,78.306 175.019,78.123 174.543 C 77.976 174.161,78.143 173.752,78.535 173.532 C 79.321 173.092,81.349 168.964,81.031 168.450 C 80.909 168.253,80.183 167.973,79.418 167.830 C 77.626 167.494,77.359 167.007,78.266 165.730 C 80.264 162.912,80.265 162.942,78.130 162.181 C 77.122 161.821,76.890 161.629,77.451 161.618 C 78.997 161.586,79.463 160.481,78.143 159.976 L 77.000 159.538 77.838 158.855 C 78.550 158.274,78.592 158.095,78.115 157.650 C 77.807 157.362,77.611 156.836,77.680 156.481 C 77.748 156.126,77.308 155.292,76.702 154.628 C 75.312 153.106,75.285 152.451,76.624 152.707 C 77.426 152.860,77.697 152.715,77.875 152.035 C 78.090 151.213,78.141 151.204,78.853 151.848 C 79.772 152.679,79.824 152.625,80.149 150.500 C 80.421 148.721,80.169 148.468,78.836 149.181 C 77.701 149.788,76.319 148.597,76.472 147.143 C 76.546 146.431,76.364 145.825,76.009 145.606 C 75.299 145.167,75.339 145.136,77.600 144.353 C 78.958 143.883,79.434 143.498,79.538 142.784 C 79.662 141.941,79.604 141.899,79.008 142.393 C 78.165 143.093,77.453 142.249,77.832 141.000 C 78.461 138.927,78.457 137.947,77.817 136.969 C 77.170 135.982,77.176 135.931,77.971 135.723 C 79.019 135.449,79.011 135.352,77.810 133.777 C 77.002 132.718,76.928 132.436,77.410 132.252 C 77.772 132.113,78.000 131.493,78.000 130.650 C 78.000 129.545,78.137 129.307,78.700 129.439 C 79.126 129.539,79.700 129.186,80.167 128.537 C 80.932 127.474,80.932 127.472,80.082 127.695 C 79.593 127.822,79.032 127.679,78.766 127.359 C 78.511 127.051,77.962 126.800,77.547 126.800 C 76.546 126.800,78.108 124.263,79.500 123.628 C 80.815 123.028,80.416 120.400,79.010 120.400 C 78.216 120.400,77.825 119.615,78.355 119.085 C 78.982 118.458,78.908 117.139,78.160 115.639 C 77.318 113.952,78.233 108.816,79.380 108.791 C 79.611 108.786,79.215 108.493,78.500 108.141 C 76.942 107.373,76.852 106.903,78.200 106.564 C 78.909 106.386,79.200 106.042,79.200 105.380 C 79.200 104.867,79.374 104.340,79.587 104.208 C 79.800 104.076,79.951 103.339,79.922 102.570 C 79.893 101.800,80.072 100.968,80.319 100.721 C 80.653 100.387,80.462 99.921,79.585 98.921 C 78.210 97.355,78.062 96.161,79.200 95.800 C 80.627 95.347,78.900 93.200,77.109 93.200 C 76.410 93.200,76.341 92.964,76.463 90.999 C 76.554 89.535,76.447 88.799,76.143 88.799 C 75.271 88.800,75.250 87.664,76.111 87.093 L 76.973 86.521 76.086 86.046 C 75.599 85.785,75.200 85.225,75.200 84.800 C 75.200 84.375,74.828 83.829,74.374 83.586 C 73.421 83.076,73.974 81.984,75.139 82.075 C 77.226 82.238,77.822 81.963,76.430 81.477 C 74.760 80.896,74.453 80.205,75.684 79.800 L 76.600 79.498 75.600 79.330 C 72.539 78.816,71.419 77.378,72.741 75.660 C 73.416 74.783,73.508 74.765,74.131 75.388 C 74.512 75.769,75.186 75.980,75.699 75.879 L 76.600 75.702 75.700 75.404 C 75.104 75.207,74.800 74.787,74.800 74.160 C 74.800 73.423,74.347 72.984,72.759 72.179 L 70.719 71.145 71.884 70.273 C 75.624 67.471,77.319 64.800,75.357 64.800 C 74.718 64.800,74.670 64.549,74.784 61.755 C 74.874 59.534,74.516 59.218,71.887 59.205 C 70.764 59.200,70.655 59.063,70.234 57.132 C 70.064 56.353,69.676 55.992,68.800 55.800 C 67.801 55.581,67.600 55.341,67.600 54.368 C 67.600 53.515,67.408 53.200,66.889 53.200 C 65.545 53.200,64.374 52.042,64.642 50.976 C 64.799 50.351,64.716 50.000,64.411 50.000 C 64.149 50.000,63.166 49.370,62.226 48.600 C 61.286 47.830,60.170 47.200,59.745 47.200 C 59.311 47.200,58.662 46.674,58.264 46.000 C 57.874 45.340,57.316 44.800,57.023 44.800 C 56.292 44.800,54.345 45.843,53.983 46.428 C 53.575 47.088,51.813 46.595,50.839 45.549 L 50.055 44.708 49.028 45.736 C 48.462 46.301,48.000 47.168,48.000 47.662 C 48.000 48.360,47.893 48.453,47.520 48.080 C 46.792 47.352,46.282 47.505,46.511 48.382 C 46.686 49.050,46.557 49.131,45.623 48.945 C 44.296 48.679,43.200 49.626,43.200 51.037 C 43.200 51.700,42.869 52.168,42.178 52.483 C 41.358 52.857,41.180 53.188,41.278 54.156 C 41.391 55.274,41.282 55.387,39.800 55.687 C 37.110 56.232,37.098 56.243,37.786 57.573 C 38.610 59.167,38.562 59.521,37.500 59.672 C 36.922 59.754,36.554 60.122,36.472 60.700 C 36.320 61.775,37.093 61.888,37.843 60.900 C 38.341 60.244,38.375 60.250,38.381 61.000 C 38.389 62.001,37.999 62.585,37.100 62.917 C 36.686 63.069,36.400 63.588,36.400 64.187 C 36.400 64.911,36.186 65.200,35.649 65.200 C 34.814 65.200,33.859 66.126,34.270 66.537 C 34.415 66.682,34.940 66.800,35.438 66.800 C 37.713 66.800,38.061 68.366,36.200 70.227 C 34.632 71.794,34.541 72.087,35.400 72.800 C 36.261 73.514,36.139 74.702,35.174 75.008 C 34.095 75.351,33.624 76.686,34.168 77.860 C 34.609 78.813,35.200 79.122,35.200 78.400 C 35.200 78.180,35.380 78.000,35.600 78.000 C 35.820 78.000,36.000 78.360,36.000 78.800 C 36.000 79.240,35.823 79.600,35.608 79.600 C 35.392 79.600,35.102 80.050,34.964 80.600 C 34.798 81.264,34.426 81.609,33.857 81.625 C 33.010 81.650,33.011 81.655,33.900 82.012 C 35.071 82.483,35.039 82.963,33.800 83.527 C 32.723 84.018,32.549 84.784,33.228 86.052 C 33.500 86.560,33.518 87.024,33.277 87.326 C 32.120 88.775,32.531 91.054,33.764 90.030 C 34.108 89.744,34.654 89.612,34.978 89.736 C 35.785 90.046,35.513 92.782,34.609 93.443 C 33.633 94.157,34.208 94.800,35.824 94.800 C 37.575 94.800,37.667 95.738,36.000 96.600 C 34.655 97.296,34.573 97.536,35.327 98.568 C 35.821 99.243,35.896 99.246,36.527 98.616 C 37.440 97.703,37.395 98.394,36.345 101.373 C 35.875 102.708,35.245 103.944,34.945 104.120 C 34.292 104.503,34.216 105.600,34.843 105.600 C 35.121 105.600,35.189 105.988,35.026 106.638 C 34.883 107.209,34.958 107.908,35.193 108.192 C 35.507 108.570,35.454 108.770,34.994 108.947 C 34.540 109.121,34.390 109.659,34.451 110.894 C 34.497 111.832,34.459 112.870,34.367 113.200 C 34.253 113.611,34.484 113.790,35.100 113.768 C 35.925 113.739,36.000 113.915,36.000 115.868 C 36.000 118.371,35.934 118.655,35.400 118.436 C 35.180 118.346,34.386 118.188,33.636 118.085 L 32.273 117.898 33.075 119.049 C 33.988 120.358,34.465 121.913,34.035 122.178 C 33.062 122.780,34.065 126.400,35.205 126.400 C 35.891 126.400,35.870 126.499,34.981 127.458 C 34.441 128.041,34.000 128.858,34.000 129.276 C 34.000 129.693,33.562 130.507,33.026 131.085 C 31.470 132.763,31.374 133.920,32.678 135.283 C 33.689 136.339,33.733 136.493,33.117 136.838 C 32.738 137.050,32.534 137.484,32.659 137.811 C 32.935 138.529,34.256 138.592,34.535 137.900 C 34.659 137.594,34.749 137.663,34.768 138.080 C 34.786 138.454,34.505 138.925,34.144 139.127 C 33.334 139.581,33.771 140.400,34.824 140.400 C 35.943 140.400,35.779 141.390,34.569 141.942 C 32.972 142.669,33.656 143.669,36.100 144.184 C 37.554 144.490,37.492 145.020,35.939 145.561 C 34.716 145.988,34.699 146.026,35.386 146.784 C 36.657 148.189,36.699 151.081,35.456 151.647 C 34.167 152.235,32.488 155.448,33.133 156.093 C 33.444 156.404,33.740 156.382,34.183 156.014 C 34.704 155.581,34.800 155.627,34.800 156.308 C 34.800 156.752,34.530 157.218,34.200 157.345 C 33.059 157.782,33.483 159.481,34.851 159.958 C 35.777 160.281,35.998 160.525,35.702 160.897 C 35.121 161.626,34.837 164.088,35.245 164.869 C 35.505 165.366,35.137 166.132,33.803 167.869 L 32.011 170.200 33.472 171.500 C 34.276 172.215,34.858 172.852,34.767 172.915 C 34.675 172.978,33.842 173.538,32.914 174.159 L 31.229 175.289 32.048 176.894 C 32.499 177.777,32.783 178.820,32.681 179.212 C 32.578 179.604,32.832 180.437,33.245 181.062 C 33.657 181.688,33.996 182.636,33.997 183.169 C 33.999 183.701,34.259 184.423,34.575 184.772 C 35.277 185.548,34.972 189.132,34.264 188.424 C 33.700 187.860,32.120 187.883,31.762 188.461 C 31.606 188.714,31.761 189.129,32.108 189.382 C 32.663 189.788,32.667 189.888,32.140 190.222 C 31.139 190.855,32.110 192.694,33.684 193.148 C 34.408 193.357,34.685 193.544,34.300 193.564 C 33.397 193.610,33.397 194.762,34.300 195.428 C 34.953 195.910,34.939 195.967,34.102 196.280 C 33.608 196.465,32.780 197.235,32.262 197.992 L 31.319 199.368 32.159 200.053 L 33.000 200.738 31.874 201.169 C 31.255 201.406,30.402 201.600,29.980 201.600 C 29.227 201.600,29.228 201.627,30.004 202.900 C 30.440 203.615,30.798 204.785,30.799 205.500 C 30.799 206.215,30.960 206.800,31.157 206.800 C 32.048 206.800,32.053 208.956,31.164 209.627 L 30.273 210.299 31.122 211.026 C 31.758 211.571,31.862 211.884,31.536 212.277 C 31.199 212.684,31.372 212.854,32.315 213.043 C 34.165 213.413,34.578 215.650,33.153 217.578 C 32.109 218.990,32.429 219.600,34.214 219.600 C 35.518 219.600,35.569 219.654,35.340 220.800 C 35.187 221.564,35.263 222.000,35.550 222.000 C 36.199 222.000,36.104 223.016,35.400 223.600 C 34.534 224.319,34.662 225.103,35.700 225.427 C 36.557 225.694,37.181 226.294,37.194 226.862 C 37.197 227.006,36.390 227.599,35.400 228.179 C 33.778 229.130,32.977 230.400,34.000 230.400 C 34.995 230.400,34.249 231.119,32.806 231.551 C 31.134 232.052,31.180 233.600,32.867 233.600 C 34.169 233.600,34.913 235.932,33.658 236.077 C 32.404 236.223,32.351 236.843,33.545 237.395 C 35.368 238.237,34.118 240.329,32.223 239.609 C 30.860 239.091,30.938 239.076,30.640 239.900 C 30.216 241.075,29.302 242.489,28.736 242.848 C 28.341 243.099,28.415 243.189,29.020 243.194 C 29.471 243.197,30.056 242.984,30.320 242.720 C 31.237 241.803,31.764 242.977,30.976 244.180 C 30.131 245.469,31.222 247.426,32.753 247.368 C 33.219 247.351,33.600 247.486,33.600 247.668 C 33.600 247.851,33.259 248.000,32.843 248.000 C 32.056 248.000,31.431 249.002,31.822 249.636 C 31.946 249.836,32.286 250.000,32.578 250.000 C 33.251 250.000,34.215 251.470,34.485 252.910 C 34.662 253.854,34.581 253.984,33.946 253.783 C 33.536 253.653,33.200 253.725,33.200 253.944 C 33.200 254.585,34.397 255.600,35.152 255.600 C 36.181 255.600,37.435 256.607,36.854 256.967 C 36.519 257.173,36.616 257.549,37.193 258.282 C 38.702 260.200,37.619 261.717,35.194 261.082 C 34.124 260.803,34.192 261.445,35.345 262.519 C 35.865 263.004,36.861 264.329,37.558 265.464 L 38.825 267.528 38.002 269.106 C 37.127 270.786,37.266 271.980,38.343 272.032 C 38.758 272.052,38.816 272.138,38.500 272.265 C 37.783 272.554,37.882 273.600,38.626 273.600 C 40.210 273.600,40.848 274.352,39.991 275.209 C 39.054 276.146,38.958 277.421,39.800 277.745 C 40.604 278.053,40.589 280.751,39.777 281.912 C 39.109 282.866,39.297 283.600,40.210 283.600 C 40.519 283.600,40.984 284.005,41.244 284.500 C 41.504 284.995,41.961 285.544,42.258 285.720 C 43.033 286.178,42.911 287.635,42.000 288.800 C 41.218 289.800,40.912 291.600,41.525 291.600 C 42.094 291.600,43.600 289.265,43.600 288.383 C 43.600 286.581,44.604 287.923,44.719 289.880 C 44.822 291.628,44.729 291.925,44.021 292.110 C 43.572 292.228,43.097 292.656,42.966 293.062 C 42.835 293.468,42.537 294.199,42.303 294.686 C 41.839 295.658,42.445 296.800,43.425 296.800 C 43.715 296.800,44.056 296.967,44.181 297.170 C 44.470 297.636,43.598 299.600,43.102 299.600 C 42.107 299.600,43.239 300.626,44.427 300.800 C 46.153 301.053,46.372 301.991,45.022 303.342 C 43.968 304.396,43.699 305.200,44.400 305.200 C 44.620 305.200,44.800 304.930,44.800 304.600 C 44.800 304.270,45.070 304.000,45.400 304.000 C 45.730 304.000,46.000 304.230,46.000 304.511 C 46.000 304.792,46.362 305.332,46.805 305.711 C 47.469 306.280,47.565 306.696,47.354 308.100 C 47.057 310.070,46.543 310.838,46.170 309.867 C 45.919 309.213,44.794 308.910,44.806 309.500 C 44.821 310.232,45.662 311.018,46.880 311.437 C 48.044 311.838,48.188 312.044,48.094 313.177 C 48.018 314.108,48.235 314.662,48.881 315.185 C 49.473 315.664,49.778 316.356,49.787 317.236 C 49.797 318.217,50.008 318.620,50.600 318.782 C 51.676 319.075,53.212 320.457,52.944 320.891 C 52.826 321.082,52.489 321.040,52.196 320.796 C 51.797 320.466,51.466 320.523,50.881 321.023 C 49.893 321.870,50.174 323.056,51.438 323.374 C 52.131 323.548,52.400 323.893,52.400 324.608 C 52.400 325.201,52.630 325.600,52.971 325.600 C 54.121 325.600,55.235 327.569,54.633 328.536 C 54.337 329.011,53.986 329.872,53.853 330.449 C 53.698 331.119,53.169 331.681,52.390 332.004 C 51.719 332.282,51.237 332.710,51.318 332.955 C 51.602 333.809,52.793 333.648,53.739 332.628 C 55.849 330.351,59.228 333.512,57.429 336.079 C 56.325 337.656,56.597 339.492,57.979 339.795 C 59.055 340.032,59.169 340.218,59.279 341.924 C 59.382 343.520,59.563 343.872,60.517 344.327 C 61.427 344.761,61.577 345.022,61.326 345.730 C 60.709 347.469,61.129 349.714,62.237 350.597 C 63.027 351.227,63.246 351.716,63.140 352.614 C 63.012 353.699,63.119 353.817,64.393 354.000 C 65.758 354.196,65.784 354.235,65.663 355.895 C 65.552 357.423,65.651 357.638,66.670 358.087 C 68.075 358.705,68.355 359.085,68.106 360.039 C 67.978 360.526,68.172 360.890,68.655 361.072 C 69.872 361.532,71.600 363.475,71.600 364.383 C 71.600 365.237,72.636 367.152,73.391 367.694 C 73.669 367.894,73.668 367.990,73.388 367.994 C 72.891 368.001,71.937 370.375,72.236 370.859 C 72.352 371.046,72.998 371.200,73.670 371.200 C 75.009 371.200,75.004 371.098,73.819 374.327 C 73.044 376.439,73.200 376.727,75.304 377.063 C 78.277 377.538,80.823 382.245,79.178 384.226 C 78.742 384.752,78.883 384.796,80.286 384.572 C 82.786 384.172,84.979 386.300,83.200 387.400 C 82.582 387.782,82.727 388.800,83.400 388.800 C 83.730 388.800,84.005 389.025,84.012 389.300 C 84.019 389.577,84.206 389.488,84.432 389.100 C 84.711 388.620,85.337 388.400,86.420 388.400 C 88.130 388.400,88.421 388.936,87.506 390.403 C 86.815 391.509,87.909 393.256,89.666 393.854 C 90.526 394.146,91.000 394.567,91.001 395.039 C 91.002 395.555,91.447 395.876,92.513 396.128 C 93.554 396.374,94.202 396.829,94.597 397.594 C 95.165 398.692,96.040 399.287,97.200 399.361 C 98.188 399.425,98.195 401.115,97.208 401.269 C 96.166 401.431,96.137 402.200,97.173 402.200 C 98.121 402.200,100.000 403.921,100.000 404.789 C 100.000 405.302,100.309 405.403,101.459 405.269 L 102.918 405.099 102.661 406.707 C 102.463 407.950,102.573 408.525,103.147 409.234 L 103.890 410.152 104.365 409.265 C 104.904 408.258,105.600 408.460,105.600 409.624 C 105.600 410.261,105.868 410.393,107.100 410.360 C 108.384 410.326,108.456 410.280,107.600 410.042 C 107.050 409.889,106.600 409.502,106.600 409.182 C 106.600 408.465,108.603 408.179,109.765 408.731 C 110.224 408.949,110.915 409.228,111.300 409.351 C 111.685 409.474,112.000 409.851,112.000 410.187 C 112.000 410.524,112.331 410.800,112.736 410.800 C 113.140 410.800,113.684 411.266,113.943 411.835 L 114.415 412.870 115.785 412.062 L 117.156 411.253 117.620 412.662 C 117.980 413.752,118.257 414.026,118.843 413.873 C 119.361 413.737,119.600 413.884,119.600 414.340 C 119.600 414.706,120.147 415.247,120.815 415.543 C 121.772 415.966,121.935 416.196,121.581 416.623 C 121.334 416.921,121.247 417.353,121.389 417.582 C 121.827 418.292,123.132 418.043,123.400 417.200 C 123.903 415.614,125.397 416.874,124.981 418.533 C 124.363 420.996,126.064 422.137,127.249 420.054 C 127.946 418.829,130.060 417.980,130.338 418.814 C 130.425 419.075,130.925 419.661,131.448 420.117 C 131.972 420.572,132.400 421.272,132.400 421.672 C 132.400 422.450,132.996 422.654,133.393 422.011 C 133.526 421.797,134.616 421.697,135.817 421.789 C 137.492 421.918,138.000 421.827,138.000 421.402 C 138.000 420.471,138.618 420.386,140.570 421.052 C 142.222 421.615,142.518 421.620,143.120 421.096 C 143.985 420.343,144.800 420.628,144.800 421.682 C 144.800 422.278,144.935 422.392,145.300 422.104 C 146.431 421.212,149.142 421.145,149.599 421.998 C 150.201 423.123,151.086 422.997,152.245 421.620 C 153.401 420.245,154.831 420.435,155.203 422.013 C 155.506 423.298,156.400 423.512,156.400 422.300 C 156.400 420.730,156.753 420.764,159.360 422.587 C 161.988 424.424,163.360 424.497,162.909 422.775 C 162.712 422.020,162.845 421.960,164.447 422.074 C 166.006 422.186,166.186 422.300,166.075 423.100 C 165.931 424.132,166.265 424.238,167.169 423.447 C 168.473 422.306,169.530 422.293,170.642 423.406 C 171.771 424.534,173.019 424.228,172.050 423.061 C 171.661 422.591,171.798 422.409,172.805 422.058 C 174.260 421.551,175.041 422.542,173.865 423.402 C 173.149 423.925,172.978 425.015,173.555 425.372 C 173.750 425.493,174.136 425.319,174.412 424.986 C 174.859 424.447,174.999 424.456,175.672 425.065 C 176.334 425.664,176.608 425.686,177.854 425.235 C 178.891 424.860,179.399 424.839,179.720 425.160 C 179.962 425.402,180.413 425.600,180.722 425.600 C 181.031 425.600,181.819 426.049,182.471 426.599 C 183.395 427.376,183.823 427.509,184.402 427.199 C 184.995 426.881,185.198 426.963,185.400 427.600 C 185.782 428.804,186.400 428.561,186.400 427.208 C 186.400 426.269,186.613 425.962,187.400 425.764 C 187.950 425.626,188.400 425.378,188.400 425.212 C 188.400 425.046,188.829 424.993,189.353 425.093 C 189.877 425.193,190.428 425.078,190.577 424.838 C 191.248 423.752,197.261 424.489,198.084 425.758 C 198.272 426.048,198.551 425.947,198.907 425.459 C 199.422 424.755,199.503 424.770,200.722 425.796 C 201.788 426.693,202.031 426.765,202.199 426.235 C 202.310 425.886,202.484 425.330,202.587 425.000 C 202.857 424.138,203.298 424.247,205.000 425.600 C 206.788 427.021,206.862 427.033,207.507 426.000 C 207.782 425.560,208.234 425.200,208.511 425.200 C 208.788 425.200,209.314 424.706,209.680 424.103 L 210.346 423.006 210.763 424.103 C 211.157 425.140,212.000 425.633,212.000 424.827 C 212.000 424.003,213.572 423.972,214.380 424.780 C 215.336 425.736,216.332 425.844,216.646 425.024 C 217.064 423.935,218.730 423.134,219.604 423.602 C 220.245 423.945,220.400 423.903,220.400 423.388 C 220.400 421.353,221.183 421.092,222.827 422.577 C 224.335 423.939,226.400 424.515,226.400 423.574 C 226.400 422.760,225.569 421.600,224.986 421.600 C 224.151 421.600,224.261 420.902,225.174 420.414 C 226.212 419.858,226.274 419.876,226.516 420.800 C 226.660 421.350,227.062 421.600,227.800 421.600 C 228.538 421.600,228.940 421.850,229.084 422.400 C 229.388 423.562,231.449 423.507,231.823 422.326 C 232.094 421.474,232.115 421.480,232.682 422.562 C 233.428 423.987,233.733 423.643,233.991 421.080 C 234.159 419.418,234.358 418.978,234.998 418.856 C 235.919 418.680,237.935 417.200,237.254 417.200 C 237.004 417.200,236.800 416.930,236.800 416.600 C 236.800 416.270,236.980 416.000,237.200 416.000 C 237.420 416.000,237.600 416.257,237.600 416.571 C 237.600 416.885,237.915 417.224,238.300 417.324 C 238.967 417.498,238.967 417.509,238.300 417.554 C 237.444 417.610,237.386 418.524,238.195 419.196 C 239.134 419.975,240.130 419.374,239.837 418.205 C 239.626 417.365,239.754 417.183,240.695 416.985 C 241.303 416.857,242.119 416.579,242.508 416.367 C 243.049 416.074,243.474 416.222,244.305 416.992 C 245.574 418.169,246.091 418.114,246.405 416.770 C 246.682 415.582,249.041 415.120,249.446 416.174 C 249.956 417.506,252.656 415.837,252.219 414.460 C 251.907 413.477,253.674 413.045,254.524 413.896 C 255.949 415.320,257.743 414.750,258.188 412.731 C 258.694 410.433,259.026 410.051,259.360 411.381 C 259.729 412.851,260.441 412.635,260.336 411.085 C 260.180 408.763,261.758 407.774,262.227 409.900 C 262.634 411.742,262.736 411.855,262.768 410.500 C 262.790 409.625,262.996 409.200,263.400 409.200 C 263.730 409.200,264.000 409.020,264.000 408.800 C 264.000 408.580,263.640 408.400,263.200 408.400 C 262.760 408.400,262.400 408.220,262.400 408.000 C 262.400 407.780,262.850 407.600,263.400 407.600 C 263.950 407.600,264.400 407.780,264.400 408.000 C 264.400 408.771,266.753 408.435,267.200 407.600 C 267.435 407.160,267.937 406.795,268.314 406.788 C 268.953 406.777,268.952 406.748,268.300 406.368 C 267.915 406.144,267.600 405.699,267.600 405.380 C 267.600 405.061,267.240 404.800,266.800 404.800 C 266.360 404.800,266.000 404.630,266.000 404.423 C 266.000 403.922,267.626 402.800,268.351 402.800 C 269.452 402.800,271.600 400.803,271.600 399.780 C 271.600 399.222,271.834 398.800,272.142 398.800 C 272.439 398.800,273.143 398.374,273.705 397.853 C 274.295 397.307,274.929 397.033,275.207 397.204 C 275.713 397.517,277.121 397.291,277.800 396.788 C 278.020 396.626,278.785 396.367,279.500 396.214 C 280.611 395.977,280.766 395.803,280.567 395.012 C 280.440 394.503,280.530 393.967,280.768 393.820 C 281.311 393.484,281.335 391.731,280.800 391.400 C 279.778 390.768,280.491 390.304,282.136 390.529 C 284.268 390.821,285.122 390.219,284.130 389.123 C 283.307 388.213,283.771 387.665,284.813 388.315 C 285.816 388.942,286.000 388.926,286.000 388.215 C 286.000 386.475,290.061 383.821,291.113 384.873 C 291.792 385.552,292.266 384.893,291.683 384.081 C 290.473 382.393,290.417 382.498,294.204 379.298 C 295.374 378.310,296.000 378.424,296.000 379.624 C 296.000 380.722,296.749 380.587,297.197 379.408 C 297.456 378.726,297.775 378.492,298.215 378.661 C 298.793 378.883,298.790 378.755,298.182 377.353 C 297.811 376.499,297.537 375.530,297.573 375.200 C 297.608 374.870,297.674 373.970,297.719 373.200 C 297.789 371.994,297.953 371.782,298.900 371.673 C 299.947 371.553,300.213 371.080,300.024 369.676 C 299.891 368.682,300.863 366.400,301.421 366.400 C 301.728 366.400,302.249 365.880,302.578 365.243 C 302.911 364.599,303.726 363.895,304.419 363.653 C 305.494 363.279,305.654 363.041,305.595 361.910 C 305.494 359.965,305.982 358.820,307.021 358.559 C 307.603 358.413,307.867 358.118,307.731 357.766 C 307.613 357.457,307.345 357.311,307.135 357.440 C 306.926 357.569,306.307 357.563,305.761 357.426 C 304.493 357.108,304.957 356.260,306.262 356.510 C 306.795 356.612,307.846 356.484,308.598 356.225 L 309.966 355.755 309.183 354.468 C 308.210 352.868,308.209 352.883,309.300 352.728 C 309.884 352.645,310.205 352.319,310.215 351.800 C 310.240 350.473,310.838 349.767,311.275 350.549 C 311.760 351.416,312.500 351.372,313.080 350.443 C 313.667 349.503,313.388 349.200,311.933 349.200 C 311.056 349.200,310.800 349.014,310.800 348.376 C 310.800 347.923,310.982 347.665,311.204 347.802 C 311.825 348.186,313.200 347.615,313.200 346.973 C 313.200 346.324,311.778 346.188,311.399 346.801 C 310.873 347.653,309.599 346.421,309.625 345.086 C 309.648 343.915,309.683 343.880,310.012 344.700 C 310.254 345.301,310.711 345.600,311.387 345.600 C 312.747 345.600,312.671 344.751,311.213 343.673 C 309.830 342.651,309.975 341.600,311.499 341.600 C 312.056 341.600,312.751 341.285,313.043 340.900 C 313.751 339.967,313.734 339.574,312.997 339.857 C 312.202 340.162,310.562 339.063,310.297 338.048 C 310.131 337.414,310.330 337.191,311.243 336.990 C 312.117 336.799,312.400 336.507,312.400 335.801 C 312.400 335.286,312.509 334.581,312.643 334.233 C 312.802 333.818,312.665 333.600,312.243 333.600 C 310.453 333.600,309.381 331.042,311.000 330.636 C 311.581 330.490,312.002 330.095,312.005 329.692 C 312.008 329.312,312.112 328.625,312.235 328.167 C 312.426 327.453,312.280 327.333,311.216 327.333 C 309.634 327.333,308.735 326.553,309.833 326.133 C 311.688 325.422,312.426 322.836,311.038 321.906 C 310.778 321.731,310.924 321.605,311.400 321.593 C 312.470 321.568,313.600 320.669,313.600 319.842 C 313.600 319.474,314.146 318.639,314.814 317.987 C 315.834 316.989,315.908 316.800,315.276 316.800 C 313.612 316.800,312.370 313.939,313.494 312.696 C 313.863 312.288,314.140 311.357,314.119 310.596 C 314.091 309.624,314.282 309.164,314.778 309.007 C 315.591 308.749,316.375 306.414,316.326 304.400 C 316.210 299.666,316.831 297.890,319.036 296.650 C 320.275 295.952,320.603 295.532,320.616 294.625 C 320.627 293.826,320.892 293.383,321.494 293.161 C 322.256 292.879,322.312 292.688,321.978 291.524 C 321.770 290.799,321.600 290.180,321.600 290.149 C 321.600 290.118,321.979 289.994,322.442 289.873 C 323.571 289.578,323.210 288.691,321.767 288.216 C 320.181 287.694,320.210 287.750,320.948 286.623 C 321.486 285.802,321.821 285.664,322.802 285.860 C 323.725 286.045,324.000 285.956,324.000 285.474 C 324.000 284.580,323.267 284.247,322.571 284.824 C 322.109 285.208,321.745 285.212,320.939 284.845 C 319.763 284.309,319.989 283.848,322.583 281.497 C 323.739 280.449,323.763 280.366,323.067 279.829 C 322.362 279.285,322.366 279.247,323.167 278.818 C 324.217 278.256,324.216 277.832,323.164 276.852 C 321.784 275.567,322.314 274.580,324.315 274.707 C 326.387 274.839,326.753 273.609,324.872 272.830 C 323.742 272.362,323.181 268.685,324.100 267.766 C 324.265 267.602,324.400 267.057,324.400 266.557 C 324.400 266.057,324.600 265.524,324.843 265.373 C 325.124 265.200,324.867 264.763,324.143 264.184 L 323.000 263.270 324.200 262.971 C 327.636 262.116,329.025 260.705,326.859 260.272 C 325.386 259.977,325.025 259.033,325.794 257.491 C 326.127 256.823,326.400 255.964,326.400 255.582 C 326.400 255.174,326.813 254.783,327.400 254.636 C 327.950 254.498,328.400 254.130,328.400 253.819 C 328.400 253.033,326.997 252.667,326.009 253.195 C 325.363 253.541,325.140 253.508,324.960 253.041 C 324.490 251.814,325.001 251.030,326.503 250.675 C 327.945 250.334,328.225 249.916,328.013 248.428 C 327.968 248.113,328.294 247.573,328.736 247.228 C 330.031 246.217,329.825 243.227,328.457 243.175 C 328.005 243.157,328.081 243.036,328.700 242.788 C 329.851 242.325,329.833 241.958,328.600 240.800 C 327.290 239.569,327.338 239.200,328.810 239.200 C 330.822 239.200,331.529 235.612,329.636 235.011 C 328.119 234.530,328.684 232.083,330.500 231.268 C 331.161 230.971,330.739 230.446,329.744 230.327 C 329.017 230.239,328.459 229.769,327.949 228.815 C 327.058 227.146,327.355 226.740,329.692 226.428 C 331.885 226.135,332.400 224.216,330.601 223.037 C 329.885 222.568,329.632 222.128,329.792 221.625 C 329.935 221.174,329.790 220.805,329.412 220.660 C 328.366 220.258,328.740 219.600,330.014 219.600 C 331.083 219.600,331.179 219.691,330.821 220.360 C 330.418 221.113,331.315 221.985,331.757 221.269 C 332.174 220.595,331.122 217.229,330.426 217.008 C 329.800 216.809,329.734 216.425,329.907 213.998 C 330.074 211.674,329.999 211.174,329.453 210.965 C 328.488 210.595,328.580 208.383,329.572 208.123 C 330.032 208.003,330.257 207.694,330.130 207.361 C 330.011 207.052,330.044 206.485,330.202 206.100 C 330.786 204.680,330.624 202.733,329.889 202.340 C 329.037 201.885,329.346 201.200,330.403 201.200 C 331.568 201.200,333.492 199.287,332.651 198.964 C 331.920 198.684,331.751 197.200,332.450 197.200 C 332.698 197.200,332.045 196.381,331.001 195.380 C 329.330 193.780,329.179 193.502,329.747 193.080 C 330.374 192.614,332.000 189.753,332.000 189.115 C 332.000 188.942,331.618 188.800,331.151 188.800 C 330.434 188.800,330.381 188.705,330.810 188.188 C 331.204 187.713,331.214 187.349,330.853 186.556 C 330.271 185.280,331.010 183.481,332.203 183.266 C 333.308 183.067,333.749 182.565,333.467 181.829 C 333.268 181.311,333.052 181.285,332.199 181.673 C 331.373 182.050,331.063 182.029,330.626 181.571 C 329.831 180.736,330.275 178.526,331.292 178.260 C 332.014 178.071,332.083 177.804,331.919 175.824 C 331.735 173.605,331.737 173.600,332.867 173.600 C 334.282 173.600,334.310 173.092,332.949 172.101 C 331.720 171.206,332.125 169.755,333.668 169.528 C 335.280 169.291,334.990 168.400,333.300 168.400 C 330.944 168.400,331.002 166.608,333.409 165.031 C 334.638 164.225,334.665 163.765,333.500 163.449 C 332.861 163.275,332.439 163.439,332.044 164.013 C 331.520 164.775,331.444 164.783,330.744 164.149 C 329.783 163.280,329.799 162.800,330.790 162.800 C 331.267 162.800,331.831 162.313,332.217 161.568 C 332.587 160.852,333.075 160.420,333.380 160.537 C 333.801 160.698,333.822 160.464,333.486 159.369 C 333.107 158.136,332.000 157.413,332.000 158.400 C 332.000 159.160,331.327 158.797,330.868 157.789 C 330.457 156.887,330.509 156.739,331.349 156.419 C 332.443 156.003,333.010 154.850,332.413 154.253 C 331.750 153.590,331.934 152.911,332.842 152.673 C 333.305 152.552,333.610 152.229,333.518 151.955 C 333.353 151.460,333.194 151.356,331.114 150.386 C 330.294 150.004,330.114 149.725,330.380 149.250 C 330.587 148.880,330.576 148.328,330.352 147.910 C 330.115 147.467,330.113 146.937,330.346 146.500 C 331.389 144.552,331.336 142.032,330.244 141.617 C 328.669 141.018,328.893 140.000,330.600 140.000 C 332.176 140.000,332.519 139.092,331.300 138.144 C 330.636 137.628,330.639 137.570,331.358 137.014 C 332.095 136.443,332.089 136.391,331.128 135.114 C 329.671 133.174,329.553 132.567,330.422 131.462 C 330.850 130.919,331.200 130.133,331.200 129.717 C 331.200 129.301,331.409 128.751,331.664 128.496 C 332.015 128.145,331.821 127.720,330.861 126.738 C 330.007 125.864,329.672 125.203,329.831 124.703 C 329.960 124.295,329.849 123.700,329.584 123.381 C 329.183 122.898,329.281 122.800,330.161 122.800 C 330.916 122.800,331.326 122.519,331.592 121.821 C 331.797 121.282,332.439 120.531,333.018 120.151 L 334.073 119.460 333.046 118.923 C 331.825 118.283,331.005 116.968,331.599 116.601 C 332.282 116.178,332.057 114.802,331.300 114.775 C 330.415 114.743,332.259 113.864,333.292 113.826 C 333.673 113.812,333.960 113.620,333.931 113.400 C 333.901 113.180,333.544 113.057,333.136 113.126 C 332.236 113.278,331.738 112.198,332.362 111.446 C 332.611 111.146,332.701 110.606,332.562 110.246 C 332.424 109.885,332.533 109.322,332.804 108.995 C 333.145 108.585,333.172 108.245,332.890 107.900 C 331.961 106.760,332.122 103.011,333.106 102.871 C 333.604 102.801,333.909 102.576,333.782 102.371 C 333.448 101.830,331.447 101.917,330.835 102.500 C 330.406 102.909,330.363 102.818,330.600 102.000 C 330.989 100.657,331.244 100.428,333.036 99.812 C 334.826 99.197,335.195 98.579,333.998 98.199 C 333.318 97.984,333.199 97.715,333.392 96.837 C 333.590 95.935,333.454 95.662,332.616 95.280 C 331.275 94.669,331.162 92.608,332.452 92.271 C 333.089 92.104,333.229 91.865,333.006 91.324 C 332.364 89.766,332.066 87.823,332.378 87.226 C 332.912 86.202,332.399 84.054,331.557 83.786 C 331.086 83.637,330.800 83.176,330.800 82.568 C 330.800 82.029,330.592 81.255,330.337 80.848 C 330.076 80.429,330.006 79.778,330.177 79.353 C 330.457 78.657,330.508 78.671,330.844 79.546 C 331.235 80.562,332.016 80.264,332.801 78.799 C 333.220 78.015,331.526 75.357,330.375 74.992 C 329.590 74.743,330.166 73.049,331.274 72.346 C 331.637 72.116,331.652 72.010,331.325 72.006 C 331.063 72.003,330.270 71.471,329.562 70.824 L 328.275 69.648 329.537 68.210 C 330.985 66.562,331.031 66.325,330.168 65.007 C 329.798 64.443,329.587 63.436,329.661 62.583 C 329.754 61.497,329.584 60.976,328.993 60.538 C 328.211 59.959,328.211 59.942,328.971 59.379 C 329.951 58.653,329.427 58.066,328.382 58.719 C 327.696 59.147,327.600 59.100,327.600 58.332 C 327.600 56.670,328.513 54.858,329.471 54.618 C 330.611 54.332,330.684 53.599,329.600 53.316 C 328.323 52.982,328.472 50.848,329.755 51.094 C 330.884 51.309,332.530 50.535,332.173 49.956 C 332.021 49.711,331.095 49.656,329.815 49.815 C 327.539 50.100,326.915 49.412,327.167 46.900 C 327.279 45.786,326.403 45.703,326.116 46.800 C 326.001 47.240,325.821 47.600,325.716 47.600 C 325.612 47.600,325.069 47.240,324.509 46.800 C 323.950 46.360,322.899 46.000,322.173 46.000 C 321.184 46.000,320.787 45.790,320.587 45.160 C 320.378 44.501,320.072 44.357,319.160 44.491 C 317.692 44.707,317.620 43.914,318.993 42.641 C 320.039 41.672,319.954 41.200,318.733 41.200 C 318.192 41.200,318.000 41.502,318.000 42.355 C 318.000 43.792,315.909 44.376,315.067 43.174 C 314.641 42.567,314.483 42.550,313.814 43.040 C 312.556 43.959,310.000 43.661,310.000 42.595 C 310.000 41.927,308.377 42.281,307.727 43.091 C 307.060 43.921,306.285 43.362,306.792 42.416 C 307.301 41.464,306.278 40.983,305.566 41.841 M320.400 43.262 C 320.400 43.960,320.499 44.016,321.000 43.600 C 321.330 43.326,321.600 43.053,321.600 42.994 C 321.600 42.934,321.330 42.782,321.000 42.655 C 320.585 42.496,320.400 42.682,320.400 43.262 M300.830 46.164 C 300.509 46.550,300.494 46.811,300.781 46.988 C 301.339 47.333,302.000 46.893,302.000 46.176 C 302.000 45.442,301.434 45.436,300.830 46.164 M326.145 50.200 C 326.301 50.608,326.123 50.800,325.587 50.800 C 324.801 50.800,324.562 50.371,325.067 49.867 C 325.499 49.435,325.898 49.558,326.145 50.200 M73.200 61.136 C 73.200 61.427,71.492 62.400,70.981 62.400 C 70.882 62.400,70.800 62.040,70.800 61.600 C 70.800 60.978,71.067 60.800,72.000 60.800 C 72.660 60.800,73.200 60.951,73.200 61.136 M331.996 68.204 C 331.585 68.700,331.645 68.800,332.351 68.800 C 332.818 68.800,333.200 68.631,333.200 68.424 C 333.200 67.731,332.496 67.602,331.996 68.204 M296.600 68.400 C 296.736 68.620,296.466 68.800,296.000 68.800 C 295.534 68.800,295.264 68.620,295.400 68.400 C 295.536 68.180,295.806 68.000,296.000 68.000 C 296.194 68.000,296.464 68.180,296.600 68.400 M73.800 70.800 C 73.664 71.020,73.934 71.200,74.400 71.200 C 74.866 71.200,75.136 71.020,75.000 70.800 C 74.864 70.580,74.594 70.400,74.400 70.400 C 74.206 70.400,73.936 70.580,73.800 70.800 M36.000 88.249 C 36.000 88.780,35.891 88.808,35.400 88.400 C 35.070 88.126,34.800 87.834,34.800 87.751 C 34.800 87.668,35.070 87.600,35.400 87.600 C 35.730 87.600,36.000 87.892,36.000 88.249 M334.600 94.800 C 334.274 95.328,334.752 96.077,335.228 95.783 C 335.713 95.483,335.710 94.400,335.224 94.400 C 335.017 94.400,334.736 94.580,334.600 94.800 M285.859 109.505 C 285.755 109.673,285.898 110.236,286.177 110.756 L 286.683 111.702 287.325 110.786 C 287.678 110.282,287.874 109.719,287.760 109.535 C 287.501 109.116,286.112 109.094,285.859 109.505 M81.283 113.149 C 80.766 113.468,81.022 114.800,81.600 114.800 C 82.074 114.800,82.472 113.512,82.110 113.150 C 81.936 112.976,81.564 112.975,81.283 113.149 M292.000 119.176 C 292.000 119.383,291.851 119.645,291.669 119.757 C 291.160 120.072,289.581 119.555,289.828 119.155 C 290.121 118.680,292.000 118.699,292.000 119.176 M36.400 130.776 C 36.400 131.203,36.204 131.674,35.965 131.822 C 35.354 132.200,34.646 131.379,34.934 130.627 C 35.277 129.733,36.400 129.848,36.400 130.776 M332.000 134.000 C 332.000 134.220,332.270 134.400,332.600 134.400 C 332.930 134.400,333.200 134.220,333.200 134.000 C 333.200 133.780,332.930 133.600,332.600 133.600 C 332.270 133.600,332.000 133.780,332.000 134.000 M36.102 134.900 C 36.351 135.641,35.964 136.825,35.555 136.572 C 35.086 136.282,35.096 134.400,35.567 134.400 C 35.768 134.400,36.009 134.625,36.102 134.900 M79.700 135.470 C 78.835 136.073,78.435 137.600,79.142 137.600 C 79.770 137.600,81.648 135.602,81.399 135.198 C 81.073 134.672,80.776 134.719,79.700 135.470 M77.200 145.911 C 77.200 146.082,77.725 146.682,78.366 147.245 L 79.532 148.268 79.729 147.236 C 79.838 146.669,79.842 146.069,79.740 145.902 C 79.493 145.503,77.200 145.511,77.200 145.911 M33.056 147.878 C 32.605 148.328,32.781 148.800,33.400 148.800 C 33.730 148.800,34.000 148.631,34.000 148.424 C 34.000 147.919,33.375 147.558,33.056 147.878 M80.000 165.633 C 80.000 166.608,80.935 166.470,81.129 165.467 C 81.206 165.072,81.002 164.800,80.629 164.800 C 80.258 164.800,80.000 165.142,80.000 165.633 M289.000 178.200 C 289.000 179.316,287.378 179.524,287.096 178.444 C 286.836 177.451,287.134 177.133,288.184 177.283 C 288.694 177.356,289.000 177.699,289.000 178.200 M33.004 185.593 C 32.709 186.071,33.083 186.800,33.624 186.800 C 34.110 186.800,34.113 185.717,33.628 185.417 C 33.423 185.291,33.142 185.370,33.004 185.593 M288.400 185.933 C 288.400 186.454,287.924 186.801,287.538 186.561 C 287.124 186.306,287.481 185.600,288.024 185.600 C 288.231 185.600,288.400 185.750,288.400 185.933 M332.663 204.270 C 332.116 204.818,332.431 205.600,333.200 205.600 C 333.640 205.600,334.000 205.442,334.000 205.249 C 334.000 204.724,332.966 203.967,332.663 204.270 M285.856 212.598 C 285.502 213.521,284.830 212.972,285.091 211.973 C 285.235 211.423,285.441 211.281,285.707 211.547 C 285.926 211.766,285.994 212.240,285.856 212.598 M280.204 213.593 C 279.909 214.071,280.283 214.800,280.824 214.800 C 281.310 214.800,281.313 213.717,280.828 213.417 C 280.623 213.291,280.342 213.370,280.204 213.593 M282.400 220.792 C 281.870 221.127,281.875 221.246,282.438 221.809 C 283.171 222.543,285.200 222.242,285.200 221.399 C 285.200 220.491,283.470 220.115,282.400 220.792 M330.000 233.387 C 330.000 233.744,330.235 233.885,330.598 233.746 C 330.926 233.619,331.096 233.355,330.974 233.158 C 330.625 232.593,330.000 232.740,330.000 233.387 M80.600 242.000 C 80.736 242.220,81.096 242.400,81.400 242.400 C 81.704 242.400,82.064 242.220,82.200 242.000 C 82.341 241.772,81.996 241.600,81.400 241.600 C 80.804 241.600,80.459 241.772,80.600 242.000 M280.281 243.241 C 280.598 243.558,280.932 243.561,281.461 243.254 C 282.109 242.877,282.054 242.823,281.020 242.812 C 280.159 242.803,279.960 242.920,280.281 243.241 M34.582 243.971 C 34.863 244.425,33.367 244.951,32.797 244.598 C 32.571 244.459,32.491 244.177,32.617 243.972 C 32.915 243.491,34.285 243.490,34.582 243.971 M329.455 255.000 C 329.299 255.408,329.477 255.600,330.013 255.600 C 330.446 255.600,330.800 255.330,330.800 255.000 C 330.800 254.670,330.549 254.400,330.243 254.400 C 329.936 254.400,329.582 254.670,329.455 255.000 M281.200 260.000 C 281.200 260.220,281.470 260.400,281.800 260.400 C 282.130 260.400,282.400 260.220,282.400 260.000 C 282.400 259.780,282.130 259.600,281.800 259.600 C 281.470 259.600,281.200 259.780,281.200 260.000 M36.100 267.065 C 35.825 267.176,35.600 267.527,35.600 267.846 C 35.600 268.164,35.330 268.529,35.000 268.655 C 34.163 268.977,34.248 270.000,35.111 270.000 C 36.014 270.000,37.200 268.635,37.200 267.595 C 37.200 266.791,37.008 266.699,36.100 267.065 M280.400 267.387 C 280.400 267.744,280.635 267.885,280.998 267.746 C 281.326 267.619,281.496 267.355,281.374 267.158 C 281.025 266.593,280.400 266.740,280.400 267.387 M324.978 269.714 C 324.602 270.694,325.219 271.466,325.697 270.613 C 325.952 270.156,325.938 269.778,325.655 269.495 C 325.350 269.190,325.154 269.254,324.978 269.714 M276.250 275.519 C 275.845 276.175,276.758 277.065,277.174 276.419 C 277.570 275.802,277.386 275.200,276.800 275.200 C 276.606 275.200,276.358 275.344,276.250 275.519 M279.600 284.386 C 279.600 285.804,278.361 286.717,277.630 285.836 C 277.003 285.081,277.884 283.200,278.864 283.200 C 279.413 283.200,279.600 283.501,279.600 284.386 M317.823 301.300 C 317.975 304.359,318.025 304.518,318.358 303.000 C 318.588 301.948,318.772 301.814,319.847 301.917 C 321.194 302.046,322.569 300.986,321.545 300.608 C 321.245 300.498,320.460 300.451,319.800 300.504 C 318.825 300.582,318.577 300.432,318.473 299.700 C 318.194 297.744,317.706 298.947,317.823 301.300 M272.904 301.581 C 272.597 302.073,272.561 302.453,272.808 302.605 C 273.398 302.970,274.000 302.451,274.000 301.576 C 274.000 300.582,273.527 300.584,272.904 301.581 M314.982 312.564 C 314.222 313.119,314.222 313.140,314.976 313.973 C 315.801 314.885,315.999 314.786,316.715 313.100 C 317.261 311.817,316.377 311.544,314.982 312.564 M268.280 314.136 C 268.167 314.431,268.235 314.926,268.431 315.236 C 268.691 315.647,268.789 315.501,268.794 314.700 C 268.801 313.506,268.604 313.290,268.280 314.136 M54.116 323.600 C 54.423 324.776,53.904 324.856,53.081 323.759 C 52.385 322.830,52.387 322.800,53.135 322.800 C 53.570 322.800,53.998 323.149,54.116 323.600 M99.600 335.400 C 99.600 335.730,99.761 336.000,99.957 336.000 C 100.154 336.000,100.418 335.730,100.545 335.400 C 100.685 335.035,100.545 334.800,100.187 334.800 C 99.864 334.800,99.600 335.070,99.600 335.400 M124.054 358.100 C 124.025 358.485,123.730 358.800,123.400 358.800 C 123.070 358.800,122.800 359.070,122.800 359.400 C 122.800 360.074,123.145 360.149,123.935 359.649 C 124.237 359.457,124.391 358.894,124.289 358.355 C 124.181 357.781,124.087 357.679,124.054 358.100 M304.350 365.617 C 303.993 365.993,303.453 366.399,303.150 366.520 C 302.687 366.704,302.689 366.801,303.164 367.133 C 303.967 367.693,304.767 367.271,305.051 366.137 C 305.362 364.899,305.169 364.756,304.350 365.617 M69.275 368.300 C 69.348 368.685,69.821 369.059,70.327 369.131 C 71.219 369.258,71.225 369.238,70.534 368.431 C 69.665 367.417,69.095 367.357,69.275 368.300 M76.789 373.585 C 77.293 373.904,77.279 373.995,76.689 374.221 C 75.817 374.556,74.669 374.136,74.998 373.603 C 75.307 373.103,76.016 373.096,76.789 373.585 M234.983 375.972 C 235.279 376.451,234.526 376.925,233.993 376.596 C 233.546 376.319,233.840 375.600,234.400 375.600 C 234.594 375.600,234.856 375.768,234.983 375.972 M173.600 378.256 C 173.600 378.963,174.694 379.967,175.487 379.987 C 176.108 380.003,175.704 378.774,174.868 378.100 C 174.024 377.420,173.600 377.472,173.600 378.256 M147.778 378.364 C 148.097 378.881,147.588 380.040,147.158 379.774 C 146.682 379.480,146.697 378.000,147.176 378.000 C 147.383 378.000,147.654 378.164,147.778 378.364 M207.480 379.053 C 207.096 379.437,207.126 381.507,207.519 381.750 C 208.110 382.115,208.739 381.398,208.870 380.209 C 208.997 379.057,208.167 378.366,207.480 379.053 M294.419 382.100 C 294.112 382.815,293.788 383.535,293.698 383.700 C 293.607 383.865,293.902 384.000,294.353 384.000 C 295.342 384.000,296.139 382.667,295.795 381.585 C 295.440 380.466,295.057 380.610,294.419 382.100 M172.224 382.038 C 172.757 382.902,171.493 383.620,170.602 382.960 C 169.918 382.453,169.889 382.315,170.402 381.990 C 171.201 381.485,171.893 381.504,172.224 382.038 M177.967 382.500 C 178.408 383.665,177.742 384.616,176.947 383.956 C 176.371 383.478,176.215 382.318,176.667 381.867 C 177.162 381.371,177.624 381.596,177.967 382.500 M85.200 391.767 C 85.200 392.115,85.485 392.400,85.833 392.400 C 86.540 392.400,86.417 391.539,85.675 391.292 C 85.414 391.205,85.200 391.418,85.200 391.767 M92.922 393.056 C 93.348 393.482,92.815 393.980,92.189 393.741 C 91.868 393.617,91.704 393.355,91.826 393.158 C 92.085 392.739,92.561 392.694,92.922 393.056 M248.129 417.840 C 247.877 418.498,248.711 419.302,249.281 418.950 C 249.456 418.842,249.600 418.403,249.600 417.976 C 249.600 417.040,248.476 416.937,248.129 417.840 M251.900 418.303 C 251.515 418.389,251.200 418.625,251.200 418.829 C 251.200 419.340,252.293 419.297,252.616 418.773 C 252.954 418.228,252.773 418.109,251.900 418.303 M232.728 419.300 C 232.658 419.795,232.420 420.200,232.200 420.200 C 231.980 420.200,231.742 419.795,231.672 419.300 C 231.584 418.681,231.749 418.400,232.200 418.400 C 232.651 418.400,232.816 418.681,232.728 419.300 M241.436 419.451 C 241.146 420.206,241.843 421.200,242.662 421.200 C 243.589 421.200,243.810 419.943,242.989 419.342 C 242.026 418.639,241.740 418.659,241.436 419.451 M167.600 427.224 C 167.600 427.677,167.780 427.936,168.000 427.800 C 168.220 427.664,168.400 427.293,168.400 426.976 C 168.400 426.659,168.220 426.400,168.000 426.400 C 167.780 426.400,167.600 426.771,167.600 427.224 M192.000 427.000 C 192.000 427.330,192.186 427.600,192.413 427.600 C 192.640 427.600,192.989 428.005,193.188 428.500 C 193.501 429.281,193.553 429.202,193.575 427.900 C 193.596 426.658,193.462 426.400,192.800 426.400 C 192.356 426.400,192.000 426.667,192.000 427.000 M188.400 428.400 C 188.400 428.620,188.771 428.800,189.224 428.800 C 189.677 428.800,189.936 428.620,189.800 428.400 C 189.664 428.180,189.293 428.000,188.976 428.000 C 188.659 428.000,188.400 428.180,188.400 428.400 " stroke="none" fill="#EC791A" fill-rule="evenodd"></path></g></svg>