<svg width="50" height="10" xmlns="http://www.w3.org/2000/svg">
 <g id="Layer_1">
  <title>Layer 1</title>
  <polyline fill="none" stroke="#EC791A" points="501,189.5 501,188.5 " id="svg_4" stroke-linecap="round"/>
  <polyline fill="none" stroke="#EC791A" points="193,90.5 194,90.5 " id="svg_5" stroke-linecap="round"/>
  <polyline fill="none" stroke="#EC791A" points="162,32.5 162,31.5 " id="svg_6" stroke-linecap="round"/>
  <path fill="none" stroke="#EC791A" stroke-width="2" id="svg_12" d="m8,36.5c1,0 2,0 3,0c2,0 4,0 6,0c3,0 5.90779,0.49623 10,1c0.99251,0.12218 3,0 5,0c2,0 3,1 4,1c2,0 3,0 4,0c1,0 2.15224,-0.76537 4,0c1.30656,0.54119 2,1 4,1c1,0 2.58578,-1.41422 4,0c0.70711,0.70711 1,1 3,1c1,0 2,1 3,1c2,0 3.69344,0.45881 5,1c1.84776,0.76537 4,0 6,0c1,0 2,0 5,0c4,0 7,0 10,0c2,0 5,0 7,0c4,0 7.9258,-0.49755 13,-1c4.97567,-0.49269 8.133,-0.5695 12,-2c2.09718,-0.77579 7,-1 10,-1c3,0 4,0 5,0c2,0 3,0 5,0c1,0 2,0 4,0c1,0 2,0 3,0c2,0 3,0 5,0c1,0 2,0 3,0c1,0 2,0 3,0c1,0 2,0 3,0c1,0 3,0 4,0c1,0 2,0 3,0c1,0 2,0 4,0c1,0 2,0 3,0c1,0 2.29289,-0.70711 3,0c0.70711,0.70711 2,1 3,1c1,0 2,0 3,0l1,0l1,0l1,0"/>
  <polyline fill="none" stroke="#EC791A" points="41,-65.5 40,-65.5 40,-66.5 " id="svg_13" stroke-linecap="round" stroke-width="2"/>
  <path stroke-width="2" d="m1.75028,4.43751c0.125,0 0.25187,-0.03055 0.49999,0c0.51152,0.06297 0.75483,0.06493 1.12499,0.125c0.39018,0.06332 0.73846,0.18703 1.24998,0.25c0.49625,0.06109 0.9116,0.03661 0.99999,0.125c0.26516,0.26516 0.52324,-0.03843 0.74999,0.125c0.14341,0.10336 0.125,0.25 0.25,0.25c0.125,0 0.26621,0.01434 0.375,-0.125c0.44855,-0.57449 0.39733,-0.84829 0.99999,-1.37498c0.54881,-0.47963 0.99999,-0.49999 1.24998,-0.49999c0.25,0 0.59513,0.05199 0.99999,0.25c0.71017,0.34733 0.88168,0.31756 1.12499,0.375c0.27203,0.06422 0.53207,0.30235 1.12499,0.49999c0.23717,0.07906 0.46167,0.05735 0.62499,0.125c0.23097,0.09567 0.87751,0.17911 1.87498,0.25c0.88165,0.06266 1.37779,0.07918 1.74998,0.125c0.51152,0.06297 0.87499,0.25 1.24998,0.25c0.49999,0 0.88479,0.22373 1.24999,0.375c0.25823,0.10696 0.49999,0.125 0.62499,0.125c0.125,0 0.25,0 0.37499,0c0.125,0 0.38168,0.05744 0.62499,0c0.27203,-0.06422 0.50951,-0.07716 0.62499,-0.125c0.16332,-0.06765 0.375,-0.125 0.49999,-0.125c0.25,0 0.375,0 0.49999,0c0.125,0 0.37499,0 0.62499,0c0.375,0 0.49999,0 0.62499,0c0.25,0 0.375,0 0.62499,0c0.375,0 0.49999,0 0.74999,0c0.125,0 0.375,0 0.49999,0c0.125,0 0.36347,0.06203 0.87499,0.125c0.37219,0.04582 0.62499,0 0.87499,0c0.25,0 0.62499,0 1.12499,0c0.37499,0 0.56864,-0.11939 0.99999,-0.25c0.23927,-0.07245 0.49999,0 0.74999,0c0.25,0 0.28661,-0.03661 0.37499,-0.125c0.08839,-0.08839 0.28661,-0.03661 0.375,-0.125c0.08839,-0.08839 0.25,0 0.375,0c0.25,0 0.49999,0 0.87499,0c0.25,0 0.5,0 0.74999,0c0.25,0 0.375,0 0.62499,0c0.25,0 0.50281,0.04582 0.87499,0c0.51152,-0.06297 0.87834,-0.09628 0.99999,-0.125c0.27203,-0.06422 0.74999,-0.125 1.24998,-0.125c0.62499,0 0.87499,0.125 1.24998,0.125c0.125,0 0.5,0 0.87499,0c0.125,0 0.375,0 0.62499,0c0.375,0 0.5,0 0.62499,0c0.25,0 0.375,0 0.625,0c0.125,0 0.25,0 0.37499,0c0.125,0 0.25,0 0.375,0c0.125,0 0.25,0 0.375,0c0.125,0 0.25,0 0.375,0c0.125,0 0.25,0 0.375,0c0.125,0 0.25,0 0.37499,0c0.125,0 0.25,0 0.375,0c0.125,0 0.25,0 0.375,0c0.125,0 0.25,0 0.375,0c0.125,0 0.25,0 0.375,0c0.125,0 0.25,0 0.37499,0c0.125,0 0.375,0 0.5,0c0.125,0 0.25,0 0.375,0c0.125,0 0.25,0 0.37499,0c0.125,0 0.13451,-0.07716 0.25,-0.125c0.16331,-0.06765 0.25,-0.125 0.37499,-0.125c0.125,0 0.125,-0.125 0.25,-0.125l0.125,0l0.125,0l0.125,0" id="svg_3" stroke="#EC791A" fill="none"/>
  <path stroke-width="2" d="m46.87473,4.06251c0.125,0 0.25,0 0.375,0c0.125,0 0.25,0 0.375,0c0.25,0 0.37499,0 0.49999,0c0.125,0 0.25951,0.04784 0.375,0c0.16331,-0.06765 0.25,-0.125 0.375,-0.125c0.125,0 0.25,0 0.375,0c0.125,0 0.25,0 0.37499,0c0.125,0 0.25,0 0.375,0c0.125,0 0.25,0 0.375,0l0.125,0l0.125,0" id="svg_7" stroke="#EC791A" fill="none"/>
  <path stroke-width="2" d="m2.12528,4.31251c-0.125,0 -0.25,0 -0.49999,0c-0.125,0 -0.49999,0 -0.87499,0.125c-0.375,0.125 -0.75322,0.33495 -0.99999,0.375c-0.39018,0.06332 -0.62499,0.25 -0.87499,0.25c-0.125,0 -0.25,0 -0.25,0.125l-0.125,0l-0.125,0l0,0.125" id="svg_8" stroke="#EC791A" fill="none"/>
 </g>

</svg>