<svg id="svg" version="1.1" xmlns="http://www.w3.org/2000/svg" xmlns:xlink="http://www.w3.org/1999/xlink" width="400" height="256.1576354679803" viewBox="0, 0, 400,256.1576354679803"><g id="svgg"><path id="path0" d="M143.046 18.405 C 143.489 18.460,144.154 18.459,144.524 18.403 C 144.894 18.346,144.532 18.302,143.719 18.303 C 142.906 18.304,142.604 18.350,143.046 18.405 M154.366 18.404 C 154.804 18.459,155.580 18.460,156.091 18.406 C 156.602 18.353,156.244 18.309,155.296 18.307 C 154.347 18.306,153.929 18.350,154.366 18.404 M139.843 18.647 C 140.149 18.706,140.593 18.704,140.828 18.642 C 141.063 18.580,140.813 18.532,140.271 18.535 C 139.729 18.538,139.536 18.588,139.843 18.647 M158.316 18.647 C 158.622 18.706,159.065 18.704,159.301 18.642 C 159.536 18.580,159.286 18.532,158.744 18.535 C 158.202 18.538,158.009 18.588,158.316 18.647 M137.746 18.889 C 137.983 18.951,138.371 18.951,138.608 18.889 C 138.845 18.827,138.651 18.776,138.177 18.776 C 137.703 18.776,137.509 18.827,137.746 18.889 M146.352 18.903 C 148.072 18.945,150.953 18.946,152.756 18.903 C 154.559 18.861,153.153 18.827,149.631 18.827 C 146.108 18.826,144.633 18.861,146.352 18.903 M161.271 18.893 C 161.578 18.952,162.021 18.950,162.257 18.888 C 162.492 18.827,162.241 18.779,161.700 18.781 C 161.158 18.784,160.965 18.834,161.271 18.893 M135.776 19.135 C 136.013 19.197,136.401 19.197,136.638 19.135 C 136.875 19.073,136.681 19.023,136.207 19.023 C 135.733 19.023,135.539 19.073,135.776 19.135 M140.825 19.139 C 141.130 19.198,141.629 19.198,141.933 19.139 C 142.238 19.081,141.989 19.033,141.379 19.033 C 140.770 19.033,140.520 19.081,140.825 19.139 M157.330 19.140 C 157.637 19.199,158.080 19.196,158.316 19.135 C 158.551 19.073,158.300 19.025,157.759 19.028 C 157.217 19.030,157.024 19.081,157.330 19.140 M163.734 19.140 C 164.041 19.199,164.484 19.196,164.720 19.135 C 164.955 19.073,164.704 19.025,164.163 19.028 C 163.621 19.030,163.428 19.081,163.734 19.140 M133.805 19.382 C 134.042 19.444,134.430 19.444,134.667 19.382 C 134.905 19.320,134.711 19.269,134.236 19.269 C 133.762 19.269,133.568 19.320,133.805 19.382 M160.163 19.389 C 160.538 19.445,161.092 19.444,161.395 19.385 C 161.698 19.327,161.392 19.280,160.714 19.282 C 160.037 19.284,159.789 19.332,160.163 19.389 M177.273 19.390 C 177.710 19.444,178.486 19.445,178.997 19.392 C 179.508 19.338,179.150 19.294,178.202 19.293 C 177.254 19.292,176.836 19.335,177.273 19.390 M131.466 19.632 C 131.770 19.691,132.269 19.691,132.574 19.632 C 132.879 19.573,132.629 19.525,132.020 19.525 C 131.410 19.525,131.161 19.573,131.466 19.632 M136.515 19.628 C 136.752 19.690,137.140 19.690,137.377 19.628 C 137.614 19.566,137.420 19.515,136.946 19.515 C 136.472 19.515,136.278 19.566,136.515 19.628 M168.057 19.889 C 169.927 19.931,172.920 19.930,174.707 19.888 C 176.494 19.846,174.963 19.812,171.305 19.812 C 167.648 19.812,166.186 19.847,168.057 19.889 M132.454 20.125 C 132.760 20.184,133.203 20.182,133.439 20.120 C 133.674 20.058,133.424 20.010,132.882 20.013 C 132.340 20.016,132.147 20.066,132.454 20.125 M180.237 20.125 C 180.543 20.184,180.987 20.182,181.222 20.120 C 181.458 20.058,181.207 20.010,180.665 20.013 C 180.123 20.016,179.930 20.066,180.237 20.125 M367.107 23.953 L 366.133 25.000 367.129 24.076 C 368.183 23.099,368.651 22.960,369.212 23.461 C 369.506 23.723,369.509 23.704,369.231 23.337 C 368.719 22.660,368.158 22.823,367.107 23.953 M114.840 23.815 C 115.077 23.877,115.465 23.877,115.702 23.815 C 115.939 23.753,115.745 23.702,115.271 23.702 C 114.797 23.702,114.603 23.753,114.840 23.815 M367.107 24.692 L 366.133 25.739 367.180 24.765 C 367.756 24.230,368.227 23.759,368.227 23.718 C 368.227 23.532,368.012 23.719,367.107 24.692 M368.719 23.722 C 368.719 23.765,369.079 24.125,369.520 24.523 L 370.320 25.246 369.597 24.446 C 368.922 23.700,368.719 23.532,368.719 23.722 M362.746 27.603 C 362.238 27.871,361.823 28.146,361.823 28.213 C 361.823 28.280,362.266 28.109,362.808 27.833 C 363.350 27.556,363.793 27.277,363.793 27.212 C 363.793 27.051,363.791 27.051,362.746 27.603 M360.345 28.202 C 359.464 28.663,358.830 29.046,358.936 29.052 C 359.197 29.068,362.069 27.609,362.069 27.460 C 362.069 27.294,362.127 27.269,360.345 28.202 M223.094 29.238 C 223.400 29.297,223.844 29.295,224.079 29.233 C 224.315 29.172,224.064 29.123,223.522 29.126 C 222.980 29.129,222.788 29.179,223.094 29.238 M117.365 29.552 C 116.552 29.644,115.388 29.845,114.778 29.998 C 114.169 30.151,111.841 30.383,109.606 30.513 C 104.675 30.802,104.213 30.934,93.966 34.996 C 81.999 39.740,74.125 44.383,65.669 51.680 C 63.892 53.214,61.164 55.501,59.606 56.762 C 52.143 62.806,48.181 70.111,45.575 82.633 C 45.180 84.531,44.417 88.079,43.880 90.517 C 42.138 98.423,41.749 102.218,41.013 118.473 C 40.548 128.735,40.228 134.155,39.771 139.532 C 39.358 144.386,39.306 152.331,39.676 153.941 C 40.299 156.655,47.235 168.950,50.930 173.892 C 56.565 181.427,66.356 193.178,70.938 197.906 C 72.645 199.667,74.479 201.566,75.014 202.125 C 78.269 205.533,86.700 212.642,92.551 216.913 C 97.315 220.390,101.692 222.166,105.508 222.170 C 110.539 222.174,123.952 224.372,137.808 227.461 C 145.275 229.125,162.469 231.680,168.719 232.054 C 181.254 232.803,188.627 231.746,200.000 227.570 C 206.381 225.227,212.331 223.405,220.567 221.272 C 241.293 215.904,251.937 211.284,257.943 205.050 C 267.450 195.182,268.955 193.249,275.009 183.128 C 280.421 174.081,283.375 167.905,285.556 161.077 C 288.562 151.669,292.497 145.454,298.645 140.406 C 302.892 136.919,304.747 134.987,305.192 133.587 C 306.293 130.123,313.478 117.488,314.346 117.488 C 315.085 117.488,320.216 121.515,322.425 123.828 C 326.950 128.567,331.031 135.996,334.943 146.610 C 337.720 154.145,340.993 168.612,341.867 177.217 C 342.018 178.707,342.365 181.403,342.637 183.208 C 342.910 185.013,343.092 186.611,343.042 186.760 C 342.993 186.909,341.649 185.598,340.057 183.848 C 336.110 179.509,332.614 174.005,327.946 164.778 C 325.992 160.917,323.615 156.373,322.663 154.680 C 317.341 145.216,313.657 132.463,313.237 122.044 C 313.131 119.423,312.684 120.639,312.694 123.522 C 312.724 132.541,316.812 146.354,322.169 155.542 C 322.880 156.761,325.125 161.028,327.158 165.025 C 330.549 171.693,331.890 174.019,335.629 179.719 C 336.354 180.824,338.183 183.041,339.693 184.645 C 342.791 187.935,343.058 188.415,343.489 191.468 C 343.897 194.351,345.074 195.373,344.762 192.572 C 344.588 191.014,343.916 186.091,343.355 182.266 C 343.086 180.437,342.748 177.777,342.604 176.355 C 341.768 168.135,338.398 153.544,335.581 145.942 C 330.434 132.054,325.186 123.943,318.131 118.971 C 314.965 116.739,314.962 117.087,318.165 115.034 C 323.151 111.838,325.638 109.527,331.824 102.340 C 333.107 100.850,334.675 99.206,335.309 98.687 C 339.032 95.640,344.830 87.157,347.559 80.764 C 352.063 70.217,352.550 68.171,352.567 59.729 C 352.589 48.901,351.335 45.535,348.456 48.694 C 347.616 49.615,345.698 51.644,344.194 53.202 C 335.620 62.085,325.942 76.412,323.132 84.382 C 322.706 85.589,322.109 87.075,321.804 87.685 C 321.500 88.294,320.957 89.683,320.598 90.772 C 320.240 91.860,319.520 93.479,318.999 94.370 C 317.241 97.380,316.816 101.160,318.121 102.187 C 318.570 102.540,318.731 102.871,318.675 103.326 C 318.602 103.916,318.469 103.814,316.995 102.045 C 316.115 100.988,313.067 97.739,310.222 94.826 C 307.377 91.912,303.220 87.599,300.985 85.241 C 296.170 80.160,287.445 72.228,282.266 68.222 C 280.979 67.226,278.873 65.511,277.586 64.410 C 266.341 54.792,264.022 53.072,259.643 51.101 C 256.228 49.564,245.422 45.985,242.980 45.583 C 241.986 45.419,239.483 44.587,237.069 43.617 C 234.766 42.693,232.106 41.684,231.158 41.377 C 230.209 41.069,227.716 40.185,225.616 39.411 C 210.345 33.788,200.086 32.021,182.669 32.018 C 173.799 32.016,173.433 31.997,170.567 31.386 C 165.355 30.277,162.758 29.851,159.531 29.578 C 156.089 29.286,119.915 29.264,117.365 29.552 M222.601 29.731 C 222.908 29.790,223.351 29.788,223.587 29.726 C 223.822 29.664,223.571 29.616,223.030 29.619 C 222.488 29.621,222.295 29.672,222.601 29.731 M164.655 30.984 C 166.145 31.274,168.584 31.791,170.074 32.133 C 172.702 32.736,173.050 32.754,181.710 32.756 C 193.912 32.759,202.348 33.610,210.961 35.706 C 216.229 36.988,230.523 41.799,237.315 44.576 C 239.634 45.524,241.777 46.221,243.071 46.449 C 246.361 47.027,256.554 50.516,260.222 52.319 C 264.434 54.391,264.765 54.641,277.586 65.486 C 279.144 66.804,281.250 68.504,282.266 69.265 C 286.139 72.166,295.177 80.443,300.290 85.772 C 303.178 88.783,307.492 93.244,309.875 95.685 C 312.258 98.126,315.058 101.121,316.096 102.340 C 317.135 103.559,318.150 104.751,318.352 104.988 C 319.501 106.336,318.581 108.997,316.687 109.800 C 316.016 110.086,316.010 110.108,316.010 112.444 C 316.010 115.210,315.546 116.010,313.942 116.010 C 312.973 116.010,312.624 116.353,313.058 116.877 C 313.293 117.160,313.201 117.420,312.595 118.185 C 310.884 120.344,304.187 132.830,304.187 133.860 C 304.187 134.266,300.778 137.573,297.906 139.952 C 293.305 143.765,291.032 146.779,287.556 153.675 C 286.415 155.938,283.498 163.961,283.498 164.834 C 283.498 165.715,277.541 177.355,274.575 182.272 C 268.960 191.579,267.162 194.063,262.440 199.039 C 260.949 200.610,258.974 202.743,258.051 203.778 C 252.401 210.116,240.446 215.443,220.936 220.316 C 214.789 221.851,206.421 224.368,201.478 226.168 C 199.243 226.982,196.401 228.016,195.164 228.465 C 193.926 228.915,190.933 229.705,188.513 230.220 L 184.113 231.158 174.631 231.141 L 165.148 231.125 154.803 229.599 C 148.416 228.656,142.291 227.593,138.793 226.820 C 125.082 223.790,112.887 221.728,107.020 221.449 C 99.827 221.107,97.088 219.720,86.084 210.852 C 75.381 202.227,64.236 190.130,51.575 173.399 C 49.220 170.287,42.347 158.593,41.152 155.665 C 40.009 152.865,39.863 148.422,40.616 139.363 C 40.894 136.018,41.291 129.701,41.499 125.323 C 42.736 99.307,42.774 98.983,46.813 80.870 C 49.269 69.856,53.042 63.173,59.975 57.554 C 61.330 56.456,63.713 54.443,65.271 53.080 C 73.603 45.794,82.081 40.603,92.365 36.488 C 104.017 31.827,105.109 31.510,110.087 31.344 C 113.148 31.242,114.444 31.098,115.383 30.755 C 117.428 30.008,160.670 30.209,164.655 30.984 M115.258 39.251 C 113.805 40.392,112.451 41.888,110.157 44.889 C 109.380 45.906,107.170 48.701,105.246 51.101 C 102.287 54.792,101.722 55.632,101.586 56.543 C 101.393 57.829,101.611 68.317,101.850 69.245 L 102.017 69.893 95.405 70.007 C 91.768 70.070,88.594 70.207,88.352 70.313 C 87.601 70.638,88.041 71.063,89.062 70.999 C 89.592 70.966,92.332 70.870,95.153 70.786 L 100.281 70.633 99.340 71.883 C 97.699 74.064,96.075 76.939,94.430 80.580 C 92.581 84.672,91.009 87.895,89.782 90.107 C 88.984 91.545,88.916 91.830,88.916 93.740 C 88.916 96.684,89.132 96.588,93.237 91.815 C 95.128 89.616,97.346 87.082,98.166 86.183 C 101.041 83.033,102.460 79.929,103.687 74.105 L 104.239 71.486 109.570 71.595 C 113.405 71.673,115.558 71.833,117.241 72.164 C 119.666 72.642,122.049 73.018,124.384 73.291 C 125.129 73.379,126.666 73.716,127.798 74.040 C 131.735 75.168,133.770 74.324,141.433 68.382 C 142.343 67.677,144.505 66.283,146.236 65.284 C 147.968 64.286,150.970 62.528,152.908 61.377 C 155.097 60.078,157.031 59.120,158.011 58.848 C 158.879 58.607,161.339 57.581,163.477 56.568 C 173.436 51.851,182.066 48.612,186.363 47.981 C 193.664 46.908,219.227 47.736,225.739 49.256 C 236.506 51.770,249.857 59.729,263.793 71.943 C 270.071 77.446,271.235 79.335,273.295 87.371 C 274.927 93.742,275.000 94.825,275.000 112.808 C 275.000 137.361,274.694 139.237,269.209 148.276 C 264.352 156.282,259.858 161.655,249.024 172.414 C 242.082 179.307,240.357 181.298,238.968 184.022 C 238.126 185.674,237.910 185.909,236.571 186.629 C 229.762 190.289,204.470 195.078,188.054 195.815 C 174.343 196.431,173.913 196.466,171.552 197.165 C 167.844 198.262,164.671 197.344,154.064 192.106 C 144.161 187.214,136.387 178.908,128.421 164.706 C 127.797 163.594,125.922 160.634,124.254 158.128 C 119.754 151.365,118.719 149.575,118.719 148.557 C 118.719 148.077,118.118 146.196,117.374 144.349 C 114.580 137.413,113.793 131.640,113.793 118.080 C 113.793 102.343,114.746 94.911,118.399 82.143 C 120.127 76.105,120.197 75.820,120.197 74.823 C 120.197 73.356,119.558 73.616,119.352 75.167 C 119.259 75.868,118.582 78.525,117.846 81.072 C 113.752 95.252,112.942 101.862,113.125 119.588 C 113.275 134.065,113.774 137.786,116.430 144.212 C 117.046 145.702,117.698 147.678,117.879 148.602 C 118.261 150.550,118.153 150.358,123.035 157.759 C 125.091 160.874,127.519 164.754,128.432 166.379 C 135.473 178.915,144.604 188.565,153.398 192.764 C 164.855 198.234,168.067 199.179,171.452 198.072 C 173.794 197.306,175.693 197.085,181.281 196.929 C 199.632 196.416,217.540 193.703,232.020 189.242 C 237.168 187.656,238.452 186.881,239.524 184.711 C 240.869 181.989,242.245 180.396,250.143 172.414 C 263.483 158.931,267.854 153.319,272.974 143.103 C 275.388 138.286,275.856 133.311,275.860 112.420 C 275.863 94.635,275.518 91.030,273.130 83.869 C 271.111 77.817,270.136 76.382,264.974 71.861 C 249.788 58.564,235.472 50.171,224.548 48.160 C 215.281 46.454,189.285 46.206,183.205 47.765 C 180.297 48.511,169.742 52.705,164.340 55.262 C 161.592 56.562,158.666 57.802,157.838 58.016 C 156.844 58.274,154.879 59.261,152.064 60.915 C 149.717 62.295,146.603 64.117,145.142 64.965 C 143.682 65.813,141.933 66.947,141.256 67.484 C 133.667 73.508,131.727 74.274,127.218 73.026 C 126.000 72.690,124.651 72.414,124.220 72.414 C 123.230 72.414,117.481 71.456,117.133 71.232 C 116.989 71.141,114.636 71.009,111.904 70.939 C 109.172 70.870,106.878 70.754,106.805 70.681 C 106.733 70.609,107.158 69.279,107.750 67.725 C 108.406 66.001,108.939 64.086,109.117 62.808 C 109.766 58.147,110.169 56.481,111.374 53.480 C 112.060 51.769,112.727 49.982,112.855 49.507 C 112.983 49.033,114.026 46.702,115.172 44.327 C 118.174 38.104,118.194 36.947,115.258 39.251 M251.232 39.273 C 251.232 39.341,251.564 39.568,251.970 39.778 C 252.377 39.988,252.709 40.105,252.709 40.037 C 252.709 39.970,252.377 39.742,251.970 39.532 C 251.564 39.322,251.232 39.205,251.232 39.273 M114.570 43.629 C 113.494 45.846,112.423 48.252,112.191 48.976 C 111.958 49.700,111.229 51.624,110.571 53.252 C 109.419 56.100,108.962 57.954,108.366 62.192 C 107.892 65.570,105.918 70.840,105.228 70.575 C 105.040 70.502,104.729 70.443,104.537 70.443 C 104.328 70.443,104.187 70.195,104.187 69.828 C 104.187 69.051,103.515 68.998,103.398 69.766 L 103.314 70.320 102.950 69.704 C 102.659 69.212,102.571 67.767,102.510 62.491 L 102.434 55.894 106.328 51.058 C 108.469 48.398,110.902 45.326,111.733 44.232 C 113.265 42.215,116.178 39.248,116.404 39.474 C 116.472 39.542,115.647 41.412,114.570 43.629 M376.716 54.187 C 376.716 61.299,376.747 64.209,376.786 60.653 C 376.824 57.097,376.824 51.278,376.786 47.722 C 376.747 44.166,376.716 47.075,376.716 54.187 M63.485 42.505 C 62.564 43.005,62.620 43.213,63.547 42.734 C 63.953 42.524,64.286 42.299,64.286 42.235 C 64.286 42.077,64.259 42.085,63.485 42.505 M376.222 53.818 C 376.222 60.185,376.254 62.825,376.293 59.684 C 376.332 56.544,376.332 51.335,376.293 48.108 C 376.254 44.881,376.222 47.451,376.222 53.818 M61.684 43.904 L 60.961 44.704 61.761 43.981 C 62.507 43.307,62.675 43.103,62.485 43.103 C 62.442 43.103,62.082 43.464,61.684 43.904 M333.359 45.135 L 332.635 45.936 333.436 45.213 C 334.182 44.538,334.350 44.335,334.159 44.335 C 334.117 44.335,333.757 44.695,333.359 45.135 M57.996 46.367 L 56.773 47.660 58.067 46.438 C 59.268 45.302,59.473 45.074,59.289 45.074 C 59.250 45.074,58.668 45.656,57.996 46.367 M333.116 46.121 L 332.143 47.167 333.190 46.194 C 333.765 45.658,334.236 45.187,334.236 45.147 C 334.236 44.961,334.022 45.147,333.116 46.121 M350.840 49.829 C 352.431 55.941,352.083 66.221,350.085 72.141 C 346.253 83.497,341.250 91.855,334.219 98.645 C 333.238 99.594,331.194 101.810,329.678 103.571 C 325.250 108.715,318.325 114.778,316.879 114.778 C 316.807 114.778,316.749 113.836,316.749 112.685 C 316.749 111.533,316.850 110.591,316.973 110.591 C 317.096 110.591,317.761 110.145,318.451 109.600 L 319.704 108.609 319.704 105.522 L 319.704 102.435 318.937 101.735 C 317.643 100.552,317.916 98.202,319.775 94.541 C 320.554 93.005,321.565 90.751,322.021 89.532 C 325.452 80.359,326.450 78.267,329.864 73.089 C 334.962 65.357,340.046 58.781,345.048 53.448 C 346.636 51.755,348.418 49.839,349.008 49.190 C 350.233 47.843,350.331 47.877,350.840 49.829 M55.172 49.384 C 54.574 49.994,54.140 50.493,54.208 50.493 C 54.276 50.493,54.820 49.994,55.419 49.384 C 56.017 48.775,56.451 48.276,56.383 48.276 C 56.316 48.276,55.771 48.775,55.172 49.384 M328.317 50.677 L 326.970 52.094 328.387 50.747 C 329.166 50.007,329.803 49.370,329.803 49.331 C 329.803 49.148,329.567 49.362,328.317 50.677 M328.571 51.108 C 327.562 52.124,326.792 52.956,326.860 52.956 C 326.927 52.956,327.809 52.124,328.818 51.108 C 329.827 50.092,330.597 49.261,330.530 49.261 C 330.462 49.261,329.581 50.092,328.571 51.108 M325.723 53.017 L 325.000 53.818 325.800 53.094 C 326.547 52.420,326.714 52.217,326.524 52.217 C 326.482 52.217,326.121 52.577,325.723 53.017 M48.641 55.973 L 45.936 58.744 48.707 56.039 C 50.231 54.551,51.478 53.304,51.478 53.268 C 51.478 53.090,51.154 53.399,48.641 55.973 M324.864 54.865 L 324.015 55.788 324.938 54.939 C 325.798 54.149,325.975 53.941,325.787 53.941 C 325.746 53.941,325.330 54.357,324.864 54.865 M323.878 55.111 L 323.030 56.034 323.953 55.186 C 324.813 54.396,324.990 54.187,324.802 54.187 C 324.761 54.187,324.345 54.603,323.878 55.111 M322.768 57.204 L 322.044 58.005 322.845 57.282 C 323.591 56.607,323.759 56.404,323.568 56.404 C 323.526 56.404,323.166 56.764,322.768 57.204 M317.599 62.869 L 316.626 63.916 317.672 62.943 C 318.248 62.407,318.719 61.936,318.719 61.896 C 318.719 61.709,318.505 61.896,317.599 62.869 M209.503 62.283 C 208.904 63.252,213.853 68.301,218.473 71.434 C 219.624 72.215,221.110 73.426,221.774 74.125 C 223.217 75.647,224.508 76.355,225.838 76.355 C 228.415 76.355,224.633 77.434,219.236 78.238 C 218.640 78.327,217.937 78.614,217.675 78.877 C 217.059 79.493,216.802 79.422,212.496 77.436 C 203.818 73.434,202.173 72.972,195.443 72.648 C 192.734 72.518,189.963 72.308,189.286 72.181 C 184.449 71.276,179.100 72.011,176.436 73.946 C 175.782 74.422,174.840 74.942,174.343 75.102 C 173.846 75.263,172.738 75.923,171.880 76.569 C 171.022 77.216,169.449 78.330,168.384 79.046 C 163.378 82.411,161.178 84.739,155.632 92.538 C 140.199 114.241,138.413 119.973,138.410 147.790 L 138.409 157.525 139.299 161.067 C 141.503 169.836,145.183 176.913,149.590 180.854 C 159.801 189.986,161.979 190.951,173.153 191.292 L 177.709 191.431 179.064 190.658 C 184.137 187.764,189.659 185.656,194.704 184.687 C 228.338 178.228,236.221 175.005,241.356 165.615 L 242.688 163.180 242.806 154.183 C 242.942 143.830,242.979 144.173,240.668 134.231 C 238.061 123.016,236.806 119.745,232.070 111.823 C 228.748 106.265,227.139 103.135,226.502 100.988 C 226.314 100.355,225.824 99.237,225.413 98.502 C 221.686 91.843,217.654 80.296,219.057 80.296 C 219.278 80.296,219.458 80.129,219.458 79.926 C 219.458 79.723,219.292 79.557,219.089 79.557 C 218.217 79.557,218.820 79.106,219.889 78.958 C 220.533 78.868,222.666 78.477,224.631 78.088 C 226.595 77.700,229.532 77.311,231.158 77.225 L 234.113 77.068 235.812 78.800 C 237.536 80.557,240.042 82.031,243.227 83.163 C 246.896 84.467,259.567 83.504,259.052 81.960 C 258.941 81.626,250.520 78.441,247.209 77.482 C 244.358 76.656,241.911 76.355,238.048 76.355 L 234.752 76.355 233.952 75.359 C 231.712 72.571,219.626 63.263,217.320 62.549 C 216.020 62.147,209.720 61.932,209.503 62.283 M216.266 63.196 C 217.666 63.515,218.430 63.904,220.502 65.357 C 225.554 68.898,233.498 75.502,233.498 76.161 C 233.498 76.499,230.884 76.370,229.964 75.985 C 229.441 75.767,228.298 75.614,227.163 75.610 C 224.728 75.603,223.600 75.109,222.198 73.436 C 221.615 72.740,220.234 71.577,219.128 70.852 C 215.654 68.575,210.591 63.916,210.591 62.997 C 210.591 62.659,214.511 62.797,216.266 63.196 M310.041 64.464 C 310.484 64.519,311.149 64.518,311.519 64.462 C 311.889 64.406,311.527 64.361,310.714 64.362 C 309.901 64.363,309.599 64.409,310.041 64.464 M40.259 67.511 C 40.042 67.930,39.909 68.316,39.962 68.370 C 40.016 68.423,40.244 68.080,40.469 67.608 C 40.976 66.546,40.800 66.464,40.259 67.511 M375.919 67.488 C 375.919 67.962,375.970 68.156,376.032 67.919 C 376.094 67.682,376.094 67.294,376.032 67.057 C 375.970 66.820,375.919 67.014,375.919 67.488 M376.412 68.227 C 376.412 68.701,376.463 68.895,376.524 68.658 C 376.586 68.421,376.586 68.033,376.524 67.796 C 376.463 67.558,376.412 67.752,376.412 68.227 M375.700 70.567 C 375.701 71.650,375.744 72.063,375.796 71.484 C 375.848 70.904,375.848 70.018,375.795 69.513 C 375.742 69.009,375.699 69.483,375.700 70.567 M376.193 72.537 C 376.194 73.621,376.237 74.033,376.289 73.454 C 376.341 72.875,376.340 71.988,376.287 71.484 C 376.234 70.979,376.192 71.453,376.193 72.537 M103.448 71.288 C 103.448 71.346,103.123 72.815,102.726 74.552 C 101.368 80.490,100.482 82.329,97.190 86.041 C 96.207 87.148,94.215 89.440,92.761 91.133 C 89.599 94.817,89.559 94.841,89.697 92.938 C 89.786 91.714,90.007 91.143,91.072 89.397 C 91.769 88.252,92.950 85.911,93.695 84.195 C 96.399 77.964,99.306 72.749,100.674 71.673 C 101.219 71.244,103.448 70.935,103.448 71.288 M189.532 73.043 C 190.887 73.252,194.046 73.520,196.552 73.639 C 202.456 73.919,204.055 74.389,212.429 78.309 C 213.913 79.004,215.714 79.743,216.431 79.952 C 217.823 80.356,217.809 80.335,218.095 82.512 C 218.409 84.905,220.290 89.707,223.885 97.291 C 224.816 99.255,225.827 101.527,226.131 102.340 C 226.987 104.629,228.344 107.238,230.690 111.108 C 234.314 117.086,234.950 118.261,235.943 120.813 C 237.401 124.555,238.277 127.602,239.875 134.483 C 242.232 144.631,242.203 144.363,242.020 154.266 L 241.862 162.842 241.095 164.364 C 238.049 170.408,233.730 173.637,224.122 177.052 C 218.845 178.928,215.933 179.637,203.202 182.141 C 188.532 185.027,185.901 185.842,179.478 189.484 L 177.306 190.715 173.545 190.553 C 162.882 190.093,160.973 189.390,153.571 183.192 C 145.802 176.686,142.817 171.676,139.998 160.413 L 139.090 156.782 139.242 145.448 C 139.545 123.001,140.531 118.150,146.965 107.460 C 156.834 91.060,162.365 84.029,168.719 79.801 C 169.600 79.215,171.217 78.089,172.313 77.299 C 173.409 76.509,174.529 75.862,174.803 75.862 C 175.077 75.862,175.733 75.518,176.259 75.098 C 177.264 74.297,179.249 73.211,180.296 72.891 C 181.382 72.558,186.990 72.651,189.532 73.043 M375.427 75.123 C 375.427 75.597,375.477 75.791,375.539 75.554 C 375.601 75.317,375.601 74.929,375.539 74.692 C 375.477 74.455,375.427 74.649,375.427 75.123 M375.924 76.232 C 375.927 76.773,375.977 76.966,376.036 76.660 C 376.095 76.353,376.093 75.910,376.031 75.674 C 375.970 75.439,375.921 75.690,375.924 76.232 M375.197 78.079 C 375.197 78.824,375.243 79.129,375.300 78.756 C 375.356 78.384,375.356 77.774,375.300 77.401 C 375.243 77.029,375.197 77.334,375.197 78.079 M241.927 77.339 C 245.437 77.681,250.979 79.337,256.773 81.778 L 257.512 82.089 256.404 82.468 C 255.548 82.762,254.091 82.852,250.000 82.865 L 244.704 82.882 242.365 81.936 C 239.065 80.602,236.781 79.115,235.851 77.695 L 235.457 77.094 237.494 77.100 C 238.615 77.103,240.610 77.211,241.927 77.339 M375.692 79.680 C 375.693 80.493,375.739 80.795,375.794 80.353 C 375.849 79.910,375.848 79.245,375.792 78.875 C 375.736 78.505,375.691 78.867,375.692 79.680 M374.944 81.773 C 374.944 82.383,374.992 82.632,375.051 82.328 C 375.109 82.023,375.109 81.524,375.051 81.219 C 374.992 80.914,374.944 81.164,374.944 81.773 M375.437 83.005 C 375.437 83.615,375.485 83.864,375.543 83.559 C 375.602 83.254,375.602 82.756,375.543 82.451 C 375.485 82.146,375.437 82.395,375.437 83.005 M34.786 83.005 C 34.786 83.479,34.837 83.673,34.899 83.436 C 34.961 83.199,34.961 82.811,34.899 82.574 C 34.837 82.337,34.786 82.531,34.786 83.005 M34.047 84.236 C 34.047 84.711,34.098 84.905,34.160 84.667 C 34.222 84.430,34.222 84.042,34.160 83.805 C 34.098 83.568,34.047 83.762,34.047 84.236 M374.704 84.975 C 374.704 85.720,374.751 86.025,374.807 85.653 C 374.863 85.280,374.863 84.671,374.807 84.298 C 374.751 83.925,374.704 84.230,374.704 84.975 M375.199 86.576 C 375.201 87.389,375.247 87.692,375.302 87.249 C 375.356 86.807,375.355 86.142,375.299 85.771 C 375.243 85.401,375.198 85.764,375.199 86.576 M374.455 88.793 C 374.457 89.470,374.504 89.718,374.561 89.344 C 374.618 88.970,374.616 88.415,374.558 88.112 C 374.499 87.809,374.453 88.116,374.455 88.793 M30.217 96.933 C 29.638 98.146,29.719 98.352,30.324 97.206 C 30.599 96.685,30.780 96.215,30.727 96.162 C 30.674 96.109,30.444 96.456,30.217 96.933 M69.874 100.308 C 69.107 101.067,69.104 101.077,69.816 100.495 C 70.229 100.157,70.672 99.797,70.800 99.694 C 70.929 99.591,70.955 99.507,70.858 99.507 C 70.762 99.507,70.319 99.868,69.874 100.308 M69.126 101.706 C 68.360 102.509,67.734 103.248,67.734 103.348 C 67.734 103.448,67.767 103.484,67.808 103.428 C 67.849 103.371,68.531 102.632,69.323 101.786 C 70.116 100.939,70.709 100.246,70.641 100.246 C 70.574 100.246,69.892 100.903,69.126 101.706 M70.841 102.187 C 70.467 102.578,69.725 103.094,69.191 103.334 C 68.658 103.575,68.267 103.817,68.323 103.873 C 68.524 104.074,70.334 102.986,71.044 102.239 C 71.442 101.820,71.712 101.478,71.644 101.478 C 71.576 101.478,71.215 101.797,70.841 102.187 M70.721 103.041 C 70.570 103.223,70.001 103.573,69.457 103.818 C 68.913 104.064,68.514 104.310,68.570 104.366 C 68.726 104.523,70.559 103.534,70.921 103.097 C 71.098 102.884,71.187 102.709,71.119 102.709 C 71.052 102.709,70.873 102.858,70.721 103.041 M59.547 104.115 C 59.854 104.174,60.297 104.172,60.532 104.110 C 60.768 104.048,60.517 104.000,59.975 104.003 C 59.433 104.006,59.241 104.056,59.547 104.115 M61.273 104.858 C 61.716 104.913,62.381 104.912,62.751 104.856 C 63.121 104.800,62.759 104.755,61.946 104.756 C 61.133 104.758,60.830 104.803,61.273 104.858 M64.039 105.419 C 63.242 105.587,63.275 105.603,64.485 105.633 C 65.301 105.653,65.735 105.573,65.640 105.419 C 65.474 105.149,65.320 105.149,64.039 105.419 M60.899 105.589 C 61.136 105.650,61.524 105.650,61.761 105.589 C 61.998 105.527,61.804 105.476,61.330 105.476 C 60.856 105.476,60.662 105.527,60.899 105.589 M62.131 106.334 C 62.503 106.390,63.113 106.390,63.485 106.334 C 63.858 106.278,63.553 106.231,62.808 106.231 C 62.063 106.231,61.758 106.278,62.131 106.334 M69.397 106.331 C 69.701 106.390,70.200 106.390,70.505 106.331 C 70.810 106.273,70.560 106.225,69.951 106.225 C 69.341 106.225,69.092 106.273,69.397 106.331 M368.227 107.635 C 367.950 108.177,367.779 108.621,367.847 108.621 C 367.915 108.621,368.196 108.177,368.473 107.635 C 368.749 107.094,368.920 106.650,368.852 106.650 C 368.785 106.650,368.503 107.094,368.227 107.635 M65.764 108.744 C 64.754 109.760,63.984 110.591,64.052 110.591 C 64.119 110.591,65.001 109.760,66.010 108.744 C 67.019 107.728,67.789 106.897,67.722 106.897 C 67.654 106.897,66.773 107.728,65.764 108.744 M74.125 107.168 C 74.456 107.301,74.849 107.488,74.998 107.584 C 75.147 107.680,75.058 107.565,74.800 107.328 C 74.541 107.091,74.148 106.904,73.926 106.912 C 73.671 106.922,73.744 107.016,74.125 107.168 M66.126 109.175 L 64.409 110.961 66.195 109.243 C 67.853 107.648,68.093 107.389,67.912 107.389 C 67.875 107.389,67.071 108.193,66.126 109.175 M77.833 110.167 C 77.833 110.214,78.193 110.516,78.633 110.838 C 79.128 111.201,79.300 111.260,79.084 110.994 C 78.756 110.590,77.833 109.980,77.833 110.167 M63.637 115.394 C 63.637 116.749,63.679 117.272,63.729 116.556 C 63.779 115.840,63.778 114.732,63.728 114.093 C 63.677 113.454,63.636 114.039,63.637 115.394 M84.313 118.842 C 84.314 119.655,84.360 119.958,84.415 119.515 C 84.470 119.073,84.469 118.408,84.412 118.037 C 84.356 117.667,84.311 118.030,84.313 118.842 M83.811 118.719 C 83.811 119.329,83.859 119.578,83.918 119.273 C 83.976 118.969,83.976 118.470,83.918 118.165 C 83.859 117.860,83.811 118.110,83.811 118.719 M362.192 119.704 C 361.982 120.111,361.865 120.443,361.933 120.443 C 362.001 120.443,362.228 120.111,362.438 119.704 C 362.649 119.298,362.765 118.966,362.697 118.966 C 362.630 118.966,362.402 119.298,362.192 119.704 M23.473 120.443 C 23.473 121.188,23.519 121.493,23.575 121.121 C 23.632 120.748,23.632 120.139,23.575 119.766 C 23.519 119.393,23.473 119.698,23.473 120.443 M24.004 130.911 C 24.004 136.601,24.037 138.893,24.076 136.006 C 24.116 133.118,24.116 128.463,24.076 125.661 C 24.037 122.859,24.004 125.222,24.004 130.911 M360.139 122.547 C 359.726 123.453,359.805 123.646,360.251 122.823 C 360.459 122.439,360.584 122.078,360.527 122.022 C 360.471 121.965,360.296 122.202,360.139 122.547 M67.477 124.692 C 68.081 125.336,68.608 125.862,68.647 125.862 C 68.832 125.862,68.637 125.641,67.549 124.620 L 66.379 123.522 67.477 124.692 M67.118 125.123 C 67.785 125.800,68.387 126.355,68.454 126.355 C 68.522 126.355,68.032 125.800,67.365 125.123 C 66.697 124.446,66.096 123.892,66.028 123.892 C 65.961 123.892,66.451 124.446,67.118 125.123 M359.400 125.503 C 358.987 126.409,359.066 126.602,359.512 125.779 C 359.720 125.394,359.845 125.034,359.788 124.977 C 359.732 124.921,359.557 125.158,359.400 125.503 M69.178 126.833 C 69.497 127.112,69.876 127.340,70.019 127.340 C 70.322 127.340,70.307 127.328,69.335 126.758 L 68.596 126.325 69.178 126.833 M74.329 128.259 C 74.908 128.312,75.795 128.311,76.300 128.258 C 76.804 128.205,76.330 128.162,75.246 128.163 C 74.163 128.164,73.750 128.207,74.329 128.259 M357.183 130.429 C 356.770 131.335,356.849 131.528,357.295 130.705 C 357.504 130.320,357.628 129.960,357.572 129.903 C 357.515 129.847,357.340 130.084,357.183 130.429 M23.753 147.783 C 23.753 151.373,23.787 152.842,23.829 151.047 C 23.871 149.252,23.871 146.315,23.829 144.520 C 23.787 142.725,23.753 144.193,23.753 147.783 M20.539 161.946 C 20.539 163.707,20.579 164.395,20.626 163.475 C 20.674 162.555,20.673 161.114,20.625 160.273 C 20.577 159.432,20.539 160.185,20.539 161.946 M21.943 169.581 C 21.943 169.717,22.211 170.326,22.537 170.936 C 22.863 171.546,23.130 171.933,23.130 171.798 C 23.130 171.663,22.863 171.053,22.537 170.443 C 22.211 169.834,21.943 169.446,21.943 169.581 M375.636 191.749 C 375.636 191.884,375.849 192.383,376.108 192.857 C 376.368 193.331,376.580 193.608,376.580 193.473 C 376.580 193.337,376.368 192.839,376.108 192.365 C 375.849 191.890,375.636 191.613,375.636 191.749 M376.865 192.980 C 376.865 193.116,377.023 193.504,377.217 193.842 C 377.410 194.181,377.569 194.347,377.569 194.212 C 377.569 194.076,377.410 193.688,377.217 193.350 C 377.023 193.011,376.865 192.845,376.865 192.980 M323.892 195.431 C 323.892 195.498,324.224 195.726,324.631 195.936 C 325.037 196.146,325.369 196.263,325.369 196.195 C 325.369 196.127,325.037 195.900,324.631 195.690 C 324.224 195.479,323.892 195.363,323.892 195.431 M378.650 198.522 C 378.650 199.403,378.695 199.763,378.750 199.323 C 378.804 198.882,378.804 198.162,378.750 197.722 C 378.695 197.281,378.650 197.642,378.650 198.522 M300.108 199.076 L 299.384 199.877 300.185 199.153 C 300.931 198.479,301.098 198.276,300.908 198.276 C 300.866 198.276,300.506 198.636,300.108 199.076 M37.438 199.584 C 37.438 199.627,37.799 199.987,38.239 200.385 L 39.039 201.108 38.316 200.308 C 37.642 199.562,37.438 199.394,37.438 199.584 M39.039 200.493 C 39.569 201.034,40.057 201.478,40.125 201.478 C 40.192 201.478,39.815 201.034,39.286 200.493 C 38.757 199.951,38.268 199.507,38.201 199.507 C 38.133 199.507,38.510 199.951,39.039 200.493 M297.770 200.431 L 296.921 201.355 297.845 200.506 C 298.705 199.716,298.882 199.507,298.694 199.507 C 298.652 199.507,298.237 199.923,297.770 200.431 M297.645 201.293 L 296.921 202.094 297.722 201.370 C 298.468 200.696,298.635 200.493,298.445 200.493 C 298.403 200.493,298.042 200.853,297.645 201.293 M44.704 206.897 C 46.190 208.387,47.461 209.606,47.529 209.606 C 47.596 209.606,46.436 208.387,44.951 206.897 C 43.465 205.406,42.194 204.187,42.127 204.187 C 42.059 204.187,43.219 205.406,44.704 206.897 M43.596 206.527 C 44.742 207.679,45.734 208.621,45.802 208.621 C 45.870 208.621,44.988 207.679,43.842 206.527 C 42.697 205.376,41.704 204.433,41.636 204.433 C 41.569 204.433,42.451 205.376,43.596 206.527 M379.860 206.650 C 379.860 207.124,379.911 207.318,379.973 207.081 C 380.035 206.844,380.035 206.456,379.973 206.219 C 379.911 205.982,379.860 206.176,379.860 206.650 M350.985 208.744 C 351.324 208.937,351.712 209.096,351.847 209.096 C 351.983 209.096,351.817 208.937,351.478 208.744 C 351.139 208.550,350.751 208.392,350.616 208.392 C 350.480 208.392,350.647 208.550,350.985 208.744 M47.783 210.668 C 47.783 210.711,48.143 211.071,48.584 211.469 L 49.384 212.192 48.661 211.392 C 47.986 210.645,47.783 210.478,47.783 210.668 M382.020 215.874 C 382.020 216.128,381.649 216.256,380.727 216.321 L 379.433 216.411 380.850 216.457 C 382.117 216.498,382.266 216.451,382.266 216.010 C 382.266 215.739,382.211 215.517,382.143 215.517 C 382.075 215.517,382.020 215.678,382.020 215.874 M379.007 216.927 C 379.450 216.982,380.115 216.981,380.485 216.925 C 380.855 216.869,380.493 216.824,379.680 216.825 C 378.867 216.826,378.564 216.872,379.007 216.927 M59.113 217.844 C 59.113 217.912,59.446 218.140,59.852 218.350 C 60.259 218.560,60.591 218.676,60.591 218.609 C 60.591 218.541,60.259 218.314,59.852 218.103 C 59.446 217.893,59.113 217.777,59.113 217.844 M254.126 219.632 C 254.430 219.691,254.929 219.691,255.234 219.632 C 255.539 219.573,255.289 219.525,254.680 219.525 C 254.070 219.525,253.821 219.573,254.126 219.632 M255.362 220.129 C 255.804 220.184,256.469 220.183,256.839 220.127 C 257.209 220.071,256.847 220.026,256.034 220.027 C 255.222 220.028,254.919 220.074,255.362 220.129 M228.571 227.833 C 228.097 228.092,227.820 228.304,227.956 228.304 C 228.091 228.304,228.590 228.092,229.064 227.833 C 229.538 227.573,229.815 227.361,229.680 227.361 C 229.544 227.361,229.046 227.573,228.571 227.833 M210.410 233.182 C 210.784 233.238,211.338 233.237,211.641 233.178 C 211.944 233.120,211.638 233.074,210.961 233.075 C 210.283 233.077,210.035 233.125,210.410 233.182 M208.682 233.914 C 208.919 233.976,209.307 233.976,209.544 233.914 C 209.781 233.852,209.587 233.801,209.113 233.801 C 208.639 233.801,208.445 233.852,208.682 233.914 M181.963 234.661 C 182.405 234.716,183.070 234.715,183.440 234.659 C 183.810 234.603,183.448 234.558,182.635 234.559 C 181.823 234.560,181.520 234.606,181.963 234.661 M179.372 234.899 C 179.609 234.961,179.997 234.961,180.234 234.899 C 180.471 234.837,180.277 234.786,179.803 234.786 C 179.329 234.786,179.135 234.837,179.372 234.899 M110.283 235.154 C 110.724 235.208,111.444 235.208,111.884 235.154 C 112.325 235.099,111.964 235.054,111.084 235.054 C 110.203 235.054,109.843 235.099,110.283 235.154 M174.692 235.155 C 175.200 235.208,176.031 235.208,176.539 235.155 C 177.047 235.102,176.632 235.058,175.616 235.058 C 174.600 235.058,174.184 235.102,174.692 235.155 M187.377 235.160 C 190.120 235.199,194.609 235.199,197.352 235.160 C 200.095 235.120,197.851 235.088,192.365 235.088 C 186.878 235.088,184.634 235.120,187.377 235.160 M109.175 235.638 C 109.412 235.700,109.800 235.700,110.037 235.638 C 110.274 235.576,110.080 235.525,109.606 235.525 C 109.132 235.525,108.938 235.576,109.175 235.638 M130.727 235.653 C 138.347 235.689,150.816 235.689,158.436 235.653 C 166.056 235.617,159.821 235.587,144.581 235.587 C 129.341 235.587,123.107 235.617,130.727 235.653 M175.554 235.650 C 176.265 235.699,177.429 235.699,178.140 235.650 C 178.852 235.600,178.270 235.559,176.847 235.559 C 175.425 235.559,174.843 235.600,175.554 235.650 M112.869 235.891 C 113.242 235.947,113.852 235.947,114.224 235.891 C 114.597 235.834,114.292 235.788,113.547 235.788 C 112.802 235.788,112.497 235.834,112.869 235.891 M129.722 236.145 C 137.603 236.181,150.571 236.181,158.540 236.145 C 166.509 236.109,160.062 236.080,144.212 236.080 C 128.362 236.080,121.842 236.109,129.722 236.145 " stroke="none" fill="#EC791A" fill-rule="evenodd"></path><path id="path1" d="M143.842 18.372 C 136.416 18.875,126.369 20.420,122.226 21.695 C 120.931 22.093,119.308 22.520,118.619 22.644 C 114.212 23.432,113.084 23.653,112.315 23.874 C 111.841 24.011,109.458 24.462,107.020 24.876 C 98.843 26.264,94.038 27.349,89.409 28.855 C 76.338 33.106,74.232 34.079,68.146 38.681 C 66.273 40.097,64.234 41.567,63.614 41.948 C 61.916 42.991,58.350 46.097,56.633 48.030 C 55.794 48.974,54.097 50.551,52.862 51.535 C 45.773 57.182,43.271 60.904,37.255 74.754 C 34.849 80.293,34.236 82.147,34.236 83.891 C 34.236 84.366,34.071 85.073,33.870 85.463 C 33.351 86.466,31.865 90.667,31.254 92.857 C 30.970 93.873,30.036 96.312,29.178 98.276 C 27.785 101.466,27.548 102.252,26.962 105.642 C 26.601 107.729,25.756 111.387,25.084 113.770 C 23.492 119.417,23.468 119.751,23.271 138.547 C 23.180 147.217,23.007 154.431,22.886 154.578 C 22.765 154.725,22.222 155.711,21.678 156.767 L 20.690 158.689 20.690 161.918 C 20.690 164.942,20.743 165.305,21.527 167.611 C 22.599 170.770,24.563 175.560,25.111 176.355 C 26.140 177.846,28.137 182.427,29.170 185.663 C 30.613 190.185,32.465 193.310,36.745 198.442 C 44.575 207.833,47.867 211.023,53.788 214.955 C 58.860 218.323,62.016 220.078,65.892 221.687 C 67.244 222.248,69.735 223.319,71.429 224.067 C 77.481 226.741,85.158 229.326,93.596 231.531 C 96.238 232.221,99.895 233.215,101.724 233.740 C 106.539 235.121,108.459 235.460,113.034 235.735 C 118.456 236.061,172.824 235.851,177.340 235.487 C 179.169 235.339,185.985 235.121,192.488 235.003 C 201.976 234.830,204.626 234.709,205.911 234.391 C 206.792 234.173,208.730 233.874,210.218 233.726 C 211.833 233.567,213.819 233.174,215.144 232.753 C 216.365 232.365,218.708 231.777,220.350 231.447 C 222.665 230.982,224.160 230.486,227.001 229.239 C 229.016 228.354,231.745 227.337,233.064 226.979 C 234.384 226.621,237.432 225.598,239.838 224.706 C 249.039 221.294,251.921 220.402,254.554 220.151 C 255.910 220.023,258.073 219.648,259.360 219.318 C 260.647 218.989,262.995 218.451,264.579 218.122 C 267.408 217.536,268.779 217.017,276.601 213.579 C 278.159 212.894,280.154 212.152,281.034 211.931 C 284.075 211.167,293.054 205.291,298.374 200.585 C 302.349 197.068,305.620 194.403,308.517 192.323 C 314.678 187.897,314.519 187.934,317.074 190.352 C 319.065 192.236,322.250 194.432,325.597 196.228 C 329.317 198.224,332.082 199.787,334.494 201.258 C 335.807 202.058,338.253 203.225,340.036 203.899 C 344.148 205.456,347.209 206.764,351.144 208.645 C 354.099 210.057,360.023 212.334,364.280 213.694 C 365.293 214.017,367.288 214.453,368.714 214.662 C 370.139 214.870,371.944 215.259,372.724 215.526 C 375.613 216.513,382.414 217.293,382.655 216.664 C 382.727 216.475,382.329 214.671,381.770 212.655 C 381.210 210.639,380.690 208.325,380.614 207.512 C 380.537 206.700,380.282 205.647,380.046 205.172 C 379.493 204.056,378.767 200.626,378.588 198.276 C 378.464 196.652,378.232 195.965,376.667 192.596 C 375.689 190.487,374.378 187.273,373.754 185.453 C 373.131 183.632,371.790 180.092,370.774 177.586 C 364.583 162.306,361.714 153.806,357.910 139.462 L 356.196 133.001 356.764 131.586 C 357.745 129.149,359.569 125.164,361.811 120.567 C 363.000 118.128,364.384 115.214,364.887 114.090 C 365.389 112.967,366.250 111.249,366.798 110.273 C 367.347 109.296,368.336 107.541,368.996 106.372 C 369.657 105.203,370.197 104.187,370.197 104.114 C 370.197 104.041,370.914 102.436,371.790 100.547 C 374.319 95.096,374.754 92.931,375.514 82.020 C 375.726 78.972,376.013 74.982,376.151 73.153 C 376.643 66.651,376.697 41.873,376.226 39.058 C 375.205 32.949,372.657 26.973,369.840 24.076 C 368.749 22.955,368.290 22.924,367.349 23.912 C 366.127 25.195,363.213 26.993,359.164 28.962 C 347.818 34.480,335.198 42.936,331.057 47.795 C 330.196 48.805,328.254 50.850,326.741 52.340 C 323.908 55.130,321.189 58.290,319.163 61.145 C 318.526 62.042,317.420 63.239,316.704 63.805 L 315.402 64.834 312.689 64.667 C 308.174 64.388,305.705 63.873,295.936 61.174 C 292.501 60.226,289.737 59.166,287.315 57.871 C 283.283 55.713,274.010 52.217,272.320 52.217 C 271.308 52.217,267.489 50.104,265.261 48.312 C 260.770 44.700,257.064 42.374,249.922 38.684 C 243.635 35.436,231.907 31.036,226.615 29.941 C 225.050 29.617,222.106 29.003,220.074 28.577 C 214.805 27.472,212.115 26.946,208.744 26.360 C 204.830 25.680,195.461 23.411,190.394 21.916 C 182.005 19.442,180.549 19.250,169.951 19.221 C 166.903 19.213,162.746 19.040,160.714 18.837 C 157.120 18.478,146.568 18.188,143.842 18.372 M158.744 19.114 C 160.776 19.318,166.595 19.579,171.675 19.694 C 182.097 19.931,182.617 20.002,189.642 22.161 C 191.749 22.808,193.861 23.416,194.335 23.512 C 194.809 23.608,197.394 24.234,200.079 24.904 C 202.765 25.573,207.143 26.507,209.809 26.979 C 212.474 27.451,216.325 28.224,218.367 28.697 C 220.408 29.170,222.403 29.560,222.800 29.564 C 225.024 29.587,235.039 32.737,243.103 35.950 C 248.755 38.202,257.872 43.301,262.485 46.790 C 268.496 51.335,270.154 52.289,272.768 52.707 C 275.127 53.084,283.480 56.319,287.069 58.247 C 289.824 59.726,292.993 60.856,298.415 62.294 C 300.980 62.974,303.467 63.648,303.941 63.791 C 306.876 64.676,314.869 65.500,315.797 65.013 C 316.925 64.421,318.370 62.927,320.300 60.356 C 322.476 57.458,325.241 54.338,328.009 51.659 C 329.021 50.679,330.632 48.957,331.588 47.832 C 335.179 43.607,349.475 34.005,358.320 29.877 C 362.388 27.978,365.241 26.306,366.763 24.929 C 368.526 23.333,368.731 23.352,370.258 25.247 C 372.553 28.095,374.578 32.926,375.656 38.126 C 376.326 41.355,376.626 59.603,376.125 66.626 C 374.068 95.439,374.156 94.770,371.792 99.507 C 371.352 100.388,370.692 101.829,370.325 102.709 C 369.720 104.158,368.668 106.132,366.363 110.142 C 365.921 110.912,365.114 112.531,364.569 113.741 C 364.024 114.950,362.640 117.868,361.492 120.224 C 359.424 124.470,357.716 128.191,356.415 131.286 L 355.739 132.892 357.059 137.936 C 361.091 153.355,363.764 161.368,370.118 177.094 C 371.405 180.277,372.993 184.433,373.647 186.330 C 374.302 188.227,375.566 191.328,376.458 193.222 C 377.676 195.809,378.079 196.931,378.079 197.733 C 378.079 199.068,379.179 204.445,379.639 205.356 C 379.827 205.729,380.043 206.644,380.118 207.389 C 380.193 208.134,380.707 210.378,381.260 212.376 C 381.813 214.374,382.266 216.135,382.266 216.291 C 382.266 216.898,375.682 216.053,372.540 215.042 C 371.726 214.780,369.927 214.393,368.544 214.182 C 367.161 213.972,365.055 213.478,363.864 213.085 C 358.926 211.454,354.699 209.877,353.079 209.060 C 350.476 207.746,345.501 205.582,340.937 203.778 C 338.286 202.730,335.806 201.534,333.881 200.375 C 332.248 199.392,329.304 197.724,327.340 196.668 C 322.754 194.204,319.780 192.214,317.574 190.134 C 315.211 187.904,313.762 187.753,311.630 189.514 C 311.262 189.819,309.741 190.936,308.251 191.999 C 305.099 194.245,301.239 197.365,298.704 199.715 C 296.396 201.854,292.803 204.561,288.793 207.183 C 283.940 210.356,282.768 211.007,281.158 211.423 C 279.500 211.852,277.706 212.555,274.046 214.211 C 269.201 216.403,266.956 217.218,264.342 217.734 C 262.889 218.021,260.757 218.517,259.606 218.836 C 258.454 219.156,256.626 219.492,255.542 219.583 C 252.020 219.879,250.315 220.372,241.502 223.645 C 238.522 224.752,234.754 226.037,233.128 226.501 C 231.502 226.965,228.553 228.057,226.575 228.929 C 223.771 230.164,222.358 230.631,220.171 231.047 C 218.627 231.341,216.367 231.906,215.148 232.303 C 213.863 232.721,211.947 233.118,210.591 233.246 C 209.304 233.368,207.038 233.696,205.556 233.975 C 203.155 234.427,201.903 234.483,194.103 234.486 C 187.182 234.489,183.975 234.605,178.818 235.039 C 172.564 235.565,171.125 235.588,144.458 235.590 C 108.387 235.592,110.934 235.768,98.522 232.413 C 96.829 231.955,93.519 231.070,91.166 230.445 C 85.765 229.010,78.409 226.551,74.261 224.795 C 72.500 224.049,69.500 222.776,67.595 221.966 C 56.906 217.424,46.769 210.230,41.677 203.571 C 41.055 202.759,39.920 201.415,39.154 200.586 C 34.200 195.224,31.141 190.394,29.485 185.322 C 28.171 181.296,27.032 178.670,25.596 176.355 C 25.217 175.745,24.610 174.415,24.245 173.399 C 23.880 172.383,23.317 171.044,22.994 170.423 C 20.471 165.583,20.502 159.153,23.067 155.172 L 23.623 154.310 23.777 137.931 C 23.951 119.482,23.964 119.294,25.447 114.039 C 26.040 111.940,26.769 108.892,27.068 107.266 C 27.975 102.325,28.240 101.404,29.656 98.242 C 30.406 96.567,31.415 93.882,31.899 92.275 C 32.382 90.668,33.173 88.396,33.656 87.226 C 34.194 85.924,34.612 84.412,34.734 83.328 C 34.992 81.029,34.888 81.326,37.735 74.754 C 43.509 61.424,46.372 57.207,53.448 51.617 C 54.600 50.707,56.355 49.059,57.349 47.954 C 59.289 45.797,61.306 43.999,63.001 42.916 C 63.582 42.545,65.664 41.045,67.629 39.583 C 73.514 35.202,79.485 32.163,85.099 30.692 C 85.911 30.479,88.210 29.755,90.207 29.082 C 93.987 27.809,99.676 26.517,106.017 25.493 C 109.215 24.975,112.447 24.338,116.691 23.388 C 117.268 23.259,118.008 23.153,118.333 23.153 C 118.659 23.153,120.126 22.778,121.593 22.319 C 124.503 21.410,129.558 20.310,131.897 20.077 C 132.709 19.996,135.203 19.715,137.438 19.451 C 143.043 18.791,142.789 18.805,149.261 18.773 C 152.830 18.755,156.466 18.886,158.744 19.114 M71.552 99.358 C 70.353 99.885,68.670 101.425,67.555 103.017 C 66.983 103.834,66.452 104.566,66.375 104.643 C 66.200 104.818,65.046 103.432,65.033 103.032 C 65.029 102.870,64.914 102.670,64.778 102.586 C 64.321 102.304,64.528 103.127,65.140 104.030 C 65.826 105.040,65.763 105.078,64.261 104.548 C 62.195 103.819,56.957 104.274,57.490 105.136 C 57.961 105.898,65.074 106.429,66.523 105.810 C 66.754 105.712,67.157 105.841,67.509 106.127 L 68.103 106.611 65.984 108.786 C 63.477 111.359,63.199 112.006,63.206 115.271 C 63.213 119.073,64.850 122.800,67.660 125.408 C 74.007 131.301,84.215 127.213,84.234 118.771 C 84.239 116.315,81.187 111.847,78.081 109.765 C 77.446 109.339,76.327 108.579,75.594 108.076 C 74.156 107.091,71.965 106.404,70.261 106.404 C 67.230 106.404,66.450 105.201,68.763 104.096 C 71.422 102.825,72.660 101.474,72.660 99.842 C 72.660 98.921,72.603 98.897,71.552 99.358 M72.414 99.764 C 72.414 100.908,70.644 102.915,68.966 103.675 C 67.392 104.387,67.170 104.335,67.731 103.387 C 68.828 101.531,72.414 98.757,72.414 99.764 M63.981 104.967 C 66.307 105.362,66.077 105.665,63.450 105.665 C 61.043 105.665,58.621 105.293,58.621 104.923 C 58.621 104.450,61.058 104.470,63.981 104.967 M73.227 107.261 C 73.877 107.458,75.061 108.115,75.857 108.721 C 76.654 109.326,77.618 109.986,78.000 110.187 C 79.666 111.064,83.567 116.174,83.892 117.905 C 83.979 118.366,83.918 119.431,83.757 120.271 C 82.083 128.996,70.748 130.468,65.831 122.598 C 62.501 117.269,62.647 112.685,66.262 109.052 L 68.406 106.897 70.225 106.899 C 71.226 106.901,72.577 107.063,73.227 107.261 " stroke="none" fill="#ffffff" fill-rule="evenodd"></path></g></svg>