<svg id="svg" version="1.1" xmlns="http://www.w3.org/2000/svg" xmlns:xlink="http://www.w3.org/1999/xlink" width="400" height="400" viewBox="0, 0, 400,400"><g id="svgg"><path id="path0" d="M149.044 33.813 C 146.927 35.930,149.136 46.022,155.352 62.632 C 160.144 75.433,159.488 76.479,153.070 66.273 C 147.093 56.769,146.937 56.556,145.459 55.855 C 143.752 55.045,142.591 55.444,141.980 57.052 C 141.191 59.127,143.008 62.864,148.663 70.800 C 154.092 78.418,156.000 81.239,156.000 81.647 C 156.000 82.914,150.450 80.055,145.813 76.399 C 141.140 72.716,139.229 72.350,138.561 75.012 C 137.984 77.311,139.385 79.072,145.353 83.553 C 151.967 88.519,151.950 88.589,144.066 88.631 C 138.809 88.659,137.722 88.792,133.600 89.908 C 126.306 91.884,124.585 92.606,119.236 95.938 C 116.466 97.662,112.760 99.822,111.000 100.737 C 106.782 102.930,103.509 105.435,98.012 110.679 C 89.901 118.416,90.718 118.328,83.533 112.233 C 75.340 105.284,75.478 105.571,78.464 101.685 C 87.214 90.299,85.799 72.171,75.438 62.937 C 66.997 55.413,57.638 58.865,53.603 70.991 C 52.218 75.154,52.368 75.070,47.840 74.218 C 34.995 71.800,29.531 79.217,29.437 99.200 C 29.373 112.680,31.770 115.006,46.200 115.467 C 55.204 115.755,54.970 115.650,59.226 121.294 C 61.082 123.753,64.515 127.685,66.856 130.030 C 73.272 136.458,73.151 136.056,69.975 140.400 C 61.659 151.778,55.939 163.362,55.162 170.400 C 54.955 172.270,54.339 177.807,53.793 182.704 C 52.454 194.714,52.315 217.269,53.553 221.827 C 57.226 235.352,63.062 244.145,73.000 251.129 C 79.514 255.707,81.298 256.719,86.800 258.962 C 93.185 261.565,93.237 261.722,89.135 265.898 C 82.780 272.367,81.867 272.771,78.408 270.639 C 72.180 266.799,62.442 267.126,58.065 271.320 C 54.758 274.490,53.836 278.326,53.816 289.000 L 53.800 297.400 54.920 299.682 C 57.334 304.597,62.968 307.187,71.745 307.416 C 77.009 307.554,76.794 307.356,77.226 312.458 C 78.230 324.289,82.931 329.905,92.595 330.819 C 103.272 331.830,108.319 328.262,110.789 317.959 C 112.534 310.680,111.870 307.977,106.278 299.600 C 100.830 291.440,100.842 291.393,110.714 282.154 C 115.219 277.937,118.484 274.113,121.260 269.800 C 123.792 265.867,123.906 265.800,128.049 265.801 C 133.318 265.803,132.960 264.878,133.202 279.113 C 133.457 294.179,134.199 295.972,141.646 299.526 C 146.343 301.768,159.198 302.436,162.914 300.631 C 166.997 298.648,169.477 289.812,169.759 276.244 C 169.972 266.010,170.233 265.677,175.434 269.004 C 179.193 271.409,179.302 271.863,179.636 286.600 C 179.964 301.029,180.147 301.984,182.916 303.787 C 184.585 304.873,187.030 305.180,190.600 304.753 C 192.360 304.542,196.563 304.204,199.941 304.001 C 210.435 303.371,211.815 301.996,213.599 290.400 C 214.528 284.359,215.216 275.673,215.207 270.100 C 215.197 264.467,215.271 264.400,221.426 264.400 C 228.839 264.400,229.098 264.921,229.612 280.800 C 229.793 286.410,230.127 291.810,230.354 292.800 C 230.581 293.790,230.959 296.553,231.195 298.940 C 232.088 308.007,232.567 308.275,248.229 308.470 L 258.658 308.600 260.122 307.485 C 262.828 305.424,263.544 300.098,263.762 280.400 C 263.938 264.574,263.208 266.047,271.400 265.000 C 281.163 263.753,282.108 262.870,283.029 254.132 C 283.912 245.748,284.576 245.681,295.344 252.877 C 299.414 255.596,302.431 257.165,307.867 259.387 C 314.069 261.923,313.964 261.764,315.032 270.229 C 317.096 286.587,322.263 293.392,332.600 293.368 C 345.972 293.338,351.342 285.283,347.471 271.064 C 345.903 265.301,346.093 264.624,349.684 263.182 C 354.062 261.423,358.426 257.208,359.424 253.776 C 361.674 246.037,352.637 229.828,343.790 225.732 C 337.617 222.874,323.295 226.074,319.114 231.246 C 318.391 232.140,317.406 233.350,316.925 233.935 L 316.051 235.000 314.325 234.092 C 311.980 232.858,308.000 229.296,308.000 228.431 C 308.000 228.001,309.682 226.483,312.331 224.523 C 322.061 217.321,328.642 206.612,332.475 191.740 L 333.800 186.600 333.800 175.800 C 333.800 161.218,333.043 158.632,324.723 144.769 C 322.423 140.936,320.029 136.900,319.404 135.800 C 317.492 132.438,314.759 128.357,312.219 125.072 C 310.888 123.352,309.305 121.300,308.700 120.513 C 307.231 118.601,307.278 118.285,309.613 114.373 C 311.787 110.732,314.083 108.139,318.895 103.891 C 320.582 102.401,322.916 99.797,324.082 98.104 C 327.187 93.593,327.423 93.515,332.248 95.392 C 347.315 101.256,365.765 94.322,367.679 82.076 C 370.308 65.253,362.743 57.927,346.087 61.167 C 342.517 61.861,342.557 61.899,342.055 57.351 C 341.008 47.876,337.421 45.393,324.800 45.410 C 304.925 45.437,301.215 49.771,307.436 65.691 C 310.901 74.560,310.745 75.562,304.946 81.601 C 293.781 93.228,287.630 98.785,284.440 100.126 C 281.700 101.278,272.863 99.427,264.200 95.887 C 252.986 91.304,239.192 87.317,230.619 86.179 C 224.144 85.321,224.141 84.517,230.600 81.984 C 237.587 79.244,240.020 77.327,239.440 75.015 C 238.669 71.947,236.264 72.598,220.702 80.089 C 208.577 85.925,205.912 85.338,214.803 78.791 C 222.511 73.115,230.800 63.443,230.800 60.126 C 230.800 59.091,229.182 57.200,228.297 57.200 C 227.498 57.200,221.423 60.208,219.372 61.619 C 213.641 65.562,213.517 64.349,218.840 56.399 C 223.653 49.210,224.217 45.954,220.638 46.014 C 217.931 46.060,207.116 57.352,196.708 71.000 C 188.743 81.444,188.495 79.709,195.794 64.600 C 203.424 48.805,204.651 42.800,200.249 42.800 C 197.807 42.800,192.490 52.725,187.602 66.408 C 184.914 73.931,182.548 78.296,181.399 77.855 C 180.820 77.633,180.786 75.926,181.041 59.903 C 181.346 40.707,181.312 40.330,179.169 39.183 C 176.725 37.875,175.742 40.449,175.423 49.000 C 174.949 61.648,174.363 64.246,173.628 56.954 C 172.766 48.409,172.469 46.683,171.679 45.625 C 170.636 44.228,168.948 44.250,167.883 45.676 C 166.988 46.875,166.998 46.598,167.351 61.000 C 167.569 69.909,167.425 72.000,166.592 72.000 C 165.644 72.000,161.706 61.403,158.416 50.000 C 154.423 36.161,151.590 31.267,149.044 33.813 M331.374 53.990 C 334.811 55.297,335.011 62.430,331.746 67.279 C 328.699 71.805,328.352 74.013,330.369 76.031 C 332.738 78.399,335.091 77.764,341.025 73.156 C 347.421 68.189,357.011 66.953,359.019 70.836 C 359.961 72.658,359.823 80.794,358.818 82.766 C 355.620 89.033,343.769 91.158,333.994 87.217 C 326.878 84.348,323.276 85.332,318.924 91.336 C 315.576 95.956,315.207 96.371,312.045 99.068 C 308.467 102.121,305.033 106.077,302.879 109.627 C 300.810 113.037,300.278 113.081,296.185 110.177 C 290.659 106.256,290.641 106.406,297.327 100.670 C 300.256 98.157,303.894 94.683,305.411 92.950 C 306.928 91.218,310.364 87.640,313.047 85.000 C 319.814 78.341,319.988 76.338,314.992 62.557 C 311.950 54.165,312.403 53.729,324.274 53.644 C 327.615 53.620,330.810 53.776,331.374 53.990 M220.800 67.217 C 220.800 68.069,214.080 74.346,210.600 76.745 C 208.620 78.110,206.326 79.791,205.502 80.482 C 203.350 82.285,203.190 81.564,205.249 79.341 C 212.991 70.983,220.800 64.895,220.800 67.217 M68.750 68.174 C 72.009 69.859,75.679 76.339,75.935 80.860 C 76.425 89.506,74.251 95.091,68.459 100.072 C 62.902 104.850,63.126 107.946,69.282 111.467 C 73.761 114.028,83.209 122.380,83.186 123.758 C 83.162 125.169,79.541 128.800,78.159 128.800 C 76.323 128.800,67.723 119.602,63.588 113.216 C 58.231 104.942,56.767 104.072,52.154 106.423 C 48.846 108.110,39.135 107.321,38.041 105.276 C 36.818 102.992,37.288 92.390,38.834 87.385 C 40.957 80.510,46.572 80.064,52.427 86.305 C 57.671 91.895,60.913 89.426,60.968 79.800 C 61.021 70.471,64.151 65.796,68.750 68.174 M229.000 94.151 C 237.974 95.461,249.277 98.710,260.369 103.170 C 267.187 105.911,270.600 107.006,274.310 107.640 C 277.458 108.178,278.172 108.492,279.836 110.064 C 280.515 110.707,282.225 111.637,283.636 112.132 C 286.760 113.228,296.584 120.264,300.955 124.537 C 307.188 130.630,321.659 153.842,324.381 162.114 C 326.465 168.446,326.860 168.402,268.058 168.395 C 243.936 168.392,223.807 168.284,223.328 168.155 C 222.247 167.865,222.052 167.367,221.590 163.717 C 220.818 157.635,216.513 152.812,205.814 146.046 C 200.463 142.662,183.686 142.505,177.172 145.777 C 174.512 147.113,173.974 147.075,170.838 145.339 C 164.779 141.984,158.070 136.943,150.400 129.984 C 144.332 124.478,136.283 118.468,130.346 115.010 C 123.339 110.929,118.951 106.217,120.780 104.736 C 126.303 100.263,132.935 97.828,138.600 98.192 C 142.847 98.465,146.895 97.969,153.720 96.341 C 159.123 95.051,163.482 96.121,165.485 99.227 C 167.448 102.270,167.593 102.400,169.035 102.400 C 170.962 102.400,173.483 103.773,175.477 105.910 C 177.464 108.037,179.589 108.149,183.081 106.310 C 184.136 105.754,187.430 104.051,190.400 102.526 C 193.370 101.001,197.690 98.740,200.000 97.502 C 203.796 95.468,207.221 93.996,209.400 93.464 C 211.203 93.023,224.456 93.488,229.000 94.151 M114.519 111.908 C 115.355 112.473,117.245 113.975,118.719 115.244 C 121.632 117.753,125.267 120.315,128.934 122.444 C 132.613 124.580,141.410 131.390,146.970 136.405 C 153.426 142.228,164.875 150.690,167.677 151.711 C 169.626 152.420,169.713 153.576,168.184 158.442 L 166.751 163.000 166.876 171.400 L 167.000 179.800 168.239 182.400 C 172.123 190.551,178.840 193.561,193.200 193.583 C 207.777 193.606,215.981 189.261,219.872 179.457 C 221.653 174.969,216.410 175.411,268.378 175.370 C 310.480 175.336,321.173 175.113,323.854 174.213 C 328.005 172.818,325.913 190.057,320.599 201.034 C 313.276 216.163,303.504 223.253,283.635 227.851 C 277.491 229.274,277.437 229.394,275.794 245.200 C 274.567 257.004,275.168 256.199,266.786 257.275 C 255.158 258.767,255.865 257.359,255.565 279.600 C 255.264 301.906,255.835 300.402,247.674 300.398 C 242.512 300.395,240.161 299.938,239.823 298.871 C 238.706 295.352,237.600 285.385,237.600 278.837 C 237.600 273.416,237.417 270.783,236.844 267.944 C 236.429 265.885,235.967 263.174,235.818 261.921 C 235.215 256.839,234.061 256.400,221.307 256.400 C 206.546 256.400,207.186 255.715,206.753 271.972 C 206.181 293.467,205.599 295.297,199.200 295.742 C 197.330 295.872,194.352 296.097,192.582 296.242 C 187.912 296.625,188.166 297.203,187.877 285.530 C 187.406 266.446,186.848 265.231,176.200 260.071 C 171.233 257.664,166.169 257.237,164.022 259.043 C 161.832 260.885,161.818 260.972,161.571 273.400 C 161.307 286.689,160.797 290.064,158.742 292.120 L 157.585 293.276 152.093 293.138 C 141.585 292.874,141.467 292.674,141.200 274.781 C 140.937 257.116,141.435 257.942,130.818 257.565 C 124.702 257.347,115.520 256.535,108.500 255.590 C 106.905 255.376,104.205 255.013,102.500 254.784 C 92.231 253.408,85.115 250.183,74.181 241.948 C 71.934 240.256,68.634 236.350,67.127 233.600 C 65.352 230.359,61.681 221.020,61.236 218.611 C 60.478 214.510,60.686 194.801,61.570 186.999 C 61.994 183.260,62.543 178.040,62.790 175.400 C 63.923 163.272,74.910 144.251,87.962 131.817 C 90.050 129.828,93.481 126.490,95.585 124.400 C 110.065 110.020,110.908 109.465,114.519 111.908 M110.184 143.128 C 103.370 146.396,100.662 150.824,100.464 159.024 C 100.260 167.474,101.954 170.722,108.600 174.625 L 110.600 175.800 118.600 175.800 C 128.001 175.800,128.961 175.515,132.860 171.556 C 139.638 164.675,140.063 154.615,133.819 148.860 C 128.349 143.818,115.328 140.660,110.184 143.128 M114.723 150.666 C 114.791 151.143,114.227 153.033,113.468 154.866 C 112.710 156.700,111.714 159.465,111.255 161.010 C 110.200 164.558,109.512 165.562,108.540 164.967 C 107.034 164.044,106.749 156.788,108.117 154.175 C 109.901 150.766,114.397 148.378,114.723 150.666 M201.800 151.883 C 209.905 156.094,215.255 162.565,214.626 167.400 C 214.483 168.500,214.210 170.948,214.020 172.841 C 213.457 178.433,211.804 180.927,206.562 184.094 C 200.139 187.974,182.376 187.338,177.365 183.048 C 171.744 178.237,172.235 161.909,178.217 154.703 C 180.844 151.538,181.074 151.446,186.200 151.525 C 188.400 151.558,190.830 151.418,191.600 151.212 C 194.067 150.553,199.989 150.942,201.800 151.883 M127.438 152.927 C 132.792 156.616,131.952 164.964,125.918 168.042 C 123.918 169.062,117.741 169.007,117.084 167.963 C 116.554 167.120,118.523 160.940,122.011 152.500 C 122.599 151.076,125.030 151.268,127.438 152.927 M141.767 197.988 C 140.399 198.541,138.948 200.586,136.856 204.910 C 134.618 209.535,131.842 213.798,128.611 217.571 C 125.102 221.669,125.240 224.778,129.005 226.443 C 130.705 227.195,131.565 227.231,145.499 227.118 C 161.803 226.987,162.085 226.943,163.437 224.328 C 164.819 221.656,164.087 220.141,157.986 213.051 C 156.686 211.540,155.099 209.380,154.460 208.251 C 150.626 201.477,144.796 196.762,141.767 197.988 M146.073 210.700 C 147.541 212.278,150.443 217.277,150.307 217.994 C 150.059 219.303,139.924 219.216,139.674 217.902 C 139.528 217.131,142.494 211.506,143.663 210.337 C 144.635 209.365,144.864 209.400,146.073 210.700 M340.804 233.602 C 344.700 235.590,348.859 241.300,350.811 247.343 C 352.174 251.560,351.337 253.118,346.367 255.617 C 342.199 257.712,341.529 257.667,337.676 255.028 C 332.046 251.172,328.395 251.899,328.403 256.874 C 328.406 259.147,329.121 260.159,334.134 264.992 C 339.040 269.722,339.937 271.599,340.257 277.800 C 340.530 283.080,339.275 284.651,334.437 285.090 C 326.262 285.831,323.553 280.488,322.834 262.200 C 322.378 250.613,320.802 248.072,316.096 251.333 C 313.431 253.181,308.448 251.685,301.035 246.811 C 297.300 244.356,292.365 241.452,288.000 239.141 C 284.517 237.297,285.671 235.613,291.393 234.189 L 294.401 233.440 297.900 234.342 C 302.568 235.546,305.936 237.750,316.000 246.188 C 321.641 250.917,325.110 249.168,324.574 241.865 C 324.309 238.248,324.325 238.151,325.399 236.874 C 328.169 233.582,337.062 231.693,340.804 233.602 M112.400 264.356 C 114.051 264.811,113.903 266.339,111.964 268.838 C 108.784 272.937,95.834 285.459,93.881 286.323 C 89.446 288.285,89.518 294.019,94.023 297.511 C 98.832 301.239,103.494 309.980,103.084 314.500 C 102.228 323.940,90.847 326.481,86.745 318.148 L 85.401 315.418 85.200 304.609 C 84.995 293.527,84.910 292.947,83.268 291.462 C 80.703 289.140,77.536 290.722,74.969 295.606 C 73.254 298.870,72.260 299.435,68.919 299.042 C 62.740 298.316,61.936 297.083,61.957 288.358 C 61.974 281.255,62.358 279.180,63.953 277.585 C 66.756 274.782,74.169 276.146,75.658 279.739 C 77.696 284.661,82.464 284.998,86.127 280.479 C 88.979 276.961,101.167 265.576,102.946 264.768 C 104.652 263.994,110.209 263.751,112.400 264.356 M134.108 307.393 C 131.401 308.570,131.316 309.016,131.119 323.127 C 131.014 330.672,131.098 336.286,131.327 337.000 C 131.538 337.660,131.829 341.080,131.973 344.600 C 132.338 353.537,133.223 354.717,140.228 355.602 C 141.972 355.823,144.390 356.177,145.600 356.389 C 146.810 356.601,149.650 356.958,151.910 357.184 C 154.171 357.409,158.131 358.117,160.710 358.758 C 163.703 359.500,167.055 360.016,169.973 360.183 C 172.489 360.326,174.649 360.505,174.773 360.579 C 174.898 360.654,177.610 360.842,180.800 360.997 C 185.035 361.202,187.194 361.493,188.800 362.076 C 192.930 363.576,194.393 363.959,196.896 364.200 C 201.979 364.689,209.152 365.666,214.600 366.611 C 225.009 368.416,253.333 369.568,256.980 368.334 C 261.068 366.952,261.369 358.087,258.201 332.400 C 257.672 328.110,257.074 322.721,256.872 320.424 C 256.319 314.154,255.318 313.492,245.306 312.782 C 242.278 312.567,236.612 311.944,232.717 311.396 C 222.585 309.971,220.957 310.170,219.786 312.973 C 218.911 315.067,219.036 315.799,220.988 319.975 C 224.698 327.914,226.510 334.374,225.377 335.626 C 224.594 336.491,209.549 336.829,208.029 336.015 C 206.581 335.241,205.402 329.456,204.834 320.339 C 204.332 312.279,203.511 311.364,195.564 310.010 C 193.054 309.582,189.380 308.936,187.400 308.574 C 178.961 307.031,175.692 309.093,176.729 315.306 C 178.369 325.142,178.781 334.731,177.608 335.793 C 176.037 337.215,164.258 337.137,163.707 335.701 C 163.571 335.347,163.767 332.885,164.142 330.229 C 164.517 327.573,164.846 322.699,164.873 319.398 C 164.950 309.889,164.432 309.415,153.600 309.085 C 148.536 308.931,145.899 308.641,142.268 307.842 C 136.896 306.659,135.920 306.605,134.108 307.393 M144.200 315.394 C 145.960 315.712,149.128 315.978,151.240 315.986 C 158.886 316.014,159.262 317.223,156.563 333.092 C 154.810 343.399,155.185 343.690,170.000 343.518 C 186.456 343.328,186.445 343.341,184.940 325.173 C 184.038 314.294,183.528 314.969,191.512 316.472 C 197.117 317.527,197.443 317.787,197.778 321.464 C 199.033 335.258,200.660 341.687,203.233 343.017 C 205.330 344.101,229.114 343.715,230.671 342.572 C 234.089 340.063,233.999 334.503,230.375 324.241 C 228.063 317.692,227.974 317.791,235.273 318.818 C 238.064 319.211,242.156 319.660,244.367 319.817 C 249.346 320.170,249.544 320.310,250.011 323.809 C 253.121 347.084,253.981 359.562,252.571 360.971 C 251.173 362.370,225.157 361.436,215.400 359.638 C 210.053 358.652,203.703 357.762,199.400 357.394 C 197.372 357.221,194.735 356.609,192.200 355.723 C 188.637 354.477,187.523 354.285,182.000 353.959 C 169.106 353.200,166.162 352.873,161.146 351.647 C 158.366 350.968,154.136 350.231,151.746 350.011 C 139.250 348.858,139.400 348.968,139.076 340.728 C 138.943 337.357,138.651 333.880,138.427 333.000 C 137.886 330.876,137.875 316.581,138.414 315.574 C 138.912 314.643,139.876 314.613,144.200 315.394 " stroke="none" fill="#EC791A" fill-rule="evenodd"></path><path id="path1" d="M0.000 200.000 L 0.000 400.000 200.000 400.000 L 400.000 400.000 400.000 200.000 L 400.000 0.000 200.000 0.000 L 0.000 0.000 0.000 200.000 M152.187 34.100 C 153.421 35.177,156.146 42.134,158.416 50.000 C 161.706 61.403,165.644 72.000,166.592 72.000 C 167.425 72.000,167.569 69.909,167.351 61.000 C 166.998 46.598,166.988 46.875,167.883 45.676 C 168.948 44.250,170.636 44.228,171.679 45.625 C 172.469 46.683,172.766 48.409,173.628 56.954 C 174.363 64.246,174.949 61.648,175.423 49.000 C 175.742 40.449,176.725 37.875,179.169 39.183 C 181.312 40.330,181.346 40.707,181.041 59.903 C 180.786 75.926,180.820 77.633,181.399 77.855 C 182.548 78.296,184.914 73.931,187.602 66.408 C 192.490 52.725,197.807 42.800,200.249 42.800 C 204.651 42.800,203.424 48.805,195.794 64.600 C 188.495 79.709,188.743 81.444,196.708 71.000 C 207.116 57.352,217.931 46.060,220.638 46.014 C 224.217 45.954,223.653 49.210,218.840 56.399 C 213.517 64.349,213.641 65.562,219.372 61.619 C 221.423 60.208,227.498 57.200,228.297 57.200 C 229.182 57.200,230.800 59.091,230.800 60.126 C 230.800 63.443,222.511 73.115,214.803 78.791 C 205.912 85.338,208.577 85.925,220.702 80.089 C 236.264 72.598,238.669 71.947,239.440 75.015 C 240.020 77.327,237.587 79.244,230.600 81.984 C 224.141 84.517,224.144 85.321,230.619 86.179 C 239.192 87.317,252.986 91.304,264.200 95.887 C 272.863 99.427,281.700 101.278,284.440 100.126 C 287.630 98.785,293.781 93.228,304.946 81.601 C 310.745 75.562,310.901 74.560,307.436 65.691 C 301.215 49.771,304.925 45.437,324.800 45.410 C 337.421 45.393,341.008 47.876,342.055 57.351 C 342.557 61.899,342.517 61.861,346.087 61.167 C 362.743 57.927,370.308 65.253,367.679 82.076 C 365.765 94.322,347.315 101.256,332.248 95.392 C 327.423 93.515,327.187 93.593,324.082 98.104 C 322.916 99.797,320.582 102.401,318.895 103.891 C 314.083 108.139,311.787 110.732,309.613 114.373 C 307.278 118.285,307.231 118.601,308.700 120.513 C 309.305 121.300,310.888 123.352,312.219 125.072 C 314.759 128.357,317.492 132.438,319.404 135.800 C 320.029 136.900,322.423 140.936,324.723 144.769 C 333.043 158.632,333.800 161.218,333.800 175.800 L 333.800 186.600 332.475 191.740 C 328.642 206.612,322.061 217.321,312.331 224.523 C 309.682 226.483,308.000 228.001,308.000 228.431 C 308.000 229.296,311.980 232.858,314.325 234.092 L 316.051 235.000 316.925 233.935 C 317.406 233.350,318.391 232.140,319.114 231.246 C 323.295 226.074,337.617 222.874,343.790 225.732 C 352.637 229.828,361.674 246.037,359.424 253.776 C 358.426 257.208,354.062 261.423,349.684 263.182 C 346.093 264.624,345.903 265.301,347.471 271.064 C 351.342 285.283,345.972 293.338,332.600 293.368 C 322.263 293.392,317.096 286.587,315.032 270.229 C 313.964 261.764,314.069 261.923,307.867 259.387 C 302.431 257.165,299.414 255.596,295.344 252.877 C 284.576 245.681,283.912 245.748,283.029 254.132 C 282.108 262.870,281.163 263.753,271.400 265.000 C 263.208 266.047,263.938 264.574,263.762 280.400 C 263.544 300.098,262.828 305.424,260.122 307.485 L 258.658 308.600 248.229 308.470 C 232.567 308.275,232.088 308.007,231.195 298.940 C 230.959 296.553,230.581 293.790,230.354 292.800 C 230.127 291.810,229.793 286.410,229.612 280.800 C 229.098 264.921,228.839 264.400,221.426 264.400 C 215.271 264.400,215.197 264.467,215.207 270.100 C 215.216 275.673,214.528 284.359,213.599 290.400 C 211.815 301.996,210.435 303.371,199.941 304.001 C 196.563 304.204,192.360 304.542,190.600 304.753 C 187.030 305.180,184.585 304.873,182.916 303.787 C 180.147 301.984,179.964 301.029,179.636 286.600 C 179.302 271.863,179.193 271.409,175.434 269.004 C 170.233 265.677,169.972 266.010,169.759 276.244 C 169.477 289.812,166.997 298.648,162.914 300.631 C 159.198 302.436,146.343 301.768,141.646 299.526 C 134.199 295.972,133.457 294.179,133.202 279.113 C 132.960 264.878,133.318 265.803,128.049 265.801 C 123.906 265.800,123.792 265.867,121.260 269.800 C 118.484 274.113,115.219 277.937,110.714 282.154 C 100.842 291.393,100.830 291.440,106.278 299.600 C 111.870 307.977,112.534 310.680,110.789 317.959 C 108.319 328.262,103.272 331.830,92.595 330.819 C 82.931 329.905,78.230 324.289,77.226 312.458 C 76.794 307.356,77.009 307.554,71.745 307.416 C 62.968 307.187,57.334 304.597,54.920 299.682 L 53.800 297.400 53.816 289.000 C 53.836 278.326,54.758 274.490,58.065 271.320 C 62.442 267.126,72.180 266.799,78.408 270.639 C 81.867 272.771,82.780 272.367,89.135 265.898 C 93.237 261.722,93.185 261.565,86.800 258.962 C 81.298 256.719,79.514 255.707,73.000 251.129 C 63.062 244.145,57.226 235.352,53.553 221.827 C 52.315 217.269,52.454 194.714,53.793 182.704 C 54.339 177.807,54.955 172.270,55.162 170.400 C 55.939 163.362,61.659 151.778,69.975 140.400 C 73.151 136.056,73.272 136.458,66.856 130.030 C 64.515 127.685,61.082 123.753,59.226 121.294 C 54.970 115.650,55.204 115.755,46.200 115.467 C 31.770 115.006,29.373 112.680,29.437 99.200 C 29.531 79.217,34.995 71.800,47.840 74.218 C 52.368 75.070,52.218 75.154,53.603 70.991 C 56.167 63.285,61.595 58.304,66.752 58.923 C 82.903 60.860,89.980 86.700,78.464 101.685 C 75.478 105.571,75.340 105.284,83.533 112.233 C 90.718 118.328,89.901 118.416,98.012 110.679 C 103.509 105.435,106.782 102.930,111.000 100.737 C 112.760 99.822,116.466 97.662,119.236 95.938 C 124.585 92.606,126.306 91.884,133.600 89.908 C 137.722 88.792,138.809 88.659,144.066 88.631 C 151.950 88.589,151.967 88.519,145.353 83.553 C 139.385 79.072,137.984 77.311,138.561 75.012 C 139.229 72.350,141.140 72.716,145.813 76.399 C 150.450 80.055,156.000 82.914,156.000 81.647 C 156.000 81.239,154.092 78.418,148.663 70.800 C 143.008 62.864,141.191 59.127,141.980 57.052 C 142.591 55.444,143.752 55.045,145.459 55.855 C 146.937 56.556,147.093 56.769,153.070 66.273 C 159.488 76.479,160.144 75.433,155.352 62.632 C 152.797 55.806,148.997 43.523,148.397 40.153 C 147.400 34.545,149.271 31.556,152.187 34.100 M316.400 54.035 C 312.741 54.742,312.559 55.843,314.992 62.557 C 319.988 76.338,319.814 78.341,313.047 85.000 C 310.364 87.640,306.928 91.218,305.411 92.950 C 303.894 94.683,300.256 98.157,297.327 100.670 C 290.641 106.406,290.659 106.256,296.185 110.177 C 300.278 113.081,300.810 113.037,302.879 109.627 C 305.033 106.077,308.467 102.121,312.045 99.068 C 315.207 96.371,315.576 95.956,318.924 91.336 C 323.276 85.332,326.878 84.348,333.994 87.217 C 343.769 91.158,355.620 89.033,358.818 82.766 C 359.823 80.794,359.961 72.658,359.019 70.836 C 357.011 66.953,347.421 68.189,341.025 73.156 C 335.091 77.764,332.738 78.399,330.369 76.031 C 328.352 74.013,328.699 71.805,331.746 67.279 C 335.011 62.430,334.811 55.297,331.374 53.990 C 330.129 53.517,318.910 53.551,316.400 54.035 M216.600 68.848 C 213.731 70.684,210.504 73.668,205.249 79.341 C 203.190 81.564,203.350 82.285,205.502 80.482 C 206.326 79.791,208.620 78.110,210.600 76.745 C 214.080 74.346,220.800 68.069,220.800 67.217 C 220.800 66.417,219.778 66.814,216.600 68.848 M64.156 68.607 C 61.770 70.993,61.003 73.687,60.968 79.800 C 60.913 89.426,57.671 91.895,52.427 86.305 C 46.572 80.064,40.957 80.510,38.834 87.385 C 37.288 92.390,36.818 102.992,38.041 105.276 C 39.135 107.321,48.846 108.110,52.154 106.423 C 56.767 104.072,58.231 104.942,63.588 113.216 C 67.723 119.602,76.323 128.800,78.159 128.800 C 79.541 128.800,83.162 125.169,83.186 123.758 C 83.209 122.380,73.761 114.028,69.282 111.467 C 63.126 107.946,62.902 104.850,68.459 100.072 C 74.251 95.091,76.425 89.506,75.935 80.860 C 75.482 72.862,67.846 64.918,64.156 68.607 M209.400 93.464 C 207.221 93.996,203.796 95.468,200.000 97.502 C 197.690 98.740,193.370 101.001,190.400 102.526 C 187.430 104.051,184.136 105.754,183.081 106.310 C 179.589 108.149,177.464 108.037,175.477 105.910 C 173.483 103.773,170.962 102.400,169.035 102.400 C 167.593 102.400,167.448 102.270,165.485 99.227 C 163.482 96.121,159.123 95.051,153.720 96.341 C 146.895 97.969,142.847 98.465,138.600 98.192 C 132.935 97.828,126.303 100.263,120.780 104.736 C 118.951 106.217,123.339 110.929,130.346 115.010 C 136.283 118.468,144.332 124.478,150.400 129.984 C 158.070 136.943,164.779 141.984,170.838 145.339 C 173.974 147.075,174.512 147.113,177.172 145.777 C 183.686 142.505,200.463 142.662,205.814 146.046 C 216.513 152.812,220.818 157.635,221.590 163.717 C 222.052 167.367,222.247 167.865,223.328 168.155 C 223.807 168.284,243.936 168.392,268.058 168.395 C 326.860 168.402,326.465 168.446,324.381 162.114 C 321.659 153.842,307.188 130.630,300.955 124.537 C 296.584 120.264,286.760 113.228,283.636 112.132 C 282.225 111.637,280.515 110.707,279.836 110.064 C 278.172 108.492,277.458 108.178,274.310 107.640 C 270.600 107.006,267.187 105.911,260.369 103.170 C 249.277 98.710,237.974 95.461,229.000 94.151 C 224.456 93.488,211.203 93.023,209.400 93.464 M110.127 111.049 C 108.857 111.672,102.827 117.209,95.585 124.400 C 93.481 126.490,90.050 129.828,87.962 131.817 C 74.910 144.251,63.923 163.272,62.790 175.400 C 62.543 178.040,61.994 183.260,61.570 186.999 C 60.686 194.801,60.478 214.510,61.236 218.611 C 61.681 221.020,65.352 230.359,67.127 233.600 C 68.634 236.350,71.934 240.256,74.181 241.948 C 85.115 250.183,92.231 253.408,102.500 254.784 C 104.205 255.013,106.905 255.376,108.500 255.590 C 115.520 256.535,124.702 257.347,130.818 257.565 C 141.435 257.942,140.937 257.116,141.200 274.781 C 141.467 292.674,141.585 292.874,152.093 293.138 L 157.585 293.276 158.742 292.120 C 160.797 290.064,161.307 286.689,161.571 273.400 C 161.818 260.972,161.832 260.885,164.022 259.043 C 166.169 257.237,171.233 257.664,176.200 260.071 C 186.848 265.231,187.406 266.446,187.877 285.530 C 188.166 297.203,187.912 296.625,192.582 296.242 C 194.352 296.097,197.330 295.872,199.200 295.742 C 205.599 295.297,206.181 293.467,206.753 271.972 C 207.186 255.715,206.546 256.400,221.307 256.400 C 234.061 256.400,235.215 256.839,235.818 261.921 C 235.967 263.174,236.429 265.885,236.844 267.944 C 237.417 270.783,237.600 273.416,237.600 278.837 C 237.600 285.385,238.706 295.352,239.823 298.871 C 240.161 299.938,242.512 300.395,247.674 300.398 C 255.835 300.402,255.264 301.906,255.565 279.600 C 255.865 257.359,255.158 258.767,266.786 257.275 C 275.168 256.199,274.567 257.004,275.794 245.200 C 277.437 229.394,277.491 229.274,283.635 227.851 C 303.504 223.253,313.276 216.163,320.599 201.034 C 325.913 190.057,328.005 172.818,323.854 174.213 C 321.173 175.113,310.480 175.336,268.378 175.370 C 216.410 175.411,221.653 174.969,219.872 179.457 C 215.981 189.261,207.777 193.606,193.200 193.583 C 178.840 193.561,172.123 190.551,168.239 182.400 L 167.000 179.800 166.876 171.400 L 166.751 163.000 168.184 158.442 C 169.713 153.576,169.626 152.420,167.677 151.711 C 164.875 150.690,153.426 142.228,146.970 136.405 C 141.410 131.390,132.613 124.580,128.934 122.444 C 125.267 120.315,121.632 117.753,118.719 115.244 C 113.564 110.804,112.091 110.085,110.127 111.049 M123.051 143.667 C 136.593 147.275,141.582 155.930,136.346 166.731 C 132.857 173.929,129.195 175.800,118.600 175.800 L 110.600 175.800 108.600 174.625 C 101.954 170.722,100.260 167.474,100.464 159.024 C 100.631 152.122,101.375 150.205,105.299 146.572 C 110.627 141.639,113.607 141.152,123.051 143.667 M112.200 150.057 C 109.018 151.841,107.561 154.378,107.307 158.575 C 106.852 166.096,109.295 167.603,111.255 161.010 C 111.714 159.465,112.710 156.700,113.468 154.866 C 115.324 150.377,114.848 148.572,112.200 150.057 M191.600 151.212 C 190.830 151.418,188.400 151.558,186.200 151.525 C 181.074 151.446,180.844 151.538,178.217 154.703 C 172.235 161.909,171.744 178.237,177.365 183.048 C 180.800 185.989,196.438 187.816,202.595 185.995 C 209.214 184.038,213.375 179.248,214.020 172.841 C 214.210 170.948,214.483 168.500,214.626 167.400 C 215.187 163.089,213.741 160.757,207.502 155.904 C 201.234 151.030,196.980 149.774,191.600 151.212 M122.011 152.500 C 118.523 160.940,116.554 167.120,117.084 167.963 C 117.741 169.007,123.918 169.062,125.918 168.042 C 130.063 165.927,132.321 159.760,130.316 156.027 C 128.393 152.446,122.983 150.148,122.011 152.500 M145.858 198.370 C 147.530 199.390,153.003 205.675,154.460 208.251 C 155.099 209.380,156.686 211.540,157.986 213.051 C 164.087 220.141,164.819 221.656,163.437 224.328 C 162.085 226.943,161.803 226.987,145.499 227.118 C 131.565 227.231,130.705 227.195,129.005 226.443 C 125.240 224.778,125.102 221.669,128.611 217.571 C 131.842 213.798,134.618 209.535,136.856 204.910 C 140.230 197.936,142.473 196.306,145.858 198.370 M143.663 210.337 C 142.494 211.506,139.528 217.131,139.674 217.902 C 139.924 219.216,150.059 219.303,150.307 217.994 C 150.532 216.810,145.737 209.600,144.725 209.600 C 144.546 209.600,144.068 209.932,143.663 210.337 M331.730 233.596 C 325.408 235.253,324.192 236.659,324.574 241.865 C 325.110 249.168,321.641 250.917,316.000 246.188 C 305.936 237.750,302.568 235.546,297.900 234.342 L 294.401 233.440 291.393 234.189 C 285.671 235.613,284.517 237.297,288.000 239.141 C 292.365 241.452,297.300 244.356,301.035 246.811 C 308.448 251.685,313.431 253.181,316.096 251.333 C 320.802 248.072,322.378 250.613,322.834 262.200 C 323.553 280.488,326.262 285.831,334.437 285.090 C 339.275 284.651,340.530 283.080,340.257 277.800 C 339.937 271.599,339.040 269.722,334.134 264.992 C 329.121 260.159,328.406 259.147,328.403 256.874 C 328.395 251.899,332.046 251.172,337.676 255.028 C 341.529 257.667,342.199 257.712,346.367 255.617 C 352.155 252.707,352.719 250.126,349.117 243.028 C 344.675 234.276,339.614 231.530,331.730 233.596 M102.946 264.768 C 101.167 265.576,88.979 276.961,86.127 280.479 C 82.464 284.998,77.696 284.661,75.658 279.739 C 74.169 276.146,66.756 274.782,63.953 277.585 C 62.358 279.180,61.974 281.255,61.957 288.358 C 61.936 297.083,62.740 298.316,68.919 299.042 C 72.260 299.435,73.254 298.870,74.969 295.606 C 77.536 290.722,80.703 289.140,83.268 291.462 C 84.910 292.947,84.995 293.527,85.200 304.609 L 85.401 315.418 86.745 318.148 C 90.847 326.481,102.228 323.940,103.084 314.500 C 103.494 309.980,98.832 301.239,94.023 297.511 C 89.518 294.019,89.446 288.285,93.881 286.323 C 97.697 284.635,113.765 267.724,113.521 265.654 C 113.310 263.873,106.225 263.280,102.946 264.768 M142.268 307.842 C 145.899 308.641,148.536 308.931,153.600 309.085 C 164.432 309.415,164.950 309.889,164.873 319.398 C 164.846 322.699,164.517 327.573,164.142 330.229 C 163.767 332.885,163.571 335.347,163.707 335.701 C 164.258 337.137,176.037 337.215,177.608 335.793 C 178.781 334.731,178.369 325.142,176.729 315.306 C 175.692 309.093,178.961 307.031,187.400 308.574 C 189.380 308.936,193.054 309.582,195.564 310.010 C 203.511 311.364,204.332 312.279,204.834 320.339 C 205.402 329.456,206.581 335.241,208.029 336.015 C 209.549 336.829,224.594 336.491,225.377 335.626 C 226.510 334.374,224.698 327.914,220.988 319.975 C 219.036 315.799,218.911 315.067,219.786 312.973 C 220.957 310.170,222.585 309.971,232.717 311.396 C 236.612 311.944,242.278 312.567,245.306 312.782 C 255.318 313.492,256.319 314.154,256.872 320.424 C 257.074 322.721,257.672 328.110,258.201 332.400 C 261.369 358.087,261.068 366.952,256.980 368.334 C 253.333 369.568,225.009 368.416,214.600 366.611 C 209.152 365.666,201.979 364.689,196.896 364.200 C 194.393 363.959,192.930 363.576,188.800 362.076 C 187.194 361.493,185.035 361.202,180.800 360.997 C 177.610 360.842,174.898 360.654,174.773 360.579 C 174.649 360.505,172.489 360.326,169.973 360.183 C 167.055 360.016,163.703 359.500,160.710 358.758 C 158.131 358.117,154.171 357.409,151.910 357.184 C 149.650 356.958,146.810 356.601,145.600 356.389 C 144.390 356.177,141.972 355.823,140.228 355.602 C 133.223 354.717,132.338 353.537,131.973 344.600 C 131.829 341.080,131.538 337.660,131.327 337.000 C 130.554 334.588,131.182 310.642,132.056 309.204 C 133.624 306.626,135.569 306.367,142.268 307.842 M138.414 315.574 C 137.875 316.581,137.886 330.876,138.427 333.000 C 138.651 333.880,138.943 337.357,139.076 340.728 C 139.400 348.968,139.250 348.858,151.746 350.011 C 154.136 350.231,158.366 350.968,161.146 351.647 C 166.162 352.873,169.106 353.200,182.000 353.959 C 187.523 354.285,188.637 354.477,192.200 355.723 C 194.735 356.609,197.372 357.221,199.400 357.394 C 203.703 357.762,210.053 358.652,215.400 359.638 C 225.157 361.436,251.173 362.370,252.571 360.971 C 253.981 359.562,253.121 347.084,250.011 323.809 C 249.544 320.310,249.346 320.170,244.367 319.817 C 242.156 319.660,238.064 319.211,235.273 318.818 C 227.974 317.791,228.063 317.692,230.375 324.241 C 233.999 334.503,234.089 340.063,230.671 342.572 C 229.114 343.715,205.330 344.101,203.233 343.017 C 200.660 341.687,199.033 335.258,197.778 321.464 C 197.443 317.787,197.117 317.527,191.512 316.472 C 183.528 314.969,184.038 314.294,184.940 325.173 C 186.445 343.341,186.456 343.328,170.000 343.518 C 155.185 343.690,154.810 343.399,156.563 333.092 C 159.262 317.223,158.886 316.014,151.240 315.986 C 149.128 315.978,145.960 315.712,144.200 315.394 C 139.876 314.613,138.912 314.643,138.414 315.574 " stroke="none" fill="transparent" fill-rule="evenodd"></path></g></svg>