<svg id="svg" version="1.1" xmlns="http://www.w3.org/2000/svg" xmlns:xlink="http://www.w3.org/1999/xlink" width="400" height="400" viewBox="0, 0, 400,400"><g id="svgg"><path id="path0" d="M169.000 64.310 C 168.219 64.447,165.683 65.217,158.800 67.404 C 153.175 69.192,144.011 73.224,141.427 75.048 C 140.092 75.990,136.120 78.739,132.600 81.157 C 122.711 87.948,109.072 99.523,104.181 105.273 C 100.424 109.691,100.349 109.698,94.769 106.146 C 87.855 101.745,87.582 101.252,89.085 95.858 C 91.499 87.191,88.876 74.511,83.736 69.997 C 79.373 66.166,70.448 65.809,67.552 69.350 C 66.088 71.140,65.133 77.869,65.228 85.732 C 65.297 91.498,65.249 91.569,61.911 90.635 C 48.077 86.763,40.599 95.979,44.765 111.766 C 47.674 122.787,58.762 127.178,70.333 121.889 C 76.859 118.906,78.277 119.316,82.398 125.375 C 83.455 126.929,85.057 128.912,85.960 129.781 C 88.075 131.820,88.072 131.862,85.364 141.469 L 83.128 149.400 82.738 161.800 C 82.181 179.493,82.822 183.552,87.786 193.800 C 91.960 202.415,103.392 210.753,119.263 216.756 C 133.728 222.228,133.681 222.187,137.932 233.200 C 142.589 245.264,143.500 252.520,143.990 281.400 L 144.342 302.200 142.107 305.600 C 139.524 309.528,138.874 310.295,131.851 317.688 C 125.386 324.494,126.109 324.280,122.429 320.479 C 120.076 318.049,118.664 316.979,116.214 315.767 L 113.043 314.200 108.021 314.200 C 98.455 314.200,96.441 317.706,96.874 333.609 C 97.180 344.829,105.942 352.800,117.971 352.800 C 121.980 352.800,122.151 352.905,122.790 355.757 C 125.307 366.985,145.226 368.602,148.500 357.844 C 148.781 356.920,148.987 354.272,148.970 351.800 C 148.938 347.169,148.785 346.606,145.588 339.353 C 143.204 333.943,151.103 327.713,156.731 330.565 C 157.779 331.096,160.338 331.991,162.418 332.553 C 170.804 334.822,170.998 334.836,200.600 335.213 C 230.364 335.592,231.122 335.556,235.667 333.567 C 239.783 331.766,240.411 332.027,250.296 339.638 C 253.323 341.969,257.330 344.826,259.200 345.986 C 265.081 349.635,264.940 349.300,263.217 355.573 C 259.587 368.785,262.185 374.780,272.304 376.536 C 279.045 377.706,281.100 376.307,285.234 367.729 C 288.477 361.001,288.452 361.019,291.706 363.139 C 299.348 368.118,310.951 368.111,313.516 363.127 C 315.507 359.258,316.591 347.496,315.435 342.301 C 313.957 335.658,308.166 329.826,301.680 328.450 C 296.424 327.335,286.714 327.991,282.219 329.765 C 275.895 332.260,271.868 331.157,262.800 324.446 C 260.710 322.899,257.777 320.961,256.281 320.139 C 249.549 316.439,249.200 315.709,249.200 305.326 C 249.200 300.982,249.000 294.968,248.755 291.962 C 248.215 285.325,248.298 285.086,252.200 282.103 C 271.852 267.078,278.215 257.352,289.429 225.200 C 294.308 211.211,297.119 186.240,295.577 170.600 C 295.360 168.400,295.035 164.080,294.854 161.000 C 294.513 155.174,293.978 153.179,291.344 147.913 C 289.687 144.602,290.155 143.949,296.790 140.303 C 298.445 139.393,302.916 136.703,306.724 134.326 C 316.279 128.361,315.836 128.388,321.302 133.420 C 327.248 138.893,333.697 140.565,342.114 138.818 C 360.322 135.038,357.417 103.530,338.905 104.013 C 336.757 104.070,334.772 104.089,334.493 104.058 C 334.100 104.013,334.045 103.025,334.249 99.671 C 334.811 90.414,331.067 86.519,321.932 86.860 C 311.951 87.232,306.450 93.159,306.022 104.000 C 305.733 111.315,305.678 111.439,301.800 113.680 C 300.260 114.570,296.840 116.690,294.200 118.392 C 287.596 122.650,284.180 124.481,283.128 124.329 C 282.108 124.181,278.338 119.119,274.192 112.328 C 265.858 98.681,253.632 86.812,243.336 82.374 C 240.221 81.031,236.441 79.202,234.936 78.308 C 233.431 77.414,230.220 75.828,227.800 74.783 C 220.484 71.625,215.533 69.390,212.919 68.065 C 208.240 65.694,204.045 64.720,197.800 64.554 C 188.861 64.318,169.875 64.157,169.000 64.310 M201.848 71.818 C 205.433 72.441,206.682 72.926,217.200 77.777 C 220.390 79.248,224.170 80.898,225.600 81.443 C 227.030 81.988,228.846 82.860,229.636 83.380 C 231.670 84.721,236.938 87.330,241.038 89.027 C 248.570 92.145,260.840 104.011,267.067 114.200 C 268.278 116.180,270.849 120.140,272.783 123.000 C 277.805 130.430,279.677 134.470,281.613 142.051 C 282.070 143.839,283.352 147.304,284.463 149.751 C 287.464 156.362,287.622 156.934,288.058 162.800 C 289.171 177.765,288.886 194.364,287.372 202.800 C 284.813 217.048,283.953 220.438,280.928 228.200 C 279.727 231.280,278.107 235.510,277.327 237.600 C 270.690 255.384,258.279 271.110,245.639 277.752 C 240.709 280.343,240.662 280.565,241.985 295.200 C 244.087 318.445,238.842 328.415,224.500 328.438 C 166.309 328.531,158.953 327.336,153.998 316.987 C 151.727 312.245,149.951 287.862,151.702 285.467 C 153.051 283.622,157.189 283.518,157.204 285.329 C 157.249 290.730,164.829 295.304,170.521 293.365 C 172.238 292.780,172.543 292.783,174.422 293.407 C 176.387 294.060,177.321 294.071,183.400 293.511 L 184.600 293.400 184.648 297.275 C 184.723 303.234,186.375 305.198,191.313 305.199 C 194.432 305.200,195.909 304.497,197.976 302.028 C 200.144 299.439,200.386 299.720,200.394 304.841 C 200.401 309.366,201.191 311.058,203.678 311.878 C 211.530 314.467,226.652 292.427,223.875 282.441 C 223.504 281.105,223.194 278.974,223.187 277.706 C 223.119 265.659,216.676 260.031,209.840 266.048 C 207.745 267.892,207.039 267.950,204.287 266.503 C 202.441 265.533,201.763 265.406,198.426 265.403 L 194.653 265.400 193.603 263.600 C 191.366 259.765,185.369 258.402,180.449 260.610 C 177.537 261.917,177.617 261.964,177.213 258.704 C 176.515 253.075,173.299 250.984,167.797 252.584 C 165.155 253.352,165.141 253.344,163.637 250.330 C 161.410 245.868,155.893 243.663,151.323 245.408 C 149.008 246.292,148.680 245.961,148.017 242.073 C 147.766 240.603,146.850 237.296,145.980 234.725 C 144.365 229.947,144.080 228.400,144.816 228.400 C 145.620 228.400,148.574 230.112,151.373 232.199 C 157.711 236.926,162.866 237.205,164.662 232.917 C 167.106 227.081,163.472 209.365,158.983 205.227 C 155.541 202.054,153.782 202.627,147.000 209.125 C 137.757 217.983,138.886 217.612,131.447 214.243 C 128.341 212.836,124.000 211.014,121.800 210.192 C 107.918 205.009,97.310 197.533,94.001 190.600 C 89.491 181.152,89.129 178.400,89.898 159.400 L 90.286 149.800 92.322 142.600 C 95.320 132.000,95.449 131.686,100.183 123.480 C 106.376 112.747,110.886 107.519,122.000 98.191 C 129.562 91.845,131.760 90.160,137.368 86.411 C 139.771 84.805,142.548 82.871,143.541 82.113 C 148.983 77.959,162.463 72.808,167.942 72.789 C 169.679 72.784,172.210 72.448,173.800 72.014 C 177.586 70.979,196.272 70.848,201.848 71.818 M78.650 74.996 C 82.411 77.460,83.874 87.052,81.834 95.871 C 79.799 104.671,79.939 104.982,88.414 110.421 C 97.019 115.944,96.835 115.546,93.401 121.199 C 91.245 124.747,90.237 124.593,87.466 120.290 C 86.726 119.140,84.579 116.726,82.695 114.925 C 77.899 110.338,77.949 110.341,70.290 114.053 C 57.981 120.018,51.677 117.125,50.915 105.163 C 50.264 94.932,58.429 93.673,67.912 102.542 C 74.843 109.024,78.444 105.179,74.415 95.600 C 71.903 89.629,71.456 76.944,73.679 74.721 C 74.636 73.764,76.967 73.893,78.650 74.996 M326.382 95.001 C 328.667 97.290,326.413 104.579,321.648 110.304 C 318.346 114.272,318.022 115.684,319.969 117.631 C 322.097 119.759,324.467 119.207,328.648 115.610 C 337.906 107.645,347.424 110.975,347.362 122.157 C 347.321 129.415,344.335 132.012,336.008 132.030 C 330.239 132.042,330.024 131.950,325.284 127.458 C 318.116 120.665,314.629 119.975,309.133 124.265 C 304.655 127.759,289.789 136.483,288.600 136.314 C 287.467 136.153,286.202 133.643,286.552 132.250 C 286.832 131.132,287.115 130.927,294.400 126.555 C 296.050 125.565,299.200 123.592,301.400 122.170 C 303.870 120.574,306.471 119.258,308.200 118.730 C 312.915 117.289,314.717 114.510,313.548 110.484 C 312.750 107.740,312.851 100.557,313.710 98.940 C 316.103 94.434,323.514 92.130,326.382 95.001 M128.162 114.436 C 127.743 114.895,127.130 116.105,126.800 117.124 C 126.131 119.187,125.515 119.622,121.860 120.612 C 118.051 121.643,116.481 124.248,118.416 126.325 C 119.353 127.331,119.506 127.361,123.793 127.383 L 126.985 127.400 127.830 129.765 C 130.124 136.190,135.109 135.680,134.676 129.065 C 134.436 125.402,134.838 124.725,137.679 124.007 C 147.431 121.541,146.801 114.900,137.002 116.868 L 134.671 117.336 133.094 115.468 C 131.275 113.313,129.520 112.946,128.162 114.436 M162.870 133.326 C 161.173 135.132,161.747 138.078,165.282 145.720 C 167.104 149.658,167.238 150.143,166.796 151.209 C 166.262 152.499,159.340 157.357,154.852 159.592 C 150.323 161.846,149.016 164.453,151.454 166.371 C 153.606 168.063,157.168 166.820,165.238 161.558 C 171.070 157.754,170.682 157.587,174.180 165.415 C 180.647 179.887,182.123 181.706,185.346 179.171 C 186.839 177.997,186.750 175.971,185.048 172.309 C 176.687 154.327,176.608 154.065,178.900 151.962 C 180.988 150.045,184.036 148.766,187.478 148.361 C 192.908 147.722,194.000 147.104,194.000 144.670 C 194.000 140.339,184.684 140.063,177.839 144.192 C 173.395 146.872,173.227 146.760,169.945 138.943 C 167.233 132.486,165.186 130.861,162.870 133.326 M155.775 213.305 C 156.986 215.154,158.404 222.821,158.071 225.724 C 157.868 227.495,156.972 227.445,154.079 225.502 C 152.606 224.512,150.410 223.116,149.200 222.399 C 145.461 220.183,145.469 220.133,150.207 215.845 C 154.282 212.158,154.852 211.898,155.775 213.305 M156.240 252.706 C 157.183 253.336,157.600 254.867,157.600 257.697 C 157.600 261.549,157.082 262.373,155.253 261.428 C 151.548 259.511,151.348 252.412,155.000 252.412 C 155.440 252.412,155.998 252.544,156.240 252.706 M170.010 261.426 C 170.744 263.356,170.151 267.600,169.148 267.600 C 166.045 267.600,165.278 265.135,167.390 261.944 C 168.576 260.151,169.459 259.977,170.010 261.426 M187.009 267.758 C 188.236 269.630,186.714 272.000,184.285 272.000 C 181.486 272.000,180.779 270.163,182.760 268.042 C 184.233 266.466,186.082 266.342,187.009 267.758 M155.018 270.182 C 156.299 271.463,156.258 272.498,154.865 274.058 C 153.500 275.585,152.930 275.343,152.594 273.091 C 152.107 269.830,153.270 268.434,155.018 270.182 M215.610 273.026 C 216.269 274.759,216.103 281.040,215.379 281.764 C 213.885 283.257,210.960 280.609,211.441 278.200 C 212.298 273.913,214.777 270.836,215.610 273.026 M201.400 273.744 C 202.464 275.367,201.320 276.730,199.480 276.030 C 198.017 275.474,197.469 274.592,197.986 273.626 C 198.617 272.447,200.595 272.515,201.400 273.744 M167.288 274.624 C 169.916 275.519,170.619 276.450,170.513 278.894 C 170.094 288.633,164.054 289.226,163.666 279.566 C 163.443 274.013,163.853 273.453,167.288 274.624 M181.200 279.840 C 181.200 280.840,179.952 283.218,179.556 282.973 C 179.150 282.722,179.080 280.778,179.443 279.833 C 179.761 279.003,181.200 279.009,181.200 279.840 M196.826 282.814 C 198.003 283.444,197.786 284.721,195.595 290.052 C 192.601 297.335,191.713 297.849,192.157 292.044 C 192.738 284.429,194.252 281.436,196.826 282.814 M212.247 289.165 C 215.445 290.618,215.632 291.950,213.227 296.153 C 208.638 304.174,206.769 302.873,207.972 292.496 C 208.463 288.254,209.117 287.744,212.247 289.165 M145.480 315.300 C 146.062 316.071,148.400 321.905,148.400 322.586 C 148.400 322.919,147.151 324.100,145.624 325.210 C 137.666 330.998,135.626 336.048,138.842 342.000 C 144.419 352.325,142.750 359.356,135.089 357.808 C 130.399 356.859,129.573 355.519,129.663 349.000 C 129.767 341.526,126.618 338.274,123.066 342.186 C 119.570 346.035,120.252 345.691,116.438 345.527 C 107.239 345.132,102.892 339.030,103.981 328.037 C 104.643 321.354,104.886 320.979,108.500 321.053 C 114.054 321.167,119.186 325.513,120.171 330.936 C 121.260 336.932,125.130 337.177,129.222 331.510 C 131.865 327.850,132.930 326.640,139.264 320.100 C 144.517 314.676,144.827 314.436,145.480 315.300 M251.397 325.449 C 253.550 326.686,257.311 329.136,259.754 330.893 C 267.195 336.246,270.838 337.749,277.454 338.195 L 281.400 338.461 284.574 336.831 L 287.747 335.200 293.727 335.200 C 305.626 335.200,308.631 338.118,308.558 349.600 C 308.497 359.271,308.095 359.915,302.383 359.506 C 296.804 359.107,292.205 355.598,289.308 349.530 C 287.469 345.679,287.011 345.206,284.835 344.914 C 281.441 344.459,279.792 348.244,281.400 352.800 C 282.477 355.853,282.201 357.583,279.786 362.902 C 276.630 369.854,275.487 370.669,271.262 368.978 C 268.275 367.783,268.012 362.221,270.609 355.200 C 273.604 347.105,273.197 344.752,268.500 343.000 C 264.974 341.685,259.791 338.157,246.100 327.754 C 244.659 326.659,244.443 325.488,245.423 324.089 C 246.331 322.792,247.057 322.957,251.397 325.449 " stroke="none" fill="#EC791A" fill-rule="evenodd"></path><path id="path1" d="M0.000 200.000 L 0.000 400.000 200.000 400.000 L 400.000 400.000 400.000 200.000 L 400.000 0.000 200.000 0.000 L 0.000 0.000 0.000 200.000 M197.800 64.554 C 204.045 64.720,208.240 65.694,212.919 68.065 C 215.533 69.390,220.484 71.625,227.800 74.783 C 230.220 75.828,233.431 77.414,234.936 78.308 C 236.441 79.202,240.221 81.031,243.336 82.374 C 253.632 86.812,265.858 98.681,274.192 112.328 C 278.338 119.119,282.108 124.181,283.128 124.329 C 284.180 124.481,287.596 122.650,294.200 118.392 C 296.840 116.690,300.260 114.570,301.800 113.680 C 305.678 111.439,305.733 111.315,306.022 104.000 C 306.450 93.159,311.951 87.232,321.932 86.860 C 331.067 86.519,334.811 90.414,334.249 99.671 C 334.045 103.025,334.100 104.013,334.493 104.058 C 334.772 104.089,336.757 104.070,338.905 104.013 C 357.417 103.530,360.322 135.038,342.114 138.818 C 333.697 140.565,327.248 138.893,321.302 133.420 C 315.836 128.388,316.279 128.361,306.724 134.326 C 302.916 136.703,298.445 139.393,296.790 140.303 C 290.155 143.949,289.687 144.602,291.344 147.913 C 293.978 153.179,294.513 155.174,294.854 161.000 C 295.035 164.080,295.360 168.400,295.577 170.600 C 297.119 186.240,294.308 211.211,289.429 225.200 C 278.215 257.352,271.852 267.078,252.200 282.103 C 248.298 285.086,248.215 285.325,248.755 291.962 C 249.000 294.968,249.200 300.982,249.200 305.326 C 249.200 315.709,249.549 316.439,256.281 320.139 C 257.777 320.961,260.710 322.899,262.800 324.446 C 271.868 331.157,275.895 332.260,282.219 329.765 C 286.714 327.991,296.424 327.335,301.680 328.450 C 308.166 329.826,313.957 335.658,315.435 342.301 C 316.591 347.496,315.507 359.258,313.516 363.127 C 310.951 368.111,299.348 368.118,291.706 363.139 C 288.452 361.019,288.477 361.001,285.234 367.729 C 281.100 376.307,279.045 377.706,272.304 376.536 C 262.185 374.780,259.587 368.785,263.217 355.573 C 264.940 349.300,265.081 349.635,259.200 345.986 C 257.330 344.826,253.323 341.969,250.296 339.638 C 240.411 332.027,239.783 331.766,235.667 333.567 C 231.122 335.556,230.364 335.592,200.600 335.213 C 170.998 334.836,170.804 334.822,162.418 332.553 C 160.338 331.991,157.779 331.096,156.731 330.565 C 153.472 328.913,150.084 329.884,146.847 333.396 C 144.691 335.735,144.465 336.804,145.588 339.353 C 148.785 346.606,148.938 347.169,148.970 351.800 C 148.987 354.272,148.781 356.920,148.500 357.844 C 145.226 368.602,125.307 366.985,122.790 355.757 C 122.151 352.905,121.980 352.800,117.971 352.800 C 105.942 352.800,97.180 344.829,96.874 333.609 C 96.441 317.706,98.455 314.200,108.021 314.200 L 113.043 314.200 116.214 315.767 C 118.664 316.979,120.076 318.049,122.429 320.479 C 126.109 324.280,125.386 324.494,131.851 317.688 C 138.874 310.295,139.524 309.528,142.107 305.600 L 144.342 302.200 143.990 281.400 C 143.500 252.520,142.589 245.264,137.932 233.200 C 133.681 222.187,133.728 222.228,119.263 216.756 C 103.392 210.753,91.960 202.415,87.786 193.800 C 82.822 183.552,82.181 179.493,82.738 161.800 L 83.128 149.400 85.364 141.469 C 88.072 131.862,88.075 131.820,85.960 129.781 C 85.057 128.912,83.455 126.929,82.398 125.375 C 78.277 119.316,76.859 118.906,70.333 121.889 C 58.762 127.178,47.674 122.787,44.765 111.766 C 40.599 95.979,48.077 86.763,61.911 90.635 C 65.249 91.569,65.297 91.498,65.228 85.732 C 65.133 77.869,66.088 71.140,67.552 69.350 C 70.448 65.809,79.373 66.166,83.736 69.997 C 88.876 74.511,91.499 87.191,89.085 95.858 C 87.582 101.252,87.855 101.745,94.769 106.146 C 100.349 109.698,100.424 109.691,104.181 105.273 C 109.072 99.523,122.711 87.948,132.600 81.157 C 136.120 78.739,140.092 75.990,141.427 75.048 C 144.011 73.224,153.175 69.192,158.800 67.404 C 165.683 65.217,168.219 64.447,169.000 64.310 C 169.875 64.157,188.861 64.318,197.800 64.554 M173.800 72.014 C 172.210 72.448,169.679 72.784,167.942 72.789 C 162.463 72.808,148.983 77.959,143.541 82.113 C 142.548 82.871,139.771 84.805,137.368 86.411 C 117.365 99.782,103.720 114.450,96.260 130.599 C 95.068 133.179,94.475 134.987,92.322 142.600 L 90.286 149.800 89.898 159.400 C 89.129 178.400,89.491 181.152,94.001 190.600 C 97.310 197.533,107.918 205.009,121.800 210.192 C 124.000 211.014,128.341 212.836,131.447 214.243 C 138.886 217.612,137.757 217.983,147.000 209.125 C 153.782 202.627,155.541 202.054,158.983 205.227 C 163.472 209.365,167.106 227.081,164.662 232.917 C 162.866 237.205,157.711 236.926,151.373 232.199 C 148.574 230.112,145.620 228.400,144.816 228.400 C 144.080 228.400,144.365 229.947,145.980 234.725 C 146.850 237.296,147.766 240.603,148.017 242.073 C 148.680 245.961,149.008 246.292,151.323 245.408 C 155.893 243.663,161.410 245.868,163.637 250.330 C 165.141 253.344,165.155 253.352,167.797 252.584 C 173.299 250.984,176.515 253.075,177.213 258.704 C 177.617 261.964,177.537 261.917,180.449 260.610 C 185.369 258.402,191.366 259.765,193.603 263.600 L 194.653 265.400 198.426 265.403 C 201.763 265.406,202.441 265.533,204.287 266.503 C 207.039 267.950,207.745 267.892,209.840 266.048 C 216.676 260.031,223.119 265.659,223.187 277.706 C 223.194 278.974,223.504 281.105,223.875 282.441 C 226.652 292.427,211.530 314.467,203.678 311.878 C 201.191 311.058,200.401 309.366,200.394 304.841 C 200.386 299.720,200.144 299.439,197.976 302.028 C 195.909 304.497,194.432 305.200,191.313 305.199 C 186.375 305.198,184.723 303.234,184.648 297.275 L 184.600 293.400 183.400 293.511 C 177.321 294.071,176.387 294.060,174.422 293.407 C 172.543 292.783,172.238 292.780,170.521 293.365 C 164.829 295.304,157.249 290.730,157.204 285.329 C 157.189 283.518,153.051 283.622,151.702 285.467 C 149.951 287.862,151.727 312.245,153.998 316.987 C 158.582 326.560,162.345 327.549,196.200 328.073 C 232.144 328.629,230.078 328.720,233.681 326.435 C 241.177 321.681,243.567 312.691,241.985 295.200 C 240.662 280.565,240.709 280.343,245.639 277.752 C 258.279 271.110,270.690 255.384,277.327 237.600 C 278.107 235.510,279.727 231.280,280.928 228.200 C 283.953 220.438,284.813 217.048,287.372 202.800 C 288.886 194.364,289.171 177.765,288.058 162.800 C 287.622 156.934,287.464 156.362,284.463 149.751 C 283.352 147.304,282.070 143.839,281.613 142.051 C 279.677 134.470,277.805 130.430,272.783 123.000 C 270.849 120.140,268.278 116.180,267.067 114.200 C 260.840 104.011,248.570 92.145,241.038 89.027 C 236.938 87.330,231.670 84.721,229.636 83.380 C 228.846 82.860,227.030 81.988,225.600 81.443 C 224.170 80.898,220.390 79.248,217.200 77.777 C 202.829 71.149,203.014 71.190,187.448 71.224 C 178.055 71.245,176.224 71.351,173.800 72.014 M73.679 74.721 C 71.456 76.944,71.903 89.629,74.415 95.600 C 78.444 105.179,74.843 109.024,67.912 102.542 C 58.429 93.673,50.264 94.932,50.915 105.163 C 51.677 117.125,57.981 120.018,70.290 114.053 C 77.949 110.341,77.899 110.338,82.695 114.925 C 84.579 116.726,86.726 119.140,87.466 120.290 C 90.237 124.593,91.245 124.747,93.401 121.199 C 96.835 115.546,97.019 115.944,88.414 110.421 C 79.939 104.982,79.799 104.671,81.834 95.871 C 84.420 84.690,81.820 74.890,76.062 74.118 C 74.833 73.953,74.317 74.083,73.679 74.721 M319.588 94.192 C 313.897 96.017,311.344 102.902,313.548 110.484 C 314.717 114.510,312.915 117.289,308.200 118.730 C 306.471 119.258,303.870 120.574,301.400 122.170 C 299.200 123.592,296.050 125.565,294.400 126.555 C 287.115 130.927,286.832 131.132,286.552 132.250 C 286.202 133.643,287.467 136.153,288.600 136.314 C 289.789 136.483,304.655 127.759,309.133 124.265 C 314.629 119.975,318.116 120.665,325.284 127.458 C 330.024 131.950,330.239 132.042,336.008 132.030 C 344.335 132.012,347.321 129.415,347.362 122.157 C 347.424 110.975,337.906 107.645,328.648 115.610 C 324.467 119.207,322.097 119.759,319.969 117.631 C 318.022 115.684,318.346 114.272,321.648 110.304 C 329.866 100.429,328.695 91.272,319.588 94.192 M133.094 115.468 L 134.671 117.336 137.002 116.868 C 140.697 116.126,142.290 116.254,143.418 117.382 C 145.979 119.943,143.798 122.460,137.679 124.007 C 134.838 124.725,134.436 125.402,134.676 129.065 C 135.109 135.680,130.124 136.190,127.830 129.765 L 126.985 127.400 123.793 127.383 C 119.506 127.361,119.353 127.331,118.416 126.325 C 116.481 124.248,118.051 121.643,121.860 120.612 C 125.515 119.622,126.131 119.187,126.800 117.124 C 128.133 113.009,130.493 112.388,133.094 115.468 M166.866 133.166 C 167.461 133.634,168.659 135.882,169.945 138.943 C 173.227 146.760,173.395 146.872,177.839 144.192 C 184.684 140.063,194.000 140.339,194.000 144.670 C 194.000 147.104,192.908 147.722,187.478 148.361 C 184.036 148.766,180.988 150.045,178.900 151.962 C 176.608 154.065,176.687 154.327,185.048 172.309 C 186.750 175.971,186.839 177.997,185.346 179.171 C 182.123 181.706,180.647 179.887,174.180 165.415 C 170.682 157.587,171.070 157.754,165.238 161.558 C 157.168 166.820,153.606 168.063,151.454 166.371 C 149.016 164.453,150.323 161.846,154.852 159.592 C 159.340 157.357,166.262 152.499,166.796 151.209 C 167.238 150.143,167.104 149.658,165.282 145.720 C 162.757 140.261,162.000 138.000,162.000 135.912 C 162.000 132.887,164.627 131.405,166.866 133.166 M150.207 215.845 C 145.469 220.133,145.461 220.183,149.200 222.399 C 150.410 223.116,152.606 224.512,154.079 225.502 C 157.927 228.087,158.501 227.550,157.925 221.908 C 157.386 216.621,155.909 212.400,154.598 212.400 C 154.277 212.400,152.301 213.950,150.207 215.845 M153.760 252.706 C 151.304 254.346,152.251 259.875,155.253 261.428 C 157.082 262.373,157.600 261.549,157.600 257.697 C 157.600 253.889,156.874 252.412,155.000 252.412 C 154.560 252.412,154.002 252.544,153.760 252.706 M167.390 261.944 C 165.278 265.135,166.045 267.600,169.148 267.600 C 170.151 267.600,170.744 263.356,170.010 261.426 C 169.459 259.977,168.576 260.151,167.390 261.944 M182.760 268.042 C 180.779 270.163,181.486 272.000,184.285 272.000 C 186.714 272.000,188.236 269.630,187.009 267.758 C 186.082 266.342,184.233 266.466,182.760 268.042 M152.761 270.300 C 152.283 271.554,152.625 274.645,153.288 275.055 C 153.876 275.418,156.000 273.006,156.000 271.976 C 156.000 269.942,153.408 268.602,152.761 270.300 M213.877 272.715 C 213.091 273.584,211.769 276.560,211.441 278.200 C 211.121 279.802,211.914 281.227,213.479 281.864 C 215.528 282.699,216.000 281.901,216.000 277.597 C 216.000 272.630,215.336 271.103,213.877 272.715 M197.986 273.626 C 197.469 274.592,198.017 275.474,199.480 276.030 C 201.320 276.730,202.464 275.367,201.400 273.744 C 200.595 272.515,198.617 272.447,197.986 273.626 M163.970 274.856 C 163.203 276.289,163.658 283.139,164.630 284.810 C 166.881 288.677,170.237 285.302,170.513 278.894 C 170.619 276.450,169.916 275.519,167.288 274.624 C 164.894 273.808,164.517 273.834,163.970 274.856 M179.443 279.833 C 179.080 280.778,179.150 282.722,179.556 282.973 C 179.952 283.218,181.200 280.840,181.200 279.840 C 181.200 279.009,179.761 279.003,179.443 279.833 M194.413 283.109 C 192.970 284.277,191.171 295.040,192.302 295.739 C 193.102 296.234,197.600 286.437,197.600 284.201 C 197.600 282.552,195.844 281.950,194.413 283.109 M208.803 288.996 C 207.619 290.423,207.167 301.059,208.272 301.483 C 209.471 301.943,213.839 296.149,214.789 292.840 C 215.503 290.350,210.399 287.073,208.803 288.996 M139.264 320.100 C 132.930 326.640,131.865 327.850,129.222 331.510 C 125.130 337.177,121.260 336.932,120.171 330.936 C 119.186 325.513,114.054 321.167,108.500 321.053 C 104.886 320.979,104.643 321.354,103.981 328.037 C 102.892 339.030,107.239 345.132,116.438 345.527 C 120.252 345.691,119.570 346.035,123.066 342.186 C 126.618 338.274,129.767 341.526,129.663 349.000 C 129.573 355.519,130.399 356.859,135.089 357.808 C 142.750 359.356,144.419 352.325,138.842 342.000 C 135.626 336.048,137.666 330.998,145.624 325.210 C 148.826 322.881,148.805 322.967,147.129 318.891 C 144.979 313.666,145.586 313.572,139.264 320.100 M245.423 324.089 C 244.443 325.488,244.659 326.659,246.100 327.754 C 259.791 338.157,264.974 341.685,268.500 343.000 C 273.197 344.752,273.604 347.105,270.609 355.200 C 267.219 364.363,268.575 369.600,274.338 369.600 C 278.221 369.600,283.172 357.821,281.400 352.800 C 279.792 348.244,281.441 344.459,284.835 344.914 C 287.011 345.206,287.469 345.679,289.308 349.530 C 292.205 355.598,296.804 359.107,302.383 359.506 C 308.095 359.915,308.497 359.271,308.558 349.600 C 308.631 338.118,305.626 335.200,293.727 335.200 L 287.747 335.200 284.574 336.831 L 281.400 338.461 277.454 338.195 C 270.838 337.749,267.195 336.246,259.754 330.893 C 250.808 324.457,246.573 322.446,245.423 324.089 " stroke="none" fill="transparent" fill-rule="evenodd"></path></g></svg>