<svg id="svg" version="1.1" xmlns="http://www.w3.org/2000/svg" xmlns:xlink="http://www.w3.org/1999/xlink" width="400" height="400" viewBox="0, 0, 400,400"><g id="svgg"><path id="path0" d="M186.749 128.260 C 185.914 129.264,185.826 136.367,186.567 142.925 C 187.537 151.516,187.558 157.742,186.619 158.779 C 185.804 159.679,185.792 158.181,186.798 180.400 C 187.012 185.130,187.719 193.410,188.368 198.800 C 191.250 222.708,191.262 223.103,189.040 222.091 C 188.083 221.655,179.961 214.785,167.000 203.449 C 158.440 195.962,153.463 191.406,145.805 184.044 C 130.410 169.247,121.589 163.279,117.974 165.214 C 113.251 167.742,127.773 185.003,154.200 208.274 C 160.432 213.762,175.988 227.228,181.337 231.767 C 189.279 238.504,189.401 238.192,176.600 243.912 C 155.211 253.471,147.954 258.515,138.195 270.600 C 135.708 273.680,132.398 277.454,130.839 278.988 C 126.521 283.233,126.790 286.181,131.949 291.151 C 140.278 299.176,144.935 297.984,155.200 285.205 C 163.167 275.285,171.816 269.469,190.600 261.401 C 193.020 260.361,195.804 259.149,196.787 258.706 C 201.640 256.519,203.398 257.372,212.204 266.189 C 215.727 269.715,221.222 275.660,224.416 279.400 C 227.609 283.140,233.221 289.710,236.885 294.000 C 244.953 303.446,248.562 306.605,252.715 307.855 C 255.232 308.612,255.891 308.545,257.018 307.418 C 259.659 304.777,256.454 298.134,247.712 288.128 C 246.209 286.408,241.995 281.490,238.349 277.200 C 234.702 272.910,229.074 266.430,225.841 262.800 C 216.698 252.533,215.913 251.012,217.076 245.826 C 217.956 241.900,220.752 239.177,228.400 234.795 C 230.050 233.850,232.058 232.699,232.862 232.238 C 234.320 231.402,241.344 227.099,244.000 225.414 C 244.770 224.926,247.920 222.941,251.000 221.004 C 254.080 219.067,259.210 215.754,262.400 213.641 C 265.590 211.529,268.476 209.685,268.814 209.545 C 269.152 209.404,269.669 208.999,269.963 208.645 C 270.257 208.290,270.675 208.000,270.891 208.000 C 271.107 208.000,272.084 207.460,273.062 206.800 C 274.040 206.140,274.935 205.600,275.050 205.600 C 275.166 205.600,276.552 204.844,278.130 203.919 C 279.709 202.995,281.630 201.913,282.400 201.514 C 285.737 199.785,288.053 198.138,288.853 196.926 C 292.160 191.909,283.871 180.445,276.910 180.409 C 274.282 180.395,262.639 186.841,248.790 195.976 C 241.258 200.944,241.485 200.799,230.364 207.739 C 217.071 216.034,212.800 217.266,212.800 212.805 C 212.800 211.222,211.368 201.333,210.627 197.800 C 209.683 193.295,209.240 187.780,208.796 175.000 C 208.289 160.407,208.226 159.836,207.024 158.890 C 206.220 158.258,206.002 157.478,205.428 153.179 C 204.567 146.735,203.590 143.183,201.497 138.889 C 197.835 131.374,189.284 125.211,186.749 128.260 " stroke="none" fill="#EC791A" fill-rule="evenodd"></path><path id="path1" d="M0.000 200.000 L 0.000 400.000 200.000 400.000 L 400.000 400.000 400.000 200.000 L 400.000 0.000 200.000 0.000 L 0.000 0.000 0.000 200.000 M192.116 128.452 C 198.905 131.888,203.798 140.976,205.428 153.179 C 206.002 157.478,206.220 158.258,207.024 158.890 C 208.226 159.836,208.289 160.407,208.796 175.000 C 209.240 187.780,209.683 193.295,210.627 197.800 C 211.368 201.333,212.800 211.222,212.800 212.805 C 212.800 217.266,217.071 216.034,230.364 207.739 C 241.485 200.799,241.258 200.944,248.790 195.976 C 262.639 186.841,274.282 180.395,276.910 180.409 C 283.871 180.445,292.160 191.909,288.853 196.926 C 288.053 198.138,285.737 199.785,282.400 201.514 C 281.630 201.913,279.709 202.995,278.130 203.919 C 276.552 204.844,275.166 205.600,275.050 205.600 C 274.935 205.600,274.040 206.140,273.062 206.800 C 272.084 207.460,271.107 208.000,270.891 208.000 C 270.675 208.000,270.257 208.290,269.963 208.645 C 269.669 208.999,269.152 209.404,268.814 209.545 C 268.476 209.685,265.590 211.529,262.400 213.641 C 259.210 215.754,254.080 219.067,251.000 221.004 C 247.920 222.941,244.770 224.926,244.000 225.414 C 241.344 227.099,234.320 231.402,232.862 232.238 C 232.058 232.699,230.050 233.850,228.400 234.795 C 220.752 239.177,217.956 241.900,217.076 245.826 C 215.913 251.012,216.698 252.533,225.841 262.800 C 229.074 266.430,234.702 272.910,238.349 277.200 C 241.995 281.490,246.209 286.408,247.712 288.128 C 256.454 298.134,259.659 304.777,257.018 307.418 C 255.891 308.545,255.232 308.612,252.715 307.855 C 248.562 306.605,244.953 303.446,236.885 294.000 C 233.221 289.710,227.609 283.140,224.416 279.400 C 221.222 275.660,215.727 269.715,212.204 266.189 C 203.398 257.372,201.640 256.519,196.787 258.706 C 195.804 259.149,193.020 260.361,190.600 261.401 C 171.816 269.469,163.167 275.285,155.200 285.205 C 144.935 297.984,140.278 299.176,131.949 291.151 C 126.790 286.181,126.521 283.233,130.839 278.988 C 132.398 277.454,135.708 273.680,138.195 270.600 C 147.954 258.515,155.211 253.471,176.600 243.912 C 189.401 238.192,189.279 238.504,181.337 231.767 C 175.988 227.228,160.432 213.762,154.200 208.274 C 131.180 188.003,117.200 172.391,117.200 166.954 C 117.200 160.591,128.309 167.228,145.805 184.044 C 153.463 191.406,158.440 195.962,167.000 203.449 C 179.961 214.785,188.083 221.655,189.040 222.091 C 191.262 223.103,191.250 222.708,188.368 198.800 C 187.719 193.410,187.012 185.130,186.798 180.400 C 185.792 158.181,185.804 159.679,186.619 158.779 C 187.558 157.742,187.537 151.516,186.567 142.925 C 185.826 136.367,185.914 129.264,186.749 128.260 C 187.522 127.331,190.080 127.422,192.116 128.452 " stroke="none" fill="transparent" fill-rule="evenodd"></path></g></svg>