<svg id="svg" version="1.1" xmlns="http://www.w3.org/2000/svg" xmlns:xlink="http://www.w3.org/1999/xlink" width="400" height="400" viewBox="0, 0, 400,400"><g id="svgg"><path id="path0" d="M188.526 65.194 C 187.151 65.762,186.745 66.981,186.338 71.751 C 185.880 77.122,184.676 82.592,182.188 90.600 C 179.267 100.003,178.445 103.076,177.587 107.800 C 176.415 114.259,174.887 128.660,174.413 137.697 C 174.186 142.040,173.631 149.150,173.179 153.497 C 172.728 157.843,172.205 164.000,172.017 167.178 C 171.525 175.495,171.422 175.521,163.000 169.411 C 141.395 153.735,127.862 146.187,104.247 136.640 C 88.084 130.105,78.426 127.494,75.446 128.852 C 65.125 133.554,105.012 182.446,139.200 207.001 C 154.352 217.883,153.857 217.110,150.330 224.385 C 149.420 226.263,147.365 230.543,145.764 233.895 C 144.162 237.248,141.877 241.658,140.686 243.695 C 139.495 245.733,136.984 250.280,135.107 253.800 C 128.853 265.526,126.133 270.557,123.322 275.600 C 116.636 287.592,114.324 291.766,111.162 297.554 C 108.893 301.708,106.985 304.620,105.293 306.512 C 100.828 311.504,101.557 315.253,108.213 321.534 C 115.300 328.223,122.560 329.477,128.157 324.981 C 129.851 323.620,134.666 319.586,138.639 316.200 C 142.351 313.036,143.943 311.738,146.093 310.122 C 152.586 305.243,158.022 300.470,162.185 295.994 C 163.716 294.347,165.068 292.910,165.189 292.800 C 165.309 292.690,167.668 290.080,170.429 287.000 C 175.314 281.553,177.114 279.423,182.090 273.200 C 183.410 271.550,185.198 269.436,186.065 268.502 C 187.659 266.784,191.667 262.127,194.600 258.585 C 195.480 257.522,196.655 256.190,197.211 255.626 C 200.162 252.630,204.259 247.328,206.371 243.773 C 208.981 239.380,209.855 239.424,214.578 244.189 C 220.834 250.502,224.989 256.165,234.395 271.200 C 246.292 290.218,252.456 297.847,265.306 309.457 C 268.658 312.486,274.100 317.685,277.400 321.012 C 287.918 331.615,295.602 335.100,298.018 330.365 C 299.829 326.815,296.968 319.124,287.912 303.200 C 282.234 293.215,277.906 285.128,275.389 279.800 C 272.344 273.354,268.795 266.330,267.104 263.400 C 261.809 254.230,260.343 251.531,257.762 246.200 C 252.528 235.392,252.390 234.219,255.914 230.525 C 270.559 215.177,271.986 213.900,282.000 207.179 C 290.088 201.750,299.550 194.643,304.027 190.635 C 305.031 189.736,307.894 187.290,310.388 185.200 C 315.158 181.204,316.228 180.271,321.400 175.599 C 323.160 174.009,325.050 172.417,325.600 172.062 C 330.194 169.093,340.800 159.328,340.800 158.067 C 340.800 157.878,341.180 157.381,341.644 156.962 C 346.897 152.218,344.806 142.185,337.166 135.475 C 332.042 130.975,328.465 130.244,323.302 132.639 C 321.596 133.431,319.360 134.412,318.333 134.820 C 314.782 136.232,303.550 142.031,299.084 144.760 C 291.084 149.648,285.131 152.089,275.000 154.639 C 272.800 155.193,267.670 156.612,263.600 157.794 C 251.821 161.214,242.665 162.678,239.527 161.642 C 237.760 161.059,237.014 159.664,236.187 155.400 C 235.555 152.142,233.664 144.658,227.997 123.000 C 227.307 120.360,226.132 116.130,225.388 113.600 C 224.644 111.070,223.227 105.814,222.241 101.920 C 220.155 93.687,219.014 90.796,215.815 85.645 C 209.216 75.018,193.412 63.173,188.526 65.194 M203.116 99.140 C 205.184 100.452,214.151 131.669,218.759 153.600 C 221.420 166.263,221.450 165.955,217.145 170.009 C 214.520 172.481,214.344 173.156,215.598 175.919 C 219.606 184.750,236.722 193.200,240.878 188.400 C 245.666 182.868,245.914 182.753,258.024 180.407 C 266.330 178.798,269.112 178.130,277.245 175.791 C 281.451 174.582,283.200 174.646,283.200 176.008 C 283.200 176.443,283.059 176.800,282.886 176.800 C 282.714 176.800,282.256 177.337,281.868 177.992 C 281.074 179.337,274.811 184.567,269.400 188.404 C 256.341 197.665,255.277 198.572,245.850 208.463 C 239.358 215.275,237.413 216.984,234.107 218.778 C 230.409 220.786,230.364 223.420,233.908 230.400 C 240.644 243.664,244.929 251.750,248.302 257.565 C 252.552 264.891,263.602 287.277,264.257 289.886 C 265.392 294.408,258.717 285.459,246.355 265.888 C 236.267 249.916,219.729 229.346,210.892 221.780 C 204.718 216.494,199.804 214.955,197.544 217.600 C 195.946 219.470,192.073 224.866,188.718 229.899 C 185.549 234.651,179.789 241.306,165.953 256.200 C 164.931 257.300,163.385 259.029,162.518 260.043 C 159.321 263.779,154.932 267.729,154.366 267.379 C 153.574 266.889,154.975 262.944,157.201 259.400 C 158.929 256.649,162.673 249.348,166.124 241.998 C 168.472 236.998,169.684 234.991,173.070 230.502 C 177.811 224.216,171.801 213.808,158.316 204.953 C 155.392 203.033,150.480 199.640,147.400 197.412 C 144.320 195.184,139.910 191.995,137.600 190.327 C 122.543 179.449,98.069 152.800,103.137 152.800 C 103.887 152.800,107.943 154.085,109.400 154.785 C 109.840 154.996,111.826 155.792,113.814 156.554 C 127.987 161.987,141.594 169.675,159.200 182.196 C 178.045 195.598,183.895 198.149,187.613 194.588 C 189.510 192.770,189.740 191.430,191.003 174.800 C 191.346 170.290,191.881 164.260,192.193 161.400 C 192.505 158.540,192.949 152.780,193.179 148.600 C 193.623 140.531,193.825 138.002,194.409 133.200 C 194.610 131.550,194.975 128.310,195.221 126.000 C 195.665 121.825,197.354 112.699,197.986 111.059 C 198.168 110.586,198.543 109.390,198.819 108.400 C 200.262 103.226,201.900 98.794,202.364 98.806 C 202.494 98.809,202.832 98.960,203.116 99.140 " stroke="none" fill="#EC791A" fill-rule="evenodd"></path><path id="path1" d="M0.000 200.000 L 0.000 400.000 200.000 400.000 L 400.000 400.000 400.000 200.000 L 400.000 0.000 200.000 0.000 L 0.000 0.000 0.000 200.000 M195.600 66.849 C 209.104 73.884,218.157 85.802,222.241 101.920 C 223.227 105.814,224.644 111.070,225.388 113.600 C 226.132 116.130,227.307 120.360,227.997 123.000 C 233.664 144.658,235.555 152.142,236.187 155.400 C 237.014 159.664,237.760 161.059,239.527 161.642 C 242.665 162.678,251.821 161.214,263.600 157.794 C 267.670 156.612,272.800 155.193,275.000 154.639 C 285.131 152.089,291.084 149.648,299.084 144.760 C 303.550 142.031,314.782 136.232,318.333 134.820 C 319.360 134.412,321.596 133.431,323.302 132.639 C 328.465 130.244,332.042 130.975,337.166 135.475 C 344.806 142.185,346.897 152.218,341.644 156.962 C 341.180 157.381,340.800 157.878,340.800 158.067 C 340.800 159.328,330.194 169.093,325.600 172.062 C 325.050 172.417,323.160 174.009,321.400 175.599 C 316.228 180.271,315.158 181.204,310.388 185.200 C 307.894 187.290,305.031 189.736,304.027 190.635 C 299.550 194.643,290.088 201.750,282.000 207.179 C 271.986 213.900,270.559 215.177,255.914 230.525 C 252.390 234.219,252.528 235.392,257.762 246.200 C 260.343 251.531,261.809 254.230,267.104 263.400 C 268.795 266.330,272.344 273.354,275.389 279.800 C 277.906 285.128,282.234 293.215,287.912 303.200 C 296.968 319.124,299.829 326.815,298.018 330.365 C 295.602 335.100,287.918 331.615,277.400 321.012 C 274.100 317.685,268.658 312.486,265.306 309.457 C 252.456 297.847,246.292 290.218,234.395 271.200 C 224.989 256.165,220.834 250.502,214.578 244.189 C 209.855 239.424,208.981 239.380,206.371 243.773 C 204.259 247.328,200.162 252.630,197.211 255.626 C 196.655 256.190,195.480 257.522,194.600 258.585 C 191.667 262.127,187.659 266.784,186.065 268.502 C 185.198 269.436,183.410 271.550,182.090 273.200 C 177.114 279.423,175.314 281.553,170.429 287.000 C 167.668 290.080,165.309 292.690,165.189 292.800 C 165.068 292.910,163.716 294.347,162.185 295.994 C 158.022 300.470,152.586 305.243,146.093 310.122 C 143.943 311.738,142.351 313.036,138.639 316.200 C 134.666 319.586,129.851 323.620,128.157 324.981 C 122.560 329.477,115.300 328.223,108.213 321.534 C 101.557 315.253,100.828 311.504,105.293 306.512 C 106.985 304.620,108.893 301.708,111.162 297.554 C 114.324 291.766,116.636 287.592,123.322 275.600 C 126.133 270.557,128.853 265.526,135.107 253.800 C 136.984 250.280,139.495 245.733,140.686 243.695 C 141.877 241.658,144.162 237.248,145.764 233.895 C 147.365 230.543,149.420 226.263,150.330 224.385 C 153.857 217.110,154.352 217.883,139.200 207.001 C 105.012 182.446,65.125 133.554,75.446 128.852 C 78.426 127.494,88.084 130.105,104.247 136.640 C 127.862 146.187,141.395 153.735,163.000 169.411 C 171.422 175.521,171.525 175.495,172.017 167.178 C 172.205 164.000,172.728 157.843,173.179 153.497 C 173.631 149.150,174.186 142.040,174.413 137.697 C 174.887 128.660,176.415 114.259,177.587 107.800 C 178.445 103.076,179.267 100.003,182.188 90.600 C 184.676 82.592,185.880 77.122,186.338 71.751 C 186.982 64.190,188.725 63.267,195.600 66.849 M201.629 99.895 C 201.088 101.083,199.623 105.517,198.819 108.400 C 198.543 109.390,198.168 110.586,197.986 111.059 C 197.354 112.699,195.665 121.825,195.221 126.000 C 194.975 128.310,194.610 131.550,194.409 133.200 C 193.825 138.002,193.623 140.531,193.179 148.600 C 192.949 152.780,192.505 158.540,192.193 161.400 C 191.881 164.260,191.346 170.290,191.003 174.800 C 189.740 191.430,189.510 192.770,187.613 194.588 C 183.895 198.149,178.045 195.598,159.200 182.196 C 141.594 169.675,127.987 161.987,113.814 156.554 C 111.826 155.792,109.840 154.996,109.400 154.785 C 107.943 154.085,103.887 152.800,103.137 152.800 C 98.069 152.800,122.543 179.449,137.600 190.327 C 139.910 191.995,144.320 195.184,147.400 197.412 C 150.480 199.640,155.392 203.033,158.316 204.953 C 171.801 213.808,177.811 224.216,173.070 230.502 C 169.684 234.991,168.472 236.998,166.124 241.998 C 162.673 249.348,158.929 256.649,157.201 259.400 C 154.975 262.944,153.574 266.889,154.366 267.379 C 154.932 267.729,159.321 263.779,162.518 260.043 C 163.385 259.029,164.931 257.300,165.953 256.200 C 179.789 241.306,185.549 234.651,188.718 229.899 C 192.073 224.866,195.946 219.470,197.544 217.600 C 199.804 214.955,204.718 216.494,210.892 221.780 C 219.729 229.346,236.267 249.916,246.355 265.888 C 258.717 285.459,265.392 294.408,264.257 289.886 C 263.602 287.277,252.552 264.891,248.302 257.565 C 244.929 251.750,240.644 243.664,233.908 230.400 C 230.364 223.420,230.409 220.786,234.107 218.778 C 237.413 216.984,239.358 215.275,245.850 208.463 C 255.277 198.572,256.341 197.665,269.400 188.404 C 274.811 184.567,281.074 179.337,281.868 177.992 C 282.256 177.337,282.714 176.800,282.886 176.800 C 283.059 176.800,283.200 176.443,283.200 176.008 C 283.200 174.646,281.451 174.582,277.245 175.791 C 269.112 178.130,266.330 178.798,258.024 180.407 C 245.914 182.753,245.666 182.868,240.878 188.400 C 236.722 193.200,219.606 184.750,215.598 175.919 C 214.344 173.156,214.520 172.481,217.145 170.009 C 220.184 167.147,220.966 165.632,220.644 163.233 C 219.250 152.854,208.923 112.660,205.384 103.834 C 203.284 98.597,202.565 97.843,201.629 99.895 " stroke="none" fill="transparent" fill-rule="evenodd"></path></g></svg>