<svg id="svg" version="1.1" xmlns="http://www.w3.org/2000/svg" xmlns:xlink="http://www.w3.org/1999/xlink" width="400" height="202.83018867924528" viewBox="0, 0, 400,202.83018867924528"><g id="svgg"><path id="path0" d="M69.101 13.117 C 69.026 13.191,68.966 13.818,68.966 14.510 C 68.966 16.563,68.141 20.691,67.245 23.124 C 67.101 23.514,66.856 24.283,66.701 24.833 C 66.485 25.599,66.302 25.866,65.918 25.977 C 65.642 26.057,64.503 26.402,63.387 26.742 C 62.272 27.083,60.264 27.505,58.925 27.681 C 52.267 28.553,51.545 29.216,55.984 30.382 C 57.378 30.749,59.341 31.269,60.345 31.539 C 61.349 31.809,62.764 32.092,63.489 32.167 C 65.851 32.414,65.629 31.100,65.193 42.241 C 65.069 45.417,65.071 45.436,65.506 45.436 C 65.824 45.436,66.024 45.228,66.238 44.675 C 66.676 43.544,67.534 41.873,68.554 40.162 C 69.054 39.326,70.074 37.454,70.823 36.004 C 72.379 32.987,72.301 33.037,73.376 34.381 C 73.821 34.939,75.069 36.354,76.148 37.525 C 77.227 38.697,78.627 40.451,79.259 41.424 C 80.499 43.333,80.873 43.634,81.294 43.064 C 81.960 42.162,79.002 33.479,77.285 31.297 C 76.809 30.691,76.980 30.338,77.848 30.134 C 79.504 29.746,83.709 28.222,85.686 27.293 C 89.912 25.307,89.701 24.272,84.911 23.501 C 84.245 23.394,83.618 23.255,83.517 23.192 C 83.416 23.130,81.629 22.995,79.547 22.893 C 73.777 22.609,74.615 23.369,71.783 15.853 C 71.046 13.896,69.697 12.521,69.101 13.117 M198.377 13.792 C 198.134 13.942,198.053 14.643,197.972 17.268 C 197.896 19.713,197.803 20.577,197.606 20.643 C 197.461 20.691,196.294 21.496,195.013 22.431 C 193.731 23.366,192.504 24.228,192.285 24.345 C 191.803 24.603,191.761 25.263,192.215 25.438 C 192.396 25.507,193.899 25.228,195.555 24.817 C 199.942 23.728,199.915 23.681,197.149 27.669 C 195.048 30.698,194.709 31.401,195.255 31.583 C 195.568 31.687,198.611 29.215,199.950 27.769 C 201.318 26.292,201.022 26.270,204.436 28.093 C 208.637 30.337,209.593 30.113,207.121 27.466 C 205.299 25.514,205.275 25.625,207.860 24.072 C 212.468 21.305,212.676 21.162,212.742 20.719 C 212.778 20.480,212.732 20.280,212.641 20.275 C 212.549 20.270,210.695 20.245,208.519 20.219 C 205.123 20.179,204.392 20.113,203.347 19.752 L 202.130 19.331 200.811 16.870 C 199.344 14.129,198.847 13.501,198.377 13.792 M70.700 15.842 C 71.320 17.065,71.241 17.444,70.365 17.444 C 69.737 17.444,69.726 17.429,69.850 16.684 C 69.919 16.265,69.976 15.672,69.977 15.365 C 69.981 14.581,70.102 14.661,70.700 15.842 M200.595 18.684 C 201.262 20.036,201.919 21.642,202.056 22.254 C 202.309 23.384,202.728 23.819,203.069 23.305 C 203.245 23.039,203.226 22.787,202.918 21.310 L 202.794 20.714 203.882 21.004 C 204.539 21.179,205.953 21.294,207.454 21.296 C 208.821 21.297,209.939 21.372,209.939 21.463 C 209.939 21.554,208.752 22.340,207.300 23.211 C 204.285 25.020,204.077 25.311,204.939 26.521 C 205.677 27.559,205.555 27.549,203.341 26.387 C 200.967 25.141,201.219 25.147,199.988 26.298 C 198.631 27.568,198.563 27.332,199.800 25.639 C 201.019 23.971,201.039 23.519,199.908 23.253 C 199.166 23.078,197.141 23.274,195.791 23.652 C 194.694 23.959,196.263 22.531,197.860 21.769 C 198.770 21.336,198.983 20.640,198.985 18.103 C 198.986 15.668,199.135 15.722,200.595 18.684 M141.184 18.351 C 140.468 18.880,137.751 20.081,137.273 20.081 C 137.118 20.081,136.783 19.711,136.529 19.258 C 135.851 18.052,135.284 18.197,135.000 19.648 L 134.787 20.736 133.266 21.287 C 132.429 21.590,130.877 22.096,129.817 22.412 C 126.502 23.402,126.537 23.896,129.970 24.536 C 133.817 25.253,133.947 25.350,133.242 26.987 C 132.594 28.494,133.353 29.348,134.181 28.043 C 135.386 26.144,135.611 26.098,137.776 27.300 C 141.390 29.307,141.736 28.457,139.028 24.224 C 138.527 23.440,138.369 23.025,138.509 22.858 C 138.620 22.725,139.585 21.713,140.654 20.608 C 142.724 18.468,142.725 18.466,142.353 18.093 C 142.023 17.763,141.964 17.776,141.184 18.351 M313.306 18.496 C 313.253 18.754,313.086 19.513,312.934 20.183 L 312.659 21.400 308.160 21.454 C 301.872 21.530,301.753 21.991,307.184 25.242 C 310.789 27.400,310.802 27.503,308.174 32.828 C 307.436 34.322,307.469 34.881,308.279 34.583 C 308.932 34.343,311.472 32.755,312.668 31.838 C 314.139 30.711,314.267 30.675,314.880 31.213 C 316.700 32.813,317.616 33.751,318.053 34.460 C 319.457 36.740,319.682 33.414,318.452 28.553 C 318.116 27.223,318.135 27.198,320.933 25.337 C 322.305 24.424,323.930 23.293,324.544 22.825 C 325.157 22.357,326.184 21.640,326.826 21.233 C 329.762 19.368,327.979 19.184,319.939 20.521 C 315.569 21.249,315.917 21.316,315.018 19.560 C 314.231 18.024,313.496 17.567,313.306 18.496 M71.919 18.903 C 72.098 19.468,71.867 19.629,70.642 19.790 C 69.494 19.941,69.066 19.599,69.512 18.887 C 69.932 18.217,71.705 18.228,71.919 18.903 M314.604 21.134 C 314.604 21.224,314.422 21.298,314.199 21.298 C 313.769 21.298,313.710 21.142,313.927 20.576 C 314.063 20.221,314.604 20.667,314.604 21.134 M72.789 21.212 C 73.097 21.888,72.970 22.064,72.052 22.230 C 71.637 22.305,71.161 22.435,70.994 22.519 C 70.156 22.939,68.560 22.969,68.560 22.565 C 68.560 21.370,68.951 20.916,70.047 20.839 C 72.578 20.660,72.535 20.654,72.789 21.212 M138.742 21.072 C 138.742 21.490,137.731 21.946,137.594 21.589 C 137.522 21.403,137.591 21.179,137.749 21.078 C 138.117 20.845,138.742 20.841,138.742 21.072 M325.152 20.975 C 325.152 21.314,318.622 25.803,318.074 25.842 C 317.812 25.860,316.466 23.018,316.440 22.391 C 316.427 22.083,322.327 20.975,324.290 20.918 C 324.764 20.904,325.152 20.930,325.152 20.975 M262.645 21.507 C 262.425 21.636,262.225 22.212,262.066 23.174 C 261.932 23.983,261.641 25.421,261.417 26.369 C 261.126 27.605,261.039 28.522,261.107 29.607 C 261.204 31.157,260.868 32.668,260.079 34.229 C 259.753 34.873,259.714 34.888,258.402 34.888 C 257.021 34.888,249.623 35.799,249.279 36.011 C 247.598 37.050,252.528 40.488,257.556 41.782 C 258.151 41.935,258.417 42.111,258.414 42.351 C 258.408 42.886,256.764 47.249,255.379 50.406 C 253.368 54.988,252.931 56.648,253.662 56.929 C 253.989 57.054,256.187 55.679,256.187 55.348 C 256.187 55.249,257.037 54.279,258.076 53.193 C 259.666 51.531,260.056 50.987,260.534 49.767 C 261.369 47.638,264.171 44.422,265.191 44.422 C 265.773 44.422,267.189 46.270,269.076 49.493 C 271.014 52.804,270.989 52.745,271.396 54.922 C 271.915 57.703,273.005 61.711,273.334 62.052 C 274.534 63.295,274.523 58.645,273.320 55.984 C 272.364 53.870,272.185 53.035,272.018 49.899 C 271.878 47.277,271.840 47.100,271.133 45.737 C 270.326 44.181,269.991 43.002,270.356 43.002 C 270.982 43.002,277.300 38.249,277.998 37.253 C 279.029 35.780,278.316 35.497,273.572 35.497 L 269.633 35.497 268.567 33.316 C 266.964 30.038,265.145 25.893,264.363 23.738 C 263.472 21.280,263.336 21.104,262.645 21.507 M136.712 22.205 C 136.910 22.804,136.889 22.985,136.576 23.416 C 135.937 24.293,135.642 24.084,135.805 22.870 C 136.024 21.248,136.324 21.028,136.712 22.205 M134.774 22.089 C 134.910 22.308,134.696 23.996,134.490 24.329 C 134.347 24.560,130.619 23.595,130.635 23.331 C 130.653 23.038,134.624 21.846,134.774 22.089 M315.301 22.771 C 315.775 23.494,316.836 26.178,316.835 26.651 C 316.834 27.090,314.694 29.006,314.204 29.006 C 313.887 29.006,312.025 27.570,311.875 27.210 C 311.813 27.059,312.070 26.146,312.447 25.182 C 312.824 24.217,313.188 23.266,313.256 23.068 C 313.518 22.299,314.864 22.104,315.301 22.771 M312.170 22.808 C 312.170 23.356,311.097 25.999,310.833 26.100 C 310.688 26.156,310.177 25.935,309.697 25.610 C 309.216 25.285,308.024 24.540,307.046 23.955 C 306.069 23.370,305.321 22.806,305.385 22.703 C 305.594 22.364,312.170 22.466,312.170 22.808 M73.420 23.322 C 73.921 23.591,74.292 24.657,73.971 24.906 C 73.263 25.455,67.546 26.209,67.546 25.754 C 67.546 24.479,68.771 23.732,70.864 23.732 C 71.227 23.732,71.702 23.598,71.919 23.434 C 72.381 23.085,72.903 23.046,73.420 23.322 M77.174 23.925 C 77.327 24.171,75.795 24.639,75.370 24.476 C 75.194 24.409,75.051 24.214,75.051 24.043 C 75.051 23.688,76.962 23.582,77.174 23.925 M264.514 26.876 C 265.416 29.046,268.456 35.519,268.906 36.229 C 269.169 36.643,269.286 36.654,272.497 36.556 C 275.757 36.458,276.969 36.555,276.840 36.906 C 276.682 37.334,271.597 41.236,270.325 41.904 C 268.630 42.795,268.626 42.862,270.062 45.936 C 270.839 47.599,270.994 48.128,270.994 49.129 C 270.994 50.649,270.891 50.576,269.334 47.957 C 267.960 45.646,266.032 43.205,265.581 43.205 C 263.973 43.205,260.795 46.469,259.625 49.323 C 259.142 50.500,258.720 51.109,257.607 52.231 C 256.833 53.012,255.885 54.016,255.500 54.462 C 254.173 55.997,254.463 54.897,256.701 49.899 C 257.529 48.051,259.086 43.932,259.647 42.105 C 259.872 41.374,259.590 40.974,258.849 40.974 C 256.602 40.974,249.208 37.310,250.507 36.841 C 251.179 36.599,255.829 36.045,258.185 35.927 L 260.691 35.801 261.495 33.469 C 262.250 31.276,262.291 31.038,262.175 29.513 C 262.079 28.258,262.140 27.546,262.443 26.369 C 262.659 25.532,262.901 24.574,262.981 24.239 L 263.128 23.631 263.399 24.239 C 263.549 24.574,264.050 25.761,264.514 26.876 M84.348 24.422 C 87.839 25.151,87.676 25.529,83.671 25.988 C 81.455 26.242,77.587 26.907,76.065 27.296 C 73.232 28.019,71.359 28.373,69.675 28.502 C 68.671 28.578,66.526 28.911,64.909 29.242 C 61.067 30.026,59.368 30.224,58.450 29.995 C 55.646 29.297,55.612 29.115,58.227 28.789 C 60.502 28.505,62.415 28.107,64.475 27.488 C 65.680 27.125,66.645 26.978,67.806 26.978 C 69.358 26.978,74.970 26.039,76.369 25.545 C 76.704 25.427,77.537 25.153,78.221 24.937 C 78.905 24.720,79.578 24.406,79.717 24.239 C 80.082 23.798,81.653 23.860,84.348 24.422 M137.744 24.552 C 138.197 24.794,139.204 26.302,139.108 26.592 C 139.030 26.826,136.511 25.549,136.511 25.276 C 136.511 25.082,137.110 24.341,137.266 24.341 C 137.312 24.341,137.527 24.436,137.744 24.552 M82.498 27.468 C 82.298 27.619,81.066 28.079,79.759 28.489 C 75.147 29.935,75.025 30.030,76.057 31.329 C 76.897 32.385,76.841 32.592,75.622 32.954 C 74.161 33.388,73.880 33.352,73.295 32.657 C 72.710 31.962,71.945 31.859,71.351 32.397 C 70.966 32.745,67.329 33.317,66.785 33.114 C 66.646 33.062,66.531 32.759,66.531 32.440 C 66.531 31.665,64.979 31.084,62.789 31.039 C 61.178 31.005,67.123 29.705,69.777 29.511 C 70.725 29.441,72.551 29.148,73.834 28.859 C 81.106 27.219,83.287 26.869,82.498 27.468 M151.101 28.296 C 151.083 28.408,151.087 28.669,151.109 28.876 C 151.214 29.877,150.949 30.198,149.964 30.263 C 148.754 30.342,148.652 30.665,149.690 31.133 C 150.622 31.554,150.668 31.750,150.094 32.875 C 149.492 34.055,149.761 34.161,151.053 33.255 C 152.399 32.313,152.602 32.286,153.237 32.971 C 153.887 33.673,154.148 33.221,153.556 32.420 C 153.057 31.744,153.127 31.584,154.412 30.468 C 155.197 29.787,154.942 29.575,153.533 29.734 C 152.842 29.812,152.333 29.791,152.333 29.684 C 152.333 29.407,151.137 28.060,151.101 28.296 M317.555 29.232 C 318.359 32.383,318.161 32.726,316.414 31.207 C 314.981 29.961,314.989 30.009,316.075 29.001 C 317.112 28.037,317.256 28.060,317.555 29.232 M312.333 29.024 C 313.450 29.845,313.416 30.014,311.917 31.144 C 309.193 33.197,309.180 33.164,310.959 28.854 C 311.203 28.262,311.317 28.276,312.333 29.024 M153.615 30.653 C 153.171 31.097,152.738 31.029,152.738 30.515 C 152.738 30.321,152.958 30.223,153.392 30.223 L 154.046 30.223 153.615 30.653 M152.372 30.939 C 152.699 31.655,152.345 32.009,151.628 31.682 C 151.073 31.430,150.974 31.055,151.359 30.669 C 151.744 30.284,152.119 30.384,152.372 30.939 M263.806 31.682 C 263.665 32.931,263.000 36.071,262.853 36.182 C 262.198 36.671,260.318 37.526,259.892 37.528 C 258.083 37.538,258.623 37.988,260.852 38.328 C 261.689 38.456,262.453 38.639,262.550 38.737 C 262.794 38.980,262.187 40.679,261.565 41.495 C 261.035 42.189,260.917 42.596,261.246 42.596 C 261.418 42.596,262.850 41.044,263.865 39.757 C 264.085 39.478,264.299 39.295,264.341 39.351 C 264.382 39.407,264.756 39.977,265.172 40.619 C 266.318 42.388,266.618 42.225,266.439 39.931 C 266.302 38.185,266.315 38.085,266.666 38.221 C 267.560 38.565,268.761 38.811,268.896 38.677 C 269.081 38.492,267.472 36.821,266.518 36.207 C 265.880 35.797,265.731 35.526,265.242 33.899 C 264.938 32.885,264.523 31.684,264.319 31.230 L 263.949 30.403 263.806 31.682 M120.213 31.643 C 120.157 31.810,120.055 32.372,119.985 32.891 C 119.843 33.960,119.824 33.970,117.591 34.197 C 115.483 34.412,115.550 34.592,118.509 36.646 L 119.878 37.597 119.878 38.778 C 119.878 40.138,120.157 40.301,120.791 39.310 C 121.534 38.149,123.534 38.318,124.445 39.619 C 125.146 40.621,124.964 39.593,124.183 38.148 C 123.097 36.136,123.086 36.207,124.647 34.913 C 126.533 33.349,126.451 33.193,123.838 33.372 L 121.712 33.516 121.353 32.862 C 120.726 31.718,120.329 31.294,120.213 31.643 M151.431 32.436 C 151.357 32.556,151.120 32.749,150.906 32.864 C 150.489 33.087,150.527 32.670,150.976 32.091 C 151.218 31.779,151.640 32.099,151.431 32.436 M264.619 33.012 C 265.027 34.864,265.577 36.126,266.093 36.396 C 266.833 36.784,268.112 38.134,267.738 38.133 C 267.576 38.132,267.183 37.995,266.863 37.828 C 265.840 37.295,265.675 37.403,265.850 38.489 C 266.226 40.821,265.868 41.421,265.086 39.769 C 264.508 38.545,264.389 38.524,263.535 39.503 L 262.871 40.264 262.997 39.320 C 263.134 38.294,263.163 38.323,261.714 38.031 C 260.839 37.855,260.880 37.719,261.989 37.131 C 263.141 36.519,263.374 36.153,263.678 34.483 C 264.078 32.284,264.360 31.842,264.619 33.012 M77.850 34.387 C 78.412 35.543,78.410 35.825,77.840 35.978 C 76.784 36.260,76.255 36.114,75.549 35.345 C 74.690 34.410,74.714 34.327,75.970 33.880 C 77.386 33.378,77.356 33.370,77.850 34.387 M70.588 34.072 C 70.588 34.180,70.386 34.686,70.138 35.195 L 69.689 36.121 68.161 36.063 L 66.633 36.004 66.567 35.319 C 66.480 34.405,66.688 34.246,68.194 34.075 C 70.124 33.856,70.588 33.855,70.588 34.072 M124.532 34.128 C 124.521 34.392,123.587 35.207,123.069 35.406 C 122.890 35.474,122.730 35.374,122.666 35.153 C 122.609 34.952,122.498 34.634,122.421 34.446 C 122.308 34.174,122.417 34.088,122.955 34.022 C 124.279 33.860,124.543 33.877,124.532 34.128 M121.909 34.939 C 122.636 36.131,122.103 37.518,121.022 37.246 C 120.494 37.114,120.176 34.862,120.622 34.415 C 120.947 34.090,121.538 34.331,121.909 34.939 M119.878 35.598 C 119.878 36.907,119.823 36.925,118.531 36.035 C 117.096 35.046,117.330 34.592,119.320 34.507 C 119.864 34.483,119.878 34.511,119.878 35.598 M79.305 38.266 C 79.807 39.892,79.738 40.026,78.891 39.062 C 77.529 37.511,77.400 37.298,77.708 37.103 C 78.500 36.601,78.875 36.874,79.305 38.266 M123.129 37.437 C 123.381 38.100,123.378 38.135,123.073 38.131 C 122.559 38.124,122.268 37.783,122.406 37.348 C 122.590 36.768,122.888 36.804,123.129 37.437 M68.842 37.287 C 68.899 37.379,68.335 38.495,67.588 39.766 C 66.696 41.285,66.206 41.949,66.158 41.704 C 66.075 41.270,66.489 37.555,66.650 37.295 C 66.788 37.071,68.705 37.064,68.842 37.287 M120.892 38.020 C 120.892 38.181,120.801 38.369,120.690 38.438 C 120.578 38.507,120.487 38.376,120.487 38.146 C 120.487 37.916,120.578 37.728,120.690 37.728 C 120.801 37.728,120.892 37.860,120.892 38.020 M146.412 40.891 C 143.844 43.538,143.990 43.499,143.085 41.777 C 141.784 39.301,141.219 39.422,141.134 42.196 L 141.075 44.114 139.249 44.661 C 138.245 44.962,137.079 45.214,136.657 45.221 C 135.179 45.245,135.473 46.309,137.021 46.542 C 139.742 46.950,141.546 48.460,141.172 50.017 C 140.940 50.985,140.943 51.175,141.191 51.332 C 141.651 51.623,141.748 51.569,142.316 50.710 C 142.966 49.728,142.865 49.731,144.576 50.625 C 147.256 52.025,148.013 51.597,146.702 49.423 C 146.268 48.704,145.752 47.694,145.555 47.179 L 145.198 46.242 146.601 43.861 C 149.166 39.511,149.142 39.560,148.875 39.238 C 148.492 38.777,148.408 38.834,146.412 40.891 M145.436 43.768 C 145.436 44.031,144.818 44.828,144.613 44.828 C 144.288 44.828,144.402 44.177,144.777 43.893 C 145.181 43.586,145.436 43.538,145.436 43.768 M143.578 45.344 C 143.937 46.132,143.256 47.870,142.589 47.870 C 142.371 47.870,142.315 45.176,142.529 44.963 C 142.827 44.664,143.356 44.857,143.578 45.344 M141.340 46.199 C 141.412 47.193,141.322 47.223,140.063 46.611 C 139.008 46.099,138.989 45.872,139.972 45.514 C 141.055 45.119,141.270 45.227,141.340 46.199 M145.427 49.557 C 145.435 49.897,145.377 49.891,144.634 49.474 C 143.626 48.907,143.525 48.642,144.062 47.960 L 144.490 47.415 144.954 48.302 C 145.209 48.790,145.422 49.354,145.427 49.557 M32.582 52.992 C 32.515 53.243,32.459 54.276,32.457 55.288 C 32.455 56.384,32.331 57.492,32.150 58.027 C 31.982 58.521,31.685 59.539,31.490 60.289 C 31.078 61.876,29.646 63.322,27.586 64.230 C 21.983 66.701,22.199 67.224,28.854 67.296 C 33.858 67.350,33.868 67.351,33.965 67.803 C 34.189 68.845,34.314 70.742,34.445 75.051 C 34.576 79.343,34.607 79.615,34.968 79.615 C 35.179 79.615,35.418 79.478,35.499 79.310 C 35.580 79.143,36.046 78.145,36.535 77.091 C 37.024 76.038,37.824 74.588,38.312 73.868 C 38.800 73.148,39.312 72.134,39.449 71.615 C 40.148 68.966,40.325 69.098,43.358 74.544 C 43.979 75.659,44.731 76.854,45.029 77.199 C 45.326 77.544,46.011 78.484,46.551 79.288 C 48.110 81.612,48.362 81.403,48.434 77.730 C 48.492 74.705,48.410 74.302,47.383 72.617 C 47.213 72.338,46.878 71.653,46.639 71.095 C 46.399 70.538,46.039 69.899,45.838 69.675 C 45.487 69.286,45.363 68.835,45.413 68.126 C 45.428 67.912,45.698 67.745,46.172 67.656 C 48.708 67.180,54.980 64.832,56.537 63.775 C 56.933 63.506,57.372 63.286,57.512 63.286 C 57.822 63.286,58.087 62.668,57.867 62.459 C 57.779 62.377,57.252 62.268,56.694 62.217 C 56.136 62.166,54.721 62.024,53.550 61.900 C 48.968 61.415,46.860 61.258,44.937 61.258 C 42.631 61.258,42.065 61.020,39.791 59.098 C 39.085 58.501,38.362 58.012,38.184 58.012 C 37.737 58.012,35.407 55.581,34.897 54.581 C 34.666 54.129,34.251 53.610,33.973 53.428 C 33.696 53.246,33.469 52.971,33.469 52.816 C 33.469 52.345,32.715 52.495,32.582 52.992 M35.700 57.225 C 36.425 57.968,37.338 58.733,37.728 58.925 C 38.119 59.117,38.712 59.527,39.047 59.836 C 39.381 60.145,40.251 60.809,40.980 61.312 L 42.305 62.226 45.443 62.336 C 51.081 62.534,55.172 62.926,55.172 63.270 C 55.172 63.776,46.759 66.734,45.318 66.734 C 44.157 66.734,43.986 68.755,45.010 70.357 C 45.342 70.875,45.802 71.709,46.033 72.211 C 46.264 72.713,46.681 73.526,46.959 74.018 C 47.368 74.740,47.464 75.187,47.461 76.350 C 47.458 78.024,47.235 78.599,46.861 77.900 C 46.728 77.652,46.325 77.115,45.964 76.706 C 45.275 75.926,44.819 75.179,43.406 72.515 C 40.903 67.798,39.196 67.414,38.442 71.400 C 38.368 71.790,38.043 72.475,37.720 72.921 C 37.397 73.367,36.858 74.250,36.522 74.884 C 35.598 76.626,35.545 76.548,35.421 73.276 C 35.288 69.742,35.034 66.931,34.817 66.580 C 34.702 66.393,33.597 66.329,30.527 66.329 C 25.829 66.329,25.597 66.246,27.697 65.323 C 28.582 64.935,29.738 64.202,30.478 63.559 C 31.174 62.955,31.841 62.386,31.959 62.294 C 32.077 62.202,32.292 61.589,32.437 60.931 C 32.583 60.274,32.874 59.194,33.085 58.531 C 33.296 57.867,33.469 56.856,33.469 56.282 C 33.469 55.043,33.659 54.768,34.076 55.406 C 34.244 55.663,34.975 56.481,35.700 57.225 M195.204 56.534 C 195.071 57.064,195.256 58.176,195.777 59.983 C 195.913 60.454,195.976 60.887,195.917 60.946 C 195.690 61.172,193.586 61.460,192.157 61.460 C 189.745 61.460,189.811 62.457,192.250 62.869 C 195.787 63.467,195.841 63.535,194.811 66.140 C 193.634 69.116,194.135 69.334,196.536 66.891 L 198.176 65.222 200.055 67.094 C 202.811 69.838,203.854 69.510,202.267 66.399 C 201.699 65.286,201.639 65.295,204.816 66.036 C 206.720 66.479,207.719 66.627,207.961 66.500 C 208.479 66.229,208.399 65.950,207.693 65.559 C 207.350 65.368,206.252 64.690,205.253 64.050 L 203.437 62.888 204.714 61.616 C 206.992 59.349,208.607 56.566,207.820 56.264 C 207.372 56.092,203.394 58.179,201.879 59.381 C 200.205 60.709,200.590 60.830,198.147 58.215 C 195.981 55.897,195.442 55.589,195.204 56.534 M198.986 60.856 C 198.986 62.116,200.569 61.831,202.374 60.247 C 203.678 59.103,205.882 57.969,205.882 58.441 C 205.882 59.413,203.402 61.689,202.163 61.855 C 200.643 62.059,200.938 62.988,202.781 63.803 C 203.847 64.275,204.307 64.885,203.398 64.621 C 201.256 63.999,200.224 64.326,200.632 65.498 C 200.986 66.513,200.734 66.443,199.668 65.227 C 198.522 63.921,198.328 63.880,197.297 64.729 C 196.447 65.430,196.161 65.381,196.519 64.596 C 196.976 63.592,196.828 63.157,195.904 62.787 C 194.945 62.403,195.080 62.182,196.410 61.957 C 197.439 61.783,197.489 61.554,196.871 59.842 C 196.136 57.802,196.187 57.762,197.667 59.229 C 198.392 59.948,198.986 60.680,198.986 60.856 M34.982 60.153 L 34.839 61.684 33.342 62.694 C 31.726 63.785,31.227 64.700,32.404 64.416 C 35.519 63.664,36.298 63.985,36.308 66.024 C 36.322 68.810,36.658 69.122,37.413 67.050 C 38.206 64.875,38.297 64.843,39.766 66.204 C 41.492 67.802,41.937 67.677,40.771 65.923 C 39.790 64.447,39.881 64.300,41.785 64.300 C 43.945 64.300,44.012 63.961,41.963 63.403 C 39.484 62.729,38.043 61.933,38.263 61.359 C 38.399 61.006,36.023 58.621,35.537 58.621 C 35.173 58.621,35.109 58.797,34.982 60.153 M355.165 60.294 C 355.153 62.635,354.366 65.362,353.649 65.551 C 353.315 65.639,352.312 66.092,351.420 66.559 C 350.527 67.025,349.170 67.719,348.403 68.100 C 346.536 69.029,346.791 69.124,350.710 68.958 C 354.970 68.779,354.567 68.557,355.690 71.696 C 356.498 73.953,356.699 74.035,356.872 72.179 C 357.026 70.520,357.084 70.402,357.566 70.753 C 357.755 70.891,358.504 71.284,359.229 71.625 C 359.954 71.967,360.883 72.423,361.293 72.639 C 362.587 73.320,362.407 72.682,360.896 71.235 C 359.673 70.062,358.621 68.615,358.621 68.106 C 358.621 68.021,359.349 67.951,360.239 67.951 C 363.097 67.951,364.591 66.955,362.096 66.714 C 360.623 66.571,360.031 66.298,359.576 65.552 C 359.394 65.254,358.832 64.554,358.327 63.996 C 357.812 63.428,357.309 62.625,357.184 62.170 C 356.862 61.001,355.772 59.026,355.448 59.026 C 355.246 59.026,355.171 59.364,355.165 60.294 M36.610 60.003 C 37.830 61.998,38.442 62.558,40.086 63.185 L 41.684 63.793 40.631 63.899 C 39.340 64.029,39.292 64.074,39.666 64.796 C 40.080 65.594,39.893 65.670,39.066 65.038 C 38.152 64.341,38.193 64.325,37.601 65.619 C 36.985 66.963,36.714 67.035,36.714 65.852 C 36.714 65.366,36.609 64.669,36.482 64.303 L 36.249 63.636 34.301 63.773 L 32.353 63.910 33.671 62.956 C 35.241 61.820,35.286 61.762,35.294 60.852 C 35.308 59.122,35.855 58.769,36.610 60.003 M356.582 61.620 C 356.730 62.153,356.721 62.395,356.550 62.501 C 356.376 62.608,356.391 62.739,356.605 62.996 C 356.766 63.188,357.104 63.857,357.357 64.482 C 357.781 65.531,357.810 65.560,357.724 64.858 C 357.608 63.898,357.842 63.895,358.561 64.847 C 359.824 66.518,360.284 66.865,361.460 67.027 C 363.003 67.239,362.198 67.553,359.872 67.646 C 358.942 67.683,358.135 67.761,358.077 67.819 C 357.877 68.019,359.132 70.062,359.926 70.827 C 360.365 71.250,360.670 71.649,360.604 71.715 C 360.432 71.887,358.319 70.852,357.593 70.242 C 356.852 69.618,356.764 69.686,356.639 70.989 C 356.509 72.337,356.356 72.276,355.707 70.621 C 354.813 68.343,354.823 68.348,351.722 68.496 C 350.022 68.578,349.087 68.551,349.087 68.420 C 349.087 68.205,352.563 66.234,353.245 66.062 C 353.469 66.006,353.902 65.905,354.209 65.836 C 354.620 65.745,354.767 65.589,354.767 65.246 C 354.767 64.989,354.949 63.924,355.172 62.880 C 355.396 61.836,355.581 60.747,355.585 60.461 L 355.592 59.939 355.985 60.412 C 356.202 60.672,356.471 61.215,356.582 61.620 M84.886 63.087 C 84.724 63.349,83.488 67.279,83.037 68.966 C 82.474 71.068,82.438 71.090,79.209 71.308 C 75.341 71.569,74.598 71.683,74.366 72.053 C 73.981 72.667,74.433 72.791,78.860 73.289 C 81.231 73.555,83.222 73.824,83.284 73.885 C 83.345 73.947,82.664 75.425,81.769 77.170 C 80.874 78.915,80.193 80.476,80.255 80.638 C 80.474 81.209,81.111 80.946,81.627 80.071 C 81.906 79.597,83.238 78.114,84.586 76.775 L 87.038 74.341 87.757 75.152 C 89.680 77.320,92.810 80.325,93.146 80.325 C 94.263 80.325,92.827 76.877,90.158 73.152 C 89.334 72.001,89.258 71.446,89.909 71.316 C 93.939 70.511,94.937 70.293,95.538 70.083 C 95.928 69.946,96.686 69.770,97.223 69.690 C 99.395 69.368,98.622 68.405,96.192 68.405 C 92.122 68.406,88.509 67.417,87.723 66.086 C 87.440 65.606,86.914 64.711,86.554 64.097 C 85.909 62.997,85.205 62.571,84.886 63.087 M295.319 67.893 C 294.164 69.122,293.018 70.589,292.104 72.008 L 291.255 73.327 288.900 73.428 C 287.332 73.496,286.076 73.436,285.140 73.251 C 282.464 72.721,282.437 73.791,285.102 74.757 C 286.640 75.314,287.283 75.698,289.197 77.201 C 289.893 77.748,290.658 78.336,290.897 78.508 C 291.651 79.051,289.968 81.364,287.749 82.837 C 285.484 84.341,287.032 85.312,289.605 84.002 C 290.686 83.452,293.772 82.533,293.943 82.711 C 294.021 82.793,294.469 83.910,294.938 85.193 C 296.952 90.708,297.907 89.599,297.069 82.716 C 296.896 81.299,296.755 80.044,296.755 79.927 C 296.755 79.553,297.225 79.698,299.034 80.629 C 303.098 82.722,302.497 80.878,298.099 77.761 L 296.502 76.630 296.651 74.268 C 297.095 67.231,296.885 66.226,295.319 67.893 M119.057 78.103 C 118.845 78.315,118.359 79.108,117.978 79.866 L 117.285 81.243 115.114 81.628 C 112.915 82.019,112.488 82.266,112.983 82.862 C 113.222 83.150,113.486 83.240,115.675 83.789 C 116.939 84.105,116.932 84.077,116.193 85.891 C 115.141 88.474,116.091 88.625,118.856 86.315 L 119.719 85.594 120.864 86.237 C 121.493 86.590,122.109 86.957,122.233 87.052 C 122.638 87.361,124.797 88.032,125.387 88.032 C 126.377 88.032,126.102 87.341,124.401 85.556 L 122.839 83.916 123.844 83.466 C 127.057 82.028,126.873 80.004,123.593 80.707 C 120.673 81.332,120.690 81.335,120.690 80.152 C 120.690 78.214,119.916 77.244,119.057 78.103 M119.622 81.124 C 119.564 82.823,119.829 83.258,120.535 82.625 C 121.004 82.204,123.494 81.630,124.234 81.772 C 124.856 81.892,123.746 82.525,122.498 82.762 C 120.675 83.108,120.651 83.383,122.312 84.921 C 124.158 86.630,123.943 86.907,121.791 85.590 C 119.889 84.425,119.537 84.393,118.471 85.283 C 117.419 86.162,117.357 86.133,117.685 84.907 C 118.002 83.722,117.809 83.363,116.654 82.989 C 115.649 82.665,115.673 82.595,116.854 82.393 C 117.760 82.238,118.001 81.998,118.905 80.347 C 119.458 79.338,119.674 79.572,119.622 81.124 M68.898 87.356 C 68.824 87.431,68.763 87.750,68.763 88.065 C 68.763 88.380,68.363 89.529,67.876 90.617 C 67.388 91.706,66.740 93.418,66.436 94.422 C 66.131 95.426,65.789 96.362,65.675 96.501 C 65.517 96.694,63.947 96.755,59.097 96.755 C 53.481 96.755,52.711 96.793,52.603 97.075 C 52.421 97.549,52.872 97.863,54.564 98.438 C 56.920 99.239,61.286 100.914,62.054 101.311 C 62.434 101.507,63.118 101.778,63.573 101.913 C 64.794 102.275,64.356 103.600,61.241 108.980 C 60.451 110.344,59.636 112.008,59.429 112.677 C 58.485 115.744,58.012 117.428,58.012 117.727 C 58.012 118.279,58.824 118.095,59.400 117.414 C 59.696 117.062,60.612 116.035,61.435 115.132 C 62.258 114.228,63.777 112.302,64.811 110.852 C 65.845 109.402,66.932 107.991,67.227 107.717 C 67.521 107.443,68.184 106.644,68.700 105.942 C 69.215 105.240,69.790 104.665,69.978 104.665 C 70.549 104.665,72.880 107.299,73.928 109.128 C 76.534 113.673,77.451 115.116,78.849 116.868 C 80.497 118.934,80.728 119.133,81.243 118.935 C 81.892 118.686,81.452 117.288,79.559 113.590 C 77.107 108.801,74.976 103.249,75.355 102.637 C 75.433 102.510,77.437 102.434,80.711 102.434 C 85.460 102.434,85.971 102.401,86.267 102.074 C 86.967 101.301,86.777 101.226,80.248 99.686 C 73.319 98.052,72.531 97.321,71.100 91.200 C 70.309 87.820,69.626 86.628,68.898 87.356 M70.402 92.533 C 71.433 97.510,73.056 99.019,78.863 100.401 C 82.805 101.339,82.765 101.407,78.270 101.414 C 73.722 101.421,73.620 101.454,74.113 102.768 C 74.275 103.198,74.685 104.462,75.024 105.578 C 75.792 108.101,76.974 110.962,78.125 113.083 C 78.610 113.976,79.121 114.980,79.261 115.314 L 79.517 115.923 78.892 115.213 C 78.548 114.823,77.755 113.636,77.130 112.576 C 73.522 106.466,73.456 106.368,71.815 104.801 C 69.840 102.914,69.840 102.914,68.511 104.592 C 67.924 105.333,67.022 106.406,66.507 106.976 C 65.991 107.546,64.818 109.062,63.901 110.345 C 59.450 116.566,58.468 115.719,62.372 109.026 C 65.877 103.017,66.270 101.261,64.183 100.944 C 63.728 100.874,62.749 100.542,62.006 100.205 C 61.263 99.869,59.764 99.263,58.674 98.859 C 57.585 98.456,56.607 98.045,56.501 97.947 C 56.390 97.844,58.340 97.769,61.116 97.769 C 66.822 97.769,66.408 97.958,67.344 94.924 C 67.694 93.791,68.314 92.139,68.723 91.252 C 69.634 89.273,69.745 89.358,70.402 92.533 M69.006 95.132 C 69.012 96.016,69.043 96.121,69.157 95.639 C 69.300 95.033,69.301 95.034,69.534 95.943 C 69.728 96.702,69.755 96.736,69.692 96.145 C 69.650 95.754,69.477 95.115,69.307 94.725 L 68.999 94.016 69.006 95.132 M346.500 97.414 C 346.194 97.797,344.945 100.739,344.455 102.231 C 343.628 104.754,343.383 106.642,343.263 111.412 L 343.147 116.029 341.807 117.015 C 338.065 119.768,332.169 123.124,331.073 123.124 C 330.686 123.124,330.599 123.818,330.955 124.077 C 331.331 124.353,333.932 124.268,336.207 123.907 C 339.767 123.341,342.773 122.928,343.357 122.925 L 344.016 122.921 344.018 125.101 C 344.023 131.063,345.819 140.371,347.127 141.213 C 347.884 141.701,348.350 140.379,351.000 130.223 C 352.601 124.085,352.840 123.617,354.206 123.923 C 356.195 124.369,361.917 127.220,363.996 128.802 C 366.827 130.956,367.960 131.575,368.277 131.141 C 368.586 130.719,368.472 130.455,367.527 129.412 C 367.174 129.021,366.408 128.109,365.826 127.383 C 364.065 125.189,362.514 123.965,359.694 122.544 C 358.600 121.993,356.066 120.451,354.892 119.623 C 354.549 119.381,354.727 119.282,356.616 118.667 C 360.437 117.422,363.006 115.822,364.840 113.546 C 366.691 111.248,367.242 110.151,366.711 109.823 C 366.284 109.559,362.709 109.727,361.818 110.053 C 358.753 111.174,355.533 112.149,354.686 112.213 L 353.896 112.272 353.622 110.933 C 353.463 110.161,352.758 108.359,351.956 106.674 C 351.191 105.067,350.449 103.387,350.307 102.941 C 349.181 99.403,347.205 96.533,346.500 97.414 M348.331 100.862 C 348.836 102.006,349.317 103.169,349.399 103.448 C 349.482 103.727,350.140 105.188,350.862 106.694 C 353.029 111.219,353.332 113.170,351.980 113.895 C 351.180 114.323,350.898 114.883,351.388 115.071 C 351.706 115.193,353.260 114.443,354.297 113.668 C 354.652 113.402,355.081 113.185,355.250 113.185 C 355.615 113.185,358.865 112.172,361.166 111.340 C 363.007 110.675,365.314 110.507,365.314 111.037 C 365.314 111.300,364.393 112.541,363.252 113.813 C 361.662 115.586,358.235 117.301,354.446 118.220 C 352.357 118.727,352.630 119.682,355.281 121.143 C 355.835 121.448,356.854 122.041,357.545 122.461 C 358.237 122.881,359.541 123.629,360.444 124.122 C 362.058 125.003,364.921 127.439,364.655 127.704 C 364.581 127.779,364.006 127.499,363.378 127.082 C 360.566 125.215,354.620 122.718,352.987 122.718 C 352.019 122.718,351.813 123.276,349.148 133.130 C 348.278 136.346,347.475 138.992,347.363 139.010 C 346.637 139.123,345.253 131.387,345.075 126.217 L 344.929 122.008 344.118 121.940 C 343.029 121.850,338.334 122.446,335.446 123.041 C 334.343 123.268,334.933 122.725,337.677 120.985 C 339.870 119.595,343.301 117.266,344.016 116.683 C 344.072 116.637,344.176 114.348,344.246 111.596 C 344.392 105.933,344.744 103.892,346.149 100.558 C 347.093 98.317,347.214 98.334,348.331 100.862 M64.706 99.083 C 64.706 99.266,66.312 100.000,66.675 99.983 C 66.879 99.973,66.777 99.887,66.442 99.787 C 66.114 99.689,65.767 99.469,65.671 99.297 C 65.516 99.019,64.706 98.840,64.706 99.083 M72.079 99.863 C 72.286 100.035,72.404 100.258,72.342 100.358 C 72.280 100.459,72.364 100.541,72.530 100.541 C 72.953 100.541,72.787 100.190,72.200 99.843 C 71.747 99.575,71.736 99.577,72.079 99.863 M67.850 100.913 C 67.850 101.282,67.918 101.542,68.002 101.490 C 68.086 101.438,68.154 101.179,68.154 100.913 C 68.154 100.647,68.086 100.387,68.002 100.336 C 67.918 100.284,67.850 100.544,67.850 100.913 M71.008 100.659 C 71.016 100.910,71.107 101.298,71.210 101.521 C 71.350 101.823,71.367 101.752,71.276 101.242 C 71.192 100.776,71.241 100.502,71.429 100.383 C 71.643 100.248,71.625 100.208,71.349 100.206 C 71.111 100.204,70.999 100.353,71.008 100.659 M69.164 101.729 C 69.023 101.899,68.966 102.097,69.038 102.169 C 69.110 102.240,69.168 102.189,69.168 102.056 C 69.168 101.922,69.374 101.730,69.625 101.629 C 69.934 101.505,69.974 101.441,69.751 101.433 C 69.569 101.426,69.305 101.559,69.164 101.729 M66.756 103.093 C 66.662 103.344,66.516 103.778,66.430 104.057 L 66.275 104.564 66.723 104.163 C 66.969 103.943,67.077 103.732,66.963 103.693 C 66.827 103.648,66.820 103.452,66.942 103.130 C 67.045 102.859,67.084 102.637,67.028 102.637 C 66.973 102.637,66.850 102.842,66.756 103.093 M295.883 106.011 C 295.804 106.089,295.740 106.633,295.740 107.221 C 295.740 107.808,295.458 109.368,295.112 110.686 C 293.906 115.288,293.714 116.141,293.373 118.404 L 293.030 120.682 290.582 122.492 C 289.235 123.488,286.550 125.794,284.613 127.618 C 282.677 129.441,280.521 131.408,279.822 131.988 C 277.272 134.103,277.573 134.280,283.737 134.281 C 286.561 134.282,288.866 134.373,289.332 134.502 L 290.124 134.722 289.977 138.304 C 289.897 140.274,289.751 142.388,289.653 143.002 C 288.426 150.691,287.988 162.779,288.937 162.779 C 289.867 162.779,293.791 154.045,295.342 148.520 C 295.675 147.335,296.028 146.285,296.126 146.187 C 296.438 145.875,298.139 150.627,301.631 161.562 C 302.953 165.704,303.244 166.329,303.847 166.329 C 304.472 166.329,304.468 166.391,304.659 155.791 C 304.760 150.209,304.899 145.550,304.969 145.437 C 305.049 145.308,307.329 145.233,311.219 145.232 C 317.789 145.231,318.936 145.104,318.826 144.392 C 318.782 144.106,318.456 143.874,317.748 143.623 C 317.191 143.425,315.781 142.686,314.616 141.979 C 311.905 140.336,307.813 138.558,304.854 137.738 C 301.201 136.726,301.491 136.944,301.245 135.024 C 301.129 134.113,300.932 131.678,300.807 129.615 C 300.575 125.764,300.164 123.439,298.763 118.053 C 298.429 116.770,298.024 114.442,297.863 112.880 C 297.701 111.318,297.419 109.584,297.235 109.026 C 297.051 108.469,296.845 107.557,296.777 107.000 C 296.659 106.038,296.278 105.616,295.883 106.011 M118.095 108.460 C 117.872 108.773,117.588 109.394,117.465 109.840 C 117.130 111.051,117.059 111.103,115.415 111.339 C 111.819 111.854,111.614 112.356,114.459 113.676 C 116.572 114.657,116.633 114.734,116.633 116.433 C 116.633 118.909,117.244 119.248,118.482 117.462 C 118.901 116.858,119.467 116.140,119.741 115.867 L 120.238 115.370 121.629 115.926 C 124.793 117.192,125.069 116.575,122.558 113.841 C 121.216 112.379,120.657 111.603,120.407 110.852 C 119.523 108.196,118.809 107.457,118.095 108.460 M119.166 110.471 C 119.334 110.875,119.473 111.440,119.473 111.727 C 119.473 112.095,119.801 112.562,120.588 113.312 C 121.830 114.495,122.046 114.994,121.105 114.508 C 120.166 114.023,119.838 114.128,118.904 115.213 C 117.832 116.457,117.647 116.475,117.647 115.332 C 117.647 114.317,117.173 113.784,115.669 113.106 C 114.575 112.612,114.711 112.438,116.325 112.265 C 117.804 112.106,117.889 112.037,118.250 110.700 C 118.563 109.544,118.758 109.496,119.166 110.471 M297.036 114.199 C 297.212 115.705,297.621 117.896,297.944 119.067 C 299.061 123.117,299.552 125.948,299.792 129.716 C 300.026 133.386,300.335 136.522,300.525 137.157 C 300.645 137.556,301.477 137.879,304.632 138.750 C 308.421 139.795,315.281 143.067,315.571 143.966 C 315.635 144.164,314.423 144.219,309.963 144.219 C 304.435 144.219,304.268 144.231,304.051 144.635 C 303.907 144.905,303.795 147.632,303.733 152.394 C 303.629 160.434,303.498 163.216,303.239 162.952 C 303.145 162.857,302.598 161.273,302.021 159.432 C 300.448 154.408,298.833 149.685,297.736 146.903 C 297.196 145.535,296.755 144.146,296.755 143.817 C 296.755 142.239,295.597 142.698,295.325 144.385 C 294.850 147.333,293.386 151.747,291.240 156.694 C 289.435 160.857,289.452 160.862,289.452 156.168 C 289.452 152.292,289.792 148.523,290.576 143.712 C 290.740 142.708,290.933 140.131,291.006 137.985 L 291.139 134.083 290.346 133.732 C 289.703 133.447,288.713 133.360,285.091 133.273 C 282.077 133.199,280.629 133.093,280.629 132.944 C 280.629 132.721,283.376 130.067,287.162 126.633 C 288.293 125.607,290.269 123.986,291.554 123.031 C 294.123 121.120,294.007 121.294,294.320 118.864 C 294.616 116.567,295.617 112.344,296.292 110.548 C 296.466 110.084,296.675 111.110,297.036 114.199 M295.661 121.477 C 295.039 123.279,293.780 125.618,293.065 126.298 C 291.813 127.488,289.561 129.063,288.684 129.362 C 287.394 129.801,287.695 130.142,289.267 130.023 C 289.982 129.968,291.298 129.923,292.191 129.921 L 293.813 129.919 293.873 131.284 C 293.909 132.098,293.807 133.074,293.620 133.704 C 293.184 135.170,293.433 135.851,293.928 134.549 C 294.042 134.250,294.425 133.558,294.780 133.010 L 295.426 132.013 296.040 132.728 C 296.377 133.122,296.865 133.723,297.125 134.065 C 298.149 135.412,298.289 134.117,297.377 131.747 C 296.404 129.222,296.399 129.080,297.262 128.918 C 298.219 128.739,298.334 128.355,297.775 127.210 C 296.984 125.587,296.297 123.281,296.165 121.805 L 296.037 120.385 295.661 121.477 M295.943 123.529 C 295.943 123.739,296.022 123.960,296.118 124.019 C 296.214 124.079,296.411 124.563,296.556 125.096 C 296.701 125.629,297.039 126.508,297.308 127.049 C 297.940 128.321,297.823 128.600,296.660 128.600 C 295.682 128.600,295.571 128.752,296.023 129.470 C 296.485 130.204,297.646 133.456,297.499 133.603 C 297.342 133.761,296.017 132.321,295.836 131.795 C 295.641 131.232,295.236 131.380,294.868 132.150 C 294.321 133.298,294.118 133.015,294.118 131.107 L 294.118 129.354 291.886 129.460 C 290.659 129.518,289.655 129.538,289.655 129.505 C 289.655 129.472,290.513 128.802,291.562 128.018 C 293.625 126.474,293.938 126.114,294.910 124.181 C 295.520 122.967,295.943 122.700,295.943 123.529 M80.647 132.223 C 80.580 132.331,80.468 133.135,80.398 134.009 C 80.193 136.566,79.743 137.230,77.955 137.615 C 76.334 137.964,76.459 139.222,78.123 139.310 L 79.269 139.370 79.401 140.121 C 79.701 141.830,80.346 143.408,80.743 143.408 C 81.190 143.408,82.150 141.693,82.150 140.896 C 82.150 140.151,82.356 139.757,82.744 139.757 C 85.232 139.757,86.160 138.093,83.855 137.764 L 82.860 137.622 82.720 136.083 C 82.509 133.759,81.202 131.325,80.647 132.223 M82.049 136.364 L 82.049 137.940 82.759 138.137 C 83.149 138.246,83.669 138.335,83.913 138.336 C 85.216 138.339,84.290 138.943,82.531 139.237 C 81.821 139.355,81.791 139.396,81.657 140.401 C 81.252 143.458,80.674 143.110,79.832 139.300 C 79.715 138.775,79.644 138.742,78.597 138.742 C 77.195 138.742,77.177 138.470,78.550 138.022 C 80.194 137.485,80.916 136.505,80.931 134.787 C 80.935 134.341,81.000 133.747,81.074 133.469 C 81.346 132.454,82.049 134.542,82.049 136.364 M65.089 139.807 C 65.077 139.947,65.043 140.338,65.014 140.676 C 64.985 141.014,64.847 142.885,64.709 144.834 C 64.461 148.329,64.365 148.727,63.685 149.091 C 62.958 149.480,60.138 149.921,58.396 149.918 C 55.828 149.914,55.540 150.054,55.618 151.264 C 55.718 152.817,56.642 153.214,60.387 153.314 L 63.269 153.392 63.464 154.028 C 63.572 154.379,63.702 155.989,63.754 157.606 C 63.876 161.379,63.836 161.291,65.371 161.216 C 66.992 161.137,67.340 160.542,67.600 157.416 C 67.918 153.593,68.225 153.277,71.779 153.098 C 74.921 152.939,76.268 152.161,76.268 150.504 C 76.268 149.165,75.941 149.050,71.704 148.903 L 68.256 148.783 68.137 145.639 C 68.019 142.527,67.634 140.698,66.913 139.829 C 66.622 139.478,65.120 139.460,65.089 139.807 M67.094 141.731 C 67.575 143.222,67.759 148.233,67.357 148.868 C 67.239 149.055,67.287 149.326,67.496 149.644 C 67.771 150.064,67.841 150.088,67.995 149.813 C 68.399 149.092,75.390 149.467,75.670 150.224 C 76.141 151.500,74.659 152.344,71.618 152.532 C 67.878 152.762,67.341 153.241,67.103 156.553 C 66.857 159.982,66.491 160.852,65.295 160.852 C 64.448 160.852,64.301 160.306,64.296 157.137 C 64.292 154.955,64.221 154.307,63.908 153.619 L 63.526 152.776 60.515 152.703 C 56.908 152.616,56.119 152.350,56.225 151.256 L 56.288 150.609 58.722 150.475 C 61.485 150.324,62.966 150.074,63.873 149.605 C 65.054 148.995,65.044 149.041,65.448 142.394 C 65.628 139.442,66.274 139.183,67.094 141.731 M254.889 143.975 C 254.285 145.180,253.687 146.549,253.561 147.018 C 253.272 148.090,253.208 148.084,251.883 146.873 C 246.368 141.832,244.926 143.779,249.968 149.457 C 251.140 150.777,251.201 150.421,249.321 153.268 C 247.335 156.278,247.210 156.516,247.366 157.006 C 247.496 157.417,248.160 157.552,248.372 157.209 C 248.438 157.102,249.053 156.716,249.738 156.351 C 250.422 155.986,251.470 155.242,252.066 154.697 C 253.360 153.514,253.224 153.450,255.185 156.178 C 257.189 158.966,257.290 159.078,257.725 158.995 C 258.413 158.864,258.331 156.053,257.585 154.217 C 257.212 153.297,257.307 153.280,259.553 153.869 C 263.855 154.998,265.738 154.456,262.639 152.981 C 260.007 151.728,260.038 151.782,261.308 150.708 C 263.181 149.123,265.575 146.486,265.445 146.150 C 265.289 145.741,264.800 145.761,263.429 146.233 C 262.803 146.449,261.354 146.819,260.209 147.056 C 259.064 147.293,258.010 147.585,257.867 147.704 C 257.661 147.875,257.606 147.704,257.606 146.881 C 257.606 145.888,257.062 142.256,256.865 141.937 C 256.486 141.323,255.933 141.893,254.889 143.975 M256.572 146.896 C 256.684 149.013,256.725 149.189,257.099 149.189 C 257.393 149.189,257.523 149.032,257.570 148.618 C 257.623 148.162,257.691 148.094,257.913 148.278 C 258.122 148.451,258.677 148.404,260.171 148.087 C 263.146 147.457,263.165 147.467,261.758 148.909 C 260.951 149.737,260.118 150.349,259.259 150.746 C 258.113 151.276,257.980 151.397,258.064 151.837 C 258.154 152.308,258.109 152.333,257.166 152.333 C 255.880 152.333,255.782 152.609,256.479 154.250 C 257.648 156.999,257.114 157.149,255.280 154.589 C 253.426 152.001,253.372 151.981,252.021 153.359 C 249.621 155.805,249.038 155.659,250.690 153.025 C 252.232 150.566,252.231 150.466,250.651 148.637 C 247.529 145.022,247.817 144.682,251.389 147.764 C 253.654 149.719,253.908 149.722,254.408 147.810 C 254.749 146.504,255.374 145.042,255.837 144.464 C 256.250 143.949,256.451 144.612,256.572 146.896 M84.422 145.882 C 84.288 146.016,84.178 146.657,84.178 147.307 C 84.178 148.580,83.883 148.884,82.649 148.884 C 82.052 148.884,81.454 149.708,81.635 150.280 C 81.782 150.743,82.662 150.996,83.443 150.800 C 83.943 150.674,83.976 150.710,83.976 151.383 C 83.976 153.074,85.634 153.294,85.801 151.625 C 85.900 150.637,85.920 150.611,86.663 150.491 C 88.155 150.250,88.636 149.092,87.247 149.084 C 86.452 149.079,86.251 148.870,86.010 147.794 C 85.600 145.965,85.028 145.276,84.422 145.882 M85.479 148.007 C 85.689 149.056,85.794 149.227,86.417 149.534 L 87.120 149.879 86.400 149.889 C 85.452 149.902,85.193 150.200,85.193 151.275 C 85.193 152.458,84.722 152.323,84.584 151.100 L 84.483 150.203 83.386 150.203 C 81.569 150.203,81.869 149.510,83.824 149.192 C 84.582 149.069,84.584 149.065,84.584 148.080 C 84.584 146.058,85.082 146.018,85.479 148.007 M217.175 150.456 C 216.953 150.829,215.660 154.948,215.536 155.680 C 214.890 159.478,214.427 160.134,212.103 160.537 C 211.118 160.709,210.228 160.900,210.125 160.964 C 209.557 161.315,210.265 162.069,211.163 162.069 C 211.653 162.069,215.225 163.811,215.473 164.172 C 215.680 164.471,215.479 166.208,214.996 168.299 C 214.284 171.382,215.762 171.466,218.721 168.512 L 220.099 167.136 221.180 168.304 C 221.775 168.947,222.657 169.975,223.141 170.588 C 225.566 173.663,226.442 173.127,225.037 169.429 C 224.203 167.235,223.008 162.929,223.184 162.752 C 223.225 162.711,224.118 162.627,225.169 162.565 C 228.132 162.391,228.434 162.321,228.359 161.825 C 228.325 161.591,228.159 161.327,227.992 161.237 C 227.265 160.845,222.928 159.043,221.955 158.729 C 220.683 158.318,220.620 158.215,219.844 155.298 C 218.868 151.625,217.719 149.543,217.175 150.456 M108.058 151.116 C 107.850 151.773,107.505 154.421,107.505 155.362 C 107.505 156.671,107.359 156.998,106.772 156.998 C 106.505 156.998,105.807 157.238,105.222 157.531 C 104.637 157.824,103.615 158.220,102.952 158.410 C 100.908 158.999,101.269 159.229,104.236 159.229 C 107.288 159.229,107.162 159.148,107.403 161.258 C 107.604 163.021,108.368 165.959,108.621 165.943 C 108.732 165.937,108.880 165.359,108.948 164.659 C 109.090 163.220,109.512 160.806,109.645 160.672 C 109.694 160.624,110.442 160.916,111.307 161.322 C 114.436 162.789,114.919 162.554,112.880 160.555 C 111.322 159.027,111.340 159.119,112.395 158.104 C 113.344 157.191,114.807 155.295,114.807 154.978 C 114.807 154.846,114.085 154.767,112.890 154.767 L 110.973 154.767 110.320 153.803 C 109.960 153.273,109.431 152.557,109.143 152.212 C 108.856 151.866,108.516 151.410,108.387 151.198 C 108.196 150.881,108.136 150.866,108.058 151.116 M109.568 153.360 C 109.990 153.966,110.337 154.612,110.340 154.796 C 110.347 155.263,110.800 155.385,111.655 155.149 C 112.546 154.903,114.039 154.989,114.138 155.292 C 114.178 155.413,113.482 156.326,112.591 157.320 L 110.971 159.128 112.117 160.289 C 113.562 161.753,113.392 161.928,111.457 160.971 C 109.406 159.958,109.300 159.997,109.007 161.896 C 108.568 164.731,107.974 163.990,107.561 160.091 L 107.448 159.026 105.584 159.026 C 104.558 159.026,103.655 158.962,103.577 158.884 C 103.355 158.663,106.109 157.416,106.834 157.409 C 107.674 157.402,107.680 157.386,107.913 154.943 C 108.226 151.658,108.321 151.567,109.568 153.360 M79.417 154.415 C 79.234 154.676,79.108 155.296,79.108 155.927 C 79.108 156.516,79.074 156.998,79.034 156.998 C 78.507 156.998,76.688 157.480,76.330 157.715 C 75.192 158.460,76.205 159.551,77.558 159.037 C 78.180 158.801,78.166 158.783,78.505 160.342 C 79.020 162.712,80.466 162.633,80.266 160.246 C 80.228 159.801,80.339 159.712,81.205 159.496 C 83.600 158.899,83.957 157.606,81.728 157.606 L 80.933 157.606 80.933 156.572 C 80.933 154.773,80.048 153.514,79.417 154.415 M171.566 154.209 C 171.392 154.348,171.109 155.010,170.937 155.680 C 170.626 156.886,169.969 158.545,169.322 159.757 C 168.933 160.485,168.128 160.702,164.503 161.056 C 161.486 161.350,160.966 161.488,160.890 162.015 C 160.837 162.379,160.972 162.488,161.701 162.668 C 164.628 163.391,167.651 164.453,167.714 164.779 C 167.784 165.144,166.845 167.262,163.957 173.252 C 163.009 175.220,162.265 177.000,162.305 177.208 C 162.403 177.723,163.250 177.829,163.413 177.347 C 163.952 175.753,164.898 174.568,170.613 168.322 C 171.463 167.393,172.499 166.099,172.914 165.446 C 173.818 164.025,173.684 163.900,175.156 167.546 C 176.446 170.742,180.422 178.767,181.262 179.868 C 182.749 181.817,183.228 179.647,182.034 176.369 C 181.627 175.254,181.134 173.747,180.938 173.022 C 180.014 169.606,179.257 167.294,178.518 165.630 C 177.579 163.518,177.585 163.489,178.967 163.488 C 181.534 163.485,184.990 162.729,184.990 162.171 C 184.990 161.685,184.319 161.516,181.006 161.170 C 177.509 160.804,176.170 160.363,175.849 159.469 C 175.364 158.119,174.058 155.886,173.213 154.965 C 172.226 153.888,172.061 153.812,171.566 154.209 M80.292 155.081 C 80.635 155.833,80.587 157.102,80.203 157.420 C 79.772 157.778,80.247 157.978,81.580 157.998 C 83.163 158.022,82.858 158.792,81.136 159.123 C 79.637 159.411,79.670 159.378,79.817 160.443 C 79.899 161.041,79.870 161.467,79.741 161.546 C 79.424 161.742,78.954 160.869,78.797 159.794 C 78.618 158.565,78.382 158.371,77.396 158.643 C 76.833 158.799,76.563 158.793,76.396 158.623 C 76.036 158.257,76.978 157.606,77.868 157.606 C 79.015 157.606,79.513 157.148,79.513 156.090 C 79.513 154.587,79.861 154.135,80.292 155.081 M172.858 156.136 C 173.145 156.443,173.707 157.330,174.107 158.107 L 174.835 159.521 174.433 159.949 C 173.956 160.456,174.385 161.055,175.224 161.055 C 175.469 161.055,176.176 161.233,176.794 161.450 C 177.413 161.668,178.324 161.906,178.818 161.980 C 180.171 162.183,179.898 162.449,178.267 162.516 C 176.185 162.602,176.156 162.712,177.427 165.654 C 177.997 166.973,178.845 169.422,179.312 171.095 C 179.778 172.769,180.387 174.754,180.665 175.506 C 180.943 176.258,181.134 176.983,181.089 177.117 C 180.873 177.766,176.381 168.349,174.843 164.025 C 174.087 161.897,173.469 161.473,173.126 162.844 C 172.932 163.616,171.790 165.431,170.688 166.718 C 168.984 168.708,166.337 171.475,166.235 171.374 C 166.092 171.231,166.814 169.405,167.748 167.546 C 169.427 164.207,169.311 163.768,166.549 162.997 C 164.099 162.312,163.915 162.139,165.464 161.976 C 166.748 161.840,168.862 161.497,169.425 161.333 C 169.901 161.194,172.008 156.669,172.008 155.785 C 172.008 155.429,172.318 155.557,172.858 156.136 M86.450 170.629 C 86.316 170.763,86.207 171.351,86.207 171.937 C 86.207 175.205,85.972 175.421,82.233 175.583 C 77.515 175.788,77.063 176.588,80.994 177.776 C 83.153 178.429,83.124 178.364,82.485 181.079 C 82.202 182.282,81.912 183.722,81.841 184.280 C 81.769 184.838,81.672 185.436,81.625 185.609 C 81.267 186.930,82.081 186.650,83.989 184.798 L 85.903 182.939 86.511 183.697 C 90.071 188.127,90.414 188.429,90.942 187.590 C 91.104 187.334,90.991 186.598,90.491 184.648 C 90.125 183.219,89.776 181.843,89.716 181.592 L 89.608 181.136 93.663 181.136 C 99.452 181.136,99.519 181.017,94.983 178.790 L 91.994 177.323 93.719 176.525 C 99.205 173.991,97.407 172.627,90.829 174.334 C 89.901 174.574,89.249 174.347,89.249 173.782 C 89.249 173.604,87.807 171.156,87.457 170.740 C 87.107 170.325,86.789 170.290,86.450 170.629 M88.247 173.986 C 88.731 174.855,88.929 175.511,89.023 176.561 L 89.148 177.969 90.529 178.224 C 92.051 178.504,94.835 179.688,94.577 179.946 C 94.487 180.036,93.138 180.135,91.578 180.166 L 88.742 180.223 88.768 181.237 C 88.782 181.795,88.987 182.877,89.224 183.642 C 89.995 186.128,89.768 186.205,88.086 184.026 C 87.418 183.162,86.809 182.254,86.732 182.008 C 86.520 181.333,85.787 181.184,85.404 181.738 C 84.718 182.731,83.501 183.976,83.217 183.976 C 82.875 183.976,82.921 183.583,83.594 180.758 C 84.165 178.359,84.084 177.886,83.012 177.389 C 81.647 176.754,82.233 176.478,84.949 176.473 C 86.410 176.470,86.531 176.324,87.011 173.986 C 87.142 173.344,87.328 172.819,87.423 172.819 C 87.518 172.819,87.889 173.344,88.247 173.986 M94.509 174.949 C 94.067 175.391,90.694 176.726,90.351 176.595 C 89.961 176.445,89.981 175.677,90.378 175.525 C 91.956 174.919,94.957 174.501,94.509 174.949 " stroke="none" fill="#EC791A" fill-rule="evenodd"></path></g></svg>