<svg id="svg" version="1.1" xmlns="http://www.w3.org/2000/svg" xmlns:xlink="http://www.w3.org/1999/xlink" width="400" height="400" viewBox="0, 0, 400,400"><g id="svgg"><path id="path0" d="M96.442 193.023 C 88.169 194.050,80.974 196.359,80.733 198.063 C 80.608 198.947,80.415 199.007,77.336 199.116 C 72.764 199.278,71.472 201.192,75.527 201.797 C 77.651 202.114,79.220 202.779,81.088 204.155 C 81.992 204.821,83.366 205.245,85.688 205.574 C 90.813 206.299,92.176 207.200,88.150 207.200 C 85.020 207.200,83.609 208.743,85.900 209.660 L 87.000 210.101 85.800 210.462 C 85.140 210.660,82.350 210.932,79.600 211.066 C 76.850 211.200,74.150 211.536,73.600 211.812 C 73.050 212.088,70.980 212.442,69.000 212.598 C 60.945 213.233,61.744 215.200,70.057 215.200 C 74.444 215.200,76.263 215.347,76.914 215.753 C 77.559 216.155,80.136 216.373,86.400 216.553 C 91.130 216.689,95.675 216.914,96.500 217.053 C 99.638 217.580,97.785 218.000,92.300 218.005 C 86.053 218.011,84.975 218.166,84.613 219.110 C 83.919 220.918,86.988 221.374,102.899 221.832 C 110.463 222.049,112.905 222.244,113.248 222.658 C 113.601 223.083,115.566 223.201,122.349 223.205 C 134.628 223.213,145.013 223.814,156.360 225.174 C 176.187 227.549,193.418 228.528,216.084 228.566 C 238.399 228.603,238.652 228.577,237.251 226.334 L 236.718 225.480 246.259 225.743 C 273.269 226.486,278.095 226.519,282.682 225.991 C 288.297 225.344,303.819 225.938,314.773 227.220 C 324.723 228.384,347.194 228.567,348.275 227.492 C 350.728 225.054,344.890 222.654,329.084 219.603 C 319.425 217.739,319.433 217.662,329.435 216.595 C 335.304 215.969,336.800 215.604,336.800 214.800 C 336.800 214.256,334.428 213.499,333.503 213.748 C 332.709 213.961,323.987 213.308,323.682 213.012 C 323.618 212.950,323.712 212.021,323.891 210.949 L 324.216 209.000 327.517 208.754 C 329.624 208.597,331.067 208.285,331.509 207.892 C 332.096 207.369,332.917 207.326,336.980 207.610 C 341.525 207.927,343.200 207.718,343.200 206.835 C 343.200 206.090,342.018 205.666,338.200 205.039 C 330.553 203.783,329.988 203.621,329.587 202.567 L 329.220 201.600 320.110 201.591 C 310.218 201.582,303.314 200.954,298.269 199.603 C 288.931 197.104,279.265 196.092,260.000 195.598 C 252.190 195.398,243.460 195.049,240.600 194.822 C 225.997 193.663,218.525 193.481,172.000 193.146 C 144.610 192.949,117.430 192.713,111.600 192.622 C 103.980 192.504,99.719 192.616,96.442 193.023 M124.200 194.774 C 124.803 195.013,124.212 195.261,121.800 195.781 C 116.268 196.973,114.060 197.670,113.357 198.447 C 112.213 199.711,86.391 199.311,85.057 198.009 C 84.312 197.281,89.247 195.813,95.142 195.009 C 99.419 194.425,122.844 194.236,124.200 194.774 M223.293 195.554 C 226.535 195.719,229.320 195.986,229.482 196.148 C 230.134 196.801,228.457 197.231,226.000 197.041 C 224.570 196.931,220.160 196.634,216.200 196.381 C 212.240 196.127,208.280 195.777,207.400 195.603 C 205.282 195.183,215.372 195.152,223.293 195.554 M143.914 198.352 C 143.781 199.043,129.474 199.565,127.200 198.962 L 126.200 198.696 127.400 198.298 C 128.609 197.897,141.982 197.270,143.319 197.552 C 143.727 197.638,143.985 197.984,143.914 198.352 M202.800 198.370 C 208.196 198.807,212.362 199.420,212.755 199.835 C 213.054 200.151,207.037 199.786,202.400 199.206 C 200.530 198.973,197.260 198.651,195.133 198.491 C 193.006 198.331,191.116 198.044,190.933 197.853 C 190.593 197.499,193.751 197.637,202.800 198.370 M252.284 198.049 C 260.053 199.168,253.515 199.585,242.905 198.647 C 239.773 198.370,237.088 198.022,236.939 197.872 C 236.489 197.422,248.930 197.566,252.284 198.049 M282.995 198.632 C 292.482 199.807,291.947 200.388,281.600 200.147 C 272.846 199.943,264.889 198.982,263.200 197.924 C 262.291 197.355,276.907 197.877,282.995 198.632 M100.000 204.038 C 107.225 204.468,108.400 204.721,108.400 205.849 C 108.400 206.152,108.175 206.398,107.900 206.396 C 106.878 206.389,92.889 204.784,89.900 204.331 C 85.920 203.728,85.772 202.993,89.700 203.340 C 91.295 203.482,95.930 203.795,100.000 204.038 M228.256 206.056 C 230.193 206.544,229.980 207.182,227.877 207.194 C 226.309 207.202,223.200 206.377,223.200 205.953 C 223.200 205.455,226.106 205.515,228.256 206.056 M313.427 206.032 C 317.194 206.719,316.979 207.200,312.904 207.200 C 309.341 207.200,308.007 206.748,309.249 205.961 C 309.971 205.504,310.582 205.514,313.427 206.032 M167.200 206.800 C 167.200 207.020,166.581 207.200,165.824 207.200 C 165.067 207.200,164.336 207.020,164.200 206.800 C 164.051 206.558,164.596 206.400,165.576 206.400 C 166.469 206.400,167.200 206.580,167.200 206.800 M323.600 206.800 C 323.600 207.301,323.176 207.301,322.400 206.800 C 321.915 206.486,321.972 206.411,322.700 206.406 C 323.195 206.403,323.600 206.580,323.600 206.800 M321.738 210.069 C 323.255 212.492,319.087 213.493,311.600 212.502 C 309.449 212.217,309.497 212.202,313.800 211.805 L 318.200 211.400 318.329 210.278 C 318.480 208.962,320.950 208.811,321.738 210.069 M116.800 217.200 C 116.800 217.712,113.992 217.712,113.200 217.200 C 112.770 216.922,113.197 216.811,114.700 216.806 C 115.855 216.803,116.800 216.980,116.800 217.200 M315.800 219.754 C 316.456 220.120,316.065 220.221,313.639 220.319 C 310.762 220.434,309.646 220.096,310.160 219.264 C 310.470 218.763,314.677 219.129,315.800 219.754 M328.000 221.216 C 337.960 223.020,345.600 225.138,345.600 226.096 C 345.600 226.497,324.434 226.435,323.400 226.031 C 322.814 225.802,323.242 225.645,325.000 225.443 C 329.272 224.953,329.659 224.818,329.523 223.863 C 329.405 223.037,329.179 222.995,324.300 222.888 C 321.348 222.823,319.200 222.613,319.200 222.388 C 319.200 222.175,319.381 222.000,319.603 222.000 C 319.824 222.000,320.393 221.554,320.867 221.009 C 321.433 220.359,322.017 220.080,322.565 220.200 C 323.024 220.301,325.470 220.758,328.000 221.216 M197.371 224.358 C 198.866 224.944,197.075 225.087,191.703 224.812 C 188.790 224.662,186.285 224.418,186.136 224.270 C 185.766 223.899,196.412 223.983,197.371 224.358 M213.400 225.022 C 228.464 226.286,230.617 227.185,218.600 227.191 C 208.507 227.197,205.316 226.887,205.051 225.874 C 204.638 224.295,204.683 224.290,213.400 225.022 " stroke="none" fill="#EC791A" fill-rule="evenodd"></path><path id="path1" d="M0.000 200.000 L 0.000 400.000 200.000 400.000 L 400.000 400.000 400.000 200.000 L 400.000 0.000 200.000 0.000 L 0.000 0.000 0.000 200.000 M172.000 193.146 C 218.525 193.481,225.997 193.663,240.600 194.822 C 243.460 195.049,252.190 195.398,260.000 195.598 C 279.265 196.092,288.931 197.104,298.269 199.603 C 303.314 200.954,310.218 201.582,320.110 201.591 L 329.220 201.600 329.587 202.567 C 329.988 203.621,330.553 203.783,338.200 205.039 C 342.018 205.666,343.200 206.090,343.200 206.835 C 343.200 207.718,341.525 207.927,336.980 207.610 C 332.917 207.326,332.096 207.369,331.509 207.892 C 331.067 208.285,329.624 208.597,327.517 208.754 L 324.216 209.000 323.891 210.949 C 323.712 212.021,323.618 212.950,323.682 213.012 C 323.987 213.308,332.709 213.961,333.503 213.748 C 334.428 213.499,336.800 214.256,336.800 214.800 C 336.800 215.604,335.304 215.969,329.435 216.595 C 319.433 217.662,319.425 217.739,329.084 219.603 C 344.890 222.654,350.728 225.054,348.275 227.492 C 347.194 228.567,324.723 228.384,314.773 227.220 C 303.819 225.938,288.297 225.344,282.682 225.991 C 278.095 226.519,273.269 226.486,246.259 225.743 L 236.718 225.480 237.251 226.334 C 238.652 228.577,238.399 228.603,216.084 228.566 C 193.418 228.528,176.187 227.549,156.360 225.174 C 145.013 223.814,134.628 223.213,122.349 223.205 C 115.566 223.201,113.601 223.083,113.248 222.658 C 112.905 222.244,110.463 222.049,102.899 221.832 C 86.988 221.374,83.919 220.918,84.613 219.110 C 84.975 218.166,86.053 218.011,92.300 218.005 C 97.785 218.000,99.638 217.580,96.500 217.053 C 95.675 216.914,91.130 216.689,86.400 216.553 C 80.136 216.373,77.559 216.155,76.914 215.753 C 76.263 215.347,74.444 215.200,70.057 215.200 C 61.744 215.200,60.945 213.233,69.000 212.598 C 70.980 212.442,73.050 212.088,73.600 211.812 C 74.150 211.536,76.850 211.200,79.600 211.066 C 82.350 210.932,85.140 210.660,85.800 210.462 L 87.000 210.101 85.900 209.660 C 83.609 208.743,85.020 207.200,88.150 207.200 C 92.176 207.200,90.813 206.299,85.688 205.574 C 83.366 205.245,81.992 204.821,81.088 204.155 C 79.220 202.779,77.651 202.114,75.527 201.797 C 71.472 201.192,72.764 199.278,77.336 199.116 C 80.415 199.007,80.608 198.947,80.733 198.063 C 81.194 194.807,95.053 192.364,111.600 192.622 C 117.430 192.713,144.610 192.949,172.000 193.146 M95.142 195.009 C 89.247 195.813,84.312 197.281,85.057 198.009 C 86.391 199.311,112.213 199.711,113.357 198.447 C 114.060 197.670,116.268 196.973,121.800 195.781 C 124.212 195.261,124.803 195.013,124.200 194.774 C 122.844 194.236,99.419 194.425,95.142 195.009 M207.400 195.603 C 208.280 195.777,212.240 196.127,216.200 196.381 C 220.160 196.634,224.570 196.931,226.000 197.041 C 228.457 197.231,230.134 196.801,229.482 196.148 C 229.089 195.755,218.829 195.251,211.600 195.270 C 207.628 195.281,206.304 195.386,207.400 195.603 M135.600 197.650 C 131.750 197.787,128.060 198.079,127.400 198.298 L 126.200 198.696 127.200 198.962 C 129.474 199.565,143.781 199.043,143.914 198.352 C 144.092 197.426,143.430 197.370,135.600 197.650 M190.933 197.853 C 191.116 198.044,193.006 198.331,195.133 198.491 C 197.260 198.651,200.530 198.973,202.400 199.206 C 210.246 200.187,215.972 200.164,210.155 199.176 C 205.491 198.383,190.448 197.348,190.933 197.853 M236.939 197.872 C 237.088 198.022,239.773 198.370,242.905 198.647 C 253.515 199.585,260.053 199.168,252.284 198.049 C 248.930 197.566,236.489 197.422,236.939 197.872 M263.200 197.924 C 263.530 198.131,265.780 198.669,268.200 199.119 C 273.783 200.158,291.452 200.739,289.395 199.816 C 286.669 198.593,261.348 196.765,263.200 197.924 M86.800 203.473 C 86.800 203.938,90.507 204.526,100.200 205.597 C 108.802 206.548,108.400 206.536,108.400 205.849 C 108.400 204.721,107.225 204.468,100.000 204.038 C 95.930 203.795,91.295 203.482,89.700 203.340 C 87.913 203.182,86.800 203.233,86.800 203.473 M223.200 205.953 C 223.200 206.377,226.309 207.202,227.877 207.194 C 229.980 207.182,230.193 206.544,228.256 206.056 C 226.106 205.515,223.200 205.455,223.200 205.953 M309.249 205.961 C 308.007 206.748,309.341 207.200,312.904 207.200 C 316.979 207.200,317.194 206.719,313.427 206.032 C 310.582 205.514,309.971 205.504,309.249 205.961 M164.200 206.800 C 164.336 207.020,165.067 207.200,165.824 207.200 C 166.581 207.200,167.200 207.020,167.200 206.800 C 167.200 206.580,166.469 206.400,165.576 206.400 C 164.596 206.400,164.051 206.558,164.200 206.800 M322.400 206.800 C 323.176 207.301,323.600 207.301,323.600 206.800 C 323.600 206.580,323.195 206.403,322.700 206.406 C 321.972 206.411,321.915 206.486,322.400 206.800 M318.329 210.278 L 318.200 211.400 313.800 211.805 C 309.497 212.202,309.449 212.217,311.600 212.502 C 319.087 213.493,323.255 212.492,321.738 210.069 C 320.950 208.811,318.480 208.962,318.329 210.278 M113.200 217.200 C 113.992 217.712,116.800 217.712,116.800 217.200 C 116.800 216.980,115.855 216.803,114.700 216.806 C 113.197 216.811,112.770 216.922,113.200 217.200 M310.160 219.264 C 309.646 220.096,310.762 220.434,313.639 220.319 C 316.065 220.221,316.456 220.120,315.800 219.754 C 314.677 219.129,310.470 218.763,310.160 219.264 M320.867 221.009 C 320.393 221.554,319.824 222.000,319.603 222.000 C 319.381 222.000,319.200 222.175,319.200 222.388 C 319.200 222.613,321.348 222.823,324.300 222.888 C 329.179 222.995,329.405 223.037,329.523 223.863 C 329.659 224.818,329.272 224.953,325.000 225.443 C 323.242 225.645,322.814 225.802,323.400 226.031 C 324.434 226.435,345.600 226.497,345.600 226.096 C 345.600 225.138,337.960 223.020,328.000 221.216 C 325.470 220.758,323.024 220.301,322.565 220.200 C 322.017 220.080,321.433 220.359,320.867 221.009 M186.136 224.270 C 186.285 224.418,188.790 224.662,191.703 224.812 C 197.075 225.087,198.866 224.944,197.371 224.358 C 196.412 223.983,185.766 223.899,186.136 224.270 M205.043 224.730 C 203.822 226.706,206.531 227.198,218.600 227.191 C 228.329 227.186,228.854 226.491,219.794 225.611 C 209.384 224.600,205.275 224.355,205.043 224.730 " stroke="none" fill="transparent" fill-rule="evenodd"></path></g></svg>