<svg id="svg" version="1.1" xmlns="http://www.w3.org/2000/svg" xmlns:xlink="http://www.w3.org/1999/xlink" width="400" height="400" viewBox="0, 0, 400,400"><g id="svgg"><path id="path0" d="M122.800 172.022 C 119.610 172.186,115.830 172.517,114.400 172.757 C 112.970 172.997,110.338 173.195,108.550 173.197 C 103.902 173.201,102.995 173.471,101.162 175.395 C 99.206 177.447,98.693 177.578,86.400 179.170 C 71.981 181.037,66.400 181.352,53.800 181.011 C 33.855 180.471,34.815 180.441,33.916 181.638 C 32.866 183.036,33.448 185.230,35.586 187.935 C 38.238 191.290,39.990 191.873,48.909 192.370 C 57.520 192.850,57.531 192.854,61.129 196.510 C 63.077 198.489,63.749 199.485,64.053 200.840 C 64.271 201.808,65.320 203.885,66.386 205.455 C 67.451 207.025,68.686 209.131,69.129 210.134 C 71.824 216.226,74.328 216.938,85.000 214.648 C 121.636 206.787,122.615 206.779,220.000 213.570 C 226.270 214.008,234.280 214.472,237.800 214.603 C 241.868 214.754,244.564 215.032,245.200 215.366 C 245.750 215.654,247.041 216.373,248.069 216.962 C 251.312 218.821,254.584 219.000,285.400 219.000 C 307.475 219.000,313.590 218.891,314.300 218.486 C 315.683 217.696,315.517 215.430,313.900 213.018 C 311.597 209.583,311.417 209.250,311.705 208.962 C 311.861 208.805,317.166 208.988,323.495 209.367 C 342.878 210.528,348.111 210.630,348.748 209.862 C 349.557 208.888,349.011 206.874,347.382 204.825 C 345.181 202.057,345.418 201.842,351.004 201.545 C 355.129 201.325,364.733 200.002,366.900 199.355 C 370.152 198.384,366.864 192.480,361.564 189.773 L 359.400 188.668 337.800 188.574 C 317.162 188.485,312.895 188.277,309.770 187.206 C 307.063 186.279,298.312 184.772,292.281 184.194 C 288.716 183.853,283.370 183.308,280.400 182.984 C 262.571 181.038,253.702 180.316,238.400 179.565 C 231.011 179.202,228.863 178.959,226.400 178.203 C 222.097 176.884,222.019 176.873,215.200 176.583 C 210.239 176.372,208.441 176.131,206.200 175.377 C 202.241 174.045,200.380 173.702,195.600 173.424 C 193.290 173.290,189.330 173.005,186.800 172.791 C 176.407 171.913,134.690 171.412,122.800 172.022 " stroke="none" fill="#EC791A" fill-rule="evenodd"></path><path id="path1" d="M0.000 200.000 L 0.000 400.000 200.000 400.000 L 400.000 400.000 400.000 200.000 L 400.000 0.000 200.000 0.000 L 0.000 0.000 0.000 200.000 M163.000 172.005 C 173.560 172.224,184.270 172.578,186.800 172.791 C 189.330 173.005,193.290 173.290,195.600 173.424 C 200.380 173.702,202.241 174.045,206.200 175.377 C 208.441 176.131,210.239 176.372,215.200 176.583 C 222.019 176.873,222.097 176.884,226.400 178.203 C 228.863 178.959,231.011 179.202,238.400 179.565 C 253.702 180.316,262.571 181.038,280.400 182.984 C 283.370 183.308,288.716 183.853,292.281 184.194 C 298.312 184.772,307.063 186.279,309.770 187.206 C 312.895 188.277,317.162 188.485,337.800 188.574 L 359.400 188.668 361.564 189.773 C 366.864 192.480,370.152 198.384,366.900 199.355 C 364.733 200.002,355.129 201.325,351.004 201.545 C 345.418 201.842,345.181 202.057,347.382 204.825 C 349.011 206.874,349.557 208.888,348.748 209.862 C 348.111 210.630,342.878 210.528,323.495 209.367 C 317.166 208.988,311.861 208.805,311.705 208.962 C 311.417 209.250,311.597 209.583,313.900 213.018 C 315.517 215.430,315.683 217.696,314.300 218.486 C 313.590 218.891,307.475 219.000,285.400 219.000 C 254.584 219.000,251.312 218.821,248.069 216.962 C 247.041 216.373,245.750 215.654,245.200 215.366 C 244.564 215.032,241.868 214.754,237.800 214.603 C 234.280 214.472,226.270 214.008,220.000 213.570 C 122.615 206.779,121.636 206.787,85.000 214.648 C 74.328 216.938,71.824 216.226,69.129 210.134 C 68.686 209.131,67.451 207.025,66.386 205.455 C 65.320 203.885,64.271 201.808,64.053 200.840 C 63.749 199.485,63.077 198.489,61.129 196.510 C 57.531 192.854,57.520 192.850,48.909 192.370 C 39.990 191.873,38.238 191.290,35.586 187.935 C 33.448 185.230,32.866 183.036,33.916 181.638 C 34.815 180.441,33.855 180.471,53.800 181.011 C 66.400 181.352,71.981 181.037,86.400 179.170 C 98.693 177.578,99.206 177.447,101.162 175.395 C 102.995 173.471,103.902 173.201,108.550 173.197 C 110.338 173.195,112.970 172.997,114.400 172.757 C 120.936 171.659,135.471 171.434,163.000 172.005 " stroke="none" fill="transparent" fill-rule="evenodd"></path></g></svg>