<svg width="200" height="50" xmlns="http://www.w3.org/2000/svg">
 <g id="Layer_1">
  <title>Layer 1</title>
  <polyline stroke-linecap="round" id="svg_4" points="501,189.5 501,188.5 " stroke="#EC791A" fill="none"/>
  <polyline stroke-linecap="round" id="svg_5" points="193,90.5 194,90.5 " stroke="#EC791A" fill="none"/>
  <polyline stroke-linecap="round" id="svg_6" points="162,32.5 162,31.5 " stroke="#EC791A" fill="none"/>
  <path d="m8,36.5c1,0 2,0 3,0c2,0 4,0 6,0c3,0 5.90779,0.49623 10,1c0.99251,0.12218 3,0 5,0c2,0 3,1 4,1c2,0 3,0 4,0c1,0 2.15224,-0.76537 4,0c1.30656,0.54119 2,1 4,1c1,0 2.58578,-1.41422 4,0c0.70711,0.70711 1,1 3,1c1,0 2,1 3,1c2,0 3.69344,0.45881 5,1c1.84776,0.76537 4,0 6,0c1,0 2,0 5,0c4,0 7,0 10,0c2,0 5,0 7,0c4,0 7.9258,-0.49755 13,-1c4.97567,-0.49269 8.133,-0.5695 12,-2c2.09718,-0.77579 7,-1 10,-1c3,0 4,0 5,0c2,0 3,0 5,0c1,0 2,0 4,0c1,0 2,0 3,0c2,0 3,0 5,0c1,0 2,0 3,0c1,0 2,0 3,0c1,0 2,0 3,0c1,0 3,0 4,0c1,0 2,0 3,0c1,0 2,0 4,0c1,0 2,0 3,0c1,0 2.29289,-0.70711 3,0c0.70711,0.70711 2,1 3,1c1,0 2,0 3,0l1,0l1,0l1,0" id="svg_12" stroke-width="2" stroke="#EC791A" fill="none"/>
  <polyline stroke-width="2" stroke-linecap="round" id="svg_13" points="41,-65.5 40,-65.5 40,-66.5 " stroke="#EC791A" fill="none"/>
 </g>
</svg>